<?xml version="1.0" encoding="UTF-8"?>
<svg id="_图层_2" data-name="图层 2" xmlns="http://www.w3.org/2000/svg" viewBox="0 0 285.16 290.94">
  <defs>
    <style>
      .cls-1 {
        fill: #fffef9;
      }

      .cls-1, .cls-2, .cls-3, .cls-4, .cls-5 {
        stroke-width: 0px;
      }

      .cls-2 {
        fill: #ccb1aa;
      }

      .cls-3 {
        fill: #84584a;
      }

      .cls-4 {
        fill: #ec7a72;
      }

      .cls-5 {
        fill: #faeab1;
      }
    </style>
  </defs>
  <g id="_图层_1-2" data-name="图层 1">
    <g>
      <path class="cls-3" d="m172.65,289.44c-8.71,3.06-17.59.49-26.37.57-13.44.12-26.89-.6-40.34-1-31.77-.95-63.54-1.9-95.31-2.9-9.7-.31-11.98-4.19-9.97-15.48,4.78-26.79,9.38-53.61,14.03-80.42,2.22-12.79,3.61-25.79,6.96-38.27,1.18-4.37,3.21-9.51,6.5-13.39,3.52-4.15,8.27-5.66,13.57-5.64,2.44,0,4.86.44,6.98,1.63,3.27,1.84,3.76.58,4.84-2.65,4.73-14.21,1.77-29.25,5.68-43.63,9.6-35.28,38.7-61.24,75.16-65.76,2.26-.28,3.5-.98,3.9-3.4.46-2.78,2.44-4.15,5.28-4.43,1.1-.11,2.74.26,2.56-1.91-.41-4.95-.81-10.01,5.15-12.25,4.44-1.67,11.14,1.01,14.81,5.74,2.96,3.82,4.63,8.1,4.34,12.97-.12,1.99.74,2.6,2.5,2.8,31,3.58,54.44,18.76,68.8,46.54,8.91,17.24,11.56,35.99,9.11,55.33-.34,2.65,1.57,4.23,2.55,6.19,5.63,11.33,9.21,23.28,11.31,35.71.38,2.24.68,3.44,3.57,1.96,8.62-4.42,16.2.54,16.82,10.26.7,11.06-3.89,19.07-13.02,24.86-2.29,1.45-1.52,4.04-1.95,6.09-3.87,18.69-13.57,33.3-29.88,43.4-3.32,2.06-4.57,5.55-3.61,9.75,0,0,0,.03,0,.03.15.15.3.3.45.44l-.05-.05c1.1.88,2.26,1.59,3.73,1.58,1.34,1.4,6.65,1.12,6.14,3.88-.56,2.99-6.17.34-7.88-.1l.04.02c-1.06-.55-2.13-1.1-3.19-1.65-2.17-.32-2.68,1.33-3.34,2.8,0,0,.02-.02.02-.02-.61.3-1.22.59-1.84.89-1.9.68-3.8,1.35-5.7,2.03.04.05.12.14.11.15-.08.09-.18.17-.28.26-.14,2.69-.28,5.39-.42,8.08-2.14,1.76-4.67,1.63-7.25,1.76-6.26.31-12.5-1.12-18.75-.13-.13.14-.25.28-.38.43-2.12,2.09-4.7,2.05-7.47,1.93-4.53-.2-9.08-.01-13.62,0-.16.04-.31.09-.47.13-.81,1.21-1.62,2.42-2.43,3.63l.03-.04-.44.46v-.08c-.1.11-.22.23-.34.34l-.67.55ZM151.74,5.85c-.13.14-.26.28-.4.41-1.76,1.23-1.51,3.02-1.41,4.83.14,2.5,2.15,4.73,1.03,7.39-2.5.85-5.29-.92-7.69.84-2.47,1.38-.08,4.03-1.57,5.8-1.4,1.66-6.46,1.31-8.54,1.68-6.69,1.21-13.57,2.6-19.59,5.89-1.14-.04-2.14.23-2.86,1.2-3.19.62-5.78,2.5-8.54,4.04-1.56,1.21-3.13,2.41-4.69,3.62-3.53,1.41-6.14,4.07-8.91,6.52-.21.15-.43.29-.64.44l.04-.03c-.14.15-.27.29-.41.44-.75.09-1.22.46-1.23,1.27l.02-.08c-.13.16-.27.33-.4.49.02.11,0,.22-.05.32h0c-.1.04-.21.06-.33.04-.16.13-.33.27-.49.4,0,0,.07,0,.07,0-.29.26-.58.52-.87.78-.14.14-.28.29-.42.43l.04-.04c-.14.14-.29.28-.43.42-.13.14-.27.27-.4.41-.13.14-.27.27-.4.41-.14.19-.27.38-.41.57-2.82,3.12-5.66,6.23-7.34,10.18-1.07,1.56-2.13,3.12-3.2,4.68-.86.6-1.24,1.43-1.24,2.46l.05-.02c-1.31,1.05-1.86,2.49-2.03,4.1-4.73,8.59-6.34,18.05-7.77,27.58-1.23,8.14,1.29,16.66-2.49,24.56-.54,1.12-1.27,2.44-.41,3.82-.37,4.21-1.16,8.49,1.65,12.27l-.04-.04c0,1.93.89,2.5,2.84,2.43,4.63-.15,9.26-.01,13.89,0,.07.08.1.18.11.28-1.37.09-2.75.19-4.12.28,11.82.55,23.63.5,35.44.57,20.2.12,40.4.33,60.6.47.71,0,1.42-.21,2.13-.32,4.38.09,8.76.18,13.14.27h-10.21c9.03,1.22,16.91-.95,24.48,1.67.51.51,1.02,1.02,1.52,1.53,1.21,4.91,2.41,9.81,3.62,14.72,1.2-.41,2.39-.81,3.59-1.22,3.55-1.22,7.09-2.45,10.64-3.67l-.03.02c1.15.03,2.15-.28,2.88-1.24l-.04.02c.25-.17.49-.35.74-.52.69-.4,1.38-.79,2.07-1.19l.48-.34-.04.03c.77-.11,1.47-.32,1.65-1.22.14-.13.27-.27.41-.4,2.04-1.09,3.93-1.79,4.13,1.68-.29.4-.57.79-.86,1.19-.66.56-1.33,1.11-1.99,1.67-.96.66-1.92,1.32-2.89,1.98-5.01,1.93-10.01,3.86-15.02,5.79v-.09c-1.39.17-2.72.49-3.68,1.66,0,0,.01-.08.01-.08-.11.11-.23.22-.34.34-1.05.37-1.93.91-2.18,2.11l.07-.02c-.15.15-.3.3-.45.45,0,0,.02-.07.02-.07-1.38.09-1.12,1.51-1.78,2.18-1.57,4.74,1.18,8.01,3.87,11.29l-.03-.03c.15.14.3.29.45.43l-.02-.04c.13.14.26.28.38.43,3.14,3.34,6.15,6.83,10.59,8.57,7.53,4.04,15.35,4.24,23.34,1.65,1.09-.35,2.04-.5,3.08-.05l-.02-.03c.49,2.16-.89,3.19-2.45,4.13,0,0,.03-.03.03-.03-.55.14-1.11.29-1.66.43l.04-.02c-2.02.37-4.04.75-6.06,1.12-1.67,0-3.34,0-5,0-2.56-.51-5.12-1.02-7.69-1.53l.04.02-2.47-.84.03.03c-1.5-.69-3-1.37-4.5-2.06l.03.03c-.42-.28-.84-.56-1.25-.84,0,0,.05.01.05.01-.12-.02-.24-.05-.36-.07-.15.03-.3.06-.46.09.83,8.1,2.57,16.03,4.49,23.93l-.02-.03c1.19,6.8,2.24,13.63,3.6,20.39.87,4.33.97,8.85,2.88,12.96,4.44.03,8.43-1.43,12.19-3.67.27-.13.54-.27.81-.4.27-.14.54-.27.81-.41.93-.4,1.86-.8,2.79-1.2l8.04-6.14c.77-.04,1.3-.34,1.34-1.19,2.42-1.38,4.22-3.38,5.69-5.71,1.57-1.99,3.39-3.82,4.14-6.34.42-.47.84-.94,1.26-1.41l.7-1.18h-.08c1.78-1.83,2.76-4.06,3.27-6.53.8-.46.89-1.21.82-2.02,2.38-4.73,3.67-9.72,3.66-15.03-.12-2.96,2.62-3.73,4.16-5.41.63-.36,1.26-.73,1.89-1.09.3-.27.6-.54.91-.81l-.02.06.43-.45-.05.03c.28-.28.57-.56.85-.85l-.04.05c.15-.14.3-.27.46-.41.13-.14.27-.27.4-.41.26-.3.51-.61.77-.91l.97-1.19c.11-.11.22-.22.33-.34l-.06.02c.14-.28.29-.57.43-.86l-.03.04c.28-.55.56-1.11.84-1.66l-.03.04c.15-.28.29-.56.44-.85l-.03.04c.14-.28.29-.56.43-.85l-.02.04c.14-.42.29-.83.43-1.25l-.02.03c2.19-3.7,1.5-11.71-1.22-14.22l.04.04c-.15-.15-.3-.29-.44-.44l.03.04c-2.16-2.64-4.64-2.41-7.28-.82-.54.27-1.08.54-1.62.82-.79.06-1.46.3-1.65,1.19-1.49.59-2.78,3.03-4.59,2.28-1.73-.71-1.47-3.52-1.7-5.06-.91-6.02-1.99-12.3-4.31-17.95l.02.03c-.73-4.29-2.09-8.36-4.08-12.22l.02.03c-.28-.69-.55-1.38-.83-2.07l.05.03c-.1-.11-.21-.23-.31-.34-.32-.7-.64-1.41-.96-2.11.41-.95-.15-1.52-.82-2.04l.02.03c-.14-.28-.28-.56-.43-.84l.02.03c-.07-1.04-.35-1.97-1.41-2.45-.48-.92-.97-1.84-1.45-2.76-.14-.17-.28-.34-.42-.51l.03.03c.46-8.46,1.5-16.91.35-25.38-.83-6.14-1.37-12.35-4.08-18.07-.22-2.51-.94-4.84-2.46-6.88-1.54-5.42-4.13-10.29-7.63-14.69-.41-.73-.81-1.45-1.22-2.18-6.86-7.92-13.42-16.16-23.01-21.1-2.35-1.98-5-3.41-7.89-4.41-.43-1.46-1.71-1.34-2.83-1.54-.43-.89-1.24-.81-2.03-.81-.36-.26-.69-.62-1.1-.78-9.06-3.56-18.54-5.21-28.17-6.13l.03.02c-.28-.28-.56-.57-.84-.85,0,0,.02.02.02.02,0-.74-.08-1.49.03-2.21.54-3.66,1.05-7.29-1.68-10.42l.04.04c-.04-.92-.39-1.64-1.25-2.07l.02.03c-.16-.28-.31-.57-.47-.85l.06.08c-.81-.99-1.45-2.18-2.87-2.47-2.33-1.78-4.64-3.69-7.65-1.23-.14.13-.28.27-.42.4ZM27.84,150.45c-.28.21-.57.41-.85.62-3.96,3.18-3.79,13.27-4.52,17.99-.68,4.44.28,6.79,5.35,6.18-1.14.07-2.27.14-3.41.2v-.13h16.7c1.15-.03,2.3-.1,3.44-.08,46.09.67,92.18,1.33,138.27,2.06,1.98.03,2.45-.61,2.61-2.46.58-6.93,1.25-13.86,2.11-20.76.23-1.84-.19-2.06-1.84-2.07-36.96-.35-73.91-.75-110.87-1.16-3.37-.04-6.73-.23-10.09-.36,1.57-.08,3.14-.16,4.71-.24,0,.03,0,.06,0,.1h-37.29c-.32-.01-.65,0-.97,0-.62,0-1.24.02-1.86.03-.51.04-1.02.07-1.54.11,0,0,.05-.03.05-.03Zm142.56,135.23l-.05.03c.71-.13,1.22-.46,1.25-1.26v.06c1.28-.56,1.35-1.87,1.49-2.92,1.84-14.01,3.64-28.02,5.37-42.04,1.78-14.42,3.61-28.84,5.12-43.28.5-4.82,1.78-9.63,1.01-14.55l.04.04c-.5-.13-1-.36-1.5-.37-22.64-.41-45.29-.8-67.93-1.2-13.86-.25-27.71-.58-41.56-.75-6.59-.08-13.18.13-19.77.22-.31,0-.63,0-.94,0-.4-1.91-28.97-1.32-32.04-.73l.05-.04c-.26.68-.63,1.33-.76,2.03-5.16,29.66-10.35,59.31-15.37,88.99-.54,3.16-2.24,6.48-.1,9.73l-.03-.05c.52,1.83,2.08,2.26,3.61,2.4,2.96.26,5.93.33,8.9.43,16.35.53,32.69,1.08,49.04,1.56,33.45.99,66.9,1.95,100.34,2.91,1.07.03,2.18.12,3.01-.79l-.05.02c.29-.14.57-.29.86-.43ZM31.5,141.51c-.15.15-.29.3-.44.44l.04-.04c-1.01,1.32-2.45,2.51-1.43,4.48l.1-.09c6.35.16,12.7.39,19.05.43,1.77.01,3.69,1.23,5.35-.39-.78-2.84-2.61-4.89-4.93-6.57-.11-.1-.22-.21-.33-.31l.02.06c-3.77-3.36-11.83-3.36-15.44,0l.04-.03c-1.06.31-1.82.92-2.06,2.05,0,0,.02-.04.02-.04Zm190.53,117.8c-.2,2.98.36,5.81,1.71,8.48l.19-.03.15.11c1.78.69,2.99-.58,4.38-1.25.76-.83,1.53-1.66,2.29-2.49,1.21-.86,3.51-5.74,2.23-7.29-1.3-1.57-9.01,1.89-10.99,2.51l.04-.04Zm-28.12,21.12c.21-.13.42-.26.63-.39,1.3-.48,1.02-1.62,1.01-2.59-.11-11.96-.15-23.92-.4-35.88-.5-24.45-1.03-48.89-1.78-73.33-.08-2.62.56-5.48-.97-7.99-.43-1.33.64-2.98-.85-4.09-.11.16-.31.32-.32.49-1.78,16.34-3.45,32.7-5.35,49.03-2.27,19.47-4.81,38.9-7.08,58.37-.62,5.29-2.06,10.52-1.47,15.93.15.04.3.07.46.11,5.35,1.27,10.74.83,16.12.34Zm4.17-69.23c.26,0,.53,0,.79,0,0,17.33.29,34.66.6,51.99.06,3.13-1.2,10.87.25,13.51.47.86-.21.75.64,1.48.8.69,4.78.04,6.07.04,3.41.02,8.95,1.15,12.15.16,3.09-.95,2.52-1.66,1.91-5.01-3.12-17.03-6.32-34.07-10.01-50.98-2.91-13.35-2.15-26.18-12.35-36.52-.45,8.4-.06,16.92-.06,25.33Zm-1.36-55.37c-.13.04-.26.08-.38.13.38,4.63.32,9.51,1.57,13.99,2.84-3.05-.39-10.4-1.18-14.12Z"/>
      <path class="cls-5" d="m239.58,261.94c12.42,1.49,26.6,2.35,37.73,8.65,13.44,7.62-13.34,15.31-18.6,16.36-27.7,5.52-56.58,3.94-84.6,2.75.26-.68.51-1.36.77-2.05.1-.1.19-.21.29-.31.16-.18.31-.35.47-.53,0,0-.05-.02-.05-.02,3.79-2.18,8.3-1.28,12.61-1.18,2.84.06,7.3,1.25,9.01-1.74.21-.19.41-.39.62-.58,3.42-.43,24.5,1.94,25.34-1.31l-.04.04c.2-.19.4-.39.6-.58l.08-.08c.2-.19.41-.37.61-.56,0,0-.04.05-.04.05.15-.19.3-.37.44-.56,0,0-.04-.12-.04-.12l.09-.08c.11-.19.23-.38.34-.56,0,0-.04,0-.04,0,.9-.15.89-.85.92-1.52.1-2.43-.98-5.26,2.26-6.62h.03c.31-.11.62-.24.92-.36,0,0-.06.04-.06.04.28-.16.57-.32.85-.48l-.06.05c1.34.24,1.98-.6,2.51-1.61,0,0-.02.02-.02.02,3.32-3.49,6.08.46,9.12.67,1.52.11,3.04,2.13,4.6.08h.02c.22-.19.45-.38.67-.58.05.01.11.03.16.04-.05-.01-.11-.02-.16-.03.18-.24.36-.47.54-.71l-.05.05c1.43-.6,1.35-1.24.04-1.9,0,0,.05.05.05.05-1.75-3.46-5.34-2.62-8.2-3.52l-.06.05c.11-.44.21-.89.32-1.33Z"/>
      <path class="cls-2" d="m269.78,15.18c2.35-.04,3.67,1.89,2.78,3.88-.94,2.11-5.52,4.46-7.41,5.89-2.92,2.2-5.84,4.4-8.76,6.59-1.69,1.26-4.97,4.77-7.18,4.38-7.22-1.28,4.91-9.31,6.41-10.47,4.23-3.25,9.14-8.5,14.16-10.28Z"/>
      <path class="cls-2" d="m51.43,39.95c-5.47-2.89-10.48-6.73-15.58-10.23-1.62-1.11-6.77-3.48-7.45-5.54-.75-2.27.92-3.89,3.16-3.72,2.36.18,5.45,3.28,7.29,4.55,2.66,1.83,5.31,3.66,7.97,5.5,1.92,1.33,12.89,8.34,4.61,9.44Z"/>
      <path class="cls-2" d="m262.39,52.07c-3.26.14-5.54.61-5.81-2.26-.28-2.98,2.19-3,4.15-3.22,5.62-.63,11.26-1.13,16.89-1.71,1.96-.2,3.47.38,3.57,2.52.09,1.88-1.07,2.9-3,3.08-5.7.54-11.39,1.14-15.79,1.59Z"/>
      <path class="cls-2" d="m26.24,49.82c5.2.25,10.4.47,15.59.76,1.77.1,3.01,1.05,2.96,2.92-.05,1.82-1.12,2.79-3.06,2.69-6.14-.32-12.29-.57-18.42-.94-1.71-.1-2.97-.97-2.84-2.97.12-1.95,1.31-2.66,3.14-2.61.88.03,1.76,0,2.64,0,0,.05,0,.09,0,.14Z"/>
      <path class="cls-2" d="m234.86,22.57c-6.13-1.31-1.03-6.61.97-9.58,1.71-2.55,5.83-11.28,8.99-11.64,6.8-.78.63,7.32-.62,9.16-2.7,3.99-5.3,9.4-9.34,12.06Z"/>
      <path class="cls-2" d="m70.41,23.42c.09,1.27-.55,2.03-1.69,2.44-1.43.51-2.61,0-3.35-1.16-3.1-4.87-6.13-9.8-9.15-14.72-.64-1.04-.8-2.2.17-3.15.8-.78,1.76-1.22,2.93-.7,1.52.67,11.12,15.58,11.09,17.28Z"/>
      <path class="cls-1" d="m239.58,261.94c-.11.44-.21.89-.32,1.33-.74-.25-1.49-.5-2.23-.75,0,0,.05.05.05.05-.15-.15-.3-.3-.45-.44,0,0,0-.03,0-.03.92-1.27,1.98.06,2.95-.16Z"/>
      <path class="cls-1" d="m174.88,287.66c-.26.68-.51,1.36-.77,2.05-.49-.09-.97-.18-1.46-.27.22-.18.44-.37.67-.55.12-.11.23-.23.35-.34,0,0-.01.08-.01.08.15-.15.3-.31.44-.46,0,0-.03.04-.03.04.27-.18.54-.37.81-.55Z"/>
      <path class="cls-5" d="m256.99,229.78c-.75,2.53-2.56,4.36-4.14,6.35-1.57.45-2.25,1.88-3.25,2.96-.11.14-.21.27-.32.41h.01c-.14.13-.29.27-.43.41l.02-.02c-.13.13-.27.27-.4.4l-.03.03c-.13.13-.27.26-.4.39,0,0,0,0,0,0-.15.14-.29.28-.44.42l.04-.05c-.15.15-.31.3-.46.45,0,0,.04-.04.04-.04-.28.28-.57.56-.85.83,0,0,.02-.02.02-.02l-10.79,7.59s-.06,0-.06,0c-.7-.39-1.09-.1-1.3.59,0,0,0,0,0,0-.28.14-.55.28-.83.42,0,0,0-.01,0-.01l-2.1.8s.05-.05.05-.05c-.4.14-.79.27-1.19.41l-.06.03-.71.5s-.01-.03-.01-.03c-5.05.92-7.65,3.01-8.67-2.94-.59-3.44-1.14-6.86-1.84-10.28-.16-.8-1.29-5.42-1.45-5.03-.93-4.26-1.85-8.51-2.78-12.77,0,0,.02.03.02.03-1.5-7.98-2.99-15.95-4.49-23.93.15-.03.3-.06.46-.09.11.06.23.08.36.07,0,0-.05-.01-.05-.01.42.28.84.56,1.25.84,0,0-.03-.03-.03-.03,1.5.69,3,1.37,4.5,2.06,0,0-.03-.03-.03-.03.82.28,1.65.56,2.47.84,0,0-.04-.02-.04-.02,2.44,1.14,5.06,1.33,7.69,1.53,1.67,0,3.34,0,5,0,2.02-.37,4.04-.75,6.06-1.12,0,0-.04.02-.04.02.55-.14,1.11-.29,1.66-.43,0,0-.03.03-.03.03,2.32-.48,3.62-1.58,2.45-4.13,0,0,.02.03.02.03-.36-.87-1.17-1.05-1.84-.77-8.33,3.38-16.48,2.32-24.58-.83-4.44-1.74-7.45-5.23-10.59-8.57-.13-.14-.26-.28-.39-.43,0,0,.02.04.02.04-.15-.14-.3-.29-.45-.43,0,0,.03.03.03.03-.02-.18-.03-.37-.05-.55-.15-.22-.31-.43-.46-.65l.03.04-.54-.79.09.08c-.12-.17-.24-.35-.36-.52h0c-.16-.27-.32-.53-.49-.79l.03.03c-.17-.26-.33-.52-.5-.78h.03c.18-.73.14-1.37-.72-1.66l-.02-.03c-.3-2.68-.85-5.39.86-7.85,0,0-.02.07-.02.07.15-.15.3-.3.45-.45,0,0-.07.02-.07.02,2.9-1.58,5.8-3.16,8.7-4.74h.17s.04.15.04.15c.88,0,1.86.22,2.23-.97l.12-.03.07.11c.26-.1.52-.2.78-.29h.03c2.16-.19,4.31-.38,5.86-2.19l.18-.04.07.16c1.17-.09,2.31-.25,2.84-1.53,0,0,.05-.04.05-.04.25-.15.5-.31.75-.46l.1.05-.1-.03c.69.14,1.09-.15,1.24-.83l-.05.06c.18-.13.35-.26.53-.4,0,0-.05.04-.05.04.38-.31.77-.62,1.15-.93l.11.06-.12-.04.47-.38-.04.04c.16-.14.31-.28.47-.42l-.03.03c.15-.15.31-.29.46-.44,0,0-.06.06-.06.06.15-.15.3-.3.45-.45.13-.14.26-.28.38-.42,1.21-.76,1.19-1.68.35-2.7h.02c.07-.87-.34-1.25-1.21-1.18h0c-.92-.83-1.68-.75-2.26.4l-.1-.06.1.05c-.15.14-.3.28-.45.41l.03-.03c-.15.14-.3.27-.45.41,0,0,.02-.02.02-.02-.89.02-1.4.49-1.59,1.34-.18.21-.36.42-.54.63,0,0,.04-.03.04-.03-.16.11-.32.23-.48.34-.69.4-1.38.79-2.07,1.19-.25.17-.49.35-.74.52,0,0,.04-.02.04-.02-.96.41-1.92.83-2.88,1.24,0,0,.03-.02.03-.02-3.55,1.22-7.09,2.45-10.64,3.67-1.2.41-2.39.81-3.59,1.22.02-.41.04-.81.06-1.22.21-3.8-.49-7.41-2.12-10.85-.52-.88-1.04-1.76-1.56-2.65-.51-.51-1.02-1.02-1.52-1.53-4.47-3.02-9.52-1.1-14.27-1.67-4.38-.09-8.76-.18-13.14-.27-4.87-.04-9.75-.08-14.62-.12,0-.1,0-.21-.03-.31-.56-.14-1.12-.38-1.69-.39-8.71-.15-17.42-.31-26.13-.39-21.43-.18-42.85-.34-64.28-.43-1.89,0-3.39-.15-4.15-2.09,0,0,.04.04.04.04-.8-2.74-2.09-5.37-1.61-8.36.53-3.22,1.01-6.45,1.51-9.68h-.09c1.22-.71,1.42-1.86,1.3-3.13v-.1s.09-.04.09-.04c.04-.14.08-.29.12-.43.02.05.04.09.05.14-.02-.05-.04-.09-.07-.14,1.22-.45.69-1.5.68-2.26-.17-8.96.04-17.87,2-26.7,1.51-6.8,4.2-13.17,6.42-19.71l-.14-.06.02-.15c.63.05.62-.25.38-.68l-.02-.05c2.31-2.28,3.51-5.22,4.79-8.12,1.69-3.94,4.52-7.05,7.34-10.17.12-.06.24-.13.37-.19.92.33.68-.44.81-.86l-.03.04c.15-.15.3-.31.44-.46,0-.12.01-.23.06-.34,0,0-.04.04-.04.04.11-.05.23-.07.35-.07.28-.28.55-.56.83-.84h-.01c.29-.24.57-.5.86-.76,0,0,0,0,0,0,.26-.29.52-.58.77-.86,0,0,0,0,0,0,.69-.09,1.36-.21,1.23-1.16.03-.14.05-.28.08-.42,0,0-.04.03-.04.03.21-.15.43-.29.64-.44,2.77-2.45,5.37-5.12,8.91-6.52,2.43-1,4.76-2.18,6.62-4.1h0c1.06.03,2.01-.14,2.4-1.32v.02c.28-.15.58-.3.87-.45,0,0-.07.05-.07.05.29-.15.58-.29.87-.44l-.05.05c.5.08,1.05.24,1.05-.59l.14-.02c.41.24.7.26.65-.35,0,0,.16-.02.16-.02,1.11.08,2.23.17,2.67-1.22l.09-.05.1.04c.86.29,1.65.4,1.86-.82l.19-.02.05.18c1.23.03,2.35-.2,3.04-1.37h.17s.03.17.03.17c1.43.01,2.87.03,3.72-1.45,4.71-1,9.45-1.84,14.1-3.06,2.31-.61,5.56.71,6.71-2.77,1.27-1.27-.15-2.73.28-4.06,0,0-.03.02-.03.02,2.6-.15,8.47.69,9.34-2.7.76-2.95-1.85-6.99-1.31-10.39,0,0-.01-.04-.01-.04.73,0,.95-.44.96-1.07h0c.44-.04,1.03.15.96-.65.08.07.17.14.25.21,1.39.13,2.79.26,4.18.39l.04.02c.28.11.56.22.84.33l-.11.02s.11-.03.11-.04c.45,1.05,1.3,1.53,2.38,1.7h0c.16.15.32.29.48.43h-.11s0-.09,0-.09c.15.16.3.31.45.47.38.19.75.38,1.13.57,0,0-.06-.08-.06-.07.16.28.31.57.47.85,0,0-.02-.03-.02-.03.42.69.83,1.38,1.25,2.07,0,0-.04-.04-.04-.04.55,1.72,1.14,3.42,1.64,5.15.71,2.48-1.2,4.98,0,7.48,0,0-.02-.02-.02-.02.28.28.56.57.84.85,0,0-.03-.02-.03-.02.34.25.67.49,1.01.74.45.98,1.29.19,1.91.42h.01c2.17.27,4.33.55,6.5.83l-.05-.04c5.04,1.2,10.07,2.41,15.11,3.61l.02-.16s.16,0,.16,0c2.19,1.82,4.85,2.45,7.54,3.03h.01c.28.13.56.26.85.4l-.05-.05c.26.18.53.36.79.53,0,0-.02-.02-.02-.02,2.74,1.47,5.47,2.94,8.21,4.41,9.59,4.94,16.15,13.18,23.01,21.1.16.5.32,1,.48,1.5-.02.68.11,1.26.94,1.35l-.03-.02c-.16.68.05,1.12.77,1.26h0c-.03.93.24,1.69,1.19,2.04v.02c.17.26.32.52.48.78l-.02-.02c.24.42.47.84.71,1.26l.04.05c.13.25.27.51.4.76v.02c.01.45-.2,1.03.62.97l.04.13-.11.08c-.11.92.13,1.65,1.05,2.04l.05.06c-.07,1.13-.02,2.21,1.22,2.75,0,0,.03.05.03.04,1.71,5.57,3.42,11.15,5.14,16.72,2.47,8.21,2.69,16.62,2.34,25.11-.14,3.42-1.46,6.83-.29,10.29,0,0-.03-.03-.03-.03.14.17.28.34.42.51.48.92.97,1.84,1.45,2.76.47.82.94,1.63,1.41,2.45,0,0-.02-.03-.02-.03.14.28.28.56.43.84,0,0-.02-.03-.02-.03.27.68.54,1.36.82,2.04.32.7.64,1.41.96,2.11.1.11.21.23.31.34,0,0-.05-.03-.05-.03.28.69.55,1.38.83,2.07,0,0-.02-.03-.02-.03,1.36,4.07,2.72,8.15,4.08,12.22,0,0-.02-.03-.02-.03,1.36,6.48,2.74,12.96,4.08,19.44.41,1.98.14,4.45,3.33,4.18.21-.08.41-.15.62-.23l-.03.05c.16-.14.33-.29.49-.43l-.06.06c.15-.16.29-.32.44-.47l-.05.06c.16-.15.32-.31.48-.46,0,0-.05.05-.05.05.15-.15.31-.3.46-.46,0,0-.02.02-.03.02,1.47-.29,2.46-1.23,3.3-2.39h-.01c2.35-.51,4.7-.9,7.11-.46v-.03c.08.06.16.11.25.17.27.14.55.29.82.43,0,0-.03-.04-.03-.04.15.15.3.29.44.44,0,0-.04-.04-.04-.04,2.72,4.54,2.08,9.37,1.22,14.22,0,0,.02-.03.02-.03-.14.42-.29.83-.43,1.25,0,0,.02-.04.02-.04-.14.28-.29.56-.43.85,0,0,.03-.04.03-.04-.15.28-.29.56-.44.85,0,0,.03-.04.03-.04-.28.55-.56,1.11-.84,1.66,0,0,.03-.04.03-.04-.14.29-.29.57-.43.86,0,0,.06-.02.06-.02-.13.03-.27.06-.4.08-1.02.28-1.44,1.04-1.62,2,0,0,.02-.02.02-.02-.28.28-.56.57-.84.85l.02-.02c-1.68.76-3.05,1.89-4.08,3.42-1.55,1.68-4.28,2.45-4.16,5.41-.06.03-.15.06-.16.1-.09.42-.16.85-.23,1.27-.65,2.69-1.29,5.39-1.94,8.08-.02.13-.04.27-.07.4-1.13,2.52-2.36,5-2.53,7.83v.09c-.81,0-.62.53-.55,1.01,0,0-.08.12-.08.12-.11.25-.22.49-.34.74l-.03.04c-.9.23-.91.9-.79,1.62l.04-.03-.43.8-.05.06c-1.34,1.03-2.05,2.45-2.45,4.05Zm-131.56-100.76l-.02.03c-.08.16-.16.32-.24.48v.04c-1.74,1.59-1.56,3.24-.12,4.91h0c-.06.76.06,1.39,1.03,1.39.53.26,1.07.53,1.6.79,5.94,3.25,12.11,3.04,18.39,1.21l-.03.03c.96-.41,1.92-.83,2.87-1.24,0,0-.03.02-.03.02,2.73-1.21,2.94-3.61,2.89-6.13-.39-1.86-.37-3.59.6-5.39.46-.87.45-2.26-.76-3.04.09-.85-.35-1.22-1.15-1.27-.51-1.04-1.36-1.54-2.5-1.57-4.03-3.12-17.57-2.92-21.01.31-1.1.25-1.81.89-2.01,2.04-1.5,1.87-1.2,3.61.37,5.26.13.11.27.22.4.33.27.17.53.34.8.51,0,.12,0,.24,0,.36-.25.16-.51.32-.76.47-.11.15-.21.3-.32.46Zm49.78-10.32h.01c.29-.26.58-.51.87-.76.12-.14.24-.29.36-.43,2.43-2.87,2.59-5.84.35-8.89l-.1-.14.12-.13c-.18-.16-.35-.31-.53-.47-.2-.18-.4-.36-.6-.54,0,0,.03.02.03.02-.28-.15-.57-.31-.85-.46l.06.06c-2.41-2.62-4.81-2.08-7.21.02-.22.27-.44.54-.65.8-.93-.38-1.05.2-1.06.91-1.61,3.1-1.9,6.1.75,8.84.05.78.45,1.2,1.25,1.2l-.03-.03c.16.12.33.23.49.35l.03.02c.29.9.83,1.24,1.74.78,1.68,1.18,3.08.35,4.45-.65.17-.17.35-.33.52-.5Zm-71.03-.72l-.03-.03c1.67.99,3.35,1.22,5.03.02.64-.48,1.28-.97,1.92-1.45.14-.21.29-.41.43-.62l-.03.04c1.52-2.79,2.54-5.59,0-8.38-.16-.35-.32-.7-.48-1.04-.01-1.03-.82-1.28-1.55-1.62l.03.02c-2.01-1.18-3.94-1.25-5.75.41l.03-.02c-.14-.04-.26-.01-.36.09-.27.26-.55.53-.82.79-2.33,3.15-2.75,6.38-.45,9.75l-.03-.03c.25,1.12,1.07,1.68,2.07,2.07Z"/>
      <path class="cls-1" d="m52.93,179.65c.31,0,.63,0,.94,0,26.51.43,53.03.85,79.54,1.28.44.01.87.02,1.31.03.35.01.7.02,1.05.03.21,0,.42.02.63.02.32,0,.64.02.96.02.19.02.39.03.58.05.38.03.76.05,1.13.08.17,0,.34.01.5.02,15.02.19,30.04.38,45.06.57,0,0-.04-.04-.04-.04-1.13,10.58-2.17,21.16-3.42,31.72-1.88,15.89-3.8,31.78-5.94,47.63-1.06,7.83-1.29,15.8-3.65,23.44,0,0,.01-.06.01-.06-.42.42-.83.84-1.25,1.26,0,0,.05-.03.05-.03-.29.14-.57.29-.86.43,0,0,.05-.02.05-.02-10.33-.15-20.67-.16-31-.47-42.7-1.27-85.4-2.63-128.1-3.92-2.23-.07-4.21-.49-5.81-2.12,0,0,.03.05.03.05-.15-1.32-.62-2.69-.41-3.95,3.38-19.94,6.86-39.86,10.3-59.78,2.13-12.34,4.23-24.68,6.34-37.02,0,0-.05.04-.05.04,10.68.24,21.36.49,32.04.73Zm-13.3,11.49l.02-1.65c-2.98-.08-6.18-.7-6.93,3.6-4.29,24.51-8.63,49-12.93,73.51-.44,2.5.35,4.06,3.23,4.13,13.45.34,26.89.78,40.34,1.12,29.48.73,58.96,1.22,88.42,2.31,5.79.21,7.12-1.73,7.78-6.87,2.97-22.98,6.22-45.93,9.63-68.85.76-5.13-.94-6.58-5.82-6.59-12.78-.04-25.56-.62-38.34-.67-28.47-.11-56.94-.04-85.41-.04Z"/>
      <path class="cls-4" d="m32.15,150.33c.35,0,.71,0,1.06.01,10.51.05,21.01.09,31.52.14,3.36.12,6.73.32,10.09.36,36.96.41,73.91.81,110.87,1.16,1.65.02,2.07.23,1.84,2.07-.87,6.9-1.53,13.83-2.11,20.76-.15,1.86-.63,2.49-2.61,2.46-46.09-.73-92.18-1.4-138.27-2.06-1.15-.02-2.29.05-3.44.08-4.43-.02-8.86-.05-13.29-.07-5.07.61-6.02-1.74-5.35-6.18.72-4.72.55-14.81,4.52-17.99.28-.21.57-.41.85-.62,0,0-.05.03-.05.03.51-.04,1.02-.07,1.54-.11.62,0,1.24-.02,1.86-.03.32,0,.65,0,.97,0Z"/>
      <path class="cls-4" d="m198.09,211.21c0-8.41-.39-16.93.06-25.33,10.2,10.34,9.44,23.17,12.35,36.52,3.68,16.92,6.89,33.96,10.01,50.98.61,3.35,1.18,4.06-1.91,5.01-3.2.99-8.74-.14-12.15-.16-1.29,0-5.27.64-6.07-.04-.85-.73-.17-.62-.64-1.48-1.45-2.64-.19-10.38-.25-13.51-.31-17.33-.6-34.66-.6-51.99-.26,0-.53,0-.79,0Z"/>
      <path class="cls-1" d="m194.54,280.05c-.21.13-.42.26-.63.39-5.37-.11-10.75-.22-16.12-.34-.15-.04-.3-.07-.46-.11,4.94-41.26,9.89-82.49,14.23-123.82,1.49,1.11.42,2.76.85,4.09.64,15.97,1.51,31.94,1.86,47.92.51,23.13.64,46.26.89,69.39,0,.82-.4,1.65-.62,2.47Zm-8.77-.43c3.3,0,7.01,1.17,8.48-2.45,1.42-3.48-.03-10.09-.11-13.87-.26-11.23-.39-22.47-.54-33.71-.15-10.82-.23-21.64-.37-32.46-.07-5.13-.14-10.27-.33-15.4-.17-4.64.61-10.94-1.38-15.15-2.52,11.14-2.53,23.16-3.69,34.51-1.19,11.62-2.75,23.2-4.24,34.78-1.5,11.63-3.07,23.25-4.57,34.88-.92,7.14-.71,8.84,6.75,8.87Z"/>
      <path class="cls-5" d="m49.25,139.77c2.32,1.68,4.14,3.74,4.93,6.57-8.14-.01-16.27-.02-24.41-.03,0,0-.1.09-.1.09-.4-1.77,1.18-2.91,1.43-4.48,0,0-.04.04-.04.04.15-.15.29-.3.44-.44,0,0-.02.04-.02.04.69-.68,1.37-1.37,2.06-2.05,0,0-.04.03-.04.03,5.15-2.9,10.29-2.62,15.44,0,0,0-.02-.06-.02-.06.11.1.22.21.33.31Z"/>
      <path class="cls-1" d="m230.75,264.14c-.76.83-1.53,1.66-2.29,2.49-1.46.42-2.92.84-4.38,1.25l-.15-.11s-.19.03-.19.03c-.57-2.83-1.14-5.65-1.72-8.48,0,0-.04.04-.04.04,3.57-.69,7.05-1.52,10.56-2.44.24,2.62-.44,5-1.8,7.22Zm-5.19-2.67c-2.42-.25-3.34,2.27-1.6,4.49,1.85,2.36,5.38-.81,6.34-2.66-1.89-.73-3.77-1.46-4.74-1.83Z"/>
      <path class="cls-1" d="m59.44,143.95c.76,1.94,2.27,2.08,4.15,2.09,21.43.08,42.85.24,64.28.43,8.71.07,17.42.24,26.13.39.57,0,1.13.26,1.69.39-3.24.01-6.49.02-9.73.04l-18.15-.16c-.19,0-.37,0-.56,0-.63,0-1.25,0-1.88,0-1.12-.57-2.26-.55-3.4-.05-.48.03-.97.06-1.45.09l-13.97-.31c-5.37-.05-10.75-.09-16.12-.14-4.76-.11-9.51-.21-14.27-.32-4.63-.02-9.27-.16-13.9,0-1.96.06-2.85-.5-2.84-2.43Z"/>
      <path class="cls-4" d="m196.72,155.85c.79,3.72,4.02,11.07,1.18,14.12-1.24-4.48-1.19-9.37-1.57-13.99.13-.04.26-.08.38-.13Z"/>
      <path class="cls-1" d="m197.21,283.87c-1.71,3-6.17,1.81-9.01,1.74-4.31-.1-8.82-1-12.61,1.18.31-.74.61-1.48.91-2.22.16-.04.31-.09.47-.13,2.5.06,5.01.18,7.51.16,4.25-.03,8.6,1.39,12.73-.74Z"/>
      <path class="cls-1" d="m246.24,269.81c-1.56,2.05-3.08.03-4.6-.08-3.04-.21-5.79-4.16-9.12-.67.66-1.47,1.18-3.12,3.34-2.8.63,1.39,2,1.34,3.19,1.65,0,0-.04-.02-.04-.02,2.26,1.19,4.59,2.13,7.22,1.93Z"/>
      <path class="cls-1" d="m235.62,249.89c3.6-2.53,7.2-5.06,10.79-7.59-.2.24-.39.49-.59.73-2.68,2.05-5.36,4.1-8.04,6.14-.72.24-1.44.48-2.17.71Z"/>
      <path class="cls-1" d="m57.84,131.71c.52-1.92,1.03-3.84,1.55-5.76-.5,3.23-.98,6.45-1.51,9.68-.49,2.99.8,5.63,1.61,8.36-2.81-3.79-2.01-8.06-1.65-12.27Z"/>
      <path class="cls-1" d="m228.35,271.4c-3.25,1.35-2.16,4.19-2.26,6.62-.03.67-.02,1.37-.92,1.52.56-2.42.31-4.81-.32-7.18.09-.08.19-.16.28-.26,0-.01-.07-.1-.11-.15,1.11-.18,2.23-.37,3.34-.55Z"/>
      <path class="cls-1" d="m208.72,39.03c-2.74-1.47-5.47-2.94-8.21-4.41,0,0,.16.04.16.04l.16-.04c2.89,1,5.54,2.44,7.89,4.41Z"/>
      <path class="cls-1" d="m208.62,168.44c.84-.27,1.68-.54,2.52-.81-2.9,1.58-5.8,3.16-8.7,4.74.24-1.2,1.12-1.74,2.18-2.11.11-.11.23-.22.34-.34,0,0-.01.08-.01.08,1.23-.55,2.46-1.1,3.69-1.66v.09Z"/>
      <path class="cls-1" d="m74.93,64.53c-1.28,2.89-2.48,5.83-4.79,8.12.13-.33.27-.66.4-.99,0,0-.05.02-.05.02.41-.82.83-1.64,1.24-2.46,1.07-1.56,2.13-3.12,3.2-4.68Z"/>
      <path class="cls-1" d="m104.1,37.45c-1.86,1.92-4.19,3.1-6.62,4.1,1.56-1.21,3.13-2.41,4.69-3.62.64-.16,1.28-.32,1.93-.48Z"/>
      <path class="cls-5" d="m90.45,146.71c-4.72-.01-9.44-.03-14.16-.04,0-.11-.04-.2-.11-.28,4.76.11,9.51.21,14.27.32Z"/>
      <path class="cls-1" d="m201.21,180.57c-.92-1.79-1.32-3.66-.92-5.67.66-.67.4-2.09,1.78-2.18-1.71,2.46-1.16,5.17-.86,7.85Z"/>
      <path class="cls-1" d="m270.77,198.2c1.03-1.53,2.4-2.66,4.08-3.42-.03.12-.07.23-.11.35,0,0,.04-.05.04-.05-.28.28-.57.56-.85.85,0,0,.05-.03.05-.03-.14.15-.29.3-.43.45,0,0,.02-.06.02-.06-.3.27-.6.54-.91.81-.63.36-1.26.73-1.89,1.09Z"/>
      <path class="cls-1" d="m259.44,225.73c-.19.49-.38.98-.58,1.47,0,0,.08-.01.08-.01l-.7,1.18c-.42.47-.84.94-1.26,1.41.4-1.6,1.11-3.02,2.45-4.05Z"/>
      <path class="cls-1" d="m230.04,270.64c.22-.24.45-.48.67-.72.61-.3,1.22-.59,1.84-.89-.53,1.01-1.17,1.85-2.51,1.61Z"/>
      <path class="cls-1" d="m275.66,193.96c.18-.96.6-1.72,1.62-2,0,.09.03.17.07.25-.32.4-.65.79-.97,1.19-.24.19-.47.37-.71.56Z"/>
      <path class="cls-1" d="m86.33,50.19c.11-.06.23-.1.35-.13-.26.29-.52.58-.77.86.05-.1.07-.21.05-.32.13-.16.27-.33.4-.49l-.02.08Z"/>
      <path class="cls-1" d="m85.91,50.91c-.29.26-.57.51-.86.77.02-.11.06-.22.12-.32,0,0-.07,0-.07,0,.16-.13.33-.27.49-.4.11.02.22,0,.33-.05Z"/>
      <path class="cls-1" d="m202.5,172.34c-.15.15-.3.3-.45.45.15-.15.3-.3.45-.45Z"/>
      <path class="cls-1" d="m198.06,282.51c.13-.14.25-.28.38-.43,6.74.24,13.47.54,20.21.67,1.5.03,3.01-.51,4.51-.78-.84,3.25-21.92.88-25.34,1.31.08-.26.16-.52.23-.77Z"/>
      <path class="cls-1" d="m240.77,264.1c-.48-.29-.96-.59-1.44-.88,2.85.89,6.45.06,8.2,3.52-1.83-1.96-4.52-1.72-6.75-2.64Z"/>
      <path class="cls-1" d="m247.42,268.59c.01-.63.03-1.27.04-1.9,1.31.66,1.38,1.3-.04,1.9Z"/>
      <path class="cls-1" d="m246.93,269.24c.18-.24.36-.47.54-.71-.18.24-.36.47-.54.71Z"/>
      <path class="cls-1" d="m246.26,269.81c.22-.19.45-.38.67-.58-.22.19-.45.38-.67.58Z"/>
      <path class="cls-1" d="m229.25,271.07c.28-.16.57-.32.85-.48-.28.16-.57.32-.85.48Z"/>
      <path class="cls-1" d="m228.38,271.41c.31-.13.62-.25.92-.38-.31.13-.62.25-.92.38Z"/>
      <path class="cls-1" d="m223.8,281.36c.2-.19.41-.37.61-.56-.2.19-.41.37-.61.56Z"/>
      <path class="cls-1" d="m223.12,282.02c.2-.19.4-.39.6-.58-.2.19-.4.39-.6.58Z"/>
      <path class="cls-1" d="m224.87,280.1c.11-.19.22-.37.34-.56-.11.19-.22.37-.34.56Z"/>
      <path class="cls-1" d="m224.44,280.45c.13-.05.25-.1.38-.16-.15.19-.3.37-.44.56.02-.13.04-.27.06-.4Z"/>
      <path class="cls-1" d="m175.17,287.35c.16-.18.31-.35.47-.53-.15.18-.31.35-.47.53Z"/>
      <path class="cls-3" d="m126.51,128.1c-.01-.12-.01-.24,0-.36-.28-.25-.55-.5-.83-.74v-.03c-.68-2.13-.88-4.22.43-6.2l-.03.03c2.74-1.77,5.88-2.28,8.99-2.9,1.1-.09,2.21-.19,3.31-.28,3.65.92,7.29,1.85,10.94,2.77v-.04c.13.15.27.3.42.45,0,0-.04-.04-.04-.04,1.92,1.76,1.91,3.9,1.23,6.18l.02-.03c-.26.31-.51.62-.77.93.25.48.5.97.76,1.45.99,2.93.13,5.35-2.06,7.39,0,0,.03-.02.03-.02-.96.41-1.92.83-2.87,1.24,0,0,.03-.03.03-.03-6.24,1.24-12.39,1.13-18.39-1.21-.53-.26-1.07-.53-1.6-.79-.05-.09-.04-.16.05-.23-.15-.21-.29-.42-.44-.63,0,0,.02.08.02.08-1-2.48-.64-4.8.81-6.99Zm20.74-4.02c-.15-.15-.3-.3-.44-.44l.04.04c-.28-.14-.57-.29-.85-.43l.03.03c-.28-.14-.57-.29-.85-.43l.03.02c-5.14-2.02-10.28-2.64-15.43-.01,0,0,0-.05,0-.05-.11.1-.22.21-.33.31-2.41,3.02,6.22,3.03,7.56,3.07,1.99.06,10.01.95,10.31-1.79-.03-.12-.06-.24-.09-.36l.03.05Zm-17.04,9.72l-.04-.03c.29.15.57.29.86.44l-.05-.03c.42.14.84.29,1.26.43l-.04-.02c4.38,1.31,8.73,1.39,13.01-.41l-.03.05c.12-.11.24-.22.36-.33,5.76-3.15-4.18-3.31-6.09-3.33-1.62-.01-12.86-1.15-9.66,2.83.14.13.28.26.43.39Z"/>
      <path class="cls-3" d="m102.6,106.21c.27-.26.55-.53.82-.79.12-.03.24-.06.36-.09,0,0-.03.02-.03.02,1.87-.81,3.79-.89,5.75-.41,0,0-.03-.02-.03-.02.52.54,1.03,1.08,1.55,1.62.16.35.32.7.48,1.04,1.68,2.79.69,5.59,0,8.38,0,0,.03-.04.03-.04-.14.21-.29.41-.43.62-.64.48-1.28.97-1.92,1.45-1.68,0-3.35-.02-5.03-.02,0,0,.03.03.03.03-.69-.69-1.38-1.38-2.07-2.07,0,0,.03.03.03.03-1.44-3.32-.98-6.56.45-9.75Z"/>
      <path class="cls-3" d="m167.07,107.78c.22-.27.44-.54.65-.8,2.4-1.26,4.8-1.8,7.21-.02,0,0-.06-.06-.06-.06.28.15.57.31.85.46,0,0-.03-.02-.03-.02.53,1.22,1.06,2.44,1.6,3.66.02.13.03.26.05.4-.14,1.52-.28,3.04-.42,4.56l.02-.03c-.14.28-.29.56-.43.84,0,0,.02-.03.02-.03-.27.43-.54.86-.8,1.29v-.06c-.15.14-.3.29-.44.43l.06-.02c-2.71,1.39-5.33,1.26-7.88-.41l.08.02c-.15-.14-.3-.28-.45-.42l.02.04c-.23-.4-.46-.8-.68-1.21-.19-.56-.39-1.11-.58-1.67.09-2.22.08-4.46,1.28-6.46l-.06-.48Z"/>
      <path class="cls-1" d="m68.52,75.77c.46-.73.92-1.46,1.38-2.19-2.22,6.54-4.91,12.91-6.42,19.71-1.96,8.83-2.16,17.74-2,26.7.01.76.54,1.81-.68,2.26.03-4.71-.07-9.42.13-14.13.47-11.25,3.3-21.98,7.58-32.36Z"/>
      <path class="cls-1" d="m229.43,252.53c-2.75.77-5.5,1.55-8.25,2.32-1.23-6.86-2.47-13.72-3.7-20.57.15-.39,1.28,4.23,1.45,5.03.7,3.42,1.25,6.84,1.84,10.28,1.02,5.95,3.62,3.86,8.67,2.94Z"/>
      <path class="cls-1" d="m138.38,117.6c-1.1.09-2.21.19-3.31.28-2.95-.58-5.47.81-8.09,1.74l-.03-.03c3.44-3.23,16.98-3.43,21.01-.31-.04.05-.09.1-.14.16-3-1.36-6.24-1.46-9.44-1.84Z"/>
      <path class="cls-1" d="m143.46,19.51c2.41-1.06,5.2.74,7.51-1.03,1.42-1.06.82-2.34.43-3.62-.82-2.63-1.69-5.26-.25-7.97-.54,3.39,2.07,7.44,1.31,10.39-.87,3.39-6.74,2.55-9.34,2.7.12-.16.23-.32.35-.48Z"/>
      <path class="cls-1" d="m240.56,77.01c.82,2.29,1.64,4.59,2.47,6.88.56,2.68,1.13,5.36,1.69,8.04-1.71-5.57-3.43-11.15-5.14-16.72.33.6.66,1.2.98,1.8Z"/>
      <path class="cls-1" d="m176.09,27.29c5.23.4,10.26,1.63,15.11,3.61-5.04-1.2-10.07-2.4-15.11-3.61Z"/>
      <path class="cls-1" d="m202.96,164.65c-.71-3.62-1.41-7.24-2.12-10.85,1.62,3.44,2.33,7.06,2.12,10.85Z"/>
      <path class="cls-1" d="m165.86,114.72c.19.56.39,1.11.58,1.67.12.37.24.73.36,1.1l-.03.03c-2.65-2.74-2.36-5.73-.75-8.84.07.07.14.13.21.2-.7,1.91-1.15,3.83-.37,5.83Z"/>
      <path class="cls-1" d="m177.34,111.4c-.02-.13-.03-.26-.05-.4-.16-.79-.33-1.59-.49-2.38,2.25,3.06,2.08,6.02-.35,8.89,0,0-.03-.03-.03-.03l.11-.74-.02.03c.14-.28.29-.56.43-.84,0,0-.02.03-.02.03.83-1.46,1.21-2.95.42-4.56Z"/>
      <path class="cls-1" d="m150.93,129.28c-.25-.48-.5-.97-.76-1.45.26-.31.51-.62.77-.93,0,0-.02.03-.02.03,1.37-1.42,1.33-3,.53-4.67l.15-.13c1.21.77,1.23,2.17.76,3.04-.96,1.8-.98,3.53-.6,5.39-.28-.42-.56-.84-.84-1.27Z"/>
      <path class="cls-1" d="m262.94,218.63c-.27.67-.54,1.35-.82,2.02-.15.21-.3.43-.44.64.17-2.83,1.39-5.32,2.53-7.83-.42,1.72-.84,3.45-1.27,5.17Z"/>
      <path class="cls-1" d="m266.21,204.98c-.54,2.72-.35,5.61-1.94,8.08.65-2.69,1.29-5.39,1.94-8.08Z"/>
      <path class="cls-1" d="m195.97,32.27c.68.27,1.35.54,2.03.82.31.23.61.45.92.68-2.69-.58-5.35-1.21-7.54-3.03,1.53.51,3.06,1.02,4.59,1.54Z"/>
      <path class="cls-2" d="m155.72,147.55c-3.25-.09-6.5-.18-9.76-.27,3.24-.01,6.49-.02,9.73-.04.02.1.03.2.03.31Z"/>
      <path class="cls-1" d="m270.28,171.93c.3-.24.61-.48.91-.71,2.09-.44,4.18-1.06,6.2.24-2.41-.44-4.77-.05-7.11.48Z"/>
      <path class="cls-1" d="m214.58,166.59c1.96-.73,3.91-1.46,5.86-2.19-1.56,1.8-3.71,2-5.86,2.19Z"/>
      <path class="cls-1" d="m125.31,126.89c-1.57-1.65-1.87-3.39-.37-5.26,0,0,.03.03.03.03-.77,1.8-.54,3.52.37,5.2l-.03.03Z"/>
      <path class="cls-1" d="m169.64,26.49c2.17.28,4.33.56,6.5.84-2.17-.28-4.33-.56-6.5-.84Z"/>
      <path class="cls-1" d="m125.17,129.57c-.93,1.61-.82,3.25-.12,4.91-1.44-1.67-1.61-3.31.12-4.91Z"/>
      <path class="cls-1" d="m118.33,31.3c1.24-.48,2.48-.96,3.72-1.45-.85,1.48-2.29,1.46-3.72,1.45Z"/>
      <path class="cls-1" d="m269.57,172.03c.24-.04.48-.08.72-.11-.84,1.16-1.84,2.1-3.3,2.39.31-.36.62-.72.93-1.08.55-.4,1.1-.79,1.65-1.19Z"/>
      <path class="cls-1" d="m142.86,24.03c.09-1.35-.7-2.77.28-4.06-.43,1.33.99,2.79-.28,4.06Z"/>
      <path class="cls-1" d="m153.29,5.35c1.49-.88,2.84-.31,4.18.39-1.4-.13-2.79-.26-4.18-.39Z"/>
      <path class="cls-1" d="m238.33,72.42c.41.92.82,1.83,1.23,2.75-1.25-.54-1.29-1.62-1.23-2.75Z"/>
      <path class="cls-1" d="m220.69,164.53c.95-.51,1.89-1.02,2.84-1.53-.53,1.29-1.67,1.45-2.84,1.53Z"/>
      <path class="cls-1" d="m115.08,32.5c1.01-.46,2.03-.91,3.04-1.37-.69,1.17-1.81,1.4-3.04,1.37Z"/>
      <path class="cls-1" d="m59.3,125.95c.44-1.05.87-2.09,1.3-3.14.12,1.28-.08,2.42-1.3,3.14Z"/>
      <path class="cls-1" d="m110.72,33.9c.69-.24,1.39-.48,2.08-.73-.44,1.39-1.56,1.3-2.67,1.22.2-.16.39-.33.59-.49Z"/>
      <path class="cls-1" d="m124.94,121.63c.19-1.15.9-1.79,2.01-2.04,0,0,.03.03.03.03-.3.39-.6.77-.89,1.16,0,0,.03-.03.03-.03-.38.3-.76.61-1.14.91,0,0-.03-.03-.03-.03Z"/>
      <path class="cls-1" d="m147.95,119.28c1.14.03,1.99.53,2.5,1.57l-.03.03c-.24-.05-.49-.09-.73-.14,0,0,.04.04.04.04-.14-.15-.29-.3-.43-.45,0,0,.01.04.01.04-.5-.31-1-.62-1.5-.94.05-.05.09-.1.14-.16Z"/>
      <path class="cls-1" d="m159.8,6.69c.31.36.62.72.93,1.09-1.08-.17-1.93-.66-2.38-1.7.49.21.97.41,1.45.62Z"/>
      <path class="cls-1" d="m104.1,37.45c.8-.44,1.6-.88,2.4-1.32-.39,1.18-1.34,1.35-2.4,1.32Z"/>
      <path class="cls-1" d="m229.25,158.5c.04-.23.09-.46.13-.68.07-.67.15-1.35.22-2.02.84,1.03.86,1.94-.35,2.7Z"/>
      <path class="cls-1" d="m228.41,154.62c-.75.13-1.51.26-2.26.39.58-1.15,1.34-1.23,2.26-.39Z"/>
      <path class="cls-1" d="m112.98,33.16c.2-.15.4-.31.6-.46.42-.12.84-.24,1.26-.35-.2,1.22-.99,1.1-1.86.82Z"/>
      <path class="cls-1" d="m211.35,167.78c.74-.32,1.48-.65,2.23-.97-.36,1.19-1.34.97-2.23.97Z"/>
      <path class="cls-1" d="m168.51,119.07c.58.26,1.16.52,1.74.78-.9.46-1.45.12-1.74-.78Z"/>
      <path class="cls-1" d="m233.88,64.23c.4.68.79,1.36,1.19,2.04-.95-.36-1.22-1.11-1.19-2.04Z"/>
      <path class="cls-1" d="m237.23,70.32c.35.68.7,1.36,1.05,2.04-.92-.39-1.16-1.12-1.05-2.04Z"/>
      <path class="cls-1" d="m87.56,48.93c.11,0,.22,0,.33-.03.13.96-.54,1.07-1.23,1.16.3-.38.6-.76.9-1.13Z"/>
      <path class="cls-1" d="m225.23,156.12c-.14.13-.27.27-.41.4-.37.2-.73.4-1.1.6.19-.85.7-1.32,1.59-1.34-.05.11-.07.22-.08.34Z"/>
      <path class="cls-1" d="m233.44,250.87c-.03.1-.06.21-.08.32-.67.16-1.35.32-2.02.49.7-.27,1.4-.54,2.1-.8Z"/>
      <path class="cls-1" d="m167.72,26.08c.64.14,1.27.28,1.91.42-.62-.22-1.46.56-1.91-.42Z"/>
      <path class="cls-1" d="m125.05,134.48c.22.2.44.4.65.6,0,0-.02-.08-.02-.08.15.21.29.42.44.63-.08.06-.1.14-.05.23-.96,0-1.09-.63-1.03-1.39Z"/>
      <path class="cls-1" d="m167.07,107.78c.02.16.04.32.06.48-.3.21-.61.42-.91.63-.07-.07-.14-.14-.21-.2.01-.7.12-1.28,1.06-.9Z"/>
      <path class="cls-1" d="m167.48,117.97c.18.25.36.51.54.76-.8,0-1.2-.42-1.25-1.2,0,0,.03-.03.03-.03.12,0,.23.03.33.11,0,0-.02-.04-.02-.04.15.14.3.28.45.42l-.08-.02Z"/>
      <path class="cls-1" d="m150.45,120.85c.8.04,1.24.41,1.15,1.27,0,0-.15.13-.15.13-.34-.46-.69-.91-1.03-1.37,0,0,.03-.03.03-.03Z"/>
      <path class="cls-1" d="m201.95,182.27c-.24-.56-.48-1.11-.72-1.67.87.29.9.93.72,1.67Z"/>
      <path class="cls-1" d="m260.68,223.29c-.26.54-.53,1.08-.79,1.62-.12-.73-.11-1.39.79-1.62Z"/>
      <path class="cls-1" d="m229.62,155.81c-.4-.4-.81-.8-1.21-1.19.87-.07,1.28.31,1.21,1.19Z"/>
      <path class="cls-1" d="m224.33,162.51c.41-.28.83-.55,1.24-.83-.15.68-.55.97-1.24.83Z"/>
      <path class="cls-1" d="m235.53,67.06c.24.42.48.84.71,1.27-.24-.42-.48-.84-.71-1.27Z"/>
      <path class="cls-1" d="m226.53,160.67c.21-.07.42-.14.62-.21-.38.31-.77.62-1.15.93.18-.24.35-.48.53-.71Z"/>
      <path class="cls-1" d="m151.74,5.85c.12,0,.23-.03.35-.07-.01.63-.24,1.08-.96,1.07.07-.2.15-.4.22-.59.13-.14.26-.28.39-.41Z"/>
      <path class="cls-1" d="m234.98,250.37c-.24.04-.48.07-.72.11.21-.69.6-.98,1.3-.59-.19.16-.38.32-.58.49Z"/>
      <path class="cls-1" d="m233.11,62.97c.26.42.52.84.77,1.26-.72-.13-.94-.58-.77-1.26Z"/>
      <path class="cls-1" d="m232.2,61.64c.25.23.49.45.74.68.07.22.14.44.2.67-.83-.09-.96-.67-.94-1.35Z"/>
      <path class="cls-1" d="m83.09,53.39c.12,0,.24-.03.36-.08-.13.41.11,1.19-.81.86.03-.12.05-.24.05-.37.13-.14.27-.27.4-.41Z"/>
      <path class="cls-1" d="m275.19,194.71c-.12,0-.24.04-.36.08.28-.28.56-.57.84-.85-.05.12-.08.24-.08.36-.13.14-.27.27-.4.41Z"/>
      <path class="cls-1" d="m152.08,5.8c.05-.11.08-.22.08-.34.29-.11.59-.21.88-.32.08.79-.52.61-.96.66Z"/>
      <path class="cls-1" d="m247.16,241.83c-.25.16-.51.32-.76.48.28-.28.57-.56.85-.83-.05.11-.07.23-.09.35Z"/>
      <path class="cls-1" d="m108.12,35.37c.35-.2.7-.39,1.05-.59,0,.83-.54.67-1.05.59Z"/>
      <path class="cls-1" d="m84.23,52.51c.04-.11.07-.23.07-.35.25-.16.51-.32.76-.49-.28.28-.55.56-.83.84Z"/>
      <path class="cls-1" d="m236.69,69.15c.2.32.41.64.61.97-.82.07-.61-.52-.61-.97Z"/>
      <path class="cls-1" d="m175.23,118.7c.03-.11.08-.22.13-.32,0,0-.06.02-.06.02.14-.14.29-.29.43-.43,0,0,0,.06,0,.06.1-.06.21-.1.33-.1l.03.02c-.29.25-.58.5-.87.76Z"/>
      <path class="cls-1" d="m261.68,221.38c-.18.34-.37.68-.55,1.01-.07-.48-.25-1.02.55-1.01Z"/>
      <path class="cls-1" d="m231.4,251.63c-.4.14-.8.28-1.19.41.4-.14.8-.27,1.19-.41Z"/>
      <path class="cls-1" d="m109.31,34.76c.22-.12.44-.23.66-.35.05.61-.24.59-.66.35Z"/>
      <path class="cls-1" d="m213.77,166.89c.26-.1.52-.2.78-.29-.26.1-.52.2-.78.29Z"/>
      <path class="cls-1" d="m198.93,33.77c.28.13.56.26.85.39-.28-.13-.56-.26-.85-.39Z"/>
      <path class="cls-1" d="m259.92,224.87c-.14.27-.29.53-.43.8.14-.27.29-.53.43-.8Z"/>
      <path class="cls-1" d="m157.51,5.76c.28.11.56.22.84.33-.28-.11-.56-.22-.84-.33Z"/>
      <path class="cls-1" d="m223.64,162.66c.23-.05.46-.11.69-.16-.25.15-.5.31-.75.46.03-.1.05-.2.06-.3Z"/>
      <path class="cls-1" d="m106.49,36.15c.29-.15.58-.3.88-.45-.29.15-.58.3-.88.45Z"/>
      <path class="cls-1" d="m107.3,35.76c.29-.15.58-.29.87-.44-.29.15-.58.29-.87.44Z"/>
      <path class="cls-1" d="m125.68,126.99c.03.07.04.15.03.23-.13-.11-.27-.22-.4-.33,0,0,.03-.03.03-.03.12,0,.23.04.34.1v.03Z"/>
      <path class="cls-1" d="m261.04,222.51c-.11.25-.23.49-.34.74.11-.25.23-.49.34-.74Z"/>
      <path class="cls-1" d="m199.73,34.11c.26.18.53.36.79.53-.26-.18-.53-.36-.79-.53Z"/>
      <path class="cls-1" d="m234.18,250.78c-.25.03-.49.07-.74.1.28-.14.56-.28.83-.42-.04.1-.07.21-.09.32Z"/>
      <path class="cls-1" d="m230.15,252.06c-.24.17-.47.33-.71.5.24-.17.47-.33.71-.5Z"/>
      <path class="cls-1" d="m264.72,176.11c.21-.08.42-.15.62-.23-.21.08-.41.15-.62.23Z"/>
      <path class="cls-1" d="m69.78,73.37c.13-.23.26-.45.38-.68.24.43.25.73-.38.68Z"/>
      <path class="cls-1" d="m236.28,68.37c.13.25.27.51.4.76-.13-.26-.27-.51-.4-.76Z"/>
      <path class="cls-1" d="m235.09,66.29c.15.26.31.52.46.79-.15-.26-.31-.52-.46-.79Z"/>
      <path class="cls-1" d="m202.42,183.04c-.17-.26-.33-.52-.5-.78.17.26.33.52.5.78Z"/>
      <path class="cls-1" d="m202.88,183.8c-.16-.26-.32-.53-.49-.79.16.26.32.53.49.79Z"/>
      <path class="cls-1" d="m203.68,185.04c-.18-.26-.36-.53-.54-.79.18.26.36.53.54.79Z"/>
      <path class="cls-1" d="m227.58,160.14c.16-.14.31-.28.47-.42-.16.14-.31.28-.47.42Z"/>
      <path class="cls-1" d="m227.14,160.48c.16-.13.32-.25.47-.38-.16.13-.32.25-.47.38Z"/>
      <path class="cls-1" d="m125.42,129.05c-.08.16-.16.32-.24.47.08-.16.16-.32.24-.47Z"/>
      <path class="cls-1" d="m225.52,161.75c.18-.13.35-.26.53-.4-.18.13-.35.26-.53.4Z"/>
      <path class="cls-1" d="m125.75,128.57c-.11.15-.21.3-.32.46.11-.15.21-.3.32-.46Z"/>
      <path class="cls-1" d="m249.61,239.09c-.11.14-.21.27-.32.41.11-.14.21-.27.32-.41Z"/>
      <path class="cls-1" d="m249.31,239.49c-.14.14-.29.29-.43.43.14-.14.29-.29.43-.43Z"/>
      <path class="cls-1" d="m248.9,239.89c-.14.13-.27.27-.4.4.14-.13.27-.27.4-.4Z"/>
      <path class="cls-1" d="m248.46,240.32c-.13.13-.27.26-.4.39.14-.13.27-.26.4-.39Z"/>
      <path class="cls-1" d="m248.07,240.7c-.15.14-.29.28-.44.42.15-.14.29-.28.44-.42Z"/>
      <path class="cls-1" d="m247.67,241.07c-.15.15-.31.3-.46.45.15-.15.31-.3.46-.45Z"/>
      <path class="cls-1" d="m60.69,122.68c.04-.14.08-.29.12-.43-.04.14-.08.29-.12.43Z"/>
      <path class="cls-1" d="m174.69,119.2c.18-.17.35-.33.52-.5-.18.17-.35.33-.52.5Z"/>
      <path class="cls-1" d="m277.38,171.42c.12,0,.2.06.26.17-.09-.06-.17-.11-.26-.17Z"/>
      <path class="cls-1" d="m167.99,118.7c.16.12.33.23.49.35-.16-.12-.33-.23-.49-.35Z"/>
      <path class="cls-1" d="m176.46,117.52c-.12.14-.24.29-.36.43,0,0-.03-.02-.03-.02.12-.15.24-.29.37-.44,0,0,.03.03.03.03Z"/>
      <path class="cls-1" d="m225.74,155.39c-.15.14-.3.27-.45.41.15-.14.3-.27.45-.41Z"/>
      <path class="cls-1" d="m266.55,174.74c.15-.15.31-.3.46-.46-.15.15-.31.3-.46.46Z"/>
      <path class="cls-1" d="m176.82,108.35c-.18-.16-.35-.31-.53-.47.18.16.35.31.53.47Z"/>
      <path class="cls-1" d="m266.12,175.15c.16-.15.32-.31.48-.46-.16.15-.32.31-.48.46Z"/>
      <path class="cls-1" d="m265.73,175.56c.15-.16.29-.32.44-.47-.15.16-.29.32-.44.47Z"/>
      <path class="cls-1" d="m265.3,175.93c.16-.14.33-.29.49-.43-.16.14-.33.29-.49.43Z"/>
      <path class="cls-1" d="m161.1,8.11c.15.16.3.31.45.47-.15-.16-.3-.31-.45-.47Z"/>
      <path class="cls-1" d="m160.73,7.78c.16.14.32.28.48.43-.16-.14-.32-.29-.48-.43Z"/>
      <path class="cls-1" d="m203.23,184.32c-.12-.17-.24-.35-.36-.52.12.17.24.35.36.52Z"/>
      <path class="cls-1" d="m204.11,185.65c-.15-.22-.31-.43-.46-.65.15.22.31.43.46.65Z"/>
      <path class="cls-1" d="m83.41,53.35c.05-.12.07-.25.08-.37.13,0,.25-.03.36-.09-.15.15-.3.31-.44.46Z"/>
      <path class="cls-1" d="m226.15,155.01c-.15.14-.3.28-.45.41.15-.14.3-.28.45-.41Z"/>
      <path class="cls-1" d="m228.52,159c.12-.01.24-.04.35-.08-.15.15-.3.3-.45.45.05-.12.08-.24.1-.37Z"/>
      <path class="cls-1" d="m228.02,159.75c.15-.15.31-.29.46-.44-.15.15-.31.29-.46.44Z"/>
      <path class="cls-2" d="m39.63,191.15c28.47,0,56.94-.08,85.41.04,12.78.05,25.56.63,38.34.67,4.88.01,6.58,1.46,5.82,6.59-3.42,22.92-6.66,45.87-9.63,68.85-.66,5.13-1.99,7.08-7.78,6.87-29.46-1.08-58.95-1.57-88.42-2.31-13.45-.33-26.89-.77-40.34-1.12-2.88-.07-3.67-1.63-3.23-4.13,4.3-24.5,8.64-49,12.93-73.51.75-4.3,3.95-3.67,6.93-3.6l-.02,1.65Zm5.25,37.31c1.21-.49,5.57,2.77,6.04-3.07.32-4.01,1.21-7.99,1.93-11.96.21-1.14-.3-1.26-1.17-1.28-5.74-.11-11.48-.22-17.22-.36-.97-.02-1.53.28-1.7,1.27-.8,4.57-1.63,9.15-2.45,13.72-.21,1.18.15,1.72,1.47,1.7,3.91-.06,7.83-.02,13.11-.02Zm-1.95,19.89c.7-.46,3.62,2.17,4.26-1.44.75-4.24,1.44-8.5,2.13-12.75.19-1.14.23-2.05-1.49-2.06-5.47-.04-10.94-.16-16.4-.42-1.64-.08-2.1.62-2.33,1.99-.71,4.39-1.42,8.78-2.25,13.14-.22,1.17-.1,1.58,1.17,1.57,4.65-.05,9.31-.02,14.91-.02Zm-5.52,19.09c6.44,2.29,6.73-2.49,7.36-7.44.38-3.01,2.38-6.39-.12-7.99-1.78-1.14-8.06-.13-10.26-.2-2.31-.07-6.77-1.25-8.44.66-1.58,1.81-1.41,6.99-1.82,9.34-.6,3.41-1.89,5.09,1.76,5.64,3.63.55,7.83-.01,11.52-.01Zm27.26-38.05s0-.07,0-.1c1.88,0,6.15.81,7.69-.5,1.79-1.53,1.53-6.23,1.89-8.4.3-1.8,2.01-6.13.55-7.59-1.21-1.2-8.12-.29-9.83-.34-2.24-.07-6.96-1.29-8.6.53-1.43,1.58-1.28,6.54-1.62,8.58-.32,1.94-1.95,5.89-.09,7.31,1.65,1.26,7.85.41,10,.52Zm-1.29,19.88c1.78-1.5,5.9,2.6,6.64-2.67.59-4.2,1.23-8.39,1.96-12.57.27-1.52-.52-1.49-1.57-1.51-5.26-.1-10.53-.21-15.79-.37-1.23-.04-1.84.31-2.03,1.61-.6,4.06-1.2,8.13-2,12.15-.46,2.3,0,3.1,2.54,2.98,3.29-.16,6.6.22,10.25.38Zm51.79-19.21c2.75,1.33,2.48-4.34,2.69-5.77.27-1.84,2.17-7.63,1.31-9.24-1.15-2.15-13.72-2.47-16.4-1.7-3.01.86-2.83,1.82-3.25,5.01-.35,2.68-2.2,7.66-1.52,10.16.91,3.35,13.49,1.54,17.18,1.54Zm8.53,4.1c-.8.6-3.91-2.38-4.46,1.61-.59,4.34-1.2,8.68-1.92,13-.23,1.37.21,1.62,1.43,1.64,5.07.09,10.14.16,15.21.43,1.84.1,2.49-.54,2.7-2.27.53-4.35,1.13-8.69,1.84-13.02.19-1.19-.15-1.42-1.19-1.41-4.26.03-8.51.01-13.61.01Zm-11.39,15.81c1.04.55,1.57.32,1.7-.93.26-2.6.37-5.32,1.22-7.75,2.2-6.34.03-7.75-6.38-8.05-11-.51-11.14-.99-13.08,9.41-.36,1.92-.53,3.87-.87,5.8-.25,1.4.46,1.56,1.59,1.55,5.27-.04,10.54-.02,15.82-.02Zm14.1-35.72c-.54.3-3.2-1.74-3.78.61-1.12,4.55-1.51,9.28-2.2,13.93-.15.98-.05,1.68,1.27,1.7,5.33.09,10.67.24,16,.43,1.24.04,1.65-.54,1.8-1.65.62-4.54,1.25-9.07,1.94-13.59.17-1.13-.19-1.44-1.25-1.43-4.25.03-8.5.01-13.78.01Zm-78.47-5.69c7.06,2.47,6.45-4.44,7.22-9.28.48-3.06,1.91-4.8-.74-6.15-2.23-1.13-7.95-.14-10.5-.21-2.71-.07-6.05-1.01-7.81,1-1.41,1.61-1.33,7.81-1.7,9.96-.72,4.11-1.39,4.61,2.84,4.68,3.56.06,7.13,0,10.7,0Zm103.75,42.45v.2c2.66,0,5.34.99,6.9-1.5,1.32-2.09.86-6.57,1.19-8.95.51-3.66,2.01-5.62-1.94-6.23-3.47-.54-7.33-.14-10.85-.26-4.02-.14-4.87-.62-5.5,3.37-.46,2.93-1.33,6.14-1.55,9.06-.5,6.51,7.25,4.3,11.76,4.3Zm-92.49,1.4c-5.52-.05-9.1-.62-10.54,5.18-.44,1.76-2.5,7.95-1.43,9.51,1.48,2.16,8.46.75,10.99,1.12,3.12.46,6.12,1.58,8.18-1.51,1.49-2.23,1.46-6.04,1.64-8.57.47-6.43-3.19-5.72-8.84-5.74Zm88.15-21.54c3.07.14,8.72,1.5,11.71.49,2.83-.96,2.53-3.27,2.8-5.88.64-6.36,3.67-11.28-4.81-10.87-5.16.25-11.87-2.67-13.22,4.39-.31,1.61-.03,3.28-.24,4.9-.17,1.31-1.21,3.2-.97,4.58.49,2.78,1.98,3.16,4.74,2.39Zm-57.1,18.68c1.93.88,1.78-3.99,1.94-5.06.35-2.35,2.24-7.69,1.6-9.82-.79-2.6-2.96-1.71-5.85-1.72-3.17-.01-6.79-.61-9.9-.08-3.72.63-2.92,2.69-3.49,6.51-.29,1.95-2.37,7.35-1.4,9.02,1.74,3.01,13.77,1.15,17.1,1.15Zm57.88,4.91c-.14,0-.27,0-.41,0q-8.46-.08-10.04,8.11-1.47,7.6,6.14,7.77c.67.01,1.33.15,1.99.28,6.96,1.43,9.69.04,10.65-5.44q1.87-10.62-8.34-10.72Zm-51.39-39.6c.56-2.86-4.07-1.81-5.78-1.82-2.73-.02-8.06-1.05-10.58-.12-2.32.86-2.01,2.51-2.41,5-.38,2.4-2.5,7.74-1.69,9.99.83,2.32,13.54,2.84,16.41,2,3.99-1.16,3.49-11.06,4.06-15.05Zm27.4,55.08c2.66,0,7.73,1.2,9.43-1.22,1.58-2.25,1.27-8.08,1.57-10.79.61-5.45-2.52-3.69-7.04-3.68-2.77,0-6.63-1.56-9.25-.59-3.94,1.45-4.28,9.07-3.62,12.62.82,4.44,5.14,3.63,8.92,3.66Zm-16.8-.84c.6-.23,3.82,2.09,4.11-2.34.25-3.81,1.08-7.59,1.63-11.38.13-.9.21-1.72-1.2-1.75-5.46-.09-10.93-.25-16.39-.42-1.03-.03-1.35.35-1.49,1.39-.56,4.2-1.21,8.38-1.9,12.56-.22,1.35-.02,2,1.56,1.96,4.11-.08,8.23-.03,13.69-.03Zm1.51-74.83c-1.56.5-3.59-.64-5.02.3-2.24,1.48-1.53,6.58-1.89,8.96-.43,2.8-2.06,5.33.87,6.54,2.99,1.23,8.47.29,11.68.44,3.45.16,4.85.43,5.94-2.95.67-2.08,1.92-8.14,1.57-10.22-.76-4.55-9.42-2.88-13.14-3.06Zm21.01.87c-.93.59-4.34-2.45-4.86,1.96-.47,4.01-1.1,8-1.67,11.99-.14,1.01.14,1.48,1.26,1.5,5.34.09,10.67.23,16,.39,1.15.04,1.66-.29,1.81-1.54.5-4.28,1.07-8.56,1.79-12.8.22-1.31-.16-1.51-1.28-1.5-4.05.03-8.1.01-13.06.01Zm-61.92-1.59c-4.41-.02-9.76-1.81-9.62,5.87.06,3.05-.72,6.12-1.12,9.19,2.59.18,5.19.35,7.78.53.47.03,1.01.29,1.4.14,3.53-1.41,9.51,3.88,10.61-4.39,1.52-11.38,1.8-11.34-9.05-11.34Zm12.44,59.23c-6.48,0-7.96-1.4-8.97,5.32-.33,2.18-2.62,8.83-.71,10.44,1.56,1.32,8.57.16,10.93.33,2.01.15,4.41.75,6.1-.71,2.14-1.84,3.44-10.39,2.16-13.11-1.48-3.17-6.64-2.26-9.52-2.28Zm79.54-41.79c.75-.39,3.91,2.19,4.37-1.93.45-4,1.08-7.98,1.63-11.98.11-.77.45-1.54-.97-1.56-5.26-.06-10.52-.21-15.78-.39-1.09-.04-1.64.34-1.79,1.4-.58,4.27-1.16,8.53-1.76,12.8-.17,1.2.22,1.7,1.51,1.68,3.91-.06,7.82-.02,12.78-.02Zm-69.92-1.11s0-.08,0-.11c1.72,0,6.07.88,7.43-.36,1.64-1.5,1.28-5.86,1.54-7.84.3-2.28,1.76-5.99-.1-7.31-1.73-1.23-7.95-.15-10.14-.21-2.97-.08-5.45-.93-7.15,1.25-1.32,1.69-1.03,6.66-1.39,8.9-.32,1.98-1.27,4.02.58,5.23,1.38.9,7.37.34,9.21.45Z"/>
      <path class="cls-3" d="m133.41,180.93c.44.01.87.02,1.31.03-.44-.01-.87-.02-1.31-.03Z"/>
      <path class="cls-3" d="m135.77,181c.21,0,.42.02.63.02-.21,0-.42-.02-.63-.02Z"/>
      <path class="cls-3" d="m137.36,181.05c.19.02.39.03.58.05-.19-.02-.39-.03-.58-.05Z"/>
      <path class="cls-3" d="m139.08,181.17c.17,0,.33.01.5.02-.17,0-.33-.01-.5-.02Z"/>
      <path class="cls-5" d="m185.77,279.62c-7.46-.02-7.68-1.72-6.75-8.86,1.5-11.63,3.07-23.25,4.57-34.88,1.49-11.58,3.05-23.16,4.24-34.78,1.16-11.35,1.17-23.37,3.69-34.51,1.99,4.21,1.21,10.51,1.38,15.15.19,5.13.26,10.27.33,15.4.14,10.82.22,21.64.37,32.46.15,11.24.29,22.47.54,33.71.09,3.77,1.53,10.39.11,13.87-1.47,3.62-5.18,2.45-8.48,2.45Z"/>
      <path class="cls-5" d="m225.57,261.47c.97.37,2.85,1.1,4.74,1.83-.95,1.85-4.48,5.02-6.34,2.66-1.74-2.22-.82-4.74,1.6-4.49Z"/>
      <path class="cls-3" d="m120.54,147.15c-4.66-.1-9.31-.2-13.97-.31,4.66.1,9.31.2,13.97.31Z"/>
      <path class="cls-5" d="m125.38,147.11c-1.13-.02-2.26-.03-3.39-.05,1.14-.5,2.27-.52,3.39.05Z"/>
      <path class="cls-5" d="m127.82,147.12c-.19,0-.37,0-.56,0,.18,0,.37,0,.56,0Z"/>
      <path class="cls-5" d="m129.79,133.4c-3.2-3.98,8.04-2.85,9.66-2.83,1.91.02,11.85.18,6.09,3.33-.12.11-.24.22-.36.33,0,0,.03-.05.03-.05-4.31,1.1-8.65,1.05-13.01.41,0,0,.04.02.04.02-.42-.14-.84-.29-1.26-.43,0,0,.05.03.05.03-.29-.15-.57-.29-.86-.44,0,0,.04.03.04.03-.14-.13-.28-.26-.43-.39Z"/>
      <path class="cls-5" d="m147.32,124.39c-.3,2.74-8.31,1.86-10.31,1.79-1.34-.04-9.97-.05-7.56-3.07.11-.1.22-.21.33-.31,0,0,0,.05,0,.05,5.14-1.87,10.29-1.26,15.43.01,0,0-.03-.02-.03-.02.28.14.57.29.85.43,0,0-.03-.03-.03-.03.28.14.57.29.85.43,0,0-.04-.04-.04-.04.15.15.3.3.44.44,0,0-.03-.05-.03-.05,0,.13.04.25.1.36Z"/>
      <path class="cls-1" d="m44.88,228.46c-5.29,0-9.2-.04-13.11.02-1.32.02-1.68-.52-1.47-1.7.82-4.57,1.65-9.14,2.45-13.72.18-1,.74-1.3,1.7-1.27,5.74.14,11.48.25,17.22.36.87.02,1.38.14,1.17,1.28-.72,3.98-1.61,7.95-1.93,11.96-.47,5.84-4.83,2.58-6.04,3.07Z"/>
      <path class="cls-1" d="m42.92,248.35c-5.6,0-10.25-.03-14.91.02-1.27.01-1.39-.4-1.17-1.57.83-4.37,1.53-8.75,2.25-13.14.22-1.37.69-2.07,2.33-1.99,5.46.26,10.93.39,16.4.42,1.73.01,1.68.92,1.49,2.06-.69,4.25-1.39,8.51-2.13,12.75-.64,3.62-3.55.99-4.26,1.44Z"/>
      <path class="cls-1" d="m37.41,267.44c-3.68,0-7.89.56-11.52.01-3.65-.55-2.37-2.23-1.76-5.64.41-2.35.24-7.53,1.82-9.34,1.67-1.91,6.13-.73,8.44-.66,2.2.06,8.48-.95,10.26.2,2.49,1.6.5,4.97.12,7.99-.62,4.95-.91,9.73-7.36,7.44Z"/>
      <path class="cls-1" d="m64.67,229.39c-2.15-.11-8.34.74-10-.52-1.87-1.42-.24-5.37.09-7.31.34-2.03.19-6.99,1.62-8.58,1.65-1.83,6.37-.6,8.6-.53,1.71.05,8.62-.86,9.83.34,1.46,1.46-.25,5.79-.55,7.59-.37,2.17-.1,6.86-1.89,8.4-1.54,1.31-5.81.5-7.69.5,0,.03,0,.07,0,.1Z"/>
      <path class="cls-1" d="m63.38,249.26c-3.65-.16-6.96-.54-10.25-.38-2.54.12-2.99-.68-2.54-2.98.8-4.02,1.4-8.09,2-12.15.19-1.3.79-1.65,2.03-1.61,5.26.17,10.52.28,15.79.37,1.05.02,1.84-.01,1.57,1.51-.73,4.18-1.38,8.37-1.96,12.57-.74,5.27-4.86,1.17-6.64,2.67Z"/>
      <path class="cls-1" d="m115.17,230.05c-3.69,0-16.27,1.81-17.18-1.54-.67-2.49,1.17-7.47,1.52-10.16.42-3.19.24-4.15,3.25-5.01,2.69-.77,15.25-.44,16.4,1.7.86,1.61-1.04,7.4-1.31,9.24-.21,1.43.06,7.09-2.69,5.77Z"/>
      <path class="cls-1" d="m123.71,234.15c5.1,0,9.35.02,13.61-.01,1.04,0,1.38.22,1.19,1.41-.7,4.33-1.3,8.67-1.84,13.02-.21,1.72-.86,2.36-2.7,2.27-5.06-.27-10.14-.34-15.21-.43-1.22-.02-1.66-.28-1.43-1.64.73-4.32,1.33-8.66,1.92-13,.54-3.99,3.66-1.01,4.46-1.61Z"/>
      <path class="cls-1" d="m112.31,249.96c-5.27,0-10.54-.02-15.82.02-1.13,0-1.84-.15-1.59-1.55.34-1.92.52-3.88.87-5.8,1.94-10.4,2.08-9.92,13.08-9.41,6.41.3,8.58,1.71,6.38,8.05-.85,2.43-.95,5.15-1.22,7.75-.13,1.25-.66,1.48-1.7.93Z"/>
      <path class="cls-1" d="m126.42,214.24c5.28,0,9.53.02,13.78-.01,1.06,0,1.43.31,1.25,1.43-.7,4.52-1.33,9.06-1.94,13.59-.15,1.1-.56,1.69-1.8,1.65-5.33-.18-10.66-.34-16-.43-1.33-.02-1.42-.72-1.27-1.7.69-4.65,1.09-9.38,2.2-13.93.58-2.34,3.23-.31,3.78-.61Z"/>
      <path class="cls-1" d="m47.95,208.55c-3.56,0-7.13.06-10.7,0-4.23-.07-3.56-.56-2.84-4.68.38-2.15.29-8.35,1.7-9.96,1.76-2.01,5.1-1.07,7.81-1,2.55.06,8.27-.92,10.5.21,2.65,1.35,1.22,3.09.74,6.15-.76,4.84-.15,11.75-7.22,9.28Z"/>
      <path class="cls-1" d="m151.7,251c-4.51,0-12.26,2.2-11.76-4.3.22-2.92,1.09-6.14,1.55-9.06.63-3.99,1.49-3.51,5.5-3.37,3.52.12,7.38-.27,10.85.26,3.95.61,2.46,2.56,1.94,6.23-.33,2.38.13,6.86-1.19,8.95-1.56,2.49-4.25,1.5-6.9,1.5v-.2Z"/>
      <path class="cls-1" d="m59.21,252.41c5.65,0,9.31-.7,8.84,5.73-.18,2.52-.15,6.34-1.64,8.57-2.07,3.09-5.06,1.97-8.18,1.51-2.53-.37-9.5,1.04-10.99-1.12-1.07-1.56.99-7.75,1.43-9.51,1.44-5.81,5.03-5.24,10.54-5.17Z"/>
      <path class="cls-1" d="m147.36,230.86c-2.76.77-4.26.38-4.74-2.39-.24-1.38.8-3.26.97-4.58.21-1.62-.07-3.29.24-4.9,1.35-7.06,8.07-4.14,13.22-4.39,8.48-.41,5.45,4.5,4.81,10.87-.26,2.61.04,4.92-2.8,5.88-2.99,1.01-8.63-.35-11.71-.49Z"/>
      <path class="cls-1" d="m90.25,249.54c-3.33,0-15.36,1.86-17.1-1.15-.96-1.67,1.11-7.07,1.4-9.02.57-3.82-.23-5.88,3.49-6.51,3.11-.53,6.73.07,9.9.08,2.89.01,5.06-.88,5.85,1.72.65,2.14-1.25,7.47-1.6,9.82-.16,1.07-.02,5.94-1.94,5.06Z"/>
      <path class="cls-1" d="m148.13,254.45q10.21.09,8.34,10.72c-.96,5.48-3.69,6.87-10.65,5.44-.66-.13-1.32-.27-1.99-.28q-7.6-.17-6.14-7.77,1.58-8.19,10.04-8.11c.14,0,.27,0,.41,0Z"/>
      <path class="cls-1" d="m96.74,214.85c-.56,3.99-.06,13.89-4.06,15.05-2.87.84-15.58.32-16.41-2-.8-2.25,1.31-7.59,1.69-9.99.4-2.49.09-4.14,2.41-5,2.52-.93,7.85.1,10.58.12,1.71.01,6.34-1.04,5.78,1.82Z"/>
      <path class="cls-1" d="m124.14,269.93c-3.78-.03-8.09.78-8.92-3.66-.66-3.55-.32-11.17,3.62-12.62,2.63-.97,6.49.6,9.25.59,4.52-.01,7.65-1.77,7.04,3.68-.3,2.71,0,8.54-1.57,10.79-1.69,2.42-6.77,1.22-9.43,1.22Z"/>
      <path class="cls-1" d="m107.34,269.09c-5.46,0-9.57-.05-13.69.03-1.58.03-1.78-.62-1.56-1.96.69-4.18,1.34-8.36,1.9-12.56.14-1.03.46-1.42,1.49-1.39,5.46.17,10.93.33,16.39.42,1.41.02,1.33.85,1.2,1.75-.55,3.8-1.37,7.57-1.63,11.38-.29,4.42-3.51,2.11-4.11,2.34Z"/>
      <path class="cls-1" d="m108.85,194.26c3.72.18,12.38-1.49,13.14,3.06.35,2.08-.9,8.14-1.57,10.22-1.09,3.38-2.49,3.1-5.94,2.95-3.21-.15-8.69.79-11.68-.44-2.93-1.2-1.29-3.73-.87-6.54.36-2.38-.34-7.47,1.89-8.96,1.43-.95,3.47.2,5.02-.3Z"/>
      <path class="cls-1" d="m129.86,195.13c4.96,0,9.01.02,13.06-.01,1.12,0,1.5.19,1.28,1.5-.72,4.25-1.29,8.52-1.79,12.8-.15,1.26-.66,1.58-1.81,1.54-5.33-.16-10.67-.3-16-.39-1.13-.02-1.41-.49-1.26-1.5.57-4,1.19-7.98,1.67-11.99.52-4.41,3.93-1.36,4.86-1.96Z"/>
      <path class="cls-1" d="m67.94,193.54c10.85,0,10.56-.04,9.05,11.34-1.1,8.27-7.08,2.97-10.61,4.39-.38.15-.93-.1-1.4-.14-2.59-.18-5.19-.36-7.78-.53.4-3.06,1.17-6.13,1.12-9.19-.14-7.69,5.21-5.89,9.62-5.87Z"/>
      <path class="cls-1" d="m80.38,252.77c2.88.02,8.04-.89,9.52,2.28,1.27,2.72-.03,11.27-2.16,13.11-1.7,1.46-4.09.86-6.1.71-2.37-.17-9.38.98-10.93-.33-1.91-1.61.38-8.26.71-10.44,1.01-6.72,2.49-5.32,8.97-5.32Z"/>
      <path class="cls-1" d="m159.91,210.98c-4.96,0-8.87-.04-12.78.02-1.29.02-1.68-.48-1.51-1.68.6-4.26,1.18-8.53,1.76-12.8.14-1.06.7-1.43,1.79-1.4,5.26.18,10.52.33,15.78.39,1.42.02,1.07.78.97,1.56-.55,3.99-1.18,7.97-1.63,11.98-.46,4.13-3.63,1.54-4.37,1.93Z"/>
      <path class="cls-1" d="m89.99,209.88c-1.84-.11-7.84.45-9.21-.45-1.85-1.21-.9-3.25-.58-5.23.36-2.24.07-7.21,1.39-8.9,1.7-2.18,4.18-1.33,7.15-1.25,2.19.06,8.41-1.02,10.14.21,1.85,1.32.4,5.03.1,7.31-.26,1.97.1,6.34-1.54,7.84-1.36,1.24-5.71.36-7.43.36,0,.04,0,.08,0,.11Z"/>
    </g>
  </g>
</svg>