<?xml version="1.0" encoding="UTF-8"?>
<svg id="_图层_2" data-name="图层 2" xmlns="http://www.w3.org/2000/svg" viewBox="0 0 288.21 308.33">
  <defs>
    <style>
      .cls-1 {
        fill: #79594f;
      }

      .cls-1, .cls-2, .cls-3, .cls-4 {
        stroke-width: 0px;
      }

      .cls-2 {
        fill: #90736a;
      }

      .cls-3 {
        fill: #e3a978;
      }

      .cls-4 {
        fill: #fae5a9;
      }
    </style>
  </defs>
  <g id="_图层_1-2" data-name="图层 1">
    <g>
      <path class="cls-2" d="m60.51,65.9c10.08-19.09,25.03-32.62,45.77-39.04,6.27-1.94,12.69-4.13,19.44-3.92,2.12.07,2.21-1.19,2.44-2.5.72-4.02,2.93-6.69,6.85-7.91.78-.24,1.51-.58,1.28-1.62-.88-4.05.35-7.47,3.83-9.55,3.83-2.3,7.8-1.42,11.48.82,5.43,3.31,8.78,8.48,9.2,14.45.4,5.66,3.4,6.58,7.68,6.94,11.31.94,21.47,5.21,31,11.04,16.71,10.22,28,24.76,33.81,43.49,1.12,3.6,2.02,7.27,3.03,10.9.11.39.3.75.45,1.13.3-.35.67-.65.87-1.05,1.78-3.48,3.72-6.68,8.11-7.36,4.21-.65,7.29,1.1,9.36,4.48,4.55,7.42,5.35,15.66,4.66,24.13-.12,1.5.05,2.19,1.87,2.52,4.14.76,5.45,4.01,5.49,7.76.05,5.02,1.45,9.93.94,15-.29,2.87-1.19,5.7-3.37,7.1-3.08,1.98-4.31,4.58-5.13,7.84-1,3.99-3.86,6.64-7.06,8.98-.27.2-.48.48-.71.73.24.12.48.3.73.34,9.89,1.69,12.74,4.42,14.96,14.41-.53,2.69-.56,5.37.02,8.06v1.88c-.56,2.44-.56,4.89,0,7.33,0,.26,0,.51,0,.77-.48.48-.48.96,0,1.44,0,.38,0,.76,0,1.14-.57,3.92-.57,7.83,0,11.75,0,.38,0,.76,0,1.14v.7c0,.5,0,1.01,0,1.51-.11,2.24-.34,4.47-.32,6.71.06,6.47.21,12.94.32,19.41,0,.5,0,1.01,0,1.51-.56,2.2-.56,4.4,0,6.59,0,.5,0,1.01,0,1.51-.57,1.71-.57,3.41,0,5.12,0,.26,0,.51,0,.77-.56,1.58-.56,3.17,0,4.75,0,.5,0,1.01,0,1.51-.58,5.27-.56,10.53,0,15.8,0,.87,0,1.74,0,2.62-.55,1.58-.56,3.17,0,4.75,0,.26,0,.52,0,.77-.35,3.69-.7,7.37-1.05,11.06,0,0,.05-.03.05-.03-.14.38-.28.75-.42,1.13,0,0,.06-.02.06-.02-.77.24-.86.83-.77,1.5,0,0,.05,0,.05,0-.06.22-.11.44-.17.67-4.11,7.19-10.44,11.34-18.58,11.35-68.25.15-136.49.11-204.74.07-10.54,0-20.08-8.92-20.77-19.16.11-.64.32-1.29.32-1.93.02-37.43.02-74.86,0-112.29,0-.58-.2-1.17-.31-1.75.08-.29.15-.57.23-.86.13.02.26.05.39.07-.09-.23-.18-.46-.28-.7,1.15-4.63,4.24-7.58,8.34-9.68.44-.22,1.44-.17.34-1.2-3.59-3.37-8.16-6.12-8.12-12.05,0-.63-1.51-1.34-2.39-1.91-6.81-4.38-9.44-14.1-4.51-20.83,2.8-3.82,1.92-7.04,1.34-10.67-1.01-6.26.45-11.84,4.78-16.42,5.42-5.73,14.98-4.66,20.56,2.03,2.63,3.16,4.83,6.58,6.52,10.33.16.36.43.68.65,1.02.26-.32.63-.59.76-.95,3.63-9.71,7.98-19.09,12.56-28.38.24-.48.79-1.04.02-1.57-2.22.14-4.44.28-6.66.42,0,0,.02.02.02.02-1.05-2.73.53-5.21.74-7.82,0,0-.03.03-.03.03,1.19-.81,1.52-2,1.51-3.34,0,0-.03.03-.03.03,1.09-.7,1.45-1.76,1.5-2.98,0,0-.04.03-.04.03.14-.13.28-.26.42-.4,0,0-.03.04-.03.04.13-.38.26-.76.4-1.14,0,0-.03.03-.03.03.13-.14.27-.27.4-.41Zm-36.42,38.73c-.13.13-.26.26-.39.39l.02-.02c-.13.25-.25.51-.38.76l.02-.03c-.13.25-.26.51-.39.76l.02-.02c-2.27,3.86-1.85,7.8-.38,11.78v-.03c.19.36.38.72.58,1.08,1.94,3.13,1.29,5.43-1.66,7.78-5.03,4.02-3.58,15.43,4.68,16.58,1.16.16,2.65,1.03,2.1,3.17-.41,1.62-1.3,3.57.31,5.14,3.71,3.65,7.9,6.55,13.02,7.87.15-.5.42-.99.43-1.49.15-5.01.2-10.03.42-15.05.15-3.43.52-6.85.78-10.28.04-.3.06-.61.13-.9.87-3.76,2.88-7.68,2.35-11.23-.82-5.5-4.18-10.33-7.65-14.76-2.92-3.72-6.4-6.39-11.5-3.77-.68-.46-.62.1-.68.49-.12.1-.23.2-.35.31-.14.13-.27.26-.41.38,0,0,.03-.02.03-.02-.13.13-.26.26-.4.4l.03-.03c-.13.13-.27.26-.4.4l.03-.03c-.13.13-.27.26-.4.39l.03-.02Zm158.32,122.27l.38-.43-.04.04c.26-.13.52-.26.78-.39l-.02.04c.13-.14.26-.28.38-.43l-.04.03c.26-.13.52-.26.78-.39l-.02.04c.13-.14.26-.29.38-.43l-.04.04c.26-.13.52-.26.78-.39h-.06c.38-.26.77-.5,1.15-.75v.06c.12-.14.25-.29.38-.43l-.04.04c.26-.13.52-.26.78-.39l-.02.05c.13-.14.26-.28.39-.43l-.04.04c.38-.26.76-.52,1.14-.78l-.04.04c.26-.13.52-.26.78-.39l-.02.04c.13-.14.26-.28.38-.43l-.04.04c.26-.13.52-.26.78-.38l-.02.04.38-.43-.04.04c.26-.13.52-.26.78-.39l-.06-.02,1.15-.73h-.05c.39-.26.77-.5,1.16-.74,0,0-.05-.01-.05-.01.38-.24.77-.48,1.15-.73h-.05c.39-.25.77-.49,1.16-.74,0,0-.05,0-.05,0,.39-.24.77-.48,1.16-.72l-.07-.03c.72.14,1.08-.19,1.17-.88.47-.27.96-.52,1.41-.82,10.86-7.21,21.68-14.48,32.58-21.64,8.52-5.59,17.08-11.11,25.72-16.52,3.51-2.2,3.17-4.27.67-7-2-2.19-4.51-3.17-7.21-3.31-4.13-.21-8.8-1.39-12.24,1.11-3.82,2.78-7.23,6.25-11.22,8.87-2.86,1.88-5.87,1.73-8.51-.76-2.83-2.67-5.66-5.34-8.46-8.04-.56-.54-.9-.84-1.59-.07-3.34,3.7-6.63,7.48-10.18,10.97-3.34,3.29-8.74,5.09-11.49-1.25-1.89-4.35-5.23-7.7-7.82-11.57-2.32-3.47-4.48-3.65-7.69-.99-6.59,5.47-13.23,10.92-20.26,15.8-3.62,2.52-8.06,3.55-11.63-.89-2.79-3.47-5.69-6.85-8.43-10.36-.88-1.12-1.34-1.29-2.5-.27-3.29,2.89-6.54,5.89-10.17,8.29-3.55,2.35-7.72,4.69-11.57.59-3.58-3.81-6.6-8.13-10.08-12.03-1.16-1.3-2.03-4.59-4.61-2.62-5.53,4.24-10.71,8.94-16.1,13.36-2.78,2.29-5.6,3.1-8.34-.28-2.89-3.55-3.26-8.04-4.66-12.13-1.11-3.22-2.36-4.43-5.35-1.76-1.8,1.61-3.82,3.07-5.95,4.18-2.29,1.2-4.85,3.44-7.43,1.58-2.62-1.88-5.32-2.04-8.15-1.84-4.75.33-9.17,1.99-10.25,7.06-.76,3.56,3.6,3.34,5.6,4.73,9.24,6.42,18.69,12.55,28.1,18.72,8.41,5.51,16.93,10.86,25.31,16.42,9.57,6.34,19.01,12.86,28.55,19.25,6.53,4.37,13.44,8.24,19.58,13.09,5.54,4.38,11.22,5.47,17.03,1.63,8.68-5.74,17.35-11.51,26.03-17.27.68.56.67.03.7-.44l-.02.04c.26-.13.52-.26.78-.39l-.02.04c.13-.14.26-.28.39-.42l-.04.03c.58.04,1.12.03,1.13-.77l-.03.03c.58.04,1.13.03,1.13-.78l-.02.04c.26-.13.52-.25.78-.38l-.02.03Zm-27.18,24.79h.04c-.83-.1-1.28.36-1.54,1.08l.03-.04c-4.74,2.22-9.7,2.63-14.82,1.82-1.69-.78-3.51-1.37-5.06-2.39-5.19-3.41-10.25-7.04-15.43-10.47-14.25-9.44-28.57-18.79-42.81-28.25-13.82-9.17-27.56-18.46-41.38-27.64-2.33-1.55-4.86-2.8-7.3-4.19-.12.7-.34,1.4-.34,2.1-.02,34.49-.02,68.98,0,103.48,0,.68-.32,1.52.59,1.95,1.1,6.4,6.5,13.08,15.63,13.05,67.61-.26,135.21-.13,202.82-.15,8.85,0,14.1-4.36,15.78-12.9,1-.57.56-1.55.56-2.33.02-34.38.02-68.75,0-103.13,0-.69-.25-1.38-.38-2.08-3.96,2.08-7.61,4.6-11.24,7.21-5,3.59-10.43,6.57-15.58,9.96-6.33,4.17-12.51,8.56-18.83,12.74-6.87,4.56-14.09,8.65-20.69,13.57-12.57,9.37-26.38,16.86-39.01,26.12-.69-.59-.85-.01-1.05.48Zm99.03-134.5c-.13-.13-.27-.27-.4-.4l.02.03c.1-1.26.31-2.53.29-3.79-.08-3.76,1.45-7.55-.16-11.29-.01-.16-.03-.32-.04-.48.39-.9.67-1.78-.29-2.52-.77-2.51-1.3-5.13-2.37-7.5-1.89-4.21-5.07-5.09-7.12-2.07-3.05,4.48-4.88,9.9-4.06,14.96,2.61,16.15,4.64,32.32,4.66,48.69,0,4.75,1.58,3.81,4.2,1.87,6.51-4.8,7.73-13.14,12.77-19.2,2.99-3.6.56-11.45-1.27-17.2-1.89-1.47-4.21-.52-6.25-1.1l.03.02ZM134.9,28.06c-6.68.82-13.35,1.4-19.99,2.86-12.41,2.72-23.34,8.14-32.7,16.57-8.06,7.26-13.7,16.38-18.53,26-.21.42-.32.89-.47,1.34.55.05,1.14.25,1.66.14,3.54-.77,7.03-1.75,10.59-2.37,1.89-.33,4.53-.39,4.29,2.41-.27,3.14.21,6.19.37,9.25.24,4.31,2.92,5.53,6.66,3.52,3.55-1.91,7.12-3.9,10.88-5.29,6.38-2.34,13.15-3.66,18.7-7.95,1.55-1.2,3.26-1.33,4.5.44,3.44,4.9,6.8,9.86,10.17,14.82.59.87,1.22,1.25,2.26.75,9.19-4.45,18.37-8.93,26.55-15.14,1.65-1.25,3.79-1.76,5.01-.46,3.36,3.58,6.15,7.68,9.4,11.37,2.02,2.29,2.23,7.13,7.71,4.82,8.97-3.78,17.12-8.94,25.28-14.09,1.89-1.19,3.21-.85,4.42.67,3.45,4.34,6.81,8.75,10.27,13.09.62.77,1.53,1.32,2.3,1.97,1.73-2.44,5.23-4.47,4.49-7.63-4.29-18.41-14.6-32.98-29.91-43.82-12.21-8.65-26.4-11.76-41.07-13-2.06-1.51-4.44-.53-6.66-.78-5.39-.6-10.81-.28-16.19.53Zm-87.61,117.1c-.03.26-.05.51-.08.77-.22,1.96-.67,3.93-.59,5.87.08,2.06-.83,4.26.59,6.2,0,.27,0,.54.01.81-.47,1.42-.76,2.82.56,3.98,4.74-2.88,9.52-5.7,14.22-8.65,3.1-1.95,4.93-1.32,5.96,2.26,1.41,4.88,3.04,9.69,4.54,14.54.47,1.52,1.02,1.54,2.22.55,5.28-4.4,10.59-8.76,15.97-13.02,3.18-2.53,6.41-2.8,9.29.57,3.59,4.2,7.25,8.33,10.67,12.66,1.93,2.44,3.74,2.61,6.02.72,3.59-2.98,7.03-6.17,10.84-8.82,2.97-2.06,6.32-1.99,8.91,1.01,2.6,3.02,5.32,6,7.46,9.34,2.25,3.51,4.42,2.79,6.99.76,6.11-4.83,12.05-9.89,18.37-14.43,7.92-5.68,10.71-5.12,16.67,2.62,2.75,3.58,5.73,7.03,7.27,11.41.59,1.68,1.43,1.58,2.57.32,4.15-4.6,8.37-9.13,12.57-13.68,2.04-2.21,3.92-1.9,5.93.19,3.14,3.27,6.41,6.41,9.67,9.56.42.41,1.44.9,1.66.72,5.04-4.13,11.47-7.12,13.45-13.97,1.26-4.34-.07-8.92-.17-13.4-.39-16.49-3.15-32.63-7.12-48.59-.11-.46-.31-.9-.47-1.35-.36.32-.74.61-1.06.96-4.3,4.78-7.72,4.92-11.99.14-3.15-3.51-6.01-7.28-8.93-10.99-.67-.85-1.03-.99-2-.33-8.51,5.78-17.62,10.35-27.31,13.84-3.32,1.2-5.27.23-7.09-2.43-3-4.39-6.17-8.67-9.26-13-.89-1.24-1.8-1.58-3.18-.53-2.22,1.69-4.5,3.35-6.9,4.77-6.46,3.83-13.43,6.59-20.28,9.6-2.67,1.18-4.42.52-5.9-1.5-3.04-4.15-5.92-8.42-8.92-12.61-.31-.43-.27-1.49-1.34-1.04-9.39,3.99-18.88,7.77-28.15,12.02-7.41,3.4-12.21,1.76-14-5.61-.55-2.26-.55-4.64-.88-6.95-.09-.65-.57-1.82-.7-1.8-1.41.25-3.91.54-3.98,1.1-.64,4.91-3.56,8.82-5.49,13.1-7.48,16.57-14.92,33.11-16.36,51.58l-.27.7ZM145.42,21.92c0-.09,0-.18,0-.27,2.88,0,5.75.01,8.63-.02.35,0,.92.39.97-.55.32-5.55-3.68-12.28-8.76-14.59-1.02-.46-2.06-.55-2.92.24-.61.56-1.3,1.19-1.01,2.2.42,1.45.81,2.9,1.3,4.33.55,1.62.32,3.17-.7,4.44-.88,1.11-2.19.69-3.42.49-1.19-.19-2.47-.32-3.62-.08-1.71.36-2,2.08-1.88,3.36.12,1.3,1.45.43,2.25.44,3.06.03,6.11.01,9.17.01Z"/>
      <path class="cls-2" d="m283.88,30.33c-.94,3.14-4.43,3.35-6.8,4.75-4.91,2.9-10.09,5.34-15.16,7.97-2.09,1.09-3.97,1.34-5.17-1.25-1.18-2.53.23-3.54,2.34-4.53,7.02-3.29,13.91-6.87,20.97-10.07,2.12-.96,3.66.21,3.83,3.14Z"/>
      <path class="cls-2" d="m28.49,43.85c-5.41-2.71-11.46-5.71-17.47-8.76-1.73-.88-3.42-1.87-5.05-2.93-1.27-.83-1.83-2.07-.84-3.44.99-1.36,2.23-2.31,4.08-1.36,7.05,3.6,14.12,7.16,21.16,10.78,1.14.59,2.34,1.37,1.84,2.97-.44,1.43-1.13,2.74-3.73,2.75Z"/>
      <path class="cls-2" d="m25.06,17.71c-.22-.22-.44-.44-.65-.66-.13-.16-.26-.31-.39-.47,0,0,.03.05.03.05-.14-.14-.28-.27-.41-.41,0,0,.04.04.04.04-.14-.14-.27-.27-.41-.41,0,0,.04.04.04.04-.14-.14-.27-.27-.41-.41,0,0,.05.02.05.02-.16-.13-.33-.25-.49-.38-.21-.21-.43-.42-.64-.63-.13-.16-.25-.33-.38-.49,0,0,.02.05.02.05-.13-.14-.27-.27-.4-.41,0,0,.03.05.03.05-.13-.14-.27-.27-.4-.41,0,0,.04.03.04.03-.14-.13-.27-.27-.41-.4,0,0,.04.03.04.03-.14-.13-.27-.27-.41-.4,0,0,.04.03.04.03-.14-.13-.27-.27-.41-.4,0,0,.04.03.04.03-.14-.13-.28-.27-.42-.4,0,0,.03.04.03.04,0-1.14,0-2.29,0-3.43,0,0-.04.01-.04.01,1.39-.36,2.78-.72,4.17-1.09,0,0-.03-.04-.03-.04.13.14.26.28.39.43,0,0-.02-.02-.02-.02.13.13.27.26.4.38,0,0-.02-.02-.02-.02.13.13.26.26.39.39,0,0-.02-.02-.02-.02.13.13.26.26.39.4,0,0-.02-.02-.02-.02.13.13.26.26.39.39,0,0-.02-.02-.02-.02.13.13.26.26.39.39,0,0-.02-.02-.02-.02.13.13.26.26.39.39,0,0-.02-.02-.02-.02.13.13.26.26.39.39,0,0-.02-.02-.02-.02.13.13.26.26.39.39,0,0-.03-.02-.02-.02.13.13.26.26.39.39,0,0-.03-.02-.03-.02.13.13.26.26.39.39,0,0-.03-.02-.03-.02.13.13.26.26.39.39,0,0-.03-.03-.03-.03.13.13.26.26.39.39,0,0-.03-.03-.03-.03.13.13.26.26.4.39,0,0-.03-.03-.03-.03.13.13.26.26.39.39,0,0-.03-.03-.03-.03.13.13.26.26.39.39,0,0-.03-.03-.03-.03.13.13.26.26.4.39,0,0-.03-.03-.03-.03.13.13.26.26.39.39,0,0-.03-.03-.03-.03.13.13.26.26.39.4,0,0-.02-.06-.02-.06.25.14.5.29.74.43,0,0-.02-.02-.02-.02.15.25.29.49.44.74,0,0-.07-.02-.07-.02.13.13.26.26.39.39,0,0-.03-.03-.03-.03.13.13.26.26.39.39,0,0-.02-.06-.02-.06.26.14.51.29.77.43.48.48.96.96,1.44,1.44.15.25.29.5.44.76,0,0-.06-.06-.06-.06.26.15.51.29.77.44.35.35.71.71,1.06,1.06.14.14.28.28.42.42,1.83,1.83,3.65,3.65,5.48,5.48.15.37.3.74.45,1.12.79,1.84-.45,2.76-1.76,3.39-1.61.77-3.19.62-4.25-1.12.05-.08.11-.16.16-.24l-.29-.02.03-.1s.1.02.1.02c-.13-.13-.26-.26-.39-.39,0,0,.02.02.02.02-.13-.13-.26-.26-.39-.39,0,0,.02.02.02.02-.13-.13-.26-.26-.39-.39,0,0,.02.02.02.02-.13-.13-.26-.26-.39-.39,0,0,.02.02.02.02-.13-.13-.26-.26-.39-.39,0,0,.02.02.02.02-.13-.13-.26-.26-.39-.39,0,0,.02.02.02.02-.13-.13-.26-.26-.39-.39,0,0,.02.02.02.02-.13-.13-.26-.26-.39-.39,0,0,.03.02.03.02-.13-.13-.26-.26-.39-.39,0,0,.03.02.03.02-.13-.13-.26-.26-.39-.39,0,0,.03.02.03.02-.13-.13-.26-.26-.39-.39,0,0,.03.02.03.02-.13-.13-.26-.26-.4-.39,0,0,.03.03.03.03-.13-.13-.26-.26-.39-.39,0,0,.03.02.02.02-.13-.13-.26-.26-.39-.39,0,0,.03.02.03.02-.13-.13-.26-.26-.4-.39,0,0,.03.03.03.03-.13-.13-.26-.26-.39-.4,0,0,.02.06.02.06-.26-.15-.51-.29-.77-.44-1.21-1.2-2.43-2.4-3.64-3.61-.15-.15-.3-.29-.45-.44-.22-.22-.44-.44-.66-.66-.15-.15-.3-.3-.45-.45Z"/>
      <path class="cls-2" d="m250.24,30.51c-.86.17-1.6,1.2-2.61.4-.1-.7-.59-.73-1.14-.67,0,0,.04.03.04.02-.13-.14-.27-.27-.4-.41,0,0,.03.03.03.03-.14-.25-.29-.51-.43-.76h.06c.12-1,.23-2.01.35-3.02,0,0-.03.04-.03.04.14-.13.28-.27.42-.4,0,0-.03.04-.03.04.13-.14.27-.27.4-.41,0,0-.03.04-.03.04.13-.14.26-.27.4-.41,0,0-.03.04-.03.04.13-.14.26-.27.4-.41,0,0-.03.04-.03.04.13-.14.27-.27.4-.41,0,0-.03.04-.03.04.13-.14.27-.27.4-.41,0,0-.04.04-.04.04.14-.14.27-.27.41-.41,0,0-.04.04-.04.04.13-.14.27-.27.4-.41,0,0-.03.04-.04.04.13-.14.27-.27.4-.41,0,0-.03.05-.03.05.13-.14.27-.27.4-.41,0,0-.04.04-.04.04.13-.14.27-.27.4-.41,0,0-.04.04-.04.04.13-.14.27-.28.4-.41,0,0-.03.05-.03.05.13-.14.27-.28.4-.41,0,0-.04.04-.04.04.14-.14.27-.27.41-.41,0,0-.04.04-.04.04.14-.14.27-.27.41-.41,0,0-.04.04-.04.04.14-.14.27-.27.41-.41,0,0-.02.05-.02.05.13-.16.25-.32.38-.48.46-.46.92-.92,1.38-1.38.16-.13.32-.26.48-.39,0,0-.04.04-.04.04.13-.15.26-.31.39-.46.1-.1.19-.19.29-.29.15-.15.3-.29.45-.44,3.05-3.04,6.11-6.09,9.16-9.13.26-.14.52-.27.78-.41,0,0,0,.03,0,.03,1,0,2,0,3.01,0,0,0,0-.06,0-.06.13.14.25.29.38.43,0,0-.02-.02-.02-.02.13.13.26.26.39.39,0,0-.02-.02-.02-.02.15.13.3.25.45.38.08.14.16.27.24.41-.21,1-.41,2.01-.62,3.01,0,0,0-.06,0-.06-.14.26-.28.53-.42.79-.85.84-1.7,1.68-2.55,2.52-.25.15-.51.29-.76.44,0,0,.02-.07.02-.07-.13.13-.26.26-.4.39,0,0,.03-.03.03-.03-.13.13-.26.26-.39.39,0,0,.03-.03.03-.03-.13.13-.26.26-.39.39,0,0,.03-.03.03-.03-.13.13-.26.26-.39.39,0,0,.07-.02.07-.02-.15.25-.29.49-.44.74,0,0,.01-.01.01-.01-.25.14-.49.29-.74.43,0,0,.01-.06.02-.06-.13.13-.26.26-.39.39,0,0,.02-.02.02-.02-.13.13-.26.26-.39.39,0,0,.02-.02.02-.02-.13.13-.26.26-.39.39,0,0,.02-.02.02-.02-.13.13-.26.26-.39.39,0,0,.02-.02.02-.02-.13.13-.26.26-.39.39,0,0,.02-.02.02-.02-.13.13-.26.26-.39.39,0,0,.02-.02.02-.02-.13.13-.26.26-.39.39,0,0,.02-.02.02-.02-.13.13-.26.26-.39.39,0,0,.02-.02.02-.02-.13.13-.26.26-.39.39,0,0,.02-.02.02-.02-.13.13-.26.26-.39.39,0,0,.02-.02.02-.02-.13.13-.26.26-.39.39,0,0,.02-.02.02-.02-.13.13-.26.26-.39.39,0,0,.02-.02.02-.02-.13.13-.26.26-.39.39,0,0,.02-.02.02-.02-.13.13-.26.26-.39.39,0,0,.02-.02.02-.02-.13.13-.26.26-.39.39,0,0,.02-.02.02-.02-.13.13-.26.26-.39.39,0,0,.02-.02.02-.02-.13.13-.26.26-.39.39,0,0,.02-.02.02-.02-.13.13-.26.26-.39.39,0,0,.02-.02.02-.02-.13.13-.26.26-.39.39,0,0,.02-.02.02-.02-.13.13-.26.26-.39.39,0,0,.02-.02.02-.02-.13.13-.26.26-.39.39,0,0,.02-.02.02-.02-.13.13-.26.26-.39.39,0,0,.02-.02.02-.02-.13.13-.26.26-.39.39,0,0,.02-.02.02-.02-.13.13-.26.26-.39.39,0,0,.02-.02.02-.02-.13.13-.26.26-.39.39,0,0,.02-.02.02-.02-.13.13-.26.26-.39.39,0,0,.02-.02.02-.02-.13.13-.26.26-.39.39,0,0,.02-.02.02-.02-.13.13-.26.26-.39.39,0,0,.02-.02.02-.02-.13.13-.26.26-.39.39,0,0,.02-.02.02-.02-.13.13-.26.26-.39.39,0,0,.02-.02.02-.02-.13.13-.26.26-.39.39,0,0,.02-.02.02-.02-.13.13-.26.26-.39.39,0,0,.09.06.09.06-.28.19-.55.38-.82.56Z"/>
      <path class="cls-2" d="m1.6,57.81c-1.8-1.39-2.2-2.95-.6-4.76.19-.13.38-.26.57-.39,0,0-.02,0-.02,0,8.62-.54,17.24-.55,25.86,0,0,0-.02-.03-.02-.03.14.13.28.27.41.4,0,0-.03-.03-.03-.03.12,1.13.24,2.26.36,3.39,0,0,.03-.01.03-.01-.13.26-.26.52-.38.78,0,0,.02-.05.02-.05-.14.14-.28.28-.41.42,0,0,.04-.03.04-.03-8.5.12-17,.24-25.5.36,0,0,0,.07,0,.07-.11-.04-.21-.08-.32-.12Z"/>
      <path class="cls-2" d="m287.83,53.81c1.03,2.09-.12,3.2-1.83,4.05-8.26-.12-16.52-.23-24.77-.35,0,0,.04.03.04.03-.14-.14-.28-.28-.41-.42,0,0,.02.05.02.05-.12-1.14-.24-2.27-.37-3.41,0,0-.02,0-.02,0,1.33-1.27,2.93-1.48,4.72-1.47,7.05.07,14.1,0,21.15,0,0,0,0-.06,0-.06.25.14.51.29.76.43,0,0-.03-.02-.03-.02.14.13.27.27.41.4,0,0-.03-.04-.03-.04.13.27.25.53.38.8Z"/>
      <path class="cls-1" d="m21.17,173.16c.11.58.31,1.17.31,1.75.01,37.43.02,74.86,0,112.29,0,.64-.21,1.29-.32,1.93,0-38.66,0-77.32,0-115.98Z"/>
      <path class="cls-1" d="m261.22,57.5c8.26.12,16.52.23,24.77.35-2.9,1-5.88.32-8.82.4-4.54.13-9.08.07-13.62,0-.78-.01-1.56-.49-2.34-.75Z"/>
      <path class="cls-1" d="m1.93,57.86c8.5-.12,17-.24,25.5-.36-.47.24-.94.7-1.41.7-7.83.04-15.66.02-23.49,0-.2,0-.4-.22-.59-.34Z"/>
      <path class="cls-1" d="m286.35,52.3c-7.05.01-14.1.07-21.15,0-1.79-.02-3.39.2-4.72,1.47.13-1.28,1.06-1.82,2.12-1.82,7.72-.05,15.43-.02,23.15,0,.2,0,.4.23.6.35Z"/>
      <path class="cls-1" d="m27.41,52.66c-8.62-.55-17.24-.54-25.86,0,.64-.25,1.27-.7,1.91-.71,7.34-.06,14.69-.08,22.03-.03.64,0,1.28.48,1.92.74Z"/>
      <path class="cls-1" d="m267.5,236.84c-.12-6.47-.27-12.94-.32-19.41-.02-2.24.21-4.47.32-6.71,0,8.71,0,17.41,0,26.12Z"/>
      <path class="cls-1" d="m267.5,274.41c-.56-5.27-.57-10.54,0-15.8,0,5.27,0,10.53,0,15.8Z"/>
      <path class="cls-1" d="m266.45,293.62c.35-3.69.7-7.37,1.05-11.06-.05,3.72.5,7.49-1.05,11.06Z"/>
      <path class="cls-1" d="m56.45,74.01c-.22,2.61-1.8,5.09-.74,7.82-2.23-2.84-.15-5.27.74-7.82Z"/>
      <path class="cls-1" d="m267.5,207.38c-.57-3.92-.57-7.83,0-11.75,0,3.92,0,7.83,0,11.75Z"/>
      <path class="cls-1" d="m55.69,81.81c2.22-.14,4.44-.28,6.66-.42-2.22.16-4.32,2.13-6.66.42Z"/>
      <path class="cls-1" d="m267.5,183.07c-.58-2.69-.55-5.37-.02-8.06,0,2.69.01,5.37.02,8.06Z"/>
      <path class="cls-1" d="m23.36,7.35c-1.39.36-2.78.72-4.17,1.09,1.09-1.5,2.44-2.02,4.17-1.09Z"/>
      <path class="cls-1" d="m267.5,192.27c-.56-2.44-.56-4.89,0-7.33,0,2.44,0,4.89,0,7.33Z"/>
      <path class="cls-1" d="m267.5,244.95c-.56-2.2-.56-4.4,0-6.59,0,2.2,0,4.4,0,6.59Z"/>
      <path class="cls-1" d="m19.23,8.42c0,1.14,0,2.29,0,3.43-1.02-1.14-.97-2.29,0-3.43Z"/>
      <path class="cls-1" d="m269.09,11.88l.62-3.01c.34,1.11.64,2.22-.62,3.01Z"/>
      <path class="cls-1" d="m260.5,53.76c.12,1.14.25,2.27.37,3.41-.95-1.05-1.42-2.15-.37-3.41Z"/>
      <path class="cls-1" d="m57.93,70.69c.01,1.35-.32,2.54-1.51,3.34.5-1.11,1-2.23,1.51-3.34Z"/>
      <path class="cls-1" d="m267.5,251.58c-.56-1.71-.57-3.42,0-5.12,0,1.71,0,3.42,0,5.12Z"/>
      <path class="cls-1" d="m59.39,67.74c-.04,1.22-.41,2.28-1.5,2.98.5-.99,1-1.99,1.5-2.98Z"/>
      <path class="cls-1" d="m268.3,7.36c-1,0-2,0-3.01,0,1-.92,2.01-.72,3.01,0Z"/>
      <path class="cls-1" d="m28.13,56.4c-.12-1.13-.24-2.26-.36-3.39,1.03,1.03,1.22,2.16.36,3.39Z"/>
      <path class="cls-1" d="m267.5,281.78c-.56-1.58-.55-3.17,0-4.75,0,1.58,0,3.17,0,4.75Z"/>
      <path class="cls-1" d="m267.5,257.1c-.56-1.58-.56-3.17,0-4.75,0,1.58,0,3.17,0,4.75Z"/>
      <path class="cls-1" d="m246.13,26.11c-.12,1.01-.23,2.02-.35,3.03-.7-1.1-.57-2.11.35-3.03Z"/>
      <path class="cls-1" d="m265.37,296.21c-.09-.68,0-1.26.77-1.5-.26.5-.51,1-.77,1.5Z"/>
      <path class="cls-1" d="m42.94,27.22c-.15-.37-.3-.74-.45-1.12.15.37.3.74.45,1.12Z"/>
      <path class="cls-1" d="m246.49,30.24c.55-.07,1.04-.04,1.14.67-.38-.22-.76-.44-1.14-.67Z"/>
      <path class="cls-1" d="m267.5,194.48c-.48-.48-.48-.96,0-1.44,0,.48,0,.96,0,1.44Z"/>
      <path class="cls-1" d="m250.24,30.51c.27-.19.55-.38.82-.56-.27.19-.55.38-.82.56Z"/>
      <path class="cls-1" d="m266.08,294.72c.14-.38.28-.75.42-1.13-.14.38-.28.75-.42,1.13Z"/>
      <path class="cls-1" d="m60.14,66.27c-.13.38-.26.76-.4,1.14.13-.38.26-.76.4-1.14Z"/>
      <path class="cls-1" d="m21.5,171.67c.09.23.18.46.28.7-.13-.02-.26-.05-.39-.07.04-.21.07-.42.11-.63Z"/>
      <path class="cls-1" d="m265.31,7.32c-.26.14-.52.27-.78.41.26-.14.52-.27.78-.41Z"/>
      <path class="cls-1" d="m31.08,14.73c-.25-.14-.5-.29-.74-.43.25.14.5.29.74.43Z"/>
      <path class="cls-1" d="m31.51,15.46c-.15-.25-.29-.49-.44-.74.15.25.29.49.44.74Z"/>
      <path class="cls-1" d="m265.25,296.87c.06-.22.11-.44.17-.67-.06.22-.11.44-.17.67Z"/>
      <path class="cls-1" d="m265.35,15.56c.25-.15.51-.29.76-.44-.25.15-.51.29-.76.44Z"/>
      <path class="cls-1" d="m32.94,16.58c-.26-.14-.51-.29-.77-.43.26.14.51.29.77.43Z"/>
      <path class="cls-1" d="m263.5,17.72c.15-.25.29-.49.44-.74-.15.25-.29.49-.44.74Z"/>
      <path class="cls-1" d="m262.77,18.14c.25-.14.49-.29.74-.43-.25.14-.49.29-.74.43Z"/>
      <path class="cls-1" d="m34.82,18.77c-.15-.25-.29-.5-.44-.76.15.25.29.5.44.76Z"/>
      <path class="cls-1" d="m35.53,19.15c-.26-.15-.51-.29-.77-.44.26.15.51.29.77.44Z"/>
      <path class="cls-1" d="m30.26,22.86c.26.15.51.29.77.44-.26-.15-.51-.29-.77-.44Z"/>
      <path class="cls-1" d="m27.78,57.17c.13-.26.26-.52.38-.78-.13.26-.26.52-.38.78Z"/>
      <path class="cls-1" d="m245.73,29.12c.14.25.29.51.43.76-.14-.25-.29-.51-.43-.76Z"/>
      <path class="cls-1" d="m287.1,52.67c-.25-.14-.51-.29-.76-.43.25.14.51.29.76.43Z"/>
      <path class="cls-1" d="m287.83,53.81c-.13-.27-.25-.53-.38-.8.13.27.25.53.38.8Z"/>
      <path class="cls-1" d="m268.66,12.6c.14-.26.28-.52.42-.79-.14.26-.28.52-.42.79Z"/>
      <path class="cls-1" d="m23.72,7.73c-.13-.14-.26-.28-.39-.43.13.14.26.28.39.43Z"/>
      <path class="cls-1" d="m268.67,7.73c-.13-.14-.25-.29-.38-.43.13.14.25.29.38.43Z"/>
      <path class="cls-1" d="m24.1,8.1c-.13-.13-.27-.26-.4-.38.13.13.27.26.4.38Z"/>
      <path class="cls-1" d="m269.04,8.1c-.13-.13-.26-.26-.39-.39.13.13.26.26.39.39Z"/>
      <path class="cls-1" d="m24.47,8.46c-.13-.13-.26-.26-.39-.39.13.13.26.26.39.39Z"/>
      <path class="cls-1" d="m269.47,8.46c-.15-.13-.3-.25-.45-.38.15.13.3.25.45.38Z"/>
      <path class="cls-1" d="m24.83,8.84c-.13-.13-.26-.26-.39-.4.13.13.26.26.39.4Z"/>
      <path class="cls-1" d="m25.2,9.21c-.13-.13-.26-.26-.39-.39.13.13.26.26.39.39Z"/>
      <path class="cls-1" d="m25.57,9.57c-.13-.13-.26-.26-.39-.39.13.13.26.26.39.39Z"/>
      <path class="cls-1" d="m25.94,9.94c-.13-.13-.26-.26-.39-.39.13.13.26.26.39.39Z"/>
      <path class="cls-1" d="m26.3,10.31c-.13-.13-.26-.26-.39-.39.13.13.26.26.39.39Z"/>
      <path class="cls-1" d="m26.67,10.68c-.13-.13-.26-.26-.39-.39.13.13.26.26.39.39Z"/>
      <path class="cls-1" d="m27.04,11.05c-.13-.13-.26-.26-.39-.39.13.13.26.26.39.39Z"/>
      <path class="cls-1" d="m27.41,11.41c-.13-.13-.26-.26-.39-.39.13.13.26.26.39.39Z"/>
      <path class="cls-1" d="m27.78,11.78c-.13-.13-.26-.26-.39-.39.13.13.26.26.39.39Z"/>
      <path class="cls-1" d="m19.2,11.81c.14.13.28.27.42.4-.14-.13-.28-.27-.42-.4Z"/>
      <path class="cls-1" d="m28.15,12.15c-.13-.13-.26-.26-.39-.39.13.13.26.26.39.39Z"/>
      <path class="cls-1" d="m19.58,12.18c.14.13.27.27.41.4-.14-.13-.27-.27-.41-.4Z"/>
      <path class="cls-1" d="m28.52,12.52c-.13-.13-.26-.26-.4-.39.13.13.26.26.4.39Z"/>
      <path class="cls-1" d="m19.95,12.55c.14.13.27.27.41.4-.14-.13-.27-.27-.41-.4Z"/>
      <path class="cls-1" d="m20.32,12.92c.14.13.27.27.41.4-.14-.13-.27-.27-.41-.4Z"/>
      <path class="cls-1" d="m29.25,13.26c-.13-.13-.26-.26-.39-.39.13.13.26.26.39.39Z"/>
      <path class="cls-1" d="m20.69,13.28c.13.14.27.27.4.41-.13-.14-.27-.27-.4-.41Z"/>
      <path class="cls-1" d="m29.63,13.62c-.13-.13-.26-.26-.4-.39.13.13.26.26.4.39Z"/>
      <path class="cls-1" d="m21.06,13.65c.13.14.27.27.4.41-.13-.14-.27-.27-.4-.41Z"/>
      <path class="cls-1" d="m29.99,13.99c-.13-.13-.26-.26-.39-.39.13.13.26.26.39.39Z"/>
      <path class="cls-1" d="m21.44,14.01c.13.16.25.33.38.49-.13-.16-.25-.33-.38-.49Z"/>
      <path class="cls-1" d="m30.36,14.36c-.13-.13-.26-.26-.39-.4.13.13.26.26.39.4Z"/>
      <path class="cls-1" d="m22.46,15.14c.16.13.33.25.49.38-.16-.13-.33-.25-.49-.38Z"/>
      <path class="cls-1" d="m22.9,15.49c.14.14.27.27.41.41-.14-.14-.27-.27-.41-.41Z"/>
      <path class="cls-1" d="m253.92,26.94c.13-.13.26-.26.39-.39-.13.13-.26.26-.39.39Z"/>
      <path class="cls-1" d="m34.33,26.55c.13.13.26.26.39.39-.13-.13-.26-.26-.39-.39Z"/>
      <path class="cls-1" d="m254.29,26.57c.13-.13.26-.26.39-.39-.13.13-.26.26-.39.39Z"/>
      <path class="cls-1" d="m33.96,26.18c.13.13.26.26.39.39-.13-.13-.26-.26-.39-.39Z"/>
      <path class="cls-1" d="m254.66,26.2c.13-.13.26-.26.39-.39-.13.13-.26.26-.39.39Z"/>
      <path class="cls-1" d="m35.43,27.65c.13.13.26.26.39.39-.13-.13-.26-.26-.39-.39Z"/>
      <path class="cls-1" d="m1.58,52.65c-.19.13-.38.26-.57.39.19-.13.38-.26.57-.39Z"/>
      <path class="cls-1" d="m27.8,53.03c-.14-.13-.28-.27-.41-.4.14.13.28.27.41.4Z"/>
      <path class="cls-1" d="m287.47,53.05c-.14-.13-.27-.27-.41-.4.14.13.27.27.41.4Z"/>
      <path class="cls-1" d="m246.52,25.74c-.14.13-.28.27-.42.4.14-.13.28-.27.42-.4Z"/>
      <path class="cls-1" d="m252.81,28.04c.13-.13.26-.26.39-.39-.13.13-.26.26-.39.39Z"/>
      <path class="cls-1" d="m33.59,25.81c.13.13.26.26.39.39-.13-.13-.26-.26-.39-.39Z"/>
      <path class="cls-1" d="m248.74,23.54c-.14.14-.27.27-.41.41.14-.14.27-.27.41-.41Z"/>
      <path class="cls-1" d="m27.38,57.53c.14-.14.27-.28.41-.42-.14.14-.27.28-.41.42Z"/>
      <path class="cls-1" d="m260.85,57.12c.14.14.28.28.41.42-.14-.14-.28-.28-.41-.42Z"/>
      <path class="cls-1" d="m1.6,57.81c.11.04.21.08.32.12-.12,0-.23-.04-.32-.12Z"/>
      <path class="cls-1" d="m255.03,25.83c.13-.13.26-.26.39-.39-.13.13-.26.26-.39.39Z"/>
      <path class="cls-1" d="m246.89,25.38c-.13.14-.27.27-.4.41.13-.14.27-.27.4-.41Z"/>
      <path class="cls-1" d="m60.51,65.9c-.13.14-.27.27-.4.41.13-.14.27-.27.4-.41Z"/>
      <path class="cls-1" d="m33.22,25.44c.13.13.26.26.39.39-.13-.13-.26-.26-.39-.39Z"/>
      <path class="cls-1" d="m59.77,67.37c-.14.13-.28.26-.42.4.14-.13.28-.26.42-.4Z"/>
      <path class="cls-1" d="m255.39,25.46c.13-.13.26-.26.39-.39-.13.13-.26.26-.39.39Z"/>
      <path class="cls-1" d="m247.26,25.01c-.13.14-.27.27-.4.41.13-.14.27-.27.4-.41Z"/>
      <path class="cls-1" d="m32.85,25.07c.13.13.26.26.39.39-.13-.13-.26-.26-.39-.39Z"/>
      <path class="cls-1" d="m255.76,25.1c.13-.13.26-.26.39-.39-.13.13-.26.26-.39.39Z"/>
      <path class="cls-1" d="m247.63,24.64c-.13.14-.26.27-.4.41.13-.14.26-.27.4-.41Z"/>
      <path class="cls-1" d="m32.48,24.71c.13.13.26.26.4.39-.13-.13-.26-.26-.4-.39Z"/>
      <path class="cls-1" d="m256.13,24.73c.13-.13.26-.26.39-.39-.13.13-.26.26-.39.39Z"/>
      <path class="cls-1" d="m248,24.27c-.13.14-.27.27-.4.41.13-.14.27-.27.4-.41Z"/>
      <path class="cls-1" d="m32.12,24.34c.13.13.26.26.39.39-.13-.13-.26-.26-.39-.39Z"/>
      <path class="cls-1" d="m256.5,24.36c.13-.13.26-.26.39-.39-.13.13-.26.26-.39.39Z"/>
      <path class="cls-1" d="m248.37,23.9c-.13.14-.27.27-.4.41.13-.14.27-.27.4-.41Z"/>
      <path class="cls-1" d="m31.75,23.97c.13.13.26.26.39.39-.13-.13-.26-.26-.39-.39Z"/>
      <path class="cls-1" d="m256.87,23.99c.13-.13.26-.26.39-.39-.13.13-.26.26-.39.39Z"/>
      <path class="cls-1" d="m35.8,28.02c.13.13.26.26.39.39-.13-.13-.26-.26-.39-.39Z"/>
      <path class="cls-1" d="m252.45,28.41c.13-.13.26-.26.39-.39-.13.13-.26.26-.39.39Z"/>
      <path class="cls-1" d="m31.38,23.6c.13.13.26.26.4.39-.13-.13-.26-.26-.4-.39Z"/>
      <path class="cls-1" d="m257.24,23.62c.13-.13.26-.26.39-.39-.13.13-.26.26-.39.39Z"/>
      <path class="cls-1" d="m249.1,23.17c-.13.14-.27.27-.4.41.13-.14.27-.27.4-.41Z"/>
      <path class="cls-1" d="m31.01,23.23c.13.13.26.26.39.4-.13-.13-.26-.26-.39-.4Z"/>
      <path class="cls-1" d="m257.6,23.25c.13-.13.26-.26.39-.39-.13.13-.26.26-.39.39Z"/>
      <path class="cls-1" d="m249.47,22.79c-.13.14-.27.27-.4.41.13-.14.27-.27.4-.41Z"/>
      <path class="cls-1" d="m257.97,22.89c.13-.13.26-.26.39-.39-.13.13-.26.26-.39.39Z"/>
      <path class="cls-1" d="m36.17,28.39c.13.13.26.26.39.39-.13-.13-.26-.26-.39-.39Z"/>
      <path class="cls-1" d="m249.84,22.43c-.13.14-.27.27-.4.41.13-.14.27-.27.4-.41Z"/>
      <path class="cls-1" d="m258.34,22.52c.13-.13.26-.26.39-.39-.13.13-.26.26-.39.39Z"/>
      <path class="cls-1" d="m250.21,22.06c-.14.14-.27.27-.4.41.14-.14.27-.27.4-.41Z"/>
      <path class="cls-1" d="m258.71,22.15c.13-.13.26-.26.39-.39-.13.13-.26.26-.39.39Z"/>
      <path class="cls-1" d="m250.58,21.69c-.13.14-.27.28-.4.41.13-.14.27-.28.4-.41Z"/>
      <path class="cls-1" d="m259.08,21.78c.13-.13.26-.26.39-.39-.13.13-.26.26-.39.39Z"/>
      <path class="cls-1" d="m250.95,21.32c-.13.14-.27.28-.4.41.13-.14.27-.28.4-.41Z"/>
      <path class="cls-1" d="m259.45,21.41c.13-.13.26-.26.39-.39-.13.13-.26.26-.39.39Z"/>
      <path class="cls-1" d="m251.32,20.96c-.14.14-.27.27-.41.41.14-.14.27-.27.41-.41Z"/>
      <path class="cls-1" d="m259.81,21.05c.13-.13.26-.26.39-.39-.13.13-.26.26-.39.39Z"/>
      <path class="cls-1" d="m251.69,20.59c-.14.14-.27.27-.41.41.14-.14.27-.27.41-.41Z"/>
      <path class="cls-1" d="m260.18,20.68c.13-.13.26-.26.39-.39-.13.13-.26.26-.39.39Z"/>
      <path class="cls-1" d="m35.06,27.29c.13.13.26.26.39.39-.13-.13-.26-.26-.39-.39Z"/>
      <path class="cls-1" d="m252.06,20.22c-.14.14-.27.27-.41.41.14-.14.27-.27.41-.41Z"/>
      <path class="cls-1" d="m37.01,20.63c-.14-.14-.28-.28-.42-.42.14.14.28.28.42.42Z"/>
      <path class="cls-1" d="m260.55,20.31c.13-.13.26-.26.39-.39-.13.13-.26.26-.39.39Z"/>
      <path class="cls-1" d="m252.41,19.79c-.13.16-.25.32-.38.48.13-.16.25-.32.38-.48Z"/>
      <path class="cls-1" d="m260.92,19.94c.13-.13.26-.26.39-.39-.13.13-.26.26-.39.39Z"/>
      <path class="cls-1" d="m261.29,19.57c.13-.13.26-.26.39-.39-.13.13-.26.26-.39.39Z"/>
      <path class="cls-1" d="m261.66,19.21c.13-.13.26-.26.39-.39-.13.13-.26.26-.39.39Z"/>
      <path class="cls-1" d="m252.08,28.78c.13-.13.26-.26.39-.39-.13.13-.26.26-.39.39Z"/>
      <path class="cls-1" d="m36.54,28.76c.13.13.26.26.39.39-.13-.13-.26-.26-.39-.39Z"/>
      <path class="cls-1" d="m28.88,12.89c-.13-.13-.26-.26-.39-.39.13.13.26.26.39.39Z"/>
      <path class="cls-1" d="m26.17,18.82c.15.15.3.29.45.44-.15-.15-.3-.29-.45-.44Z"/>
      <path class="cls-1" d="m251.71,29.15c.13-.13.26-.26.39-.39-.13.13-.26.26-.39.39Z"/>
      <path class="cls-1" d="m262.03,18.84c.13-.13.26-.26.39-.39-.13.13-.26.26-.39.39Z"/>
      <path class="cls-1" d="m36.8,29.22l.29.02c-.05.08-.11.16-.16.24-.14-.04-.18-.13-.13-.26Z"/>
      <path class="cls-1" d="m253.18,27.67c.13-.13.26-.26.39-.39-.13.13-.26.26-.39.39Z"/>
      <path class="cls-1" d="m251.34,29.51c.13-.13.26-.26.39-.39-.13.13-.26.26-.39.39Z"/>
      <path class="cls-1" d="m250.97,29.88c.13-.13.26-.26.39-.39-.13.13-.26.26-.39.39Z"/>
      <path class="cls-1" d="m262.4,18.47c.13-.13.26-.26.39-.39-.13.13-.26.26-.39.39Z"/>
      <path class="cls-1" d="m254.27,18.02c-.16.13-.32.26-.48.39.16-.13.32-.26.48-.39Z"/>
      <path class="cls-1" d="m246.13,29.86c.13.14.27.27.4.41-.13-.14-.27-.27-.4-.41Z"/>
      <path class="cls-1" d="m254.62,17.6c-.13.15-.26.31-.39.46.13-.15.26-.31.39-.46Z"/>
      <path class="cls-1" d="m25.06,17.71c.15.15.3.3.45.45-.15-.15-.3-.3-.45-.45Z"/>
      <path class="cls-1" d="m255.36,16.86c-.15.15-.3.29-.45.44.15-.15.3-.29.45-.44Z"/>
      <path class="cls-1" d="m263.87,17c.13-.13.26-.26.39-.39-.13.13-.26.26-.39.39Z"/>
      <path class="cls-1" d="m24.02,16.59c.13.16.26.31.39.47-.13-.16-.26-.31-.39-.47Z"/>
      <path class="cls-1" d="m264.23,16.63c.13-.13.26-.26.39-.39-.13.13-.26.26-.39.39Z"/>
      <path class="cls-1" d="m23.64,16.23c.14.14.27.27.41.41-.14-.14-.28-.27-.41-.41Z"/>
      <path class="cls-1" d="m264.6,16.26c.13-.13.26-.26.39-.39-.13.13-.26.26-.39.39Z"/>
      <path class="cls-1" d="m32.2,16.2c-.13-.13-.26-.26-.39-.39.13.13.26.26.39.39Z"/>
      <path class="cls-1" d="m23.27,15.86c.14.14.27.27.41.41-.14-.14-.27-.27-.41-.41Z"/>
      <path class="cls-1" d="m264.97,15.89c.13-.13.26-.26.4-.39-.13.13-.26.26-.4.39Z"/>
      <path class="cls-1" d="m31.83,15.83c-.13-.13-.26-.26-.39-.39.13.13.26.26.39.39Z"/>
      <path class="cls-1" d="m253.55,27.3c.13-.13.26-.26.39-.39-.13.13-.26.26-.39.39Z"/>
      <path class="cls-1" d="m34.7,26.92c.13.13.26.26.39.39-.13-.13-.26-.26-.39-.39Z"/>
      <path class="cls-4" d="m47.55,144.46c1.44-18.47,8.88-35.01,16.36-51.58,1.93-4.28,4.85-8.2,5.49-13.1.07-.56,2.57-.85,3.98-1.1.13-.02.6,1.15.7,1.8.33,2.31.33,4.7.88,6.95,1.79,7.37,6.58,9.01,14,5.61,9.27-4.25,18.76-8.03,28.15-12.02,1.07-.45,1.03.6,1.34,1.04,2.99,4.19,5.88,8.45,8.92,12.61,1.48,2.02,3.23,2.68,5.9,1.5,6.86-3.02,13.83-5.78,20.28-9.6,2.4-1.42,4.67-3.08,6.9-4.77,1.38-1.05,2.29-.71,3.18.53,3.09,4.33,6.25,8.61,9.26,13,1.82,2.66,3.77,3.63,7.09,2.43,9.7-3.49,18.81-8.06,27.31-13.84.97-.66,1.33-.52,2,.33,2.92,3.71,5.79,7.48,8.93,10.99,4.28,4.78,7.7,4.64,11.99-.14.32-.35.71-.64,1.06-.96.16.45.35.89.47,1.35,3.97,15.96,6.73,32.1,7.12,48.59.11,4.47,1.43,9.06.17,13.4-1.98,6.85-8.41,9.84-13.45,13.97-.22.18-1.24-.31-1.66-.72-3.26-3.15-6.53-6.29-9.67-9.56-2.01-2.09-3.89-2.4-5.93-.19-4.2,4.55-8.42,9.08-12.57,13.68-1.15,1.27-1.98,1.36-2.57-.32-1.54-4.37-4.52-7.83-7.27-11.41-5.96-7.74-8.75-8.3-16.67-2.62-6.32,4.53-12.26,9.6-18.37,14.43-2.57,2.03-4.74,2.75-6.99-.76-2.14-3.34-4.85-6.32-7.46-9.34-2.59-3-5.94-3.08-8.91-1.01-3.82,2.65-7.26,5.84-10.84,8.82-2.28,1.89-4.09,1.72-6.02-.72-3.42-4.33-7.09-8.46-10.67-12.66-2.88-3.38-6.11-3.1-9.29-.57-5.38,4.27-10.69,8.62-15.97,13.02-1.2,1-1.75.97-2.22-.55-1.5-4.85-3.14-9.66-4.54-14.54-1.03-3.59-2.86-4.21-5.96-2.26-4.7,2.95-9.47,5.77-14.22,8.65-.19-1.33-.37-2.66-.56-3.98,0-.27,0-.54-.01-.81,0-4.02,0-8.05,0-12.07.03-.26.05-.51.08-.77.09-.23.18-.47.27-.7Zm100.04-23.95c-4.26-.2-8.08.17-11.79,1.12-2.95.75-6.3,1.35-7.03,5.15-.43,2.22-.35,4.56,1.69,6.03,1.35.97.88,1.41.02,2.25-2.73,2.66-2.67,5.46.21,7.86,5.27,4.41,20.22,4.58,25.8.46,3.15-2.33,3.46-6.31.57-8.98-.92-.85-.44-.99.22-1.49,3.84-2.91,3.65-7.73-.4-10.42-2.95-1.97-6.26-2.33-9.29-1.97Zm26.57-9.9c.49,3.2,2.11,5.87,5.81,5.97,4.63.13,6.34-3.38,6.62-7.16.29-3.85-1.82-6.86-5.86-7.45-3.61-.53-6.31,3.2-6.58,8.64Zm-76.41-2.18c-.13,5.27,1.75,8.42,5.57,8.39,3.9-.03,6.74-2.72,6.6-7.21-.13-4.16-1.88-7.3-6.46-7.09-4.25.2-5.5,3.47-5.71,5.9Z"/>
      <path class="cls-4" d="m25.58,103.16c.12-.1.23-.2.35-.31.23-.16.45-.33.68-.49,5.1-2.62,8.58.05,11.5,3.77,3.47,4.43,6.83,9.26,7.65,14.76.53,3.55-1.48,7.47-2.35,11.23-.07.29-.09.6-.13.9-.24,1.51-.55,3.01-.72,4.53-.84,7.4-1.57,14.82-.91,22.28-5.13-1.32-9.31-4.22-13.02-7.87-1.6-1.58-.72-3.53-.31-5.14.54-2.14-.94-3.01-2.1-3.17-8.26-1.15-9.71-12.56-4.68-16.58,2.94-2.35,3.59-4.65,1.66-7.78-.19-.36-.39-.72-.58-1.08,0,0,0,.03,0,.03-.49-3.95-.94-7.89.38-11.78,0,0-.02.02-.02.02.13-.25.26-.51.39-.76,0,0-.02.03-.02.03.13-.25.25-.51.38-.76,0,0-.02.02-.02.02.13-.13.26-.26.39-.39,0,0-.03.02-.03.02.13-.13.27-.26.4-.39,0,0-.03.03-.03.03.13-.13.27-.26.4-.4,0,0-.03.03-.03.03.13-.13.26-.26.4-.4,0,0-.03.02-.03.02.14-.13.27-.26.41-.38Z"/>
      <path class="cls-4" d="m253.98,101.25c.01.16.03.32.04.48.02,1.88-.06,3.76.07,5.63.21,3.16-1.37,6.28-.2,9.46,0,0-.02-.03-.02-.03.13.13.27.27.4.4,0,0-.03-.02-.03-.02,1.9,1.42,4.25.25,6.25,1.1,1.83,5.75,4.26,13.6,1.27,17.2-5.03,6.06-6.26,14.4-12.77,19.2-2.62,1.93-4.2,2.88-4.2-1.87-.02-16.36-2.05-32.53-4.66-48.69-.82-5.05,1.01-10.47,4.06-14.96,2.06-3.02,5.23-2.14,7.12,2.07,1.07,2.38,1.6,4.99,2.37,7.5.1.84.2,1.68.29,2.52Z"/>
      <path class="cls-4" d="m145.42,21.92c-3.06,0-6.11.02-9.17-.01-.79,0-2.12.86-2.25-.44-.12-1.28.17-3,1.88-3.36,1.16-.24,2.43-.12,3.62.08,1.24.2,2.54.62,3.42-.49,1.01-1.28,1.25-2.82.7-4.44-.48-1.42-.88-2.88-1.3-4.33-.29-1.01.4-1.64,1.01-2.2.86-.79,1.9-.7,2.92-.24,5.08,2.3,9.09,9.04,8.76,14.59-.05.94-.62.55-.97.55-2.88.03-5.75.02-8.63.02,0,.09,0,.18,0,.27Z"/>
      <path class="cls-1" d="m26.97,181.62c.01,34.74.03,69.48.05,104.23,0,1.1.12,2.2.19,3.3-.91-.43-.59-1.27-.59-1.95-.01-34.49-.01-68.98,0-103.48,0-.7.22-1.4.34-2.1Z"/>
      <path class="cls-1" d="m261.44,289.15c.04-20.19.09-40.39.13-60.58.03-15.65.04-31.3.06-46.96.13.69.38,1.38.38,2.08.02,34.38.02,68.75,0,103.13,0,.78.44,1.75-.56,2.33Z"/>
      <path class="cls-1" d="m41.64,159.85c-.67-7.47.07-14.88.91-22.28.17-1.52.48-3.02.72-4.53-.27,3.43-.64,6.85-.78,10.28-.22,5.01-.26,10.03-.42,15.05-.02.5-.28.99-.43,1.49Z"/>
      <path class="cls-1" d="m157.75,28.3c-7.62-.08-15.23-.17-22.85-.25,5.38-.81,10.8-1.13,16.19-.53,2.21.25,4.6-.74,6.66.78Z"/>
      <path class="cls-1" d="m153.77,252.73c-4.64,3.06-9.58,3.64-14.82,1.82,5.11.81,10.07.4,14.82-1.82Z"/>
      <path class="cls-1" d="m253.89,116.81c-1.17-3.17.41-6.29.2-9.46-.12-1.87-.05-3.75-.07-5.63,1.61,3.74.08,7.53.16,11.29.03,1.26-.18,2.53-.29,3.79Z"/>
      <path class="cls-1" d="m47.2,145.93c0,4.02,0,8.05,0,12.07-1.42-1.94-.51-4.14-.59-6.2-.08-1.95.37-3.91.59-5.87Z"/>
      <path class="cls-1" d="m22.99,106.47c-1.32,3.89-.87,7.83-.38,11.78-1.47-3.98-1.89-7.92.38-11.78Z"/>
      <path class="cls-1" d="m260.49,118.27c-2-.85-4.36.32-6.25-1.1,2.05.58,4.36-.37,6.25,1.1Z"/>
      <path class="cls-1" d="m47.22,158.81c.19,1.33.37,2.66.56,3.98-1.32-1.17-1.02-2.57-.56-3.98Z"/>
      <path class="cls-1" d="m253.98,101.25c-.1-.84-.2-1.68-.29-2.52.96.74.69,1.62.29,2.52Z"/>
      <path class="cls-1" d="m155.27,251.68c-.51.36-1.03.73-1.54,1.09.26-.72.71-1.18,1.54-1.09Z"/>
      <path class="cls-1" d="m197.82,216.51c.39-.29.78-.59,1.17-.88-.09.69-.45,1.02-1.17.88Z"/>
      <path class="cls-1" d="m194.52,218.73c.38-.24.77-.48,1.15-.73-.38.24-.77.48-1.15.73Z"/>
      <path class="cls-1" d="m196.73,217.26c.39-.24.77-.48,1.16-.72-.39.24-.77.48-1.16.72Z"/>
      <path class="cls-1" d="m179.45,228.73c.38-.26.75-.51,1.13-.77,0,.8-.55.81-1.13.77Z"/>
      <path class="cls-1" d="m156.28,251.21c-.35.16-.7.32-1.05.48.2-.49.36-1.07,1.05-.48Z"/>
      <path class="cls-1" d="m195.63,218c.38-.24.77-.49,1.15-.73-.38.24-.77.49-1.15.73Z"/>
      <path class="cls-1" d="m185.69,224.64c.38-.25.77-.49,1.15-.74-.38.25-.77.49-1.15.74Z"/>
      <path class="cls-1" d="m180.55,227.99c.38-.26.75-.52,1.13-.78,0,.81-.54.82-1.13.78Z"/>
      <path class="cls-1" d="m192.32,220.21c.38-.24.77-.49,1.15-.73-.38.24-.77.49-1.15.73Z"/>
      <path class="cls-1" d="m193.41,219.47c.39-.24.77-.48,1.16-.72-.39.24-.77.48-1.16.72Z"/>
      <path class="cls-1" d="m177.66,229.86c.23-.15.46-.29.7-.44-.03.47-.02,1-.7.44Z"/>
      <path class="cls-1" d="m22.6,118.22c.19.36.39.72.58,1.08-.19-.36-.39-.72-.58-1.08Z"/>
      <path class="cls-1" d="m188.28,222.83c.38-.26.76-.52,1.14-.78-.38.26-.76.52-1.14.78Z"/>
      <path class="cls-1" d="m26.6,102.37c-.23.16-.45.33-.68.49.06-.39,0-.95.68-.49Z"/>
      <path class="cls-1" d="m178.34,229.46c.26-.13.52-.26.78-.39-.26.13-.52.26-.78.39Z"/>
      <path class="cls-1" d="m189.39,222.09c.26-.13.52-.26.78-.39-.26.13-.52.26-.78.39Z"/>
      <path class="cls-1" d="m23.72,105c-.13.25-.25.51-.38.76.13-.25.25-.51.38-.76Z"/>
      <path class="cls-1" d="m23.35,105.73c-.13.25-.26.51-.39.76.13-.25.26-.51.39-.76Z"/>
      <path class="cls-1" d="m47.55,144.46c-.09.23-.18.47-.27.7.09-.23.18-.47.27-.7Z"/>
      <path class="cls-1" d="m191.59,220.62c.26-.13.52-.26.78-.39-.26.13-.52.26-.78.39Z"/>
      <path class="cls-1" d="m190.49,221.36c.26-.13.52-.26.78-.38-.26.13-.52.26-.78.38Z"/>
      <path class="cls-1" d="m187.17,223.56c.26-.13.52-.26.78-.39-.26.13-.52.26-.78.39Z"/>
      <path class="cls-1" d="m184.97,225.04c.26-.13.52-.26.78-.39-.26.13-.52.26-.78.39Z"/>
      <path class="cls-1" d="m183.86,225.77c.26-.13.52-.26.78-.39-.26.13-.52.26-.78.39Z"/>
      <path class="cls-1" d="m182.76,226.52c.26-.13.52-.26.78-.39-.26.13-.52.26-.78.39Z"/>
      <path class="cls-1" d="m181.65,227.26c.26-.13.52-.26.78-.38-.26.13-.52.26-.78.38Z"/>
      <path class="cls-1" d="m25.58,103.16c-.14.13-.27.26-.41.38.14-.13.27-.26.41-.38Z"/>
      <path class="cls-1" d="m25.19,103.52c-.13.13-.26.26-.4.4.13-.13.26-.26.4-.4Z"/>
      <path class="cls-1" d="m24.83,103.89c-.13.13-.27.26-.4.4.13-.13.27-.26.4-.4Z"/>
      <path class="cls-1" d="m24.46,104.26c-.13.13-.27.26-.4.39.13-.13.27-.26.4-.39Z"/>
      <path class="cls-1" d="m24.09,104.63c-.13.13-.26.26-.39.39.13-.13.26-.26.39-.39Z"/>
      <path class="cls-1" d="m254.27,117.18c-.13-.13-.27-.27-.4-.4.13.13.27.27.4.4Z"/>
      <path class="cls-1" d="m191.25,221.01c.13-.14.26-.29.38-.43-.13.14-.26.29-.38.43Z"/>
      <path class="cls-1" d="m190.15,221.75c.13-.14.26-.28.38-.43-.13.14-.26.28-.38.43Z"/>
      <path class="cls-1" d="m187.94,223.22c.13-.14.26-.28.39-.43-.13.14-.26.28-.39.43Z"/>
      <path class="cls-1" d="m186.83,223.96c.13-.14.25-.29.38-.43-.13.14-.25.29-.38.43Z"/>
      <path class="cls-1" d="m184.62,225.43c.13-.14.26-.29.38-.43-.13.14-.26.29-.38.43Z"/>
      <path class="cls-1" d="m183.52,226.17c.13-.14.26-.28.38-.43-.13.14-.26.28-.38.43Z"/>
      <path class="cls-1" d="m182.41,226.9c.13-.14.26-.28.38-.43-.13.14-.26.28-.38.43Z"/>
      <path class="cls-1" d="m179.1,229.11c.13-.14.26-.28.39-.42-.13.14-.26.28-.39.42Z"/>
      <path class="cls-2" d="m147.59,120.51c3.03-.35,6.33,0,9.29,1.97,4.05,2.69,4.24,7.51.4,10.42-.66.5-1.14.64-.22,1.49,2.89,2.67,2.57,6.65-.57,8.98-5.58,4.13-20.52,3.95-25.8-.46-2.88-2.4-2.94-5.2-.21-7.86.86-.84,1.33-1.28-.02-2.25-2.04-1.46-2.12-3.8-1.69-6.03.73-3.8,4.08-4.4,7.03-5.15,3.71-.95,7.53-1.32,11.79-1.12Zm-1.65,3.97c-4.28.03-7.83.08-11.21,1.41-1.21.48-1.89,1.37-1.95,2.64-.05,1.21.78,2.08,1.78,2.33,6.36,1.57,12.76,2.32,19.09-.11,1.2-.46,2.27-1.48,2.11-2.94-.15-1.38-1.39-1.88-2.58-2.32-2.58-.96-5.26-1.07-7.24-1Zm-4.16,17.79c4.67-.11,7.89-.38,10.96-1.56,1.02-.39,2.15-.98,2.05-2.29-.09-1.29-1.24-1.89-2.31-2.02-1.6-.2-3.25-.04-4.88-.09-3.6-.1-7.2-.29-10.81-.34-1.61-.02-3.22.53-3.61,2.25-.39,1.74,1.31,2.14,2.49,2.66,2.39,1.05,4.91,1.46,6.11,1.39Z"/>
      <path class="cls-2" d="m174.16,110.61c.27-5.45,2.97-9.17,6.58-8.64,4.04.59,6.15,3.6,5.86,7.45-.28,3.78-1.99,7.29-6.62,7.16-3.7-.1-5.32-2.76-5.81-5.97Z"/>
      <path class="cls-2" d="m97.76,108.43c.21-2.44,1.46-5.7,5.71-5.9,4.58-.21,6.34,2.93,6.46,7.09.14,4.49-2.7,7.18-6.6,7.21-3.82.03-5.7-3.12-5.57-8.39Z"/>
      <path class="cls-3" d="m145.94,124.47c1.98-.07,4.66.04,7.24,1,1.19.44,2.43.94,2.58,2.32.16,1.46-.91,2.48-2.11,2.94-6.33,2.43-12.73,1.69-19.09.11-1-.25-1.83-1.12-1.78-2.33.05-1.27.74-2.16,1.95-2.64,3.38-1.33,6.93-1.38,11.21-1.41Z"/>
      <path class="cls-3" d="m141.79,142.26c-1.19.08-3.72-.34-6.11-1.39-1.18-.52-2.89-.92-2.49-2.66.39-1.71,2-2.27,3.61-2.25,3.6.04,7.2.23,10.81.34,1.63.05,3.27-.11,4.88.09,1.08.13,2.22.73,2.31,2.02.09,1.32-1.03,1.9-2.05,2.29-3.06,1.18-6.29,1.45-10.96,1.56Z"/>
    </g>
  </g>
</svg>