<?xml version="1.0" encoding="UTF-8"?>
<svg id="_图层_2" data-name="图层 2" xmlns="http://www.w3.org/2000/svg" viewBox="0 0 647.05 749.79">
  <defs>
    <style>
      .cls-1 {
        fill: #fcfbf8;
      }

      .cls-1, .cls-2, .cls-3, .cls-4, .cls-5, .cls-6 {
        stroke-width: 0px;
      }

      .cls-2 {
        fill: #4b2518;
      }

      .cls-3 {
        fill: #f49e4a;
      }

      .cls-4 {
        fill: #fae4ac;
      }

      .cls-5 {
        fill: #be7e55;
      }

      .cls-6 {
        fill: #633d2e;
      }
    </style>
  </defs>
  <g id="_图层_1-2" data-name="图层 1">
    <path class="cls-6" d="m545.61,258.9c.23,1.21.46,2.42.83,4.4,5.84-9.69,11.04-18.86,17.38-27.3,8.21-10.93,19.42-15.41,32.37-12.7,13.42,2.8,21.58,11.49,24.92,25.53,3.49,14.66,3.18,28.76-1.39,42.87-1.06,3.28-.03,4.31,2.28,6.58,7.1,6.99,9.77,16.07,8.64,25.91-3.04,26.44-19.88,43.01-41.41,55.51-8.76,5.09-18.66,8.23-28.07,12.19-1.05.44-2.67.87-1.67,1.97,1.95,2.14-.35,7.03,5.24,6.92,13.98-.29,27.96.04,41.94-.04,3.48-.02,6.48.8,9.08,3.09,2.07,4.48,2.07,9.22,2.05,14.03-.07,15.06.04,30.13.07,45.19,0,0,.04-.05.04-.06-1.32,0-2.49.11-1.31,1.87-.87,2.25-2.93,2.98-4.89,3.82-5.38-.52-10.9-2.9-15.89,1.3,0,0,.05-.05.05-.05-3.58.89-2.03,3.81-2.03,5.79-.08,87.14-.07,174.28-.06,261.42,0,1.66.17,3.32.26,4.98,0,0,.12-.11.12-.11-1.16.21-1.36,1.01-1.24,2.01,0,0,.06-.06.06-.06-2.13-.11-3.15.91-3.09,3.03,0,0,.06-.05.06-.05-1,.15-2.73-.8-2.32,1.51l-.45.14s-.27-.38-.27-.38c-2.15-.13-4.3-.39-6.45-.39-92.45-.02-184.89-.03-277.34-.01-79.79.01-159.57.06-239.36.09,0,0,.08.05.08.05-.46-.2-.92-.41-1.38-.61,0,0-.03.03-.03.03.11-1.29-.69-1.5-1.72-1.44,0,0,.09.08.09.08-.37-.37-.74-.74-1.11-1.11,0,0,.08.09.08.09.05-1.02-.16-1.82-1.46-1.65,0,0,.02-.16.02-.17-.15-3.61-.42-7.21-.42-10.82-.02-85.14,0-170.29-.09-255.43,0-2.02,1.51-4.83-1.77-6.02-4.88-2.02-10.06-.19-15.12-1.27-6.2-1.31-7.79-5.84-7.9-10.56-.4-16.15-.25-32.31-.11-48.47.05-6.4,3.6-9.57,10.15-9.77,12.77-.4,25.53-.81,38.3-1.21,1.75-.06,3.88.47,3.53-2.57-.25-2.2,1.32-4.51-2.46-5.91-11.89-4.42-23.73-9.26-33.73-17.29-13.39-10.75-26.76-21.78-31.11-39.57-2.93-11.98-3.94-24.39,5.51-33.93,4.26-4.3,4.35-7.23,2.83-12.35-4.36-14.71-4.72-29.53,1.09-44.1,3.97-9.96,10.24-18.36,20.93-20.65,11.31-2.42,25.68-.48,36.13,13.62,7.72,10.42,14.71,21.27,21.29,33.46,5.95-18.66,12.22-36.45,20.49-54.69-2.88,1.55-4.68,2.49-6.46,3.49-2.86,1.61-5.54.94-7.88-.9-2.4-1.89-3.63-4.26-2.9-7.65,2.64-12.38,6.5-24.4,11.39-36.01,9.92-23.55,23.23-45.01,41.16-63.42,13.69-14.06,28.66-26.66,46.51-34.91,19.53-9.03,40.03-15.45,61.51-18.31,5.81-.77,11.56-2.02,17.47-2,2.05.01,4.22-.64,3.96-3.17-1.45-14.04,3.51-15.82,13.81-20.04,3.61-1.48,6-2.42,4.59-7.63-2.51-9.24,1.72-17.48,9.07-22.23,4.97-3.21,11.87-3.58,18.7-1.76,21.37,5.69,28.76,21.48,31.24,41.14.4,3.17,1.99,6.25.88,9.63-.65,1.96.9,1.85,2.3,2.07,17.74,2.79,34.86,7.63,51.82,13.73,18.17,6.53,33.84,16.8,47.61,29.63,12.01,11.19,24.66,22.12,33.11,36.66-.93,1.52.36,1.57,1.25,1.89,0,0-.07-.08-.07-.08-.06,1,.16,1.79,1.36,1.88,0,0-.08-.09-.08-.09-.16.93-.41,1.92,1.16,1.52.21.08.31.22.31.44-.81,1.51.21,1.95,1.36,2.31,0,0-.09-.09-.09-.09-.1,1,.11,1.79,1.26,1.99,0,0-.16-.15-.16-.15.28.44.57.88.85,1.32,0,0-.04-.06-.04-.06.06.87.15,1.72,1.19,2.01,0,0-.09-.11-.09-.11-.28,2.76.8,4.75,3.36,5.89,0,0-.1-.07-.1-.07-.44,2.44.51,4.18,2.64,5.34,0,0,0-.02,0-.02.09,1.13-.32,2.52,1.46,2.77,0,0-.12-.08-.12-.08.4,4.26,1.39,8.24,5.2,10.87,0,0-.06.18-.06.18-.98,1.7-.07,3.26.48,4.77,7.88,21.36,11.41,43.78,16.19,65.91,1.2,5.58.74,11.74,4.62,16.6Zm-92.91-157.71c-.42-.34-.84-.68-1.25-1.01l.16.17c-.14-1.13-.96-1.31-1.88-1.35l.05.03c-.25-2.52-2.13-2.81-4.1-2.99l.06.05c.02-2.21-1.51-2.13-3.03-2.07l.05.04c-.01-2.18-1.54-2.1-3.05-2.04l.06.04c-.49-3.02-2.8-2.99-5.07-3.03l.06.04c-3.39-4.32-7.82-6.53-13.31-6.62h.26s-.25.06-.25.06c-.18-1.92-1.62-1.42-2.79-1.46l.09.06c-.35-1.5-1.58-2.08-2.82-2.56-16.95-6.55-34.46-11.06-52.63-11.48-23.23-.54-46.52-.76-69.71,1.03-11.28.87-22.74,1.22-33.7,4.7-10.22,3.3-20.59,5.93-30.59,10.15-21.47,9.05-41.34,20.53-57.21,37.6-11.77,12.66-22.07,26.7-30.3,42.06-6.31,11.79-11.52,24.04-15.6,38.33,10.99-6.97,21.99-10.92,32.6-15.72,7.02-3.18,12.5-.95,15.2,6.19,2.74,7.26,5.58,14.53,7.56,22.01,1.13,4.25,2.19,4.79,6.11,2.97,26.38-12.27,51.16-27.25,75.04-43.8,7.85-5.44,11.38-4.69,16.76,3.34,7.21,10.76,14.5,21.46,21.59,32.3,1.81,2.76,3.17,3.47,6.53,1.89,21.74-10.25,41.84-23.3,62.15-35.98,3.55-2.22,7.23-3.55,10.29-.35,11.22,11.74,25.46,21.13,30.25,38.03.43,1.5.84,3.24,3.71,2.49,9.56-2.49,18.55-6.54,27.21-10.92,10.67-5.41,20.52-12.42,29.68-20.26,3.94-3.38,8.07-2.98,11.52.65,4.58,4.81,9.03,9.79,13.17,14.99,5.27,6.62,10.13,13.57,15.27,20.3.67.88,2,2.91,2.87,1.71,2.84-3.93,8.33-6.87,6.88-12.77-4.66-18.92-10.56-37.3-21.12-54.04-7.74-12.27-16.89-23.41-26.04-34.5-5.52-6.69-13.08-11.7-19.72-17.46.11-.27.22-.54.33-.81-.47-.04-.93-.07-1.4-.11,0,0,.1.09.1.09Zm128.08,368.71c-1.45-1.67-3.41-1.02-5.16-1.02-166.85-.03-333.69-.03-500.54,0-1.76,0-3.71-.61-5.19,1-1.67,1.67-.97,3.79-.97,5.7-.04,84.45-.03,168.91-.03,253.36,0,1.56,0,3.12,0,4.68h.99v-263.75c.36.01.71.03,1.07.04-.03.33-.05.67-.08,1-.07,86.87-.14,173.74-.21,260.61,0,1.67-.23,3.45,2.17,3.7-.51,3.59,2.33,1.48,3.15,1.48,166.22.13,332.44.12,498.66.12,1.6,0,3.2,0,4.8,0-.01-.32-.03-.65-.04-.97h-5.43c-163.89,0-327.78,0-491.67-.02-2.12,0-4.34.55-6.37-.59,1.99-.08,3.98-.24,5.97-.24,164.54-.02,329.08-.04,493.62.06,4.22,0,5.65-.76,5.54-5.35-.35-14.48-.12-28.97-.13-43.46-.04-71.78-.09-143.55-.14-215.33-.01-.34-.02-.68-.03-1.02Zm24.46-15.17c.77-13.24.78-26.49,0-39.73l-.41-.18c.08-.31.06-.62-.05-.92-.66-2.25-2.47-.95-3.6-.95-183.09-.08-366.17-.08-549.26-.05-1.72,0-3.74-.73-5,1.27.09,1.26.17,2.52.26,3.78,0,.62,0,1.24.01,1.85v3.14c0,10.58,0,21.16,0,31.74-.09.37-.18.74-.27,1.12,1.65,3.21,4.66,2.01,7.13,2.02,131.54.05,263.08.05,394.62.05,50.28,0,100.57.02,150.85-.1,1.72,0,4.73,1.88,5.21-1.98.07-.28.07-.55-.02-.82.19-.06.37-.14.53-.24Zm-61.51-54.97c.05-13.33.88-26.71-.05-39.96-1.26-17.93-4.46-35.72-5.75-53.65-1.79-24.89-6.83-49.16-11.92-73.47-.81-3.88-1.71-2.68-3.8-.97-7.92,6.45-13.41,6.13-20.12-1.8-7.95-9.38-15.48-19.12-23.01-28.84-2.21-2.86-3.72-3.34-6.92-.96-6.95,5.17-14.1,10.19-21.66,14.39-11.96,6.65-25.52,9.15-38.38,13.46-6.33,2.12-12.35-.79-14.24-7.27-3.73-12.81-11.66-22.57-21.54-31.1-1.92-1.65-3.05-1.66-5-.19-18.61,14.04-39.44,24.18-60.45,33.94-11.27,5.24-14.51,4.2-21.3-6.14-6.21-9.44-12.5-18.83-18.77-28.23-.94-1.41-1.38-3.31-4-1.48-16.78,11.65-34.36,22.03-52.31,31.74-9.77,5.29-18.88,12.12-30.75,12.89-8.69.56-12.91-1.82-15.24-10.47-1.29-4.8-2.79-9.55-3.86-14.39-1.47-6.66-4.47-8.7-10.62-4.57-3.48,2.34-9.1,1.91-10.88,6.23-6.68,16.16-13.57,32.28-19.08,48.85-8.3,24.97-13.39,50.79-18.51,76.59-4.29,21.63-6.95,43.39-7.64,65.41,1.37,1.85,3.36,1.12,5.09,1.12,145.21.03,290.42.03,435.63,0,1.72,0,3.72.74,5.08-1.12Zm12.27-41.02c-.81,5.99.45,11.36.69,16.78.14,3.07,1.67,2.71,3.54,2.13,17.93-5.53,33.62-14.55,46.08-28.88,7.91-9.11,13.15-19.03,11.5-31.55-.61-4.62-1.82-9.17-6.48-11.04-6.51-2.61-7.38-7.32-5.97-13.17,1.32-5.46,3.05-10.82,4.31-16.3,2.85-12.35.66-23.87-6.47-34.33-6.43-9.43-18.95-8.94-27.49,1.35-10.34,12.47-17.77,26.79-24.96,41.21-.49.99-.85,2.23-.76,3.31.61,7.49.84,15.1,2,22.42,2.56,16.14,2.61,32.38,4,48.05ZM28.8,322.56c.18,1.7-.07,4.3.77,6.49,9.48,24.67,29.32,37.95,52.58,47.39,2.32.94,3.15-.09,3.77-2.3,1.98-7.03,1.7-14.34,2.91-21.46,2.32-13.66,3.68-27.53,6.84-40.99,5.02-21.38,5.5-21.26-5.5-40.51-5.78-10.12-11.9-20.01-19.83-28.63-6.9-7.51-15.09-9.05-22.2-4.35-8.17,5.4-11.31,13.93-12.09,22.81-.93,10.49,1.13,20.93,5.19,30.8,2.36,5.75.66,10.8-4.36,13.29-7.51,3.73-7.81,10-8.09,17.47ZM321.51,54.83c0,.09,0,.17.01.26,7.3-.35,14.6-.9,21.91-1.02,11.74-.19,11.83-.09,10.32-11.64-1.73-13.27-7.08-23.86-21.23-27.68-5.3-1.43-9.61,1.62-9.28,6.98.18,2.81,1,5.59,1.56,8.38,1.63,8.14-.59,13.05-6.76,12.97-4.13-.05-7.12,1.57-10.57,3.1-3.34,1.48-2.72,3.9-2.42,6.13.31,2.26,2.18,2.73,4.46,2.59,3.98-.24,7.99-.07,11.99-.07Zm260.56,678.61c.16.04.32.08.49.12v-262.48c-.16,0-.32,0-.49,0v262.37Z"/>
    <path class="cls-2" d="m63.75,747.9c79.79-.03,159.57-.07,239.36-.09,92.45-.02,184.89,0,277.34.01,2.15,0,4.3.26,6.45.39-1.84,1.94-4.25,1.53-6.53,1.53-169.36.01-338.73,0-508.09,0-2.98,0-5.96.01-8.53-1.86Z"/>
    <path class="cls-6" d="m91.84,68.93c1.14,3.26-1.23,5.1-3.1,6.41-2.24,1.57-5.24,1.32-7.45-.55-15.41-13.03-31.85-24.83-46.46-38.81-2.41-2.3-2.26-5.72-.36-7.68,2.73-2.8,6.45-3.47,10.26-1.03,11.88,7.6,22.01,17.42,33.06,26.08,4.39,3.44,8.83,6.86,12.49,11.16,1.17,1.38,2.85,2.38,1.57,4.42Z"/>
    <path class="cls-6" d="m612.87,32.27c-.2,4.22-3.74,6.43-6.33,8.66-12.06,10.41-24.37,20.54-36.9,30.39-3.24,2.55-7.08,6.05-12.03,2.91-4.84-3.08-5.35-7.01.74-12.02,14.58-11.97,28.35-25.01,44.27-35.26,5.7-3.67,10.5.49,10.23,5.33Z"/>
    <path class="cls-6" d="m577.36,107.31c.27-4.2,3.67-5.54,6.75-6.31,16.09-4.06,32.17-8.16,48.01-13.11,4.94-1.54,9.24-.82,10.64,4.69,1.45,5.72-2.04,8.39-7.33,9.6-12.56,2.88-25.08,5.94-37.61,8.96-3.7.89-7.45,1.63-11.04,2.86-5.1,1.74-9.61-1.31-9.42-6.68Z"/>
    <path class="cls-6" d="m61.29,114.46c-7.25-1.81-14.51-3.62-21.76-5.42-8.65-2.14-17.32-4.23-25.96-6.39-7.56-1.88-10.87-5.58-8.69-10.47,2.74-6.17,7.96-4.08,12.71-2.89,15.52,3.88,31.04,7.76,46.57,11.62,3.86.96,5.58,3.75,5.28,7.33-.39,4.66-3.25,6.73-8.14,6.22Z"/>
    <path class="cls-6" d="m19.26,155.9c10.3-1.12,20.6-2.24,30.89-3.35,2.11-.23,4.23-.43,6.35-.61,4.09-.34,6.98,1.06,7.52,5.5.57,4.72-3.32,7.26-6.36,7.47-13.21.93-26.12,4.61-39.48,4.08-3.85-.15-7.75.58-11.6,1.11-4.51.62-6.45-2.09-6.57-5.74-.11-3.29.51-6.61,5.54-6.69,4.57-.07,9.12-1.31,13.68-2.03.01.08.02.16.03.24Z"/>
    <path class="cls-6" d="m643.74,158.08c3.78,1.88,3.74,5.27,2.72,8.45-.98,3.05-3.53,4.76-6.95,4.41-6.6-.68-13.18-1.46-19.77-2.2-.52-.57-1-1.59-1.57-1.64-10.83-1.1-21.68-2.09-32.52-3.1,0,0,.08.06.08.06-.37-.35-.74-.71-1.11-1.06,0,0,.07.08.07.08,0-3.11-.02-6.22-.03-9.32,0,0-.08.09-.08.09.37-.37.74-.75,1.11-1.12,0,0-.09.08-.09.08,8.05.24,16.05.76,24.06,1.82,11.32,1.5,22.72,2.33,34.09,3.45Z"/>
    <path class="cls-2" d="m56.06,470.9c3.28,1.19,1.77,4,1.77,6.02.08,85.14.07,170.29.09,255.43,0,3.61.28,7.21.42,10.82-1.75-2.36-2.37-5.06-2.37-7.95.03-88.11.06-176.22.09-264.33Z"/>
    <path class="cls-2" d="m594.05,742.12c-.09-1.66-.26-3.32-.26-4.98-.01-87.14-.02-174.28.06-261.42,0-1.98-1.54-4.91,2.03-5.79-.04,81.73-.07,163.45-.11,245.18,0,6.82-.02,13.65,0,20.47,0,2.34-.14,4.63-1.73,6.54Z"/>
    <path class="cls-2" d="m545.61,258.9c-3.88-4.87-3.42-11.03-4.62-16.6-4.77-22.13-8.31-44.54-16.19-65.91-.56-1.51-1.46-3.07-.48-4.77,8.02,18.27,11.16,37.87,15.41,57.15,2.2,9.99,3.94,20.08,5.89,30.13Z"/>
    <path class="cls-2" d="m617.88,463.03c-.04-15.06-.14-30.13-.07-45.19.02-4.81.02-9.55-2.05-14.03,3.21,2.1,3.96,5.36,3.98,8.85.05,14.63.02,29.27.04,43.9,0,2.36-.31,4.6-1.9,6.47Z"/>
    <path class="cls-2" d="m643.74,158.08c-11.37-1.12-22.77-1.96-34.09-3.45-8.01-1.06-16.01-1.58-24.06-1.82,5.22-4.26,10.89-.91,16.2-.58,12.03.75,24,2.46,35.99,3.78,2.14.24,4.22.67,5.96,2.07Z"/>
    <path class="cls-2" d="m585.66,164c10.84,1.01,21.69,2,32.52,3.1.57.06,1.05,1.07,1.57,1.64-11.43-1.09-23.05-.78-34.08-4.74Z"/>
    <path class="cls-2" d="m595.83,469.98c4.99-4.2,10.52-1.83,15.89-1.3-5.16,2.16-10.61.73-15.89,1.3Z"/>
    <path class="cls-2" d="m524.37,171.44c-3.81-2.63-4.8-6.61-5.2-10.87,1.73,3.62,3.47,7.24,5.2,10.87Z"/>
    <path class="cls-2" d="m584.66,153.76c0,3.11.02,6.22.03,9.32-2.66-3.1-2.82-6.21-.03-9.32Z"/>
    <path class="cls-2" d="m515.3,152.63c-2.56-1.14-3.64-3.13-3.36-5.89,1.12,1.96,2.24,3.93,3.36,5.89Z"/>
    <path class="cls-2" d="m517.84,157.9c-2.13-1.16-3.09-2.9-2.64-5.34.88,1.78,1.76,3.56,2.64,5.34Z"/>
    <path class="cls-2" d="m589.89,746.99c-.06-2.12.96-3.15,3.09-3.03-1.03,1.01-2.06,2.02-3.09,3.03Z"/>
    <path class="cls-2" d="m616.61,464.85c-1.17-1.76,0-1.86,1.31-1.87-.44.62-.88,1.25-1.31,1.87Z"/>
    <path class="cls-2" d="m519.29,160.65c-1.78-.24-1.37-1.64-1.46-2.77.49.92.97,1.85,1.46,2.77Z"/>
    <path class="cls-2" d="m504.98,135.85c-.89-.32-2.18-.37-1.25-1.89.42.63.83,1.26,1.25,1.89Z"/>
    <path class="cls-2" d="m509.01,141.84c-1.14-.36-2.17-.8-1.36-2.31.45.77.91,1.54,1.36,2.31Z"/>
    <path class="cls-2" d="m587.63,748.45c-.41-2.31,1.31-1.36,2.32-1.51-.77.5-1.55,1.01-2.32,1.51Z"/>
    <path class="cls-2" d="m512.03,146.85c-1.03-.29-1.13-1.14-1.19-2.01.4.67.79,1.34,1.19,2.01Z"/>
    <path class="cls-2" d="m507.35,139.08c-1.58.4-1.32-.6-1.16-1.52.39.51.78,1.01,1.16,1.52Z"/>
    <path class="cls-2" d="m506.27,137.65c-1.2-.09-1.42-.89-1.36-1.88.45.63.91,1.25,1.36,1.88Z"/>
    <path class="cls-2" d="m510.19,143.73c-1.15-.2-1.37-.99-1.26-1.99.42.66.84,1.33,1.26,1.99Z"/>
    <path class="cls-2" d="m592.92,744.02c-.12-1,.08-1.8,1.24-2.01-.41.67-.83,1.34-1.24,2.01Z"/>
    <path class="cls-2" d="m60.71,745.94c1.02-.06,1.83.14,1.72,1.44-.57-.48-1.15-.96-1.72-1.44Z"/>
    <path class="cls-2" d="m58.31,743.34c1.3-.16,1.51.63,1.46,1.65-.49-.55-.97-1.1-1.46-1.65Z"/>
    <path class="cls-2" d="m585.69,152.73c-.37.37-.74.75-1.11,1.12.37-.37.74-.75,1.11-1.12Z"/>
    <path class="cls-2" d="m584.62,163c.37.35.74.71,1.11,1.06-.37-.35-.74-.71-1.11-1.06Z"/>
    <path class="cls-2" d="m510.88,144.9c-.28-.44-.57-.88-.85-1.32.28.44.57.88.85,1.32Z"/>
    <path class="cls-2" d="m59.69,744.91c.37.37.74.74,1.11,1.11-.37-.37-.74-.74-1.11-1.11Z"/>
    <path class="cls-2" d="m62.46,747.34c.46.2.92.41,1.38.61-.46-.2-.92-.41-1.38-.61Z"/>
    <path class="cls-3" d="m580.8,470.93c.05,71.78.09,143.55.14,215.33,0,14.49-.22,28.98.13,43.46.11,4.59-1.32,5.35-5.54,5.35-164.54-.1-329.08-.08-493.62-.06-1.99,0-3.98.15-5.97.24-1.04,0-2.08-.01-3.12-.02-2.4-.25-2.17-2.02-2.17-3.7.07-86.87.14-173.74.21-260.61,169.98,0,339.96.01,509.94.02Zm-237.79,145.03c0-14.83-.03-29.66.02-44.49.02-4.64-1.39-7.83-6.72-7.82-13.16.03-26.33.03-39.49,0-2.52,0-5.04.56-5.87,2.95-1.99,5.76-2,11.95-.22,17.57,1.51,4.77,6.64,3.42,10.52,3.37,6.05-.07,8.72,2.66,8.67,8.82-.15,21.16-.12,42.32-.02,63.49.03,6.08-2.73,8.84-8.73,8.88-10.59.08-11.3.86-11.27,11.42,0,1.83.03,3.67.02,5.5-.02,4.98,2.52,7.26,7.43,7.25,19.33-.04,38.66-.06,57.99,0,2.52,0,5.02-.41,6.05-2.64,2.63-5.66,2.18-11.82.64-17.52-1.35-5-6.39-3.97-10.27-3.77-6.57.35-8.9-2.79-8.83-9.03.17-14.66.05-29.33.07-43.99Zm-37.2-95.53c-.1,11.14,8.52,20.06,19.62,20.31,10.76.24,20.21-8.9,20.37-19.69.17-11.61-8.28-20.21-19.9-20.26-11.29-.04-19.99,8.46-20.09,19.64Z"/>
    <path class="cls-4" d="m97.93,399.77c.68-22.02,3.34-43.78,7.64-65.41,5.12-25.8,10.21-51.62,18.51-76.59,5.51-16.57,12.39-32.7,19.08-48.85,1.79-4.32,7.4-3.89,10.88-6.23,6.16-4.14,9.15-2.09,10.62,4.57,1.07,4.85,2.57,9.59,3.86,14.39,2.32,8.65,6.55,11.03,15.24,10.47,11.86-.77,20.98-7.6,30.75-12.89,17.95-9.71,35.53-20.09,52.31-31.74,2.63-1.82,3.06.08,4,1.48,6.28,9.4,12.57,18.78,18.77,28.23,6.79,10.33,10.03,11.37,21.3,6.14,21.02-9.77,41.84-19.9,60.45-33.94,1.96-1.48,3.09-1.47,5,.19,9.88,8.53,17.81,18.29,21.54,31.1,1.88,6.48,7.91,9.39,14.24,7.27,12.86-4.31,26.41-6.81,38.38-13.46,7.56-4.2,14.71-9.22,21.66-14.39,3.2-2.38,4.7-1.89,6.92.96,7.54,9.72,15.06,19.46,23.01,28.84,6.72,7.93,12.2,8.24,20.12,1.8,2.09-1.7,2.99-2.9,3.8.97,5.08,24.31,10.12,48.59,11.92,73.47,1.29,17.93,4.49,35.72,5.75,53.65.93,13.26.1,26.64.05,39.96-31.65.02-63.3.07-94.95.07-116.95-.01-233.9-.04-350.84-.06Zm228.96-106.85c-4.49,0-9.03-.39-13.46.11-4.47.5-9.06,1.33-13.21,2.98-13.06,5.18-19.84,17.46-9.74,28.93,1.39,1.58.73,2.17-.03,3.61-2.5,4.77-6.3,9.23-4.1,15.35,3.29,9.16,11.26,13.59,19.34,15.66,15.67,4.02,31.35,2.65,46.52-4.15,11.88-5.33,15.31-16.27,7.28-26.35-1.1-1.38-1.96-2.02-.35-3.96,7.24-8.71,6.16-17.93-2.57-25.13-8.73-7.2-19.17-7.22-29.66-7.07Zm-111.03-19.68c0,.83-.04,1.66,0,2.49.63,11.04,12.73,20.42,21.75,13.91,7.64-5.51,10.7-17.77,5.53-25.84-5.17-8.07-13.13-10.51-20.39-5.05-4.64,3.49-7.08,8.48-6.9,14.49Zm215.83-.08c.98-3.29-.69-6.45-1.86-9.62-2.74-7.4-12.72-11.12-18.47-6.62-6.43,5.04-9.99,11.74-8.42,20.23,2.17,11.69,11.9,17.24,21.03,11.65,5.56-3.4,8.45-8.56,7.71-15.65Z"/>
    <path class="cls-1" d="m453.66,102.02c6.64,5.76,14.19,10.78,19.72,17.46,9.16,11.08,18.3,22.22,26.04,34.5,10.56,16.74,16.46,35.12,21.12,54.04,1.45,5.89-4.04,8.84-6.88,12.77-.87,1.2-2.2-.84-2.87-1.71-5.14-6.73-10-13.68-15.27-20.3-4.14-5.2-8.59-10.17-13.17-14.99-3.45-3.63-7.57-4.02-11.52-.65-9.16,7.84-19,14.85-29.68,20.26-8.66,4.39-17.65,8.43-27.21,10.92-2.87.75-3.28-.99-3.71-2.49-4.79-16.9-19.03-26.29-30.25-38.03-3.06-3.21-6.74-1.87-10.29.35-20.31,12.68-40.41,25.73-62.15,35.98-3.36,1.58-4.72.88-6.53-1.89-7.09-10.83-14.38-21.54-21.59-32.3-5.38-8.03-8.91-8.78-16.76-3.34-23.87,16.56-48.65,31.53-75.04,43.8-3.92,1.82-4.98,1.29-6.11-2.97-1.98-7.48-4.82-14.76-7.56-22.01-2.7-7.15-8.18-9.37-15.2-6.19-10.61,4.8-21.61,8.75-32.6,15.72,4.09-14.29,9.29-26.53,15.6-38.33,8.23-15.37,18.53-29.41,30.3-42.06,15.87-17.07,35.75-28.55,57.21-37.6,9.99-4.21,20.37-6.85,30.59-10.15,1.82.05,3.7.41,5.47.11,22.21-3.76,44.65-3.33,67.04-4.27,29.71-1.25,58.63,1.01,86.36,12.47,0,0-.09-.06-.09-.06.93.49,1.86.97,2.79,1.46l.25-.06s-.26,0-.26,0c4.44,2.2,8.87,4.41,13.31,6.62,0,0-.06-.04-.06-.04,1.69,1.01,3.38,2.02,5.07,3.03,0,0-.06-.04-.06-.04,1.02.68,2.04,1.36,3.05,2.04,0,0-.05-.04-.05-.04,1.01.69,2.02,1.38,3.03,2.07,0,0-.06-.05-.06-.05,1.37,1,2.73,2,4.1,2.99,0,0-.05-.03-.05-.03.63.45,1.25.9,1.88,1.35,0,0-.16-.17-.16-.17.42.34.84.68,1.25,1.01,0,0-.1-.09-.1-.09.36.31.71.61,1.07.92Z"/>
    <path class="cls-3" d="m47.18,454.69c0-10.58.01-21.16.02-31.74.84-1.05.84-2.1-.01-3.14,0-.62,0-1.24-.01-1.85.7-2.82,2.67-3.13,5.25-3.12,19.65.09,39.29.05,58.94.05,164.49-.02,328.98-.04,493.47-.06,0,0,.41.18.41.18,0,13.24,0,26.49,0,39.73-.17.1-.35.18-.53.24-2.17.02-4.33.06-6.5.06-148.11,0-296.21.01-444.32-.01-35.32,0-70.63-.13-105.95-.19-.26-.04-.51-.09-.77-.14Z"/>
    <path class="cls-4" d="m556,358.75c-1.39-15.68-1.44-31.92-4-48.05-1.16-7.32-1.39-14.94-2-22.42-.09-1.08.26-2.32.76-3.31,7.19-14.42,14.61-28.74,24.96-41.21,8.54-10.29,21.06-10.78,27.49-1.35,7.13,10.46,9.32,21.98,6.47,34.33-1.26,5.47-2.99,10.84-4.31,16.3-1.42,5.85-.55,10.56,5.97,13.17,4.66,1.86,5.87,6.42,6.48,11.04,1.64,12.52-3.59,22.44-11.5,31.55-12.45,14.34-28.15,23.36-46.08,28.88-1.86.57-3.4.94-3.54-2.13-.24-5.42-1.5-10.79-.69-16.78Z"/>
    <path class="cls-4" d="m28.8,322.56c.28-7.47.57-13.74,8.09-17.47,5.02-2.49,6.72-7.54,4.36-13.29-4.06-9.87-6.12-20.3-5.19-30.8.78-8.89,3.92-17.41,12.09-22.81,7.11-4.7,15.29-3.16,22.2,4.35,7.93,8.62,14.05,18.51,19.83,28.63,10.99,19.25,10.52,19.13,5.5,40.51-3.16,13.46-4.51,27.33-6.84,40.99-1.21,7.12-.93,14.43-2.91,21.46-.62,2.21-1.44,3.25-3.77,2.3-23.26-9.44-43.1-22.72-52.58-47.39-.84-2.19-.59-4.79-.77-6.49Z"/>
    <path class="cls-4" d="m321.51,54.83c-4,0-8-.17-11.99.07-2.28.14-4.16-.33-4.46-2.59-.3-2.24-.92-4.65,2.42-6.13,3.45-1.53,6.44-3.15,10.57-3.1,6.17.08,8.39-4.83,6.76-12.97-.56-2.79-1.38-5.56-1.56-8.38-.34-5.36,3.97-8.41,9.28-6.98,14.15,3.82,19.5,14.41,21.23,27.68,1.51,11.56,1.42,11.45-10.32,11.64-7.31.12-14.61.67-21.91,1.02,0-.09,0-.17-.01-.26Z"/>
    <path class="cls-2" d="m604.72,455.8c-.48,3.86-3.5,1.98-5.21,1.98-50.28.12-100.57.1-150.85.1-131.54,0-263.08,0-394.62-.05-2.47,0-5.49,1.2-7.13-2.01.35-.01.7-.02,1.05-.03,185.59,0,371.18.01,556.77.02Z"/>
    <path class="cls-5" d="m604.82,414.82c-164.49.02-328.98.04-493.47.06-19.65,0-39.29.05-58.94-.05-2.57-.01-4.55.3-5.25,3.12-.09-1.26-.17-2.52-.26-3.78,1.83-.08,3.65-.24,5.48-.24,184.13-.02,368.26-.03,552.39-.03.12.3.13.61.05.92Z"/>
    <path class="cls-2" d="m604.77,413.9c-184.13,0-368.26.01-552.39.03-1.83,0-3.65.15-5.48.24,1.26-2,3.28-1.27,5-1.27,183.09-.03,366.17-.03,549.26.05,1.13,0,2.94-1.3,3.6.95Z"/>
    <path class="cls-4" d="m604.72,455.8c-185.59,0-371.18-.01-556.77-.02-.07-.32-.07-.63,0-.95,35.32.07,70.63.19,105.95.19,148.11.02,296.21.01,444.32.01,2.17,0,4.33-.04,6.5-.06.08.27.09.55.02.82Z"/>
    <path class="cls-2" d="m72.82,735.22c1.04,0,2.08.01,3.12.02,2.03,1.14,4.25.59,6.37.59,163.89.03,327.78.02,491.67.02h5.43c.01.32.03.65.04.97-1.6,0-3.2,0-4.8,0-166.22,0-332.44,0-498.66-.12-.82,0-3.66,2.1-3.15-1.48Z"/>
    <path class="cls-2" d="m69.88,469.88c1.48-1.61,3.43-1,5.19-1,166.85-.03,333.69-.03,500.54,0,1.75,0,3.71-.65,5.16,1.02-169.94,0-339.89,0-509.83,0-.36-.01-.71-.03-1.07-.04,0,0,.01,0,.01,0Z"/>
    <path class="cls-5" d="m70.94,469.91c169.94,0,339.89,0,509.83,0,.01.34.02.68.03,1.02-169.98,0-339.96-.01-509.94-.02.03-.33.05-.67.08-1Z"/>
    <path class="cls-2" d="m97.93,399.77c116.95.02,233.9.05,350.84.06,31.65,0,63.3-.04,94.95-.07-1.36,1.86-3.36,1.12-5.08,1.12-145.21.03-290.42.03-435.63,0-1.73,0-3.72.73-5.09-1.12Z"/>
    <path class="cls-2" d="m418.75,81.11c-27.74-11.46-56.65-13.71-86.36-12.47-22.4.94-44.83.51-67.04,4.27-1.77.3-3.64-.06-5.47-.11,10.96-3.47,22.43-3.83,33.7-4.7,23.19-1.79,46.48-1.57,69.71-1.03,18.17.42,35.68,4.93,52.63,11.48,1.25.48,2.47,1.06,2.82,2.56Z"/>
    <path class="cls-2" d="m582.07,733.44v-262.37c.16,0,.32,0,.49,0v262.48c-.16-.04-.32-.08-.49-.12Z"/>
    <path class="cls-2" d="m69.87,469.87v263.74h-.99c0-1.55,0-3.11,0-4.67,0-84.45,0-168.91.03-253.36,0-1.92-.7-4.04.97-5.7,0,0-.01,0-.01,0Z"/>
    <path class="cls-2" d="m605.23,454.74c0-13.25,0-26.49,0-39.73.77,13.25.77,26.49,0,39.73Z"/>
    <path class="cls-2" d="m434.74,89.07c-4.43-2.21-8.87-4.41-13.31-6.62,5.49.09,9.92,2.3,13.31,6.62Z"/>
    <path class="cls-2" d="m439.75,92.05c-1.69-1.01-3.38-2.02-5.07-3.03,2.27.04,4.58.01,5.07,3.03Z"/>
    <path class="cls-2" d="m449.76,99.03c-1.37-1-2.73-2-4.1-2.99,1.96.18,3.85.47,4.1,2.99Z"/>
    <path class="cls-2" d="m442.75,94.06c-1.02-.68-2.04-1.36-3.05-2.04,1.51-.06,3.04-.14,3.05,2.04Z"/>
    <path class="cls-2" d="m445.73,96.08c-1.01-.69-2.02-1.38-3.03-2.07,1.52-.06,3.06-.14,3.03,2.07Z"/>
    <path class="cls-2" d="m421.44,82.51c-.93-.49-1.86-.97-2.79-1.46,1.17.03,2.61-.46,2.79,1.46Z"/>
    <path class="cls-5" d="m47.18,419.81c.85,1.04.86,2.09.01,3.14,0-1.05,0-2.1-.01-3.14Z"/>
    <path class="cls-2" d="m451.6,100.35c-.63-.45-1.25-.9-1.88-1.35.92.04,1.74.22,1.88,1.35Z"/>
    <path class="cls-2" d="m453.66,102.02c-.36-.31-.71-.61-1.07-.92.47.04.93.07,1.4.11-.11.27-.22.54-.33.81Z"/>
    <path class="cls-2" d="m452.69,101.19c-.42-.34-.84-.67-1.25-1.01.42.34.84.68,1.25,1.01Z"/>
    <path class="cls-5" d="m47.94,454.83c-.06.32-.06.63,0,.95-.35.01-.7.02-1.05.03.09-.37.18-.74.27-1.12.26.05.51.1.77.14Z"/>
    <path class="cls-1" d="m343.01,615.96c0,14.66.11,29.33-.06,43.99-.07,6.24,2.26,9.38,8.83,9.03,3.88-.2,8.92-1.23,10.27,3.77,1.54,5.7,1.99,11.86-.64,17.52-1.03,2.23-3.53,2.64-6.05,2.64-19.33-.06-38.66-.04-57.99,0-4.92,0-7.45-2.27-7.43-7.25,0-1.83-.02-3.67-.02-5.5-.02-10.56.68-11.34,11.27-11.42,6-.05,8.76-2.8,8.73-8.88-.1-21.16-.13-42.32.02-63.49.04-6.15-2.62-8.89-8.67-8.82-3.88.04-9.01,1.4-10.52-3.37-1.78-5.62-1.77-11.81.22-17.57.83-2.39,3.35-2.96,5.87-2.95,13.16.04,26.33.03,39.49,0,5.34-.01,6.74,3.18,6.72,7.82-.05,14.83-.02,29.66-.03,44.49Z"/>
    <path class="cls-1" d="m305.81,520.43c.1-11.18,8.8-19.68,20.09-19.64,11.62.04,20.07,8.64,19.9,20.26-.16,10.79-9.61,19.93-20.37,19.69-11.1-.25-19.72-9.17-19.62-20.31Z"/>
    <path class="cls-6" d="m326.89,292.92c10.48-.15,20.92-.13,29.66,7.07,8.73,7.2,9.81,16.41,2.57,25.13-1.61,1.94-.75,2.58.35,3.96,8.03,10.07,4.6,21.01-7.28,26.35-15.16,6.81-30.84,8.17-46.52,4.15-8.07-2.07-16.05-6.51-19.34-15.66-2.2-6.12,1.61-10.59,4.1-15.35.76-1.44,1.41-2.03.03-3.61-10.1-11.47-3.32-23.75,9.74-28.93,4.15-1.65,8.74-2.48,13.21-2.98,4.44-.5,8.97-.11,13.46-.11Zm-2,28.12c6.13-.82,12.38.57,18.67-.85,3.92-.88,7.72-2.12,7.99-6.07.29-4.31-4.2-5.9-7.6-6.62-12.92-2.74-26-2.32-38.99-.4-3.23.48-6.88,2.39-6.93,6.15-.05,3.97,3.53,5.64,7,6.71,6.5,2.01,13.19.35,19.86,1.08Zm-.07,12.72s0,.09,0,.14c-6,0-12.01-.26-17.98.1-3.51.21-7.7.97-8.79,4.87-.99,3.54,2.8,4.48,5.1,6.33,1.76,1.41,3.52,2.35,5.47,2.63,11.99,1.75,23.96,2.47,35.58-2.14,3.28-1.3,8.21-1.94,7.26-6.57-.89-4.29-5.32-5.42-9.64-5.37-5.66.07-11.32.02-16.98.02Z"/>
    <path class="cls-6" d="m215.86,273.24c-.19-6.01,2.26-11,6.9-14.49,7.26-5.46,15.21-3.02,20.39,5.05,5.17,8.07,2.11,20.32-5.53,25.84-9.02,6.51-21.12-2.87-21.75-13.91-.05-.83,0-1.66,0-2.49Z"/>
    <path class="cls-6" d="m431.7,273.16c.73,7.09-2.15,12.25-7.71,15.65-9.13,5.58-18.87.03-21.03-11.65-1.58-8.49,1.99-15.19,8.42-20.23,5.75-4.51,15.73-.78,18.47,6.62,1.17,3.16,2.84,6.33,1.86,9.62Z"/>
    <path class="cls-3" d="m324.89,321.04c-6.67-.73-13.36.93-19.86-1.08-3.47-1.07-7.05-2.73-7-6.71.05-3.77,3.7-5.68,6.93-6.15,12.99-1.92,26.07-2.34,38.99.4,3.4.72,7.89,2.31,7.6,6.62-.27,3.95-4.07,5.18-7.99,6.07-6.3,1.42-12.55.03-18.67.85Z"/>
    <path class="cls-3" d="m324.83,333.76c5.66,0,11.32.05,16.98-.02,4.32-.05,8.75,1.08,9.64,5.37.96,4.63-3.97,5.27-7.26,6.57-11.62,4.61-23.59,3.89-35.58,2.14-1.95-.28-3.71-1.21-5.47-2.63-2.29-1.85-6.09-2.78-5.1-6.33,1.09-3.9,5.29-4.66,8.79-4.87,5.97-.36,11.99-.1,17.98-.1,0-.05,0-.09,0-.14Z"/>
  </g>
</svg>