<?xml version="1.0" encoding="UTF-8"?>
<svg id="_图层_2" data-name="图层 2" xmlns="http://www.w3.org/2000/svg" viewBox="0 0 200.39 214.49">
  <defs>
    <style>
      .cls-1 {
        fill: #f2c277;
      }

      .cls-1, .cls-2, .cls-3, .cls-4, .cls-5, .cls-6 {
        stroke-width: 0px;
      }

      .cls-2 {
        fill: #fcfbf9;
      }

      .cls-3 {
        fill: #84716c;
      }

      .cls-4 {
        fill: #fbe3b5;
      }

      .cls-5 {
        fill: #917e7a;
      }

      .cls-6 {
        fill: #fbf9d8;
      }
    </style>
  </defs>
  <g id="_图层_1-2" data-name="图层 1">
    <path class="cls-5" d="m180.95,125.95c.09,4.26-.27,8.48-.61,12.72-.45,5.67-1.42,11.21-2.89,16.67-1.4,5.17-3.4,10.1-5.86,14.88-3.01,5.85-6.79,11.06-11.64,15.48-3.92,3.57-8.36,6.44-13.26,8.38-2.55,1.01-5.16,1.97-7.75,2.91-4.18,1.52-8.46,2.35-12.78,3.18-1.41.27-2.87.02-4.26.62-.49.21-.65.36-.61.83.02.25,0,.5.01.75.01,1.82.01,1.81,1.73,1.53.44-.07.94-.14,1.35,0,.72.23,1.32.15,2.02-.11.72-.28,1.55-.36,2.31-.1.43.15.79.18,1.17-.05.88-.52,1.49.23,2.09.56.67.38.31,1.26.2,1.84-.12.62-.78.92-1.44,1.08-1.67.43-3.41.02-5.08.43-.35.08-.74.02-1.1.32,1.34,1.01,2.67,1.97,3.97,2.99,1.09.85,1.25,1.83.56,2.8-.73,1-1.75,1.1-2.93.28-2.52-1.74-5.03-3.5-7.58-5.2-.73-.49-1.07-1-1.04-1.91.05-1.49-.09-2.98-.07-4.47.01-.8-.21-1.13-1.05-1.04-1.38.13-2.77.3-4.15.27-2.13-.05-4.21.6-6.35.25-1.4-.23-2.77.31-4.18.26-6.27-.25-12.55-.15-18.79-.81-.9-.1-1.15.14-1.13,1.02.03,1.49-.07,2.98-.07,4.47,0,.77-.24,1.33-.89,1.78-2.67,1.82-5.31,3.67-7.98,5.49-.94.64-2.01.48-2.63-.35-.67-.89-.6-1.92.31-2.65,1.37-1.11,2.8-2.13,4.36-3.31-2.15-.39-4.14-.37-6.13-.41-.86-.02-1.55-.26-1.97-1.04-.77-1.44.33-2.91,2.17-2.82,2.69.14,5.37.3,8.05.55.82.08.98-.15.98-.9.02-2.44.04-2.39-2.24-2.79-8.21-1.46-16.21-3.6-23.8-7.15-9.84-4.61-17.1-11.91-22.44-21.21-4.74-8.26-7.55-17.21-9.02-26.61-.33-2.11-.47-4.23-.75-6.33-.07-.54-.02-1.06.02-1.59.11-1.82-.21-3.62-.21-5.42.02-4.82-.21-9.65.17-14.47.21-2.62.5-5.23.7-7.84.08-1.1.7-2.23.11-3.36.84-4.36,1.39-8.78,2.74-13.02,1.25-3.9,2.32-7.87,4.04-11.6,1.61-3.49,2.86-7.13,4.81-10.71-1.23.34-2.25.61-3.26.89-1.01.28-2.02.25-2.73-.55-.69-.79-.45-1.69-.06-2.66.9-2.25,1.53-4.6,2.43-6.85,2.56-6.4,6.03-12.29,10.13-17.82,8.62-11.62,20.25-18.69,34.01-22.53,3.85-1.07,7.79-1.8,11.8-2.06.64-.04,1.5-.09,1.51-1.32,0-3.59,2.12-6.42,5.62-7.61.88-.3,1.13-.68,1.07-1.55-.17-2.65.35-5.17,2.28-7.06,1.51-1.49,3.46-2.48,5.66-1.47,3.45,1.58,7.05,3.09,8.9,6.73,1.03,2.03,1.71,4.24,2.07,6.52.2,1.23.37,2.47.52,3.71.05.4.21.53.61.6,1.8.31,3.6.64,5.38,1.02,3.28.69,6.62,1.24,9.68,2.71,1.84.88,3.62,1.87,5.46,2.75,9.95,4.74,18.22,11.58,24.66,20.46,4.17,5.75,6.96,12.28,9.45,18.92,1.74,4.64,3.17,9.38,4.53,14.16.92,3.24,2.21,6.37,3.29,9.56,1.57,4.64,2.83,9.36,3.6,14.19.31,1.94.9,3.83.96,5.81-.36.41-.35.82,0,1.23.03.07.04.14.04.21,0,.53-.06,1.08,0,1.6.41,3.38.73,6.76.72,10.16,0,1.4,0,2.8,0,4.2,0,.38-.16.87.45.99ZM107.66,17.77c.41-.31.5-.7.38-1.2-.43-1.74-.81-3.5-1.26-5.24-.52-2.01-1.49-3.73-3.25-4.95-1.13-.78-2.3-1.44-3.56-1.99-1.06-.46-1.82-.18-2.45.73-1.61,2.32-1.47,4.56.42,6.65.69.77.91,1.64.45,2.63-.43.92-1.13,1.14-2.12,1.12-1.11-.03-2.03-.58-3.04-.88-.52-.15-1.02-.28-1.38.12-.57.63-1.35,1.11-1.59,2.01-.52,1.46-.38,1.72,1.09,1.69,1.07-.02,2.13-.23,3.2-.19,4,.15,7.99.25,11.99.2.51,0,1.15.18,1.13-.7Zm-7.77,4.43c-.14-.08-.27-.22-.41-.23-4.45-.12-8.89-.03-13.3.65-.57.09-1.27-.2-1.74.39-.84.18-1.68.36-2.52.53-5.36,1.04-10.67,2.29-15.72,4.44-3.77,1.6-7.49,3.31-10.94,5.53-9.45,6.09-15.63,14.99-20.87,24.61-1.45,2.65-2.56,5.54-3.49,8.46-.08.26-.3.5-.06.73,1.25-.22,2.39-.68,3.56-1.03,2.71-.8,5.47-1.53,7.96-2.93,3.18-1.78,5-1.04,5.73,2.5.57,2.75,1.07,5.52,1.58,8.28.1.53.16.92.82.52,1.51-.92,3.21-1.45,4.82-2.16,1.41-.62,2.54-1.66,3.92-2.32,3.61-1.73,6.97-3.92,10.58-5.66,2.43-1.17,4.64-2.79,6.96-4.2,1.07-.65,2.31-.51,3.24.36.79.74,1.37,1.63,1.93,2.54,1.61,2.6,3.26,5.19,4.91,7.76.27.42.54,1.04,1.25.63,1.18-.68,2.53-1.05,3.66-1.73,5.41-3.26,10.97-6.24,16.53-9.23,2.01-1.08,3.04-.86,4.51.89,3.28,3.9,6.57,7.79,9.87,11.68.29.34.47.8,1.18.56,3.68-1.27,7.46-2.31,10.92-4.11,3.72-1.94,7.31-4.15,10.96-6.23,2.27-1.3,2.41-1.25,4.35.36.65.54,1.14,1.18,1.67,1.8,1.77,2.08,3.56,4.16,5.28,6.28.48.59.79.64,1.39.18,1.88-1.43,3.79-2.81,5.7-4.19.31-.22.41-.37.26-.79-.67-1.81-1.14-3.71-1.92-5.47-1.7-3.83-3.48-7.63-5.67-11.22-1.12-1.84-2.22-3.69-3.6-5.35-6.5-7.78-14.42-13.75-23.54-18.11-4.56-2.18-9.23-4.08-14.35-4.5-.57-.84-1.28-.5-1.98-.22-.17,0-.34,0-.51,0-.02-.2-.06-.41-.31-.43-.32-.04-.4.17-.43.44h-1c-.58-.39-1.16-.39-1.73,0-.42,0-.83,0-1.25,0-.04-.35-.25-.48-.58-.48-1.02,0-2.04,0-3.06,0-.33,0-.55.13-.58.48-.67,0-1.33,0-2,0-.33-.35-.66-.35-.99,0-.33,0-.67,0-1,0ZM23.82,140.35c.66,6.98,2.25,13.74,4.68,20.31,2.57,6.94,6.37,13.16,11.11,18.82,1.71,2.04,3.83,3.62,5.93,5.21,9.64,7.29,20.95,10.17,32.55,12.13,2.55.43,5.18.76,7.82.89,3.58.18,7.16.43,10.74.58,4.66.2,9.33-.13,14-.3,1.62-.06,3.25-.28,4.9-.23,2.28.06,4.59-.38,6.86-.76,2.25-.37,4.49-.75,6.7-1.37,2.86-.8,5.8-1.36,8.63-2.27,7.37-2.37,14.23-5.69,20-10.94,6.99-6.35,11.29-14.43,14.48-23.17,1.34-3.68,2.09-7.53,2.94-11.34.9-4.07,1.23-8.22,1.79-12.33.3-2.27.05-4.61.05-6.91,0-3.89.27-7.8-.08-11.66-.29-3.13-.68-6.28-1.12-9.42-.93-6.59-2.43-13.03-4.51-19.35-.84-2.54-1.79-5.04-2.71-7.55-.96-2.63-2.05-5.2-3.34-7.7-.39-.76-.69-.71-1.26-.26-.98.76-1.98,1.51-3.02,2.19-1.06.69-2.15,1.38-3.38,1.73-.43.13-.92.32-1.36-.18-.69-.76-1.52-1.4-2.19-2.18-1.93-2.22-3.81-4.48-5.7-6.74-.42-.5-.75-.74-1.44-.33-4.5,2.68-9.14,5.07-13.96,7.15-2.57,1.1-5.19,2.01-7.82,2.91-2.47.85-4.14.1-5.71-1.86-2.85-3.55-5.89-6.96-8.81-10.45-.57-.68-1.03-.7-1.77-.28-3.45,1.97-6.93,3.89-10.42,5.8-2.98,1.63-5.96,3.24-8.98,4.8-1.25.65-2.61.98-3.82-.09-.86-.76-1.72-1.52-2.34-2.53-1.55-2.55-3.2-5.03-4.73-7.59-.44-.73-.7-.85-1.49-.42-6.37,3.5-12.52,7.41-19.18,10.39-2.64,1.18-5.07,2.78-7.83,3.71-.49.17-.92.51-1.49.47-1.35-.08-2.1-.91-2.4-2.7-.5-2.89-1.02-5.77-1.5-8.66-.15-.91-.41-1.34-1.42-.85-.77.37-1.62.55-2.47.75-1.23.3-2.67.62-3.35,1.81-2.13,3.74-4.07,7.58-5.66,11.59-2.16,4.87-3.98,9.85-5.19,15.06-1.78,7.63-3.18,15.32-3.46,23.16-.25,6.99-.22,13.98.7,20.93Z"/>
    <path class="cls-5" d="m2.82,31.17c.34.1.78.21,1.2.37,3.77,1.36,7.53,2.71,11.29,4.09,1.31.48,1.83,1.5,1.39,2.6-.41,1.01-1.56,1.48-2.71,1.03-3.88-1.52-7.83-2.86-11.76-4.22-1.14-.4-1.61-1.18-1.38-2.29.2-1,.92-1.4,1.96-1.58Z"/>
    <path class="cls-5" d="m185.22,39.41c-.88-.25-1.72-.66-1.94-1.62-.19-.88.46-1.53,1.16-1.85,3.88-1.77,7.94-3.09,11.96-4.53.08-.03.16-.05.24-.07,1.28-.36,2.28.14,2.64,1.34.25.81-.41,1.94-1.4,2.3-3.22,1.16-6.46,2.29-9.69,3.44-.97.34-1.9.81-2.97.99Z"/>
    <path class="cls-5" d="m25.14,27.72c-.84-.02-1.48-.51-1.99-1.11-2.3-2.72-5.03-4.98-7.67-7.34-.21-.19-.43-.4-.58-.64-.58-.92-.54-1.84.26-2.59.76-.71,1.7-.78,2.47-.07,1.72,1.59,3.49,3.15,5.01,4.96,1.14,1.36,2.46,2.57,3.77,3.78.62.57.76,1.15.48,1.87-.3.77-.91,1.15-1.76,1.15Z"/>
    <path class="cls-5" d="m185.69,17.46c-.06,1.36-1.12,2.07-2.05,2.78-1.84,1.42-3.42,3.08-4.96,4.81-.71.8-1.48,1.56-2.3,2.26-.83.71-2,.62-2.67-.18-.69-.82-.6-1.68.08-2.47,1.06-1.23,2.41-2.14,3.58-3.24,1.75-1.64,3.39-3.4,5.14-5.04.41-.38.86-1.1,1.66-.62.68.4,1.6.6,1.51,1.7Z"/>
    <path class="cls-5" d="m13.8,50.62c1.53-.11,2.25.34,2.36,1.45.1,1-.81,2.02-2.04,2.09-3.58.21-7.15.52-10.74.42-.43-.48-1-.27-1.5-.26-1.02.02-1.55-.38-1.5-1.44.01-.28-.03-.57-.04-.86,0,0-.01,0-.01,0,.16-.02.25-.11.27-.27,0,0-.01.02-.01.02.09-.09.17-.18.26-.27,0,0,0-.01,0-.01.44-.06.89-.15,1.33-.17,2.3-.1,4.61-.03,6.89-.31,1.58-.19,3.19.04,4.75-.4Z"/>
    <path class="cls-3" d="m20.57,106.31c.59,1.13-.03,2.26-.11,3.36-.2,2.62-.49,5.22-.7,7.84-.38,4.83-.15,9.65-.17,14.47,0,1.8.31,3.61.21,5.42-.5-.94-.36-2-.43-2.99-.61-9.41-.23-18.79,1.21-28.11Z"/>
    <path class="cls-3" d="m199.83,54.18c-.41.58-1.01.65-1.66.61-4.08-.23-8.15-.47-12.23-.69-.86-.05-1.57-.34-1.87-1.17-.3-.82-.28-1.63.52-2.23.04.05.09.09.14.13-.55.84-.75,1.7.11,2.45.55.48,1.27.54,1.99.53,2.97-.01,5.93.25,8.89.45,1.29.09,2.64.32,3.92-.21.06.05.12.1.19.13Z"/>
    <path class="cls-3" d="m184.59,50.7c.41-.43.95-.49,1.48-.46,4.07.23,8.14.47,12.21.72.39.02.84-.02,1.15.34,0,0-.03.03-.03.03-2.89.01-5.77-.33-8.64-.42-2-.07-4.01-.69-6.02-.07-.05-.04-.09-.09-.14-.13Z"/>
    <path class="cls-3" d="m180.95,125.95c-.61-.12-.45-.61-.45-.99-.02-1.4-.01-2.8,0-4.2.01-3.41-.31-6.79-.72-10.16-.06-.53,0-1.07,0-1.6.61,1.26.52,2.64.65,3.97.42,4.32.54,8.65.54,12.99Z"/>
    <path class="cls-3" d="m13.8,50.62c-1.55.45-3.16.21-4.75.4-2.28.28-4.59.21-6.89.31-.45.02-.89.11-1.33.17.1-.34.39-.4.67-.43,2.18-.16,4.35-.25,6.54-.31,1.92-.05,3.83-.42,5.75-.15Z"/>
    <path class="cls-3" d="m.34,52.03c.02.29.06.57.04.86-.05,1.07.49,1.46,1.5,1.44.5,0,1.07-.23,1.5.26-.82.37-1.67.41-2.46.02-.98-.49-1.18-1.51-.59-2.57Z"/>
    <path class="cls-3" d="m199.94,51.78c.59.7.57,1.42.08,2.16-.04-.04-.08-.08-.12-.12,0-.66,0-1.33,0-1.99l.05-.04Z"/>
    <path class="cls-3" d="m179.72,108.78c-.34-.41-.36-.82,0-1.23.08.41.14.82,0,1.23Z"/>
    <path class="cls-3" d="m199.42,51.3c.27.06.43.23.52.48,0,0-.05.04-.05.04-.32,0-.49-.17-.5-.49l.03-.03Z"/>
    <path class="cls-3" d="m200.02,53.93c-.06.08-.13.17-.19.25-.07-.03-.13-.08-.19-.13.08-.08.17-.16.25-.24.04.04.08.08.12.12Z"/>
    <path class="cls-3" d="m.59,51.77c-.02.16-.11.25-.27.27,0-.17.04-.31.27-.27Z"/>
    <path class="cls-3" d="m.84,51.52c-.09.09-.17.18-.26.27-.05-.22.05-.29.26-.27Z"/>
    <path class="cls-4" d="m31.78,81.2c1.58-4.01,3.53-7.85,5.66-11.59.68-1.19,2.12-1.51,3.35-1.81.84-.21,1.7-.38,2.47-.75,1.01-.49,1.27-.06,1.42.85.48,2.89,1,5.77,1.5,8.66.31,1.79,1.05,2.62,2.4,2.7.57.03,1-.31,1.49-.47,2.76-.94,5.2-2.53,7.83-3.71,6.66-2.98,12.81-6.89,19.18-10.39.79-.43,1.05-.31,1.49.42,1.53,2.56,3.18,5.04,4.73,7.59.62,1.01,1.48,1.77,2.34,2.53,1.22,1.07,2.57.74,3.82.09,3.01-1.56,6-3.17,8.98-4.8,3.49-1.91,6.96-3.83,10.42-5.8.75-.43,1.2-.4,1.77.28,2.92,3.5,5.96,6.9,8.81,10.45,1.57,1.96,3.25,2.7,5.71,1.86,2.64-.9,5.25-1.81,7.82-2.91,4.82-2.07,9.46-4.46,13.96-7.15.69-.41,1.02-.17,1.44.33,1.88,2.26,3.77,4.52,5.7,6.74.67.78,1.5,1.41,2.19,2.18.45.5.93.31,1.36.18,1.23-.35,2.31-1.05,3.38-1.73,1.04-.67,2.04-1.42,3.02-2.19.57-.45.87-.5,1.26.26,1.28,2.49,2.37,5.07,3.34,7.7.92,2.51,1.87,5.01,2.71,7.55,2.08,6.31,3.58,12.75,4.51,19.35.44,3.13.83,6.28,1.12,9.42.35,3.86.08,7.77.08,11.66,0,2.31.25,4.65-.05,6.91-.55,4.11-.89,8.26-1.79,12.33-.84,3.82-1.59,7.67-2.94,11.34-3.19,8.74-7.49,16.81-14.48,23.17-5.78,5.25-12.64,8.57-20,10.94-2.84.91-5.77,1.47-8.63,2.27-2.21.62-4.46,1-6.7,1.37-2.27.38-4.58.82-6.86.76-1.65-.05-3.28.17-4.9.23-4.67.17-9.34.5-14,.3-3.58-.15-7.17-.4-10.74-.58-2.64-.13-5.26-.46-7.82-.89-11.6-1.96-22.92-4.84-32.55-12.13-2.1-1.59-4.23-3.18-5.93-5.21-4.74-5.66-8.54-11.87-11.11-18.82-2.43-6.57-4.02-13.33-4.68-20.31.36-.49.28-1.08.16-1.56-.44-1.83-.35-3.72-.39-5.54-.09-5.29-.16-10.58.09-15.88.23-4.88.91-9.67,1.83-14.44,1.35-6.98,3.05-13.85,6.06-20.34.18-.4.48-.88.2-1.39Zm35.28,62.89c.09.09.18.18.27.27v-.02c.68,1.49,1.89,2.62,2.74,4h-.01c0,.98.43,1.9.52,2.89.19,2.18-.43,4.15-1.27,6.09v-.02c-.08.09-.17.18-.25.26h.02c-.36.12-.53.37-.51.75v-.02c-.08.09-.17.18-.26.27l.02-.02c-.09.09-.18.18-.27.27h.02c-.52,0-.81.31-1.01.75h.02c-.8.15-1.47.53-1.99,1.17-1.92,1.01-3.94.93-6.01.65-1.72-.23-3.29-.9-4.92-1.4-1.16-.36-2.12.12-2.55,1.12-.39.92-.01,1.91,1.06,2.47,2.24,1.18,4.71,1.68,7.16,2.15.77.15,1.04.29,1.03,1.09-.04,2.73-.04,5.47,0,8.2.03,2.81,1.51,4.86,3.99,5.62.17.04.34.08.51.12l-.02.12c.37.52.91.29,1.38.29,7,.02,14.01.01,21.01.01,17.45,0,34.9,0,52.35-.02.36,0,.86.31,1.11-.26,0,0,0-.12,0-.12.17-.04.34-.08.51-.12.29.03.54-.04.75-.23.14-.02.26-.05.27-.22h-.02c.44.03.76-.17,1.01-.51,0,0-.02,0-.02,0,.09-.09.17-.18.26-.26v.02c.15-.02.24-.1.25-.26h0c.3-.03.43-.24.51-.5v.02c.2-.11.3-.27.24-.51h0c.19.03.23-.1.26-.25h0c.27-.18.3-.45.26-.75h0c.51-.53.43-1.21.44-1.85,0-2.53.02-5.06-.04-7.58-.02-1.11-.07-2.11,1.5-1.97.05,0,.12-.19.18-.29,2.39.24,4.61-.49,6.8-1.27.46-.16.92-.4,1.31-.69.75-.55.98-1.36.69-2.22-.28-.8-.92-1.35-1.8-1.26-.67.07-1.35.17-2.01.48-2.68,1.25-5.48,1.95-8.46,1.22-5.56-1.37-8.88-6.5-7.02-12.2.98-3.01,3-5.2,5.59-6.92,2.69-1.78,5.66-2.9,8.76-3.71,1.17-.3,1.67-1.04,1.54-2.17-.13-1.22-1.01-1.43-1.97-1.35-1.49.12-2.99.32-4.38.94-.74.33-.92.13-.91-.62.03-1.91.02-3.81,0-5.72-.03-2.52-1.17-4.15-3.48-5.04-.14-.02-.28-.04-.43-.06-.04-.06-.08-.12-.11-.18,0-.07.05-.17.01-.2-.04-.05-.14-.07-.21-.07-4.06,0-8.12,0-12.18,0-21,0-41.99,0-62.99,0-.68,0-1.43-.18-1.94.51-.22-.02-.42.02-.51.25h.02c-.38-.03-.75-.03-.76.5,0,0,.01-.02.01-.02-.09.09-.18.18-.27.26h.01c-1.19.46-1.51,1.56-1.73,2.62-.44,2.17-.48,4.39-.58,6.65-1.29-.17-2.39-.86-3.63-.92-.96-.04-1.85.2-2.27,1.12-.37.81-.68,1.72.25,2.45h-.02c.09.07.18.16.26.25l-.02-.02c.1.23.3.27.51.26h-.02c1.93.93,3.96,1.58,5.99,2.23h-.01c.31.61.87.75,1.5.75h-.01c.41.64,1.07.85,1.76,1h-.02c.09.08.18.16.27.25l-.02-.02c.1.22.29.27.51.27h-.01c.09.08.18.16.27.25l-.02-.02c.09.09.18.18.26.27v-.02c.12.36.37.52.75.51h-.02c.09.08.18.16.27.25l-.02-.02Zm34.22-28.14c1.9.18,3.6-.08,5.31-.42,2.2-.44,4.22-1.2,5.85-2.78,2.27-2.19,2.41-5,.35-7.39-.41-.48-.43-.71,0-1.2,2.32-2.63,1.65-5.2-.22-7.01-2.71-2.63-6.32-3.33-10-3.21-.97.03-1.99.29-2.94.1-.66-.13-1.28-.07-1.8.14-1.52.59-3.1,1-4.65,1.48-3.71,1.15-5.04,5.83-2.41,8.63.5.53.21.67-.11,1.03-2.35,2.59-1.6,6.72,1.51,8.34,2.9,1.52,5.88,2.76,9.12,2.29Zm32.25-24.71c-.12-1.94-.78-3.62-2.47-4.78-.27-.18-.58-.35-.89-.41-2.22-.39-4.28.66-5.38,2.71-1.22,2.26-.67,5.9,1.2,7.64,1.21,1.12,2.65,1.49,4.24.94,1.51-.51,2.45-1.58,2.99-3.07.36-.99.25-1.99.31-3.04Zm-58.09.37c-.15-1.24-.32-2.51-1.04-3.62-1.31-2.02-4.92-2.52-6.63-.91-2.34,2.2-2.42,6.85-.17,9.14,1.72,1.75,4.84,1.43,6.12-.06,1.08-1.25,1.56-2.84,1.72-4.54Z"/>
    <path class="cls-2" d="m115.31,22.42c5.12.42,9.79,2.32,14.35,4.5,9.12,4.36,17.03,10.33,23.54,18.11,1.39,1.66,2.48,3.51,3.6,5.35,2.19,3.59,3.97,7.39,5.67,11.22.78,1.76,1.25,3.66,1.92,5.47.16.42.05.57-.26.79-1.91,1.38-3.83,2.76-5.7,4.19-.6.45-.91.4-1.39-.18-1.72-2.12-3.5-4.2-5.28-6.28-.53-.62-1.03-1.26-1.67-1.8-1.94-1.61-2.08-1.66-4.35-.36-3.65,2.09-7.24,4.29-10.96,6.23-3.46,1.8-7.24,2.84-10.92,4.11-.71.25-.89-.21-1.18-.56-3.3-3.89-6.59-7.77-9.87-11.68-1.47-1.75-2.51-1.96-4.51-.89-5.56,2.99-11.12,5.97-16.53,9.23-1.13.68-2.49,1.05-3.66,1.73-.71.41-.97-.2-1.25-.63-1.65-2.58-3.3-5.16-4.91-7.76-.57-.91-1.15-1.81-1.93-2.54-.93-.87-2.17-1.01-3.24-.36-2.32,1.41-4.53,3.04-6.96,4.2-3.61,1.74-6.97,3.93-10.58,5.66-1.38.66-2.51,1.7-3.92,2.32-1.61.71-3.31,1.23-4.82,2.16-.65.4-.72,0-.82-.52-.51-2.76-1.01-5.53-1.58-8.28-.73-3.54-2.55-4.28-5.73-2.5-2.49,1.39-5.26,2.12-7.96,2.93-1.17.35-2.31.81-3.56,1.03-.24-.23-.03-.47.06-.73.93-2.92,2.04-5.81,3.49-8.46,5.25-9.62,11.42-18.52,20.87-24.61,3.45-2.22,7.17-3.93,10.94-5.53,5.05-2.15,10.36-3.4,15.72-4.44.84-.16,1.68-.35,2.52-.53.06.05.13.14.18.13,5.07-.73,10.16-.93,15.27-.94.33,0,.67,0,1,0,.33,0,.66,0,.99,0,.67,0,1.33,0,2,0,1.41,0,2.82,0,4.22,0,.42,0,.83,0,1.25,0,.58,0,1.16,0,1.73,0,.33,0,.67,0,1,0,.25,0,.49,0,.74,0,.17,0,.34,0,.51,0,.3.02.61.04.91.05.1.01.19.02.29.04.26.04.52.09.78.13Z"/>
    <path class="cls-4" d="m90.26,16.77c.24-.9,1.02-1.38,1.59-2.01.36-.4.87-.28,1.38-.12,1.01.3,1.92.85,3.04.88.99.03,1.68-.2,2.12-1.12.47-.99.24-1.86-.45-2.63-1.89-2.09-2.03-4.34-.42-6.65.63-.91,1.39-1.19,2.45-.73,1.26.55,2.44,1.21,3.56,1.99,1.76,1.22,2.73,2.94,3.25,4.95.45,1.74.83,3.49,1.26,5.24.12.5.03.89-.38,1.2-1.41-.22-2.78.23-4.17.22-3.83-.02-7.67-.05-11.5.03-1.02.02-1.63-.17-1.73-1.25Z"/>
    <path class="cls-6" d="m31.78,81.2c.27.51-.02.99-.2,1.39-3.02,6.49-4.72,13.36-6.06,20.34-.92,4.77-1.6,9.56-1.83,14.44-.25,5.3-.18,10.59-.09,15.88.03,1.82-.05,3.71.39,5.54.12.48.2,1.07-.16,1.56-.92-6.96-.95-13.95-.7-20.93.28-7.84,1.69-15.53,3.46-23.16,1.21-5.2,3.04-10.19,5.19-15.06Z"/>
    <path class="cls-6" d="m90.26,16.77c.1,1.08.71,1.27,1.73,1.25,3.83-.08,7.67-.05,11.5-.03,1.4,0,2.77-.44,4.17-.22.02.88-.62.69-1.13.7-4,.05-7.99-.05-11.99-.2-1.06-.04-2.13.18-3.2.19-1.47.02-1.61-.23-1.09-1.69Z"/>
    <path class="cls-3" d="m99.89,22.21c-5.11,0-10.21.21-15.27.94-.05,0-.12-.09-.18-.13.47-.59,1.17-.3,1.74-.39,4.41-.67,8.85-.77,13.3-.65.14,0,.28.15.41.23Z"/>
    <path class="cls-3" d="m108.1,22.2c-1.41,0-2.82,0-4.22,0,.04-.35.26-.48.58-.48,1.02,0,2.04,0,3.06,0,.33,0,.55.13.58.48Z"/>
    <path class="cls-3" d="m114.24,22.26c-.3-.02-.61-.04-.91-.05.7-.29,1.4-.62,1.98.22-.26-.04-.52-.09-.78-.13-.1-.01-.19-.02-.29-.04Z"/>
    <path class="cls-3" d="m111.08,22.21c-.58,0-1.16,0-1.73,0,.58-.39,1.16-.4,1.73,0Z"/>
    <path class="cls-3" d="m112.82,22.2c-.25,0-.49,0-.74,0,.02-.26.11-.47.43-.44.25.03.29.23.31.43Z"/>
    <path class="cls-3" d="m101.88,22.2c-.33,0-.66,0-.99,0,.33-.35.66-.35.99,0Z"/>
    <path class="cls-5" d="m199.9,53.81c-.08.08-.17.16-.25.24-1.28.53-2.63.3-3.92.21-2.96-.2-5.92-.47-8.89-.45-.72,0-1.44-.06-1.99-.53-.86-.74-.66-1.6-.11-2.45,2.01-.61,4.02,0,6.02.07,2.88.09,5.75.44,8.64.42.01.32.18.49.5.49,0,.66,0,1.33,0,1.99Z"/>
    <path class="cls-5" d="m142.43,180.44c-.22.18-.47.26-.75.23-.42-.42-.94-.23-1.42-.23-24.7-.01-49.41-.01-74.11,0-.44,0-.92-.16-1.31.2-2.48-.76-3.96-2.82-3.99-5.62-.03-2.73-.03-5.47,0-8.2.01-.8-.25-.94-1.03-1.09-2.45-.46-4.92-.97-7.16-2.15-1.07-.56-1.45-1.55-1.06-2.47.42-1.01,1.38-1.48,2.55-1.12,1.63.51,3.2,1.17,4.92,1.4,2.07.28,4.09.35,6.01-.65.76-.22,1.46-.56,1.99-1.18,0,0-.02.01-.02.01.47-.08.76-.39,1.01-.76,0,0-.02.01-.02.01.09-.09.18-.18.27-.27,0,0-.02.02-.02.02.09-.09.18-.18.27-.27,0,0-.01.02-.01.02.28-.18.55-.36.51-.76,0,0-.02,0-.02,0,.2.02.24-.11.26-.26,0,0,0,.02,0,.02,1.95-2.31,2.41-6.24.75-9,0,0,.01.01.01.01-.44-1.66-1.47-2.92-2.75-4,0,0,.01.02.01.02-.09-.09-.18-.18-.27-.27,0,0,.02.02.02.02-.09-.09-.18-.18-.27-.26,0,0,.02.01.02.01-.18-.27-.39-.51-.76-.51,0,0,.01.02.01.02,0-.18-.12-.24-.26-.27,0,0,.02.02.02.02-.09-.09-.18-.17-.27-.26,0,0,.01,0,.01,0-.11-.19-.29-.27-.51-.27,0,0,.02.02.02.02-.09-.09-.18-.18-.27-.26,0,0,.02.01.02.01-.5-.48-1.09-.82-1.76-1.01,0,0,.01,0,.01,0-.41-.44-.92-.67-1.5-.76,0,0,.01.01.01.01-1.86-1.12-3.87-1.83-5.99-2.25,0,0,.02.01.02.01-.11-.2-.29-.27-.51-.26,0,0,.02.02.02.02,0-.17-.09-.26-.26-.26,0,0,.02.01.02.01-.26-.88-.52-1.71.34-2.5.86-.79,1.76-.51,2.66-.32.68.14,1.36.35,1.99.63.88.39,1.21.18,1.18-.78-.04-1.08-.08-2.16.03-3.23.21-2.01.33-4.07,1.75-5.72,0,0-.01,0-.01,0,.09-.09.18-.18.27-.26,0,0-.01.02-.01.02.25-.17.5-.34.76-.51,0,0-.02.01-.02.01.16-.02.31-.04.47-.07.34.35.4,0,.53-.21l.1-.04h.11c.39.48.93.28,1.4.28,24.86.01,49.72.01,74.57,0,.4,0,.84.15,1.17-.22,2.32.89,3.45,2.52,3.48,5.04.02,1.91.04,3.81,0,5.72-.01.76.17.95.91.62,1.39-.62,2.88-.82,4.38-.94.96-.08,1.84.13,1.97,1.35.12,1.13-.38,1.87-1.54,2.17-3.1.81-6.07,1.93-8.76,3.71-2.6,1.71-4.62,3.91-5.59,6.92-1.85,5.7,1.47,10.83,7.02,12.2,2.99.73,5.78.04,8.46-1.22.67-.31,1.34-.4,2.01-.48.88-.1,1.52.46,1.8,1.26.3.85.06,1.66-.69,2.22-.39.29-.85.52-1.31.69-2.2.78-4.41,1.51-6.8,1.27-.23.09-.48.28-.69.25-1.45-.23-1.43.66-1.42,1.7.04,3.26.03,6.51.03,9.77,0,0,0,0,0,0-.33.17-.27.47-.26.76,0,0,0-.01,0-.01-.09.09-.17.17-.26.26,0,0,0-.01,0-.01-.24.1-.27.29-.25.51,0,0,.01-.02.01-.02-.28.07-.44.24-.51.51,0,0,0-.01,0-.01-.09.09-.17.18-.26.26,0,0,.01-.02.01-.02-.09.09-.17.18-.26.26,0,0,.02,0,.02,0-.42,0-.77.14-1.01.5,0,0,.02,0,.02,0-.11.05-.47-.2-.27.22Zm-1.98-51.82c.23-.96-.56-.4-.74-.4-14.54-.03-29.07-.03-43.61-.03-9.65,0-19.3,0-28.95.01-.47,0-1.13-.33-1.34.48.35.68.9,1.18,1.48,1.65,5.33,4.28,10.65,8.57,16,12.82,5.36,4.25,10.7,8.52,15.86,13,1.96,1.7,3.98,1.94,6.34,1.36,1.69-.42,2.96-1.47,4.23-2.53,8.62-7.19,17.23-14.4,25.84-21.6,1.62-1.36,3.25-2.7,4.85-4.08.12-.1.93-.42.04-.67Zm-74.59,48.29s-.05.07-.06.11c0,.03.01.1.02.1.4.03.8.08,1.21.08,11.6,0,23.19,0,34.79,0,12.59,0,25.18,0,37.77-.02.34,0,.85.38,1.06-.26.96-.3,1.32-.92,1.3-1.96-.06-2.65-.1-5.31.03-7.96.07-1.44-.34-2.14-1.73-2.73-6.14-2.6-8.93-9.73-6.92-15.66,1.4-4.12,4.29-7.07,7.74-9.56.34-.25.87-.34.86-.94-.01-1.59,0-3.18,0-4.89-.25.16-.36.21-.45.29-9.95,8.31-19.92,16.61-29.85,24.95-2.35,1.97-4.76,3.24-8.03,3.14-2.69-.08-4.92-.75-6.91-2.42-8.61-7.27-17.41-14.3-26.26-21.28-1.8-1.42-3.6-2.85-5.61-4.45,0,1.16.07,2.06-.02,2.94-.11,1,.3,1.52,1.14,2.04,4.25,2.59,7.6,5.88,8.59,11.07.71,3.76.02,7.25-2.16,10.24-1.61,2.21-3.77,4.07-6.58,4.81-.85.22-1.04.67-1.02,1.49.05,2.98.05,5.97.01,8.95-.01.89.27,1.52,1.08,1.9Z"/>
    <path class="cls-5" d="m101.28,115.95c-3.24.47-6.21-.77-9.12-2.29-3.1-1.62-3.85-5.76-1.51-8.34.32-.36.61-.5.11-1.03-2.63-2.8-1.3-7.47,2.41-8.63,1.55-.48,3.13-.89,4.65-1.48.52-.2,1.14-.26,1.8-.14.95.18,1.97-.07,2.94-.1,3.69-.11,7.3.58,10,3.21,1.87,1.81,2.54,4.38.22,7.01-.43.49-.41.73,0,1.2,2.07,2.39,1.93,5.2-.35,7.39-1.64,1.58-3.65,2.34-5.85,2.78-1.71.34-3.41.59-5.31.42Zm.25-12.18c2.49.33,4.77-.56,7.06-1.37.8-.28,1.72-.64,1.75-1.71.03-1.11-.9-1.5-1.69-1.93-.36-.2-.77-.3-1.16-.43-2.77-.9-5.63-.98-8.48-.67-1.8.2-3.62.58-5.09,1.8-1.3,1.08-1.17,2,.35,2.69,2.3,1.04,4.64,1.92,7.26,1.62Zm.17,8.47c1.94.12,3.85-.09,5.72-.73.91-.31,1.77-.73,2.43-1.44.59-.63.86-1.37.09-2.06-.76-.67-1.73-1.15-2.7-1.1-3.56.18-7.12.62-10.69.12-.32-.04-.67,0-.98.1-1.02.3-2.36.46-2.52,1.68-.17,1.23,1.06,1.77,2.01,2.25,2.08,1.05,4.32,1.32,6.65,1.18Z"/>
    <path class="cls-5" d="m133.53,91.24c-.05,1.04.05,2.04-.31,3.04-.54,1.49-1.48,2.56-2.99,3.07-1.6.54-3.03.18-4.24-.94-1.88-1.73-2.42-5.38-1.2-7.64,1.11-2.06,3.16-3.11,5.38-2.71.31.06.63.23.89.41,1.69,1.16,2.35,2.84,2.47,4.78Z"/>
    <path class="cls-5" d="m75.44,91.61c-.16,1.7-.64,3.29-1.72,4.54-1.29,1.49-4.4,1.81-6.12.06-2.24-2.29-2.17-6.94.17-9.14,1.71-1.61,5.32-1.11,6.63.91.72,1.11.89,2.38,1.04,3.62Z"/>
    <path class="cls-6" d="m141.17,180.9c-.25.57-.75.26-1.11.26-17.45.02-34.9.02-52.35.02-7,0-14.01,0-21.01-.01-.46,0-1.01.23-1.38-.29.09.01.16-.02.21-.08,10.89,0,21.79,0,32.68,0,14.17,0,28.33,0,42.5.01l.46.09Z"/>
    <path class="cls-6" d="m65.03,124.92h-.11s-.1.04-.1.04c-.15.02-.3.04-.45.05,0,0-.03-.03-.03-.03.51-.69,1.26-.51,1.94-.51,21,0,41.99,0,62.99,0,4.06,0,8.12,0,12.18,0,.07,0,.17.02.21.07.03.04,0,.13-.01.2-.37,0-.74-.02-1.12-.02-24.63,0-49.26,0-73.9,0-.4,0-.83-.11-1.2.18-.13,0-.26.02-.4.03Z"/>
    <path class="cls-3" d="m65.03,124.92c.13,0,.26-.02.4-.03.54.02,1.08.06,1.61.06,24.45,0,48.89,0,73.34,0,.46,0,.91-.02,1.37-.04.14.02.28.04.43.06-.33.37-.77.22-1.17.22-24.86,0-49.72,0-74.57,0-.47,0-1.01.2-1.4-.27Z"/>
    <path class="cls-3" d="m140.72,180.81c-14.17,0-28.33,0-42.5-.01-10.89,0-21.79,0-32.68,0-.06-.05-.12-.06-.19-.04-.17-.04-.34-.08-.51-.12.39-.36.87-.2,1.31-.2,24.7,0,49.41,0,74.11,0,.47,0,1-.19,1.42.23-.17.04-.34.08-.51.12-.15,0-.3.02-.45.03Z"/>
    <path class="cls-5" d="m141.75,124.92c-.46.01-.91.04-1.37.04-24.45,0-48.89,0-73.34,0-.54,0-1.08-.04-1.61-.06.36-.29.79-.18,1.2-.18,24.63,0,49.26,0,73.9,0,.37,0,.74.02,1.12.02.03.07.06.13.11.18Z"/>
    <path class="cls-6" d="m62.84,125.96c-1.42,1.65-1.55,3.71-1.75,5.72-.11,1.07-.06,2.15-.03,3.23.03.97-.31,1.17-1.18.78-.63-.28-1.31-.49-1.99-.63-.9-.19-1.8-.46-2.66.32-.86.79-.61,1.62-.34,2.5-.93-.72-.62-1.64-.25-2.45.42-.92,1.32-1.16,2.27-1.12,1.25.06,2.34.75,3.63.92.1-2.25.13-4.48.58-6.65.22-1.06.54-2.16,1.73-2.63Z"/>
    <path class="cls-3" d="m145.43,177.21c0-3.26.01-6.51-.03-9.77-.01-1.04-.03-1.92,1.42-1.7.21.03.46-.16.69-.25-.06.1-.13.3-.18.29-1.57-.14-1.52.86-1.5,1.97.06,2.53.05,5.06.04,7.58,0,.64.07,1.33-.44,1.86Z"/>
    <path class="cls-6" d="m70.05,148.32c1.66,2.76,1.2,6.69-.75,9,.83-1.94,1.46-3.91,1.27-6.09-.09-1-.51-1.91-.52-2.9Z"/>
    <path class="cls-6" d="m55.61,138.37c2.12.42,4.14,1.12,5.99,2.25-2.03-.65-4.07-1.31-5.99-2.25Z"/>
    <path class="cls-6" d="m67.31,144.34c1.28,1.08,2.31,2.34,2.75,4-.85-1.38-2.06-2.51-2.75-4Z"/>
    <path class="cls-6" d="m67.08,159.55c-.53.62-1.23.95-1.99,1.18.52-.64,1.2-1.01,1.99-1.18Z"/>
    <path class="cls-6" d="m61.59,140.6c.58.09,1.1.33,1.5.76-.63,0-1.19-.14-1.5-.76Z"/>
    <path class="cls-6" d="m63.08,141.35c.67.19,1.26.53,1.76,1.01-.69-.15-1.35-.36-1.76-1.01Z"/>
    <path class="cls-6" d="m68.07,158.8c-.25.37-.54.68-1.01.76.2-.43.49-.75,1.01-.76Z"/>
    <path class="cls-3" d="m142.69,180.21c.24-.37.59-.5,1.01-.5-.25.34-.57.54-1.01.5Z"/>
    <path class="cls-6" d="m63.84,125.22c-.25.17-.5.34-.76.51,0-.53.38-.53.76-.51Z"/>
    <path class="cls-6" d="m66.07,143.34c.37,0,.57.24.76.51-.37,0-.63-.16-.76-.51Z"/>
    <path class="cls-6" d="m69.07,157.56c.04.39-.24.58-.51.76-.01-.38.16-.63.51-.76Z"/>
    <path class="cls-3" d="m144.18,179.21c.07-.27.24-.44.51-.51-.08.26-.22.47-.51.51Z"/>
    <path class="cls-3" d="m145.18,177.97c-.01-.29-.07-.59.26-.76.04.3,0,.57-.26.76Z"/>
    <path class="cls-6" d="m55.12,138.12c.22-.01.4.06.51.26-.22,0-.42-.03-.51-.26Z"/>
    <path class="cls-6" d="m64.29,125.17c-.16.02-.31.04-.47.07.1-.24.29-.27.51-.25,0,0,.03.03.03.03,0,.06-.04.11-.08.15Z"/>
    <path class="cls-6" d="m65.07,142.6c.22,0,.39.08.51.27-.22,0-.41-.05-.51-.27Z"/>
    <path class="cls-3" d="m144.69,178.72c-.01-.22.02-.42.25-.51.06.24-.05.4-.25.51Z"/>
    <path class="cls-3" d="m142.43,180.44c-.2-.42.16-.18.27-.22-.01.17-.14.2-.27.22Z"/>
    <path class="cls-1" d="m140.72,180.81c.15,0,.3-.02.45-.03,0,0,0,.12,0,.12-.15-.03-.31-.06-.46-.09Z"/>
    <path class="cls-6" d="m54.87,137.87c.17,0,.26.09.26.26-.09-.09-.18-.18-.26-.26Z"/>
    <path class="cls-6" d="m69.31,157.31c-.02.16-.06.29-.26.26.09-.09.17-.18.26-.26Z"/>
    <path class="cls-6" d="m68.32,158.55c-.09.09-.18.18-.27.27.09-.09.18-.18.27-.27Z"/>
    <path class="cls-6" d="m64.82,142.35c.09.09.18.18.27.26-.09-.09-.18-.18-.27-.26Z"/>
    <path class="cls-6" d="m65.56,142.85c.09.09.18.17.27.26-.09-.09-.18-.17-.27-.26Z"/>
    <path class="cls-6" d="m65.82,143.09c.15.03.27.09.26.27-.09-.09-.18-.18-.26-.27Z"/>
    <path class="cls-3" d="m144.93,178.21c.09-.09.17-.17.26-.26-.03.15-.07.28-.26.26Z"/>
    <path class="cls-6" d="m63.1,125.71c-.09.09-.18.18-.27.26.09-.09.18-.18.27-.26Z"/>
    <path class="cls-3" d="m143.93,179.46c.09-.09.17-.18.26-.26,0,.17-.1.25-.26.26Z"/>
    <path class="cls-3" d="m143.68,179.71c.09-.09.17-.18.26-.26-.09.09-.17.18-.26.26Z"/>
    <path class="cls-6" d="m66.81,143.84c.09.09.18.18.27.26-.09-.09-.18-.18-.27-.26Z"/>
    <path class="cls-1" d="m65.35,180.76c.07-.03.14-.01.19.04-.06.06-.13.09-.21.08,0,0,.02-.12.02-.12Z"/>
    <path class="cls-6" d="m67.06,144.09c.09.09.18.18.27.27-.09-.09-.18-.18-.27-.27Z"/>
    <path class="cls-6" d="m68.57,158.3c-.09.09-.18.18-.27.27.09-.09.18-.18.27-.27Z"/>
    <path class="cls-5" d="m114.24,22.26c.1.01.19.02.29.04-.1-.01-.19-.02-.29-.04Z"/>
    <path class="cls-2" d="m65.86,176.92c-.81-.38-1.09-1.01-1.08-1.9.04-2.98.04-5.97-.01-8.95-.01-.82.18-1.26,1.02-1.49,2.81-.74,4.97-2.6,6.58-4.81,2.18-2.99,2.87-6.48,2.16-10.24-.98-5.19-4.33-8.48-8.59-11.07-.84-.51-1.25-1.04-1.14-2.04.09-.88.02-1.79.02-2.94,2.01,1.59,3.81,3.02,5.61,4.45,8.85,6.98,17.65,14.01,26.26,21.28,1.99,1.68,4.23,2.34,6.91,2.42,3.27.1,5.68-1.17,8.03-3.14,9.93-8.34,19.89-16.64,29.85-24.95.09-.07.19-.13.45-.29,0,1.71,0,3.3,0,4.89,0,.61-.52.69-.86.94-3.45,2.49-6.34,5.44-7.74,9.56-2.01,5.93.78,13.06,6.92,15.66,1.38.59,1.8,1.28,1.73,2.73-.13,2.65-.09,5.3-.03,7.96.02,1.03-.34,1.66-1.3,1.96-24.93,0-49.86,0-74.79,0Z"/>
    <path class="cls-2" d="m140.45,128.62c.9.26.09.57-.04.67-1.6,1.38-3.23,2.72-4.85,4.08-8.61,7.2-17.22,14.41-25.84,21.6-1.27,1.06-2.54,2.12-4.23,2.53-2.36.58-4.38.33-6.34-1.36-5.16-4.48-10.5-8.75-15.86-13-5.36-4.25-10.68-8.54-16-12.82-.58-.46-1.14-.97-1.48-1.65.16-.01.33-.03.49-.03,14.61,0,29.23.02,43.84.02,10.1,0,20.2-.03,30.3-.05Z"/>
    <path class="cls-3" d="m140.45,128.62c-10.1.02-20.2.05-30.3.05-14.61,0-29.23-.01-43.84-.02-.16,0-.33.02-.49.03.21-.81.88-.48,1.34-.48,9.65-.02,19.3-.01,28.95-.01,14.54,0,29.07,0,43.61.03.18,0,.97-.56.74.4Z"/>
    <path class="cls-3" d="m65.86,176.92c24.93,0,49.86,0,74.79,0-.2.64-.72.26-1.06.26-12.59.02-25.18.02-37.77.02-11.6,0-23.19,0-34.79,0-.4,0-.8-.05-1.21-.08-.01,0-.03-.07-.02-.1,0-.04.04-.07.06-.11Z"/>
    <path class="cls-3" d="m64.29,125.17s.07-.09.08-.15c.15-.02.3-.04.45-.05-.13.2-.19.56-.53.21Z"/>
    <path class="cls-1" d="m101.53,103.78c-2.62.3-4.96-.58-7.26-1.62-1.52-.69-1.65-1.61-.35-2.69,1.46-1.22,3.29-1.6,5.09-1.8,2.85-.32,5.71-.23,8.48.67.39.13.8.23,1.16.43.79.44,1.73.83,1.69,1.93-.03,1.06-.95,1.43-1.75,1.71-2.29.8-4.57,1.7-7.06,1.37Z"/>
    <path class="cls-1" d="m101.7,112.25c-2.33.14-4.57-.13-6.65-1.18-.95-.48-2.17-1.02-2.01-2.25.17-1.22,1.5-1.38,2.52-1.68.31-.09.66-.14.98-.1,3.57.51,7.13.06,10.69-.12.97-.05,1.94.43,2.7,1.1.77.69.5,1.43-.09,2.06-.66.71-1.52,1.12-2.43,1.44-1.86.64-3.78.85-5.72.73Z"/>
  </g>
</svg>