<?xml version="1.0" encoding="UTF-8"?>
<svg id="_图层_2" data-name="图层 2" xmlns="http://www.w3.org/2000/svg" viewBox="0 0 198.55 123.23">
  <defs>
    <style>
      .cls-1 {
        fill: #e8b875;
      }

      .cls-1, .cls-2, .cls-3, .cls-4, .cls-5, .cls-6 {
        stroke-width: 0px;
      }

      .cls-2 {
        fill: #fbe6b5;
      }

      .cls-3 {
        fill: #916446;
      }

      .cls-4 {
        fill: #fffdf8;
      }

      .cls-5 {
        fill: #e3ccab;
      }

      .cls-6 {
        fill: #ac907d;
      }
    </style>
  </defs>
  <g id="_图层_1-2" data-name="图层 1">
    <g>
      <path class="cls-6" d="m172.82,118.96c-.04.87.01,1.76-.15,2.6-.07.38-.67,1.02-.85.96-.46-.15-1.07-.55-1.17-.97-.18-.75-.03-1.57-.02-2.36-.04-1.05-.08-2.1-.13-3.15-.76-3.22-1.52-6.43-2.28-9.65-.03-.14-.05-.29-.1-.44-.65-2.03-.78-2.06-2.28-.63-1.12,1.07-2.21,2.2-4.02,1.61-.22-.07-.63.27-.87.5-2.14,2.07-4.19,4.24-6.41,6.21-2.15,1.92-3.94,1.81-6.04-.19-1.51-1.43-2.98-2.91-4.38-4.45-.88-.97-1.35-.93-2.28.08-2.2,2.4-4.49,4.76-6.98,6.86-2.42,2.04-3.34,1.6-5.16-1.01-2.23-3.19-4.71-6.22-7.09-9.3-.88-1.14-1.75-1.25-2.97-.25-4.87,3.98-9.82,7.88-14.76,11.78-2.25,1.78-3.88,1.47-5.62-.81-2.01-2.64-4.15-5.18-6.21-7.77-.55-.7-.94-.69-1.63-.07-2.62,2.34-5.27,4.67-8.03,6.85-1.86,1.48-3.91,1.58-5.06.5-1.04-.98-1.99-2.06-3.03-3.05-2.5-2.4-5.01-4.79-7.58-7.12-.27-.24-1.05-.29-1.33-.09-4.17,3.1-8.34,6.21-12.43,9.42-1.78,1.39-3.07.98-3.7-1.37-.8-3-1.53-6.01-2.43-8.98-.7-2.32-.87-2.37-2.48-.65-2.77,2.96-5.43,6.01-8.14,9.02-1.04,1.15-2.16.51-2.79-.28-1.04-1.29-1.74-2.84-2.59-4.28-.17-.29-.36-.57-.54-.85-.21.3-.56.58-.61.91-.36,2.11-.78,4.22-.94,6.35-.18,2.4-.05,4.83-.2,7.23-.03.42-.78,1.06-1.24,1.09-.36.03-1.11-.74-1.1-1.13.08-3.07.2-6.14.53-9.19.22-2.08.81-4.13,1.17-6.2.05-.31-.2-.85-.47-1.01-2.3-1.35-4.01-3.05-4.16-5.92-.02-.31-.62-.66-1.02-.87-5.09-2.74-5.69-10.37-1.13-13.96.31-.24.49-.97.39-1.38-.89-3.54-1.49-7.06-.36-10.68.98-3.13,2.67-5.63,6.07-6.28,3.28-.63,6.06.76,8.01,3.25,1.73,2.22,2.95,4.84,4.06,6.71,2.21-4.59,4.7-9.86,7.28-15.09.72-1.46,1.69-2.8,2.53-4.2.14-.23.17-.52.25-.78-.28.04-.56.05-.83.12-2.21.54-4.4,1.14-6.63,1.6-.53.11-1.4-.1-1.68-.48-.29-.39-.27-1.31,0-1.77,6.85-11.38,14.76-21.77,26.87-28.13,6.9-3.62,14.32-5.43,22.07-5.94,1.08-.07,1.58-.26,1.72-1.53.38-3.47,1.29-4.33,4.72-5.22.22-.06.43-.54.48-.85.1-.63.01-1.29.13-1.92.76-4.03,3.75-5.61,7.5-4,5.32,2.29,7.51,6.23,6.83,12.14-.02.2.5.64.79.66,2.47.13,4.97.02,7.42.33,1.56.2,3.16.8,4.56,1.57,6.14,3.38,11.69,7.46,16.65,12.56,6.72,6.92,10.61,15.31,14.15,23.99.79,1.95,1.5,3.93,2.28,6,.5-1.03.97-1.94,1.39-2.87,1.52-3.4,5.59-3.01,7.55-1.32,2.67,2.31,3.3,5.45,3.62,8.68.18,1.82,0,3.67.13,5.5.04.48.56,1.2,1,1.33,2.57.76,3.86,2.18,4.01,4.87.16,2.82.21,5.65.34,8.47.11,2.25-1,3.9-2.61,5.26-1.58,1.34-3.18,2.62-2.3,5.06-1.89,3.9,1.16,7.17,1.42,10.8.16,2.22.57,4.41.87,6.62.01.32.03.63.04.95ZM109.3,20.55c.05-1.03.11-2.06.16-3.1-.06.03-.13.04-.18.09-.03.03-.04.09-.05.13-.86-1.73-1.42-3.72-2.65-5.12-1.33-1.51-3.51-2.95-5.49-1.93-2.26,1.17-1.65,3.73-1.37,5.91.08.66-.1,1.36-.17,2.05-.67-.13-1.34-.29-2.02-.37-.77-.09-2.01-.41-2.22-.09-.55.85-.67,1.99-.9,3.02-.02.08.43.38.66.37.87-.04,1.74-.17,2.61-.26,2.71-.02,5.41-.02,8.12-.07,1.15-.02,2.29-.16,3.44-.24.02-.13.04-.26.07-.38Zm7.89,3.13c-1.34-.01-2.67-.03-4.01-.04-.13,0-.25,0-.38-.01l-7.11-.06c-.13,0-.25,0-.38,0-1.07,0-2.13,0-3.2,0-.13,0-.26,0-.38-.01-.77,0-1.54.02-2.31.02-3.25.31-6.49.68-9.75.91-10.36.75-19.67,4.16-27.91,10.56-7.18,5.58-12.36,12.8-17.51,20.61,3.1-1.02,5.89-1.97,8.7-2.85,1.25-.39,2.53-.73,3.82-.9,1.09-.14,1.68.41,1.73,1.65.09,2.21.29,4.43.57,6.63.16,1.27.84,1.81,2.16,1.06,1.59-.91,3.2-1.8,4.86-2.55,2.04-.93,4.11-2.2,6.25-2.39,1.78-.16,3.36-.34,4.87-1.28,2.06-1.27,4.12-2.57,6.26-3.7,1.24-.66,2.38-.48,3.3.92,1.82,2.77,3.83,5.42,5.75,8.14.75,1.07,1.58,1.34,2.77.61,4.8-2.97,9.63-5.89,14.43-8.86,1.07-.66,2.19-1.37,3.2-.22,2.15,2.44,4.3,4.92,6.16,7.58.83,1.2,1.49,1.56,2.84,1.23,5.72-1.39,10.93-3.74,15.3-7.79,1.77-1.64,2.46-1.46,3.98.44,2.16,2.69,4.37,5.35,6.62,7.97.22.26,1.14.34,1.33.13,1.66-1.84,2.5-3.47,1.36-6.16-2.69-6.34-6.11-12.1-10.98-17.13-6.39-6.6-13.04-12.53-22.34-14.52ZM37.69,101c0,1.33,0,2.67,0,4,.02.45,0,.9.07,1.34.08.47.26.93.4,1.39.33-.27.68-.52,1-.8,2.21-1.99,4.37-4.03,6.64-5.96,1.58-1.34,2.61-1.09,3.23.83,1.09,3.39,2.07,6.81,2.99,10.24.32,1.2.61,1.18,1.52.49,4.03-3.05,8.11-6.04,12.16-9.05,1.06-.79,2.03-.83,3.03.18.9.91,1.97,1.67,2.88,2.58,2.17,2.17,4.33,4.34,6.42,6.59,1.85,1.99,2.53,2.2,4.6.53,2.77-2.25,5.42-4.64,8.11-6.99,1.11-.98,2.03-1.2,3.11.14,2.29,2.85,4.75,5.55,7.02,8.4,1.03,1.3,1.79,1.44,3.12.36,5.04-4.09,10.19-8.04,15.26-12.09,1.5-1.2,2.65-1.19,4.14.14,3.41,3.05,6.07,6.66,8.33,10.59.53.92,1.05,1.16,1.81.39,2.7-2.79,5.43-5.55,8.03-8.44.92-1.02,1.57-1.18,2.51-.19,1.86,1.98,3.74,3.94,5.64,5.89,1.49,1.52,2.44,1.5,4.03-.02,1.54-1.47,3.12-2.91,4.57-4.47.78-.84,1.83-1.89,1.86-2.87.1-3.8.09-7.64-.34-11.41-.65-5.65-1.51-11.29-2.62-16.86-1.05-5.24-2.54-10.4-3.95-16.01-.98,1.27-1.49,2.05-2.12,2.73-1.79,1.97-3.14,2-4.95.02-1.89-2.07-3.74-4.17-5.51-6.34-1.7-2.08-1.67-2.15-3.73-.36-2.79,2.42-5.7,4.52-9.48,5.19-1.63.29-3.22.97-4.74,1.66-2.07.94-3.72.34-5.04-1.48-1.7-2.36-3.66-4.54-5.61-6.71-.27-.3-1.25-.32-1.66-.07-4.56,2.68-9.02,5.52-13.6,8.16-3.19,1.84-4.27,1.53-6.48-1.43-1.75-2.34-3.37-4.78-5.15-7.1-.26-.34-1.21-.52-1.6-.31-1.87,1.01-3.65,2.2-5.48,3.28-1.67.99-3.33,1.8-5.46,1.37-.93-.19-2.11.33-3.05.78-2.63,1.28-5.13,2.81-7.79,4.01-2.24,1-3.82.27-4.52-2.07-.48-1.63-.48-3.4-.72-5.1-.05-.39-.2-.76-.31-1.14-.39.15-.9.18-1.16.45-1.12,1.17-2.32,2.32-3.23,3.65-4.62,6.76-7.87,14.19-10.2,22.01-1.94,6.49-3.58,13.06-3.94,19.87Zm-7.6-32.45c-3-.03-4.79,1.54-5.73,4.37-1.23,3.73-.66,7.35.71,10.89.43,1.12.33,1.76-.79,2.42-.89.53-1.8,1.35-2.25,2.26-2.1,4.28-.57,7.54,3.94,8.98.48.15,1.15,1.29,1.05,1.41-1.27,1.54-.39,2.84.7,3.59,2.21,1.53,4.64,2.75,7.01,4.05.11.06.69-.33.68-.48-.44-6.67,1.02-13.11,2.49-19.52,1.01-4.44.62-8.67-1.42-12.67-1.44-2.82-3.51-5.06-6.41-5.29Zm128.89,2.66c0,.6-.14,1.47.02,2.28,1.87,9.38,3.3,18.81,3.58,28.39.03.89.48,1.77.73,2.66.62-.67,1.22-1.36,1.86-2.01.96-.98.66-3.12,2.79-3.04.06,0,.24-.34.2-.46-.8-2.21,1.1-3,2.17-4.27.98-1.17,2.35-2.38,2.59-3.73.41-2.39.13-4.91.06-7.38-.11-3.73-.22-3.88-3.8-4.88-1.22-.34-1.67-.93-1.61-2.21.1-2.46.2-4.95-.01-7.4-.22-2.53-.8-5.04-3.23-6.55-1.34-.84-2.46-.78-3.39.71-1.46,2.36-2.04,4.92-1.96,7.9Zm-124.37,37.48c-.07.04-.14.07-.2.11.43.66.86,1.31,1.29,1.97.07-.1.23-.26.21-.3-.42-.6-.86-1.19-1.3-1.78Z"/>
      <path class="cls-1" d="m44.24,7.95c-.35,1.31-.84,3.68-1.63,5.95-.39,1.13-.13,1.47.79,2.04,1.68,1.03,3.35,2.14,4.79,3.48,2.17,2.02,1.87,4.26-.74,5.68-1.5.82-3.18,1.33-4.82,1.85-1.61.51-2.1,2.1-.96,3.46,1.49,1.78,1.49,2.53.13,4.42-.25.34-.41.78-.48,1.2-.27,1.54-1.01,2.97-2.54,3.12-1.21.12-2.79-.34-3.71-1.13-1.87-1.59-3.48-3.52-5.05-5.43-.68-.83-.88-.73-1.58-.03-1.81,1.81-3.62,3.69-5.7,5.15-2.55,1.79-5.03.43-4.88-2.65.11-2.28.82-4.53,1.27-6.79.06-.32.14-.64.21-.95-.38.02-.79-.05-1.12.08-3.08,1.21-3.12,1.19-4.63-1.99-.13-.27-.47-.53-.77-.61-2.02-.57-3.76-1.97-3.39-3.9.29-1.51,1.9-3.14,3.36-3.97,2.15-1.22,4.66-1.84,7.06-2.59.93-.29,1.09-.51.96-1.57-.37-2.86-.76-5.79-.51-8.64.25-2.79,2.66-3.69,4.9-1.96,2.17,1.69,4.12,3.69,6.02,5.69.74.78.96.95,1.9.19,1.99-1.61,4.08-3.16,6.32-4.37,2.63-1.42,4.84.17,4.83,4.29Zm-18.71,18.03s.05.05.08.08l-.09-.06c-.14-.36-.24-.75-.44-1.08-.21-.34-.53-.61-.81-.92-.3.44-.6.89-.89,1.33.33.2.63.47.99.58.36.11.77.05,1.16.07Zm3.76.6c.74-.39,1.4-.56,1.78-.98,1.38-1.48,2.71-3.02,3.98-4.61.27-.33.45-1.03.28-1.38-.98-2.11-2.07-4.17-3.11-6.25-.39-.77-.79-.88-1.44-.24-1.58,1.57-3.32,2.78-5.75,2.5-1.02-.12-1.14.47-.76,1.32,1.23,2.8,2.4,5.64,3.68,8.42.21.46.82.75,1.34,1.2Zm-5.93-5.56c-.52-1.42-1.03-2.86-1.6-4.28-.07-.17-.56-.33-.77-.25-2.89,1.1-5.78,2.19-8.62,3.42-.97.42-.82,1.29-.09,1.92.52.45,1.2,1.13,1.72,1.06,2.2-.31,4.1-.14,5.49,1.86.17.24,1.08.33,1.21.16.95-1.24,1.78-2.57,2.66-3.88Zm-1.36-14.29c.36,2.11.61,3.97,1.03,5.78.09.4.82.88,1.29.92,2.19.19,3.86-.94,5.3-2.42.25-.26.33-1.1.12-1.34-1.32-1.52-2.7-3.01-4.17-4.4-.76-.72-1.74-1.23-2.61-1.84-.33,1.15-.67,2.3-.96,3.3Zm20.25.67c-.26-2.12-.66-2.45-2.38-1.36-1.9,1.21-3.66,2.65-5.42,4.07-.37.29-.77,1.14-.62,1.37.45.66,1.09,1.33,1.8,1.64,1.06.45,2.25.64,3.4.83.38.06,1.08-.16,1.18-.42.74-2.02,1.37-4.08,2.04-6.12Zm-4.07,20.45c-2.11.2-3.87.21-5.54.61-.62.15-1.55,1.65-1.44,1.79,1.89,2.28,3.9,4.47,5.98,6.58.2.2,1.12-.17,1.59-.46.16-.1.11-.94-.11-1.16-2.03-1.95-2.03-2.89-.11-5.07.32-.37.28-1.17.2-1.74-.04-.29-.53-.52-.56-.55Zm9.2-5.58c-.24-.37-.33-.64-.51-.77-1.8-1.36-3.61-2.7-5.45-4.01-.14-.1-.61,0-.74.16-.74.92-2.03,1.92-1.99,2.84.06,1.5.99,2.97,1.58,4.45.02.06.37.04.54-.01,1.91-.65,3.83-1.3,5.72-1.99.31-.11.55-.42.84-.66Zm-27.4,12.13c.15.4.37,1.02.59,1.64.57-.25,1.24-.39,1.69-.78,1.77-1.56,3.48-3.2,5.2-4.82.9-.85.48-1.58-.42-1.94-4.1-1.63-5.73-.74-6.7,3.57-.15.67-.22,1.36-.37,2.33Zm15.01-8.24c.93-.41,1.8-.79,2.67-1.17-.36-.69-.73-1.38-1.09-2.07-.79.87-1.57,1.73-2.36,2.6.22.18.43.36.78.64Zm2.31-7.8c.51-.7.87-1.21,1.23-1.71-.54-.3-1.06-.64-1.62-.88-.16-.07-.43.14-.65.23.31.71.63,1.41,1.04,2.36Z"/>
      <path class="cls-1" d="m189.36,48.26c.33,4.88-3.75,8.2-7.79,9.42-3.86,1.17-8.55-.54-10.62-3.79-1.86-2.92-1.64-6.32.56-8.49,2.2-2.17,6.1-2.52,8.82-.78,2.68,1.71,3.46,3.23,2.74,5.42-.52,1.58-1.68,2.5-3.29,2.59-1.71.1-3.33-.39-4.16-2.02-.25-.48.03-1.45.4-1.93.18-.23,1.15.14,1.76.27.11.02.18.3.29.32.75.11,1.51.18,2.27.26-.11-.66,0-1.46-.36-1.94-1.28-1.75-5.41-2.37-6.76-1.13-1.97,1.82-1.93,4.82.08,6.93,2.27,2.37,5.89,2.88,8.91,1.24,2.99-1.62,4.94-5.23,4.17-8.2-.77-2.99-3.45-4.07-5.94-5.17-1.49-.66-3.14-.96-4.61-1.65-.61-.28-.94-1.16-1.39-1.76.73-.2,1.59-.74,2.18-.53,2.92,1.06,5.85,2.15,8.61,3.56,2.76,1.4,4.2,3.84,4.14,7.4Z"/>
      <path class="cls-1" d="m189.2,86.99c.42-3.2-1.11-5.37-3.9-6.44-.46-.18-.94-.33-1.35-.58-.31-.19-.78-.59-.73-.8.08-.36.44-.85.78-.94,3.87-1.06,5.42-3.79,5.74-7.57.04-.52.85-.98,1.3-1.47.33.57.91,1.12.94,1.7.21,4.06,1.74,6.29,5.39,7.68.44.17.79.55,1.18.84-.47.36-.89.94-1.41,1.04-1.96.4-3.35,1.52-4.2,3.23-.48.95-.55,2.09-.94,3.09-.31.78-.83,1.47-1.26,2.21-.51-.66-1.02-1.32-1.53-1.98Z"/>
      <path class="cls-1" d="m79.82,17.45c-.79-1-1.46-1.46-1.51-1.98-.3-3.4-2.41-5.12-5.35-6.24-.55-.21-.94-.8-1.41-1.22.55-.42,1.08-1.13,1.67-1.2,3.02-.34,4.76-1.92,5.3-4.89.07-.39.12-.83.35-1.12.28-.35.73-.79,1.1-.78.29,0,.69.58.84.97.23.59.27,1.25.4,1.88.62,2.86,2.06,4.05,4.98,4.44.64.08,1.2.8,1.8,1.22-.54.37-1.05.97-1.64,1.06-3.18.54-4.75,2.2-5.23,5.54-.09.66-.68,1.24-1.31,2.33Z"/>
      <path class="cls-1" d="m23.4,55.23c-.11,4.07-3.59,6.42-7.34,5.1-1.58-.56-3.65.52-4.73,2.27-.33.53-1.1.77-1.67,1.15-.08-.76-.51-1.85-.16-2.23.99-1.07,2.22-2,3.51-2.7.65-.35,1-.33.53-1.11-1.09-1.81-1.07-3.55.44-5.17,1.9-2.04,3.54-2.38,5.99-1.68,1.35.38,2.89.48,4.27.23.66-.12,1.09-1.34,1.7-2,.35-.39.84-.65,1.27-.97.14.51.5,1.08.38,1.53-.43,1.68-1.62,2.72-3.28,3.09-1.12.25-1.67.57-.97,1.76.13.23.05.58.06.74Zm-2.93.44c0-.28.01-.55.02-.83-.79-.58-1.53-1.51-2.37-1.61-.54-.06-1.56,1.02-1.75,1.75-.31,1.14.36,2.34,1.67,2.22.85-.08,1.63-.99,2.44-1.53Z"/>
      <path class="cls-6" d="m152.59,25.07c-.44-.4-1.01-.69-1.12-1.1-.11-.39.13-1.07.45-1.34,7.08-5.81,14.2-11.57,21.31-17.34.54-.44,1.07-1.05,1.68-1.17.64-.13,1.38.23,2.08.38-.21.61-.24,1.45-.66,1.79-6.01,4.77-12.08,9.46-18.1,14.21-1.28,1.01-2.38,2.25-3.62,3.31-.55.47-1.23.77-2.02,1.25Z"/>
      <path class="cls-6" d="m161.72,25.82c-.28-.63-.72-1.24-.78-1.89-.04-.46.28-1.2.67-1.44,4.53-2.71,9.1-5.35,13.67-8,.9-.52,1.77-1.16,2.74-1.47.66-.21,1.47.08,2.21.14-.33.65-.48,1.58-1.01,1.91-5.2,3.25-10.46,6.4-15.71,9.58-.33.2-.69.36-1.03.53-.25.21-.51.42-.76.63Z"/>
      <path class="cls-1" d="m11.55,82.81c-.62.58-.93,1.07-1.37,1.23-1.89.72-3.48,1.62-3.68,3.95-.03.37-.6.7-.92,1.04-.35-.37-.92-.69-1.02-1.12-.49-2.14-1.7-3.51-3.82-4.11-.3-.09-.5-.52-.74-.79.29-.24.54-.55.87-.69.54-.24,1.12-.4,1.7-.53,1.14-.26,1.69-.9,1.6-2.11-.04-.48.02-1.02.21-1.45.17-.39.56-.88.91-.92.37-.05.86.32,1.17.63.21.21.25.63.31.97.34,1.79,1.03,3.17,3.21,3.13.43,0,.86.41,1.58.78Z"/>
      <path class="cls-6" d="m165.41,30.02c-.26-.21-1.03-.62-.97-.8.17-.57.52-1.37,1-1.54,3.84-1.31,7.72-2.5,11.58-3.73,1.74-.55,3.47-1.2,5.24-1.62.55-.13,1.24.37,1.87.58-.33.56-.53,1.44-1.01,1.64-1.87.77-3.81,1.37-5.75,1.96-3.6,1.1-7.2,2.16-10.81,3.23-.28.08-.57.14-1.15.27Z"/>
      <path class="cls-1" d="m184.86,108.37c-.38-.56-.67-1.04-1.01-1.47-.57-.71-1.06-1.55-1.78-2.07-1.03-.74-1.24-1.18-.14-2.1.79-.67,1.22-1.75,1.86-2.61.3-.4.73-1.02,1.08-1,.44.02.9.54,1.27.92.84.86,1.59,1.82,2.47,2.64.75.7,1.15,1.53.1,2.01-1.36.62-2.23,1.48-2.74,2.85-.11.29-.59.45-1.11.82Z"/>
      <path class="cls-1" d="m191.82,56.37c.36-2.64.61-4.95,1.03-7.23.08-.43.82-.74,1.26-1.1.36.46,1.08.96,1.03,1.37-.28,2.35-.69,4.7-1.18,7.01-.07.34-.82.76-1.23.73-.37-.02-.71-.6-.9-.79Z"/>
      <path class="cls-1" d="m165.79,49.85c0,.89.13,1.8-.05,2.65-.09.44-.73,1.06-1.11,1.05-.4,0-1.1-.65-1.13-1.05-.13-1.76-.14-3.54,0-5.29.03-.44.77-.82,1.19-1.23.37.4.96.76,1.05,1.21.17.85.05,1.77.05,2.66h0Z"/>
      <path class="cls-1" d="m11.75,50.66c-.53-.8-1.13-1.32-1.04-1.67.13-.49.8-1.22,1.17-1.18.49.05,1.23.71,1.28,1.17.04.41-.71.9-1.4,1.68Z"/>
      <path class="cls-1" d="m26.38,62.65c-.75.56-1.24,1.19-1.6,1.12-.48-.09-1.22-.78-1.17-1.13.07-.53.71-.99,1.11-1.47.45.4.91.81,1.66,1.48Z"/>
      <path class="cls-2" d="m37.69,101c.36-6.81,2.01-13.38,3.94-19.87,2.33-7.82,5.57-15.25,10.2-22.01.91-1.33,2.11-2.48,3.23-3.65.26-.27.77-.31,1.16-.45.11.38.26.75.31,1.14.24,1.7.24,3.47.72,5.1.7,2.34,2.28,3.08,4.52,2.07,2.66-1.19,5.16-2.73,7.79-4.01.94-.46,2.12-.97,3.05-.78,2.13.44,3.79-.37,5.46-1.37,1.83-1.09,3.61-2.27,5.48-3.28.38-.21,1.34-.02,1.6.31,1.78,2.32,3.4,4.76,5.15,7.1,2.21,2.96,3.29,3.27,6.48,1.43,4.58-2.64,9.05-5.47,13.6-8.16.42-.25,1.4-.23,1.66.07,1.95,2.17,3.91,4.35,5.61,6.71,1.31,1.82,2.97,2.42,5.04,1.48,1.52-.69,3.11-1.37,4.74-1.66,3.78-.67,6.7-2.77,9.48-5.19,2.06-1.79,2.02-1.73,3.73.36,1.77,2.17,3.62,4.27,5.51,6.34,1.81,1.98,3.17,1.95,4.95-.02.62-.69,1.14-1.46,2.12-2.73,1.4,5.61,2.9,10.76,3.95,16.01,1.11,5.57,1.97,11.21,2.62,16.86.43,3.77.45,7.61.34,11.41-.03.98-1.08,2.04-1.86,2.87-1.45,1.56-3.03,2.99-4.57,4.47-1.59,1.52-2.54,1.54-4.03.02-1.9-1.94-3.77-3.91-5.64-5.89-.94-1-1.59-.83-2.51.19-2.6,2.88-5.33,5.65-8.03,8.44-.75.78-1.28.53-1.81-.39-2.26-3.93-4.92-7.53-8.33-10.59-1.48-1.33-2.64-1.34-4.14-.14-5.06,4.06-10.22,8.01-15.26,12.09-1.33,1.08-2.09.94-3.12-.36-2.27-2.86-4.73-5.56-7.02-8.4-1.08-1.35-1.99-1.12-3.11-.14-2.68,2.35-5.34,4.74-8.11,6.99-2.06,1.67-2.74,1.46-4.6-.53-2.09-2.25-4.25-4.42-6.42-6.59-.91-.91-1.98-1.66-2.88-2.58-1-1.01-1.96-.97-3.03-.18-4.06,3.01-8.14,6-12.16,9.05-.91.69-1.2.7-1.52-.49-.92-3.44-1.9-6.86-2.99-10.24-.62-1.92-1.65-2.18-3.23-.83-2.26,1.93-4.42,3.97-6.64,5.96-.32.29-.67.54-1,.8-.14-.46-.32-.92-.4-1.39-.08-.44-.05-.89-.07-1.34,0-1.33,0-2.67,0-4Zm63.99-6.4c3.08,0,6.06-.36,8.67-2.17,2.33-1.62,2.73-3.49,1.36-5.88-.16-.28,0-.97.25-1.2,2.08-1.9,1.77-4.32-.64-5.75-3.83-2.28-7.97-1.66-12.03-1.27-1.87.18-3.79.81-5.5,1.64-2.37,1.14-2.81,4.06-.95,5.7.94.82.55,1.07-.1,1.66-2.07,1.85-1.94,3.85.37,5.37,2.6,1.72,5.59,1.81,8.56,1.91Zm-25.59-25.2c-2.61.02-4.44,1.91-4.43,4.56,0,1.96,1.51,3.49,3.45,3.51,2.53.03,4.56-1.87,4.61-4.29.03-1.96-1.73-3.8-3.63-3.78Zm43.97,1.64c.14,2.27,1.29,3.59,3.05,3.49,2.45-.13,4.77-2.47,4.66-4.7-.1-1.97-1.55-3.37-3.43-3.29-2.77.12-4.45,1.88-4.29,4.5Z"/>
      <path class="cls-4" d="m101.74,23.56c.13,0,.26,0,.38.01,1.07,0,2.13,0,3.2,0,.13,0,.25,0,.38,0,2.37.02,4.74.04,7.11.06.13,0,.25,0,.38.01,1.34.01,2.67.03,4.01.04,9.3,1.99,15.96,7.92,22.34,14.52,4.87,5.03,8.29,10.78,10.98,17.13,1.14,2.69.3,4.33-1.36,6.16-.19.21-1.11.13-1.33-.13-2.25-2.62-4.46-5.28-6.62-7.97-1.52-1.9-2.21-2.07-3.98-.44-4.37,4.05-9.58,6.4-15.3,7.79-1.35.33-2-.03-2.84-1.23-1.85-2.67-4.01-5.14-6.16-7.58-1.01-1.14-2.13-.44-3.2.22-4.8,2.97-9.63,5.89-14.43,8.86-1.18.73-2.01.47-2.77-.61-1.91-2.72-3.92-5.37-5.75-8.14-.92-1.4-2.05-1.57-3.3-.92-2.14,1.13-4.2,2.43-6.26,3.7-1.51.94-3.09,1.11-4.87,1.28-2.14.2-4.21,1.47-6.25,2.39-1.66.75-3.27,1.65-4.86,2.55-1.32.75-2,.21-2.16-1.06-.28-2.2-.48-4.41-.57-6.63-.05-1.24-.64-1.8-1.73-1.65-1.29.17-2.57.51-3.82.9-2.81.88-5.6,1.83-8.7,2.85,5.15-7.81,10.33-15.04,17.51-20.61,8.24-6.4,17.55-9.81,27.91-10.56,3.25-.24,6.5-.6,9.75-.91.77,0,1.54-.02,2.31-.02Z"/>
      <path class="cls-2" d="m30.09,68.55c2.9.23,4.97,2.47,6.41,5.29,2.04,4,2.43,8.23,1.42,12.67-1.46,6.42-2.93,12.85-2.49,19.52.01.15-.56.54-.68.48-2.37-1.3-4.8-2.51-7.01-4.05-1.09-.76-1.97-2.06-.7-3.59.1-.12-.58-1.26-1.05-1.41-4.51-1.44-6.04-4.7-3.94-8.98.45-.91,1.35-1.73,2.25-2.26,1.11-.66,1.22-1.3.79-2.42-1.37-3.54-1.94-7.15-.71-10.89.93-2.84,2.73-4.4,5.73-4.37Z"/>
      <path class="cls-2" d="m158.98,71.21c-.08-2.98.5-5.54,1.96-7.9.93-1.5,2.05-1.55,3.39-.71,2.42,1.51,3.01,4.02,3.23,6.55.21,2.45.11,4.93.01,7.4-.05,1.28.4,1.87,1.61,2.21,3.58,1,3.68,1.15,3.8,4.88.07,2.46.35,4.98-.06,7.38-.23,1.36-1.6,2.56-2.59,3.73-1.06,1.27-2.96,2.06-2.17,4.27.04.12-.13.47-.2.46-2.13-.08-1.83,2.06-2.79,3.04-.64.65-1.24,1.34-1.86,2.01-.25-.89-.7-1.77-.73-2.66-.28-9.58-1.72-19.01-3.58-28.39-.16-.81-.02-1.68-.02-2.28Z"/>
      <path class="cls-2" d="m97.68,21.25c-.87.09-1.74.22-2.61.26-.22.01-.67-.3-.66-.37.23-1.04.35-2.17.9-3.02.21-.32,1.45,0,2.22.09.68.08,1.34.25,2.02.37.06-.68.25-1.38.17-2.05-.28-2.18-.89-4.75,1.37-5.91,1.98-1.02,4.16.42,5.49,1.93,1.23,1.4,1.8,3.39,2.65,5.12.02.96.05,1.92.07,2.88-.02.13-.04.26-.07.38-3.89,0-7.79,0-11.68.03-.1,0-.21.14-.31.21.15.03.29.05.44.08Z"/>
      <path class="cls-4" d="m97.68,21.25c-.15-.03-.29-.05-.44-.08.1-.07.21-.21.31-.21,3.89-.02,7.79-.02,11.68-.03-1.15.08-2.29.22-3.44.24-2.7.05-5.41.05-8.12.07Z"/>
      <path class="cls-3" d="m112.8,23.63c-2.37-.02-4.74-.04-7.11-.06,2.37.02,4.74.04,7.11.06Z"/>
      <path class="cls-3" d="m117.19,23.68c-1.34-.01-2.67-.03-4.01-.04,1.34.01,2.67.03,4.01.04Z"/>
      <path class="cls-2" d="m34.61,108.69c.44.59.88,1.18,1.3,1.78.02.03-.14.19-.21.3-.43-.66-.86-1.31-1.29-1.97.07-.04.14-.07.2-.11Z"/>
      <path class="cls-5" d="m37.69,101c0,1.33,0,2.67,0,4,0-1.33,0-2.67,0-4Z"/>
      <path class="cls-3" d="m109.3,20.55c-.02-.96-.05-1.92-.07-2.88.02-.04.02-.1.05-.13.05-.04.12-.06.18-.09-.05,1.03-.11,2.06-.16,3.1Z"/>
      <path class="cls-3" d="m105.32,23.57c-1.07,0-2.13,0-3.2,0,1.07,0,2.13,0,3.2,0Z"/>
      <path class="cls-3" d="m101.74,23.56c-.77,0-1.54.02-2.31.02.77,0,1.54-.02,2.31-.02Z"/>
      <path class="cls-4" d="m29.3,26.59c-.52-.45-1.12-.74-1.34-1.2-1.27-2.79-2.45-5.62-3.68-8.42-.37-.85-.26-1.43.76-1.32,2.42.27,4.16-.94,5.75-2.5.65-.64,1.05-.53,1.44.24,1.04,2.08,2.14,4.14,3.11,6.25.16.35-.01,1.05-.28,1.38-1.27,1.58-2.6,3.12-3.98,4.61-.39.41-1.04.58-1.78.98Zm3.65-7.88c0-1.22-1.38-2.52-2.67-2.51-1.36,0-2.9,1.46-2.88,2.71.02,1.39,1.29,2.64,2.68,2.64,1.48,0,2.87-1.38,2.87-2.84Z"/>
      <path class="cls-4" d="m23.37,21.03c-.88,1.31-1.71,2.64-2.66,3.88-.13.17-1.04.08-1.21-.16-1.4-2-3.3-2.17-5.49-1.86-.52.07-1.21-.61-1.72-1.06-.73-.63-.88-1.5.09-1.92,2.84-1.22,5.73-2.31,8.62-3.42.21-.08.7.08.77.25.58,1.42,1.08,2.87,1.6,4.28Z"/>
      <path class="cls-4" d="m22.01,6.74c.29-1,.62-2.15.96-3.3.88.6,1.85,1.11,2.61,1.84,1.46,1.39,2.84,2.87,4.17,4.4.21.25.13,1.08-.12,1.34-1.44,1.48-3.11,2.61-5.3,2.42-.47-.04-1.19-.52-1.29-.92-.43-1.81-.68-3.67-1.03-5.78Z"/>
      <path class="cls-4" d="m42.26,7.41c-.67,2.05-1.3,4.11-2.04,6.12-.1.26-.8.48-1.18.42-1.15-.18-2.34-.38-3.4-.83-.72-.3-1.35-.98-1.8-1.64-.15-.22.25-1.07.62-1.37,1.76-1.42,3.52-2.86,5.42-4.07,1.72-1.09,2.12-.76,2.38,1.36Z"/>
      <path class="cls-4" d="m38.19,27.86s.52.26.56.55c.08.57.13,1.37-.2,1.74-1.92,2.17-1.92,3.11.11,5.07.23.22.27,1.06.11,1.16-.47.29-1.39.66-1.59.46-2.08-2.11-4.09-4.3-5.98-6.58-.11-.14.82-1.64,1.44-1.79,1.67-.4,3.43-.41,5.54-.61Z"/>
      <path class="cls-4" d="m47.39,22.28c-.29.24-.53.55-.84.66-1.9.69-3.81,1.34-5.72,1.99-.17.06-.51.07-.54.01-.59-1.47-1.52-2.94-1.58-4.45-.04-.92,1.25-1.92,1.99-2.84.13-.16.59-.26.74-.16,1.84,1.31,3.65,2.66,5.45,4.01.18.14.27.4.51.77Z"/>
      <path class="cls-4" d="m19.99,34.41c.15-.97.22-1.65.37-2.33.97-4.31,2.6-5.2,6.7-3.57.9.36,1.32,1.09.42,1.94-1.72,1.62-3.43,3.26-5.2,4.82-.45.39-1.12.53-1.69.78-.22-.62-.45-1.24-.59-1.64Z"/>
      <path class="cls-4" d="m35,26.17c-.34-.28-.56-.46-.78-.64.79-.87,1.57-1.73,2.36-2.6.36.69.73,1.38,1.09,2.07-.87.38-1.74.76-2.67,1.17Z"/>
      <path class="cls-4" d="m37.31,18.37c-.42-.95-.73-1.66-1.04-2.36.22-.08.5-.29.65-.23.56.24,1.09.58,1.62.88-.36.5-.73,1.01-1.23,1.71Z"/>
      <path class="cls-4" d="m25.54,25.99c-.39-.02-.8.04-1.16-.07-.36-.11-.66-.38-.99-.58.3-.44.6-.89.89-1.33.27.3.59.58.81.92.2.32.3.72.44,1.08h.01Z"/>
      <path class="cls-4" d="m25.52,26l.09.06s-.05-.05-.08-.08c0,0-.01.01-.01.01Z"/>
      <path class="cls-4" d="m20.47,55.67c-.81.54-1.58,1.45-2.44,1.53-1.31.12-1.97-1.07-1.67-2.22.2-.73,1.22-1.81,1.75-1.75.84.1,1.59,1.03,2.37,1.61,0,.28-.01.55-.02.83Z"/>
      <path class="cls-6" d="m101.68,94.6c-2.97-.09-5.96-.19-8.56-1.91-2.3-1.52-2.44-3.52-.37-5.37.65-.59,1.04-.84.1-1.66-1.87-1.64-1.42-4.55.95-5.7,1.71-.82,3.62-1.46,5.5-1.64,4.06-.39,8.19-1.02,12.03,1.27,2.41,1.44,2.72,3.85.64,5.75-.25.23-.41.93-.25,1.2,1.36,2.39.97,4.25-1.36,5.88-2.61,1.82-5.59,2.18-8.67,2.17Zm-.31-1.59c.03-.09.05-.17.08-.26,1.28-.13,2.62-.05,3.82-.43,1.53-.48,3.09-1.14,4.34-2.11.59-.46.58-1.82.59-2.78,0-.26-.88-.79-1.33-.77-2.85.15-5.7.48-8.55.62-1.37.07-2.83-.45-4.12-.13-1.03.25-1.97,1.26-2.65,2.16-.16.21.76,1.74,1.43,1.98,2.06.75,4.25,1.16,6.38,1.71Zm.73-7.42c2.19-.39,4.81-.79,7.39-1.37.66-.15,1.2-.89,1.79-1.36-.51-.61-.91-1.52-1.56-1.77-4.88-1.91-9.77-1.47-14.57.31-.59.22-1.39,1.21-1.29,1.67.13.64.96,1.45,1.62,1.6,2.01.44,4.08.59,6.63.92Z"/>
      <path class="cls-6" d="m76.1,69.4c1.91-.01,3.67,1.82,3.63,3.78-.04,2.42-2.08,4.32-4.61,4.29-1.94-.02-3.44-1.55-3.45-3.51-.01-2.65,1.82-4.54,4.43-4.56Z"/>
      <path class="cls-6" d="m120.07,71.04c-.16-2.62,1.52-4.38,4.29-4.5,1.87-.08,3.33,1.32,3.43,3.29.11,2.23-2.21,4.57-4.66,4.7-1.76.09-2.91-1.22-3.05-3.49Z"/>
      <path class="cls-1" d="m32.94,18.71c0,1.46-1.39,2.84-2.87,2.84-1.39,0-2.66-1.25-2.68-2.64-.02-1.25,1.53-2.7,2.88-2.71,1.29,0,2.67,1.29,2.67,2.51Z"/>
      <path class="cls-5" d="m101.37,93.01c-2.14-.54-4.32-.96-6.38-1.71-.67-.24-1.59-1.77-1.43-1.98.68-.9,1.63-1.91,2.65-2.16,1.28-.32,2.74.2,4.12.13,2.85-.14,5.7-.47,8.55-.62.45-.02,1.33.51,1.33.77-.02.96,0,2.32-.59,2.78-1.25.97-2.81,1.62-4.34,2.11-1.2.38-2.54.3-3.82.43-.03.09-.05.17-.08.26Z"/>
      <path class="cls-5" d="m102.1,85.59c-2.55-.33-4.62-.48-6.63-.92-.66-.14-1.48-.96-1.62-1.6-.1-.46.7-1.45,1.29-1.67,4.8-1.78,9.7-2.22,14.57-.31.65.25,1.04,1.17,1.56,1.77-.59.47-1.12,1.21-1.79,1.36-2.58.58-5.2.98-7.39,1.37Z"/>
    </g>
  </g>
</svg>