<?xml version="1.0" encoding="UTF-8"?>
<svg id="_图层_2" data-name="图层 2" xmlns="http://www.w3.org/2000/svg" viewBox="0 0 222.96 261.12">
  <defs>
    <style>
      .cls-1 {
        fill: #f7ddb0;
      }

      .cls-1, .cls-2, .cls-3, .cls-4, .cls-5, .cls-6, .cls-7, .cls-8, .cls-9, .cls-10, .cls-11, .cls-12 {
        stroke-width: 0px;
      }

      .cls-2 {
        fill: #d2b080;
      }

      .cls-3 {
        fill: #856544;
      }

      .cls-4 {
        fill: #f5eed2;
      }

      .cls-5 {
        fill: #f5b870;
      }

      .cls-6 {
        fill: #fae6bf;
      }

      .cls-7 {
        fill: #fff;
      }

      .cls-8 {
        fill: #927452;
      }

      .cls-9 {
        fill: #bc9b78;
      }

      .cls-10 {
        fill: #c7a271;
      }

      .cls-11 {
        fill: #faebb2;
      }

      .cls-12 {
        fill: #937754;
      }
    </style>
  </defs>
  <g id="_图层_1-2" data-name="图层 1">
    <path class="cls-12" d="m40.62,67.24c-2.34,1.1-9.6,5.92-11.53,3.02-1.45-2.17,3.43-9.67,4.44-11.55,3.77-7.06,8.53-13.61,14.32-19.16,11.64-11.17,26.8-17.48,42.59-19.99,4.09-.65,7.47-3.35,9.55-7.2,1.63-3.02.75-6.6,3.41-9.4,5.8-6.11,15.83-2.03,17.24,5.7.59,3.23.23,6.39,2.73,8.93,2.31,2.34,5.88,2.91,8.9,3.77,8.24,2.34,16.01,6.06,22.74,11.39,6.87,5.45,12.43,12.38,16.68,20.04,2.23,4.03,4.24,8.3,5.72,12.66,2.01,5.92,1.02,13.36,3.68,18.86,3.72-4.24,4.28-9.97,11.4-9.79,6.54.17,10.21,5.02,11.36,10.96.67,3.47.23,6.66.39,10.14.19,3.92,1.82,4.21,4.17,6.64,4.86,5.02,1.61,12.38-.05,17.98,3.3-.58,8.02-3,11.28-1.86,4.17,1.45,3.48,5.32,2.9,8.7-1.88,10.96-4.02,21.88-6.07,32.81-.39,2.11-1.39,4.63-.74,6.72.55,1.8,2.42,3.27,3.3,4.97,2.02,3.93,2.33,8.25,1.99,12.59-.29,3.6-.65,7.52-2.67,10.59-2.18,3.3-6.98,5.87-8.39,9.58-1.58,4.15-.62,10.83-.71,15.29-.1,4.87.6,10.07.03,14.9-1.06,8.96-11.69,10.3-18.73,13.03-9.47,3.68-18.9,7.52-28.64,10.41-10,2.97-19.69,3.43-30.07,3.02-21.2-.83-42.24-.46-62.9-5.97-10.03-2.67-19.87-6.04-29.96-8.5-7.02-1.71-16.02-1.84-19.14-9.58-2.22-5.49-1.92-12.82-2.56-18.63-.26-2.4-.48-4.8-.7-7.2-.19-2.06.16-6.39-.76-8.23-1.17-2.34-4.98-3.13-7.2-4.63-5.14-3.49-6.29-8.38-5.92-14.35.37-5.81.45-13.5,4.48-18.12,2.32-2.66,5.8-2.48,6.1-6.01.4-4.79-2.92-10.15-4.78-14.35C4.2,135.72-.76,125.68.1,114.81c.74-9.43,3.13-21.31,13.07-25.04,9.11-3.41,12.08,6.23,15.5,12.58,3.55-11.74,8.17-23.23,12.29-34.78,0-.15-.02-.31-.03-.46l-.32.14Zm163.96,170.66v.04c.13-.14.27-.28.41-.41,0,0,.04.04.04.04l.66-.47c.15-8.55.3-17.1.45-25.65.08-2.1.27-4.2.22-6.29-.04-1.32-.02-3.44-.75-3.82-7.59-3.94-8.73-11.3-7.16-17.85,1.31-5.47,6.12-10.12,9.56-15.02.74-1.05,3.05-1.4,3.26-2.37,2.64-12.24,5.2-24.5,7.32-36.83.43-2.51,4.47-9.22-3.88-6.5-11.08,3.61-21.96,7.84-32.82,12.1-5.36,2.11-10.46,4.88-15.67,7.36l-2.45,1.25h.08c-.66.28-1.33.56-1.99.84,0,0,.03-.02.03-.02-.55.26-1.1.52-1.65.78,0,0,.07-.01.07-.01-.44.14-.88.28-1.33.43-.09-.04-.17-.03-.24.05-12.76.28-25.52.56-38.27.83-4.07.28-8.14.55-12.2.83-7.68.42-15.71,2.46-22.96.88-12.4-2.69-24.17-8.16-36.46-11.5-10.4-2.83-21.17-4.31-31.77-6.39-.26.52-.75,1.04-.76,1.57-.05,4.19,0,8.37,0,12.56.1.52.2,1.05.3,1.57,0,.15.01.3.02.45-.09,5.25-.23,10.5-.17,15.75,0,.42,1.41.82,2.17,1.23,3.21,3.94,6.41,7.87,9.62,11.81,1.58,8.78,1.97,17.27-5.62,23.92-1.21,1.06-3.3,2.37-3.23,3.45.57,8.74,1.18,17.51,2.57,26.14.68,4.2-1.88,10.9,6.19,11.31,19.51,6.15,38.7,11.37,58.78,15.24,10.39.66,20.78,1.31,31.17,1.97,5.53.3,11.05.6,16.58.9.4.11.81.21,1.21.32.91.02,1.82.05,2.73.07.12,0,.24,0,.36,0,.28,0,.55,0,.83,0,4.2-.18,8.4-.35,12.6-.53,0,0-.03.05-.03.05.4-.15.81-.29,1.21-.44l-.03.04c.17,0,.34.02.52.02.14-.24.28-.47.41-.71,0,0-.08.02-.08.02,1.6-.54,3.2-1.07,4.8-1.61h-.07c.43-.13.87-.27,1.3-.42,6.08-2.21,12.17-4.43,18.25-6.64,7.27-2.77,14.55-5.54,21.82-8.31.29-.14.59-.28.88-.43l-.03.03c.27-.14.55-.27.82-.41,0,0-.03.02-.03.02.27-.14.55-.27.82-.41l-.04.02c.4-.15.8-.3,1.19-.45,0,0-.02.01-.02.01.14-.13.29-.26.43-.4ZM64.09,76.09c-.28.12-.56.24-.83.35-9.12,3.91-9.67,3.65-11.92-6.12-.37-1.58-.3-3.27-.7-4.84-.13-.54-1.55-1.27-1.57-1.24-2.05,2.43-4.96,4.64-5.84,7.48-5.64,18.15-10.84,36.43-16.13,54.68-.14.49.23,1.61.54,1.69,5.88,1.45,11.81,2.65,17.67,4.17,6.96,1.8,13.91,3.65,20.75,5.84,6.15,1.97,12.01,5.58,18.25,6.36,7.4.92,15.08-.41,22.64-.77,1.73.08,3.45.16,5.18.24,6.88-.27,13.76-.53,20.64-.8,1.81-.02,3.63-.03,5.44-.05.54-.03,1.09-.06,1.63-.08,3.17-.21,6.33-.44,9.5-.63,2.55-.15,5.11-.25,7.66-.37,7.39-.56,14.42-6.44,21.1-9.34,5.87-2.54,6.84-2.91,5.71-9.89-1.4-8.61-2.77-17.07-4.66-25.61-1.02-4.62-2.06-9.24-3.1-13.86-.8-3.53-.98-8.57-3.71-11.04-3.86,4.28-6.45,3.35-9.58-.65-1.16-1.48-2.21-3.32-4.01-4.13-2.75-1.23-4.11.55-6.43,2.21-4.55,3.25-9.62,6.78-15.15,8.12-5.75,1.4-8.3-2.8-11.24-7.05-1.4-2.03-2.51-4.54-5.31-4.35-2.66.18-6.6,3.48-8.92,4.82-3.97,2.31-9.74,7.88-14.68,7.26-7.47-.93-6.08-16.34-14.47-10.74-.37.16-.75.32-1.12.48,0,0,.03-.03.03-.03-.79.4-1.59.81-2.38,1.21v-.04c-1.06.54-2.12,1.08-3.17,1.62l.02-.04c-.27.14-.55.28-.82.42l.03-.03c-.93.41-1.85.82-2.78,1.23,0,0,.02-.04.02-.04l-.82.42s.02-.04.02-.04c-.93.41-1.85.82-2.78,1.23,0,0,.02-.04.02-.04-1.19.53-2.39,1.05-3.58,1.58,0,0,.02-.02.02-.02-.4.15-.81.29-1.21.44,0,0,.05-.03.05-.03ZM4.86,130.87c.11.14.22.28.33.42,2.42,5.52,4.34,12.06,7.76,17,.67-5.14-.58-10.4.03-15.56.47-3.98,3.36-5.56,7.25-6.05.81-.1,2.56.38,3.26-.19.91-.73,1.21-6.34,1.43-7.6.8-4.44,1.68-9.3.53-13.76-1.37-5.3-8.59-15.51-15.01-11.04-3.04,2.12-3.94,6.79-4.11,10.21-.25,4.88-.69,9.15-1.48,13.99-.25.41-.5.82-.75,1.23,0,0,.02-.04.02-.04.13,3.41.27,6.83.4,10.24,0,0-.03-.04-.03-.04.14.41.28.82.42,1.23,0,0-.05-.05-.05-.05Zm30.5-65.73c4.23-1.58,8.44-3.23,12.7-4.73,4-1.41,6.22-.34,6.31,4.37.06,2.84.76,5.72,1.52,8.48.19.67,2,1.6,2.63,1.34,6.49-2.68,12.94-5.45,19.29-8.44,10.11-4.75,10.07-4.83,16,4.44.67,1.05,1.25,2.27,2.19,3,.77.59,2.34,1.11,3.02.73,6.81-3.82,13.4-8.04,20.32-11.64,1.46-.76,4.73-.16,5.9,1.04,2.9,2.98,5.02,6.71,7.59,10.03.51.66,1.89,1.41,2.42,1.16,4.85-2.3,9.92-4.34,14.31-7.35,10.4-7.13,7.39-8.26,16.44,2.09.58.66,2.13,1.53,2.23,1.41,1.72-1.91,5.08-4.92,4.6-5.83-4.05-7.59-7.99-15.5-13.52-21.98-14.63-17.14-34.26-21.62-55.99-20.64-30.79,1.39-54.64,13.48-68.38,42.22-.01.16-.03.33-.04.49.16-.05.31-.11.47-.16Zm165.7,27.37c.35-.16.69-.33,1.04-.49-1.72-4.08-2.91-8.54-5.45-12.03-.96-1.32-6.52-1.48-7.37-.29-2.79,3.91-6.3,8.77-6.07,13.08.61,11.59,3.01,23.09,4.73,34.62.05.31.46.86.48.85,7.18-3.51,17.23-3.71,18.3-14.45.31-3.14-1.07-8.92-2.69-9.31-4.09-.99-4.16-2.6-3.52-5.77.41-2.02.39-4.14.56-6.21ZM6,183.93c.17.02.33.05.5.07,0,5.85,1.62,15.14,9.78,13.87,7.77-1.21,8.01-9.47,7.91-15.6-.06-3.56,0-8.8-2.42-11.62-1.43-1.67-5.7-4.41-7.99-4.13-6.1.74-7.02,13.28-7.78,17.41Zm211.62-.75c-.15-.02-.31-.05-.46-.07,0-3.95-2.03-13.35-7.52-11.34-4.86,1.78-7.73,7.48-8.33,12.31-.62,4.99,1.08,12.26,6.58,14.02,8.2,2.62,8.93-10,9.73-14.93ZM113.07,19.07c9.8,2.61,2.86-22.11-6.52-13.3-2.05,1.93-1.05,4.24-1.68,6.54-.58,2.12.51,1.38-1.59,2.87.15-.11-2.58.93-2.58.92-3.88,4.49,10.62,2.97,12.38,2.97Z"/>
    <path class="cls-9" d="m182.07,24.15c-4.4-3.68.91-6.83,3.88-9.83,1.97-1.99,7.49-9.62,10.64-8.57,5.06,1.69-2.45,7.38-4.12,9.07-3,3.05-6.36,7.88-10.41,9.33Z"/>
    <path class="cls-9" d="m192.88,33.12c-2.71-2.98-2-4.47,1.45-6.46,2.66-1.54,10.38-6.38,13.43-5.25,3.9,1.45,1.05,4.01-1.29,5.19-4.49,2.26-9.05,4.36-13.59,6.52Z"/>
    <path class="cls-9" d="m4.91,19.55c3.96,2.04,7.94,4.03,11.86,6.15,2.07,1.12,5.31,4.54.82,5.36-2.9.53-7.78-3.2-10.29-4.5-3.92-2.03-6.23-3.38-2.39-7Z"/>
    <path class="cls-9" d="m29.4,17.89c-2.39,2.85-3.53,3.21-6.27.42-2.04-2.08-7.68-7.15-7.95-9.84-.36-3.6,1.98-3.57,4.05-1.8,3.73,3.2,6.9,7.57,10.17,11.22Z"/>
    <path class="cls-6" d="m158.75,145.54c.07-.08.15-.09.24-.05.44-.14.88-.28,1.33-.43,0,0-.07.01-.07.01.55-.26,1.1-.52,1.65-.78,0,0-.03.02-.03.02.66-.28,1.33-.56,1.99-.84,0,0-.08,0-.08,0,.82-.42,1.63-.84,2.45-1.25,5.22-2.47,10.31-5.25,15.67-7.36,10.85-4.26,21.74-8.49,32.82-12.1,8.34-2.72,4.31,4,3.88,6.5-2.12,12.33-4.69,24.59-7.32,36.83-.21.97-2.52,1.32-3.26,2.37-3.44,4.89-8.25,9.55-9.56,15.02-1.57,6.55-.43,13.91,7.16,17.85.73.38.71,2.5.75,3.82.06,2.09-.13,4.19-.22,6.29-.15,8.55-.3,17.1-.45,25.65-.22.16-.44.31-.66.47.23-8.5.56-17.01.57-25.51,0-1.27-1.49-2.56-2.34-3.81-2.19-3.23-4.84-6.24-6.46-9.73-.92-2-.16-4.77-.16-7.19-.13-.66-.26-1.33-.4-1.99-1.67-7.57-8.35-12.37-15.37-9.65-6.53,2.53-11.24,2.06-16.29-2.94-2.28-2.26-6.33-2.72-9.58-4-.07-.52-.14-1.03-.21-1.55.12-.41.24-.82.36-1.23,0-.77.02-1.54.02-2.32.04-.75.08-1.51.13-2.26.52-4.51,3.24-13.21.66-17.02-3.71,4.42-2.68,15.23-3.19,20.94-.53,4.96-1.06,9.92-1.59,14.88,0-2.46-.11-4.59-.61-6.99-6.13,3.13-12.94,5.5-18.37,9.84-5.25,4.2-8.08,10.15-13.8,13.82,9.36.57,18.76.59,28.14.78-6.46-.01-12.92-.03-19.39-.04-7.86-.03-15.72-.11-23.58-.06-4.94.03-9.88.25-14.82.39.33.65.65,1.3.98,1.95,7.2.09,14.41.18,21.61.27,1.6.07,3.19.13,4.79.2-1.18,6.5,4.46,7.13,8.03,9.9,3.33,2.58,7.13,6.05,8.17,9.82,2.76,10.04,6.74,13.02,16.83,10.26-.08,4.35-.16,8.69-.24,13.04.11,1.84.23,3.68.34,5.52,0,0-.01,0-.01,0,.65-.34,1.85-.65,1.87-1.03.36-6.62.57-13.25.81-19.87.05-.93.1-1.86.14-2.79-.41,6.48,4.03,4.8,8.27,6.68,6.47,2.87,12.52,8.37,18.36,12.35-6.08,2.21-12.17,4.43-18.25,6.64-.43.14-.87.29-1.3.43,0,0,.07-.01.07-.01-1.6.54-3.2,1.07-4.8,1.61,0,0,.08-.02.08-.02-3.47.3-6.95.87-10.42.85-8.65-.05-17.31-.37-25.96-.58-10.39-.66-20.78-1.31-31.17-1.97,5.52-2.72,13.53-5.08,9.23-12.96-1.79-3.28-13.11-13.54-13.66-4.82.69-10.7,1.4-21.4,2.01-32.1.04-.69-.7-1.43-1.08-2.15-.53.71-1.47,1.38-1.53,2.12-.65,8.23-1.17,16.47-1.73,24.7-3.45-2.51-6.57-6.1-10.43-7.26-4.27-1.29-12.53-1.82-13.26-.15-2.78,6.33-6.64,3.89-10.97,3.9-4.08.01-8.93.84-12.02,3.18-2.79,2.11-3.65,6.76-5.35,10.29-8.07-.41-5.52-7.11-6.19-11.31-1.39-8.63-2.01-17.4-2.57-26.14-.07-1.08,2.02-2.39,3.23-3.45,7.58-6.64,7.2-15.13,5.62-23.92,1.8,5.35,3.59,10.7,5.39,16.05-.63.34-1.26.68-1.89,1.03.51.51.96,1.34,1.55,1.47,14.47,3.06,28.95,6.07,43.45,8.99.66.13,1.49-.59,2.24-.91-.58-.51-1.09-1.32-1.75-1.47-9.65-2.15-19.31-4.21-28.97-6.29,6.38-1.09,9.79-5.03,11.21-11.2,1.48-6.46,5.46-7.15,10.83-3.09,3.21,2.43,7.6,3.3,11.46,4.88.18,5.28-1.04,12.7,2.18,16.96,3.05-5.4.79-15.15.53-21.3.61.56,1.7,1.66,1.77,1.6,3.51-3.11,7.82-5.78,10.17-9.64,3.15-5.17,4.14-11.76,12.85-9.53,1.65.42,5.46-1.81,5.86-3.41.83-3.38.54-7.28-.36-10.68-.26-.97-4.21-.96-6.47-1.4,4.07-.28,8.14-.55,12.2-.83,4.04,2.44,13.35.56,18.09.47,6.79-.13,13.43-.65,20.18-1.31Zm-57.13,36.26c5.52,1.64,8.45,4.24,13.73.71,2.5-1.68,8.82-5.81,7.51-9.6-1.79-5.16-9.93-.2-12.82,1.08-4.5,1.99-5.49,4.02-8.41,7.82Z"/>
    <path class="cls-11" d="m139.83,143c-.54.03-1.09.06-1.63.08-1.59-.24-3.19-.73-4.77-.67-8.83.35-17.66.84-26.49,1.28-7.56.36-15.24,1.69-22.64.77-6.25-.78-12.1-4.39-18.25-6.36-6.84-2.19-13.79-4.04-20.75-5.84-5.86-1.52-11.79-2.72-17.67-4.17-.32-.08-.69-1.2-.54-1.69,5.29-18.25,10.49-36.54,16.13-54.68.88-2.84,3.79-5.04,5.84-7.48.03-.03,1.44.71,1.57,1.24.39,1.57.33,3.26.7,4.84,2.25,9.77,2.8,10.03,11.92,6.12.28-.12.56-.23.83-.35,0,0-.05.03-.05.03.4-.15.81-.29,1.21-.44,0,0-.02.02-.02.02,1.19-.53,2.39-1.05,3.58-1.58,0,0-.02.04-.02.04.93-.41,1.85-.82,2.78-1.23,0,0-.02.04-.02.04.27-.14.55-.28.82-.42,0,0-.02.04-.02.04.93-.41,1.85-.82,2.78-1.23,0,0-.03.03-.03.03.27-.14.55-.28.82-.42,0,0-.02.04-.02.04,1.06-.54,2.11-1.08,3.17-1.62,0,0,0,.04,0,.04.79-.4,1.59-.81,2.38-1.21,0,0-.03.03-.03.03.37-.16.75-.32,1.12-.48,8.39-5.6,7,9.81,14.47,10.74,4.95.61,10.71-4.95,14.68-7.26,2.32-1.35,6.26-4.64,8.92-4.82,2.8-.19,3.91,2.32,5.31,4.35,2.93,4.25,5.48,8.45,11.24,7.05,5.53-1.35,10.6-4.88,15.15-8.12,2.32-1.65,3.68-3.43,6.43-2.21,1.8.8,2.85,2.65,4.01,4.13,3.13,4,5.72,4.94,9.58.65,2.73,2.47,2.91,7.51,3.71,11.04,1.04,4.62,2.08,9.24,3.1,13.86,1.88,8.54,3.26,17,4.66,25.61,1.13,6.98.16,7.35-5.71,9.89-6.68,2.89-13.7,8.77-21.1,9.34-5.48,0-10.96-.03-16.43.02-.25,0-.48.64-.73.97Zm-33.53-15.49c5.75-2.26,12.09-2.89,13.13-5.58,1.79-4.59,1.75-11.13-.26-15.64-2.39-5.38-19.98-5.1-22.79.21-1.88,3.55-2.72,9.41-1.02,12.66,1.95,3.72,7.23,5.7,10.93,8.35Zm21.45-33.95c1.69,1.16,4.65,4.75,7.02,4.55,2.39-.21,4.54-3.59,4.21-5.7-1.22-7.96-8.49-.82-11.23,1.16Zm-56.67,2.56c3.18,2.34,5.24,4.87,6.45,4.51,1.87-.55,4.28-3.02,4.37-4.78.09-1.65-2.51-4.82-3.96-4.85-1.78-.03-3.6,2.52-6.87,5.12Z"/>
    <path class="cls-7" d="m34.93,64.82c13.74-28.74,37.59-40.84,68.38-42.22,21.73-.98,41.36,3.5,55.99,20.64,5.53,6.48,9.47,14.39,13.52,21.98.49.91-2.88,3.92-4.6,5.83-.11.12-1.65-.74-2.23-1.41-9.04-10.35-6.04-9.22-16.44-2.09-4.39,3.01-9.46,5.05-14.31,7.35-.53.25-1.91-.5-2.42-1.16-2.57-3.32-4.69-7.05-7.59-10.03-1.17-1.2-4.44-1.8-5.9-1.04-6.92,3.6-13.51,7.82-20.32,11.64-.69.39-2.25-.13-3.02-.73-.94-.72-1.52-1.95-2.19-3-5.93-9.26-5.89-9.19-16-4.44-6.35,2.99-12.8,5.76-19.29,8.44-.63.26-2.44-.67-2.63-1.34-.76-2.76-1.47-5.63-1.52-8.48-.09-4.7-2.31-5.77-6.31-4.37-4.26,1.5-8.47,3.15-12.7,4.73-.14-.11-.28-.22-.43-.33Z"/>
    <path class="cls-1" d="m178.71,248.23c-5.84-3.98-11.9-9.48-18.36-12.35-4.24-1.88-8.68-.2-8.27-6.68.11-7.42,1.87-17.05-.82-23.99-2.25,4.25-1.69,9.1-1.8,13.87-.11,5.09-.2,10.17-.3,15.26-10.09,2.76-14.07-.22-16.83-10.26-1.04-3.78-4.84-7.24-8.17-9.82-3.58-2.77-9.21-3.39-8.03-9.9,9.9,0,19.8.03,29.7-.03.75,0,1.5-.62,2.25-.96-.51-.57-1.03-1.14-1.54-1.71-9.38-.19-18.78-.21-28.14-.78,5.72-3.67,8.55-9.62,13.8-13.82,5.43-4.35,12.23-6.71,18.37-9.84.51,2.4.62,4.53.62,6.99-.37,5.36-2.39,13.19-.15,18.11,2.34-2.9,1.92-7.41,2.23-11.07.38-4.46.74-8.92,1.11-13.38,0-.77.02-1.54.03-2.31,0-.27.02-.54.02-.81.2-.66.39-1.33.59-1.99,3.25,1.28,7.3,1.74,9.58,4,5.05,5,9.76,5.47,16.29,2.94,7.01-2.72,13.7,2.08,15.37,9.65-14.05,4-28.09,8-42.13,12.06-.36.1-.53.88-.79,1.34.67.26,1.45.89,1.99.73,13.79-4,27.55-8.07,41.32-12.14,0,2.42-.76,5.19.16,7.19,1.61,3.49,4.26,6.51,6.46,9.73.85,1.25,2.34,2.54,2.34,3.81,0,8.5-.34,17.01-.57,25.51,0,0-.04-.04-.04-.04-.14.14-.28.28-.42.41,0,0,0-.04,0-.04-.14.13-.29.26-.43.4,0,0,.02-.01.02-.01-.4.15-.8.3-1.19.45,0,0,.04-.02.04-.02-.27.14-.55.27-.82.41,0,0,.03-.02.03-.02-.27.14-.55.27-.82.41,0,0,.03-.03.03-.03-.29.14-.59.28-.88.43-7.27,2.77-14.55,5.54-21.82,8.31Z"/>
    <path class="cls-1" d="m33.64,191.18c-1.8-5.35-3.59-10.7-5.39-16.05-3.21-3.94-6.41-7.87-9.62-11.81-.53-2.57-1.05-5.14-1.58-7.71-.07-.58-.14-1.16-.21-1.75,0-.28-.02-.56-.03-.84.09-7.61.17-15.22.26-22.83,10.61,2.08,21.37,3.56,31.77,6.39,12.29,3.35,24.07,8.81,36.46,11.5,7.25,1.57,15.28-.47,22.96-.88,2.26.44,6.21.43,6.47,1.4.9,3.4,1.19,7.3.36,10.68-.39,1.6-4.2,3.83-5.86,3.41-8.72-2.23-9.71,4.36-12.85,9.53-2.35,3.86-6.65,6.53-10.17,9.64-.07.06-1.16-1.04-1.77-1.6-.48-8.88-.93-17.75-1.5-26.62-.05-.72-.97-1.39-1.48-2.09-.37.81-1.1,1.64-1.07,2.44.38,10.21.88,20.41,1.34,30.61-3.86-1.57-8.24-2.45-11.46-4.88-5.37-4.06-9.34-3.37-10.83,3.09-1.41,6.17-4.83,10.11-11.21,11.2-4.88-.94-9.75-1.88-14.63-2.82Z"/>
    <path class="cls-1" d="m82.52,237.4c.55-8.72,11.87,1.54,13.66,4.82,4.29,7.88-3.71,10.24-9.23,12.96-20.08-3.87-39.27-9.09-58.78-15.24,1.71-3.53,2.57-8.18,5.36-10.29,3.09-2.34,7.93-3.17,12.02-3.18,4.32-.01,8.19,2.43,10.97-3.9.74-1.68,8.99-1.14,13.26.15,3.85,1.16,6.98,4.74,10.43,7.26-.46,6.12-3.09,16.15-.24,21.64,2.75-3.72,2.15-9.67,2.57-14.21Z"/>
    <path class="cls-11" d="m201.06,92.51c-.17,2.07-.14,4.19-.56,6.21-.65,3.16-.57,4.78,3.52,5.77,1.62.39,3.01,6.17,2.69,9.31-1.07,10.73-11.12,10.94-18.3,14.45-.02.01-.43-.54-.48-.85-1.71-11.53-4.11-23.03-4.73-34.62-.23-4.31,3.28-9.18,6.07-13.08.85-1.18,6.41-1.02,7.37.29,2.53,3.49,3.72,7.96,5.45,12.03-.35.16-.69.33-1.04.49Z"/>
    <path class="cls-11" d="m4.84,118.3c.79-4.84,1.23-9.11,1.48-13.99.18-3.41,1.07-8.09,4.11-10.21,6.42-4.47,13.64,5.74,15.01,11.04,1.15,4.46.27,9.32-.53,13.76-.23,1.26-.53,6.86-1.43,7.6-.7.56-2.45.08-3.26.19-3.89.49-6.78,2.07-7.25,6.05-.61,5.16.64,10.43-.03,15.56-3.43-4.94-5.35-11.48-7.76-17-.11-.14-.22-.28-.33-.42,0,0,.05.05.05.05-.14-.41-.28-.82-.42-1.23,0,0,.03.04.03.04-.13-3.41-.27-6.83-.4-10.24,0,0-.02.04-.02.04.25-.41.5-.82.75-1.23Z"/>
    <path class="cls-11" d="m6,183.93c.76-4.13,1.67-16.68,7.78-17.41,2.29-.28,6.56,2.46,7.99,4.13,2.41,2.82,2.36,8.06,2.42,11.62.1,6.13-.14,14.39-7.91,15.6-8.16,1.27-9.78-8.02-9.78-13.87-.17-.02-.33-.05-.5-.07Z"/>
    <path class="cls-11" d="m217.61,183.18c-.81,4.93-1.53,17.56-9.73,14.93-5.5-1.76-7.2-9.03-6.58-14.02.6-4.83,3.47-10.53,8.33-12.31,5.48-2.01,7.52,7.39,7.52,11.34.15.02.31.05.46.07Z"/>
    <path class="cls-11" d="m113.07,19.07c-1.76,0-16.26,1.52-12.38-2.97,0,0,2.74-1.03,2.58-.92,2.1-1.49,1.01-.75,1.59-2.87.63-2.3-.38-4.61,1.68-6.54,9.38-8.8,16.32,15.91,6.52,13.3Z"/>
    <path class="cls-4" d="m158.75,145.54c-6.75.65-13.4,1.17-20.18,1.31-4.74.09-14.05,1.97-18.09-.47,12.76-.28,25.52-.56,38.27-.83Z"/>
    <path class="cls-4" d="m118.12,257.15c8.65.21,17.3.53,25.96.58,3.47.02,6.95-.55,10.42-.85-.14.24-.28.47-.41.71-.17,0-.34-.02-.52-.02,0,0,.03-.04.03-.04-.4.15-.81.29-1.21.44,0,0,.03-.05.03-.05-4.2.18-8.4.35-12.6.53-.28,0-.55,0-.83,0-.12-.04-.24-.04-.36,0-.91-.02-1.82-.05-2.73-.07l-1.21-.32c-5.53-.3-11.05-.6-16.58-.9Z"/>
    <path class="cls-4" d="m106.95,143.69c8.83-.44,17.65-.93,26.49-1.28,1.58-.06,3.18.43,4.77.67-1.81.02-3.63.03-5.44.05-6.88.27-13.76.53-20.64.8-1.73-.08-3.45-.16-5.18-.24Z"/>
    <path class="cls-6" d="m17.07,130.19c-.09,7.61-.17,15.22-.26,22.83-.06-2.23-.12-4.46-.18-6.68,0-.15-.01-.3-.02-.45-.1-.52-.2-1.05-.3-1.57-.01-4.19-.05-8.37,0-12.56,0-.53.49-1.05.76-1.57Z"/>
    <path class="cls-3" d="m205.69,237.09c.15-8.55.3-17.1.45-25.65-.15,8.55-.3,17.1-.45,25.65Z"/>
    <path class="cls-3" d="m112.12,143.93c6.88-.27,13.76-.53,20.64-.8-6.88.27-13.76.53-20.64.8Z"/>
    <path class="cls-4" d="m139.83,143c.24-.34.48-.97.73-.97,5.48-.05,10.95-.03,16.43-.02-2.55.12-5.11.21-7.66.36-3.17.19-6.33.42-9.5.63Z"/>
    <path class="cls-3" d="m16.63,146.34c.06,2.23.12,4.46.18,6.68,0,.28.02.56.03.84.07.58.14,1.16.21,1.75.53,2.57,1.05,5.14,1.58,7.71-.76-.41-2.16-.81-2.17-1.23-.06-5.25.08-10.5.17-15.75Z"/>
    <path class="cls-3" d="m4.11,119.49c.13,3.41.27,6.83.4,10.24-.13-3.41-.27-6.83-.4-10.24Z"/>
    <path class="cls-3" d="m139.83,258.44c4.2-.18,8.4-.35,12.6-.53-4.2.18-8.4.35-12.6.53Z"/>
    <path class="cls-4" d="m154.42,256.89c1.6-.54,3.2-1.07,4.8-1.61-1.6.54-3.2,1.07-4.8,1.61Z"/>
    <path class="cls-3" d="m68.81,74.12c-1.19.53-2.39,1.05-3.58,1.58,1.19-.53,2.39-1.05,3.58-1.58Z"/>
    <path class="cls-3" d="m79.07,69.39c-1.06.54-2.11,1.08-3.17,1.62,1.06-.54,2.11-1.08,3.17-1.62Z"/>
    <path class="cls-3" d="m75.12,71.35c-.93.41-1.85.82-2.78,1.23.93-.41,1.85-.82,2.78-1.23Z"/>
    <path class="cls-3" d="m71.57,72.93c-.93.41-1.85.82-2.78,1.23.93-.41,1.85-.82,2.78-1.23Z"/>
    <path class="cls-4" d="m166.23,142.22c-.82.42-1.63.84-2.45,1.25.82-.42,1.63-.84,2.45-1.25Z"/>
    <path class="cls-3" d="m81.45,68.22c-.79.4-1.59.81-2.38,1.21.79-.4,1.59-.81,2.38-1.21Z"/>
    <path class="cls-3" d="m16.32,144.32c.1.52.2,1.05.3,1.57-.1-.52-.2-1.05-.3-1.57Z"/>
    <path class="cls-4" d="m161.9,144.3c-.55.26-1.1.52-1.65.78.55-.26,1.1-.52,1.65-.78Z"/>
    <path class="cls-4" d="m163.86,143.47c-.66.28-1.33.56-1.99.84.66-.28,1.33-.56,1.99-.84Z"/>
    <path class="cls-3" d="m4.84,118.3c-.25.41-.5.82-.75,1.23.25-.41.5-.82.75-1.23Z"/>
    <path class="cls-3" d="m4.48,129.69c.14.41.28.82.42,1.23-.14-.41-.28-.82-.42-1.23Z"/>
    <path class="cls-3" d="m65.25,75.69c-.4.15-.81.29-1.21.44.4-.14.81-.29,1.21-.44Z"/>
    <path class="cls-3" d="m64.09,76.09c-.28.12-.56.23-.83.35.28-.12.56-.23.83-.35Z"/>
    <path class="cls-6" d="m202.96,238.73c.4-.15.8-.3,1.19-.45-.4.15-.8.3-1.19.45Z"/>
    <path class="cls-4" d="m160.32,145.06c-.44.14-.88.28-1.33.43.44-.14.88-.28,1.33-.43Z"/>
    <path class="cls-3" d="m82.54,67.77c-.37.16-.75.32-1.12.48.37-.16.75-.32,1.12-.48Z"/>
    <path class="cls-4" d="m159.15,255.3c.43-.14.87-.29,1.3-.43-.43.14-.87.29-1.3.43Z"/>
    <path class="cls-3" d="m152.39,257.96c.4-.15.81-.29,1.21-.44-.4.15-.81.29-1.21.44Z"/>
    <path class="cls-3" d="m134.7,258.06c.4.11.81.21,1.21.32-.4-.11-.81-.21-1.21-.32Z"/>
    <path class="cls-6" d="m202.18,239.12c.27-.14.55-.27.82-.41-.27.14-.55.27-.82.41Z"/>
    <path class="cls-3" d="m72.37,72.54c-.27.14-.55.28-.82.42.27-.14.55-.28.82-.42Z"/>
    <path class="cls-6" d="m201.39,239.51c.27-.14.55-.27.82-.41-.27.14-.55.27-.82.41Z"/>
    <path class="cls-3" d="m75.92,70.96c-.27.14-.55.28-.82.42.27-.14.55-.28.82-.42Z"/>
    <path class="cls-6" d="m200.53,239.91c.29-.14.59-.28.88-.43-.29.14-.59.28-.88.43Z"/>
    <path class="cls-7" d="m40.62,67.24l.32-.14c0,.15.02.31.03.46-.11-.11-.23-.22-.35-.33Z"/>
    <path class="cls-3" d="m153.57,257.56c.17,0,.34.02.52.02-.17,0-.34-.02-.52-.02Z"/>
    <path class="cls-6" d="m204.56,237.94c.14-.14.28-.28.42-.41-.14.14-.28.28-.42.41Z"/>
    <path class="cls-6" d="m204.14,238.29c.14-.13.29-.26.43-.4-.14.13-.29.26-.43.4Z"/>
    <path class="cls-7" d="m35.36,65.14c-.16.05-.31.11-.47.16.01-.16.03-.33.04-.49.14.11.28.22.43.33Z"/>
    <path class="cls-3" d="m138.64,258.45c.12-.04.24-.04.36,0-.12,0-.24,0-.36,0Z"/>
    <path class="cls-3" d="m4.86,130.87c.11.14.22.28.33.42-.11-.14-.22-.28-.33-.42Z"/>
    <path class="cls-1" d="m101.62,181.8c2.92-3.8,3.92-5.83,8.41-7.82,2.89-1.28,11.03-6.23,12.82-1.08,1.31,3.79-5,7.93-7.51,9.6-5.27,3.53-8.21.93-13.73-.71Z"/>
    <path class="cls-2" d="m81.75,184.6c-.46-10.2-.96-20.41-1.34-30.61-.03-.8.69-1.63,1.07-2.44.51.69,1.43,1.36,1.48,2.09.58,8.87,1.02,17.75,1.5,26.62.26,6.15,2.52,15.9-.53,21.3-3.22-4.26-2-11.68-2.18-16.96Z"/>
    <path class="cls-2" d="m82.52,237.4c-.41,4.54.18,10.49-2.57,14.21-2.85-5.48-.22-15.52.24-21.64.55-8.24,1.07-16.47,1.73-24.7.06-.74,1-1.42,1.53-2.12.38.72,1.12,1.46,1.08,2.15-.61,10.7-1.32,21.4-2.01,32.1Z"/>
    <path class="cls-2" d="m146.53,201.64c.51.57,1.03,1.14,1.54,1.71-.75.33-1.5.95-2.25.96-9.9.06-19.8.04-29.7.03-1.6-.07-3.19-.13-4.79-.2-7.2-.09-14.41-.18-21.61-.27-.33-.65-.65-1.3-.98-1.95,4.71.01,9.43.07,14.14.02,8.09-.08,16.17-.23,24.26-.35,6.46.01,12.92.03,19.39.04Z"/>
    <path class="cls-2" d="m33.64,191.18c4.88.94,9.75,1.88,14.63,2.82,9.66,2.08,19.33,4.14,28.97,6.29.66.15,1.17.96,1.75,1.47-.75.32-1.58,1.04-2.24.91-14.5-2.92-28.98-5.93-43.45-8.99-.59-.13-1.04-.96-1.55-1.47.63-.34,1.26-.68,1.89-1.03Z"/>
    <path class="cls-2" d="m196.63,191.31c-13.77,4.06-27.53,8.14-41.32,12.14-.55.16-1.32-.47-1.99-.73.26-.46.43-1.24.79-1.34,14.03-4.06,28.08-8.05,42.13-12.06.13.66.26,1.33.4,1.99Z"/>
    <path class="cls-2" d="m149.16,234.33c.1-5.09.19-10.17.3-15.26.11-4.77-.45-9.62,1.8-13.87,2.69,6.94.93,16.57.82,23.99-.05.93-.1,1.86-.14,2.79-2.48,6.65,1.08,14.7-2.68,20.9,0,0,.01,0,.01,0-.11-1.84-.23-3.68-.34-5.52.08-4.35.16-8.69.24-13.04Z"/>
    <path class="cls-2" d="m154.36,177.84c-.37,4.46-.73,8.92-1.11,13.38-.31,3.66.11,8.17-2.23,11.07-2.24-4.92-.21-12.75.15-18.11.53-4.96,1.06-9.92,1.59-14.88.84-1.31,1.69-2.61,2.53-3.92-.04.75-.08,1.51-.12,2.26,0,.77-.02,1.54-.02,2.32-.12.41-.24.82-.36,1.23-.13,1.18-.26,2.36-.38,3.54,0,.27-.02.54-.02.81,0,.77-.02,1.54-.03,2.31Z"/>
    <path class="cls-10" d="m155.3,165.38c-.84,1.31-1.69,2.61-2.53,3.92.51-5.71-.52-16.52,3.19-20.94,2.58,3.81-.14,12.51-.66,17.02Z"/>
    <path class="cls-10" d="m127.15,201.6c-8.09.12-16.17.27-24.26.35-4.71.05-9.43-.01-14.14-.02,4.94-.14,9.88-.36,14.82-.39,7.86-.05,15.72.03,23.58.06Z"/>
    <path class="cls-10" d="m149.25,252.89c3.77-6.21.21-14.26,2.68-20.9-.24,6.63-.46,13.25-.81,19.87-.02.38-1.22.69-1.87,1.03Z"/>
    <path class="cls-10" d="m89.73,203.88c7.2.09,14.41.18,21.61.27-7.2-.09-14.41-.18-21.61-.27Z"/>
    <path class="cls-10" d="m148.92,247.37c.11,1.84.23,3.68.34,5.52-.11-1.84-.23-3.68-.34-5.52Z"/>
    <path class="cls-10" d="m154.41,174.72c.13-1.18.26-2.36.38-3.54.07.52.14,1.03.21,1.55-.2.66-.39,1.33-.59,1.99Z"/>
    <path class="cls-10" d="m155.15,169.96c0-.77.02-1.54.02-2.32,0,.77-.02,1.54-.02,2.32Z"/>
    <path class="cls-8" d="m106.31,127.51c-3.7-2.64-8.98-4.62-10.93-8.35-1.7-3.25-.87-9.1,1.02-12.66,2.82-5.31,20.4-5.59,22.79-.21,2,4.51,2.05,11.05.26,15.64-1.05,2.69-7.38,3.32-13.13,5.58Zm1.09-13.2c3.72-1.73,6.98-3.24,10.24-4.75-3.28-1.3-6.56-3.63-9.82-3.6-3.17.03-6.31,2.47-9.47,3.85,2.8,1.39,5.6,2.78,9.06,4.5Zm1.25,8.26c4.82-.63,5.62-.81,8.96-4.55-6.34-3.52-13.24-3.75-19.25.42,3.35,3.8,5.23,3.59,10.29,4.12Z"/>
    <path class="cls-8" d="m127.75,93.56c2.74-1.97,10.01-9.12,11.23-1.16.32,2.12-1.82,5.5-4.21,5.7-2.36.2-5.33-3.39-7.02-4.55Z"/>
    <path class="cls-8" d="m71.08,96.11c3.26-2.6,5.08-5.15,6.87-5.12,1.45.02,4.05,3.19,3.96,4.85-.1,1.77-2.5,4.23-4.37,4.78-1.21.36-3.27-2.17-6.45-4.51Z"/>
    <path class="cls-10" d="m154.36,177.84c0-.77.02-1.54.03-2.31,0,.77-.02,1.54-.03,2.31Z"/>
    <path class="cls-6" d="m17.05,155.61c-.07-.58-.14-1.16-.21-1.75.07.58.14,1.16.21,1.75Z"/>
    <path class="cls-5" d="m107.39,114.31c-3.46-1.72-6.26-3.11-9.06-4.5,3.16-1.38,6.3-3.82,9.47-3.85,3.26-.03,6.55,2.3,9.82,3.6-3.26,1.51-6.52,3.03-10.24,4.75Z"/>
    <path class="cls-5" d="m108.64,122.57c-5.06-.53-6.94-.32-10.29-4.12,6.01-4.17,12.91-3.95,19.25-.42-3.34,3.74-4.14,3.92-8.96,4.55Z"/>
  </g>
</svg>