<?xml version="1.0" encoding="UTF-8"?>
<svg id="_图层_2" data-name="图层 2" xmlns="http://www.w3.org/2000/svg" viewBox="0 0 359.24 300.66">
  <defs>
    <style>
      .cls-1 {
        fill: #f8eee6;
      }

      .cls-1, .cls-2, .cls-3, .cls-4, .cls-5 {
        stroke-width: 0px;
      }

      .cls-2 {
        fill: #988582;
      }

      .cls-3 {
        fill: #fffef7;
      }

      .cls-4 {
        fill: #8c7875;
      }

      .cls-5 {
        fill: #fbedc0;
      }
    </style>
  </defs>
  <g id="_图层_1-2" data-name="图层 1">
    <g>
      <path class="cls-2" d="m227.24,173.9c.96-1.92-.03-4.13,1.11-6.11,1.24-2.16,2.45-4.2,5.18-4.42,2.73-.22,4.45,1.21,5.95,3.51,1.23,1.88,4.5,2.27,4.13,5.45-.89,1.21-2.38.59-3.48,1.14.02-.9.59-2.19-1.13-2.01-2.01.21-2.72-.81-2.76-2.6-.02-.96-.53-1.62-1.37-1.95-.9-.36-1.64.14-2.28.74-1.62,1.51-1.56,3.48-1.44,5.45-1.97.64-2.97,1.81-3.15,3.72-.64.07-1.27.13-1.91.2-.13-.1-.27-.2-.4-.29.05.13.1.26.14.39-6.81,1.39-12.78,4.65-17.66,9.39-7.68,7.47-10.9,17.19-12.35,27.58-.14-.12-.29-.24-.43-.36-.25,3.36-.41,6.72.08,10.07.03-.05.08-.1.1-.16.03-.06.04-.12.06-.19.45,1.57,1.58,3.23.15,4.72-2.09,2.19-3.48,4.76-4.66,7.48-.33.44-.85.84-.96,1.33-1.61,6.83-2.45,13.76-1.83,20.77.13,1.42-.56,3.36,1.24,4.43.37,1.17.7,2.36,1.13,3.51,5.06,13.68,15.93,19.99,29.42,22.17,14.98,2.42,30.09,2.72,45.06-.49,9.77-2.09,18.59-5.85,24.22-14.79,3.03-4.81,4.2-10.25,5.37-15.69.97-5.02.71-10-.42-14.96-.08.07-.17.13-.24.21-.04.04-.04.12-.05.18-1.49-7.05-4.34-13.53-8.17-19.6.74-.53,1.45-.21,2.2,0,.65.18,1.33.25,1.99.36-.33-.59-.73-1.15-.96-1.78-.24-.65-1.85-1.29-.12-2.07,10.33,3.39,20.82,1.83,31.29.97,8.9-.73,16.96-3.82,23.64-9.62,15.2-13.19,15.91-39.95,1.75-54.32-.97-.99-2.15-1.88-2.37-3.47-.68-4.78-1.85-9.44-3.8-13.87-6.03-13.72-15.15-23.73-30.94-25.7,1.06-.74,1.2-2.06.94-2.94-.29-.98-1.58-.57-2.4-.31-1.17.36-.44-.86-.94-1,.11-.5.9-1.36-.56-1.01-.9.22-1.62-.22-1.88-1.01-1.29-3.97-3.21-2.74-5.27-.7-1,.33-1.52.87-.89,1.94-.09.39-.18.78-.28,1.17-1.42.4-2.15-.45-2.77-1.52.4-3.67,2.62-5.87,5.96-6.9,2.01-.62,3.86-.05,4.97,1.97-.08.73.43,1.41-.12,2.23-.53.79.64.91.98,1.38.22.3.65.31.64-.19-.07-2.71,1.72-1.22,2.82-1.27,0,0-.02-.02-.02-.02.15.26.31.52.46.79,0,0-.03,0-.03,0,.09.8.17,1.59.26,2.39.22.64-.71,1.31.05,1.93.48.59,1,.57,1.54.09,11.02,2.25,19.61,8.02,25.45,17.69,4.22,6.99,7.7,14.27,9.01,22.46.58,3.62,3.94,5.51,5.84,8.34,12.24,18.2,8.15,47.1-11.71,58.61-.53.23-1.11.38-1.58.71-6,4.18-12.93,5.2-19.96,5.85-6.63.25-13.26.49-19.89.74-2.69-.3-5.38-.61-8.07-.91-.15,0-.3.01-.45.02.05.1.1.2.16.29,1.2,2.45,2.41,4.9,3.61,7.35.12.14.23.28.35.42l-.03.04c1.17,4.76,3.21,9.33,3.17,14.35-.12,4.55-.24,9.1-.36,13.65-.13.27-.27.55-.4.82l-.32,2.01c.01.11,0,.22-.03.32-.12.54-.24,1.07-.36,1.61,0,0,.02-.04.02-.04-.14.54-.27,1.08-.41,1.62,0,0,.02-.05.02-.05-.65.79-1.56,1.48-.9,2.7-1.78,5.69-5.34,10.11-9.83,13.88-3.55,2.42-7.21,4.61-11.26,6.13-8.7,3.26-17.85,4.17-26.99,4.42-16.03.43-32.06.21-46.35-8.78-.15-.11-.3-.21-.44-.32-.23-.16-.46-.32-.69-.48-14.21-11.05-15.89-26-13.31-42.35.82-5.17,2.44-9.92,5.72-14.07.42-.53.33-1.45.47-2.19.58-3.11.6-6.21,0-9.32-.27-.15-.54-.3-.81-.44-1.31-.76-2.62-1.53-3.94-2.29-1.72-3.57.63-7.42,4.7-7.48,1.31-.02,1.73-.42,2.09-1.62,3.68-12.38,10.51-22.2,22.74-27.52.94-.41,1.95-.64,2.93-.96,2.46.01,4.81-.42,7.03-1.51Zm-34.07,35.96c-.13-.48.3-1.25-.65-1.07-.9.17-1.77.58-1.93,1.61-.16.97.64,1.53,1.36,1.56,1.6.06.52-1.55,1.23-2.1Zm-.7,4.04c0,.73-.02,1.45.97,1.34.71-.09,1.24-.54,1.28-1.25.06-.98-.83-1.07-1.49-1.2-1.04-.19-.63.69-.76,1.11Z"/>
      <path class="cls-2" d="m201.07,21.07c7.81,3.07,14.25,7.89,19.93,14.12,6.52,7.16,10.83,15.7,14.68,24.21,2.04,4.52,1.99,1.39,3.2.37,4.19-3.53,9.38-.84,10.82,5.62.21.94.17,1.93.27,2.9.31,3.13-.92,6.15,2.92,8.87,3.89,2.76,1.84,14.6-2.09,17.3-.31.21-.79.54-.77.79.48,6.82-4.92,8.78-9.44,11.48-.15-1.34-.29-2.68-.44-4.02,3.42-1.62,6.79-3.29,6.2-8.02-.12-.96.49-1.54,1.18-2.1,3.42-2.77,4.84-8.52,3.09-12.6-.37-.86-1.09-1.78-2.04-1.53-4.46,1.16-3.39-1.5-2.79-3.88.27-1.07.81-2.13.81-3.2.03-3.32.8-7.51-2.71-9.08-3.64-1.63-4.06,2.71-5.59,4.78l-.15.46c-.31.93-.63,1.86-.94,2.79-1.78.04-1.42-1.53-1.69-2.46-.3-1.06.5-.98,1.32-.95.28.01.89-1,.82-1.47-.09-.63-.7-1.18-1.09-1.76-.32.41-.67.8-.95,1.24-.22.34-.35.74-.52,1.11-.17-.4-.33-.8-.51-1.19-1.12-2.42-.88-5.58-3.79-7.05-1.42-2.39-2.99-4.71-4.24-7.19-7.7-15.37-18.32-26.79-36.86-27.73-.04-1.09,1.17-2.41-.1-3.18-.61-.37-2.57.12-2.62.44-.59,3.52-3.29,1.62-5.02,2.08-.58.15-1.36-.22-1.61.69-1.84.15-3.67.29-5.51.44-2.69-.4-.13-2.52-1.14-3.47,3.44-.12,6.89-.51,10.31-.29,2.71.18,2.99-1.04,2.49-3.03-.52-2.04-1.39-3.97-3.28-5.13-1.14-.7-2.4-2.5-3.65-1.31-1.32,1.25-1.02,3.47-.61,5.21.21.9,1.49,1.61.55,2.7-1,1.16-2.27.68-3.44.29-1.5-.5-2.45-.31-2.35,1.55-2.02.28-5.31-.6-3.13,3.47-5.16.89-10.45,1.02-15.43,2.95-12.1,4.68-21.32,12.72-28.04,23.73-.83,1.36-1.6,2.76-2.4,4.14,1.63.41,2.94-.8,4.47-.91.39-.03.77-.09,1.16-.14-.41,1.22-.82,2.45-1.23,3.67,1.11-.18,2.23-.35,3.34-.53-2.91,6.11-5.82,12.21-8.73,18.32-2.18.36-4.45.6-4.72,3.52-2.08-3.73-2.73-8.2-6.22-11.21-3.29-2.83-4.89-2.68-6.87,1.08-.61.36-1.22.71-.58,1.54-.03.26-.05.53-.08.79-1.47,1.07-.47,2.6-.68,3.9-.13.77-.24,1.56-1.08,1.59-1.03.04-.91-.95-.89-1.59.1-2.73.28-5.46.43-8.19.97-2.59,2.84-4.49,5.53-4.57,4.25-.13,7.01,2.76,9.25,5.96,1.09,1.56,1.63,3.51,2.43,5.28.15.33.33.65.5.97.19-.25.42-.49.55-.77,2.13-4.73,4.25-9.47,6.35-14.21.17-.38.17-.83.24-1.25-.43.06-.86.06-1.28.18-.75.2-1.48.49-2.23.71-1.66.47-3.44,2.15-5,.31-1.39-1.63.21-3.33.97-4.61,8.27-13.97,18.35-26.08,34.55-31.24,4.18-1.33,8.53-2.23,12.97-2.45.42.43.81.41,1.16-.08.72-2.93,1.3-5.92,5.17-6.35.77-.09.31-.99.36-1.53.3-2.68.96-5.21,3.6-6.52,2.56-1.28,4.64.17,6.65,1.54,3.74,2.55,5.75,6.09,5.99,10.62.04.68-.15,1.5.9,1.62,1.21,1.17,2.54.69,3.87.3.4.13.81.26,1.21.39.67.11,1.34.22,2.01.33.11-.02.21,0,.32.03.6.38,1.16.96,1.95.39Zm-76.62,33.39s-.07-.09-.11-.13c-.03.08-.05.16-.08.24.04,0,.09.02.12,0,.03-.02.05-.07.07-.11Z"/>
      <path class="cls-2" d="m66.79,283.65c-6.39-6-10.74-13.14-12.18-21.9.35-.8.7-1.61-.23-2.28-.06-.28-.13-.56-.19-.83.54-1.81.55-3.62,0-5.43,0-.4.02-.8.02-1.2.96-.77,1.27-1.65.44-2.71,2.85-4.7,2.18-10.21,3.51-15.26.08-.26.17-.53.25-.79l.1-1.14s-.04,0-.04,0c.14-.4.28-.79.42-1.19l-.03.02c.63-.53.92-1.35.51-1.94-.65-.93-1.04.53-1.68.4-15.46,2.38-30.33,1.47-43.66-7.89-9.06-7.67-12.58-17.94-13.77-29.3.15-.94.23-1.9.49-2.81.1-.36.6-.6.92-.89.11.12.34.28.32.36-.69,2.32,1.57,2.78,2.53,4.04-.13.26-.39.53-.36.77,1.34,11.09,5.19,20.99,15.16,26.99,13.01,7.83,27.09,7.98,41.44,4.35.05.31.12.62.15.93.06.88-1.29,1.97-.47,2.36.7.33,2.22-.31,2.93-.99.7-.67,1.42-2.43,1.09-2.83-.71-.85-1.35-1.45-.98-2.61l-.02.04c.14-.2.28-.41.43-.61,2.65-2.64,3.21-5.98,3.57-9.53.23-2.25,1.23-4.43,1.89-6.64,1.17.19,2.33-.87,3.51-.03-1.04,2.52-1.66,5.14-2.07,7.85-.36,2.42.21,5.02-1.75,7.17-5.4,5.93-7.58,13.25-8.75,20.98-1.49,1.52-.29,3.41-.71,5.07-.1.39.36,1.4-.46,1.11-3.87-1.37-2.16,1.83-2.12,2.87.06,1.54.18,3.02-.05,4.58-.13.86-.71,2.09.59,2.75,1.7,14.47,9.18,24.76,22.85,29.79,17.69,6.51,35.93,6.47,54.13,2.59,15.65-3.34,25.88-12.6,28.95-28.81,2.12-1.13,1.74-3.65,2.94-5.3,0,0-.07.09-.07.09.14.14.29.29.43.43,0,0-.04,0-.04,0,.06,1.7-.43,3.44.27,5.11-1.25,9.26-5.83,16.73-12.48,23.07-3.03,2.11-5.95,4.42-9.42,5.82-14.08,5.66-28.8,6.5-43.66,5.2-12.45-1.08-24.61-3.5-34.66-11.82Z"/>
      <path class="cls-1" d="m199.63,283.65c.23.16.46.32.69.48.15.11.3.21.44.32,14.3,8.99,30.32,9.21,46.35,8.78,9.14-.24,18.29-1.16,26.99-4.42,4.04-1.51,7.71-3.71,11.26-6.13.62,2.24,3.26,2.08,4.46,3.96,2.07,3.25,1.63,5.2-2.04,6.78-7.34,3.15-15.15,4.84-22.93,5.57-7.89.74-15.89,1.18-23.9.87-6.69-.25-13.35-.7-20.02-1.08-7.64-.43-14.97-2.1-22.25-4.1-2.58-.71-5.96-1.92-5.62-5.18.34-3.32,2.81-5.67,6.58-5.85Z"/>
      <path class="cls-1" d="m66.79,283.65c10.06,8.32,22.21,10.74,34.66,11.82,14.86,1.29,29.58.45,43.66-5.2,3.47-1.39,6.39-3.7,9.42-5.82,1.14.98,2.91.31,3.98,1.61,3.62,4.45,2.15,7.25-5.09,9.72-7.78,2.65-15.86,3.56-23.98,4.25-11.01.93-22.03.72-33.03.02-6.22-.39-12.48-.94-18.61-2.02-5.69-1-11.26-2.69-16.81-4.34-1.43-.42-2.56-1.89-2.52-3.62.05-2.46,1.99-3.75,3.76-4.86,1.32-.83,3.03-1.06,4.56-1.56Z"/>
      <path class="cls-1" d="m217.89,158.23c2.55-1.72,5.07-.46,7.57.14.78.18,1.47.73,2.19,1.12.91.48,1.61,1.1,1.55,2.25-.06,1.26-.56,2.12-1.75,2.77-5.58,3.07-11.8,2.29-17.76,3.12-8.68,1.21-17.42,1.42-26.12,1.19-9.3-.25-18.64.13-27.89-1.28-.27-.04-.48-.5-.71-.76,3.16-1.87,3.67-5.37,5.09-8.3.83-.03,1.65-.06,2.48-.09.6.07,1.2.15,1.8.22.37.01.74.03,1.11.04.12.02.24.03.36.05h1.34s.12.08.12.08l.14-.02c.66.05,1.32.1,1.97.14,9.77.32,19.52.17,29.27-.57.16.87.32,1.75.48,2.62.15,2.35,1.23,4.1,3.47,4.94,1.56.59,3.31.22,4.01-1.14,1.45-2.84,3.27-1.92,5.4-1.21,2.06.68,4.42,1.54,6.3-.12,1.89-1.67-.09-3.46-.43-5.19Z"/>
      <path class="cls-1" d="m291.12,223.7c2.69.3,5.38.61,8.07.91,6.65.33,13.29.21,19.89-.74,7.03-.65,13.96-1.67,19.96-5.85.46-.32,1.05-.47,1.58-.71,3.22.87,6.66,1.62,7.72,5.34.71,2.5-3.3,5.83-6.6,6.76-8.42,2.38-16.98,3.5-25.68,3.94-6.74.34-13.43.6-19.97-1.53-.41-.13-.89,0-1.35,0,0,0,.03-.04.03-.04-.01-.18-.02-.35-.03-.53-.1.04-.21.08-.31.12-1.2-2.45-2.41-4.9-3.61-7.35.1-.1.19-.21.29-.31Z"/>
      <path class="cls-1" d="m14.01,221.52c13.34,9.37,28.2,10.27,43.66,7.89.55.4,1.36.59,1.18,1.54,0,0,.03-.02.03-.02-.14.4-.28.79-.42,1.19,0,0,.04,0,.04,0-.57.33-.56.71-.1,1.14-.08.26-.17.53-.25.79-2.21,3.46-5.93,2.61-8.97,2.6-7.73-.01-15.5-.34-23.19-1.14-5.68-.59-11.45-1.32-16.82-3.51-4.72-1.92-5.05-5.01-.95-8.09,1.7-1.28,3.63-2.16,5.8-2.39Z"/>
      <path class="cls-2" d="m2.97,185.21c.01-.4.02-.79.03-1.19,1.32-.88.74-2,.39-3.09.71-7.1,3.62-13.47,6.5-19.88,1.56-3.46,4.01-6.36,5.76-9.55,1.81-3.31,1.55-7.77,2.14-11.74,2.36-15.9,17.84-31.86,32.46-33.44,1.66.18,3.1.53,2.03,2.74-19.96,4.34-29.14,17.99-32.04,37.07-.35,2.29.37,4.96-1.07,6.81-8.01,10.33-12.36,21.93-12.76,35-1.9.04-3.21-.68-3.45-2.73Z"/>
      <path class="cls-2" d="m246.39,173.51c2.37.51,4.74,1.04,7.11,1.53.62.13,1.27.86,1.89-.03-.4,1.47-.45,2.9,1.15,3.67,1.3.63,2.1,0,2.39-1.35,1.91,1.22,3.67,2.88,5.75,3.57,2.76.92,3.3,6.59,7.96,3.6.69-.44,2.52,1.03,3.87,1.46,2.03.64,4.36,1.7,6.13.17,1.86-1.61,1.07-4.03.19-6-1.08-2.42-2.42-4.73-3.68-7.07-.58-1.08-.94-2.11.42-2.81,1.23-.64,2.19-.06,2.76,1.03,1.47,2.82,2.98,5.63,4.22,8.55.56,1.32.77,2.93.69,4.37-.35,5.71-5.74,7.81-12.3,4.9-.57-.25-1.18-.43-1.77-.65.34.57.65,1.17,1.03,1.72,5.62,8.08,10.38,16.5,10.86,26.67-1.11-.4-2.22-.8-3.33-1.19-2.67-14.61-9.98-26.17-22.54-34.27-4.97-3.21-10.65-4.22-16.35-5.15.39-1.94,1.78-2.58,3.55-2.73Z"/>
      <path class="cls-2" d="m198.67,158.34c-9.75.74-19.5.89-29.27.57-1.62-1.23-3.34-.75-5.06-.29-.6-.07-1.2-.15-1.81-.22-.85-.68-1.69-1.09-2.48.09-1.43,2.93-1.93,6.43-5.09,8.3-1.34.6-2.63.52-3.88-.26-1-3.46-3.25-3.71-6.15-2.44-.59.26-1.25.33-1.87.53-1.13.37-2.21.46-2.97-.67-.79-1.18.11-1.92.79-2.7,2.41-.5,4.82-.88,7.19-1.67,1.44-.48,3.35-.33,4.59,1.2.46.57.1,1.96,1.01,1.76.66-.14,1.19-1.29,1.58-2.08.33-.68.37-1.49.55-2.24,2.48.37,4.19-.03,3.07-3.16,4.86.13,9.71.28,14.57.4,8.83.21,17.66.32,26.46-.68-.41,1.19-.83,2.37-1.24,3.56Z"/>
      <path class="cls-2" d="m69.4,105.43c16.42,3.69,27.44,13.13,31.57,29.81.4,1.62.79,2.6,2.72,3.01,2.47.53,4.54,2.12,3.95,5.09-.47,2.31-2.16,3.61-4.66,3.54-1.43-.9-1.42-1.8,0-2.69.25-.83,1.85-.96,1.29-2.06-.25-.48-1.4-.98-1.85-.79-.99.43-.44,1.57-.54,2.41-2.15,1.88-2.65.59-2.79-1.44-.1-1.33-.25-2.66-.39-3.99-.02-.18-.03-.67-.34-.14-.09.15-.05.38-.07.57-1.74-8.72-5.34-16.38-12.43-22.1-5.31-4.28-11.41-6.81-18.04-8.18.54-1.01,1.07-2.02,1.61-3.03Z"/>
      <path class="cls-2" d="m161.21,209.03c-.11.02-.22.03-.33.02-3.07-.08-1.04-1.52-.67-2.52l.12.1.08-.34c.33-.64,1.61-.94,1.04-1.81-.33-.5-1.36-.75-2.07-.74-.91,0-.3.92-.52,1.39-.55.86-.37,2.33-1.71,2.48-.4.04-.9-.84-1.36-1.29-.37-1.91-.58-3.86-1.12-5.72-4.11-13.9-12.8-23.18-27.14-26.69.15-.1.29-.19.44-.29-.04-.04-.08-.1-.11-.1-2.5-.03-2.32-1.28-1.33-2.91.11,0,.2.03.28.09.53.58,1.06.59,1.6,0,10.97,2.4,19.52,8.15,24.98,18.13.99,1.82,2.1,3.62,2.75,5.57,1.11,3.33,1.85,6.66,6.46,6.75,1.42.03,2.46,1.5,2.41,3.13-.06,1.88-.53,3.63-2.62,4.33-.66-.64-.87,0-1.16.41Z"/>
      <path class="cls-2" d="m258.53,144.51c-2.43-1.44-4.41-3.31-3.63-6.39.79-3.13,3.48-4.03,6.33-4.15,1.16-.05,1.33-.64,1.71-1.4,5.44-10.95,13.81-18.49,25.68-21.9.37-.1.77-.08,1.16-.11,1.49,0,2.97.02,4.46,0,.92-.01,1.25.63,1.42,1.32.24.97-.59.56-.99.63-.55.09-1.21-.1-1.35.73-.14,0-.29.01-.43.02-.48-.08-.95-.17-1.43-.24-.02,0-.05.08-.07.13l1.13.15c-.81.2-1.63.37-2.43.59-13.26,3.6-21.48,12.36-25.79,25.14-1.42.54-.13,5.65-3.86,2.29.14-.75.26-1.51.43-2.25.67-2.94-1.29-1.34-1.87-.91-1.96,1.46.05,2.31.71,3.36.28,1.26.25,2.39-1.16,3Z"/>
      <path class="cls-2" d="m240.49,107.44c.7,9.98.05,19.71-3.84,29.16-3.89,9.46-11.23,14.69-20.33,18.13-.79-.83-2.53-.75-2.37-2.48,1.37-.57,2.76-1.11,4.12-1.72,11.18-5.03,16.37-14.43,18.82-25.82.08.1.15.21.25.29.04.03.12.02.18.03.32-4.16,1.03-8.33.12-12.5,0-.27,0-.54,0-.81.65-1.69-.28-4.5,3.05-4.28Z"/>
      <path class="cls-2" d="m140.02,155.48c-1.62-1.63-3.87-2.03-5.82-3.02-6.56-3.31-11.64-8.12-15.18-14.56.63-.75.05-.92-.52-1.09,0,0,.02,0,.02,0,0-1.52-.42-2.88-1.59-3.94,0,0,.06,0,.06,0-2.44-8.57-1.89-17.36-1.9-26.11,0-1.01-.04-1.89,1.37-2.13,1.63-.28.58,1.33,1.31,1.61-.01.14-.03.29-.04.43-1.15,5.79-1.16,11.56.22,17.32l-.09.02c.15.73-.51,1.7.63,2.14,1.33,6.43,3.94,12.17,8.6,16.96,5.55,5.71,12.58,8.34,20.06,10.14.01.7-.4,1.36-1.01,1.02-2.45-1.39-4.1.76-6.13,1.21Z"/>
      <path class="cls-2" d="m165.93,252.63s.1.02.1.02c-.19.39-.31.86-.6,1.17-.67.72-1.68,2.05-2.1,1.89-1.27-.46-.21-1.62-.17-2.5.06-1.44.93-2.86.03-4.31-.04-2.72.1-5.46-.15-8.16-.5-5.37-.72-10.78-4.66-15.24-1.72-1.95-3.21-4.5-2.11-7.5,1.38-1.92.36-4.09.6-6.13.11-.96.35-1.81,1.33-1.82,1.18-.01.58,1.07.64,1.65.29,2.74.5,5.49.74,8.24.18.67.16,1.53.57,1.97,5.64,6.02,5.97,13.67,6.5,21.21.17,2.42-.24,4.89-.38,7.33-.77.62-.72,1.36-.34,2.16Z"/>
      <path class="cls-2" d="m217.89,158.23c.34,1.73,2.32,3.52.43,5.19-1.88,1.66-4.24.81-6.3.12-2.14-.71-3.96-1.62-5.4,1.21-.69,1.36-2.45,1.73-4.01,1.14-2.23-.84-3.31-2.59-3.47-4.94.19-2.27,1.25-3.33,3.6-2.58.13,1.13-.15,2.72,1.04,3.11,1.28.43,1.24-1.35,1.91-2.04,1.26-1.29,2.55-1.07,4.06-.44,1.22.51,2.59.67,3.89.99-.08-1.5-1.36-2.2-2.13-3.24,1.47-.42,2.93-.83,4.4-1.25.66.91,1.32,1.82,1.98,2.73Z"/>
      <path class="cls-2" d="m111.2,103.88c-4.34-.94-7.44-4.5-7.66-8.86-.04-.8-.23-1.31-1.01-1.66-2.33-1.06-3.27-3.03-3.41-5.48.54-2.34.6-4.67-.03-7,.08-1.88.78-3.31,2.75-3.84,1.24.87.51,2.26.88,3.36-1.62,4.65-.45,8.2,3.5,10.89.47.32,1.06,1.11.95,1.52-1.09,4.33,1.46,6.32,4.83,7.83.26.17.52.35.78.52v-.02c2.24.36,2.03,2.01,1.89,3.61-.26-.05-.52-.11-.78-.16-.72-.92-1.62-1.15-2.7-.7Z"/>
      <path class="cls-2" d="m115.45,21.53c-3.59-3.39-7.2-6.75-10.74-10.19-1.37-1.32-1.89-2.86-.15-4.36,1.81-1.56,2.96-.47,4.2.95,3.21,3.65,6.51,7.21,9.78,10.81.11,2.19-1.37,2.63-3.09,2.78Z"/>
      <path class="cls-4" d="m140.02,155.48c2.02-.45,3.68-2.6,6.13-1.21.61.34,1.02-.32,1.01-1.02,3.91.6,7.82,1.2,11.73,1.81,1.12,3.14-.59,3.53-3.07,3.16-5.27-1.55-10.43-1.77-15.33,1.25-2.09-.31-5.17,2.29-5.88-2.02,1.26-2.15,3.38-1.97,5.42-1.97Z"/>
      <path class="cls-2" d="m52.58,105.87c.11-3.22.11-6.49,4.65-6.64.25,0,.5-.53.72-.84,3.39-4.7,7.55-4.36,10.18.87.91,1.82,1.49,3.75,1.13,5.83-1.37.21-2.52-.02-3.05-1.51-.14-.36-.27-.72-.44-1.07-.75-1.55-1.22-3.81-3.11-3.82-1.83-.01-2.06,2.11-2.4,3.72-.21,1-.96,1.78-1.97,1.13-2.52-1.61-1.68.43-1.76,1.51-1.32.27-2.63.54-3.95.81Z"/>
      <path class="cls-2" d="m126.45,170.04c.01.11,0,.21-.02.31-1.79-.03-2.79-.83-2.69-2.72.09-2.75-.96-5.42-3.64-5.6-3-.19-2.81,2.71-2.66,4.97.01.19-.03.55-.08.55-3.09.37-2.97,3.12-3.83,5.14l-.09-.07c0-1.15-.21-2.7-1.15-2.96-3.45-.93-.6-2.71-.74-4.06,0,0-.02.02-.02.02.86.49,2.31-1.52,2.77.66.09.43-.21,1.25.63,1.07.7-.15,1.6-.47,1.92-1.01.42-.71-.55-.94-1.04-1.31-.53-.39-.99-.88-1.49-1.32.65-3.75,3.12-5.56,6.67-5.23,3.63.34,6.66,5.52,6.04,9.54-1.05.42-.48,1.32-.59,2.01Z"/>
      <path class="cls-2" d="m237.82,25.84c-.82-.14-1.63,0-1.82-.8-.22-.95-.3-2.06.56-2.73,3.77-2.95,7.52-5.92,11.42-8.7,1.29-.92,2.59-.19,3.44,1.15.88,1.38.07,2.15-.95,2.88-3.48,2.47-6.95,4.98-10.47,7.4-.66.46-1.56.57-2.18.79Z"/>
      <path class="cls-1" d="m134.6,157.45c.71,4.31,3.79,1.71,5.88,2.02.14.59.27,1.18.41,1.78-.68.78-1.59,1.52-.79,2.7.76,1.12,1.84,1.03,2.97.67.62-.2,1.28-.27,1.87-.53,2.89-1.27,5.15-1.02,6.15,2.44-.05,1.15-.89,1.32-1.63.97-4.01-1.88-8.46-.56-12.54-1.84-2.62-.82-5.48-1.33-6.17-4.65-.67-3.23,2.75-2.17,3.86-3.56Z"/>
      <path class="cls-2" d="m110.03,33.97c-3.24-.55-6.93-1.27-10.39-2.84-1.23-.56-2.39-1.53-1.92-3,.49-1.56,2.11-1.86,3.44-1.46,3.79,1.15,7.53,2.48,11.24,3.85.82.3,1.6,1.01,1.23,2.14-.52,1.61-1.9,1.28-3.61,1.32Z"/>
      <path class="cls-2" d="m247.51,32.16c2.2,0,4.41-.1,6.6.04,1.23.08,2.46.53,2.42,2.21-.04,1.62-1.14,1.76-2.38,1.91-4,.48-7.99.62-11.99-.01-1.33-.21-2.76-.59-2.65-2.24.1-1.67,1.39-2.12,2.95-2.05,1.68.07,3.37.02,5.05.02,0,.04,0,.08,0,.13Z"/>
      <path class="cls-2" d="m236.45,8.66c-1.66,3.44-3.96,6.99-6.86,10.11-.53.57-1.97.78-2.64-.18-.59-.85-1.05-1.83-.2-3.01,2.09-2.87,4.03-5.86,6.06-8.78.51-.74,1.07-1.52,2.22-1.02,1.07.46,1.3,1.35,1.41,2.89Z"/>
      <path class="cls-2" d="m107.66,170.38c.1-.05.21-.06.32-.05,1.04-.01,2.61-.08,2.67.98.15,2.57,1.86.93,2.78,1.32l.09.07c-2.61.37-5.23.74-7.84,1.11.04-3.16-1.74-3.45-4.21-2.66-.45-3.65-1.43-7.16-2.78-10.58-.24-2.12,1.62-1.81,2.73-2.37,1.75,3.44,2.82,7.1,3.34,10.9.17,1.25.7,1.48,1.74,1.3.39.44.77.45,1.15-.01Z"/>
      <path class="cls-2" d="m256.15,168.56c.15-3.45,1.48-6.44,3.54-9.15.78.86,1.61.91,2.55.22,1.59-1.18.5.4.67.67,0,0-.06-.1-.06-.1-.13.33-.27.66-.4.99-2.83,4.9-3.61,10.27-3.6,15.82-2.66-.22-3.19-2.12-3.39-4.28.02-.4.03-.81.05-1.21,1.34-.73.38-1.97.65-2.94Z"/>
      <path class="cls-2" d="m127.7,1.73c1.31,3.44,2.68,6.85,3.9,10.32.46,1.31.97,2.93-.9,3.66-1.89.74-2.75-.56-3.33-2.05-.71-1.81-1.33-3.65-1.99-5.48-.04-.81.03-1.65-.15-2.44-.51-2.2-.85-4.21,2.47-4.02Z"/>
      <path class="cls-4" d="m215.91,155.5c-1.47.42-2.93.83-4.4,1.25-2.77.39-5.55.77-8.32,1.16-.17.13-.33.26-.5.4l.07.07c-2.35-.75-3.41.31-3.6,2.58-.16-.87-.32-1.75-.48-2.62.41-1.19.83-2.37,1.24-3.56,4.68-.84,9.36-1.68,14.04-2.52-.15,1.73,1.59,1.65,2.37,2.48-.14.26-.27.51-.41.77Z"/>
      <path class="cls-4" d="m101.44,158.2c-1.11.56-2.97.25-2.73,2.37-2.59-2.91-1.12-5.96-.31-8.99l.07-.74c-.07-4.04-.13-8.07-.2-12.11.02-.19-.02-.42.07-.57.32-.53.33-.04.34.14.14,1.33.29,2.66.39,3.99.15,2.04.64,3.32,2.79,1.44.37.15.74.3,1.11.44-1.42.89-1.43,1.79,0,2.69-1.12.04-1.07.75-1.09,1.62-.09,3.24-.28,6.47-.44,9.71Zm-.02-6.45c0-1.31-.05-1.71,0-2.09.19-1.37-.32-2.56-1.7-2.48-1.25.07-.51,1.44-.62,2.22-.18,1.27-.08,2.59-.31,3.85-.28,1.55,1.08,2.08,1.85,2.35.75.26.26-.98.4-1.53.26-1.06.35-2.16.38-2.34Z"/>
      <path class="cls-4" d="m114.68,104.74c.13-1.6.35-3.25-1.89-3.61.93-.19,2.33.62,2.53-1.17l.12-.44c0-.23.01-.47.02-.7.93.5-.24,2.05,1.2,2.34,1.01.2,1.07-.72,1.55-1.15.52,2.13-.21,4.16-.45,6.23-.73-.28.32-1.89-1.31-1.61-1.41.24-1.37,1.12-1.37,2.13.01,8.75-.54,17.54,1.9,26.11-2.89-6.52-2.74-13.44-2.61-20.35.05-2.6.19-5.19.29-7.79Z"/>
      <path class="cls-2" d="m259.46,149.27c-.01-.52-.03-1.04-.04-1.56,1.27.54.66-.64.62-.84-.32-1.86,1.27-2.26,2.25-2.21,1.15.06-.12,1.13.11,1.79.26.76.29,1.6.42,2.41.23,2.34.45,4.69.68,7.03-.61-.28-1.2-.72-1.84.01-.37.43-.85.76-1.28,1.13-.1-.69-.17-1.38-.29-2.06-.35-1.89.74-3.93-.61-5.71Z"/>
      <path class="cls-4" d="m163.19,248.91c.9,1.44.03,2.87-.03,4.31-.04.88-1.1,2.04.17,2.5.42.15,1.43-1.18,2.1-1.89.29-.31.4-.77.6-1.17.13,1.03.26,2.07.39,3.1-1.19,1.64-.82,4.16-2.94,5.3-.09,0-.18,0-.27,0-1.76-.19-4.18.17-2.48-2.94,1.95-2.77,1.96-6.05,2.45-9.2Z"/>
      <path class="cls-4" d="m2.97,185.21c.24,2.06,1.55,2.77,3.45,2.73.63,1.16,1.25,2.33,1.88,3.49-1.66-.42-2.75.29-3.46,1.75-.11-.09-.21-.18-.32-.28-.96-1.27-3.22-1.72-2.53-4.04.02-.08-.21-.24-.32-.36-.32.29-.82.54-.92.89-.26.91-.34,1.87-.49,2.81-.4-2.08-.68-4.02,2.16-4.73,1-.25.3-1.52.56-2.27Z"/>
      <path class="cls-4" d="m159.58,219.95c-.24-2.75-.45-5.5-.74-8.24-.06-.58.54-1.66-.64-1.65-.98.01-1.22.86-1.33,1.82-.24,2.04.79,4.21-.6,6.13.58-3.93-.43-7.79-.48-11.7.46.46.96,1.34,1.36,1.29,1.34-.15,1.16-1.61,1.71-2.48.07.83-.16,1.94,1.34,1.4-.37,1-2.39,2.44.67,2.52-1.55.72-1.32,2.07-1.29,3.41.05,2.49,0,4.99,0,7.49Z"/>
      <path class="cls-4" d="m102.72,80.38c-.36-1.1.37-2.49-.88-3.36.44-3.24-.56-6.58.71-9.76.16-.41.33-.82.49-1.24-.15,2.73-.33,5.46-.43,8.19-.02.64-.14,1.63.89,1.59.83-.03.95-.82,1.08-1.59.21-1.3-.79-2.83.68-3.9-.8,3.07,1.39,5.98.51,9.05-.13-.6-.26-1.19-.4-1.79-.98.51-1.1,1.46-1.24,2.41-.47.13-.94.25-1.41.38Z"/>
      <path class="cls-4" d="m293.31,113.22c.14-.83.8-.64,1.35-.73.4-.07,1.23.34.99-.63-.17-.68-.5-1.33-1.42-1.32-1.48.02-2.97,0-4.46,0,1.52-1.01,4.56.64,4.73-2.72.62,1.06,1.35,1.91,2.77,1.52,1.22.56,3.15.75,2.54,2.69-.56,1.81-2.07,1.59-3.66,1.02-.82-.29-1.89.09-2.84.17Z"/>
      <path class="cls-4" d="m52.58,105.87c1.32-.27,2.63-.54,3.95-.81.95.45,2.06.89,1.81,2.18-.26,1.29-1.46,1.53-2.58,1.64-1.16.11-2.33.12-3.49.17,1.07-2.2-.37-2.56-2.03-2.74.78-.15,1.56-.29,2.33-.44Z"/>
      <path class="cls-4" d="m259.46,149.27c1.36,1.78.26,3.82.61,5.71.13.68.2,1.37.29,2.06.43-.38.91-.71,1.28-1.13.64-.73,1.23-.3,1.84-.01.02.17.04.34.06.51,0,.08,0,.17,0,.25l-.55.4c.07.07.15.15.22.22.13-.19.26-.37.38-.56.08,0,.16,0,.23,0,.62,1.45.27,2.64-.94,3.61-.18-.28.92-1.85-.68-.67-.94.69-1.77.65-2.55-.22-.08-3.38-.15-6.76-.23-10.14Z"/>
      <path class="cls-4" d="m240.49,107.44c-3.33-.22-2.4,2.59-3.05,4.28-.16-1.38-.32-2.76-.48-4.15-.33-2.51.63-4.28,3.03-5.19.06.11.12.22.16.34.15,1.34.29,2.68.44,4.02-.03.23-.07.47-.1.7Z"/>
      <path class="cls-4" d="m262.81,148.85c-.13-.81-.15-1.65-.42-2.41-.23-.66,1.05-1.73-.11-1.79-.98-.05-2.57.35-2.25,2.21.03.2.64,1.38-.62.84-.37-1.05,1.11-2.6-.88-3.2,1.41-.6,1.44-1.74,1.16-3,.24-.07.49-.13.73-.2,3.73,3.36,2.44-1.74,3.86-2.29-.07.23-.15.45-.22.68-.03.32-.05.63-.08.95-.39,2.73-.78,5.47-1.17,8.2Z"/>
      <path class="cls-4" d="m246.39,173.51c-1.77.15-3.16.79-3.55,2.73-1.23,0-2.67.51-3.52-.64-.5-.68.13-1.56.81-2.13,1.1-.55,2.59.07,3.48-1.14.41,1.62,1.99.49,2.78,1.18Z"/>
      <path class="cls-4" d="m123.74,167.63c-.1,1.89.9,2.69,2.69,2.72.07.08.1.16.09.26-.99,1.63-1.17,2.88,1.33,2.91.04,0,.08.07.11.1-.15.1-.29.19-.44.29q-5.43-.64-3.92-5.92c.04-.12.09-.24.13-.36Z"/>
      <path class="cls-4" d="m66.21,103.59c.53,1.49,1.69,1.72,3.06,1.51.06.1.1.21.14.33-.54,1.01-1.07,2.02-1.61,3.03-.39,0-.79-.01-1.18-.02-.24-.08-.48-.16-.72-.25-3.14-1.76.71-3.04.32-4.61Z"/>
      <path class="cls-5" d="m127.7,1.73c-3.32-.19-2.98,1.82-2.47,4.02.18.78.11,1.62.15,2.44-.95-1.86-1.88-3.72-1.67-5.9.12-1.27.85-2.05,2.07-2.25,1.24-.2,1.73.62,1.92,1.7Z"/>
      <path class="cls-4" d="m113.44,172.62c-.92-.38-2.64,1.25-2.78-1.32-.06-1.05-1.63-.99-2.67-.98,3.09-.13,1.47-3.83,3.57-4.72.14,1.34-2.71,3.13.74,4.05.94.25,1.14,1.8,1.15,2.96Z"/>
      <path class="cls-4" d="m297.56,259.82c.12-4.55.24-9.1.36-13.65.51,4.57.45,9.12-.36,13.65Z"/>
      <path class="cls-4" d="m255.45,172.72c.21,2.16.74,4.06,3.39,4.28.04.11.07.22.08.34-.3,1.35-1.09,1.98-2.39,1.35-1.6-.77-1.55-2.2-1.15-3.67.02-.77.05-1.53.07-2.3Z"/>
      <path class="cls-4" d="m114.34,163.72c.49.45.95.93,1.49,1.32.49.36,1.46.59,1.04,1.31-.32.54-1.22.86-1.92,1.01-.84.18-.54-.64-.63-1.07-.47-2.17-1.92-.17-2.77-.66.55-1.2,2.46-.41,2.8-1.92Z"/>
      <path class="cls-5" d="m115.45,21.53c1.73-.15,3.2-.58,3.09-2.78,1.47.83,1.55,1.99.52,3.14-1.28,1.43-2.5.71-3.61-.37Z"/>
      <path class="cls-4" d="m192.5,215.73c.61,3.1.58,6.21,0,9.32,0-3.11,0-6.21,0-9.32Z"/>
      <path class="cls-4" d="m309.77,105.05c-1.1.05-2.89-1.44-2.82,1.27.01.5-.42.49-.64.19-.35-.47-1.51-.59-.98-1.38.55-.82.04-1.5.12-2.23.72,2.17,3.36.48,4.33,2.15Z"/>
      <path class="cls-4" d="m227.24,173.9c-2.22,1.09-4.58,1.53-7.03,1.51,2.25-.93,4.61-1.37,7.03-1.51Z"/>
      <path class="cls-4" d="m54.18,253.22c.55,1.81.54,3.62,0,5.43,0-1.81,0-3.62,0-5.43Z"/>
      <path class="cls-4" d="m167.01,261.38c-.7-1.67-.21-3.4-.27-5.11,1.19,1.64.46,3.39.27,5.11Z"/>
      <path class="cls-4" d="m187.75,212.99c1.31.76,2.62,1.53,3.94,2.29-1.73-.04-3.12-.67-3.94-2.29Z"/>
      <path class="cls-4" d="m195.58,19.94c-1.33.39-2.66.88-3.87-.3,1.29.1,2.58.2,3.87.3Z"/>
      <path class="cls-4" d="m99.09,80.87c.63,2.33.57,4.67.03,7,0-2.33-.02-4.67-.03-7Z"/>
      <path class="cls-4" d="m116.94,132.87c1.16,1.06,1.58,2.41,1.59,3.94-.9-1.16-1.38-2.5-1.59-3.94Z"/>
      <path class="cls-4" d="m3.39,180.92c.35,1.09.93,2.21-.39,3.09.13-1.03.26-2.06.39-3.09Z"/>
      <path class="cls-4" d="m54.64,249.31c.84,1.06.52,1.94-.44,2.71.15-.9.29-1.81.44-2.71Z"/>
      <path class="cls-4" d="m111.2,103.88c1.08-.45,1.98-.22,2.7.7-.9-.23-1.8-.47-2.7-.7Z"/>
      <path class="cls-4" d="m295.19,268.8c-.66-1.22.25-1.92.9-2.7-.3.9-.6,1.8-.9,2.7Z"/>
      <path class="cls-4" d="m54.38,259.48c.93.67.59,1.47.23,2.28-.08-.76-.16-1.52-.23-2.28Z"/>
      <path class="cls-4" d="m310.44,108.19c-.09-.8-.17-1.59-.26-2.39.84.71.47,1.56.26,2.39Z"/>
      <path class="cls-4" d="m256.15,168.56c-.27.97.69,2.21-.65,2.94.22-.98.43-1.96.65-2.94Z"/>
      <path class="cls-4" d="m201.07,21.07c-.79.58-1.35-.01-1.95-.39.65.13,1.3.26,1.95.39Z"/>
      <path class="cls-4" d="m198.8,20.65c-.67-.11-1.34-.22-2.01-.33.7-.1,1.45-.43,2.01.33Z"/>
      <path class="cls-4" d="m126.45,170.04c.12-.69-.45-1.59.59-2.01-.2.67-.4,1.34-.59,2.01Z"/>
      <path class="cls-4" d="m296.84,262.65l.32-2.01c.11.7.42,1.44-.32,2.01Z"/>
      <path class="cls-4" d="m296.45,264.58c.12-.54.24-1.07.36-1.61.25.62.19,1.17-.36,1.61Z"/>
      <path class="cls-4" d="m165.93,252.63c-.38-.8-.43-1.54.34-2.16-.11.72-.23,1.44-.34,2.16Z"/>
      <path class="cls-4" d="m296.07,266.15c.14-.54.27-1.08.41-1.62-.14.54-.27,1.08-.41,1.62Z"/>
      <path class="cls-4" d="m161.21,209.03c.29-.42.5-1.05,1.16-.41-.39.14-.77.28-1.16.41Z"/>
      <path class="cls-4" d="m118.5,136.82c.57.17,1.15.34.52,1.09-.17-.36-.35-.73-.52-1.09Z"/>
      <path class="cls-4" d="m128.4,170.71c-.53.59-1.07.57-1.6,0,.24,0,.48,0,.72,0,.19,0,.38,0,.57-.01.11-.05.21-.05.3.02Z"/>
      <path class="cls-4" d="m107.66,170.38c-.38.47-.76.45-1.15.01.38,0,.76,0,1.15-.01Z"/>
      <path class="cls-4" d="m312.04,110.21c-.54.48-1.06.5-1.54-.09.51.03,1.03.06,1.54.09Z"/>
      <path class="cls-4" d="m169.04,20.26c-.36.49-.74.52-1.16.08.39-.03.77-.05,1.16-.08Z"/>
      <path class="cls-4" d="m310.21,105.82c-.15-.26-.31-.52-.46-.79.15.26.31.52.46.79Z"/>
      <path class="cls-4" d="m166.78,256.27c-.14-.14-.29-.29-.43-.43.14.14.29.29.43.43Z"/>
      <path class="cls-2" d="m128.09,170.69c-.19,0-.38,0-.57.01.19,0,.38,0,.57-.01Z"/>
      <path class="cls-5" d="m240.12,173.47c-.68.57-1.31,1.45-.81,2.13.85,1.15,2.3.64,3.52.64,5.7.93,11.38,1.94,16.35,5.15,12.55,8.1,19.87,19.66,22.54,34.27-.81,3.64,2.96,4.58,4.15,7.04,3.84,6.07,6.69,12.55,8.17,19.6.26,3.35.53,6.71.79,10.06-.02,1.38-.04,2.76-.06,4.14,0,.12-.01.24-.02.37-1.17,5.44-2.34,10.88-5.37,15.69-5.63,8.94-14.45,12.7-24.22,14.79-14.98,3.2-30.08,2.91-45.06.49-13.48-2.18-24.36-8.49-29.42-22.17-.43-1.15-.75-2.34-1.13-3.51-1.77-8.97-.66-17.78,1.55-26.52,1.18-2.72,2.57-5.29,4.66-7.48,1.42-1.49.3-3.15-.15-4.72,0-1.66,0-3.33,0-4.99.06-1.16.11-2.33.17-3.49.01-.3.02-.59.04-.89,1.45-10.39,4.67-20.1,12.35-27.58,4.88-4.75,10.85-8,17.66-9.4.1,0,.18-.04.26-.1.64-.07,1.27-.13,1.91-.2.42-.01.84-.02,1.26-.03.35,0,.7-.01,1.06-.02,2.99-.61,1.46-2.24.83-3.67-.11-1.97-.17-3.94,1.44-5.45.64-.6,1.37-1.1,2.28-.74.84.33,1.35.99,1.37,1.95.04,1.8.74,2.82,2.76,2.6,1.73-.18,1.15,1.11,1.13,2.01Zm-24.56,87.59c2.61.06,4.75-.61,6.25-2.73,2.41-3.42-1.57-15.38-5.58-16.71-.85-.29-1.65-.22-2.29.56-.65.8-.04,1.35.38,1.88,1.95,2.46,3.59,5.09,4.6,8.07,1.19,3.49-.56,5.85-4.07,5.36-4.09-.57-7.71-2.25-10.63-5.21-.93-.95-1.85-1.63-2.99-.68-1.19,1-.33,2.11.38,2.88,3.76,4.14,8.54,6.18,13.95,6.58Zm-8.98-54.33c-.03-1.47-.04-3.17-1.76-3.02-2.37.2-2.81,2.34-3.03,4.31-.16,1.4.25,2.91,1.89,2.76,2.33-.22,2.66-2.28,2.9-4.04Z"/>
      <path class="cls-5" d="m258.93,177.35c-.01-.12-.04-.23-.08-.34,0-5.55.78-10.92,3.6-15.82.13-.33.27-.66.4-.99,0,0,.06.1.06.1,1.21-.97,1.57-2.16.94-3.61-.1-.1-.2-.2-.3-.31-.02-.17-.04-.34-.06-.51-.23-2.34-.45-4.69-.68-7.03.39-2.73.78-5.47,1.17-8.2.03-.32.05-.63.08-.95.07-.23.15-.45.22-.68,4.3-12.78,12.53-21.55,25.79-25.14.81-.22,1.62-.39,2.43-.59,0,0,.19,0,.19,0l.18-.05c.14,0,.29-.01.43-.02.95-.08,2.02-.46,2.84-.17,1.59.57,3.1.8,3.66-1.02.6-1.94-1.32-2.13-2.54-2.69.09-.39.18-.78.28-1.17.3-.65.59-1.29.89-1.94,2.06-2.04,3.98-3.27,5.27.7.26.79.97,1.23,1.88,1.01,1.46-.35.67.51.56,1.01-.78,1.26-1.3,2.59-.36,3.94.73,1.05,1.77.84,2.76.31,15.79,1.97,24.91,11.98,30.94,25.7,1.95,4.43,3.12,9.09,3.8,13.87.23,1.59,1.4,2.48,2.37,3.47,14.15,14.37,13.45,41.13-1.75,54.32-6.68,5.8-14.75,8.89-23.64,9.62-10.47.86-20.95,2.42-31.29-.97-1.73-.09-2.62-1.58-3.93-2.37-.48-10.17-5.25-18.59-10.86-26.67-.38-.55-.69-1.15-1.03-1.72.59.21,1.2.39,1.77.65,6.56,2.91,11.95.8,12.3-4.9.09-1.45-.12-3.05-.69-4.37-1.24-2.92-2.75-5.73-4.22-8.55-.57-1.09-1.53-1.66-2.76-1.03-1.37.7-1,1.73-.42,2.81,1.26,2.34,2.61,4.65,3.68,7.07.88,1.97,1.67,4.39-.19,6-1.77,1.53-4.1.47-6.13-.17-1.35-.43-3.18-1.9-3.87-1.46-4.66,2.98-5.2-2.68-7.96-3.6-2.08-.69-3.85-2.34-5.75-3.57Zm16.61-41.68c-.07-1.35-.33-2.89-1.87-2.74-2.44.24-2.94,2.53-3.28,4.45-.25,1.43.69,2.61,2.27,2.57,2.87-.08,2.34-2.59,2.88-4.28Z"/>
      <path class="cls-4" d="m285.05,216.86c1.31.79,2.2,2.28,3.93,2.37-1.72.78-.11,1.42.12,2.07.23.63.63,1.19.96,1.78-.67-.12-1.35-.18-1.99-.36-.75-.21-1.46-.54-2.2,0-1.19-2.46-4.96-3.4-4.15-7.04,1.11.4,2.22.8,3.33,1.19Z"/>
      <path class="cls-4" d="m191.12,235.64c-2.21,8.74-3.32,17.55-1.55,26.52-1.8-1.06-1.11-3.01-1.24-4.43-.63-7,.22-13.93,1.83-20.77.12-.49.63-.89.96-1.33Z"/>
      <path class="cls-4" d="m308.54,113.22c-.99.53-2.03.74-2.76-.31-.94-1.36-.42-2.68.36-3.94.5.14-.23,1.36.94,1,.82-.26,2.12-.67,2.4.31.26.88.12,2.2-.94,2.94Z"/>
      <path class="cls-4" d="m319.08,223.87c-6.61.95-13.24,1.07-19.89.74,6.63-.25,13.26-.49,19.89-.74Z"/>
      <path class="cls-4" d="m229.26,176.78c-.42.01-.84.02-1.26.03.18-1.9,1.18-3.08,3.15-3.72.63,1.43,2.16,3.06-.83,3.67-.35,0-.7.01-1.06.02Z"/>
      <path class="cls-4" d="m294.84,252.37c-.26-3.35-.53-6.71-.79-10.06.02-.06.02-.14.05-.18.07-.08.16-.14.24-.21,1.13,4.96,1.39,9.94.42,14.96,0-.12.01-.24.02-.37.02-1.38.04-2.76.06-4.14Z"/>
      <path class="cls-5" d="m193.18,209.86c-.71.55.37,2.16-1.23,2.1-.72-.03-1.52-.58-1.36-1.56.17-1.03,1.03-1.45,1.93-1.61.95-.18.52.59.65,1.07Z"/>
      <path class="cls-4" d="m192.47,213.9c.13-.42-.28-1.3.76-1.11.66.12,1.55.21,1.49,1.2-.04.71-.57,1.16-1.28,1.25-.99.12-.97-.61-.97-1.34Z"/>
      <path class="cls-4" d="m195.82,214.08c-.01.3-.02.59-.04.89-.06,1.16-.11,2.33-.17,3.49,0,1.66,0,3.33,0,4.99-.02.06-.03.13-.06.19-.03.06-.07.11-.1.16-.5-3.35-.33-6.71-.08-10.07.14.12.29.24.43.36Z"/>
      <path class="cls-4" d="m298.43,106.25c-.3.65-.59,1.29-.89,1.94-.63-1.07-.11-1.61.89-1.94Z"/>
      <path class="cls-4" d="m226.09,177.01c-.07.06-.16.09-.26.1-.05-.13-.1-.26-.14-.39.13.1.27.2.4.29Z"/>
      <path class="cls-1" d="m290.83,224.01c-.05-.1-.1-.2-.16-.29.15,0,.3-.01.45-.02-.1.1-.19.21-.29.31Z"/>
      <path class="cls-5" d="m236.96,107.58c.16,1.38.32,2.76.48,4.15,0,.27,0,.54,0,.81-.18,4.06-.37,8.12-.55,12.18-2.45,11.4-7.64,20.8-18.82,25.82-1.36.61-2.75,1.15-4.12,1.72-4.68.84-9.36,1.68-14.04,2.52-8.8,1-17.63.89-26.46.68-4.86-.11-9.71-.26-14.57-.4-3.91-.6-7.82-1.2-11.73-1.81-7.48-1.8-14.51-4.42-20.06-10.14-4.66-4.79-7.28-10.52-8.6-16.96-.21-.71-.42-1.43-.63-2.14,0,0,.09-.02.09-.03-.07-5.77-.15-11.55-.22-17.32.01-.14.03-.29.04-.43.24-2.07.97-4.11.45-6.23,1.43-6.89,1.74-13.98,3.85-20.74.55-1.56,1.1-3.12,1.65-4.67,2.91-6.11,5.82-12.21,8.73-18.32.09-.08.15-.19.19-.31,1.52-.5,1.52.73,1.82,1.6.58,1.71,1.01,3.49,1.78,5.12.8,1.71,2.16,2.93,4.23,1.95,5.8-2.75,11.59-5.52,17.32-8.41,1.11-.56,1.63-.61,2.32.49,1.59,2.53,3.23,5.04,4.96,7.47,1.78,2.49,4.01,3.03,6.77,1.4,4.92-2.91,9.9-5.72,14.86-8.56.67-.38,1.24-1.2,2.12-.11,1.85,2.26,3.75,4.47,4.91,7.21.62,1.45,1.82,2.12,3.32,1.71,4.2-1.15,8.4-2.3,12.21-4.51q5.82-3.37,10.02,2.04c4.03,5.19,6.54,5.34,10.72.61,1.65,2.97,2.57,6.1,2.96,9.54.75,6.64,1.91,13.22,2.91,19.83.36,4.74.72,9.48,1.08,14.23Zm-83.14-29.44h-.01c.58-.35,1-.8.83-1.56h-.04c.99-2.32.43-4.07-1.88-5.2l-.08.06c-.23-.72-.75-.32-1.17-.31-2.04-.5-3,.68-3.55,2.37-.55,1.67-1.08,3.5.48,4.85,1.5,1.3,3.28,1.36,4.98.14.15-.12.29-.24.44-.36Zm22.61,2.69c-.53.02-1.34-.06-2.08.11-3.17.73-7.33.46-6.65,5.6.21,1.54.38,2.85-.13,4.45-.8,2.52.28,4.61,2.94,5.56,2.67.95,5.45,1.39,8.25.95,3.12-.49,7.52-.9,7.11-4.7-.34-3.12,1.35-6,.21-8.92-.23-.59-.9-1.1-1.49-1.43-2.45-1.39-5.18-1.55-8.16-1.63Zm26.5-7.82c-.26-.9.56-3.27-1.97-3.28-2.52,0-5.06.57-4.92,4.07.08,2.09.42,3.96,3.15,3.93,2.73-.03,4.11-1.3,3.74-4.71Z"/>
      <path class="cls-3" d="m189.72,22.89c18.53.94,29.16,12.36,36.86,27.73,1.24,2.48,2.82,4.8,4.24,7.19-1.8.49-2.12,2.14-2.77,3.52-2.55,3.42-4.69,2.93-6.67-.61-.89-1.58-2.05-3-3.09-4.49-1.59-2.28-3.35-3.04-5.84-1.07-3.96,3.12-8.37,5.39-13.24,6.84-1.84.55-2.71.4-3.72-1.46-1.38-2.54-3.35-4.77-5.15-7.07-.93-1.18-2.15-1.32-3.47-.51-3.04,1.86-6.11,3.69-9.16,5.54-9.41,5.74-10.57,5.42-15.13-4.71-1.04-2.3-2.4-2.44-4.32-1.51-4.73,2.29-9.47,4.56-14.18,6.9-5.36,2.65-5.47,2.56-6.37-3.58-.31-2.11-.72-4.5-3.93-3.71-1.35-.17-2.56.03-3.41,1.24-.39.05-.77.11-1.16.14-1.53.11-2.83,1.31-4.47.91.8-1.38,1.57-2.78,2.4-4.14,6.72-11.02,15.94-19.05,28.04-23.73,4.99-1.93,10.27-2.07,15.43-2.95,1.42,0,2.84,0,4.27,0,1.84-.15,3.67-.29,5.51-.44,3.12,0,6.23-.01,9.35-.02Z"/>
      <path class="cls-5" d="m102.72,80.38c.47-.13.94-.25,1.41-.38.39-.09.78-.18,1.17-.28l.45-.42.02.07c.88-3.08-1.31-5.98-.51-9.05.03-.26.05-.53.08-.79.19-.51.39-1.03.58-1.54,1.98-3.76,3.57-3.91,6.87-1.08,3.49,3.01,4.15,7.48,6.22,11.21-.14.91-.27,1.82-.41,2.72-1.87,5.85-2.39,11.94-3.14,17.98,0,.23-.01.47-.02.7-.04.15-.08.29-.12.44-.2,1.79-1.59.98-2.53,1.17,0,0,0,.02,0,.02-.26-.17-.52-.35-.78-.52-3.38-1.52-5.92-3.51-4.83-7.83.1-.41-.48-1.2-.95-1.52-3.95-2.69-5.12-6.24-3.5-10.89Z"/>
      <path class="cls-5" d="m240.15,102.73c-.05-.12-.1-.23-.16-.34-.46-3.4-.92-6.8-1.38-10.2-.08-2.32-.22-4.63-.22-6.95,0-5-2.8-9.77-1.17-14.89.31-.93.63-1.86.94-2.79.05-.15.1-.31.15-.46,1.53-2.07,1.95-6.41,5.59-4.78,3.51,1.57,2.74,5.76,2.71,9.08,0,1.07-.54,2.13-.81,3.2-.61,2.38-1.68,5.04,2.79,3.88.95-.25,1.67.67,2.04,1.53,1.76,4.07.34,9.83-3.09,12.6-.69.55-1.3,1.13-1.18,2.1.59,4.73-2.77,6.4-6.2,8.02Z"/>
      <path class="cls-4" d="m237.22,70.34c-1.63,5.12,1.17,9.9,1.17,14.89,0,2.32.14,4.63.22,6.95-1.07.03-2.02.33-2.74,1.16-.99-6.61-2.16-13.2-2.91-19.83-.39-3.43-1.31-6.56-2.96-9.54.08-1.42-1.35-1.73-1.96-2.65.66-1.39.97-3.04,2.77-3.52,2.91,1.46,2.67,4.62,3.79,7.05.18.39.34.79.51,1.19.17-.37.3-.77.52-1.11.28-.44.63-.83.95-1.24.39.58.99,1.13,1.09,1.76.07.47-.54,1.48-.82,1.47-.82-.03-1.63-.11-1.32.95.26.93-.1,2.5,1.69,2.46Z"/>
      <path class="cls-5" d="m173.73,19.89c-.1-1.86.86-2.05,2.35-1.55,1.17.39,2.45.86,3.44-.29.94-1.09-.34-1.81-.55-2.7-.4-1.75-.71-3.96.61-5.21,1.26-1.19,2.52.61,3.65,1.31,1.88,1.16,2.76,3.09,3.28,5.13.5,1.98.22,3.2-2.49,3.03-3.42-.22-6.87.16-10.31.29,0,0,0,0,0,0Z"/>
      <path class="cls-4" d="m130.34,53.13c.85-1.21,2.06-1.41,3.41-1.24.41.08.81.16,1.22.24-1.27.98.39,3.74-2.33,3.83-.03.12-.09.22-.19.31-1.11.18-2.23.35-3.34.53.41-1.22.82-2.45,1.23-3.67Z"/>
      <path class="cls-4" d="m189.72,22.89c-3.12,0-6.23.01-9.35.02.25-.91,1.03-.53,1.61-.69,1.73-.46,4.43,1.44,5.02-2.08.05-.32,2.02-.81,2.62-.44,1.27.77.06,2.09.1,3.18Z"/>
      <path class="cls-4" d="m118.6,80.84c.14-.91.27-1.82.41-2.72.26-2.93,2.54-3.16,4.72-3.52-.55,1.56-1.1,3.12-1.65,4.67-2.04-1.42-2.34.99-3.47,1.57Z"/>
      <path class="cls-4" d="m174.86,23.36c-1.42,0-2.84,0-4.27,0-2.18-4.07,1.11-3.19,3.13-3.47,0,0,0,0,0,0,1.02.95-1.54,3.07,1.14,3.47Z"/>
      <path class="cls-4" d="m105.92,67.99c-.19.51-.39,1.03-.58,1.54-.64-.83-.04-1.19.58-1.54Z"/>
      <path class="cls-4" d="m238.31,67.1c-.05.15-.1.31-.15.46.05-.15.1-.31.15-.46Z"/>
      <path class="cls-3" d="m124.45,54.46s-.04.09-.07.11c-.03.02-.08,0-.12,0,.03-.08.05-.16.08-.24.04.04.07.09.11.13Z"/>
      <path class="cls-5" d="m123.74,167.63c-.04.12-.09.24-.13.36q-1.51,5.28,3.92,5.92c14.34,3.51,23.03,12.79,27.14,26.69.55,1.86.76,3.81,1.12,5.72.05,3.9,1.06,7.77.48,11.7-1.1,3,.39,5.55,2.11,7.5,3.93,4.46,4.15,9.87,4.66,15.24.25,2.7.11,5.44.15,8.16-.5,3.15-.51,6.44-2.45,9.2-1.78,1.31-3.78,2.4-5.29,3.97-2.08,2.17-3.9,1.86-5.5-.17-2.59-3.28-5.45-3.02-8.56-1.06-3.13,1.98-6.27,3.95-9.29,6.09-1.08.77-1.68.69-2.67-.07-3.05-2.32-6.17-4.55-9.31-6.75-1.39-.97-2.91-1.33-4.61-.7-4.63,1.73-8.62,4.48-12.35,7.64-.86.73-1.31.81-2.23.06-4.08-3.32-8.36-6.41-12.35-9.83-3-2.57-5.89-2.91-9.2-.83-1.76,1.1-3.72,1.91-5.41,3.11-1.19.84-1.88.66-2.78-.29-3.24-3.38-6.53-6.7-9.81-10.05-2.05-1.87-1.06-4.38-1.41-6.61.12-.08.15-.18.08-.3l.23-1.24c1.17-7.72,3.35-15.05,8.75-20.98,1.96-2.15,1.38-4.75,1.75-7.17.41-2.71,1.03-5.32,2.07-7.85.4-1.03.81-2.05,1.21-3.08.06-.13.12-.26.17-.38.05-.14.1-.27.14-.41.82-1.47,1.62-2.96,2.45-4.42,5.82-10.16,13.47-18.21,25.05-21.74,1.27-.42,2.53-.85,3.8-1.27,2.61-.37,5.23-.74,7.84-1.11.86-2.02.74-4.77,3.83-5.14.05,0,.09-.36.08-.55-.15-2.26-.35-5.16,2.66-4.97,2.68.17,3.74,2.85,3.64,5.6Zm12.95,90.66c5.54-.68,10.61-4.36,14.35-10.08.69-1.05.55-2.19-.54-2.92-1.28-.87-1.87.21-2.44,1.08-2.65,3.98-6.11,6.89-10.8,8.14-1.5.4-3.13.89-4.42-.36-1.39-1.35-1.16-3.12-.67-4.77.93-3.1,2.57-5.81,4.81-8.15.82-.86,1.24-1.85.43-2.76-.94-1.05-2.01-.5-2.9.3-3.56,3.17-5.46,7.24-6.13,11.86-.69,4.73,2.1,7.74,8.32,7.65Zm8.81-56.5c.4,1.38-.18,3.67,2.24,3.91,1.7.17,2.6-1.27,2.42-2.85-.21-1.83-.18-4.33-2.53-4.6-1.85-.21-1.95,1.84-2.13,3.55Z"/>
      <path class="cls-3" d="m163.22,261.05c.09,0,.18,0,.27,0-3.07,16.21-13.3,25.47-28.95,28.81-18.2,3.88-36.44,3.92-54.13-2.59-13.68-5.04-21.15-15.32-22.85-29.79.03-1.21-.07-2.44.14-3.62.11-.62-.73-2.06,1.05-1.77l.02-.03.82.82c.24.24.47.48.71.72.28.28.57.57.85.85.5.5.99.99,1.49,1.49.16.16.31.31.47.47l.31.31c.16.14.32.28.48.41l-.05-.03.43.43s-.02-.04-.02-.04c.18.16.36.33.54.49,1.15,1.31,2.36,2.57,3.43,3.94,2.02,2.58,3.98,3.55,7.22,1.44,3.97-2.59,8.06-6.75,13.16-1.4,2.08,2.19,4.62,3.96,7.03,5.83,6.9,5.35,5.04,5.8,12.22.88,11.2-7.67,7.56-7.14,17.7.05.27.19.56.35.79.58,2.95,2.96,5.79,3.45,8.97.14,1.36-1.41,3.51-2.04,4.96-3.39,3.84-3.61,7-2.48,10.02,1.03,1.33,1.54,2.79,1.71,4.43.44,2.82-2.18,5.67-4.33,8.5-6.49Z"/>
      <path class="cls-3" d="m4.51,192.91c.11.09.21.18.32.28,2.92,2.93,5.82,5.88,8.77,8.77,1.09,1.07,2.33,1.03,3.77.47,12.93-5,8.11-5.89,18.71,2.81.55.45,1.01,1.01,1.54,1.49,1.79,1.6,3.47,1.8,5.53.16,2.48-1.98,5.29-3.54,7.87-5.41,1.98-1.43,3.66-1.55,5.71.03,2.15,1.65,4.58,2.96,6.98,4.25,1.31.7,2.81,1.19,4.1-.24.51-.13,1.02-.25,1.53-.38-.66,2.21-1.66,4.39-1.89,6.64-.36,3.55-.92,6.9-3.57,9.53-.14.2-.28.41-.43.61,0,0,.02-.04.02-.04-.91,1.05-1.82,2.09-2.72,3.14-14.35,3.63-28.43,3.48-41.44-4.35-9.98-6-13.83-15.91-15.16-26.99-.03-.24.23-.51.36-.77Z"/>
      <path class="cls-4" d="m58.74,252.1c-1.77-.29-.94,1.15-1.05,1.77-.2,1.18-.11,2.41-.14,3.62-1.3-.66-.72-1.88-.59-2.75.23-1.56.11-3.04.05-4.58-.04-1.04-1.75-4.24,2.12-2.87.82.29.36-.71.46-1.11.42-1.66-.78-3.55.71-5.07-.08.41-.15.82-.23,1.24-.05.09-.08.19-.08.3.34,2.23-.64,4.74,1.41,6.61-.89.95-1.77,1.9-2.66,2.85Z"/>
      <path class="cls-4" d="m69.35,205.14c-.51.13-1.02.25-1.53.38,1-1.36,2.84-2.19,2.74-4.26.27-.27.53-.54.8-.81,1.01.26,2.02.52,3.04.78-.05.14-.1.27-.14.41-.06.13-.12.26-.17.38-.4,1.03-.81,2.05-1.21,3.08-1.18-.83-2.34.22-3.51.03Z"/>
      <path class="cls-4" d="m60.76,225.02c.91-1.05,1.82-2.09,2.72-3.14-.37,1.16.27,1.76.98,2.61.34.4-.39,2.16-1.09,2.83-.71.68-2.23,1.32-2.93.99-.82-.38.53-1.47.47-2.36-.02-.31-.1-.62-.15-.93Z"/>
      <path class="cls-4" d="m63.46,221.93c.14-.2.28-.41.43-.61-.14.2-.28.41-.43.61Z"/>
      <path class="cls-4" d="m164.34,158.61c1.72-.46,3.44-.94,5.06.29-.66-.05-1.32-.1-1.97-.14-.08-.08-.17-.1-.27-.05-.45,0-.89,0-1.34,0-.12-.06-.24-.07-.36-.05-.37-.01-.74-.03-1.11-.04Z"/>
      <path class="cls-4" d="m160.06,158.48c.78-1.18,1.63-.77,2.48-.09-.83.03-1.65.06-2.48.09Z"/>
      <path class="cls-2" d="m167.16,158.71c.1-.05.19-.03.27.05,0,0-.14.02-.14.02l-.12-.08Z"/>
      <path class="cls-2" d="m165.45,158.65c.13-.02.25,0,.36.05-.12-.02-.24-.03-.36-.05Z"/>
      <path class="cls-5" d="m71.35,200.45c-.27.27-.53.54-.8.81-3.27.93-6.52,2.05-9.42-1-.83-.88-2-1.43-2.96-2.2-2.38-1.9-4.77-2.42-7.45-.52-2.8,1.99-5.74,3.78-8.54,5.78-1.18.85-1.83.92-3.01-.2-5.35-5.03-10.3-11.67-19.04-5.89-.91.6-2.02.88-3,1.37-.68.34-1.13.28-1.7-.29-2.34-2.34-4.75-4.61-7.13-6.9-.63-1.16-1.25-2.33-1.88-3.49.4-13.07,4.74-24.67,12.76-35,1.44-1.85.72-4.53,1.07-6.81,2.9-19.09,12.08-32.73,32.04-37.07,1.16-.05,2.33-.06,3.49-.17,1.11-.11,2.32-.34,2.58-1.64.25-1.29-.86-1.73-1.81-2.18.08-1.08-.76-3.12,1.76-1.51,1.02.65,1.77-.14,1.97-1.13.33-1.61.57-3.73,2.4-3.72,1.89.01,2.36,2.28,3.11,3.82.17.35.29.71.44,1.07.4,1.57-3.46,2.85-.32,4.61.24.08.48.16.72.25.39,0,.79.01,1.18.02,6.63,1.37,12.73,3.9,18.04,8.18,7.09,5.71,10.69,13.38,12.43,22.1.07,4.04.13,8.07.2,12.11-.02.25-.05.49-.07.74-.82,3.03-2.29,6.08.31,8.99,1.34,3.42,2.33,6.93,2.78,10.58-.15.26-.3.52-.45.77-.7.14-1.43.2-2.08.45-13.48,5.15-21.93,15.25-27.6,28.08Zm-10.18-12.12c5.81-.16,10.71-2.35,14.72-6.56.84-.89,1.36-1.87.48-2.92-.98-1.16-1.76-.27-2.6.42-3.41,2.79-7.11,5.01-11.63,5.49-3.47.37-4.64-.95-3.72-4.28.67-2.42,2.17-4.25,4.09-5.8.8-.64,1.94-1.21,1.2-2.48-.78-1.32-2.04-1-3.11-.46-3.52,1.78-4.84,5.17-5.82,8.62-1.34,4.68,1.52,8.1,6.41,7.97Zm26.93-51.48c.18,1.45.06,3.4,2.5,3.43,1.75.02,2.35-1.21,2.23-2.77-.15-1.9-.42-4.15-2.74-4.28-1.92-.11-1.94,1.89-1.99,3.63Z"/>
      <path class="cls-5" d="m140.89,161.25c-.14-.59-.27-1.18-.41-1.78,4.9-3.02,10.06-2.8,15.33-1.25-.17.75-.21,1.57-.55,2.24-.39.79-.92,1.94-1.58,2.08-.91.2-.55-1.19-1.01-1.76-1.24-1.54-3.15-1.68-4.59-1.2-2.37.79-4.78,1.17-7.19,1.67Z"/>
      <path class="cls-5" d="m102.98,144.19c-.37-.15-.74-.3-1.11-.44.11-.84-.45-1.98.54-2.41.45-.19,1.6.3,1.85.79.56,1.11-1.04,1.23-1.29,2.06Z"/>
      <path class="cls-5" d="m160.21,206.53c-1.5.54-1.27-.58-1.34-1.4.22-.46-.4-1.38.52-1.39.71,0,1.74.24,2.07.74.57.86-.71,1.17-1.04,1.81-.14.08-.17.2-.08.34l-.12-.1Z"/>
      <path class="cls-4" d="m160.33,206.63c-.08-.14-.06-.25.08-.34-.03.11-.06.22-.08.34Z"/>
      <path class="cls-5" d="m260.43,141.31c-.24.07-.49.13-.73.2-.66-1.05-2.67-1.9-.71-3.36.58-.44,2.54-2.03,1.87.91-.17.75-.29,1.5-.43,2.25Z"/>
      <path class="cls-4" d="m292.88,113.25l-.18.05s-.19,0-.19,0c-.38-.05-.75-.1-1.13-.15.02-.04.06-.13.07-.13.48.07.95.16,1.43.24Z"/>
      <path class="cls-4" d="m236.89,124.71c.18-4.06.37-8.12.55-12.18.91,4.18.2,8.34-.12,12.5-.06,0-.14,0-.18-.03-.09-.09-.17-.2-.25-.29Z"/>
      <path class="cls-4" d="m117.73,106.67c.07,5.77.15,11.55.22,17.32-1.38-5.76-1.37-11.53-.22-17.32Z"/>
      <path class="cls-4" d="m117.86,124.02c.21.71.42,1.43.63,2.14-1.15-.44-.48-1.41-.63-2.14Z"/>
      <path class="cls-5" d="m203.19,157.91c2.77-.39,5.55-.77,8.32-1.16.77,1.04,2.05,1.74,2.13,3.24-1.3-.32-2.67-.48-3.89-.99-1.51-.63-2.8-.86-4.06.44-.67.69-.63,2.47-1.91,2.04-1.19-.4-.9-1.98-1.04-3.11,0,0-.07-.06-.07-.07.17-.13.33-.26.5-.4Z"/>
      <path class="cls-4" d="m112.01,100.63c.26.17.52.35.78.52-.26-.17-.52-.35-.78-.52Z"/>
      <path class="cls-4" d="m101.03,171.92c.15-.26.3-.52.45-.77,2.46-.79,4.24-.51,4.21,2.66-1.27.42-2.54.85-3.8,1.27-1.23-.8.1-2.28-.85-3.16Z"/>
      <path class="cls-4" d="m262.85,160.2c-.13.33-.27.66-.4.99.13-.33.27-.66.4-.99Z"/>
      <path class="cls-2" d="m203.19,157.91c-.17.13-.33.26-.5.4.17-.13.33-.26.5-.4Z"/>
      <path class="cls-2" d="m101.42,151.75c-.03.18-.11,1.28-.38,2.34-.14.55.35,1.79-.4,1.53-.77-.27-2.12-.8-1.85-2.35.22-1.26.12-2.58.31-3.85.11-.78-.62-2.15.62-2.22,1.38-.08,1.89,1.11,1.7,2.48-.05.38,0,.78,0,2.09Z"/>
      <path class="cls-2" d="m98.4,151.58c.02-.25.05-.49.07-.74-.02.25-.05.49-.07.74Z"/>
      <path class="cls-2" d="m118.6,80.84c1.13-.58,1.44-2.99,3.47-1.57-2.11,6.76-2.43,13.86-3.85,20.74-.48.43-.54,1.36-1.55,1.15-1.44-.29-.28-1.84-1.2-2.34.74-6.05,1.26-12.13,3.14-17.98Z"/>
      <path class="cls-2" d="m115.32,99.96c.04-.15.08-.29.12-.44-.04.15-.08.29-.12.44Z"/>
      <path class="cls-2" d="m58.74,252.1c.89-.95,1.77-1.9,2.66-2.85,3.27,3.34,6.57,6.67,9.81,10.05.91.95,1.59,1.13,2.78.29,1.69-1.19,3.65-2,5.41-3.11,3.31-2.08,6.2-1.74,9.2.83,3.99,3.42,8.27,6.51,12.35,9.83.92.75,1.37.67,2.23-.06,3.73-3.16,7.72-5.91,12.35-7.64,1.7-.63,3.22-.27,4.61.7,3.14,2.2,6.26,4.43,9.31,6.75.99.75,1.58.84,2.67.07,3.01-2.15,6.16-4.12,9.29-6.09,3.11-1.97,5.97-2.22,8.56,1.06,1.6,2.02,3.42,2.33,5.5.17,1.5-1.57,3.51-2.66,5.29-3.97-1.7,3.11.72,2.75,2.48,2.94-2.83,2.16-5.68,4.31-8.5,6.49-1.64,1.27-3.1,1.1-4.43-.44-3.02-3.51-6.17-4.64-10.02-1.03-1.44,1.36-3.6,1.98-4.96,3.39-3.18,3.31-6.02,2.82-8.97-.14-.23-.23-.52-.39-.79-.58-10.14-7.19-6.5-7.72-17.7-.05-7.19,4.92-5.32,4.46-12.22-.88-2.41-1.87-4.95-3.63-7.03-5.83-5.1-5.36-9.18-1.2-13.16,1.4-3.24,2.11-5.2,1.14-7.22-1.44-1.07-1.37-2.28-2.63-3.43-3.94-.18-.16-.36-.33-.54-.49,0,0,.02.04.02.04-.14-.14-.29-.28-.43-.43,0,0,.05.03.05.03-.16-.14-.32-.28-.48-.41-.1-.1-.21-.21-.31-.31-.16-.16-.31-.31-.47-.47-.5-.5-.99-.99-1.49-1.49.02-.59-.26-.87-.85-.85-.24-.24-.47-.48-.71-.72.02-.57-.23-.86-.82-.82,0,0-.02.03-.02.03Z"/>
      <path class="cls-2" d="m8.29,191.43c2.38,2.29,4.79,4.56,7.13,6.9.57.57,1.02.63,1.7.29.99-.49,2.1-.77,3-1.37,8.75-5.79,13.7.85,19.04,5.89,1.18,1.11,1.83,1.04,3.01.2,2.79-2,5.74-3.79,8.54-5.78,2.68-1.91,5.08-1.38,7.45.52.96.77,2.12,1.32,2.96,2.2,2.9,3.05,6.15,1.93,9.42,1,.11,2.07-1.74,2.9-2.74,4.26-1.28,1.43-2.79.94-4.1.24-2.4-1.29-4.83-2.6-6.98-4.25-2.06-1.58-3.74-1.46-5.71-.03-2.58,1.86-5.39,3.42-7.87,5.41-2.06,1.65-3.73,1.44-5.53-.16-.53-.48-.99-1.03-1.54-1.49-10.6-8.71-5.78-7.81-18.71-2.81-1.44.56-2.68.6-3.77-.47-2.95-2.89-5.85-5.84-8.77-8.77.71-1.46,1.8-2.17,3.46-1.75Z"/>
      <path class="cls-2" d="m105.31,79.72c-.39.09-.78.18-1.17.28.13-.95.26-1.9,1.24-2.41.13.6.26,1.19.4,1.79,0,0-.02-.07-.02-.07-.15.14-.3.28-.45.42Z"/>
      <path class="cls-2" d="m263.62,156.7c-.13.19-.26.37-.39.56-.07-.07-.15-.15-.22-.22.18-.13.37-.27.55-.4,0,0,.06.06.06.06Z"/>
      <path class="cls-2" d="m263.55,156.39c.1.1.2.2.3.31-.08,0-.16,0-.23,0,0,0-.06-.06-.06-.06,0-.08,0-.17,0-.25Z"/>
      <path class="cls-2" d="m235.87,93.35c.72-.84,1.67-1.14,2.74-1.16.46,3.4.92,6.8,1.38,10.2-2.41.91-3.36,2.68-3.03,5.19-.36-4.74-.72-9.48-1.08-14.23Z"/>
      <path class="cls-2" d="m264.06,139.7c-.03.32-.05.63-.08.95.03-.32.05-.63.08-.95Z"/>
      <path class="cls-2" d="m66.61,108.44c-.24-.08-.48-.16-.72-.25.24.08.48.16.72.25Z"/>
      <path class="cls-2" d="m215.57,261.05c-5.41-.4-10.19-2.44-13.95-6.58-.71-.78-1.57-1.89-.38-2.88,1.13-.94,2.05-.26,2.99.68,2.92,2.96,6.54,4.64,10.63,5.21,3.5.49,5.25-1.87,4.07-5.36-1.02-2.99-2.65-5.62-4.6-8.07-.42-.53-1.02-1.08-.38-1.88.63-.78,1.43-.85,2.29-.56,4.01,1.34,7.99,13.29,5.58,16.71-1.5,2.13-3.64,2.79-6.25,2.73Z"/>
      <path class="cls-2" d="m206.59,206.72c-.24,1.76-.58,3.82-2.9,4.04-1.64.15-2.05-1.36-1.89-2.76.22-1.97.67-4.1,3.03-4.31,1.71-.15,1.73,1.55,1.76,3.02Z"/>
      <path class="cls-2" d="m294.84,252.37c-.02,1.38-.04,2.76-.06,4.14.02-1.38.04-2.76.06-4.14Z"/>
      <path class="cls-2" d="m195.62,218.46c.06-1.16.11-2.33.17-3.49-.06,1.16-.11,2.33-.17,3.49Z"/>
      <path class="cls-2" d="m229.26,176.78c.35,0,.7-.01,1.06-.02-.35,0-.7.01-1.06.02Z"/>
      <path class="cls-2" d="m275.54,135.66c-.55,1.7-.01,4.21-2.88,4.28-1.58.04-2.52-1.14-2.27-2.57.34-1.93.84-4.21,3.28-4.45,1.53-.15,1.8,1.39,1.87,2.74Z"/>
      <path class="cls-2" d="m132.64,55.97c2.72-.09,1.06-2.86,2.33-3.83-.41-.08-.81-.16-1.22-.24,3.21-.79,3.62,1.6,3.93,3.71.9,6.14,1.01,6.23,6.37,3.58,4.71-2.33,9.45-4.61,14.18-6.9,1.93-.93,3.29-.79,4.32,1.51,4.56,10.13,5.72,10.44,15.13,4.71,3.05-1.86,6.12-3.68,9.16-5.54,1.32-.81,2.55-.67,3.47.51,1.81,2.29,3.77,4.53,5.15,7.07,1.01,1.86,1.88,2.01,3.72,1.46,4.87-1.45,9.28-3.72,13.24-6.84,2.49-1.96,4.25-1.21,5.84,1.07,1.04,1.49,2.21,2.91,3.09,4.49,1.98,3.54,4.11,4.03,6.67.61.61.92,2.04,1.22,1.96,2.65-4.18,4.73-6.7,4.58-10.72-.61q-4.19-5.41-10.02-2.04c-3.81,2.21-8.02,3.35-12.21,4.51-1.5.41-2.7-.26-3.32-1.71-1.16-2.74-3.06-4.94-4.91-7.21-.89-1.08-1.45-.27-2.12.11-4.96,2.84-9.94,5.66-14.86,8.56-2.75,1.63-4.99,1.09-6.77-1.4-1.74-2.43-3.38-4.94-4.96-7.47-.68-1.09-1.21-1.05-2.32-.49-5.73,2.88-11.52,5.66-17.32,8.41-2.07.98-3.43-.24-4.23-1.95-.76-1.63-1.19-3.41-1.78-5.12-.3-.88-.31-2.1-1.82-1.6Z"/>
      <path class="cls-2" d="m176.42,80.83c2.99.07,5.71.23,8.16,1.63.59.33,1.26.84,1.49,1.43,1.14,2.92-.54,5.8-.21,8.92.41,3.79-4,4.21-7.11,4.7-2.8.44-5.58,0-8.25-.95-2.65-.95-3.73-3.04-2.94-5.56.51-1.6.33-2.91.13-4.45-.68-5.15,3.48-4.87,6.65-5.6.75-.17,1.55-.09,2.08-.11Zm.08,9.46s0,.02,0,.03c-1.23,0-2.46-.03-3.69,0-.95.03-2.22-.56-2.52,1-.28,1.43.42,2.38,1.72,2.89,2.86,1.12,5.84,1.06,8.77.49,1.41-.27,2.35-1.44,2.13-3.03-.23-1.65-1.57-1.39-2.72-1.38-1.23.01-2.46,0-3.69,0Zm-.93-2.44c0,.06,0,.11.01.17,1.93-.2,3.86-.36,5.79-.61.88-.11,1.62-.55,1.74-1.56.1-.83-.31-1.48-1.07-1.64-3.29-.69-6.58-1.46-9.93-.29-1.2.42-1.5,1.35-1.41,2.48.09,1.19.98,1.41,1.95,1.44.97.02,1.95,0,2.92,0Z"/>
      <path class="cls-4" d="m202.93,73c.36,3.41-1.01,4.68-3.74,4.71-2.73.03-3.07-1.84-3.15-3.93-.14-3.49,2.41-4.07,4.92-4.07,2.53,0,1.72,2.38,1.97,3.28Z"/>
      <path class="cls-2" d="m153.37,78.5c-1.7,1.22-3.48,1.15-4.98-.14-1.56-1.35-1.03-3.18-.48-4.85.55-1.68,1.51-2.86,3.55-2.37.39.1.78.21,1.17.31,0,0,.08-.06.08-.06-.03.98-.66,1.11-1.49,1.36-1.45.45-1.34,1.89-1.3,3.08.03,1.09.49,1.92,1.8,2.07,1.31.15,1.17-.97,1.54-1.6.39-.69.6-1.48.89-2.23.85.71.2,1.68.44,2.5,0,0,.04,0,.04,0-.28.52-.55,1.05-.83,1.57,0,0,.01-.01.01-.01-.17.09-.68-.23-.44.36Z"/>
      <path class="cls-4" d="m154.59,76.58c-.24-.82.41-1.79-.44-2.5-.29.75-.5,1.54-.89,2.23-.36.63-.23,1.75-1.54,1.6-1.31-.15-1.77-.98-1.8-2.07-.03-1.19-.15-2.63,1.3-3.08.82-.26,1.46-.38,1.49-1.36,2.31,1.12,2.87,2.88,1.88,5.19Z"/>
      <path class="cls-4" d="m153.8,78.15c.28-.52.55-1.05.83-1.57.17.76-.25,1.21-.83,1.57Z"/>
      <path class="cls-4" d="m152.63,71.45c-.39-.1-.78-.21-1.17-.31.42,0,.94-.41,1.17.31Z"/>
      <path class="cls-4" d="m153.37,78.5c-.24-.59.27-.27.44-.36-.15.12-.29.24-.44.36Z"/>
      <path class="cls-4" d="m105.31,79.72c.15-.14.3-.28.45-.42-.15.14-.3.28-.45.42Z"/>
      <path class="cls-2" d="m136.69,258.29c-6.22.08-9.01-2.92-8.32-7.65.67-4.62,2.57-8.69,6.13-11.86.9-.8,1.96-1.35,2.9-.3.82.91.4,1.9-.43,2.76-2.24,2.33-3.88,5.05-4.81,8.15-.49,1.65-.72,3.42.67,4.77,1.29,1.26,2.93.76,4.42.36,4.69-1.25,8.15-4.16,10.8-8.14.58-.87,1.16-1.95,2.44-1.08,1.09.74,1.23,1.87.54,2.92-3.74,5.72-8.81,9.4-14.35,10.08Z"/>
      <path class="cls-2" d="m101.03,171.92c.95.87-.38,2.36.85,3.16-11.57,3.53-19.23,11.58-25.05,21.74-.84,1.46-1.64,2.95-2.45,4.42-1.01-.26-2.02-.52-3.04-.78,5.67-12.83,14.13-22.93,27.6-28.08.65-.25,1.39-.3,2.08-.45Z"/>
      <path class="cls-2" d="m145.5,201.79c.18-1.71.28-3.77,2.13-3.55,2.35.27,2.32,2.78,2.53,4.6.18,1.59-.72,3.02-2.42,2.85-2.42-.24-1.85-2.52-2.24-3.91Z"/>
      <path class="cls-2" d="m59.99,242.64c0-.11.03-.21.08-.3.07.12.04.22-.08.3Z"/>
      <path class="cls-2" d="m74.07,202.03c.06-.13.12-.26.17-.38-.06.13-.12.26-.17.38Z"/>
      <path class="cls-4" d="m60.29,253.62c.59-.03.87.26.85.85-.28-.28-.57-.57-.85-.85Z"/>
      <path class="cls-4" d="m58.76,252.07c.59-.04.84.26.82.82l-.82-.82Z"/>
      <path class="cls-4" d="m63.41,256.74c.16.14.32.28.48.41-.16-.14-.32-.28-.48-.41Z"/>
      <path class="cls-4" d="m63.84,257.13c.14.14.28.28.43.43-.14-.14-.28-.28-.43-.43Z"/>
      <path class="cls-4" d="m64.25,257.52c.18.16.36.33.54.49-.18-.16-.36-.33-.54-.49Z"/>
      <path class="cls-4" d="m62.63,255.96c.16.16.31.31.47.47-.16-.16-.31-.31-.47-.47Z"/>
      <path class="cls-2" d="m61.17,188.33c-4.89.13-7.75-3.3-6.41-7.97.99-3.45,2.31-6.84,5.82-8.62,1.07-.54,2.34-.86,3.11.46.75,1.27-.4,1.83-1.2,2.48-1.91,1.54-3.42,3.38-4.09,5.8-.92,3.33.24,4.64,3.72,4.28,4.52-.48,8.21-2.7,11.63-5.49.85-.69,1.62-1.58,2.6-.42.89,1.05.37,2.03-.48,2.92-4.01,4.21-8.91,6.41-14.72,6.56Z"/>
      <path class="cls-2" d="m88.1,136.85c.05-1.74.07-3.74,1.99-3.63,2.31.13,2.58,2.38,2.74,4.28.13,1.56-.47,2.79-2.23,2.77-2.44-.03-2.32-1.98-2.5-3.43Z"/>
      <path class="cls-5" d="m176.5,90.29c1.23,0,2.46,0,3.69,0,1.16-.01,2.5-.27,2.72,1.38.22,1.59-.72,2.76-2.13,3.03-2.93.57-5.91.63-8.77-.49-1.29-.51-2-1.46-1.72-2.89.3-1.56,1.57-.97,2.52-1,1.23-.04,2.46,0,3.69,0,0,0,0-.02,0-.03Z"/>
      <path class="cls-5" d="m175.57,87.85c-.97,0-1.95.02-2.92,0-.97-.02-1.86-.25-1.95-1.44-.09-1.12.22-2.06,1.41-2.48,3.35-1.17,6.64-.4,9.93.29.76.16,1.18.81,1.07,1.64-.13,1-.86,1.44-1.74,1.56-1.92.25-3.86.41-5.79.61,0-.06,0-.11-.01-.17Z"/>
    </g>
  </g>
</svg>