<?xml version="1.0" encoding="UTF-8"?>
<svg id="_图层_2" data-name="图层 2" xmlns="http://www.w3.org/2000/svg" viewBox="0 0 504.51 513.89">
  <defs>
    <style>
      .cls-1 {
        fill: #dcc099;
      }

      .cls-1, .cls-2, .cls-3, .cls-4, .cls-5, .cls-6, .cls-7, .cls-8 {
        stroke-width: 0px;
      }

      .cls-2 {
        fill: #8f7d79;
      }

      .cls-3 {
        fill: #fff;
      }

      .cls-4 {
        fill: #cac3bc;
      }

      .cls-5 {
        fill: #f1eae3;
      }

      .cls-6 {
        fill: #fbecc0;
      }

      .cls-7 {
        fill: #a2948c;
      }

      .cls-8 {
        fill: #fdf9f1;
      }
    </style>
  </defs>
  <g id="_图层_1-2" data-name="图层 1">
    <path class="cls-7" d="m459.71,415.98c-1.43,5.32-1.76,10.82-2.77,16.2-1.7,9.03-3.13,18.1-4.66,27.15-.88,5.18-3.17,8.25-8.79,9.52-9.24,2.08-18.47,4.28-27.65,6.62-23.52,5.98-46.9,12.52-70.54,17.97-20.53,4.73-40.69,10.7-60.91,16.48-4.92,1.41-10,2.19-14.87,3.83-.91.31-1.85.05-2.8-.11-15.06-2.6-29.68-7-44.5-10.62-14.1-3.45-28.01-7.52-42.02-11.24-16.76-4.45-33.71-8.11-50.7-11.61-7.79-1.6-15.45-3.87-23.22-5.55-16.1-3.49-32.23-6.88-48.45-9.78-3.35-.6-5.33-2.43-7.26-5.52-3.52-5.63-3.02-11.86-4.02-17.79-1.42-8.49-3.14-16.95-3.84-25.56-.75-6.39-2.24-12.65-3.18-19-1.2-8.12-1.54-16.38-3.46-24.38-1.83-7.66-2.21-15.52-3.7-23.22.37.05.75.06,1.11.16,2.14.64,4.28.77,5.44-1.5.81-1.59,1.11-4.27-.08-5.01-1.83-1.14-4.42-1.21-6.71-1.36-.91-.06-.55,1.11-.37,1.86.47,1.92.98,3.84.62,5.85-10.48-.3-17.26-6.67-23.55-14.09C.1,325-.78,312.94.44,300.37c.47-4.83,1.57-9.52,3.98-13.83,3.18-5.68,7.4-10.07,13.93-11.7,1.29-.32,1.57-.85,1.45-2.19-.91-10.2-2.49-20.29-4.04-30.4-1.37-8.88-2.43-17.82-3.48-26.75-.58-4.91,1.12-7.11,5.98-7.51,10.31-.85,20.65-.57,30.97.02,9.48.54,18.8,2.15,28.05,4.23,1.52.34,2.82.33,3.01-1.45.49-4.44,2.67-8.27,4.21-12.33,4.06-10.72,7.99-21.49,12.12-32.19,2.73-7.07,5.88-13.96,10.24-20.22.57-.82,1.32-1.9.69-2.86-.65-.98-1.73-.16-2.62,0-4.65.85-9.38,1.28-13.79,3.23-1.64.72-3.01-.32-4.04-1.4-1.16-1.2-.98-2.67-.34-4.24,4.24-10.32,10.27-19.58,16.59-28.7,5.99-8.64,11.43-17.7,19.13-25.02,1.65-1.56,3.41-3,5.12-4.5.72.03,1.12-.33,1.22-1.03.92-.8,1.85-1.59,2.77-2.39.73.01,1.13-.34,1.19-1.07,3.45-3.05,6.97-6,10.76-8.64.71.07,1.12-.26,1.27-.95,1.09-.64,2.18-1.29,3.26-1.93.71.1,1.13-.22,1.3-.9,1.09-.65,2.17-1.3,3.26-1.95,1.45-.26,2.85-.59,3.55-2.11,1.47-.82,2.94-1.65,4.41-2.47.74.13,1.15-.22,1.3-.92.94-.58,1.6-1.59,2.74-1.86,1.41-.3,2.79-.67,3.54-2.09,1.25-.49,2.51-.97,3.76-1.46,1.76-.21,3.49-.47,4.83-1.8.67-.16,1.34-.32,2.01-.48,2.74-.19,5.28-1.03,7.68-2.36.34-.06.68-.12,1.02-.19.65.65.97.17,1.27-.37,1.86-.44,3.72-.88,5.58-1.31,1.28.31,2.41,0,3.4-.86.33-.02.66-.05.99-.07.71.21,1.39.31,1.86-.46.33-.04.66-.07.99-.11.52.2.97.16,1.29-.37.52-.08,1.03-.16,1.55-.23,1.37.36,2.53-.09,3.58-.94.71-.06,1.41-.13,2.12-.19.86.22,1.72.46,2.44-.35,2.05-.06,4.09-.11,6.14-.17,1.19.07,2.38.13,3.57.2,0,.76-.09,1.53.01,2.28.23,1.73,1.56,2.54,2.98,3.14.98.42,2.2.6,2.87-.39.74-1.09,1.71-1.7,2.8-2.31,1.5-.84,1.17-2.35.89-3.57-.35-1.54-1.51-.46-2.33-.39-2.06.18-4.12.38-6.19.56-.2-1.72-.4-3.44-.6-5.16.02-.34.05-.69.07-1.03.75-.5.64-1.17.4-1.88.07-.32.14-.65.21-.97,1.28-1.3,2.11-2.89,2.91-4.51.75-.58,1.5-1.17,2.25-1.75,1.53-.57,3.37-.33,4.55-1.78.52-.04,1.04-.08,1.56-.12,3.37.31,3.78-.06,2.94-2.67,0-2.66-.01-5.32-.02-7.97,1.06-1.48.49-3.12.45-4.71.41-1.56,1.61-2.59,2.57-3.78.95-.11,1.48-.68,1.73-1.56,1.27-1.3,2.79-2.26,4.34-3.18.69.12,1.37.2,1.81-.53,1.71,0,3.42,0,5.12-.01.3.59.76.64,1.31.41.66.16,1.33.31,1.99.47.21.64.64.95,1.33.84.15.05.29.11.43.18.14.71.56,1.04,1.29.94.14.06.28.13.42.21.15.7.57,1.04,1.3.93.15.05.29.11.42.18.14.72.56,1.05,1.3.94.14.06.28.13.41.2.14.73.57,1.05,1.32.92.14.06.28.12.41.2.83,1.38,1.9,2.43,3.58,2.65.77.76,1.53,1.53,2.3,2.29-.16.74.37,1.21.66,1.8,3.66,7.22,6.28,14.8,7.17,22.86.44,3.95.17,3.84,4.25,4,9.48.37,19.12-1.45,28.37,2.09.68.3,1.37.6,2.05.9.18.69.6,1,1.32.87,1.83.88,3.66,1.75,5.49,2.62,1.63,1.71,3.67,2.61,5.96,3,.86.33,1.73.65,2.59.98.49,1.05,1.39,1.39,2.47,1.4.15.05.29.12.42.2.13.69.54,1.03,1.25.98.35.23.7.47,1.04.7.11.73.51,1.08,1.26.99.34.23.69.46,1.03.69.02.32.05.65.07.97-.3.2-.59.58-.9.59-4.34.12-4.39.2-2.17,4.08.42.74.92,1.44,1.48,2.08,2.57,2.95,5.97,5,8.47,8.13,1.07,1.34,2.11,3,3.68,4.06,4.44,2.99,8.19,6.95,11.28,11.07,3.98,5.31,9.61,8.83,13.48,14.15,1.41,1.94,2.73,4.14,5.05,5.31.55.28.58.92.65,1.5.37,3.03,2.03,5.61,3.14,8.36,2.62,6.45,6.86,12.12,9.44,18.62.85,2.13,2.91,3.82,3.46,5.67.9,3,2.38,5.46,4.02,7.96.56.86.61,1.81.07,2.7-.98,1.62-.53,3.11-.12,4.86.5,2.12,1.66,3.7,2.73,5.44,1.04,1.69,3.57,2.36,5.23,1.27,2.5-1.64,2.85-3.12.63-6.07-2.38-3.17-4.86-6.2-6.02-10.08-1.03-3.43-3.03-6.52-3.7-10.08-.84-4.48-2.02-8.83-4.26-12.85-3.77-6.76-6.85-13.84-9.42-21.15,1.25.7,1.83,1.96,2.27,3.16,2.33,6.35,5.64,12.2,8.84,18.13,6.01,11.13,10.73,22.85,14.87,34.77,5.16,14.85,9.38,30,13.4,45.2.8,3.02.82,6.19.97,9.32.11,2.22.77,3.35,3.5,2.62,13.58-3.61,27.56-5.1,41.4-7.23,7.05-1.09,14.41-.51,21.61-.25,4.2.15,7,5.51,6.16,10.56-2.55,15.15-5.82,30.14-9.8,44.98-.98,3.64-1.39,7.44-2.03,11.18-.27,1.58-.12,2.6,2.02,2.78,8.49.71,13.63,5.71,16.04,13.56,2.68,8.7,2.92,17.75.99,26.48-1.92,8.69-6.71,15.91-14.79,20.68-4.98,2.94-9.6,6.43-15.53,7.28-1.27.18-1.63,1.1-1.78,2.23-1.43,10.91-4.13,21.58-5.9,32.43-1.72,10.56-3.31,21.15-4.95,31.72-.2,1.31-.39,2.62-.59,3.93ZM116.79,132.69c.02-.18.03-.35.02-.53,1.31-.63,2.63-1.27,3.94-1.9,2.3-.64,4.61-1.27,6.91-1.91.28,0,.57-.01.85-.02.4.81.96,1.44,1.85,1.73.12.3.24.61.36.91-.21.82-.38,1.64.4,2.3.03,1.52.06,3.04.09,4.55-.04,2.14-.26,4.3-.08,6.42.23,2.65.65,5.32,2.57,7.42h.04c.99,2.46,2.16,4.82,4.05,6.75,1.94,2.19,3.49,1.94,6.58-1.07,1.25-.65,2.49-1.29,3.74-1.94.72.09,1.12-.31,1.42-.89.29-.09.57-.18.86-.27,1.86-.4,3.56-1.1,4.84-2.58.47-.1.95-.21,1.42-.31,1.48-.21,2.8-.69,3.73-1.95,1.23-.65,2.46-1.29,3.69-1.94.72.06,1.12-.34,1.37-.95.13.02.25,0,.35-.1,4.46-1.57,8.94-3.08,13.37-4.73,2.52-.93,5.46-.88,7.45-3.09,5.28-1.52,9.31-5.27,13.89-7.99,6.65-3.95,9.78-3.23,13.33,3.68,3.65,7.11,8.48,13.47,13.06,19.98,1.4,2,3,2.3,5.11,1.06,2.28-1.35,4.64-2.58,7.02-3.73,8.41-4.07,15.31-10.54,23.54-14.84,4.58-2.39,8.07-6.23,12.65-8.51,1.13,0,2.25,0,3.38-.01,1.26,1.14,2.77,2.09,3.72,3.44,3.76,5.37,8.41,9.99,12.46,15.12,2.85,3.61,4.24,8.02,6.79,11.79.85,1.25,1.75,1.8,3.27,1.7,3.44-.23,6.74-.92,9.85-2.45,2.55-1.25,4.8-3.1,7.55-3.94,10.43-3.17,18.39-10.37,26.86-16.66,2.89-2.15,5.53-3.91,9.23-3.21,1.89,1,3.34,2.45,4.5,4.23,4.3,6.6,10.44,11.78,14.31,18.73.86,1.54,2.25,2.8,3.51,4.09,2.45,2.52,3.7,2.45,6.04-.25.49-.57.8-1.31,1.3-1.86,2.45-2.64,3.25-6.79,7.37-7.92,1.1-.3.56-1.23.26-1.89-1.53-3.36-3.12-6.69-4.61-10.06-4.34-9.81-10.03-18.96-14.26-28.83-.89-2.08-1.77-4.35-3.52-5.81-4.63-3.86-8.29-8.58-12.33-12.97-8.3-9-16.91-17.69-26.42-25.44-4.09-3.34-7.68-7.39-13-8.97-2.47-.73-4.65-2.11-6.9-3.34-5.93-3.25-11.85-5.87-19.04-5.68-21.12.55-42.25-.38-63.36,1.57-7.62.7-15.29,1.39-22.87,2.3-10.15,1.21-20.01,4.22-29.71,7.54-2.5.86-5.12,1.38-7.43,2.81-8.85,5.52-18.16,10.32-26.41,16.74-6.73,5.23-13.22,10.75-19.13,16.94-5.01,5.25-9.04,11.2-13.18,17.09-4.47,6.35-9.18,12.55-12.76,19.48-1.15.55-1.42,1.69-1.52,2.75-.07.77.53.82,1.07.28.37-.07.73-.14,1.1-.21.48.2.88.12,1.19-.31.56-.08,1.11-.17,1.67-.25.49.19.89.1,1.17-.36.75-.09,1.49-.19,2.24-.28.48.23.88.14,1.18-.32.37-.05.74-.1,1.12-.15.66.2,1.27.21,1.74-.4.96.01,1.91.02,2.87.04-1.35,2.2-2.69,4.41-4.07,6.58-.44.69-.72,1.4-.24,2.08.43.6,1.23.54,1.83.39,2.32-.57,4.83-.34,6.96-1.68-.16,1.47-.93,2.71-1.7,3.87-4.18,6.36-7.65,13.07-10.61,20.07-2.42,5.71-4.79,11.45-7.34,17.11-2.46,5.45-3.97,11.33-6.06,16.96-1.52,4.08-3.39,8.02-4.95,12.09-1.21,3.14-.88,3.53,2.41,4.01,8.14,1.2,16.32,2.17,24.4,3.69,12.54,2.35,25.14,4.36,37.54,7.61,16.57,4.35,33.3,8.07,49.83,12.62,6.85,1.88,13.67,3.85,20.51,5.75.59.16,1.26.75,1.84.09.46-.52-.05-1.05-.21-1.57-1.36-4.57-1.31-8.83,2.83-12.09,1.61-1.27,1.9-2.2-.04-3.65-5.74-4.3-4.91-11.9,1.56-14.94,1.79-.84,3.68-1.53,5.58-2.06,10.93-3.04,22.12-3.15,33.26-2.03,4.71.47,9.45,1.88,13.39,5.07,3,2.43,3.73,4.39,2.65,8.15-.82,2.86-2.94,4.6-5.11,6.28-1.15.89-1.67,1.29-.08,2.37,4.59,3.12,4.92,10.92.62,14.33-2.3,1.82-4.8,3.35-7.65,4.31-6.62,2.22-13.36,3.54-20.38,3.08-1.01-.07-2.17-.39-3.36.6,7.29,2.68,14.3,5.26,21.31,7.8.5.18,1.17.18,1.67,0,6.15-2.26,12.64-3.25,18.82-5.5,13.08-4.75,25.77-10.62,39.43-13.77,3.95-.91,7.87-2.18,11.64-3.68,11.3-4.51,23.01-7.66,34.67-10.98,12.31-3.5,24.94-5.49,37.46-7.98,1.42-.28,2.05-.83,1.89-2.22-.43-3.66-.63-7.37-1.39-10.97-3.08-14.59-7.79-28.67-13.74-42.34-.4-.92-.58-2.12-1.92-2.19-1.25-.07-1.36,1.11-1.88,1.85-2.51,3.56-4.98,7.12-9.54,8.45-6.59,1.92-11.2-1.24-14.61-6.16-4.66-6.7-9.75-13.03-14.75-19.45-.71-.91-1.27-2.44-3.1-1.03-8.76,6.75-17.49,13.49-28.1,17.37-6.18,2.26-11.74,6.01-18.46,7.13-6.28,1.05-10.28.02-13.07-5.71-4.36-8.98-10.87-16.37-16.78-24.22-.68-.9-1.41-1.38-2.34-.5-4.46,4.21-10.12,6.65-15.04,10.21-8.3,6.01-16.9,11.55-26.24,15.86-5.02,2.32-8.58,1.87-12.22-2.44-5.32-6.3-9.91-13.16-14.06-20.3-2.31-3.96-2.28-3.96-6.31-1.47-4.67,2.89-9.19,6.05-14.44,7.92-6.49,2.31-13.38,3.59-19.33,7.37-2.4,1.53-4.96,2.78-7.62,3.81-5.42,2.09-10.32,5.2-15.4,7.95-4.68,2.54-9.86,1.98-12.5-1.55-2.7-3.61-5.52-7.22-7.05-11.6-1.48-4.24-2.37-8.56-2.39-13.06,0-.71.29-1.63-.65-1.98-.73-.27-1.2.38-1.73.76-.3.22-.66.35-1,.52,1.28-3.19-.38-5.44-2.4-7.58Zm119.1,93.55c-.73,1.77-2.52,1.19-3.81,1.68-.68.26-1.21.59-1.22,1.35,0,.73.64.74,1.17.94,1.3.48,2.56,1.06,3.84,1.6-1.14,1.36-3.01,1.97-3.8,3.71-1.95,4.25.3,8.04,5.47,9.5,7.81,2.2,15.72,2,23.62,1.02,4.01-.5,7.99-1.59,11.47-3.85,3.78-2.45,3.81-6.73.08-9.14-1.01-.66-2.11-1.19-3.16-1.77,1.32-.79,2.88-.68,4.29-1.13.57-.18,1.11-.37,1.16-1.04.04-.68-.46-1.1-1.04-1.11-1.48-.04-2.45-1.47-3.96-1.34,1.54-1.81,4.17-1.97,5.68-3.96,2.03-2.68,1.75-5.23-1.19-6.84-2.07-1.14-4.23-1.93-6.65-2.28-6.71-.97-13.44-.51-20.14-.41-4.62.07-9.17,1.28-13.47,3.07-3.59,1.49-3.96,5.89-.8,8.17.83.6,1.64,1.24,2.47,1.86Zm-213.64,57.49c.54.17,1.07.38,1.62.49,4.18.81,6.44-1.64,5.14-5.65-.9-2.78-3.7-2.57-5.79-3.3-1.67-.59-2.52.54-2.14,2.21.38,1.67.59,3.34.55,5.05-4.82,1.46-8.31,4.42-10.16,9.14-1.17,2.98-2.26,5.9-2.64,9.2-1.35,11.79.07,22.66,8.82,31.58,3.27,3.33,6.72,6.38,11.24,7.95,1.6.56,2.63.6,2.23-1.63-1.97-11.15-3.99-22.29-5.82-33.47-1.17-7.17-2.47-14.32-3.07-21.57Zm10.24-67.86c-3.13,0-6.27.04-9.4-.02-1.54-.03-2.2.24-1.84,2.11.81,4.18,1.39,8.4,1.91,12.63,1.98,16.35,4.27,32.65,6.96,48.89,1.44,8.67,2.45,17.42,3.85,26.1,1.48,9.25,3.32,18.44,4.76,27.7,1.17,7.48,1.68,15.06,3.02,22.5,2.44,13.59,4.63,27.22,6.52,40.9,1.63,11.81,3.7,23.55,5.46,35.34.99,6.64,1.99,13.3,2.5,19.99.22,2.95,1.38,4,3.99,4.42,4.95.79,9.91,1.58,14.81,2.63,16.66,3.57,33.33,7.11,49.96,10.85,26.62,5.98,53.13,12.32,79.49,19.34,17.94,4.78,35.82,9.81,54.01,13.55,4.59.94,8.99,2.85,14.16,1.35,19.74-5.75,39.27-12.25,59.37-16.71,17.77-3.94,35.25-9,52.93-13.3,18.77-4.57,37.49-9.33,56.26-13.91,1.98-.48,2.99-1.38,3.13-3.35.12-1.7.15-3.42.43-5.09,1.24-7.56,2.59-15.11,3.81-22.67,2.39-14.76,4.61-29.54,7.12-44.28,1.82-10.73,4.1-21.38,5.99-32.09,1.72-9.79,2.8-19.7,4.88-29.41,2.81-13.1,4.89-26.3,7.11-39.49,2.25-13.36,4.7-26.65,8.37-39.7,2.33-8.31,3.42-16.87,5.05-25.33.22-1.12.19-1.94-1.2-1.93-5.5.06-11.12-.51-16.49.37-15.31,2.51-30.63,4.97-45.84,8.13-14.45,3-29.01,5.52-43.37,8.94-20.5,4.89-40.19,12.47-60.27,18.75-15.63,4.89-30.69,11.54-46.56,15.78-2.48.66-4.77.73-7.21-.2-24.19-9.29-48.85-17.12-73.93-23.57-14.75-3.8-29.57-7.37-44.38-10.94-14.08-3.4-28.29-6.15-42.66-8.09-8.06-1.09-16.24-1.84-24.11-3.76-16-3.92-32.1-6.46-48.59-6.41Zm463.3,91.52c-.2-2.93-.29-5.87-.63-8.78-.9-7.76-3.9-11.28-10.33-12.76-2.31-.53-3.08.25-3.37,2.41-.56,4.21-1.21,8.41-1.97,12.59-2.05,11.25-4.17,22.49-6.28,33.73-.29,1.55-.21,2.61,1.79,1.71,12.18-5.51,21-13.59,20.79-28.91ZM257.27,39.89c4.06,0,7.57,0,11.08,0,3.1-.01,3.26-.23,2.28-3.29-.89-2.79-2.15-5.51-2.68-8.36-1.2-6.46-4.3-11.42-10.16-14.56-1-.53-1.89-1.25-2.85-1.86-4.8-3.08-7.45-1.96-8.04,3.62-.5,4.78-.56,9.53,4.27,12.62.93.6,1.68,1.55,2.36,2.45,1.4,1.86,1.54,3.97.21,5.81-1.3,1.8-3.23,1.19-4.93.47-1.12-.48-2.19-1.12-3.23-1.76-3.87-2.39-7.91-1.32-11.81-.32-2.13.55-1.94,2.84-1.79,4.63.13,1.54,1.4,1.46,2.6,1.41,7.75-.35,15.47-1.25,22.69-.85Zm152.21,145.03c-.54,1.34.56,2.3.88,3.44.22.79,1.14.7,1.2.15.24-2.24,2.56-4.16,1.07-6.66-.55-.93-.45-2.01-.67-3-.65-2.86,0-5.76-.48-8.62-.2-1.22-.62-2.34-1.51-2.91-1.05-.68-1.47.81-2.22,1.25-.57.34-1.1.75-1.7,1.02-1.4.63-1.78,1.64-1.19,3,1.52,3.46,2.16,7.27,4.23,10.5.38.59.71,1.12.39,1.84Zm54.42,158.99c-.15,1.71,1.92,3.23,3.84,2.84,3.22-.65,5.48-4.49,4.65-7.85-.12-.5-.34-.84-.88-.94-3.12-.61-7.33,2.67-7.61,5.95ZM82.39,213.66c-3.91-.96-3,2.1-3.13,3.86-.15,2.04.35,4.02,3.09,4.1,1.4.04,4.91-4.17,4.55-5.96-.51-2.51-2.93-1.62-4.51-2Zm395.71,72.91c2.48.22,3.84-1.14,4.29-2.67.44-1.5,1.6-3.71.45-4.75-1.27-1.15-2.99.65-4.49,1.23-.52.2-.97.58-1.43.9-1.17.81-2.61,1.7-2.1,3.31.51,1.6,2.23,1.78,3.28,1.98ZM97.86,138.01c-.32-1.2-1.03-1.35-1.99-1.09-2.29.63-4.41,1.64-6.5,2.74-.95.5-2,1.2-1.41,2.39.57,1.15,1.74,1.75,3.12,1.22,2.34-.9,4.37-2.26,5.97-4.21.29-.36.56-.73.81-1.05Zm324.06,79c-1.19.19-2.49.62-3.76.56-2.09-.1-2.27,1.02-2.19,2.64.09,1.88,1.32,2.23,2.72,1.93,1.43-.3,2.89-.79,4.12-1.55.92-.57,1.59-1.83,1.42-2.91-.17-1.08-1.42-.44-2.3-.68Zm-190.82,30.72c2.75,2.22,6.18,2.61,9.23,3.95.43.19.95.09,1.12-.49.16-.55-.15-.89-.6-1.12-3.06-1.59-6.27-2.54-9.76-2.33Z"/>
    <path class="cls-2" d="m383.01,102.45c2.56,7.3,5.65,14.38,9.42,21.15,2.24,4.02,3.42,8.36,4.26,12.85.66,3.56,2.67,6.64,3.7,10.08,1.16,3.88,3.64,6.92,6.02,10.08,2.22,2.95,1.86,4.43-.63,6.07-1.66,1.09-4.19.42-5.23-1.27-1.07-1.74-2.23-3.32-2.73-5.44-.41-1.75-.86-3.24.12-4.86.54-.89.49-1.84-.07-2.7-1.64-2.5-3.12-4.96-4.02-7.96-.55-1.85-2.61-3.54-3.46-5.67-2.59-6.5-6.83-12.16-9.44-18.62-1.11-2.75-2.78-5.33-3.14-8.36-.07-.58-.1-1.22-.65-1.5-2.32-1.18-3.64-3.37-5.05-5.31-3.86-5.32-9.5-8.83-13.48-14.15-3.09-4.12-6.84-8.08-11.28-11.07-1.57-1.06-2.61-2.72-3.68-4.06-2.5-3.13-5.9-5.18-8.47-8.13-.56-.64-1.05-1.35-1.48-2.08-2.22-3.89-2.16-3.96,2.17-4.08.3,0,.6-.38.9-.59.38.02.77.04,1.15.05,1.46,1.21,2.92,2.42,4.39,3.63.24.94.77,1.56,1.82,1.57,1.1.81,2.2,1.63,3.3,2.44.23.97.82,1.5,1.83,1.55.34.24.68.48,1.03.72.23.96.8,1.53,1.83,1.55,1.49,1.37,2.98,2.74,4.47,4.1.16.96.72,1.52,1.67,1.7,3.43,3.8,7.36,7.13,10.4,11.29.25,1.55,1.33,2.37,2.62,3.01,2.55,3.14,6.22,5.21,8.32,8.77,1.14,1.74.63,4.55,3.39,5.24h0Z"/>
    <path class="cls-4" d="m311.83,42.52c-9.24-3.54-18.89-1.73-28.37-2.09-4.09-.16-3.81-.05-4.25-4-.9-8.06-3.51-15.64-7.17-22.86-.3-.58-.82-1.05-.66-1.8,1.55.5,2.16,1.9,2.6,3.18,2.57,7.49,6.18,14.7,6.39,22.84.05,1.79,1.33,1.53,2.43,1.53,6.55.01,13.1-.13,19.64.06,3.36.1,6.74.66,9.4,3.13Z"/>
    <path class="cls-4" d="m222.67,36.87c.2,1.72.4,3.44.6,5.16-.34.23-.69.45-1.04.68-1.19-.07-2.38-.13-3.57-.2.25-.26.51-.75.73-.74,2.48.2,2.83-1.08,2.36-3.12-.17-.73,0-1.5.9-1.78Z"/>
    <path class="cls-4" d="m186.45,48.13c-2.39,1.33-4.93,2.18-7.68,2.36,2.24-1.81,4.91-2.25,7.68-2.36Z"/>
    <path class="cls-7" d="m383,102.46c-2.76-.69-2.26-3.5-3.39-5.24,1.84,1.29,2.79,3.15,3.39,5.24Z"/>
    <path class="cls-4" d="m326.65,49.92c-2.3-.39-4.33-1.29-5.96-3,2.3.38,4.34,1.28,5.96,3Z"/>
    <path class="cls-4" d="m226.25,28.48c-.8,1.61-1.63,3.2-2.91,4.51-.17-2.24.63-3.85,2.91-4.51Z"/>
    <path class="cls-4" d="m237.56,22.16c.84,2.6.43,2.98-2.94,2.67.75-1.14,2.76-.89,2.94-2.67Z"/>
    <path class="cls-4" d="m237.99,9.48c.04,1.59.61,3.23-.45,4.71-.51-1.63-1.09-3.27.45-4.71Z"/>
    <path class="cls-4" d="m233.05,24.94c-1.18,1.45-3.02,1.22-4.55,1.78,1.06-1.76,2.74-1.94,4.55-1.78Z"/>
    <path class="cls-4" d="m176.77,50.97c-1.34,1.33-3.07,1.59-4.83,1.8,1.29-1.46,3.02-1.73,4.83-1.8Z"/>
    <path class="cls-4" d="m269.07,9.49c-1.68-.22-2.76-1.27-3.58-2.65,1.67.24,2.93,1.04,3.58,2.65Z"/>
    <path class="cls-4" d="m371.29,88.45c-1.29-.64-2.37-1.46-2.62-3.01,1.51.45,2.74,1.15,2.62,3.01Z"/>
    <path class="cls-4" d="m156.18,61.58c-.69,1.52-2.1,1.85-3.55,2.11.7-1.51,2.11-1.83,3.55-2.11Z"/>
    <path class="cls-4" d="m168.17,54.23c-.75,1.42-2.13,1.79-3.54,2.09.64-1.6,2.09-1.86,3.54-2.09Z"/>
    <path class="cls-4" d="m197.72,45.4c-.99.86-2.12,1.17-3.4.86.98-.89,2.03-1.5,3.4-.86Z"/>
    <path class="cls-4" d="m207.98,43.22c-1.05.85-2.21,1.3-3.58.94.98-1.15,2.21-1.32,3.58-.94Z"/>
    <path class="cls-4" d="m331.71,52.29c-1.08-.02-1.98-.35-2.47-1.4,1.19-.18,2.04.24,2.47,1.4Z"/>
    <path class="cls-4" d="m212.53,42.68c-.71.81-1.58.57-2.44.35.68-1.06,1.49-1.15,2.44-.35Z"/>
    <path class="cls-4" d="m344.15,62.09c-1.05-.02-1.57-.63-1.82-1.57,1.2-.16,1.73.45,1.82,1.57Z"/>
    <path class="cls-4" d="m352.13,68.35c-1.04-.01-1.6-.58-1.83-1.55,1.21-.19,1.72.45,1.83,1.55Z"/>
    <path class="cls-4" d="m358.27,74.15c-.95-.18-1.52-.74-1.67-1.7,1.21-.07,1.78.48,1.67,1.7Z"/>
    <path class="cls-4" d="m349.27,66.08c-1.01-.05-1.6-.58-1.83-1.55,1.21-.19,1.74.42,1.83,1.55Z"/>
    <path class="cls-4" d="m242.29,4.14c-.25.88-.79,1.45-1.73,1.56.02-1.14.51-1.76,1.73-1.56Z"/>
    <path class="cls-4" d="m200.57,44.87c-.47.77-1.15.67-1.86.46.45-.87,1.03-1.19,1.86-.46Z"/>
    <path class="cls-4" d="m223.13,33.96c.25.71.35,1.38-.4,1.88-.76-.81-.44-1.4.4-1.88Z"/>
    <path class="cls-4" d="m248.44.43c-.44.74-1.12.66-1.81.53.36-.99.92-1.31,1.81-.53Z"/>
    <path class="cls-4" d="m202.85,44.39c-.31.52-.77.57-1.29.37.3-.56.6-1.16,1.29-.37Z"/>
    <path class="cls-4" d="m315.2,44.29c-.72.13-1.15-.18-1.32-.87.76-.19,1.14.18,1.32.87Z"/>
    <path class="cls-4" d="m132.78,78.06c-.06.73-.46,1.08-1.19,1.07.07-.72.46-1.09,1.19-1.07Z"/>
    <path class="cls-4" d="m188.74,47.57c-.3.54-.62,1.02-1.27.37.28-.59.73-.65,1.27-.37Z"/>
    <path class="cls-4" d="m144.81,68.47c-.15.69-.56,1.02-1.27.95.13-.72.51-1.08,1.27-.95Z"/>
    <path class="cls-4" d="m149.37,65.64c-.17.68-.59,1-1.3.9.16-.7.54-1.07,1.3-.9Z"/>
    <path class="cls-4" d="m161.89,58.18c-.15.7-.56,1.05-1.3.92.17-.67.56-1.04,1.3-.92Z"/>
    <path class="cls-4" d="m337.95,56.88c-.38-.02-.77-.04-1.15-.05-.02-.33-.04-.65-.07-.97.72-.03,1.16.28,1.22,1.03Z"/>
    <path class="cls-4" d="m263.36,5.52c-.74.12-1.16-.21-1.3-.94.72-.09,1.12.28,1.3.94Z"/>
    <path class="cls-4" d="m333.39,53.47c-.71.05-1.12-.29-1.25-.98.76-.11,1.15.25,1.25.98Z"/>
    <path class="cls-4" d="m261.63,4.4c-.73.11-1.15-.23-1.3-.93.74-.12,1.14.25,1.3.93Z"/>
    <path class="cls-4" d="m259.92,3.27c-.73.1-1.15-.23-1.29-.94.73-.1,1.13.25,1.29.94Z"/>
    <path class="cls-4" d="m258.2,2.14c-.69.11-1.11-.2-1.33-.84.78-.25,1.15.14,1.33.84Z"/>
    <path class="cls-4" d="m265.08,6.64c-.75.14-1.18-.18-1.32-.92.71-.09,1.12.26,1.32.92Z"/>
    <path class="cls-4" d="m335.69,55.16c-.75.09-1.15-.26-1.26-.99.74-.08,1.16.26,1.26.99Z"/>
    <path class="cls-4" d="m128.82,81.52c-.1.7-.49,1.06-1.22,1.03.08-.72.44-1.12,1.22-1.03Z"/>
    <path class="cls-4" d="m254.88.83c-.55.22-1.02.17-1.31-.41.7-.7,1.01-.14,1.31.41Z"/>
    <path class="cls-5" d="m32.48,215.87c16.49-.05,32.59,2.5,48.59,6.41,7.87,1.93,16.05,2.67,24.11,3.76,14.36,1.95,28.57,4.7,42.66,8.09,14.81,3.57,29.62,7.14,44.38,10.94,25.09,6.46,49.75,14.29,73.93,23.57,2.44.94,4.73.86,7.21.2,15.87-4.24,30.94-10.89,46.56-15.78,20.08-6.28,39.77-13.86,60.27-18.75,14.36-3.42,28.92-5.94,43.37-8.94,15.21-3.16,30.53-5.62,45.84-8.13,5.37-.88,10.99-.31,16.49-.37,1.38-.02,1.41.81,1.2,1.93-1.63,8.45-2.71,17.02-5.05,25.33-3.67,13.05-6.12,26.35-8.37,39.7-2.22,13.19-4.31,26.4-7.11,39.49-2.08,9.7-3.16,19.62-4.88,29.41-1.89,10.72-4.16,21.37-5.99,32.09-2.51,14.74-4.73,29.52-7.12,44.28-1.23,7.56-2.58,15.11-3.81,22.67-.27,1.68-.3,3.39-.43,5.09-.14,1.97-1.15,2.87-3.13,3.35-18.77,4.58-37.49,9.35-56.26,13.91-17.68,4.3-35.16,9.36-52.93,13.3-20.1,4.46-39.64,10.95-59.37,16.71-5.17,1.51-9.57-.4-14.16-1.35-18.19-3.74-36.08-8.77-54.01-13.55-26.36-7.02-52.87-13.35-79.49-19.34-16.63-3.74-33.3-7.28-49.96-10.85-4.9-1.05-9.86-1.83-14.81-2.63-2.61-.42-3.77-1.48-3.99-4.42-.51-6.69-1.51-13.35-2.5-19.99-1.76-11.79-3.83-23.53-5.46-35.34-1.89-13.68-4.08-27.3-6.52-40.9-1.33-7.44-1.85-15.03-3.02-22.5-1.44-9.26-3.28-18.45-4.76-27.7-1.39-8.68-2.41-17.43-3.85-26.1-2.7-16.25-4.98-32.55-6.96-48.89-.51-4.23-1.1-8.45-1.91-12.63-.36-1.87.29-2.14,1.84-2.11,3.13.05,6.27.02,9.4.02Zm18.83,44.84c0,.95-.16,1.93.02,2.84,2.33,11.18,2.73,22.62,4.85,33.86,2.29,12.12,4.19,24.31,6.95,36.35.71,3.09,2.19,4.87,5.34,5.32,8.49,1.22,17.06,1.8,25.51,3.34,11.77,2.15,23.6,3.98,35.38,6.08,4.45.79,8.95,1.33,13.37,2.38,3.82.91,5.97-1.11,5.95-5.01-.01-3.22-.5-6.4-.66-9.61-.17-3.49-.28-6.99-.56-10.47-.81-10.15-1.85-20.29-2.75-30.43-.62-6.95-1.09-13.92-1.77-20.87-.38-3.83-1.54-4.73-5.5-5.67-1.49-.36-3-.31-4.48-.66-13.22-3.19-26.73-4.76-40.1-7.08-11.97-2.08-24.05-3.55-36.1-5.12-3.85-.5-5.96-.7-5.48,4.77Zm311.39,191.16c.21-.03,1.07-.06,1.89-.25,8.81-2.1,17.6-4.27,26.42-6.31,9.28-2.15,18.44-4.76,27.78-6.72,6.34-1.33,8.55-3.26,8.66-10.13.04-2.34.55-4.67.88-7,1.01-6.99,2.08-13.98,3.04-20.98,1.09-7.93,1.97-15.9,3.19-23.81.76-4.92-1.59-7.75-6.37-6.79-10.45,2.11-20.88,4.27-31.28,6.61-9.2,2.07-18.31,4.54-27.51,6.59-6.35,1.42-7.6,4.28-8.11,10.19-.5,5.73-.76,11.51-1.37,17.21-1.26,11.91-1.13,23.93-3.12,35.79-.62,3.73,1.53,5.66,5.89,5.6Zm-88.63-103.06h-.01c0-19.47.02-38.94-.03-58.41,0-2.16-.29-4.34-.62-6.48-.24-1.53-1.07-2.53-2.89-2.5-2.58.04-3.25.8-3.28,4.1-.29,26.29.26,52.57-.4,78.86-.47,18.37-.71,36.73-1.77,55.09-.49,8.59-.9,17.2-1.1,25.8-.32,13.56-1.1,27.11-.71,40.68.06,2.24,1.35,3.56,3.34,3.99,1.79.38,3.78-1.81,4.07-3.9,1.12-8,.27-16.08,1.06-24.1.49-4.98.36-10.03.47-15.04.32-14.2,1.52-28.36,1.78-42.55.35-18.51.08-37.04.08-55.56Zm-37.47,55.17c4.95.04,7.06-1.2,7.27-3.6.21-2.43-1.97-4.37-5.61-4.88-2.15-.3-4.32-.43-6.47-.76-9.23-1.43-18.4-3.13-27.56-4.97-9.43-1.89-19.05-3.04-28.33-5.45-9.32-2.42-18.65-4.78-27.98-7.13-9.52-2.4-19.18-4.13-28.75-6.25-14.78-3.28-29.81-4.67-44.75-6.69-2-.27-4.82-.44-5.94,2.19-1.19,2.79.66,5.01,4.06,5.65,11.4,2.15,23.03,2.51,34.41,5,13.63,2.99,27.43,5.2,40.98,8.62,11.71,2.96,23.41,6.01,35.22,8.54,13.46,2.89,27.02,5.3,40.55,7.81,4.63.86,9.33,1.38,12.9,1.9Zm-162.54-7.43c-1.66.24-3.52.55-3.94,2.75-.44,2.34.4,4.1,2.87,4.79,4.28,1.18,8.6,2.31,13.01,2.7,10.45.93,20.72,3.02,30.99,4.89,13.35,2.43,26.51,5.9,39.83,8.5,7.04,1.37,13.97,3.22,21.05,4.39,8,1.32,16.06,2.46,23.93,4.35,11.57,2.78,23.31,4.63,34.98,6.89,2.82.54,6.12-1.59,6.52-3.82.51-2.88-.49-4.14-4.81-4.74-7.57-1.06-15.05-2.61-22.55-4-6.39-1.18-12.74-2.53-19.08-3.94-4.99-1.11-10.11-1.41-15.07-2.41-16.37-3.28-32.63-7.06-48.97-10.48-7.85-1.64-15.61-3.71-23.58-4.77-7.66-1.02-15.29-2.19-22.94-3.3-4.01-.58-8.02-1.18-12.23-1.81Zm161.66,69.63c1.13-.23,2.42.27,3.56-.43,1.32-.83,2.07-2.03,1.71-3.6-.44-1.9-1.66-3.07-3.63-3.49-11.64-2.44-23.26-4.91-34.9-7.37-11.08-2.34-22.28-3.96-33.43-5.9-13.46-2.35-26.79-5.45-40.24-7.92-16.24-2.98-32.46-5.95-48.85-7.98-2.7-.34-4.29.4-5.18,2.64-.79,1.99.57,4.03,3.29,4.81,2.8.8,5.7,1.35,8.58,1.78,11.1,1.63,22.17,3.39,33.16,5.72,7.92,1.68,15.95,2.77,23.88,4.38,8.23,1.68,16.44,3.48,24.67,5.07,6.81,1.32,13.79,2.15,20.66,3.31,11.71,1.98,23.15,5.39,34.95,6.95,3.93.52,7.67,2.07,11.77,2.05Zm213.06-209.97c-2.12.44-4.24.92-6.37,1.31-9.83,1.79-19.73,3.31-29.5,5.4-11.14,2.39-22.17,5.31-33.26,7.96-6.79,1.63-13.73,2.76-20.36,4.89-10.07,3.23-20.34,5.82-30.27,9.56-6.16,2.32-12.77,3.39-18.91,5.88-3.07,1.24-6.17,2.41-9.23,3.68-2.33.97-3.78,3.57-3.14,5.37.82,2.26,2.72,3.22,5.53,2.32,3.68-1.18,7.22-2.78,10.9-3.97,6.65-2.15,13.46-3.84,20-6.26,9.07-3.36,18.38-5.92,27.63-8.6,8.97-2.6,18.14-4.53,27.23-6.7,6.15-1.47,12.28-2.97,18.48-4.26,6.37-1.32,12.81-2.37,19.14-3.83,4.52-1.04,9.08-1.68,13.65-2.37,3.54-.53,7.08-1.25,10.41-2.62,2.09-.86,3.47-2.42,2.82-4.9-.64-2.43-2.62-2.71-4.77-2.88Zm-148.18,83.41c1.38-.02,2.48-.02,3.58-.52,8.48-3.84,17.43-6.16,26.42-8.42,13.83-3.47,27.37-8.01,41.21-11.49,14.28-3.59,28.45-7.62,42.68-11.45,10.57-2.84,21.09-5.83,31.45-9.36,3.36-1.14,4.49-3,3.62-5.96-.61-2.07-3.61-3.25-6.29-2.22-4.85,1.86-9.86,3.18-14.8,4.72-23.63,7.39-47.81,12.77-71.57,19.65-16.76,4.85-33.84,8.64-50.25,14.7-2.57.95-5.18,1.86-7.63,3.06-1.93.95-3,2.9-2.5,4.97.48,1.99,2.31,2.61,4.09,2.31Zm.48,33.09c.75-.07,1.53-.05,2.26-.22,10.59-2.4,21.2-4.68,31.73-7.3,9.31-2.32,18.51-5.1,27.79-7.56,7.85-2.08,15.85-3.61,23.57-6.16,9.06-2.99,18.4-5,27.54-7.71,8.14-2.41,16.46-4.23,24.51-7.01,2.47-.85,3.48-3.11,2.47-5.66-.89-2.24-2.72-2.69-4.93-2.05-2.45.71-4.9,1.38-7.35,2.09-12.05,3.51-24.32,6.22-36.3,10-4.5,1.42-8.99,2.89-13.55,4.07-8.31,2.15-16.75,3.84-25,6.19-14.35,4.09-28.79,7.82-43.32,11.19-3.75.87-7.66,1.4-11.07,3.44-1.94,1.16-2.37,2.94-1.83,4.92.47,1.71,1.97,1.84,3.48,1.79Zm-56.07-76.05c.03-2.4-1.79-4.21-4.67-4.85-6.06-1.36-12.22-2.15-18.32-3.36-6.99-1.39-13.71-3.64-20.41-5.78-10.5-3.35-21.01-6.18-32.05-6.61-1.93-.08-4.35-.14-4.84,2.77-.43,2.58,1.01,3.91,3.12,4.73,1.05.41,2.13.7,3.3.79,2.25.18,4.48.63,6.73.84,9.24.87,17.72,4.6,26.5,7.17,11.79,3.45,23.69,6.33,35.85,8.11,2.73.4,4.74-1.23,4.77-3.81Zm-4.62,41.23c4.65.08,6.38-1.52,5.74-4.93-.48-2.54-2.71-3.17-4.86-3.58-6.84-1.31-13.79-2.3-20.54-3.85-11.92-2.74-23.6-6.53-35.38-9.9-4.36-1.25-8.7-2.54-13.06-3.78-1.85-.53-3.53-.11-4.38,1.65-.76,1.59-.7,3.26.7,4.71,1.17,1.2,2.54,2.02,4.09,2.47,4.52,1.32,9.09,2.44,13.59,3.83,5.41,1.67,10.66,4.01,16.17,5.21,9.65,2.11,19.12,5.04,28.98,6.24,3.25.4,6.44,1.37,8.97,1.93Zm-67.04,8.65c-3.15-.24-4.92.4-5.23,2.91-.3,2.41.44,4.3,3.11,4.95,2.2.53,4.36,1.27,6.58,1.7,10.86,2.1,21.37,5.53,31.88,8.83,9.84,3.09,19.86,5.04,29.93,6.96,2.53.48,4.78-.99,5.3-3.19.62-2.67-.86-4.1-3.1-4.98-.87-.34-1.81-.55-2.73-.72-11.02-2.03-21.99-4.16-32.71-7.58-8.26-2.63-16.51-5.42-25.1-6.97-2.96-.53-5.86-1.4-7.92-1.9Zm163.76,45.49c-3.7.06-6.72,1.52-9.92,2.22-9.07,1.99-17.5,6.09-26.53,8.28-1.68.41-3.43,1.05-4.63,2.59-1.63,2.07-1.11,4.27,1.32,5.21,1.27.49,2.54.65,3.89.31,2.65-.68,5.35-1.17,7.97-1.96,6.14-1.84,12.24-3.85,18.38-5.71,3.43-1.04,6.91-1.9,10.35-2.9,2.67-.78,3.08-2.95,2.76-5.23-.3-2.13-1.87-2.93-3.59-2.8Zm-38.47,50.75c.76-.04,1.55.04,2.27-.15,9.18-2.56,18.68-3.85,27.78-6.75,2.43-.77,4.93-1.36,7.28-2.31,2.07-.84,3.49-2.42,2.82-4.89-.61-2.25-2.57-3.16-5.16-2.62-2.49.52-5.05.82-7.46,1.59-9.38,2.99-19.06,4.82-28.48,7.67-2.48.75-4.04,2.62-3.6,4.65.53,2.45,2.35,2.98,4.56,2.81Zm1.61,26.78c1.12-.08,2.42-.17,3.74-.33,4.26-.51,8.19-2.21,12.32-3.17,5.88-1.37,11.71-2.95,17.51-4.6,2.98-.85,4.6-3.37,3.99-5.65-.65-2.45-2.63-3.14-6.3-2.28-7.44,1.75-14.55,4.75-22.11,6.04-4.2.72-8.17,2.12-12.11,3.67-1.75.69-3.04,1.8-2.57,3.82.41,1.75,1.75,2.61,3.62,2.5.57-.03,1.14,0,1.9,0Z"/>
    <path class="cls-6" d="m119.19,140.28c.33-.17.7-.3,1-.52.53-.38,1-1.03,1.73-.76.94.35.65,1.27.65,1.98.03,4.5.91,8.82,2.39,13.06,1.53,4.38,4.35,7.99,7.05,11.6,2.64,3.53,7.82,4.08,12.5,1.55,5.08-2.76,9.98-5.86,15.4-7.95,2.66-1.03,5.22-2.28,7.62-3.81,5.95-3.77,12.83-5.05,19.33-7.37,5.24-1.87,9.77-5.03,14.44-7.92,4.03-2.49,4-2.5,6.31,1.47,4.15,7.14,8.74,14,14.06,20.3,3.64,4.31,7.2,4.76,12.22,2.44,9.33-4.31,17.94-9.86,26.24-15.86,4.91-3.56,10.57-5.99,15.04-10.21.93-.88,1.66-.4,2.34.5,5.91,7.85,12.41,15.24,16.78,24.22,2.78,5.73,6.79,6.76,13.07,5.71,6.72-1.12,12.28-4.86,18.46-7.13,10.61-3.88,19.34-10.62,28.1-17.37,1.83-1.41,2.39.12,3.1,1.03,4.99,6.42,10.09,12.76,14.75,19.45,3.42,4.91,8.02,8.08,14.61,6.16,4.56-1.33,7.03-4.89,9.54-8.45.52-.74.63-1.92,1.88-1.85,1.34.07,1.52,1.28,1.92,2.19,5.96,13.67,10.66,27.75,13.74,42.34.76,3.59.95,7.31,1.39,10.97.17,1.39-.46,1.93-1.89,2.22-12.52,2.5-25.16,4.48-37.46,7.98-11.66,3.32-23.38,6.47-34.67,10.98-3.77,1.51-7.68,2.77-11.64,3.68-13.65,3.15-26.35,9.02-39.43,13.77-6.17,2.24-12.67,3.24-18.82,5.5-.5.18-1.17.18-1.67,0-7.02-2.54-14.02-5.12-21.31-7.8,1.19-.99,2.35-.67,3.36-.6,7.03.47,13.76-.86,20.38-3.08,2.85-.95,5.35-2.49,7.65-4.31,4.3-3.41,3.97-11.21-.62-14.33-1.59-1.08-1.07-1.48.08-2.37,2.17-1.68,4.29-3.42,5.11-6.28,1.07-3.76.34-5.72-2.65-8.15-3.94-3.19-8.68-4.6-13.39-5.07-11.14-1.11-22.32-1.01-33.26,2.03-1.91.53-3.79,1.22-5.58,2.06-6.47,3.04-7.3,10.63-1.56,14.94,1.93,1.45,1.65,2.37.04,3.65-4.14,3.27-4.19,7.53-2.83,12.09.16.53.67,1.05.21,1.57-.58.66-1.26.08-1.84-.09-6.84-1.9-13.66-3.87-20.51-5.75-16.52-4.55-33.26-8.27-49.83-12.62-12.4-3.25-24.99-5.26-37.54-7.61-8.08-1.51-16.26-2.49-24.4-3.69-3.28-.48-3.62-.87-2.41-4.01,1.56-4.06,3.43-8.01,4.95-12.09,2.09-5.63,3.6-11.5,6.06-16.96,2.56-5.66,4.93-11.4,7.34-17.11,2.96-7,6.44-13.71,10.61-20.07.76-1.16,1.53-2.41,1.7-3.87.09-.12.15-.26.17-.41Zm193.18,58.51c9.94-.08,15.97-7.32,13.45-15.04-2.39-7.32-9.65-11.14-16.14-4.24-1.04,1.1-2.26,2.05-3.18,3.24-2.35,3.04-2.76,6.45-.97,9.82,1.71,3.2,4.03,5.91,6.84,6.22Zm-129.77,6.71c3.17.29,6.01-.27,8.82-1.29,2.34-.84,3.67-2.52,3.8-4.84.26-4.56-.72-8.98-3.47-12.63-3.17-4.21-11.32-4.3-14.17-.31-2.15,3.01-3.84,6.33-4.72,9.97-1.18,4.86,1.3,8.49,6.23,9.07,1.22.14,2.46.02,3.52.02Z"/>
    <path class="cls-3" d="m107.63,134.15c-.75.09-1.49.19-2.24.28-.68-.82-.96-.35-1.17.36-.56.08-1.11.17-1.67.25-.65-.85-.96-.43-1.19.31-.37.07-.73.14-1.1.21.15-1.01.3-2.02.45-3.03,3.58-6.93,8.29-13.13,12.76-19.48,4.14-5.88,8.17-11.84,13.18-17.09,5.91-6.19,12.4-11.71,19.13-16.94,8.26-6.42,17.57-11.23,26.41-16.74,2.3-1.44,4.92-1.96,7.43-2.81,9.7-3.32,19.55-6.33,29.71-7.54,7.59-.91,15.25-1.6,22.87-2.3,21.12-1.95,42.25-1.01,63.36-1.57,7.19-.19,13.11,2.43,19.04,5.68,2.25,1.23,4.43,2.61,6.9,3.34,5.32,1.58,8.91,5.63,13,8.97,9.51,7.75,18.12,16.44,26.42,25.44,4.04,4.39,7.71,9.11,12.33,12.97,1.75,1.46,2.63,3.73,3.52,5.81,4.23,9.87,9.91,19.02,14.26,28.83,1.49,3.37,3.09,6.7,4.61,10.06.3.67.84,1.59-.26,1.89-4.12,1.13-4.92,5.28-7.37,7.92-.51.55-.81,1.29-1.3,1.86-2.34,2.7-3.6,2.77-6.04.25-1.25-1.29-2.65-2.55-3.51-4.09-3.87-6.95-10.02-12.13-14.31-18.73-1.16-1.78-2.61-3.24-4.5-4.23-.67-3.33-1.1-6.73-2.09-9.96-.63-2.05-1-3.75.4-5.57,1.04-1.35.64-2.76-.88-3.21-3.54-1.05-6.65-2.89-9.83-4.67-1.46-.82-3.15-1.06-4.78-1.48-3.79-.99-7.79.67-11.49-1.19-.88-.44-.72.79-.97,1.33-.69,1.51-1.6,2.4-3.26,1.08-.47-.38-1-.55-1.52-.03.36,1.15.72,2.29,1.09,3.43.15.46.35.98-.3,1.15-.31.08-.76-.04-1.05-.23-.56-.37-.87-.92-1.14-1.57-.74-1.8-6.57-3.59-7.8-2.18-.96,1.09-3.73,2.17-1.31,4.51.93.9.55,1.55-.7,2.03-3.65,1.39-6.33,4.35-9.76,6.21-4.59,2.5-8.92,4.87-14.37,3.32-3.45-.98-6.65.84-9.98,1.22-1.13,0-2.25,0-3.38.01-2.29-2.24-4.21-2.27-7.15,0-.76.58-1.52,1.56-2.39,1.41-3.74-.65-7.43-.75-11.25-.7-3.9.05-7.65.06-11.35,1.31-1.43.48-2.79.56-4.38.41-4.48-.42-9.05-.83-13.51-.05-2.73.48-5.22,1.95-6.83-1.87-.89-2.12-3.56-.65-4.9-1.46-2.39-1.46-5.15-1.76-7.55-3.15-2.95-1.72-3.75-1.31-5.31,1.69-.55,1.05-1.11,2-2.35,2.29-1.43.33-2.23,1.34-2.92,2.52-.33.56-.54,1.49-1.24,1.43-2.88-.27-4.77,1.29-6.7,3.1-.66.62-1.93.64-2.94.81-3.79.64-8.1-1.02-11.21,2.59-.14.16-.66.26-.76.16-1.88-1.88-2.94.14-4.37.79-2.14.97-4.2,3.28-6.8.4-.84-.92-2.26-.13-2.95,1.18-1.47,2.78-3.81,3.92-6.83,3.05-6.42-1.85-10.34,1.51-13.66,6.3-.19.19-.38.38-.57.57-1.27-.2-2.4.35-3.57.69,0,0-.04,0-.04,0-1.19-4.13-1.9-8.32-1.57-12.64.05-.63-.3-1.05-.93-1.21-.03-1.52-.06-3.04-.09-4.55.73-.92.81-1.72-.4-2.3-.12-.3-.24-.61-.36-.91.1-1.34-.48-1.95-1.85-1.72-.28,0-.57.01-.85.02-1.91-.95-5.06-.08-6.91,1.91-1.31.63-2.63,1.27-3.94,1.9-.88.05-1.93-.35-2.38.89.03.09.06.18.1.27-.96-.01-1.91-.02-2.87-.04-.81-.86-1.38-.7-1.74.4-.37.05-.74.1-1.12.15-.63-.78-.94-.36-1.18.32Z"/>
    <path class="cls-8" d="m278.62,128.21c3.33-.37,6.53-2.2,9.98-1.22,5.45,1.55,9.77-.82,14.37-3.32,3.43-1.87,6.1-4.82,9.76-6.21,1.24-.47,1.63-1.13.7-2.03-2.42-2.35.35-3.42,1.31-4.51,1.24-1.41,7.06.38,7.8,2.18.27.65.58,1.2,1.14,1.57.28.19.73.31,1.05.23.65-.17.45-.69.3-1.15-.37-1.14-.72-2.28-1.09-3.43.52-.52,1.05-.35,1.52.03,1.66,1.32,2.57.43,3.26-1.08.24-.54.09-1.77.97-1.33,3.7,1.85,7.7.2,11.49,1.19,1.63.43,3.32.67,4.78,1.48,3.18,1.78,6.29,3.62,9.83,4.67,1.52.45,1.92,1.87.88,3.21-1.41,1.82-1.03,3.52-.4,5.57.99,3.23,1.42,6.63,2.09,9.96-3.7-.7-6.34,1.06-9.23,3.21-8.47,6.29-16.43,13.49-26.86,16.66-2.75.83-5,2.68-7.55,3.94-3.11,1.53-6.41,2.22-9.85,2.45-1.51.1-2.42-.45-3.27-1.7-2.55-3.77-3.95-8.18-6.79-11.79-4.04-5.13-8.69-9.76-12.46-15.12-.95-1.35-2.47-2.31-3.72-3.44Z"/>
    <path class="cls-8" d="m133.75,151.66c1.17-.34,2.29-.89,3.57-.69-.49,1.13-1.14,2.28.05,3.36.89.8,1.87.45,2.56-.22,1.03-1,1.85-2.58,1.54-3.74-.34-1.27-1.75.32-2.73.04-.26-.08-.57,0-.85,0,3.31-4.78,7.23-8.15,13.66-6.3,3.02.87,5.36-.27,6.83-3.05.69-1.31,2.12-2.1,2.95-1.18,2.61,2.88,4.66.57,6.8-.4,1.43-.65,2.49-2.67,4.37-.79.11.11.62,0,.76-.16,3.12-3.61,7.43-1.95,11.21-2.59,1.01-.17,2.28-.2,2.94-.81,1.93-1.81,3.82-3.37,6.7-3.1.7.07.91-.87,1.24-1.43.69-1.17,1.49-2.19,2.92-2.52,1.23-.28,1.8-1.23,2.35-2.29,1.56-3,2.36-3.41,5.31-1.69,2.39,1.39,5.15,1.7,7.55,3.15,1.33.81,4-.66,4.9,1.46,1.61,3.82,4.1,2.34,6.83,1.87,4.46-.78,9.03-.37,13.51.05,1.59.15,2.95.07,4.38-.41,3.7-1.25,7.45-1.26,11.35-1.31,3.82-.05,7.51.05,11.25.7.87.15,1.63-.83,2.39-1.41,2.94-2.27,4.86-2.24,7.15,0-4.59,2.28-8.08,6.12-12.65,8.51-8.23,4.29-15.13,10.76-23.54,14.84-2.39,1.16-4.74,2.39-7.02,3.73-2.11,1.25-3.71.94-5.11-1.06-4.58-6.52-9.41-12.87-13.06-19.98-3.55-6.91-6.68-7.63-13.33-3.68-4.59,2.73-8.61,6.47-13.89,7.99-7.04,1.51-13.61,4.43-20.34,6.87-.25.09-.33.62-.49.95-.1.09-.22.13-.35.1-.77-.14-1.27.11-1.37.95-1.23.65-2.46,1.29-3.69,1.94-1.59-.01-2.92.46-3.73,1.95-.47.1-.95.21-1.43.31-1.94.25-3.74.76-4.84,2.58-.29.09-.57.18-.86.27-.76-.16-1.3.04-1.42.89-1.25.65-2.49,1.29-3.74,1.94-2.38-.76-4.36.91-6.58,1.07-1.89-1.93-3.06-4.28-4.05-6.75Z"/>
    <path class="cls-6" d="m22.25,283.73c.61,7.25,1.9,14.4,3.07,21.57,1.82,11.18,3.84,22.32,5.82,33.47.39,2.23-.63,2.19-2.23,1.63-4.52-1.57-7.97-4.62-11.24-7.95-8.75-8.91-10.17-19.79-8.82-31.58.38-3.3,1.47-6.22,2.64-9.2,1.86-4.72,5.35-7.68,10.16-9.14.2.4.4.8.6,1.21Z"/>
    <path class="cls-6" d="m495.78,307.39c.21,15.32-8.61,23.4-20.79,28.91-1.99.9-2.08-.16-1.79-1.71,2.11-11.24,4.23-22.48,6.28-33.73.76-4.18,1.41-8.38,1.97-12.59.29-2.17,1.06-2.95,3.37-2.41,6.43,1.48,9.43,5,10.33,12.76.34,2.91.43,5.85.63,8.78Z"/>
    <path class="cls-1" d="m269.55,231.26c1.06.59,2.15,1.12,3.16,1.78,3.73,2.41,3.7,6.69-.08,9.14-3.49,2.26-7.46,3.36-11.47,3.85-7.9.98-15.81,1.19-23.62-1.02-5.17-1.46-7.42-5.24-5.47-9.5.8-1.73,2.66-2.35,3.8-3.71,5.47-1.07,11-.31,16.5-.61,3.07,0,6.15-.02,9.22-.02l7.96.08Z"/>
    <path class="cls-6" d="m257.27,39.89c-7.22-.4-14.94.5-22.69.85-1.2.05-2.47.13-2.6-1.41-.15-1.78-.34-4.08,1.79-4.63,3.89-1,7.93-2.07,11.81.32,1.04.64,2.11,1.28,3.23,1.76,1.7.73,3.63,1.33,4.93-.47,1.33-1.84,1.19-3.96-.21-5.81-.68-.9-1.43-1.85-2.36-2.45-4.82-3.09-4.77-7.84-4.27-12.62.59-5.59,3.24-6.7,8.04-3.62.96.61,1.85,1.33,2.85,1.86,5.86,3.14,8.96,8.1,10.16,14.56.53,2.85,1.78,5.57,2.68,8.36.98,3.06.82,3.28-2.28,3.29-3.51.01-7.02,0-11.08,0Z"/>
    <path class="cls-1" d="m235.89,226.25c-.82-.62-1.63-1.26-2.47-1.86-3.16-2.28-2.79-6.67.8-8.17,4.3-1.79,8.84-3,13.47-3.07,6.71-.1,13.43-.56,20.14.41,2.42.35,4.58,1.15,6.65,2.28,2.94,1.61,3.22,4.16,1.19,6.84-1.51,1.99-4.14,2.14-5.68,3.96-.54.02-1.08.04-1.62.07-1.35-.73-2.67-.83-3.96.12-.38,0-.76,0-1.14,0-6.48.09-12.96-.99-19.43.03l-3.97-.05c-.83-.95-1.89-.51-2.88-.46-.37-.03-.73-.06-1.1-.1Z"/>
    <path class="cls-2" d="m409.48,184.93c.32-.72-.01-1.25-.39-1.84-2.07-3.23-2.71-7.04-4.23-10.5-.6-1.36-.21-2.37,1.19-3,.6-.27,1.13-.68,1.7-1.02.75-.44,1.17-1.93,2.22-1.25.89.57,1.3,1.69,1.51,2.91.48,2.87-.17,5.77.48,8.62.22,1,.12,2.07.67,3,1.49,2.5-.83,4.41-1.07,6.66-.06.55-.97.64-1.2-.15-.32-1.14-1.42-2.1-.88-3.44Z"/>
    <path class="cls-2" d="m239.87,226.8c1.32.02,2.65.04,3.97.05.65,2.75,2.39,3.64,5.14,3.39,1.09-.1,2.72-.93,3.38.96-5.5.3-11.03-.46-16.5.61-1.28-.54-2.54-1.13-3.84-1.6-.54-.2-1.18-.2-1.17-.94,0-.76.54-1.09,1.22-1.35,1.3-.5,3.08.09,3.81-1.68.37.03.73.06,1.1.09.75,1.49,1.78,1.17,2.88.46Z"/>
    <path class="cls-2" d="m22.25,283.73c-.2-.4-.4-.8-.6-1.21.04-1.71-.17-3.38-.55-5.05-.38-1.67.46-2.8,2.14-2.21,2.09.73,4.88.53,5.79,3.3,1.3,4-.97,6.46-5.14,5.65-.55-.11-1.08-.32-1.62-.49Z"/>
    <path class="cls-2" d="m119.19,140.28c-.02.15-.08.29-.17.41-2.13,1.35-4.64,1.11-6.96,1.68-.6.15-1.41.21-1.83-.39-.49-.69-.2-1.4.24-2.08,1.38-2.18,2.72-4.39,4.07-6.58-.03-.09-.07-.18-.1-.27.87.42,1.52-.54,2.35-.36,2.02,2.14,3.68,4.4,2.4,7.58Z"/>
    <path class="cls-2" d="m463.91,343.92c.28-3.28,4.49-6.56,7.61-5.95.54.11.75.44.88.94.83,3.35-1.44,7.19-4.65,7.85-1.93.39-3.99-1.13-3.84-2.84Z"/>
    <path class="cls-2" d="m32.37,349.37c.36-2.01-.15-3.93-.62-5.85-.18-.74-.54-1.92.37-1.86,2.29.15,4.88.22,6.71,1.36,1.19.74.89,3.42.08,5.01-1.16,2.27-3.3,2.14-5.44,1.5-.35-.11-.74-.11-1.11-.16,0,0,0,0,0,0Z"/>
    <path class="cls-2" d="m222.24,42.71c.35-.23.69-.45,1.04-.68,2.06-.19,4.12-.38,6.19-.57.82-.07,1.98-1.15,2.33.39.28,1.22.61,2.73-.89,3.57-1.09.6-2.06,1.22-2.8,2.31-.67.99-1.89.81-2.87.39-1.42-.6-2.74-1.41-2.98-3.14-.1-.75-.02-1.52-.01-2.28Z"/>
    <path class="cls-2" d="m263.28,226.82c.38,0,.76,0,1.14,0,1.35.73,2.67.87,3.96-.12.54-.02,1.08-.04,1.62-.07,1.51-.13,2.48,1.3,3.96,1.34.58.02,1.09.43,1.04,1.11-.04.67-.59.87-1.16,1.04-1.41.44-2.97.33-4.29,1.13-2.65-.03-5.31-.05-7.96-.08-1.14-1.81-1.75-3.41,1.37-3.64.12,0,.21-.47.31-.72Z"/>
    <path class="cls-2" d="m82.39,213.66c1.58.37,4.01-.52,4.51,2,.36,1.8-3.16,6-4.55,5.96-2.74-.07-3.25-2.06-3.09-4.1.13-1.77-.77-4.82,3.13-3.86Z"/>
    <path class="cls-2" d="m478.09,286.57c-1.05-.2-2.77-.38-3.28-1.98-.51-1.61.92-2.5,2.1-3.31.46-.32.91-.7,1.43-.9,1.5-.58,3.21-2.38,4.49-1.23,1.16,1.04,0,3.25-.45,4.75-.44,1.53-1.81,2.88-4.29,2.67Z"/>
    <path class="cls-2" d="m97.86,138.01c-.25.32-.52.69-.81,1.05-1.6,1.95-3.63,3.32-5.97,4.21-1.37.53-2.55-.07-3.12-1.22-.59-1.19.45-1.89,1.41-2.39,2.09-1.1,4.21-2.11,6.5-2.74.97-.27,1.67-.12,1.99,1.09Z"/>
    <path class="cls-2" d="m421.92,217.01c.87.24,2.13-.4,2.3.68.17,1.08-.5,2.34-1.42,2.91-1.23.76-2.69,1.25-4.12,1.55-1.4.3-2.62-.05-2.72-1.93-.08-1.62.1-2.74,2.19-2.64,1.28.06,2.58-.37,3.76-.56Z"/>
    <path class="cls-5" d="m165.8,146.41c.16-.33.24-.86.49-.95,6.73-2.44,13.29-5.36,20.34-6.87-1.99,2.21-4.93,2.16-7.45,3.09-4.43,1.64-8.91,3.16-13.37,4.73Z"/>
    <path class="cls-2" d="m231.1,247.73c3.49-.2,6.71.75,9.76,2.33.44.23.76.58.6,1.12-.17.58-.69.68-1.12.49-3.05-1.34-6.48-1.73-9.23-3.95Z"/>
    <path class="cls-5" d="m131.21,137.82c.63.16.98.57.93,1.21-.34,4.32.37,8.51,1.57,12.64-1.93-2.1-2.35-4.77-2.58-7.42-.18-2.12.04-4.28.08-6.42Z"/>
    <path class="cls-5" d="m137.8,158.41c2.22-.16,4.21-1.83,6.58-1.07-3.09,3.01-4.64,3.26-6.58,1.07Z"/>
    <path class="cls-5" d="m120.75,130.26c1.85-1.99,5-2.86,6.91-1.91-2.3.64-4.61,1.27-6.91,1.91Z"/>
    <path class="cls-5" d="m150.4,154.24c1.1-1.82,2.9-2.33,4.84-2.58-1.28,1.48-2.98,2.18-4.84,2.58Z"/>
    <path class="cls-5" d="m156.66,151.35c.8-1.49,2.13-1.97,3.73-1.95-.92,1.26-2.25,1.75-3.73,1.95Z"/>
    <path class="cls-5" d="m100.71,132.53c-.15,1.01-.3,2.02-.45,3.03-.54.54-1.14.49-1.07-.28.09-1.06.36-2.19,1.52-2.75Z"/>
    <path class="cls-5" d="m130.72,130.97c1.21.58,1.13,1.38.4,2.3-.78-.65-.61-1.47-.4-2.3Z"/>
    <path class="cls-5" d="m128.51,128.33c1.36-.23,1.95.38,1.85,1.72-.89-.28-1.45-.92-1.85-1.72Z"/>
    <path class="cls-5" d="m109.92,133.68c.36-1.1.93-1.26,1.74-.4-.47.61-1.08.6-1.74.4Z"/>
    <path class="cls-5" d="m116.79,132.69c-.83-.18-1.49.78-2.35.36.44-1.24,1.49-.84,2.38-.89.01.18,0,.35-.02.53Z"/>
    <path class="cls-5" d="m148.12,155.4c.12-.85.65-1.06,1.42-.89-.29.58-.7.99-1.42.89Z"/>
    <path class="cls-5" d="m101.37,135.35c.23-.74.54-1.16,1.19-.31-.31.44-.71.51-1.19.31Z"/>
    <path class="cls-5" d="m164.08,147.46c.09-.84.6-1.09,1.37-.95-.25.61-.65,1.01-1.37.95Z"/>
    <path class="cls-5" d="m107.63,134.15c.24-.68.55-1.1,1.18-.32-.3.46-.69.55-1.18.32Z"/>
    <path class="cls-5" d="m104.22,134.79c.21-.7.49-1.18,1.17-.36-.29.46-.69.55-1.17.36Z"/>
    <path class="cls-4" d="m51.31,260.71c-.48-5.48,1.63-5.28,5.48-4.77,12.05,1.57,24.13,3.04,36.1,5.12,13.37,2.33,26.88,3.89,40.1,7.08,1.47.36,2.98.3,4.48.66,3.96.95,5.12,1.84,5.5,5.67.68,6.95,1.16,13.92,1.77,20.87.9,10.15,1.94,20.28,2.75,30.43.28,3.48.39,6.98.56,10.47.16,3.21.65,6.4.66,9.61.01,3.9-2.13,5.92-5.95,5.01-4.42-1.05-8.92-1.59-13.37-2.38-11.78-2.1-23.61-3.93-35.38-6.08-8.46-1.54-17.02-2.12-25.51-3.34-3.16-.45-4.63-2.23-5.34-5.32-2.76-12.04-4.67-24.23-6.95-36.35-2.12-11.24-2.53-22.68-4.85-33.86-.19-.91-.02-1.89-.02-2.84Z"/>
    <path class="cls-4" d="m362.7,451.87c-4.36.06-6.52-1.87-5.89-5.6,1.98-11.85,1.86-23.87,3.12-35.79.6-5.7.86-11.48,1.37-17.21.52-5.91,1.77-8.77,8.11-10.19,9.2-2.05,18.31-4.52,27.51-6.59,10.39-2.34,20.83-4.5,31.28-6.61,4.78-.96,7.13,1.87,6.37,6.79-1.22,7.91-2.1,15.88-3.19,23.81-.96,7-2.03,13.98-3.04,20.98-.34,2.33-.84,4.66-.88,7-.11,6.87-2.32,8.8-8.66,10.13-9.33,1.96-18.5,4.57-27.78,6.72-8.82,2.04-17.61,4.22-26.42,6.31-.82.2-1.68.23-1.89.25Z"/>
    <path class="cls-4" d="m274.07,348.81c0,18.52.26,37.04-.08,55.56-.27,14.19-1.46,28.35-1.78,42.55-.11,5,.02,10.05-.47,15.04-.79,8.02.06,16.1-1.06,24.1-.29,2.1-2.28,4.29-4.07,3.9-1.99-.43-3.27-1.75-3.34-3.99-.39-13.57.39-27.12.71-40.68.2-8.6.6-17.21,1.1-25.8,1.06-18.35,1.3-36.72,1.77-55.09.67-26.29.12-52.58.4-78.86.04-3.3.7-4.06,3.28-4.1,1.82-.03,2.65.97,2.89,2.5.33,2.14.61,4.32.62,6.48.05,19.47.03,38.94.03,58.41h.01Z"/>
    <path class="cls-4" d="m236.6,403.98c-3.57-.52-8.26-1.04-12.9-1.9-13.54-2.51-27.09-4.92-40.55-7.81-11.81-2.53-23.51-5.58-35.22-8.54-13.55-3.42-27.35-5.63-40.98-8.62-11.38-2.5-23.01-2.86-34.41-5-3.41-.64-5.25-2.86-4.06-5.65,1.12-2.63,3.94-2.46,5.94-2.19,14.94,2.02,29.97,3.41,44.75,6.69,9.57,2.13,19.23,3.85,28.75,6.25,9.33,2.35,18.67,4.71,27.98,7.13,9.29,2.41,18.9,3.56,28.33,5.45,9.16,1.84,18.33,3.54,27.56,4.97,2.14.33,4.32.46,6.47.76,3.63.51,5.82,2.45,5.61,4.88-.21,2.41-2.32,3.64-7.27,3.6Z"/>
    <path class="cls-4" d="m74.06,396.54c4.21.62,8.22,1.22,12.23,1.81,7.64,1.11,15.28,2.29,22.94,3.3,7.97,1.06,15.74,3.13,23.58,4.77,16.34,3.42,32.61,7.2,48.97,10.48,4.97,1,10.09,1.3,15.07,2.41,6.34,1.41,12.7,2.75,19.08,3.94,7.51,1.39,14.98,2.94,22.55,4,4.32.61,5.33,1.87,4.81,4.74-.4,2.23-3.7,4.37-6.52,3.82-11.67-2.26-23.4-4.11-34.98-6.89-7.87-1.89-15.93-3.03-23.93-4.35-7.08-1.17-14.01-3.02-21.05-4.39-13.32-2.6-26.48-6.07-39.83-8.5-10.28-1.87-20.55-3.96-30.99-4.89-4.41-.39-8.73-1.52-13.01-2.7-2.47-.68-3.31-2.45-2.87-4.79.42-2.21,2.28-2.52,3.94-2.75Z"/>
    <path class="cls-4" d="m235.72,466.17c-4.1.03-7.84-1.53-11.77-2.05-11.8-1.56-23.24-4.98-34.95-6.95-6.87-1.16-13.85-2-20.66-3.31-8.23-1.59-16.45-3.39-24.67-5.07-7.93-1.62-15.97-2.71-23.88-4.38-10.99-2.33-22.06-4.09-33.16-5.72-2.89-.42-5.78-.98-8.58-1.78-2.72-.78-4.08-2.82-3.29-4.81.89-2.23,2.48-2.97,5.18-2.64,16.39,2.03,32.62,5,48.85,7.98,13.45,2.47,26.77,5.57,40.24,7.92,11.15,1.95,22.35,3.56,33.43,5.9,11.63,2.46,23.26,4.93,34.9,7.37,1.98.41,3.2,1.58,3.63,3.49.36,1.57-.38,2.78-1.71,3.6-1.13.71-2.42.2-3.56.43Z"/>
    <path class="cls-4" d="m448.78,256.2c2.15.16,4.13.45,4.77,2.88.65,2.48-.73,4.04-2.82,4.9-3.33,1.37-6.87,2.08-10.41,2.62-4.57.69-9.13,1.33-13.65,2.37-6.34,1.46-12.77,2.51-19.14,3.83-6.2,1.28-12.33,2.79-18.48,4.26-9.09,2.17-18.26,4.1-27.23,6.7-9.26,2.68-18.56,5.24-27.63,8.6-6.54,2.42-13.35,4.11-20,6.26-3.67,1.19-7.22,2.79-10.9,3.97-2.81.9-4.71-.06-5.53-2.32-.65-1.8.81-4.4,3.14-5.37,3.06-1.28,6.16-2.44,9.23-3.68,6.15-2.49,12.75-3.56,18.91-5.88,9.93-3.74,20.2-6.33,30.27-9.56,6.63-2.13,13.57-3.26,20.36-4.89,11.09-2.66,22.11-5.57,33.26-7.96,9.77-2.1,19.66-3.61,29.5-5.4,2.13-.39,4.24-.87,6.37-1.31Z"/>
    <path class="cls-4" d="m300.59,339.61c-1.78.3-3.61-.32-4.09-2.31-.5-2.07.56-4.02,2.5-4.97,2.45-1.21,5.06-2.12,7.63-3.06,16.41-6.05,33.49-9.84,50.25-14.7,23.76-6.88,47.94-12.26,71.57-19.65,4.94-1.55,9.95-2.87,14.8-4.72,2.68-1.02,5.68.15,6.29,2.22.87,2.96-.26,4.82-3.62,5.96-10.36,3.53-20.88,6.52-31.45,9.36-14.22,3.83-28.39,7.85-42.68,11.45-13.84,3.48-27.37,8.02-41.21,11.49-8.99,2.25-17.94,4.58-26.42,8.42-1.09.5-2.2.5-3.58.52Z"/>
    <path class="cls-4" d="m301.07,372.7c-1.51.05-3.02-.07-3.48-1.79-.54-1.98-.11-3.76,1.83-4.92,3.41-2.04,7.32-2.57,11.07-3.44,14.54-3.36,28.97-7.1,43.32-11.19,8.25-2.35,16.69-4.04,25-6.19,4.56-1.18,9.05-2.65,13.55-4.07,11.98-3.78,24.25-6.49,36.3-10,2.45-.71,4.9-1.38,7.35-2.09,2.21-.64,4.04-.19,4.93,2.05,1.01,2.55,0,4.81-2.47,5.66-8.04,2.77-16.37,4.6-24.51,7.01-9.15,2.71-18.48,4.72-27.54,7.71-7.72,2.55-15.72,4.08-23.57,6.16-9.28,2.46-18.47,5.24-27.79,7.56-10.53,2.62-21.15,4.9-31.73,7.3-.73.17-1.5.15-2.26.22Z"/>
    <path class="cls-4" d="m245,296.65c-.03,2.58-2.04,4.21-4.77,3.81-12.16-1.78-24.06-4.66-35.85-8.11-8.78-2.57-17.25-6.29-26.5-7.17-2.25-.21-4.48-.67-6.73-.84-1.17-.09-2.25-.38-3.3-.79-2.12-.83-3.55-2.16-3.12-4.73.49-2.92,2.9-2.85,4.84-2.77,11.04.43,21.55,3.26,32.05,6.61,6.71,2.14,13.43,4.39,20.41,5.78,6.09,1.21,12.26,2,18.32,3.36,2.87.64,4.7,2.46,4.67,4.85Z"/>
    <path class="cls-4" d="m240.38,337.88c-2.53-.56-5.72-1.53-8.97-1.93-9.86-1.2-19.33-4.13-28.98-6.24-5.5-1.2-10.75-3.54-16.17-5.21-4.49-1.39-9.07-2.5-13.59-3.83-1.55-.45-2.92-1.27-4.09-2.47-1.41-1.45-1.46-3.12-.7-4.71.85-1.77,2.53-2.18,4.38-1.65,4.36,1.24,8.71,2.54,13.06,3.78,11.78,3.36,23.46,7.16,35.38,9.9,6.75,1.55,13.7,2.54,20.54,3.85,2.16.41,4.38,1.04,4.86,3.58.65,3.4-1.08,5.01-5.74,4.93Z"/>
    <path class="cls-4" d="m173.34,346.53c2.06.5,4.96,1.37,7.92,1.9,8.59,1.54,16.83,4.33,25.1,6.97,10.72,3.42,21.69,5.55,32.71,7.58.93.17,1.86.38,2.73.72,2.25.87,3.73,2.31,3.1,4.98-.52,2.2-2.77,3.68-5.3,3.19-10.06-1.92-20.09-3.87-29.93-6.96-10.5-3.29-21.02-6.73-31.88-8.83-2.22-.43-4.38-1.17-6.58-1.7-2.68-.64-3.41-2.53-3.11-4.95.31-2.51,2.08-3.15,5.23-2.91Z"/>
    <path class="cls-4" d="m337.1,392.02c1.72-.13,3.3.67,3.59,2.8.32,2.28-.09,4.45-2.76,5.23-3.44,1-6.92,1.86-10.35,2.9-6.14,1.86-12.23,3.87-18.38,5.71-2.62.78-5.32,1.28-7.97,1.96-1.35.34-2.62.18-3.89-.31-2.43-.93-2.95-3.13-1.32-5.21,1.21-1.54,2.96-2.18,4.63-2.59,9.03-2.18,17.46-6.29,26.53-8.28,3.2-.7,6.22-2.17,9.92-2.22Z"/>
    <path class="cls-4" d="m298.63,442.76c-2.21.17-4.03-.36-4.56-2.81-.44-2.03,1.12-3.9,3.6-4.65,9.41-2.85,19.1-4.68,28.48-7.67,2.41-.77,4.97-1.07,7.46-1.59,2.59-.54,4.56.37,5.16,2.62.67,2.47-.75,4.06-2.82,4.89-2.36.95-4.86,1.54-7.28,2.31-9.1,2.9-18.59,4.19-27.78,6.75-.71.2-1.51.11-2.27.15Z"/>
    <path class="cls-4" d="m300.25,469.54c-.77,0-1.34-.03-1.9,0-1.87.11-3.21-.75-3.62-2.5-.47-2.02.82-3.13,2.57-3.82,3.94-1.55,7.91-2.95,12.11-3.67,7.56-1.29,14.67-4.29,22.11-6.04,3.67-.86,5.65-.17,6.3,2.28.6,2.27-1.01,4.8-3.99,5.65-5.8,1.65-11.63,3.23-17.51,4.6-4.13.96-8.05,2.66-12.32,3.17-1.31.16-2.62.25-3.74.33Z"/>
    <path class="cls-7" d="m312.36,198.79c-2.8-.31-5.13-3.02-6.84-6.22-1.79-3.36-1.39-6.78.97-9.82.92-1.19,2.14-2.14,3.18-3.24,6.49-6.9,13.75-3.08,16.14,4.24,2.52,7.72-3.51,14.96-13.45,15.04Z"/>
    <path class="cls-7" d="m182.6,205.5c-1.05,0-2.3.12-3.52-.02-4.93-.58-7.41-4.21-6.23-9.07.88-3.64,2.57-6.96,4.72-9.97,2.85-3.99,10.99-3.9,14.17.31,2.76,3.65,3.73,8.07,3.47,12.63-.13,2.32-1.46,3.99-3.8,4.84-2.81,1.01-5.65,1.58-8.82,1.29Zm-.34-5.84c.14.83-.06,1.5.58,1.8.82.38,1.5-.12,2.03-.63.72-.68,1.16-1.95,2.42-.74.7.67,1.4,1.37,2.46.66,1.08-.73,1.33-1.81,1.05-3-.41-1.73-.8-3.48-1.37-5.17-.57-1.66-1.58-2.37-3.13-.86-2.32,2.26-3.19,5.22-4.02,7.93Z"/>
    <path class="cls-5" d="m137.89,150.4c.28,0,.59-.08.85,0,.97.28,2.38-1.31,2.73-.04.32,1.17-.51,2.74-1.54,3.74-.69.67-1.67,1.03-2.56.22-1.19-1.07-.54-2.23-.05-3.36.19-.19.38-.38.57-.57Z"/>
    <path class="cls-7" d="m263.28,226.82c-.1.25-.19.71-.31.72-3.11.24-2.51,1.83-1.37,3.64-3.07,0-6.15.02-9.22.02-.66-1.89-2.29-1.06-3.38-.96-2.75.25-4.5-.64-5.14-3.39,6.48-1.02,12.95.06,19.43-.03Z"/>
    <path class="cls-7" d="m268.38,226.7c-1.29.99-2.62.86-3.96.12,1.29-.96,2.62-.85,3.96-.12Z"/>
    <path class="cls-7" d="m239.87,226.8c-1.1.71-2.14,1.03-2.88-.46.99-.05,2.05-.49,2.88.46Z"/>
    <path class="cls-2" d="m182.26,199.66c.83-2.72,1.7-5.67,4.02-7.93,1.55-1.51,2.56-.8,3.13.86.58,1.68.96,3.43,1.37,5.17.28,1.19.03,2.27-1.05,3-1.05.71-1.76.01-2.46-.66-1.26-1.21-1.7.05-2.42.74-.53.51-1.21,1.01-2.03.63-.64-.3-.44-.97-.58-1.8Z"/>
  </g>
</svg>