<?xml version="1.0" encoding="UTF-8"?>
<svg id="_图层_2" data-name="图层 2" xmlns="http://www.w3.org/2000/svg" viewBox="0 0 415.36 405.53">
  <defs>
    <style>
      .cls-1 {
        fill: #fcfbf8;
      }

      .cls-1, .cls-2, .cls-3, .cls-4, .cls-5, .cls-6, .cls-7 {
        stroke-width: 0px;
      }

      .cls-2 {
        fill: #fffef5;
      }

      .cls-3 {
        fill: #65462e;
      }

      .cls-4 {
        fill: #be7f4b;
      }

      .cls-5 {
        fill: #503421;
      }

      .cls-6 {
        fill: #c58d5d;
      }

      .cls-7 {
        fill: #fae7b7;
      }
    </style>
  </defs>
  <g id="_图层_1-2" data-name="图层 1">
    <path class="cls-3" d="m325.39,394.55c.01-1,.02-2,.03-3,.32-.49.9-.99.91-1.48.07-5.29.07-10.58,0-15.87,0-.54-.67-1.08-1.03-1.61l-.14.04-.15-.03c-1.35,1.36-2.7,2.71-4.04,4.07,0,0,.05-.06.05-.06-.2.19-.39.38-.59.57-.15.14-.3.27-.44.41-.26.25-.51.5-.77.75,0,0-.07.06-.07.06-.57.42-1.13.84-1.7,1.26,0,0,.03-.03.03-.03-.67.52-1.34,1.03-2.02,1.55,0,0,.03-.03.03-.03-.69.49-1.38.98-2.08,1.47,0,0,.03-.02.03-.02-.51.34-1.02.68-1.53,1.02,0,0,.03-.02.03-.02-.51.34-1.03.67-1.54,1.01,0,0,.02-.02.02-.02-.84.51-1.68,1.02-2.52,1.53,0,0,.04-.02.04-.02-.34.19-.68.38-1.02.57,0,0,.05-.04.05-.04-2.8,1.4-5.61,2.8-8.41,4.19l-.12-.06s.13.03.13.03c-1.89.78-3.77,1.56-5.66,2.34,0,0,.04-.02.04-.02-6.02,1.81-12.04,3.62-18.07,5.43,0,0-.21.06-.21.06,0,0-.21,0-.21,0-1.48.11-2.96.21-4.44.35-15.91,1.54-31.8,3.59-47.75,4.47-13.5.74-27.08.13-40.63.11-1.25-.01-2.51-.03-3.76-.04-.59-.31-1.16-.82-1.78-.88-6.9-.71-13.8-1.4-20.71-1.98-3.82-.32-7.65-.42-11.48-.62-8.67-1.67-17.35-3.33-26.02-5-1.92-.7-3.81-1.51-5.77-2.08-4.95-1.43-9.93-2.76-14.89-4.13,0,0,.02.04.02.04-1.8-.74-3.59-1.49-5.39-2.23,0,0,.04.02.04.02-2.02-1-4.05-1.99-6.07-2.99,0,0,.06.04.06.04-.35-.18-.7-.37-1.04-.55,0,0,.05.03.05.03-1.19-.67-2.37-1.34-3.56-2.01,0,0,.05.04.05.04-.84-.52-1.69-1.03-2.53-1.55,0,0,.04.03.04.03-.23-.12-.46-.24-.69-.36,0,0,.02.04.02.04-1.12-.74-2.24-1.48-3.36-2.22,0,0,.03.02.03.02-.4-.25-.8-.51-1.19-.76.03-.05.07-.1.1-.15-.04.05-.08.09-.12.14-.53-.4-1.07-.81-1.6-1.21,0,0-.16-.08-.16-.08-.2-.15-.39-.3-.59-.46,0,0,.04.04.04.04-.39-.28-.78-.56-1.17-.84l.06-.12s-.09.11-.09.11c-.09-.07-.18-.14-.27-.21-11.57-8.98-21.11-19.66-27.43-33.01.05-.06.16-.16.15-.17-.08-.1-.18-.19-.28-.29,0,0,.03.04.03.04-1.51-3.85-3.02-7.69-4.53-11.54,0,0,.03.04.03.04-.24-1.37-.32-2.79-.74-4.11-4.35-13.81-6.39-27.83-4.28-42.31.61-4.18.76-8.42,1.11-12.63-.06-.14-.08-.28-.07-.43-.77-.33-1.55-.67-2.32-1-11.83-3.11-18.73-14.26-16.31-26.06.19-.94-.58-2.64-1.42-3.15-6.8-4.12-10.14-10.43-11.85-17.87.06-2.99-.25-6.05.26-8.96.85-4.79,2.24-9.49,3.41-14.23.05.03.09.06.14.09-.05-.03-.1-.05-.15-.08.25-.29.5-.57.75-.86.47-.49.95-.98,1.42-1.47.19-.17.39-.33.58-.5,0,0-.02.01-.02.01.31-.23.61-.45.92-.68,0,0-.07.1-.07.1.28-.2.55-.39.83-.59.33-1.48,1.18-3.07.89-4.41-1.9-8.84-2.24-17.5,1.87-25.87.34-.7.76-1.37,1.14-2.05.22-.56.44-1.12.66-1.68l.13.06s-.11-.09-.11-.09c.36-.49.72-.97,1.07-1.46,0,0-.03.04-.03.04.13-.19.26-.38.38-.58,0,0,.06-.09.06-.09.24-.25.48-.51.72-.76,0,0-.03.04-.03.04.18-.19.36-.38.53-.58,0,0-.05.04-.05.04.69-.69,1.37-1.37,2.06-2.06.15-.13.3-.27.45-.4.31-.24.62-.48.92-.72,0,0-.04.03-.04.03.39-.28.79-.55,1.18-.83,0,0-.03.02-.03.02,1.93-.64,3.87-1.82,5.81-1.83,4.77-.02,9.55.5,14.32.8,0,0-.05-.03-.05-.03.35.18.7.36,1.05.54,0,0-.05-.03-.05-.03.72.44,1.45.88,2.17,1.32-.02.06-.04.12-.07.18.02-.06.04-.12.06-.18.29.24.58.48.88.72,0,0-.03-.02-.03-.02.89.81,1.77,1.62,2.66,2.43,0,0-.07-.07-.07-.07.19.18.39.37.58.55,0,0-.06-.06-.06-.06.18.2.36.39.55.59,0,0-.04-.05-.04-.05.49.54.99,1.08,1.48,1.62.13.15.27.31.4.46.25.29.49.58.74.87,0,0,0,0,0,0,.26.39.53.79.8,1.18,0,0-.02-.03-.02-.03.34.51.68,1.02,1.02,1.53,0,0-.02-.03-.02-.03.33.52.65,1.04.98,1.55,0,0,0-.02,0-.02.19.33.38.67.57,1,0,0-.03-.05-.03-.05.5.85,1,1.7,1.5,2.55,0,0-.02-.03-.02-.03.19.34.37.69.56,1.03,0,0-.04-.05-.04-.05,1.5,2.85,3,5.71,4.5,8.56.13.02.25.01.38,0,.39-.67.91-1.3,1.15-2.02,2.47-7.66,4.88-15.34,7.33-23,1.33-4.17,2.71-8.32,4.07-12.49,0,0-.01.03-.01.03.16-.35.33-.71.49-1.06,0,0-.03.05-.03.05.69-1.5,1.37-3,2.06-4.49h0c.29-.37.58-.75.87-1.13-.32-.23-.74-.72-.93-.64-2.27.97-4.5,2.03-6.73,3.06,0,0-.01,0-.02-.01-.39.07-.78.14-1.18.22-.13.05-.27.07-.41.05-2.83.89-5.65,1.82-8.5,2.65-5.45,1.59-8.58-1.12-7.54-6.47.21-1.06.34-2.13.51-3.2,13.63-31.48,32.89-58.22,63.43-75.48.44-.25.88-.5,1.31-.75l.15.05s-.15-.03-.15-.03c.89-.46,1.77-.91,2.65-1.37,0,0-.05.03-.05.03,1.01-.51,2.02-1.03,3.04-1.54,0,0-.05.03-.05.03.35-.17.71-.35,1.06-.52,0,0-.05.03-.05.03.35-.18.7-.36,1.05-.53,0,0-.05.03-.05.03,3.18-1.35,6.36-2.7,9.54-4.05,0,0-.05.04-.05.04,3.49-.97,6.96-1.99,10.46-2.9,6.54-1.71,13.09-3.35,19.63-5.02.32-.03.64-.05.96-.08,2.75-.19,5.51-.27,8.24-.62.97-.12,1.86-.88,2.78-1.34-.04-.16-.02-.32.05-.48.77-2.88,1.54-5.77,2.31-8.65,0,0-.05.05-.05.05.22-.32.45-.63.67-.95,0,0-.02.03-.02.03.67-.68,1.33-1.37,2-2.05,0,0-.03.03-.03.03.3-.23.61-.46.91-.7,0,0-.05.07-.05.07.23-.13.46-.25.69-.38,0,0-.04.02-.04.02.46-.25.91-.49,1.37-.74,0,0,.02.03.02.03,1.55-.43,3.11-.86,4.66-1.28-1.74-5.41-1.56-10.65,2.09-15.22,4.65-5.81,15.16-6.22,22.15-.38,9.28,7.75,11.09,18.49,11.76,29.67.83.33,1.63.83,2.49.94,3.93.52,7.94.63,11.81,1.45,5.98,1.27,11.86,2.99,17.78,4.52,0,0-.05-.05-.05-.05,1.35.52,2.7,1.03,4.05,1.55,0,0-.05-.03-.05-.03,1.84.85,3.69,1.69,5.53,2.54,0,0-.04-.02-.04-.02.23.1.46.2.69.31l-.12.05s.1-.08.1-.08c.33.17.67.34,1,.51,0,0,.03.12.03.12,0,0-.02-.13-.02-.13.66.33,1.32.67,1.98,1,0,0,.03,0,.03,0,1.09.6,2.18,1.2,3.27,1.8,9.79,7.36,19.56,14.75,29.43,22,.84.62,2.71.85,3.54.34,10.73-6.64,21.25-13.62,32.08-20.09,2.98-1.78,6.78-2.88,10.25-2.98,11.98-.36,23.98-.16,35.98-.14,6.82,0,10.05,3.23,10.05,10.1,0,38.4-.03,76.79.07,115.19,0,1.01,1.31,2.65,2.31,2.94,7.93,2.3,14.87,10.39,15.79,18.84.56,5.16,1.72,10.36,1.45,15.48-.35,6.67-1.29,13.44-2.99,19.89-2.24,8.49-7.54,14.5-16.83,15.9-.22,1-.62,2-.62,3-.03,48.85-.03,97.71,0,146.56,0,.96.29,1.91.44,2.87-.15.49-.3.99-.45,1.48-.11-.19-.21-.38-.32-.57.06.36.11.71.17,1.07-2.29,1.65-4.57,3.31-6.86,4.96-.96-.15-1.91-.41-2.87-.43-18.41-.31-36.83-.6-55.24-.89,0,0,.06.05.06.05-.32-.22-.64-.43-.95-.65,0,0,.02.01.02.01-.19-.16-.38-.33-.57-.49,0,0,.05.05.05.05-.18-.18-.37-.36-.55-.55,0,0,.05.05.05.05-.17-.19-.33-.38-.5-.57,0,0,.01.02.01.02-.21-.32-.43-.64-.64-.96,0,0,.05.05.05.05-.46-2.21-.92-4.42-1.38-6.63Zm-218.66-101.83s.05.05.05.05c-.2-.17-.39-.34-.59-.51l.04.04-1.58-1.95-.04-.1c.01-.56.19-1.18.01-1.66-2.81-7.54-5.62-15.09-8.53-22.6-1.3-3.34-2.83-6.6-4.25-9.89-.42.23-.89.4-1.26.7-8.72,7.2-17.44,14.39-26.12,21.63-3.27,2.72-6.46,3.1-9.82.2-2.08-1.79-4.04-3.83-6.4-5.13-2.1-1.16-4.65-1.54-7.06-2-.24-.05-1.09,1.73-1.21,2.71-.47,3.78-.75,7.58-1.1,11.37-.31.67-.94,1.36-.89,2.01.62,8.65,1.03,17.33,2.17,25.92.52,3.96,2.51,7.72,3.84,11.58,0,0,.02.13.02.13.17.44.34.89.51,1.33,5.43,13.79,12.74,26.2,24.07,36.19,8.65,7.63,18.04,13.86,28.72,17.99,7.39,2.85,15.07,4.97,22.62,7.42,2.43.76,4.81,1.86,7.3,2.23,12.24,1.83,24.51,3.46,36.77,5.16.15-.02.29.01.43.08,1.34.12,2.68.25,4.02.37.33.04.65.09.98.13,3.25.33,6.51.66,9.76.98,6.08.18,12.16.35,18.24.53.29.13.59.39.88.39,11.46-.16,22.91-.29,34.36-.56,2.59-.06,5.17-.63,7.76-.96,9.19-1.3,18.42-2.39,27.56-3.95,21.53-3.68,40.76-12,55.75-28.53.19-.21.37-.41.56-.62l-.06.04c.72-1.09,2.05-2.17,2.06-3.26.12-25.64.1-51.29.05-76.93,0-.7-.68-1.41-1.04-2.11l.04.03c-.14-.07-.29-.15-.43-.22-3.13-3.42-6.39-6.73-9.34-10.3-1.28-1.54-1.78-1.93-3.33-.26-5.98,6.45-12.1,12.79-18.27,19.06-2.44,2.48-5.49,4.28-8.84,2.08-2-1.32-3.58-3.49-4.94-5.54-4.98-7.46-9.75-15.06-14.74-22.51-.34-.51-2.29-.68-2.79-.22-4.28,3.87-8.43,7.89-12.57,11.93-7.71,7.52-15.4,15.06-23.07,22.63-4.27,4.21-8.29,3.95-11.48-1.05-5.08-7.98-9.99-16.07-15.08-24.04-.31-.49-1.98-.76-2.46-.4-6.64,5.01-13.11,10.24-19.79,15.2-2.53,1.87-5.75,3.38-8.65,1.21-2.43-1.82-4.26-4.48-6.21-6.88-4.21-5.15-8.27-10.43-12.57-15.5-.52-.61-2.63-.76-3.3-.23-10.74,8.4-21.37,16.95-32.02,25.47-.49.35-.99.71-1.48,1.06,0,0,.03-.02.03-.02-2.22.17-4.43.33-6.65.5l.04.03c-.22-.14-.44-.28-.66-.43Zm275.7-61.28c.21.18.41.37.62.55l-.08-.09c.5.37,1.01.74,1.51,1.11l-.07-.05c.33.2.67.41,1,.61l-.02-.02c3.37,1.48,6.73,2.96,10.1,4.44,0,0-.05-.05-.05-.05,1.47-.29,2.94-.59,4.42-.88h-.02c.31-.21.63-.44.94-.67l-.09.1c.2-.19.41-.37.61-.56l-.07.05c.33-.36.65-.72.98-1.08,0,0-.04.08-.04.08.23-.31.46-.63.69-.94l-.03.04c.16-.21.32-.42.48-.63l-.09.07c.71-.85,1.66-1.58,2.1-2.56,4.02-9.02,4.07-18.6,3.4-28.14-.23-3.2-2.06-6.3-3.16-9.44l.05-.17c-.46-1.02-.91-2.03-1.37-3.05,0,0,.05.06.05.06-.32-.53-.63-1.06-.95-1.6l.02.03-1.11-1.5c-.3-.3-.6-.6-.91-.89-.2-.2-.4-.4-.6-.59l.07.1c-.24-.21-.49-.43-.73-.64-6.18-3.77-14.32-2.26-19.43,4.4-7.13,9.29-8.25,19.87-5.12,31.01.8,1.85,1.61,3.7,2.41,5.55l-.02-.03c.42.6.83,1.19,1.25,1.79l-.05.05c.16.2.33.39.49.59l-.09-.07c.18.21.35.42.53.63l-.1-.08c.2.2.4.4.6.59l.89.91c.19.2.38.4.57.6l-.07-.08c.2.18.4.37.6.55l-.08-.08ZM199.99,24.61l-.04-.05c0,.71,0,1.42,0,2.14l.05-.05c-.86.78-1.72,1.56-2.58,2.35-.82.08-1.64.22-2.46.22-2.24,0-4.48-.04-6.72-.07-.26.21-.53.41-.79.62-.5.63-.99,1.25-1.49,1.88l-.61,2.48c.05.15.07.31.08.47.16.27.31.77.47.76,5.09-.05,10.18-.12,15.27-.27.42-.01.83-.58,1.25-.88.51,0,1.01,0,1.52,0,4.32,0,8.65,0,12.97,0,.16-.43.49-.87.47-1.29-.39-8.06-1.95-15.7-7.97-21.7l-.59-.53.07.07c-2.37-3.27-7.05-4.25-9.77-2.03-3.38,2.76-3.69,8.59-.64,11.9l-.02-.03c.37.83.74,1.66,1.1,2.5,0,0-.05-.05-.05-.05.17.53.34,1.06.51,1.59Zm89.91,68.5c-.17.61-.48,1.23-.48,1.84-.03,14.1-.03,28.21,0,42.31,0,.61.34,1.21.52,1.82.14.02.27.06.41.1.91.15,1.82.3,2.73.45,11.1-6.51,22.25-12.94,33.29-19.56,3.21-1.93,5.56-1.65,7.51,1.55-.03.18-.05.35-.08.53-.13.97-.39,1.93-.39,2.9-.02,89.2-.02,178.39,0,267.59,0,.96.27,1.93.41,2.89.16.21.32.43.49.64.46.15.91.42,1.37.42,16.32.02,32.63.03,48.94-.03.66,0,1.31-.65,1.97-1h.15s.15,0,.15,0c.16-.7.47-1.41.47-2.11.02-49.23.02-98.46,0-147.69,0-.88-.27-1.76-.41-2.63-.28-.29-.51-.71-.85-.86-11.69-5.14-17-14.71-18.97-26.8-2.74-16.76,4.52-32,18.74-38.85.18-.17.37-.34.55-.51v.05s.25,0,.25,0l.23-.07c.16-.87.46-1.74.46-2.61.02-37.76.02-75.51,0-113.27,0-.87-.31-1.74-.47-2.6-.16-.09-.31-.17-.47-.26-.92-.23-1.84-.65-2.76-.66-11.5-.05-22.99-.09-34.49.02-1.48.01-3.12.57-4.39,1.35-8.93,5.5-17.81,11.09-26.65,16.73-9.25,5.9-18.45,11.89-27.67,17.84-.09.09-.14.2-.14.33-.13.06-.27.11-.41.15Zm-225.87,110.07l.13-.02c-.91,4.63-2.11,9.22-2.67,13.89-1.01,8.45-1.89,16.93-2.35,25.43-.33,6.17.12,12.39.23,18.58,0,.34,0,.68,0,1.02.01,3.5.02,6.99.03,10.49.53-.25,1.14-.42,1.59-.78,9.23-7.38,18.4-14.84,27.67-22.17,4.07-3.21,7.01-2.34,8.85,2.47,4.06,10.62,8.07,21.25,12.04,31.9.62,1.65.94,2.21,2.67.81,10.57-8.64,21.26-17.13,31.9-25.68,5.23-4.2,7.36-4.04,11.56,1.2,5.36,6.69,10.57,13.5,16.02,20.12.52.63,2.61.83,3.29.32,6.84-5.17,13.43-10.66,20.3-15.78,4.31-3.22,6.88-3.13,9.6,1.17,5.28,8.35,10.56,16.71,15.66,25.18,1.31,2.17,2,1.85,3.54.31,11.03-11.04,21.97-22.19,33.31-32.91,5.83-5.5,8.71-8.25,14.84,1.53,4.63,7.39,9.5,14.64,14.1,22.05,1.54,2.47,2.58,3.42,4.91.69,5.17-6.06,10.6-11.9,15.93-17.82,5.64-6.28,8.47-6.2,13.64.37.98,1.24,1.98,2.47,3,3.67.36.43.82.79,1.23,1.18.1-.61.29-1.22.29-1.83.01-37.74-.01-75.48.04-113.22,0-3.06.53-5.72-4.18-5.49-1.71.08-3.82-1.89-5.21-3.41-1.53-1.68-2.38-3.97-3.69-5.87-.3-.43-1.51-.75-1.95-.5-3.75,2.14-7.34,4.57-11.13,6.64-4.22,2.31-8.75,3.35-13.13.54-3.76-2.41-5.04-6.2-4.8-10.59.12-2.24.04-4.5.03-6.75,0-.65-.09-1.29-.13-1.94-.63.32-1.34.54-1.88.97-9.5,7.65-20.29,12.91-31.73,16.87-7.92,2.75-12.46.77-16.71-6.38-2.97-5-6.32-9.76-9.29-14.76-1.41-2.37-2.35-2.5-4.75-.92-12.1,7.96-24.1,16.16-36.71,23.24-10.12,5.69-12.69,3.42-17.54-4.72-3.45-5.78-7.01-11.5-10.6-17.19-.3-.48-1.44-.98-1.83-.77-11.29,5.92-22.48,12.04-33.81,17.89-5.66,2.93-11.45,5.67-17.37,8.02-3.8,1.51-7.2.12-8.62-3.95-1.25-3.6-1.96-7.39-2.93-11.09-.17-.65-.47-1.26-.71-1.88-.56.54-1.34.99-1.65,1.65-9.2,19.53-15.51,40-19.72,61.15-.44,2.36-.88,4.72-1.33,7.07ZM144.98,49.66c-.5.24-1,.49-1.51.73-8.01,3.54-16.53,6.26-23.91,10.82-12.24,7.56-23.86,16.19-33.02,27.57-10.23,12.72-19.44,26.09-25.69,41.3-.21.5-.26,1.07-.38,1.61.53-.11,1.08-.17,1.57-.35,7.74-2.94,15.48-5.85,23.19-8.86,4.41-1.73,7.13-.86,7.7,2.62.83,5.03,1.57,10.08,2.61,15.07.49,2.36,1.32,4.72,4.7,2.51,2.62-1.72,5.54-2.99,8.3-4.5,13.37-7.26,26.79-14.44,40.07-21.86,3.42-1.91,5.65-1.53,7.64,1.79,4.01,6.69,8.06,13.35,12.2,19.96,4.03,6.45,3.51,6.71,10.56,2.36,12.24-7.55,23.95-15.96,35.84-24.08,4.55-3.11,7.94-2.64,11.02,2.02,4.07,6.16,8.36,12.21,11.84,18.7,2.11,3.92,4.82,3.64,7.72,2.44,5.68-2.36,11.38-4.8,16.68-7.89,6.58-3.83,12.76-8.34,19.11-12.55.22-.83.61-1.65.65-2.48.35-9.43.65-18.86.96-28.29,1.33-1.42,2.48-3.1,4.03-4.21,3.02-2.18,6.21-4.13,9.43-6,1.79-1.04,2.23-1.52.4-3.26-12.03-11.42-25.55-20.48-41.02-26.57.08-.14.23-.28.22-.41,0-.1-.21-.22-.35-.25-8.58-2.16-17.1-5.84-25.75-6.18-23.71-.93-47.52-1-70.91,4.27-4.71,1.06-9.31,2.67-13.96,4.02l.05-.04ZM55.91,213.03c.43-3.88,1.01-7.75,1.26-11.63.37-5.75,4.15-11.45.26-17.29-.98-1.47-1.53-3.22-2.51-4.68-4.29-6.42-7.87-13.55-13.2-18.96-6.75-6.85-16.62-4.33-21.29,4.14-4.56,8.28-3.89,16.89-1.64,25.54.99,3.79.41,6.85-3.05,8.83-11.7,6.7-8.79,30.68,4.16,34.26,4.16,1.15,4.8,4.18,3.45,7.72-3.48,9.12,2.17,16.6,8.62,19.24,5.73,2.34,11.83,3.76,17.65,5.9,2.9,1.07,2.8-.34,2.84-2.36.13-7.39.35-14.79.54-22.18.3-.47.82-.92.86-1.41.71-9.04,1.37-18.08,2.04-27.12Zm269.44-76.03h-.1v-6.16c-1.85,1-3.69,2-5.53,3.01-.36.2-.79.36-1.02.67-.28.36-.65,1.01-.5,1.28,1.09,2.12,2.12,4.3,3.53,6.2.54.73,2.01.76,3.05,1.12.19-.8.49-1.59.56-2.4.09-1.23.02-2.48.02-3.72Z"/>
    <path class="cls-6" d="m29.14,15.16c1.84,1.29,3.54,2.06,4.64,3.33,7.32,8.5,14.51,17.11,21.73,25.7,2,2.38,3.65,5.02.51,7.55-2.98,2.4-5.23.37-7.17-1.92-7.47-8.82-14.99-17.59-22.29-26.55-.97-1.18-1.32-3.4-.99-4.93.25-1.13,2.06-1.92,3.57-3.19Z"/>
    <path class="cls-6" d="m43.43,73.22c-3.08,1.32-5.47,3.32-6.77,2.76-11.41-4.91-22.65-10.21-33.87-15.56-2.57-1.22-3.59-3.63-2.1-6.28,1.44-2.54,3.59-2.27,6.02-1.09,10.66,5.23,21.41,10.28,32.06,15.55,1.37.68,2.3,2.23,4.66,4.62Z"/>
    <path class="cls-6" d="m86.86,34.92c-1.36,1.4-2.47,3.52-3.76,3.63-1.5.13-4.11-1.13-4.59-2.41-3.51-9.4-6.66-18.93-9.77-28.47-.51-1.56-.73-3.56-.2-5.04,1.14-3.18,5.62-3.62,6.82-.47,4.05,10.58,7.55,21.38,11.49,32.77Z"/>
    <path class="cls-5" d="m181.66,403.5c13.55.01,27.12.63,40.63-.11,15.95-.88,31.83-2.93,47.75-4.47,1.48-.14,2.96-.23,4.44-.35-8.13,1.33-16.23,3.47-24.41,3.83-21.73.96-43.49,1.16-65.25,1.62-1.05.02-2.1-.34-3.15-.52Z"/>
    <path class="cls-5" d="m395.31,398.54c-.15-.96-.44-1.91-.44-2.87-.02-48.85-.02-97.71,0-146.56,0-1,.4-2,.62-3,0,50.15.02,100.3.02,150.45,0,.66-.14,1.32-.21,1.98Z"/>
    <path class="cls-5" d="m33.98,269.58c-.36,4.21-.51,8.46-1.11,12.63-2.11,14.48-.07,28.5,4.28,42.31.41,1.32.5,2.74.74,4.11-7.41-19.28-8.3-39-3.91-59.06Z"/>
    <path class="cls-5" d="m74.9,140.06c-1.36,4.16-2.74,8.32-4.07,12.49-2.45,7.66-4.86,15.34-7.33,23-.23.72-.76,1.35-1.15,2.02,4.18-12.5,8.36-25.01,12.54-37.51Z"/>
    <path class="cls-5" d="m329.75,404.16c18.41.29,36.83.58,55.24.89.96.02,1.91.28,2.87.43-18.07.03-36.14.08-54.22.02-1.3,0-2.6-.88-3.9-1.34Z"/>
    <path class="cls-5" d="m143.93,399.98c3.83.2,7.66.3,11.48.62,6.91.58,13.81,1.27,20.71,1.98.62.06,1.19.58,1.78.88-10.42-1.04-20.84-2.09-31.27-3.14-.9-.09-1.8-.23-2.7-.35Z"/>
    <path class="cls-5" d="m257.96,41.07c-5.92-1.53-11.8-3.25-17.78-4.52-3.86-.82-7.88-.93-11.81-1.45-.86-.11-1.66-.62-2.49-.94,9.76,1.82,19.53,3.62,29.29,5.51.98.19,1.86.93,2.79,1.41Z"/>
    <path class="cls-5" d="m165.41,37.13c-6.54,1.67-13.1,3.32-19.63,5.02-3.5.91-6.97,1.93-10.46,2.9,10.03-2.64,20.06-5.29,30.09-7.93Z"/>
    <path class="cls-5" d="m53.49,129.11c-.17,1.07-.3,2.14-.51,3.2-1.04,5.35,2.09,8.06,7.54,6.47,2.85-.83,5.67-1.76,8.5-2.65-3.61,1.32-7.14,3.01-10.86,3.79-1.51.31-4.7-1.1-4.93-2.19-.58-2.73.09-5.72.26-8.61Z"/>
    <path class="cls-5" d="m5.68,197.87c-1.16,4.74-2.55,9.44-3.41,14.23-.52,2.91-.2,5.97-.26,8.96-1.14-8.1-1.2-16.04,3.67-23.19Z"/>
    <path class="cls-5" d="m325.29,372.58c.36.54,1.03,1.07,1.03,1.61.08,5.29.07,10.58,0,15.87,0,.5-.59.99-.91,1.48-.04-6.32-.09-12.64-.13-18.96Z"/>
    <path class="cls-5" d="m42.01,151.54c-4.77-.3-9.55-.82-14.32-.8-1.94,0-3.87,1.18-5.81,1.83,6.51-4.26,13.23-4.41,20.12-1.02Z"/>
    <path class="cls-5" d="m97.24,388.77c4.97,1.37,9.95,2.69,14.89,4.13,1.96.57,3.85,1.38,5.77,2.08-6.89-2.07-13.78-4.14-20.67-6.21Z"/>
    <path class="cls-5" d="m274.89,398.52c6.02-1.81,12.04-3.62,18.07-5.43-6.02,1.81-12.04,3.62-18.07,5.43Z"/>
    <path class="cls-5" d="m177.4,35.08c-.93.47-1.81,1.22-2.78,1.34-2.73.35-5.49.43-8.24.62,3.67-.65,7.35-1.31,11.02-1.96Z"/>
    <path class="cls-5" d="m37.86,328.59c1.51,3.85,3.02,7.69,4.53,11.54-1.51-3.85-3.02-7.69-4.53-11.54Z"/>
    <path class="cls-5" d="m135.37,45.02c-3.18,1.35-6.36,2.7-9.54,4.05,3.18-1.35,6.36-2.7,9.54-4.05Z"/>
    <path class="cls-5" d="m61.99,177.57c-1.5-2.85-3-5.71-4.5-8.56,1.5,2.85,3,5.71,4.5,8.56Z"/>
    <path class="cls-5" d="m298.56,390.81c2.8-1.4,5.61-2.8,8.41-4.19-2.8,1.4-5.61,2.8-8.41,4.19Z"/>
    <path class="cls-5" d="m70.62,135.87c2.24-1.03,4.47-2.09,6.73-3.06.18-.08.61.41.93.64-.29.38-.58.76-.87,1.15-.36-.27-.8-.83-1.05-.75-1.94.61-3.83,1.34-5.74,2.03Z"/>
    <path class="cls-5" d="m179.76,25.96c-.77,2.88-1.54,5.77-2.31,8.65.77-2.88,1.54-5.77,2.31-8.65Z"/>
    <path class="cls-5" d="m320.96,376.66c1.35-1.36,2.7-2.71,4.04-4.07-1.35,1.36-2.7,2.71-4.04,4.07Z"/>
    <path class="cls-5" d="m85.83,383.61c2.02,1,4.05,1.99,6.07,2.99-2.02-1-4.05-1.99-6.07-2.99Z"/>
    <path class="cls-5" d="m292.91,393.12c1.89-.78,3.77-1.56,5.66-2.34-1.89.78-3.77,1.56-5.66,2.34Z"/>
    <path class="cls-5" d="m267.45,45.08c-1.84-.85-3.69-1.69-5.53-2.54,1.84.85,3.69,1.69,5.53,2.54Z"/>
    <path class="cls-5" d="m325.39,394.55c.46,2.21.92,4.42,1.38,6.63-.46-2.21-.92-4.42-1.38-6.63Z"/>
    <path class="cls-5" d="m91.87,386.58c1.8.74,3.59,1.49,5.39,2.23-1.8-.74-3.59-1.49-5.39-2.23Z"/>
    <path class="cls-5" d="m189.89,20.08c-1.55.43-3.11.86-4.66,1.28,1.55-.43,3.11-.86,4.66-1.28Z"/>
    <path class="cls-5" d="m77.41,134.58c-.69,1.5-1.37,3-2.06,4.49.69-1.5,1.37-3,2.06-4.49Z"/>
    <path class="cls-5" d="m274.38,48.65c-1.09-.6-2.18-1.2-3.27-1.8,1.09.6,2.18,1.2,3.27,1.8Z"/>
    <path class="cls-5" d="m261.96,42.57c-1.35-.52-2.7-1.03-4.05-1.55,1.35.52,2.7,1.03,4.05,1.55Z"/>
    <path class="cls-5" d="m74.87,377.08c1.12.74,2.24,1.48,3.36,2.22-1.12-.74-2.24-1.48-3.36-2.22Z"/>
    <path class="cls-5" d="m81.34,381.11c1.19.67,2.37,1.34,3.56,2.01-1.19-.67-2.37-1.34-3.56-2.01Z"/>
    <path class="cls-5" d="m48.63,156.46c-.89-.81-1.77-1.62-2.66-2.43.89.81,1.77,1.62,2.66,2.43Z"/>
    <path class="cls-5" d="m19.39,154.46c-.69.69-1.37,1.37-2.06,2.06.69-.69,1.37-1.37,2.06-2.06Z"/>
    <path class="cls-5" d="m123.88,50.02c-1.01.51-2.02,1.03-3.04,1.54,1.01-.51,2.02-1.03,3.04-1.54Z"/>
    <path class="cls-5" d="m56.98,168.06c-.5-.85-1-1.7-1.5-2.55.5.85,1,1.7,1.5,2.55Z"/>
    <path class="cls-5" d="m182.36,23.04c-.67.68-1.33,1.37-2,2.05.67-.68,1.33-1.37,2-2.05Z"/>
    <path class="cls-5" d="m78.86,379.6c.84.52,1.69,1.03,2.53,1.55-.84-.52-1.69-1.03-2.53-1.55Z"/>
    <path class="cls-5" d="m307.9,386.11c.84-.51,1.68-1.02,2.52-1.53-.84.51-1.68,1.02-2.52,1.53Z"/>
    <path class="cls-5" d="m120.89,51.53c-.88.46-1.77.91-2.65,1.37.88-.46,1.77-.91,2.65-1.37Z"/>
    <path class="cls-5" d="m315.46,381.16c.67-.52,1.34-1.03,2.02-1.55-.67.52-1.34,1.03-2.02,1.55Z"/>
    <path class="cls-5" d="m45.14,153.34c-.72-.44-1.45-.88-2.17-1.32.72.44,1.45.88,2.17,1.32Z"/>
    <path class="cls-5" d="m51.06,159.05c-.49-.54-.99-1.08-1.48-1.62.49.54.99,1.08,1.48,1.62Z"/>
    <path class="cls-5" d="m313.41,382.61c.69-.49,1.38-.98,2.08-1.47-.69.49-1.38.98-2.08,1.47Z"/>
    <path class="cls-5" d="m14.65,159.89c-.22.56-.44,1.12-.66,1.68.22-.56.44-1.12.66-1.68Z"/>
    <path class="cls-5" d="m317.44,379.65c.57-.42,1.13-.84,1.7-1.26-.57.42-1.13.84-1.7,1.26Z"/>
    <path class="cls-5" d="m271.08,46.84c-.66-.33-1.32-.67-1.98-1,.66.33,1.32.67,1.98,1Z"/>
    <path class="cls-5" d="m31.59,268.14c.77.33,1.55.67,2.32,1-.77-.33-1.55-.67-2.32-1Z"/>
    <path class="cls-5" d="m53.99,163.06c-.34-.51-.68-1.02-1.02-1.53.34.51.68,1.02,1.02,1.53Z"/>
    <path class="cls-5" d="m310.4,384.59c.51-.34,1.03-.67,1.54-1.01-.51.34-1.03.67-1.54,1.01Z"/>
    <path class="cls-5" d="m72.09,375.12c.53.4,1.07.81,1.6,1.21-.53-.4-1.07-.81-1.6-1.21Z"/>
    <path class="cls-5" d="m311.91,383.61c.51-.34,1.02-.68,1.53-1.02-.51.34-1.02.68-1.53,1.02Z"/>
    <path class="cls-5" d="m54.95,164.58c-.33-.52-.66-1.04-.98-1.55.33.52.65,1.04.98,1.55Z"/>
    <path class="cls-5" d="m15.74,158.4c-.36.49-.71.97-1.07,1.46.36-.49.71-.97,1.07-1.46Z"/>
    <path class="cls-5" d="m118.24,52.88c-.44.25-.88.5-1.31.75.44-.25.88-.5,1.31-.75Z"/>
    <path class="cls-5" d="m73.71,376.34c.4.25.8.51,1.19.76-.4-.25-.8-.51-1.19-.76Z"/>
    <path class="cls-5" d="m21.91,152.55c-.39.28-.79.55-1.18.83.39-.28.79-.55,1.18-.83Z"/>
    <path class="cls-5" d="m52.99,161.56c-.27-.39-.53-.79-.8-1.18.27.39.53.79.8,1.18Z"/>
    <path class="cls-5" d="m70.22,373.78c.39.28.78.56,1.17.84-.39-.28-.78-.56-1.17-.84Z"/>
    <path class="cls-5" d="m185.21,21.34c-.46.25-.91.49-1.37.74.46-.25.91-.49,1.37-.74Z"/>
    <path class="cls-5" d="m394.72,400.52c-.06-.36-.11-.71-.17-1.07.11.19.21.38.32.57-.05.17-.1.33-.15.5Z"/>
    <path class="cls-5" d="m16.88,157.01c-.24.25-.48.51-.72.76.24-.25.48-.51.72-.76Z"/>
    <path class="cls-5" d="m55.52,165.56c-.19-.33-.38-.67-.57-1,.19.33.38.67.57,1Z"/>
    <path class="cls-5" d="m319.21,378.33c.26-.25.51-.5.77-.75-.26.25-.51.5-.77.75Z"/>
    <path class="cls-5" d="m124.89,49.54c-.35.17-.71.35-1.06.52.35-.17.71-.35,1.06-.52Z"/>
    <path class="cls-5" d="m125.89,49.04c-.35.18-.7.36-1.05.53.35-.18.7-.36,1.05-.53Z"/>
    <path class="cls-5" d="m84.85,383.1c.35.18.7.37,1.04.55-.35-.18-.7-.37-1.04-.55Z"/>
    <path class="cls-5" d="m269.09,45.85c-.33-.17-.67-.34-1-.51.33.17.67.34,1,.51Z"/>
    <path class="cls-5" d="m180.38,25.07c-.22.32-.45.63-.67.95.22-.32.45-.63.67-.95Z"/>
    <path class="cls-5" d="m306.92,386.66c.34-.19.68-.38,1.02-.57-.34.19-.68.38-1.02.57Z"/>
    <path class="cls-5" d="m57.52,169.06c-.19-.34-.37-.69-.56-1.03.19.34.37.69.56,1.03Z"/>
    <path class="cls-5" d="m46,154.05c-.29-.24-.58-.48-.88-.72.29.24.58.48.88.72Z"/>
    <path class="cls-5" d="m20.77,153.35c-.31.24-.62.48-.92.72.31-.24.62-.48.92-.72Z"/>
    <path class="cls-5" d="m6.42,197.03c-.25.29-.5.57-.75.86.25-.29.5-.57.75-.86Z"/>
    <path class="cls-5" d="m43.01,152.05c-.35-.18-.7-.36-1.05-.54.35.18.7.36,1.05.54Z"/>
    <path class="cls-5" d="m75.38,139.03c-.16.35-.33.71-.49,1.06.16-.35.33-.71.49-1.06Z"/>
    <path class="cls-5" d="m69.43,136.08c.39-.07.78-.14,1.18-.22-.39.07-.78.14-1.18.22Z"/>
    <path class="cls-5" d="m183.24,22.37c-.3.23-.61.46-.91.7.3-.23.61-.46.91-.7Z"/>
    <path class="cls-5" d="m52.2,160.38c-.25-.29-.49-.58-.74-.87.25.29.49.58.74.87Z"/>
    <path class="cls-5" d="m9.33,194.39c-.31.23-.61.45-.92.68.31-.23.61-.45.92-.68Z"/>
    <path class="cls-5" d="m326.72,401.13c.21.32.43.64.64.96-.21-.32-.43-.64-.64-.96Z"/>
    <path class="cls-5" d="m328.85,403.56c.32.22.64.43.95.65-.32-.22-.64-.43-.95-.65Z"/>
    <path class="cls-5" d="m49.62,157.48c-.18-.2-.36-.39-.55-.59.18.2.36.39.55.59Z"/>
    <path class="cls-5" d="m49.14,156.95c-.19-.18-.39-.37-.58-.55.19.18.39.37.58.55Z"/>
    <path class="cls-5" d="m17.38,156.48c-.18.19-.36.38-.53.58.18-.19.36-.38.53-.58Z"/>
    <path class="cls-5" d="m69.92,373.56c.09.07.18.14.27.21-.14,0-.23-.08-.27-.21Z"/>
    <path class="cls-5" d="m71.34,374.59c.2.15.39.3.59.46-.2-.15-.39-.3-.59-.46Z"/>
    <path class="cls-5" d="m320.42,377.17c.2-.19.39-.38.59-.57-.2.19-.39.38-.59.57Z"/>
    <path class="cls-5" d="m78.21,379.26c.23.12.46.24.69.36-.23-.12-.46-.24-.69-.36Z"/>
    <path class="cls-5" d="m183.88,22.05c-.23.13-.46.25-.69.38.23-.13.46-.25.69-.38Z"/>
    <path class="cls-5" d="m268.11,45.37c-.23-.1-.46-.2-.69-.31.23.1.46.2.69.31Z"/>
    <path class="cls-5" d="m10.09,193.9c-.28.2-.55.39-.83.59.28-.2.55-.39.83-.59Z"/>
    <path class="cls-5" d="m8.43,195.06c-.19.17-.39.33-.58.5.19-.17.39-.33.58-.5Z"/>
    <path class="cls-5" d="m16.09,157.86c-.13.19-.25.38-.38.58.13-.19.25-.38.38-.58Z"/>
    <path class="cls-5" d="m327.35,402.06c.17.19.33.38.5.57-.17-.19-.33-.38-.5-.57Z"/>
    <path class="cls-5" d="m327.8,402.58c.18.18.37.36.55.55-.18-.18-.37-.36-.55-.55Z"/>
    <path class="cls-5" d="m328.3,403.08c.19.16.38.33.57.49-.19-.16-.38-.33-.57-.49Z"/>
    <path class="cls-5" d="m42.36,340.09c.1.09.2.18.28.29,0,.01-.1.11-.15.17-.08-.14-.13-.29-.13-.46Z"/>
    <path class="cls-7" d="m65.36,196.11c4.22-21.14,10.52-41.62,19.72-61.15.31-.66,1.09-1.1,1.65-1.65.24.63.54,1.24.71,1.88.97,3.7,1.67,7.49,2.93,11.09,1.42,4.07,4.81,5.46,8.62,3.95,5.92-2.34,11.71-5.09,17.37-8.02,11.32-5.86,22.52-11.97,33.81-17.89.39-.2,1.53.3,1.83.77,3.59,5.69,7.15,11.41,10.6,17.19,4.85,8.14,7.42,10.41,17.54,4.72,12.61-7.08,24.61-15.28,36.71-23.24,2.4-1.58,3.35-1.45,4.75.92,2.97,5,6.32,9.76,9.29,14.76,4.24,7.14,8.79,9.12,16.71,6.38,11.44-3.96,22.23-9.22,31.73-16.87.54-.43,1.25-.65,1.88-.97.05.65.13,1.29.13,1.94.01,2.25.09,4.5-.03,6.75-.23,4.39,1.05,8.18,4.8,10.59,4.38,2.81,8.9,1.77,13.13-.54,3.79-2.07,7.38-4.49,11.13-6.64.44-.25,1.65.07,1.95.5,1.32,1.9,2.16,4.2,3.69,5.87,1.39,1.52,3.51,3.49,5.21,3.41,4.7-.22,4.18,2.43,4.18,5.49-.05,37.74-.03,75.48-.04,113.22,0,.61-.19,1.22-.29,1.83-.41-.39-.86-.75-1.23-1.18-1.02-1.21-2.02-2.43-3-3.67-5.18-6.57-8-6.65-13.64-.37-5.32,5.93-10.75,11.77-15.93,17.82-2.33,2.73-3.37,1.78-4.91-.69-4.6-7.41-9.47-14.66-14.1-22.05-6.13-9.78-9.01-7.03-14.84-1.53-11.34,10.71-22.28,21.87-33.31,32.91-1.54,1.54-2.23,1.86-3.54-.31-5.1-8.47-10.38-16.83-15.66-25.18-2.72-4.3-5.29-4.39-9.6-1.17-6.87,5.13-13.46,10.61-20.3,15.78-.68.51-2.77.31-3.29-.32-5.44-6.62-10.66-13.43-16.02-20.12-4.2-5.24-6.34-5.4-11.56-1.2-10.64,8.55-21.33,17.04-31.9,25.68-1.72,1.41-2.05.85-2.67-.81-3.97-10.65-7.98-21.29-12.04-31.9-1.84-4.81-4.78-5.68-8.85-2.47-9.27,7.32-18.44,14.78-27.67,22.17-.45.36-1.06.52-1.59.78-.01-3.5-.02-6.99-.03-10.49,0-.34,0-.68,0-1.02,1.6-19.3,3.19-38.6,4.79-57.9,0,0-.13.02-.13.02.44-2.36.88-4.72,1.33-7.07Zm161.7,6.04l-.07.1c.2-.19.41-.37.61-.56l-.08.09c.19-.19.39-.39.58-.58l-.02.07c2.51-2.51,3.4-5.38,1.87-8.76l.04.05-2.5-3.64.09.08c-.2-.19-.4-.39-.59-.58l.08.1c-.21-.2-.41-.4-.61-.6-.16-.12-.31-.24-.47-.36-.34-.22-.67-.44-1.01-.66l.09.09c-.21-.16-.43-.31-.64-.47l.04.03c-.35-.18-.69-.37-1.04-.55l.05.04c-13.77-5.67-27.33-5.71-40.61,1.52l.02-.02c-.5.34-1,.68-1.51,1.02h.02c-.19.16-.37.33-.56.5,0,0,.05-.05.05-.05-.19.18-.37.37-.56.55l.06-.06c-.18.19-.36.38-.54.56l.03-.04c-.27.35-.54.7-.81,1.04-2.13,5.28-1.37,9.12,2.78,11.92,1.77,1.2,1.2,1.52-.07,2.49-6.09,4.64-6.04,11.2.13,15.78,1.51,1.13,3.23,2.04,4.97,2.78,8.16,3.48,16.74,3.21,25.14,1.74,4.97-.87,10.11-2.65,14.36-5.32,5.75-3.63,5.38-10.08.02-14.39-.5-.51-.99-1.02-1.49-1.53l-.14-.52c.4-.31.8-.62,1.21-.93.16-.13.31-.25.47-.38.2-.19.41-.38.61-.58Zm39.44-33.09c-.2-.17-.39-.34-.59-.51,0,0,.03.02.03.02-.34-.2-.67-.4-1.01-.6l.07.05c-3.43-1.72-6.69-1.48-9.77.85,0,0-.01-.03-.01-.03-.3.24-.59.49-.89.74-.15.15-.3.3-.45.45-.26.35-.53.7-.79,1.05-.47,3.57-1.39,7.15-1.3,10.7.12,4.31,3.37,7.15,7.19,7.57,3.4.37,7.49-.18,9.39-4.27.38-.82.77-1.63,1.15-2.45l-.05.05c1.72-4.33,1.03-8.36-1.55-12.14l.02.03c-.17-.2-.34-.39-.51-.59l.07.07c-.19-.2-.37-.39-.56-.59l.08.07-.59-.55.07.07Zm-121.66-1.5c-6.39-.31-10.54,3.5-10.95,10.05-.38,6.16,3.55,11.73,8.43,11.95,6.37.29,10.86-3.95,11.12-10.48.28-6.93-2.95-11.25-8.6-11.52Z"/>
    <path class="cls-2" d="m119.93,388.13c-7.55-2.45-15.23-4.56-22.62-7.42-10.68-4.12-20.07-10.36-28.72-17.99-11.33-9.99-18.64-22.4-24.07-36.19-.17-.44-.34-.89-.51-1.33,0,0-.02-.13-.02-.13-.31-1.11-.62-2.23-.93-3.34-3.29-11.83-5.42-23.8-4.19-36.16.35-3.79.64-7.6,1.1-11.37.12-.98.97-2.75,1.21-2.71,2.4.46,4.96.84,7.06,2,2.36,1.3,4.32,3.34,6.4,5.13,3.36,2.89,6.56,2.52,9.82-.2,8.68-7.24,17.4-14.43,26.12-21.63.36-.3.84-.47,1.26-.7,4.26,11.38,8.52,22.76,12.78,34.15,0,0,.04.1.04.1.53.65,1.05,1.3,1.58,1.95,0,0-.04-.04-.04-.04.2.17.39.34.59.51,0,0-.05-.05-.05-.05.22.14.44.28.66.43,0,0-.04-.03-.04-.03,2.22-.17,4.43-.33,6.65-.5,0,0-.03.02-.03.02.49-.35.99-.71,1.48-1.06,10.65-8.52,21.28-17.06,32.02-25.47.67-.53,2.78-.38,3.3.23,4.31,5.07,8.37,10.35,12.57,15.5,1.96,2.4,3.79,5.06,6.21,6.88,2.9,2.17,6.12.67,8.65-1.21,6.68-4.96,13.15-10.19,19.79-15.2.48-.36,2.14-.09,2.46.4,5.1,7.97,10,16.07,15.08,24.04,3.19,5,7.2,5.26,11.48,1.05,7.67-7.56,15.36-15.1,23.07-22.63,4.13-4.03,8.28-8.05,12.57-11.93.5-.45,2.45-.28,2.79.22,4.99,7.45,9.76,15.05,14.74,22.51,1.37,2.05,2.94,4.22,4.94,5.54,3.35,2.2,6.4.4,8.84-2.08,6.17-6.27,12.29-12.61,18.27-19.06,1.55-1.67,2.06-1.28,3.33.26,2.95,3.57,6.21,6.88,9.34,10.3.12.13.26.2.43.22,0,0-.04-.03-.04-.03.03,25.9.09,51.8.05,77.71,0,1.54-.73,3.07-1.12,4.61,0,0,.06-.04.06-.04-.19.21-.37.41-.56.62-14.99,16.53-34.22,24.85-55.75,28.53-9.14,1.56-18.37,2.65-27.56,3.95-4.65.18-9.3.4-13.95.52-9.69.24-19.37.42-29.06.62-6.08-.18-12.16-.35-18.24-.53-3.25-.33-6.51-.66-9.76-.98-.33-.04-.65-.09-.98-.13-1.34-.12-2.68-.25-4.02-.37-.13-.07-.28-.1-.43-.08-.26-.16-.5-.43-.78-.47-14.42-2.32-28.85-4.62-43.28-6.92Z"/>
    <path class="cls-4" d="m290.44,92.63c9.22-5.95,18.42-11.94,27.67-17.84,8.84-5.64,17.72-11.23,26.65-16.73,1.27-.78,2.91-1.34,4.39-1.35,11.5-.11,22.99-.07,34.49-.02.92,0,1.84.43,2.76.66,0,39.6,0,79.2.01,118.8,0,0,0-.05,0-.05-.18.17-.37.34-.55.51-14.22,6.85-21.48,22.09-18.74,38.85,1.98,12.09,7.28,21.66,18.97,26.8.34.15.57.57.85.86-.02,50.81-.04,101.63-.06,152.44h-.15s-.15,0-.15,0c-1.14.16-2.29.46-3.43.46-15.07.03-30.15-.05-45.22.09-2.66.02-3.12-.86-3.11-3.27.09-21.15.05-42.31.05-63.46,0-68.29,0-136.58-.04-204.87,0-.97-.63-1.93-.96-2.9-1.95-3.21-4.3-3.48-7.51-1.55-11.04,6.62-22.18,13.06-33.29,19.56-.73-1-2.08-2-2.09-3.01-.14-13.71-.09-27.41-.11-41.12,0-.96-.27-1.91-.42-2.87Z"/>
    <path class="cls-2" d="m255.68,48.25c15.46,6.09,28.98,15.15,41.02,26.57,1.83,1.73,1.39,2.22-.4,3.26-3.22,1.87-6.41,3.82-9.43,6-1.55,1.12-2.7,2.79-4.03,4.21-.51,1.95-1.43,3.89-1.47,5.86-.18,8.3-.11,16.6-.13,24.91-6.35,4.22-12.53,8.73-19.11,12.55-5.3,3.08-11,5.53-16.68,7.89-2.9,1.2-5.62,1.48-7.72-2.44-3.48-6.48-7.77-12.54-11.84-18.7-3.08-4.67-6.48-5.13-11.02-2.02-11.89,8.12-23.6,16.53-35.84,24.08-7.05,4.35-6.53,4.09-10.56-2.36-4.14-6.61-8.19-13.28-12.2-19.96-1.99-3.31-4.21-3.7-7.64-1.79-13.28,7.42-26.7,14.6-40.07,21.86-2.77,1.5-5.68,2.78-8.3,4.5-3.37,2.21-4.21-.15-4.7-2.51-1.03-4.99-1.78-10.04-2.61-15.07-.57-3.48-3.29-4.35-7.7-2.62-7.71,3.02-15.45,5.92-23.19,8.86-.5.19-1.05.24-1.57.35.12-.54.17-1.1.38-1.61,6.24-15.21,15.46-28.58,25.69-41.3,9.15-11.39,20.78-20.01,33.02-27.57,7.38-4.56,15.9-7.27,23.91-10.82.5-.24,1-.49,1.51-.73,0,0-.05.04-.05.04,10.87-2.11,21.66-5.17,32.63-6.13,26.2-2.28,52.58-5.13,78.12,4.68Z"/>
    <path class="cls-7" d="m53.02,241.56c-.19,7.39-.41,14.78-.54,22.18-.04,2.02.07,3.43-2.84,2.36-5.82-2.14-11.92-3.56-17.65-5.9-6.46-2.63-12.11-10.12-8.62-19.24,1.35-3.54.71-6.57-3.45-7.72-12.95-3.58-15.86-27.56-4.16-34.26,3.46-1.98,4.03-5.04,3.05-8.83-2.25-8.65-2.92-17.26,1.64-25.54,4.67-8.47,14.54-10.99,21.29-4.14,5.33,5.41,8.91,12.54,13.2,18.96.98,1.46,1.53,3.21,2.51,4.68,3.89,5.84.11,11.54-.26,17.29-.25,3.89-.83,7.76-1.26,11.63-.97,9.51-1.93,19.02-2.9,28.53Z"/>
    <path class="cls-7" d="m401.32,186.24c.3.3.6.6.91.89l1.11,1.5-.02-.03c.32.53.63,1.06.95,1.6,0,0-.05-.06-.05-.06.46,1.02.91,2.03,1.37,3.05,0,0-.05.17-.05.17,4.08,13.66,3.5,27.05-2.34,40.14,0,0,.09-.07.09-.07-.16.21-.32.42-.48.63,0,0,.03-.04.03-.04-.23.31-.46.63-.69.94,0,0,.04-.08.05-.08-.33.36-.65.72-.98,1.08,0,0,.07-.05.07-.05-.2.19-.41.37-.61.56,0,0,.09-.1.09-.1-.31.23-.63.45-.94.68h.02c-1.47.28-2.94.58-4.42.87,0,0,.05.05.05.06-3.37-1.48-6.73-2.96-10.1-4.44,0,0,.02.02.02.02-.33-.2-.67-.41-1-.61,0,0,.07.05.07.05-.5-.37-1.01-.74-1.51-1.11,0,0,.08.09.07.09-.21-.18-.41-.37-.62-.55,0,0,.08.08.08.08-.2-.18-.4-.37-.6-.55,0,0,.07.08.07.08-.19-.2-.38-.4-.57-.6l-.89-.91c-.2-.2-.4-.4-.6-.59,0,0,.1.08.09.07-.18-.21-.35-.42-.53-.63,0,0,.09.07.09.07-.16-.2-.33-.39-.49-.59,0,0,.05-.05.05-.05-.42-.59-.83-1.19-1.25-1.79l.02.03c-.8-1.85-1.61-3.7-2.41-5.55-3.13-11.14-2.01-21.72,5.12-31.01,5.11-6.66,13.25-8.17,19.43-4.4.24.21.49.43.73.64,0,0-.07-.1-.07-.1.2.2.4.4.6.59Z"/>
    <path class="cls-7" d="m185.95,31.63c.5-.63.99-1.25,1.49-1.88.26-.21.53-.41.79-.62,2.24.03,4.48.08,6.72.07.82,0,1.64-.14,2.46-.22.86-.78,1.72-1.56,2.58-2.35,0,0-.05.05-.05.05,0-.71,0-1.42,0-2.14,0,0,.04.05.04.05-.17-.53-.34-1.06-.51-1.59,0,0,.05.05.05.05-.37-.83-.74-1.66-1.1-2.5,0,0,.02.03.02.03-.37-1.68-1.26-3.45-.99-5.02.38-2.17,1.13-4.79,2.67-6.06,1.15-.94,3.83-.16,5.79.08,1.01.12,1.96.74,2.93,1.13,0,0-.07-.07-.07-.07.2.18.39.35.59.53,6.02,6,7.58,13.64,7.97,21.7.02.42-.3.86-.47,1.29-4.32,0-8.65,0-12.97,0-.51,0-1.01,0-1.52,0-5.66.13-11.32.26-16.98.39,0-.16-.03-.32-.08-.47.2-.83.41-1.65.61-2.48Z"/>
    <path class="cls-6" d="m333.87,121.63c.34.97.96,1.93.96,2.9.05,68.29.04,136.58.04,204.87,0,21.15.04,42.31-.05,63.46-.01,2.41.45,3.29,3.11,3.27,15.07-.14,30.15-.06,45.22-.09,1.14,0,2.28-.3,3.43-.46-.65.35-1.31,1-1.97,1-16.31.06-32.63.05-48.94.03-.46,0-.91-.27-1.37-.42.03-2.91.11-5.81.08-8.72-.08-7.29-.21-14.57-.32-21.85v-2.1c.1-.72.31-1.45.31-2.17.02-29.51.02-59.02,0-88.54,0-.72-.21-1.45-.32-2.17,0-.53,0-1.07,0-1.6.11-.31.31-.62.31-.92.02-17.68.02-35.35,0-53.03,0-.31-.19-.62-.3-.93,0-.37,0-.74,0-1.11,0-7.79,0-15.59,0-23.38v-1.11c0-.8,0-1.6,0-2.4v-2.11c0-4.46,0-8.92,0-13.38,0-.54,0-1.07,0-1.61v-3.89c0-.37,0-.74,0-1.11,0-5.46,0-10.92.01-16.38,0-1.37,0-2.74.01-4.11,0-.3,0-.61,0-.91v-3.61c-.01-2.63-.01-5.25-.02-7.88,0-1.2,0-2.4,0-3.6,0-.3,0-.61,0-.91l-.02-3.58c.03-.05.11-.12.1-.15-.04-.11-.11-.2-.17-.3-.07-.15-.14-.3-.21-.45.03-.18.05-.35.08-.53Z"/>
    <path class="cls-5" d="m334.06,184.03c0,.7,0,1.41,0,2.11,0,.8,0,1.6,0,2.4,0,.37,0,.74,0,1.11,0,7.79,0,15.59,0,23.38,0,.37,0,.74,0,1.11,0,18.29,0,36.59-.01,54.88,0,.53,0,1.07,0,1.6-.05,19.73-.12,39.45-.14,59.18,0,11.23.08,22.47.13,33.7,0,.7,0,1.4.01,2.1-.08,9.98-.16,19.95-.25,29.93-.14-.96-.41-1.93-.41-2.89-.02-89.2-.02-178.39,0-267.59,0-.97.25-1.93.39-2.9.06.15.13.3.2.45-.04.16-.02.32.08.46,0,1.19.01,2.38.02,3.58,0,.3,0,.61,0,.91,0,1.2,0,2.4,0,3.6,0,2.63,0,5.25,0,7.88,0,1.2,0,2.4.01,3.61,0,.3,0,.61,0,.91,0,1.37,0,2.74-.01,4.11,0,5.46,0,10.92-.01,16.38,0,.37,0,.74,0,1.11,0,1.3,0,2.59,0,3.89,0,.54,0,1.07,0,1.61,0,4.46,0,8.92,0,13.38Z"/>
    <path class="cls-5" d="m255.68,48.25c-25.53-9.81-51.92-6.96-78.12-4.68-10.97.95-21.76,4.02-32.63,6.13,4.65-1.35,9.24-2.96,13.96-4.02,23.39-5.27,47.2-5.2,70.91-4.27,8.65.34,17.17,4.02,25.75,6.18.14.03.34.16.35.25.01.13-.14.27-.22.41Z"/>
    <path class="cls-5" d="m324.23,363.43c.39-1.53,1.12-3.07,1.12-4.61.04-25.9-.02-51.8-.05-77.71.36.7,1.04,1.41,1.04,2.11.05,25.64.07,51.29-.05,76.93,0,1.09-1.34,2.18-2.06,3.26Z"/>
    <path class="cls-5" d="m386.88,395.56c.02-50.81.04-101.63.06-152.44.14.88.41,1.76.41,2.64.02,49.23.02,98.46,0,147.69,0,.7-.3,1.41-.47,2.11Z"/>
    <path class="cls-1" d="m325.36,137c0,1.24.07,2.49-.02,3.72-.06.81-.36,1.6-.56,2.4-1.04-.35-2.51-.39-3.05-1.12-1.41-1.9-2.45-4.08-3.53-6.2-.14-.28.23-.92.5-1.28.23-.31.66-.47,1.02-.67,1.84-1.01,3.69-2,5.53-3.01v6.16h.1Z"/>
    <path class="cls-6" d="m386.41,176.15c0-39.6,0-79.2-.01-118.8.16.09.31.17.47.26,0,39.49,0,78.98,0,118.48l-.23.07h-.24Z"/>
    <path class="cls-5" d="m386.88,176.09c0-39.49,0-78.98,0-118.48.16.87.47,1.74.47,2.6.02,37.75.02,75.51,0,113.27,0,.87-.3,1.74-.46,2.61Z"/>
    <path class="cls-5" d="m64.16,203.16c-1.6,19.3-3.19,38.6-4.79,57.9-.1-6.2-.55-12.41-.23-18.58.45-8.5,1.33-16.98,2.35-25.43.56-4.67,1.76-9.26,2.67-13.89Z"/>
    <path class="cls-5" d="m403.2,233.5c5.84-13.09,6.41-26.48,2.34-40.14,1.1,3.14,2.93,6.24,3.16,9.44.67,9.54.62,19.13-3.4,28.14-.43.97-1.39,1.71-2.1,2.56Z"/>
    <path class="cls-5" d="m119.93,388.13c14.43,2.3,28.86,4.6,43.28,6.92.28.04.52.31.78.47-12.26-1.7-24.53-3.33-36.77-5.16-2.49-.37-4.87-1.47-7.3-2.23Z"/>
    <path class="cls-5" d="m197.42,397.62c9.69-.2,19.37-.38,29.06-.62,4.65-.11,9.3-.34,13.95-.52-2.59.33-5.16.9-7.76.96-11.45.27-22.91.4-34.36.56-.29,0-.59-.25-.88-.39Z"/>
    <path class="cls-6" d="m290.44,92.63c.15.96.42,1.91.42,2.87.03,13.71-.03,27.42.11,41.12.01,1.01,1.36,2.01,2.09,3.01-.91-.15-1.82-.3-2.73-.45-.09-2.51-.18-5.02-.27-7.53,0-1.54,0-3.08.01-4.62,0-.96,0-1.92,0-2.88,0-.87,0-1.75,0-2.62,0-7.29,0-14.58,0-21.88,0-.54,0-1.07,0-1.61v-1.4c0-1.03,0-2.05,0-3.08.07-.2.15-.41.22-.61,0-.13.04-.24.14-.33Z"/>
    <path class="cls-5" d="m38.87,285.58c-1.23,12.36.9,24.32,4.19,36.16.31,1.11.62,2.23.93,3.34-1.33-3.85-3.32-7.62-3.84-11.58-1.14-8.59-1.55-17.27-2.17-25.92-.05-.64.58-1.34.89-2.01Z"/>
    <path class="cls-5" d="m104.62,290.25c-4.26-11.38-8.52-22.76-12.78-34.15,1.43,3.29,2.96,6.55,4.25,9.89,2.91,7.5,5.72,15.05,8.53,22.6.18.48,0,1.1-.01,1.66Z"/>
    <path class="cls-5" d="m53.02,241.56c.97-9.51,1.93-19.02,2.9-28.53-.67,9.04-1.33,18.08-2.04,27.12-.04.49-.56.94-.86,1.41Z"/>
    <path class="cls-5" d="m290.08,93.57c0,1.03,0,2.05,0,3.08,0,.47,0,.94,0,1.4,0,.54,0,1.07,0,1.61,0,7.29,0,14.58,0,21.88,0,.87,0,1.75,0,2.62,0,.96,0,1.92,0,2.88,0,1.54,0,3.08-.01,4.62-.05,2.48-.09,4.95-.14,7.43-.18-.61-.52-1.21-.52-1.82-.03-14.1-.03-28.21,0-42.31,0-.62.32-1.23.48-1.84.06.15.12.31.19.46Z"/>
    <path class="cls-5" d="m208.86,10.73c-.98-.39-1.92-1-2.93-1.13-1.97-.24-4.65-1.02-5.79-.08-1.54,1.27-2.3,3.9-2.67,6.06-.27,1.57.62,3.34.99,5.02-3.06-3.31-2.74-9.14.64-11.9,2.72-2.22,7.41-1.25,9.77,2.03Z"/>
    <path class="cls-5" d="m281.23,119.06c.02-8.3-.05-16.61.13-24.91.04-1.96.96-3.91,1.47-5.86-.31,9.43-.61,18.86-.96,28.29-.03.83-.42,1.65-.65,2.48Z"/>
    <path class="cls-4" d="m333.81,395.54c.08-9.98.16-19.95.25-29.93.11,7.29.24,14.57.32,21.86.03,2.9-.05,5.81-.08,8.72-.16-.21-.33-.43-.49-.64Z"/>
    <path class="cls-5" d="m185.42,34.57c5.66-.13,11.32-.26,16.98-.39-.41.31-.82.87-1.25.88-5.09.15-10.18.23-15.27.27-.15,0-.31-.5-.47-.76Z"/>
    <path class="cls-5" d="m385.39,233.54c3.37,1.48,6.73,2.96,10.1,4.44-3.37-1.48-6.73-2.96-10.1-4.44Z"/>
    <path class="cls-5" d="m169.42,396.11c3.25.33,6.51.66,9.76.98-3.25-.33-6.51-.66-9.76-.98Z"/>
    <path class="cls-5" d="m203.91,34.17c4.32,0,8.65,0,12.97,0-4.32,0-8.65,0-12.97,0Z"/>
    <path class="cls-5" d="m59.37,262.08c.01,3.5.02,6.99.03,10.49-.01-3.5-.02-6.99-.03-10.49Z"/>
    <path class="cls-5" d="m113.99,292.62c-2.22.17-4.43.33-6.65.5,2.22-.17,4.43-.33,6.65-.5Z"/>
    <path class="cls-5" d="m375.51,220.51c.8,1.85,1.61,3.7,2.41,5.55-.8-1.85-1.61-3.7-2.41-5.55Z"/>
    <path class="cls-5" d="m65.36,196.11c-.44,2.36-.88,4.72-1.33,7.07.44-2.36.88-4.72,1.33-7.07Z"/>
    <path class="cls-5" d="m395.43,237.93c1.47-.29,2.94-.59,4.42-.88-1.47.29-2.94.59-4.42.88Z"/>
    <path class="cls-4" d="m289.93,139.09c.05-2.48.09-4.95.14-7.43.09,2.51.18,5.02.27,7.53-.13-.05-.27-.08-.41-.1Z"/>
    <path class="cls-5" d="m164.42,395.6c1.34.12,2.68.25,4.02.37-1.34-.12-2.68-.25-4.02-.37Z"/>
    <path class="cls-5" d="m200,26.64c-.86.78-1.72,1.56-2.58,2.35l2.58-2.35Z"/>
    <path class="cls-5" d="m405.59,193.2c-.45-1.02-.91-2.03-1.37-3.05.45,1.02.91,2.03,1.37,3.05Z"/>
    <path class="cls-5" d="m198.43,20.57c.37.83.73,1.66,1.1,2.5-.37-.83-.73-1.66-1.1-2.5Z"/>
    <path class="cls-5" d="m185.95,31.63c-.2.83-.41,1.65-.61,2.48.2-.83.41-1.65.61-2.48Z"/>
    <path class="cls-5" d="m106.23,292.3c-.53-.65-1.05-1.3-1.58-1.95.53.65,1.05,1.3,1.58,1.95Z"/>
    <path class="cls-5" d="m377.9,226.03c.41.6.83,1.19,1.25,1.79-.41-.6-.83-1.19-1.25-1.79Z"/>
    <path class="cls-5" d="m404.27,190.21c-.32-.53-.63-1.06-.95-1.6.32.53.63,1.06.95,1.6Z"/>
    <path class="cls-5" d="m403.34,188.64l-1.11-1.5,1.11,1.5Z"/>
    <path class="cls-5" d="m115.45,291.58c-.49.35-.99.71-1.48,1.06.49-.35.99-.71,1.48-1.06Z"/>
    <path class="cls-5" d="m199.94,24.55c0,.71,0,1.42,0,2.14,0-.71,0-1.42,0-2.14Z"/>
    <path class="cls-5" d="m382.97,231.89c.5.37,1.01.74,1.51,1.11-.5-.37-1.01-.74-1.51-1.11Z"/>
    <path class="cls-5" d="m401.22,235.97c.33-.36.65-.72.98-1.08-.33.36-.65.72-.98,1.08Z"/>
    <path class="cls-5" d="m144.98,49.66c-.5.24-1.01.49-1.51.73.5-.24,1.01-.49,1.51-.73Z"/>
    <path class="cls-5" d="m199.48,23.02c.17.53.34,1.06.51,1.59-.17-.53-.34-1.06-.51-1.59Z"/>
    <path class="cls-5" d="m402.15,234.97c.23-.31.46-.63.69-.94-.23.31-.46.63-.69.94Z"/>
    <path class="cls-5" d="m400.79,185.74c-.24-.21-.49-.43-.73-.64.24.21.49.43.73.64Z"/>
    <path class="cls-5" d="m44.01,325.21c.17.44.34.89.51,1.33-.17-.44-.34-.89-.51-1.33Z"/>
    <path class="cls-5" d="m399.83,237.06c.31-.23.63-.45.94-.68-.31.23-.63.45-.94.68Z"/>
    <path class="cls-5" d="m384.41,232.95c.33.2.67.41,1,.61-.33-.2-.67-.41-1-.61Z"/>
    <path class="cls-5" d="m188.24,29.13c-.26.21-.53.41-.79.62.26-.21.53-.41.79-.62Z"/>
    <path class="cls-5" d="m323.73,364.01c.19-.21.37-.41.56-.62-.19.21-.37.41-.56.62Z"/>
    <path class="cls-5" d="m379.09,227.86c.16.2.33.39.49.59-.16-.2-.33-.39-.49-.59Z"/>
    <path class="cls-5" d="m379.49,228.39c.18.21.35.42.53.63-.18-.21-.35-.42-.53-.63Z"/>
    <path class="cls-5" d="m379.92,228.94c.2.2.4.4.6.59-.2-.2-.4-.4-.6-.59Z"/>
    <path class="cls-5" d="m381.41,230.45c.19.2.38.4.57.6-.19-.2-.38-.4-.57-.6Z"/>
    <path class="cls-5" d="m381.91,230.97c.2.18.4.37.6.55-.2-.18-.4-.37-.6-.55Z"/>
    <path class="cls-5" d="m382.43,231.44c.2.18.41.37.62.55-.2-.18-.41-.37-.62-.55Z"/>
    <path class="cls-5" d="m402.81,234.06c.16-.21.32-.42.48-.63-.16.21-.32.42-.48.63Z"/>
    <path class="cls-5" d="m400.68,236.48c.2-.19.41-.37.61-.56-.2.19-.41.37-.61.56Z"/>
    <path class="cls-5" d="m209.38,11.19c-.2-.18-.39-.35-.59-.53.2.18.39.35.59.53Z"/>
    <path class="cls-5" d="m401.32,186.24c-.2-.2-.4-.4-.6-.59.2.2.4.4.6.59Z"/>
    <path class="cls-6" d="m385.85,176.62c.18-.17.37-.34.55-.51-.18.17-.37.34-.55.51Z"/>
    <path class="cls-5" d="m106.78,292.77c-.2-.17-.39-.34-.59-.51.19.17.39.34.59.51Z"/>
    <path class="cls-5" d="m107.39,293.15c-.22-.14-.44-.28-.66-.43.22.14.44.28.66.43Z"/>
    <path class="cls-4" d="m290.08,93.57c-.06-.15-.12-.31-.19-.46.14-.03.28-.08.41-.15-.07.2-.15.41-.22.61Z"/>
    <path class="cls-5" d="m325.33,281.16c-.17-.02-.32-.09-.43-.22.14.07.29.15.43.22Z"/>
    <path class="cls-3" d="m226.4,206.09c5.36,4.31,5.74,10.76-.02,14.39-4.24,2.68-9.39,4.45-14.36,5.32-8.4,1.47-16.98,1.73-25.14-1.74-1.74-.74-3.46-1.66-4.97-2.78-6.17-4.59-6.22-11.14-.13-15.78,1.27-.97,1.84-1.29.07-2.49-4.15-2.81-4.91-6.64-2.78-11.92.27-.35.54-.7.81-1.04,0,0-.03.04-.03.04.18-.19.36-.38.54-.56,0,0-.06.06-.05.06.19-.18.37-.37.56-.55,0,0-.05.05-.05.05.19-.17.37-.34.56-.51,0,0-.02.01-.02.01.5-.34,1-.68,1.51-1.02,0,0-.02.02-.02.02.64-.14,1.27-.28,1.91-.41,6.58-1.35,13.14-3.59,19.76-3.8,6.28-.2,12.62,1.71,18.94,2.7,0,0-.05-.04-.05-.04.35.18.69.37,1.04.55,0,0-.04-.03-.04-.03.21.16.43.31.64.47,0,0-.09-.09-.09-.09.34.22.67.44,1.01.65.16.12.31.24.47.36.21.2.41.4.62.6,0,0-.08-.1-.08-.1.2.19.4.39.59.58,0,0-.09-.08-.09-.08.83,1.21,1.66,2.42,2.5,3.64,0,0-.04-.05-.04-.04-.62,2.92-1.25,5.84-1.87,8.75,0,0,.02-.07.02-.07-.2.19-.39.39-.58.58,0,0,.08-.09.08-.09-.2.19-.41.37-.61.56,0,0,.07-.1.07-.1-.2.19-.41.38-.61.58-.16.13-.31.25-.47.38-.4.31-.8.62-1.21.93.05.17.09.35.14.52.5.51.99,1.02,1.49,1.53Zm-21.1-17.57c-6.01,1.53-12.07,2.82-17.96,4.67-3.07.96-3.46,3.24-.25,4.76,11.26,5.32,22.66,5.38,33.93.06,3.41-1.61,3.34-4.03-.28-5.34-4.85-1.75-9.99-2.72-15.44-4.14Zm-1.22,32.4c5.88-1.83,11.67-3.38,17.26-5.46,2.83-1.05,2.85-3.58.05-4.61-3.55-1.31-7.39-2.07-11.17-2.45-3.86-.39-7.82-.33-11.68.07-3.95.41-8,1.04-11.7,2.38-3.28,1.19-3.27,3.67.05,4.93,5.43,2.05,11.13,3.38,17.19,5.16Z"/>
    <path class="cls-3" d="m144.83,167.55c5.66.27,8.88,4.59,8.6,11.52-.26,6.53-4.76,10.77-11.12,10.48-4.88-.22-8.81-5.79-8.43-11.95.41-6.55,4.56-10.35,10.95-10.05Z"/>
    <path class="cls-3" d="m268.36,185.08c-1.9,4.09-5.99,4.64-9.39,4.27-3.82-.42-7.07-3.26-7.19-7.57-.1-3.55.83-7.13,1.3-10.7.26-.35.53-.7.79-1.05.15-.15.3-.3.45-.45.3-.25.59-.49.89-.74,0,0,.01.03.01.03,3.26-.28,6.51-.57,9.77-.85,0,0-.07-.05-.07-.05.34.2.67.4,1.01.6,0,0-.03-.02-.03-.02.2.17.39.34.59.51,0,0-.07-.07-.07-.07.2.18.39.37.59.55,0,0-.08-.07-.08-.07.19.2.37.39.56.59,0,0-.07-.07-.07-.07.17.2.34.39.51.59,0,0-.02-.03-.02-.03.52,4.05,1.03,8.09,1.55,12.14,0,0,.05-.05.05-.05-.38.82-.77,1.63-1.15,2.45Z"/>
    <path class="cls-5" d="m223.47,186.04c-6.32-.98-12.66-2.9-18.94-2.7-6.62.21-13.18,2.45-19.76,3.8-.64.13-1.27.28-1.91.41,13.29-7.23,26.84-7.19,40.61-1.52Z"/>
    <path class="cls-5" d="m269.46,182.69c-.52-4.05-1.03-8.09-1.55-12.14,2.58,3.78,3.26,7.81,1.55,12.14Z"/>
    <path class="cls-5" d="m228.07,201.27c.62-2.92,1.25-5.84,1.87-8.75,1.53,3.38.64,6.24-1.87,8.75Z"/>
    <path class="cls-5" d="m264.99,168.02c-3.25.28-6.51.57-9.77.85,3.08-2.33,6.34-2.57,9.77-.85Z"/>
    <path class="cls-5" d="m229.98,192.56c-.83-1.21-1.67-2.42-2.5-3.64.83,1.21,1.67,2.42,2.5,3.64Z"/>
    <path class="cls-5" d="m268.36,185.08c.38-.82.77-1.63,1.15-2.45-.38.82-.77,1.63-1.15,2.45Z"/>
    <path class="cls-5" d="m226.4,206.09c-.5-.51-.99-1.02-1.49-1.53.5.51.99,1.02,1.49,1.53Z"/>
    <path class="cls-5" d="m182.88,187.55c-.5.34-1,.68-1.51,1.02.5-.34,1-.68,1.51-1.02Z"/>
    <path class="cls-5" d="m224.77,204.03c.4-.31.8-.62,1.21-.93-.4.31-.8.62-1.21.93Z"/>
    <path class="cls-5" d="m179.87,190.03c-.27.35-.54.7-.81,1.04.27-.35.54-.7.81-1.04Z"/>
    <path class="cls-5" d="m253.87,170.02c-.26.35-.53.7-.79,1.05.26-.35.53-.7.79-1.05Z"/>
    <path class="cls-5" d="m224.46,186.56c-.35-.18-.69-.37-1.04-.55.35.18.69.37,1.04.55Z"/>
    <path class="cls-5" d="m265.93,168.57c-.34-.2-.67-.4-1.01-.6.34.2.67.4,1.01.6Z"/>
    <path class="cls-5" d="m225.98,187.56c-.34-.22-.67-.44-1.01-.65.34.22.67.44,1.01.65Z"/>
    <path class="cls-5" d="m255.21,168.84c-.3.24-.59.49-.89.74.3-.25.59-.49.89-.74Z"/>
    <path class="cls-5" d="m267.94,170.58c-.17-.2-.34-.39-.51-.59.17.2.34.39.51.59Z"/>
    <path class="cls-5" d="m267.5,170.05c-.19-.2-.37-.39-.56-.59.19.2.37.39.56.59Z"/>
    <path class="cls-5" d="m267.02,169.54c-.2-.18-.39-.37-.59-.55.2.18.39.37.59.55Z"/>
    <path class="cls-5" d="m227.06,188.52c-.21-.2-.41-.4-.62-.6l.62.6Z"/>
    <path class="cls-5" d="m181.4,188.56c-.19.17-.37.34-.56.51.19-.17.37-.34.56-.51Z"/>
    <path class="cls-5" d="m227.57,189c-.2-.19-.39-.39-.59-.58.2.19.4.39.59.58Z"/>
    <path class="cls-5" d="m180.88,189.02c-.19.18-.37.37-.56.55.19-.18.37-.37.56-.55Z"/>
    <path class="cls-5" d="m225.06,187c-.21-.16-.43-.31-.64-.47.21.16.43.31.64.47Z"/>
    <path class="cls-5" d="m180.38,189.51c-.18.19-.36.37-.54.56.18-.19.36-.37.54-.56Z"/>
    <path class="cls-5" d="m266.49,169.06c-.2-.17-.39-.34-.59-.51.2.17.39.34.59.51Z"/>
    <path class="cls-5" d="m227.51,201.78c.19-.19.39-.39.58-.58-.19.19-.39.39-.58.58Z"/>
    <path class="cls-5" d="m226.98,202.25c.2-.19.4-.37.61-.56-.2.19-.4.37-.61.56Z"/>
    <path class="cls-5" d="m226.44,202.73c.2-.19.41-.38.61-.58-.2.19-.41.38-.61.58Z"/>
    <path class="cls-4" d="m334.04,363.51c-.05-11.23-.14-22.47-.13-33.7.01-19.73.09-39.45.14-59.18.11.72.32,1.45.32,2.17.02,29.51.02,59.02,0,88.54,0,.72-.21,1.45-.33,2.17Z"/>
    <path class="cls-4" d="m334.05,269.02c0-18.29,0-36.59.01-54.88.1.31.3.62.3.93.01,17.68.01,35.35,0,53.03,0,.31-.2.62-.31.92Z"/>
    <path class="cls-4" d="m334.06,213.03c0-7.79,0-15.59,0-23.38,0,7.79,0,15.59,0,23.38Z"/>
    <path class="cls-4" d="m334.06,164.03c0-5.46,0-10.92.01-16.38,0,5.46,0,10.92-.01,16.38Z"/>
    <path class="cls-4" d="m334.06,184.03c0-4.46,0-8.92,0-13.38,0,4.46,0,8.92,0,13.38Z"/>
    <path class="cls-4" d="m334.08,139.04c0-2.63,0-5.25,0-7.88,0,2.63,0,5.25,0,7.88Z"/>
    <path class="cls-4" d="m334.06,169.04c0-1.3,0-2.59,0-3.89,0,1.3,0,2.59,0,3.89Z"/>
    <path class="cls-4" d="m334.06,188.54c0-.8,0-1.6,0-2.4,0,.8,0,1.6,0,2.4Z"/>
    <path class="cls-4" d="m334.09,143.55c0-.3,0-.61,0-.91,0,.3,0,.61,0,.91Z"/>
    <path class="cls-4" d="m334.08,127.56c0-.3,0-.61,0-.91,0,.3,0,.61,0,.91Z"/>
    <path class="cls-4" d="m334.07,123.07c-.09-.14-.12-.29-.08-.46.06.1.13.2.17.3.01.03-.06.1-.1.15Z"/>
    <path class="cls-4" d="m290.08,121.54c0-7.29,0-14.58,0-21.88,0,7.29,0,14.58,0,21.88Z"/>
    <path class="cls-4" d="m290.08,127.04c0-.96,0-1.92,0-2.88,0,.96,0,1.92,0,2.88Z"/>
    <path class="cls-4" d="m290.08,98.06c0-.47,0-.94,0-1.4,0,.47,0,.94,0,1.4Z"/>
    <path class="cls-6" d="m205.3,188.52c5.45,1.42,10.59,2.39,15.44,4.14,3.62,1.31,3.69,3.73.28,5.34-11.26,5.33-22.66,5.27-33.93-.06-3.21-1.52-2.82-3.79.25-4.76,5.89-1.84,11.95-3.14,17.96-4.67Z"/>
    <path class="cls-6" d="m204.07,220.92c-6.06-1.77-11.76-3.11-17.19-5.16-3.33-1.26-3.34-3.74-.05-4.93,3.71-1.34,7.75-1.97,11.7-2.38,3.86-.4,7.83-.46,11.68-.07,3.78.38,7.63,1.14,11.17,2.45,2.79,1.03,2.78,3.56-.05,4.61-5.59,2.08-11.38,3.64-17.26,5.46Z"/>
  </g>
</svg>