<?xml version="1.0" encoding="UTF-8"?>
<svg id="_图层_2" data-name="图层 2" xmlns="http://www.w3.org/2000/svg" viewBox="0 0 429.67 410.52">
  <defs>
    <style>
      .cls-1 {
        fill: #705851;
      }

      .cls-1, .cls-2, .cls-3, .cls-4, .cls-5, .cls-6, .cls-7, .cls-8 {
        stroke-width: 0px;
      }

      .cls-2 {
        fill: #f4e5b0;
      }

      .cls-3 {
        fill: #7d808e;
      }

      .cls-4 {
        fill: #736260;
      }

      .cls-5 {
        fill: #5f4a47;
      }

      .cls-6 {
        fill: #fffefd;
      }

      .cls-7 {
        fill: #c2c1c4;
      }

      .cls-8 {
        fill: #ecb85f;
      }
    </style>
  </defs>
  <g id="_图层_1-2" data-name="图层 1">
    <path class="cls-4" d="m88.57,136.99c-3.53,1.5-8.73,4.66-10.62-.42-1.29-3.47,2.14-9.68,3.37-12.9,3.62-9.42,8.05-18.55,13.53-27.03,11.98-18.54,29.16-30.95,45.72-45.03.11.07.22.15.33.22.02-.14.05-.28.07-.43,0,0-.03.07-.03.07.57-.35,1.13-.71,1.7-1.06,0,0-.07.06-.07.06,1.26-.72,2.53-1.44,3.79-2.16,0,0-.06.06-.06.06.38-.2.75-.41,1.12-.61,0,0-.08.06-.08.06,1.79-.9,3.58-1.8,5.38-2.7,0,0-.06.06-.06.06,1.74-.52,3.51-.95,5.22-1.56,6.43-2.32,12.84-4.7,19.25-7.06.21-.08.41-.16.62-.25.7-.04,1.4-.08,2.1-.13,3.35-.61,10.11-.54,12.5-3.06,2.41-2.54,1.95-7.62,4.68-10.54,2.69-2.87,6.81-2.03,9.22-4.01,2.5-2.05.92-7.73,2.03-10.78,3.31-9.13,13.76-9.15,21.37-5.59,7.67,3.59,11.81,10.68,12.91,18.87.44,3.25-.51,7.82,1.59,10.59,2.15,2.84,7.19,3.15,10.34,3.84,11.2,2.46,21.22,5.59,31.31,11.13,18.35,10.09,34.96,22.75,46.36,40.56,13.46,21.02,18.93,45.12,25.66,68.81,5.71-10.05,14.11-18.2,26.61-13.75,14.33,5.1,12.52,22.95,12.48,35.21,0,2.06-.91,6.64.1,8.46.89,1.61,4.81,2.89,6.27,4.77,3.89,5.03,3.05,11.99,3.04,17.92-.01,6.92.06,14.44-2.65,20.94-2.9,6.97-9.17,11.72-13.8,17.47-.25.23-.5.46-.75.69,0,0,.07-.06.07-.06-.39.34-.79.69-1.18,1.03,0,0,.04-.04.04-.04-.72.54-1.45,1.09-2.17,1.63,0,0,.04-.04.04-.04-.36.23-.71.46-1.06.69,0,0,.06-.13.06-.13-.22.19-.43.38-.65.57,0,0,.07-.05.07-.05-.55.37-1.11.74-1.66,1.11,0,0,.06-.05.06-.05-1.26.72-2.52,1.45-3.78,2.17,0,0,.06-.06.06-.06-.38.2-.75.4-1.13.59,0,0,.07-.06.07-.06-.38.19-.76.39-1.14.58,0,0,.07-.06.07-.06-.38.19-.76.38-1.14.56,0,0,.05-.04.05-.04-3.03,1.08-6.06,2.16-9.09,3.24,0,0,.07-.05.07-.05-.38.19-.75.38-1.13.56.03.17,0,.33-.08.49-.32,6.57-.65,13.13-.97,19.7-1.56,19.77-4.63,39.14-14.57,56.79-1.66,2.95-2.69,6.26-4.02,9.4.72.22,1.43.63,2.15.63,26.54.01,53.09-.01,79.63-.03,0,0,0-.13,0-.13.38.2.76.4,1.14.61,0,0-.1-.03-.1-.03.26.2.52.41.79.61-.28,1.94-.55,3.88-.83,5.82-.14.07-.29.13-.43.2,0,0,0-.09,0-.09-26.82-.02-53.63-.05-80.45-.04-.63,0-1.27.38-1.9.58-1.77,11.64-2.61,23.38-3.51,35.11-.32,4.24,1.55,21.2-6.09,21.04-.52,0-1.03.01-1.55.02-2.14,0-4.27,0-6.41,0-.34,0-.68,0-1.02,0-1.96,0-3.92,0-5.88,0-1.05,0-2.1,0-3.15,0-.37,0-.73,0-1.1,0-.17,0-.33,0-.5,0h-4.81c-1.76,0-3.51,0-5.27,0-1.43,0-2.85,0-4.28,0h-.5c-3.2,0-6.39,0-9.59,0-.34,0-.68,0-1.03,0-1.25,0-2.5,0-3.75,0-2.11,0-4.22,0-6.33,0-3.73,0-7.46,0-11.19,0-.87,0-1.74,0-2.62,0-4.97,0-9.94,0-14.9,0-.34,0-.68,0-1.03,0-.54,0-1.09,0-1.63,0-.52,0-1.04,0-1.56,0-1.07,0-2.15,0-3.22,0-.17,0-.33,0-.5,0-1.25,0-2.5,0-3.75,0-1.4,0-2.81,0-4.21,0-1.61,0-3.21,0-4.82,0-3,0-5.99,0-8.99,0-1.07,0-2.15,0-3.22,0-.52,0-1.04,0-1.56,0-.54,0-1.09,0-1.63,0-.87,0-1.74,0-2.62,0-2.67,0-5.34,0-8,0-1.76,0-3.51,0-5.27,0-1.43,0-2.86,0-4.29,0-.87,0-1.74,0-2.61,0-4.08,0-8.16,0-12.25,0-.17,0-.33,0-.5,0-2.49,0-4.98,0-7.47,0-.52,0-1.04,0-1.56,0-.54,0-1.09,0-1.63,0-1.23,0-2.45,0-3.68,0-1.08,0-2.15,0-3.23,0-.87,0-1.74,0-2.61,0-1.25,0-2.5,0-3.76,0h-1.55c-3.2,0-6.4,0-9.6,0-.69,0-1.39,0-2.08,0-2.84,0-5.69,0-8.53,0-.87,0-1.74,0-2.61,0-1.25,0-2.5,0-3.76,0-1.05,0-2.1,0-3.15,0-2.84,0-5.69,0-8.53,0-1.23,0-2.45,0-3.68,0-4.79,0-9.58,0-14.37,0-.34,0-.68,0-1.02,0-.72,0-1.44,0-2.16,0-.52,0-1.04,0-1.56,0-1.59-.87-3.19-1.74-4.78-2.61-.23-6.95-.29-13.91-.75-20.85-.31-4.56-1.21-9.09-1.84-13.63-.74-6.29-1.49-12.59-2.23-18.88-1.04-.27-2.07-.77-3.11-.77-19.19-.05-38.39,0-57.58-.06-7.76-.02-15.52-.27-23.29-.42,0,0,.07.05.07.05-.19-.21-.38-.42-.57-.63,0,0,.04.06.04.06-.12-1.43-.24-2.86-.37-4.29,1.03-.7,2.06-1.4,3.09-2.1.66.17,1.31.48,1.97.48,25.57.02,51.14.02,76.72,0,.66,0,1.32-.32,1.97-.49-1.58-3.74-3.16-7.48-4.74-11.22-2.55-7.06-5.1-14.12-7.65-21.18-2.31-12.19-4.61-24.38-6.92-36.57,2.21-2.24.1-23.83-2.13-26.07-15.94-12.36-48.79-27.61-36.91-52.66,2.51-5.29,6.24-6.9,4.36-13.01-1.47-4.79-2.55-9.4-2.45-14.48.19-10.11,3.98-20.22,12.92-25.55,7.42-2.71,14.71-2.4,21.86.98,0,0-.07-.05-.07-.05.22.18.44.37.66.55,0,0,0-.13,0-.13,0,.15.01.29.02.44.11-.07.23-.14.34-.21,4.86,6.01,9.72,12.02,14.16,17.5.15-.36.85-2.06,1.55-3.75,2-4.79,4-9.58,6-14.38,0,0-.05.06-.05.06,1.43-2.86,2.85-5.71,4.28-8.57,0,0-.05.07-.05.07.28-.5.55-.99.83-1.49-.4.12-.81.24-1.21.36Zm166.74,3.14c.2.21.41.42.61.63,0,0-.11-.07-.11-.07.21.2.43.41.64.61.31.34.62.69.94,1.03.24.34.49.68.73,1.02l-.1-.08c.7.75,1.4,1.51,2.1,2.26,0,0-.04-.06-.04-.06,1.19-.39,2.38-.78,3.57-1.16,0,0-.07.1-.07.1.23-.16.45-.32.68-.48,0,0-.05.03-.05.03,1.43-.72,2.86-1.44,4.29-2.15,0,0-.05.03-.05.03.72-.36,1.45-.72,2.17-1.08,0,0-.04.03-.04.03.52-.24,1.04-.48,1.56-.72l-.05.06c1.28-.68,2.55-1.37,3.83-2.05,0,0-.05.04-.05.04.37-.19.75-.38,1.12-.57,0,0-.05.04-.05.04.72-.37,1.45-.74,2.17-1.1l-.05.04,1.12-.58-.06.05c.37-.19.75-.38,1.12-.57,0,0-.06.05-.06.05.37-.19.75-.39,1.12-.58,0,0-.06.05-.06.05.37-.2.75-.39,1.12-.59l-.06.05c.38-.19.75-.39,1.13-.58l-.07.05c.38-.2.75-.39,1.13-.59l-.07.05c.38-.2.75-.39,1.13-.59,0,0-.07.05-.07.05.38-.19.75-.39,1.13-.58l-.07.05c.38-.2.75-.4,1.13-.6l-.07.06c.38-.2.75-.4,1.13-.59,0,0-.07.06-.07.06.38-.2.76-.4,1.13-.6l-.08.06c.38-.2.76-.39,1.14-.59l-.07.06c.38-.2.75-.4,1.13-.59,0,0-.07.06-.07.06.38-.19.76-.39,1.14-.58l-.07.06c.38-.2.75-.4,1.13-.6l-.07.06c.38-.2.76-.39,1.14-.59,0,0-.07.05-.07.05.73-.37,1.46-.75,2.18-1.12l-.06.06c.38-.2.76-.39,1.14-.59l-.07.06,1.14-.59s-.07.06-.07.06c.38-.2.76-.39,1.13-.59l-.07.06,1.13-.58-.06.05c.51-.24,1.01-.49,1.52-.73l.08.11c1.87.27,3.75.55,5.62.82l.03.17-.16.06c.21.18.42.36.63.54,0,0,.02-.07.02-.07l1.05,1.16-.03-.08c.32.58.65,1.15.97,1.73,6.21,6.7,12.42,13.4,18.66,20.08.47.5,1.55,1.25,1.71,1.11,4.12-3.46,8.6-6.67,11.95-10.78,1.05-1.29-.94-5.08-1.54-7.72-2.71-7.24-5.42-14.48-8.13-21.72l.06.06c-.19-.38-.38-.75-.57-1.13,0,0,.05.05.05.05-.19-.37-.38-.75-.57-1.12,0,0,.04.06.04.06-.43-.89-.87-1.79-1.3-2.68-9.6-18.12-21.85-33.97-39.05-45.58-.56-.37-1.12-.74-1.68-1.1,0,0,.08.06.08.06-.36-.21-.73-.43-1.09-.64l.04.03c-.56-.35-1.11-.71-1.67-1.06,0,0,.07.05.07.05-1.26-.72-2.52-1.45-3.79-2.17,0,0,.08.06.08.06-.38-.2-.75-.41-1.13-.61l.07.06c-.37-.2-.74-.4-1.12-.6,0,0,.06.05.06.05-.73-.37-1.45-.74-2.18-1.11l.06.05c-.38-.19-.76-.38-1.13-.57l.06.06c-1.93-1.09-3.74-2.52-5.8-3.22-4.35-1.48-8.84-2.58-13.27-3.84-30.17-8.01-63.68-7.95-93.07,3.22-14.4,5.47-28.2,13.55-39.99,23.48-11.46,9.65-19.14,22.21-28.26,33.91-.35.57-.7,1.14-1.05,1.72,0,0,.07-.09.07-.09-.22.37-.43.74-.65,1.11l.06-.08c-.21.37-.42.74-.63,1.1l.04-.05c-.89,1.62-1.77,3.24-2.66,4.87,0,0,.06-.08.06-.08-.2.38-.4.75-.61,1.13l.06-.07c-.2.38-.39.76-.59,1.13l.06-.07c-.2.38-.39.76-.59,1.14l.07-.07c-.2.38-.4.76-.59,1.13l.06-.06-4.85,10.67.05-.05c-.01.16-.03.32-.04.48.82-.25,1.67-.41,2.44-.76,6.27-2.88,12.52-5.79,18.77-8.69.19.14.38.28.58.42l-.07-.07c.39.17.79.34,1.18.51l-.07-.05c.2.21.41.42.61.63l-.05-.07c.33,1.8.53,3.63,1.01,5.39,1.31,4.8,2.74,9.57,4.12,14.36,1.26,6.18,3.78,7.31,9.48,3.65,12.46-7.99,25.38-15.23,38.06-22.88,3.36-2.02,6.22-3,9.22.71,5.6,6.91,11.4,13.67,17.26,20.37.56.64,2.42.95,3.14.52,12.36-7.49,24.57-15.24,37.03-22.56,1.77-1.04,5.69-1.11,6.94.1,5.65,5.48,10.69,11.58,15.96,17.46.25.3.49.61.74.91l-.13-.02c.2.21.41.42.61.63l-.1-.08c.2.21.41.42.61.64l-.1-.09Zm96.59,109.46c.2.19.4.38.6.57l-.04-.05c.02,3.4.2,6.81.04,10.2-.32,6.7-.83,13.38-1.26,20.08-.35,5.7-.7,11.41-1.06,17.11-.13.52-.27,1.04-.4,1.56h0c-.4,6.51-.8,13.02-1.2,19.54,1.15.22,5.54-19.93,6.12-22.25,4.54-8.63,3.52-23.24,4.02-32.88.65-12.73-.02-25.03-.99-37.71-.73-8.68-1.46-17.35-2.19-26.03-1.74-8.54-2.74-17.27-4.04-25.9-1.26-8.4-1.53-17.84-4.52-25.8-3.92,3.1-8.36,9.61-13.35,10.72-6.06,1.36-10.85-6.67-14.34-10.5-3.65-4.01-7.45-11.53-12.38-13.9-5.08-2.44-10.49,1.83-14.77,4.13-6.73,3.62-13.54,7.09-20.34,10.58-5.14,2.64-10.84,7.35-16.41,3.38-5.51-3.92-10.05-11.24-14.63-16.25-1.74-1.9-4.48-6.42-7.2-6.81-2.72-.38-6.62,3.2-8.82,4.53-6.41,3.87-12.81,7.78-19.19,11.7-4.35,2.67-11.27,9.31-16.77,6.91-5.21-2.28-9.78-11.09-13.38-15.38-5.46-6.5-6.58-8.59-14.27-4.13-6.57,3.81-13.12,7.66-19.66,11.53-5.66,3.35-12.1,8.85-18.53,10.47-11.86,2.97-15.16-17.08-17.43-25.11-12.27,9.66-18.68,30.4-23.29,44.93-5.78,18.21-8.13,37.01-11.28,55.78l.03,5.76c-.01.73-.02,1.46-.04,2.19-.32,1.23-.95,2.48-.91,3.7.17,4.76.56,9.51.86,14.27.2,4.8.39,9.6.59,14.4,0,.33,0,.67,0,1,.04.18.07.36.11.54,1.02,6.2,2.03,12.39,3.05,18.59,1.64,7.53,3.28,15.05,4.92,22.58.55,1.68,1.09,3.36,1.64,5.04.28.15.56.3.84.45-.21-5.4-.32-10.81-.67-16.21-.2-3.05-.8-6.08-1.22-9.11-.06-1.24-.12-2.49-.17-3.73-.29-2.83-.58-5.65-.87-8.48-.07-.53-.14-1.06-.21-1.59-.12-1.6-.23-3.19-.35-4.79-.06-.35-.13-.7-.19-1.05-.26-3.18-.51-6.37-.77-9.55-.03-.39-.07-.78-.1-1.17-.16-1.56-.31-3.12-.47-4.67-.48-4.7-1.17-9.49,4.71-11.62.93.14,1.87.41,2.8.41,86.94.02,173.88.02,260.81,0,.93,0,1.86-.29,2.79-.44.68.28,1.36.57,2.04.85.23.22.47.44.7.66l-.02-.07c.19.2.38.39.57.59l-.04-.04c.19.19.39.38.58.57l-.05-.03Zm8.62-78.47c-.06.33-.13.65-.19.98-.07.39-.13.77-.2,1.16-2.12,2.83.65,11.96,1.1,15.51.8,6.32,1.78,12.59,2.77,18.88l1.06,20.81c.03,6.17.01,12.34.13,18.5.02,1.24.59,2.48.91,3.71,11.73.34,23.72-13.73,29.2-22.66,3.97-6.49,4.03-13.3,3.56-20.76-.22-3.4-.33-7.03-2.47-9.85-1.73-2.28-3.97-2.33-6.05-3.8-5.1-3.61-2.16-11.44-1.84-16.99.39-6.81,1.79-16.17-2.75-21.87-12.21-15.35-20.4,5.68-24.72,15.3-.2.36-.4.73-.6,1.09h.09ZM216.55,25.61c-.19.2-.38.39-.57.59,0,0,.06-.02.06-.02-.37.19-.74.39-1.11.58,0,0,0-.06,0-.06-1.41.14-2.83.28-4.24.43-4.13-1.15-7.71-.96-9.4,3.85-.07.33-.15.66-.22.99l.02.12c7.47,2.72,19.64.39,27.55-.48,2.32-.22,6.44.08,6.68-.74,2.19-7.5-3.45-19.21-10.45-22.62-3.45-1.68-6.83-2.14-9.12,1.97-.29,1.02-.94,2.09-.8,3.05.56,3.79,1.38,7.55,2.1,11.32,0,0,.07-.02.07-.02-.2.36-.4.73-.6,1.09l.02-.03ZM69.34,169.5l.03.04c-.54-1.16-1.09-2.33-1.63-3.49-5.64-8.89-14.97-21.83-26.24-11.39-4.09,3.78-5.77,9.88-5.92,15.28-.2,6.97,3.56,12.4,4.39,18.96.81,6.35-5.41,9.83-7.87,15.13-2.04,4.41-1.47,8.25,1.02,12.35,6.86,11.32,19.33,17.89,29.44,25.82,2.42-4.39,1.61-11.1,1.99-16.07.51-6.67,1.17-13.32,1.76-19.98.06-.39.12-.78.18-1.17.29-1.56.59-3.12.88-4.68.09-.38.18-.76.27-1.14.23-.79.47-1.58.7-2.38l-.14-.02c.08-.59.16-1.18.24-1.77.04-.21.09-.42.13-.63,1.33-5.82,2.66-11.64,3.99-17.46l-.02.05c-.89-2.14-1.77-4.28-2.66-6.41,0,0,0,.05,0,.05-.19-.37-.38-.74-.56-1.1Zm264.49,222.48c-1-.19-2.01-.54-3.01-.54-76.92-.03-153.84-.03-230.76,0-1.01,0-2.02.34-3.03.51-.18,3.52-.35,7.03-.53,10.55,1,.2,2,.57,2.99.57,77.11.03,154.22.03,231.33,0,1,0,2-.36,3-.56,0-3.51,0-7.02,0-10.53Zm.47-7.93c5.74-42.65,7.49-86.19,11.21-129.07-1.01-.18-2.01-.52-3.02-.52-84.7-.02-169.4-.02-254.09,0-1.01,0-2.02.33-3.03.5,3.08,43.07,6.51,86.17,11.21,129.1,1.02.15,2.04.44,3.06.44,77.21.02,154.41.02,231.62,0,1.02,0,2.04-.29,3.06-.44Z"/>
    <path class="cls-4" d="m349.07,47.73c3.52-6.11,8.61-11.06,13.45-16.18,2.05-2.17,4.87-6.36,7.54-7.68,2.22-1.09,4.32-.54,6.71-.74-.26,4.39-.11,5.56-3.14,8.88-2.96,3.23-5.98,6.41-9.04,9.55-4.66,4.79-9.78,13.37-15.52,6.17Z"/>
    <path class="cls-4" d="m77.79,51.81c-5.59-5.1-10.84-10.41-16-15.96-2.36-2.54-12.1-10.55-5.9-13.22,5.17-2.23,11.95,8.21,15.01,11.38,2.89,3,6.11,6,8.69,9.3,2.74,3.5,1.62,4.2.81,8.27l-2.6.23Z"/>
    <path class="cls-4" d="m364.3,71.29c1.11-1.76,1.85-4.57,3.39-5.12,9.5-3.39,19.14-6.42,28.85-9.15,1.57-.44,3.73,1.23,5.62,1.93-1.13,1.56-1.94,3.84-3.47,4.56-4.3,2.02-8.9,3.4-13.38,5.03-.96.07-1.97-.03-2.89.22-5.45,1.51-10.88,3.11-16.31,4.67,0,0,.05.06.05.06-.4-.36-.8-.72-1.2-1.08,0,0,.04.06.04.06-.23-.4-.47-.8-.7-1.19Z"/>
    <path class="cls-4" d="m32.29,63.76c-.8-1.57-1.61-3.15-2.41-4.72,1.78-.75,3.84-2.49,5.29-2.09,8.87,2.48,17.71,5.17,26.32,8.43,2.37.9,3.92,3.97,5.84,6.04-2.85.44-5.69.88-8.54,1.32-5.1-1.99-10.15-4.12-15.32-5.91-3.65-1.26-7.45-2.06-11.19-3.07Z"/>
    <path class="cls-5" d="m.82,353.26c7.76.15,15.52.4,23.29.42,19.19.06,38.39,0,57.58.06,1.04,0,2.07.5,3.11.77-9.46-.05-18.92-.09-28.38-.14-.71,0-1.41,0-2.12,0-.53,0-1.06,0-1.59,0-1.77,0-3.55,0-5.32,0-6.55,0-13.09,0-19.64,0-.53,0-1.06,0-1.58,0-1.24,0-2.48,0-3.72,0-.53,0-1.05,0-1.58,0-.71,0-1.42,0-2.13,0-.89,0-1.77,0-2.65,0-.53,0-1.06,0-1.6,0-1.06,0-2.12,0-3.18,0-2.49,0-4.97,0-7.46,0-.3-.02-.59-.04-.88-.06-.71-.35-1.42-.7-2.13-1.05Z"/>
    <path class="cls-5" d="m346.05,354.3c.63-.2,1.27-.58,1.9-.58,26.82,0,53.63.02,80.45.04-2.07.2-4.13.4-6.2.6-.34,0-.68,0-1.02,0-3.02,0-6.03,0-9.05,0-1.42,0-2.83,0-4.24,0-.71,0-1.42,0-2.14,0-.7,0-1.41,0-2.11,0-2.48,0-4.97,0-7.45,0-.53,0-1.05,0-1.58,0-3.72,0-7.44,0-11.16,0-.53,0-1.05,0-1.58,0-7.61,0-15.22,0-22.84,0-1.06,0-2.12,0-3.18,0-3.27-.02-6.54-.04-9.81-.06Z"/>
    <path class="cls-5" d="m427.84,346.78c-26.54.02-53.09.04-79.63.03-.72,0-1.43-.41-2.15-.63,26.18.03,52.35.04,78.53.1,1.09,0,2.17.33,3.26.5Z"/>
    <path class="cls-5" d="m83.75,346.33c-.66.17-1.32.49-1.97.49-25.57.03-51.14.03-76.72,0-.66,0-1.31-.31-1.97-.48,26.89,0,53.77,0,80.66,0Z"/>
    <path class="cls-5" d="m87.03,373.38c.63,4.54,1.53,9.07,1.84,13.63.47,6.93.52,13.9.75,20.85-.44-5.64-.88-11.27-1.3-16.91-.44-5.85-.86-11.71-1.29-17.57Z"/>
    <path class="cls-1" d="m62.32,251.3c2.22,2.24,4.33,23.82,2.13,26.07-.71-8.69-1.42-17.38-2.13-26.07Z"/>
    <path class="cls-5" d="m32.29,63.76c3.74,1.01,7.54,1.81,11.19,3.07,5.17,1.79,10.22,3.92,15.32,5.91-8.83-2.99-17.67-5.99-26.5-8.98Z"/>
    <path class="cls-5" d="m177.16,36.55c-6.42,2.36-12.82,4.74-19.25,7.06-1.71.62-3.48,1.05-5.22,1.56,8.16-2.87,16.31-5.75,24.47-8.62Z"/>
    <path class="cls-5" d="m62.1,146.58c-7.15-3.38-14.44-3.69-21.86-.98,7.48-4,14.77-3.79,21.86.98Z"/>
    <path class="cls-5" d="m71.37,313.93c2.55,7.06,5.1,14.12,7.65,21.18-2.55-7.06-5.1-14.12-7.65-21.18Z"/>
    <path class="cls-5" d="m366.12,73.44c5.43-1.57,10.86-3.16,16.31-4.67.91-.25,1.92-.16,2.89-.22-5.32,1.81-10.62,3.68-15.99,5.35-.93.29-2.13-.28-3.21-.45Z"/>
    <path class="cls-5" d="m364.64,279.99c.32-6.57.65-13.13.97-19.7-.32,6.57-.65,13.13-.97,19.7Z"/>
    <path class="cls-5" d="m84.78,146.56c-2,4.79-4,9.58-6,14.38,2-4.79,4-9.58,6-14.38Z"/>
    <path class="cls-5" d="m89.01,138.04c-1.43,2.86-2.85,5.71-4.28,8.57,1.43-2.86,2.85-5.71,4.28-8.57Z"/>
    <path class="cls-5" d="m366.76,259.29c3.03-1.08,6.06-2.16,9.09-3.24-3.03,1.08-6.06,2.16-9.09,3.24Z"/>
    <path class="cls-5" d="m152.75,45.11c-1.79.9-3.58,1.8-5.38,2.7,1.79-.9,3.58-1.8,5.38-2.7Z"/>
    <path class="cls-5" d="m222.89,410.47c3,0,5.99,0,8.99,0-3,0-5.99,0-8.99,0Z"/>
    <path class="cls-5" d="m0,348.44c.12,1.43.24,2.86.37,4.29-.12-1.43-.24-2.86-.37-4.29Z"/>
    <path class="cls-5" d="m281.29,410.47c2.11,0,4.22,0,6.33,0-2.11,0-4.22,0-6.33,0Z"/>
    <path class="cls-5" d="m378.99,254.53c1.26-.72,2.52-1.45,3.78-2.17-1.26.72-2.52,1.45-3.78,2.17Z"/>
    <path class="cls-5" d="m146.38,48.31c-1.26.72-2.53,1.44-3.79,2.16,1.26-.72,2.53-1.44,3.79-2.16Z"/>
    <path class="cls-5" d="m200.59,410.47c1.76,0,3.51,0,5.27,0-1.76,0-3.51,0-5.27,0Z"/>
    <path class="cls-5" d="m306.77,410.47c1.76,0,3.51,0,5.27,0-1.76,0-3.51,0-5.27,0Z"/>
    <path class="cls-4" d="m47.39,354.36c1.77,0,3.55,0,5.32,0-1.77,0-3.55,0-5.32,0Z"/>
    <path class="cls-5" d="m88.57,136.99c.4-.12.81-.24,1.21-.36-.28.5-.55.99-.83,1.49-.13-.37-.26-.75-.39-1.12Z"/>
    <path class="cls-5" d="m236.69,410.47c1.4,0,2.81,0,4.21,0-1.4,0-2.81,0-4.21,0Z"/>
    <path class="cls-5" d="m166.61,410.47c1.23,0,2.45,0,3.68,0-1.23,0-2.45,0-3.68,0Z"/>
    <path class="cls-5" d="m385.91,250.28c.72-.54,1.45-1.09,2.17-1.63-.72.54-1.45,1.09-2.17,1.63Z"/>
    <path class="cls-5" d="m113.52,410.47c1.23,0,2.45,0,3.68,0-1.23,0-2.45,0-3.68,0Z"/>
    <path class="cls-4" d="m407.9,354.35c1.41,0,2.83,0,4.24,0-1.41,0-2.83,0-4.24,0Z"/>
    <path class="cls-5" d="m318.45,410.47c1.05,0,2.1,0,3.15,0-1.05,0-2.1,0-3.15,0Z"/>
    <path class="cls-5" d="m179.88,36.18c-.7.04-1.4.08-2.1.13l2.1-.13Z"/>
    <path class="cls-5" d="m125.73,410.47c1.05,0,2.1,0,3.15,0-1.05,0-2.1,0-3.15,0Z"/>
    <path class="cls-4" d="m355.86,354.36c1.06,0,2.12,0,3.18,0-1.06,0-2.12,0-3.18,0Z"/>
    <path class="cls-5" d="m160.77,410.47c.87,0,1.74,0,2.61,0-.87,0-1.74,0-2.61,0Z"/>
    <path class="cls-5" d="m193.69,410.47c.87,0,1.74,0,2.61,0-.87,0-1.74,0-2.61,0Z"/>
    <path class="cls-5" d="m213.86,410.47c.87,0,1.74,0,2.62,0-.87,0-1.74,0-2.62,0Z"/>
    <path class="cls-5" d="m132.63,410.47c.87,0,1.74,0,2.61,0-.87,0-1.74,0-2.61,0Z"/>
    <path class="cls-5" d="m267.48,410.47c.87,0,1.74,0,2.62,0h-2.62Z"/>
    <path class="cls-4" d="m11.3,354.36c1.06,0,2.12,0,3.18,0-1.06,0-2.12,0-3.18,0Z"/>
    <path class="cls-4" d="m16.08,354.36c.88,0,1.77,0,2.65,0-.88,0-1.77,0-2.65,0Z"/>
    <path class="cls-5" d="m142.66,50.42c-.57.36-1.13.71-1.7,1.06.57-.36,1.13-.71,1.7-1.06Z"/>
    <path class="cls-5" d="m382.71,252.42c.55-.37,1.11-.74,1.66-1.11-.55.37-1.11.74-1.66,1.11Z"/>
    <path class="cls-5" d="m388.04,248.69c.39-.34.79-.69,1.18-1.03-.39.34-.79.69-1.18,1.03Z"/>
    <path class="cls-5" d="m143.78,410.47c.69,0,1.39,0,2.08,0-.69,0-1.39,0-2.08,0Z"/>
    <path class="cls-4" d="m403.65,354.36c.7,0,1.4,0,2.11,0-.7,0-1.41,0-2.11,0Z"/>
    <path class="cls-5" d="m155.46,410.47h1.55c-.52,0-1.04,0-1.55,0Z"/>
    <path class="cls-5" d="m364.3,71.29c.23.4.47.8.7,1.19-.23-.4-.47-.8-.7-1.19Z"/>
    <path class="cls-5" d="m364.97,72.42c.4.36.8.72,1.2,1.08-.4-.36-.8-.72-1.2-1.08Z"/>
    <path class="cls-5" d="m171.92,410.47c.52,0,1.04,0,1.56,0h-1.56Z"/>
    <path class="cls-5" d="m218.11,410.47c.52,0,1.04,0,1.56,0-.52,0-1.04,0-1.56,0Z"/>
    <path class="cls-5" d="m248.37,410.47c.52,0,1.04,0,1.56,0-.52,0-1.04,0-1.56,0Z"/>
    <path class="cls-5" d="m94.4,410.47c.52,0,1.04,0,1.56,0-.52,0-1.04,0-1.56,0Z"/>
    <path class="cls-4" d="m54.31,354.36c.71,0,1.41,0,2.12,0-.7,0-1.41,0-2.12,0Z"/>
    <path class="cls-5" d="m334.91,410.47c.52,0,1.03-.01,1.55-.02-.52,0-1.03.01-1.55.02Z"/>
    <path class="cls-5" d="m389.15,247.72c.25-.23.5-.46.75-.69-.25.23-.5.46-.75.69Z"/>
    <path class="cls-5" d="m384.89,250.92c.35-.23.71-.46,1.06-.69-.35.23-.71.46-1.06.69Z"/>
    <path class="cls-5" d="m365.7,259.81c.38-.19.75-.38,1.13-.56-.38.19-.75.38-1.13.56Z"/>
    <path class="cls-5" d="m377.92,255.07c.38-.2.75-.4,1.13-.59-.38.2-.75.4-1.13.59Z"/>
    <path class="cls-5" d="m376.86,255.59c.38-.19.76-.39,1.14-.58-.38.19-.76.39-1.14.58Z"/>
    <path class="cls-5" d="m375.79,256.1c.38-.19.76-.38,1.14-.56-.38.19-.76.38-1.14.56Z"/>
    <path class="cls-5" d="m251.55,410.47c.34,0,.68,0,1.03,0-.34,0-.68,0-1.03,0Z"/>
    <path class="cls-5" d="m428.99,347.25c-.38-.2-.76-.4-1.14-.61.38.2.76.4,1.14.61Z"/>
    <path class="cls-5" d="m291.37,410.47c.34,0,.68,0,1.03,0-.34,0-.68,0-1.03,0Z"/>
    <path class="cls-5" d="m327.48,410.47c.34,0,.68,0,1.02,0-.34,0-.68,0-1.02,0Z"/>
    <path class="cls-4" d="m20.86,354.37c.53,0,1.05,0,1.58,0-.53,0-1.05,0-1.58,0Z"/>
    <path class="cls-4" d="m26.17,354.37c.53,0,1.06,0,1.58,0-.53,0-1.06,0-1.58,0Z"/>
    <path class="cls-4" d="m381.89,354.37c.53,0,1.05,0,1.58,0-.53,0-1.05,0-1.58,0Z"/>
    <path class="cls-4" d="m394.63,354.37c.52,0,1.05,0,1.58,0-.52,0-1.05,0-1.58,0Z"/>
    <path class="cls-5" d="m147.44,47.76c-.37.2-.75.41-1.12.61.37-.2.75-.41,1.12-.61Z"/>
    <path class="cls-5" d="m98.12,410.47c.34,0,.68,0,1.02,0-.34,0-.68,0-1.02,0Z"/>
    <path class="cls-5" d="m384.31,251.36c.22-.19.43-.38.65-.57-.22.19-.43.38-.65.57Z"/>
    <path class="cls-5" d="m429.67,347.83c-.26-.2-.52-.41-.79-.61.26.2.52.41.79.61Z"/>
    <path class="cls-5" d="m.32,352.68c.19.21.38.42.57.63-.19-.21-.38-.42-.57-.63Z"/>
    <path class="cls-5" d="m428.41,353.85c.14-.07.29-.13.43-.2-.11.13-.26.2-.43.2Z"/>
    <path class="cls-4" d="m2.95,354.3c.29.02.59.04.88.06-.29-.02-.59-.04-.88-.06Z"/>
    <path class="cls-4" d="m421.19,354.36c.34,0,.68,0,1.02,0-.34,0-.68,0-1.02,0Z"/>
    <path class="cls-5" d="m244.65,410.47c.17,0,.33,0,.5,0,0,0-.25.05-.25.05l-.25-.05Z"/>
    <path class="cls-5" d="m140.99,51.41c-.02.14-.05.28-.07.43-.11-.07-.22-.15-.33-.22.11-.12.25-.18.41-.2Z"/>
    <path class="cls-5" d="m63.06,147.18c-.11.07-.23.14-.34.21,0-.15-.01-.29-.02-.44.16.02.28.09.36.23Z"/>
    <path class="cls-5" d="m301.99,410.47h.5s-.25.05-.25.05c0,0-.25-.05-.25-.05Z"/>
    <path class="cls-5" d="m62.7,147.08c-.22-.18-.44-.37-.66-.55.22.18.44.37.66.55Z"/>
    <path class="cls-5" d="m316.86,410.47c.17,0,.33,0,.5,0,0,0-.25.05-.25.05l-.25-.05Z"/>
    <path class="cls-5" d="m180.94,410.47c.17,0,.33,0,.5,0,0,0-.25.05-.25.05,0,0-.25-.05-.25-.05Z"/>
    <path class="cls-3" d="m345.51,254.97c-3.72,42.89-5.47,86.43-11.21,129.07-79.24,0-158.49,0-237.73,0-4.7-42.93-8.13-86.02-11.21-129.1,86.72,0,173.43.01,260.15.02Zm-109.36,65.29c.11-27.35-41.67-27.93-41.93-.64-.25,27.04,41.83,27.71,41.93.64Z"/>
    <path class="cls-2" d="m70.95,230.58c3.15-18.77,5.5-37.57,11.28-55.78,4.61-14.53,11.02-35.27,23.29-44.93,2.27,8.03,5.58,28.09,17.43,25.11,6.43-1.61,12.87-7.11,18.53-10.47,6.53-3.87,13.09-7.72,19.66-11.53,7.69-4.46,8.81-2.37,14.27,4.13,3.6,4.29,8.17,13.1,13.38,15.38,5.51,2.41,12.42-4.23,16.77-6.91,6.38-3.92,12.78-7.82,19.19-11.7,2.2-1.33,6.1-4.91,8.82-4.53,2.72.38,5.46,4.9,7.2,6.81,4.58,5.01,9.12,12.32,14.63,16.25,5.57,3.97,11.27-.74,16.41-3.38,6.8-3.49,13.61-6.96,20.34-10.58,4.27-2.3,9.69-6.57,14.77-4.13,4.93,2.37,8.73,9.9,12.38,13.9,3.5,3.84,8.28,11.86,14.34,10.5,4.99-1.12,9.43-7.63,13.35-10.72,2.99,7.95,3.27,17.4,4.52,25.8,1.29,8.62,2.29,17.35,4.04,25.9.58,8.67,1.16,17.34,1.74,26.02.05,1.41.19,2.82.13,4.23-.89,22.12-1.81,44.25-2.71,66.37-.58,2.32-4.96,22.47-6.12,22.25.4-6.52.8-13.03,1.2-19.55,0,0,0,0,0,0,.13-.52.27-1.04.4-1.56.35-5.7.7-11.41,1.06-17.11.58-5.21,1.44-10.41,1.66-15.63.21-4.87-.27-9.76-.44-14.65,0,0,.04.05.04.05-.2-.19-.4-.38-.6-.57,0,0,.05.03.05.03-.19-.19-.39-.38-.58-.57,0,0,.04.04.04.04-.19-.2-.38-.39-.57-.59,0,0,.02.07.02.07-.23-.22-.47-.44-.7-.66-.68-.28-1.36-.57-2.04-.85-1.41-.07-2.82-.19-4.23-.19-35.77-.01-71.54-.01-107.31-.02l-.18-.15-.18.16c-.6,0-1.19,0-1.79,0-1.7,0-3.4.02-5.1.02-3.61,0-7.21,0-10.82,0-1.17,0-2.34,0-3.51,0-4.32-.02-8.64-.03-12.96-.05-.28,0-.57,0-.85,0-39.35,0-78.71-.02-118.06-.03-.29.03-.59.07-.88.1-.18.06-.36.13-.54.19-5.88,2.13-5.19,6.92-4.71,11.62.16,1.56.31,3.12.47,4.67.03.39.07.78.1,1.17.26,3.18.51,6.37.77,9.55.06.35.13.7.19,1.05.12,1.6.23,3.19.35,4.79.07.53.14,1.06.21,1.59.29,2.83.58,5.65.87,8.48.06,1.24.12,2.49.17,3.73.63,8.44,1.26,16.88,1.89,25.32-.28-.15-.56-.3-.84-.45-.55-1.68-1.09-3.36-1.64-5.04-1.64-7.53-3.28-15.05-4.92-22.58-1.02-6.19-2.03-12.39-3.05-18.59-.04-.18-.07-.36-.11-.53,0-.33,0-.67,0-1-.2-4.8-.39-9.6-.59-14.4.02-5.99.03-11.98.05-17.97.01-.73.02-1.46.04-2.19,0-1.92-.02-3.84-.03-5.76Zm167.33-36.73l.03.02c-.36-.19-.73-.38-1.09-.58l.04.04c-.37-.19-.74-.38-1.11-.57l.04.04c-.55-.2-1.09-.4-1.64-.6l.03.06c-9.91-.5-19.82-1-29.73-1.5-13,.93-18.15,9.23-13.1,21.11.15.36.06.95-.14,1.3-4.95,8.94-1.98,17.85,8.28,19.68,9.99,1.78,20.52,1.65,30.7.88,11.99-.91,18.16-12.1,11.78-20.8-.22-.3.13-1.21.44-1.69,3.76-5.65,2.13-13.06-3.74-16.85-.27-.18-.53-.36-.8-.54Zm-87.65-15.95c-.11,14.64,19.02,13.29,18.21-.91-.8-14.05-18.11-13.17-18.21.91Zm126.9-.15c.82-14.24-19.37-13.73-17.81,1.17.61,5.81,5.12,10.98,11.36,9.59,5.18-1.15,6.18-6.06,6.45-10.76Z"/>
    <path class="cls-6" d="m293.45,59.16c17.2,11.61,29.44,27.46,39.05,45.58.43.89.87,1.79,1.3,2.68,0,0-.04-.06-.04-.06.19.37.38.75.57,1.12,0,0-.05-.05-.05-.05.19.38.38.75.57,1.13,0,0-.06-.06-.06-.06,2.71,7.24,5.42,14.48,8.12,21.72.6,2.64,2.6,6.42,1.54,7.72-3.35,4.12-7.83,7.32-11.95,10.78-.16.13-1.24-.61-1.71-1.11-6.24-6.68-12.44-13.38-18.66-20.08-.32-.58-.65-1.15-.97-1.73,0,0,.03.08.03.08-.35-.39-.7-.78-1.05-1.16,0,0-.02.07-.03.07-.21-.18-.42-.36-.62-.54l.16-.06s-.03-.17-.03-.17c-1.87-.27-3.74-.55-5.62-.82,0,0-.08-.11-.08-.11-.51.24-1.01.49-1.52.73,0,0,.06-.05.06-.05-.38.19-.76.39-1.13.58,0,0,.07-.06.07-.06-.38.2-.76.39-1.13.59,0,0,.07-.06.07-.06-.38.2-.76.39-1.14.59,0,0,.07-.06.07-.06-.38.2-.76.39-1.14.59,0,0,.06-.06.06-.06-.73.37-1.46.75-2.18,1.12,0,0,.07-.05.07-.05-.38.2-.76.39-1.14.59,0,0,.07-.06.07-.06-.38.2-.75.4-1.13.6,0,0,.07-.06.07-.06-.38.19-.76.39-1.14.58,0,0,.07-.06.07-.06-.38.2-.75.4-1.13.59,0,0,.07-.06.07-.06-.38.2-.76.39-1.14.59,0,0,.08-.06.07-.06-.38.2-.76.4-1.13.6,0,0,.07-.06.07-.06-.38.2-.75.4-1.13.59,0,0,.07-.06.07-.06-.38.2-.75.4-1.13.6,0,0,.07-.05.06-.05-.38.19-.75.39-1.13.58,0,0,.07-.05.07-.05-.38.2-.75.39-1.13.59,0,0,.07-.05.07-.05-.38.2-.75.39-1.13.59,0,0,.07-.05.07-.05-.38.19-.75.39-1.13.58,0,0,.06-.05.06-.05-.37.2-.75.39-1.12.59,0,0,.06-.05.06-.05-.37.19-.75.39-1.12.58,0,0,.06-.05.06-.05-.37.19-.75.38-1.12.57,0,0,.06-.05.06-.05-.37.19-.74.39-1.12.58,0,0,.05-.04.05-.04-.72.37-1.45.74-2.17,1.1,0,0,.05-.04.05-.04-.37.19-.75.38-1.12.57,0,0,.05-.04.05-.04-1.28.68-2.55,1.37-3.83,2.05,0,0,.05-.06.05-.06-.52.24-1.04.48-1.56.72,0,0,.04-.03.04-.03-.72.36-1.45.72-2.17,1.08,0,0,.05-.03.05-.03-1.43.72-2.86,1.44-4.29,2.15,0,0,.05-.03.05-.03-.23.16-.45.32-.68.48,0,0,.07-.1.07-.1-1.19.39-2.38.78-3.57,1.16,0,0,.04.06.04.06-.7-.75-1.4-1.51-2.1-2.26,0,0,.1.08.09.08-.24-.34-.49-.68-.73-1.02-.31-.34-.62-.69-.94-1.03-.21-.2-.43-.41-.64-.61,0,0,.11.07.11.07-.2-.21-.41-.42-.61-.63,0,0,.1.09.1.09-.2-.21-.41-.42-.61-.64,0,0,.1.08.1.08-.2-.21-.41-.42-.61-.63,0,0,.13.02.13.03-.25-.3-.49-.61-.74-.91-5.26-5.88-10.31-11.98-15.96-17.46-1.25-1.21-5.16-1.14-6.94-.1-12.46,7.32-24.66,15.07-37.03,22.56-.72.43-2.58.12-3.14-.52-5.86-6.7-11.66-13.45-17.26-20.37-3-3.7-5.86-2.73-9.22-.71-12.68,7.64-25.6,14.89-38.06,22.88-5.71,3.66-8.23,2.53-9.48-3.65-1.71-6.58-3.42-13.16-5.13-19.75,0,0,.05.07.05.07-.2-.21-.41-.42-.61-.63,0,0,.07.05.07.05-.39-.17-.79-.34-1.18-.51,0,0,.07.07.07.07-.19-.14-.38-.28-.58-.42-6.25,2.9-12.5,5.81-18.77,8.69-.77.35-1.62.51-2.44.76,0-.16,0-.32.04-.48,0,0-.05.05-.05.05,1.62-3.56,3.24-7.11,4.85-10.67,0,0-.06.06-.06.06.2-.38.4-.76.59-1.13,0,0-.07.07-.07.07.2-.38.39-.76.59-1.14,0,0-.06.07-.06.07.2-.38.39-.76.59-1.13,0,0-.06.07-.06.07.2-.38.4-.75.61-1.13,0,0-.06.08-.06.08.89-1.62,1.77-3.24,2.66-4.86,0,0-.04.05-.04.05.21-.37.42-.74.63-1.1,0,0-.06.08-.06.08.22-.37.43-.74.65-1.11,0,0-.07.09-.07.09.35-.57.7-1.14,1.05-1.71,9.12-11.7,16.8-24.25,28.26-33.91,11.78-9.93,25.59-18,39.99-23.48,29.38-11.17,62.9-11.22,93.07-3.22,6.36,2.35,12.71,4.7,19.07,7.05,0,0-.06-.06-.06-.06.38.19.76.38,1.13.57,0,0-.06-.05-.06-.05.73.37,1.45.74,2.18,1.11,0,0-.06-.05-.06-.05.37.2.74.4,1.12.6,0,0-.07-.06-.07-.06.38.2.75.41,1.13.61,0,0-.08-.06-.08-.06,1.26.72,2.52,1.45,3.79,2.17,0,0-.07-.05-.07-.05.56.35,1.11.71,1.67,1.06,0,0-.04-.03-.04-.03.36.21.73.43,1.09.64,0,0-.08-.06-.08-.06.56.37,1.12.74,1.68,1.1Z"/>
    <path class="cls-2" d="m365.06,228.46c-.35-6.94-.71-13.87-1.06-20.81-1.29-11.46-2.58-22.93-3.86-34.39.07-.39.13-.77.2-1.16.06-.33.13-.65.19-.98,0,0-.09.01-.09.01.2-.36.4-.73.6-1.09,4.32-9.62,12.51-30.65,24.72-15.3,4.54,5.71,3.15,15.06,2.75,21.87-.32,5.55-3.26,13.38,1.84,16.99,2.08,1.48,4.32,1.53,6.05,3.8,2.13,2.81,2.25,6.44,2.47,9.85.48,7.47.42,14.27-3.56,20.76-5.47,8.93-17.47,23-29.2,22.66-.35-7.41-.7-14.81-1.04-22.22Z"/>
    <path class="cls-3" d="m96.51,402.5c.18-3.52.35-7.03.53-10.55,78.93,0,157.87.02,236.8.03,0,3.51,0,7.02,0,10.53-79.11,0-158.22,0-237.33-.01Z"/>
    <path class="cls-2" d="m62.56,242.2c-10.12-7.93-22.58-14.5-29.44-25.82-2.49-4.1-3.06-7.95-1.02-12.35,2.46-5.3,8.68-8.78,7.87-15.13-.84-6.56-4.59-11.98-4.39-18.96.15-5.4,1.83-11.49,5.92-15.28,11.27-10.43,20.6,2.5,26.24,11.39.54,1.16,1.09,2.33,1.64,3.49,0,0-.03-.04-.03-.04.19.37.38.74.56,1.1,0,0,0-.05,0-.05.89,2.14,1.77,4.28,2.66,6.41,0,0,.02-.05.02-.05-1.33,5.82-2.66,11.64-3.99,17.46-.04.21-.09.42-.13.63-.08.59-.16,1.18-.24,1.77,0,0,.14.02.14.02-.23.79-.47,1.58-.7,2.38-.09.38-.18.76-.27,1.14-.29,1.56-.59,3.12-.88,4.68-.06.39-.12.78-.18,1.17-1.2,10.95-2.4,21.9-3.6,32.85-.01.19-.02.38-.03.58-.04.87-.08,1.74-.13,2.61Z"/>
    <path class="cls-2" d="m215.76,10.2c2.29-4.11,5.67-3.65,9.12-1.97,7,3.41,12.64,15.12,10.45,22.62-.24.83-4.36.52-6.68.74-1.06-.05-2.11-.16-3.17-.14-8.13.19-16.25.41-24.38.62,0,0-.02-.12-.02-.12.07-.33.15-.66.22-.99,1.69-4.81,5.27-5,9.4-3.85,1.41-.14,2.83-.28,4.24-.43,0,0,0,.06,0,.06.37-.19.74-.39,1.11-.58,0,0-.06.02-.06.02.19-.2.38-.39.57-.59,0,0-.02.03-.02.03.2-.36.4-.73.6-1.09,0,0-.07.02-.07.02.15-1.07.53-2.17.4-3.21-.47-3.73-1.12-7.44-1.7-11.16Z"/>
    <path class="cls-5" d="m236.59,246.86c35.77,0,71.54,0,107.31.02,1.41,0,2.82.12,4.23.19-.93.15-1.86.44-2.79.44-86.94.02-173.88.02-260.81,0-.93,0-1.87-.27-2.8-.41.18-.06.36-.13.54-.19.29-.03.59-.07.88-.1,39.35,0,78.71.02,118.06.03.28,0,.57,0,.86,0,4.32.02,8.64.03,12.96.05,1.17,0,2.34,0,3.51,0,3.61,0,7.21,0,10.81,0,1.7,0,3.4-.02,5.1-.02.6,0,1.19,0,1.79,0,0,0,.18.06.18.06l.18-.06Z"/>
    <path class="cls-1" d="m345.51,254.97c-86.72,0-173.43-.01-260.15-.02,1.01-.17,2.02-.5,3.03-.5,84.7-.02,169.4-.02,254.09,0,1.01,0,2.01.34,3.02.52Z"/>
    <path class="cls-1" d="m96.57,384.05c79.24,0,158.49,0,237.73,0-1.02.15-2.04.44-3.06.44-77.21.02-154.41.02-231.62,0-1.02,0-2.04-.29-3.06-.44Z"/>
    <path class="cls-1" d="m96.51,402.5c79.11,0,158.22,0,237.33.01-1,.19-2,.56-3,.56-77.11.03-154.22.03-231.33,0-1,0-2-.37-2.99-.57Z"/>
    <path class="cls-1" d="m333.83,391.98c-78.93,0-157.87-.02-236.8-.03,1.01-.18,2.02-.51,3.03-.51,76.92-.02,153.84-.02,230.76,0,1,0,2.01.35,3.01.54Z"/>
    <path class="cls-1" d="m354.71,296.34c.91-22.12,1.82-44.25,2.71-66.37.06-1.4-.08-2.82-.13-4.23.15,0,.3.01.44.01.97,12.68,1.64,24.98.99,37.71-.49,9.64.52,24.25-4.02,32.88Z"/>
    <path class="cls-5" d="m62.56,242.2c.04-.87.08-1.74.13-2.61.06-.06.17-.12.16-.17-.02-.14-.08-.27-.13-.41,1.2-10.95,2.4-21.9,3.6-32.85-.6,6.66-1.25,13.31-1.76,19.98-.38,4.97.43,11.68-1.99,16.07Z"/>
    <path class="cls-5" d="m360.14,173.26c1.29,11.46,2.58,22.93,3.86,34.39-.99-6.29-1.97-12.57-2.77-18.88-.45-3.55-3.21-12.68-1.1-15.51Z"/>
    <path class="cls-5" d="m352.46,250.1c.17,4.88.65,9.78.44,14.65-.22,5.22-1.08,10.42-1.66,15.63.43-6.69.94-13.38,1.26-20.08.16-3.39-.01-6.8-.04-10.2Z"/>
    <path class="cls-5" d="m357.73,225.75c-.15,0-.3,0-.44-.01-.58-8.67-1.16-17.34-1.74-26.02.73,8.68,1.46,17.35,2.19,26.03Z"/>
    <path class="cls-5" d="m82.04,319.09c-.63-8.44-1.26-16.88-1.89-25.32.42,3.04,1.02,6.06,1.22,9.11.35,5.39.46,10.8.67,16.21Z"/>
    <path class="cls-5" d="m342.92,131.23c-2.71-7.24-5.42-14.48-8.12-21.72,2.71,7.24,5.42,14.48,8.12,21.72Z"/>
    <path class="cls-5" d="m201.1,32.07c8.13-.21,16.25-.43,24.38-.62,1.05-.02,2.11.09,3.17.14-7.91.88-20.07,3.2-27.55.48Z"/>
    <path class="cls-1" d="m365.06,228.46c.35,7.41.7,14.81,1.04,22.22-.32-1.24-.88-2.47-.91-3.71-.12-6.17-.1-12.34-.13-18.5Z"/>
    <path class="cls-5" d="m70.94,238.53c-.02,5.99-.03,11.98-.05,17.97-.3-4.76-.69-9.51-.86-14.27-.04-1.22.59-2.47.91-3.7Z"/>
    <path class="cls-5" d="m280.18,51.71c-6.36-2.35-12.71-4.7-19.07-7.05,4.43,1.26,8.91,2.36,13.27,3.84,2.06.7,3.88,2.12,5.8,3.22Z"/>
    <path class="cls-5" d="m111.46,121.04c1.71,6.58,3.42,13.16,5.13,19.75-1.38-4.78-2.81-9.56-4.12-14.36-.48-1.76-.68-3.59-1.01-5.39Z"/>
    <path class="cls-5" d="m71.58,272.43c1.02,6.2,2.03,12.39,3.05,18.59-1.02-6.2-2.03-12.39-3.05-18.59Z"/>
    <path class="cls-5" d="m349.79,299.04c-.4,6.52-.8,13.03-1.2,19.55.4-6.52.8-13.03,1.2-19.55Z"/>
    <path class="cls-5" d="m68.58,194.38c1.33-5.82,2.66-11.64,3.99-17.46-1.33,5.82-2.66,11.64-3.99,17.46Z"/>
    <path class="cls-5" d="m215.76,10.2c.58,3.72,1.23,7.43,1.7,11.16.13,1.04-.25,2.14-.4,3.21-.72-3.77-1.53-7.52-2.1-11.32-.14-.96.51-2.03.8-3.05Z"/>
    <path class="cls-5" d="m92.92,118.02c-1.62,3.55-3.24,7.11-4.85,10.67,1.62-3.55,3.24-7.11,4.85-10.67Z"/>
    <path class="cls-5" d="m78.35,274.13c-.26-3.18-.51-6.37-.77-9.55.26,3.19.51,6.37.77,9.55Z"/>
    <path class="cls-5" d="m79.97,290.03c-.29-2.83-.58-5.65-.87-8.48.29,2.83.58,5.65.87,8.48Z"/>
    <path class="cls-5" d="m72.55,176.97c-.89-2.14-1.77-4.28-2.66-6.41.89,2.14,1.77,4.28,2.66,6.41Z"/>
    <path class="cls-5" d="m78.89,279.96c-.12-1.6-.23-3.19-.35-4.79.12,1.6.23,3.19.35,4.79Z"/>
    <path class="cls-5" d="m304.01,124.2c1.87.28,3.74.55,5.62.82-1.87-.28-3.74-.55-5.62-.82Z"/>
    <path class="cls-5" d="m97.64,108.97c-.89,1.62-1.77,3.24-2.66,4.86.89-1.62,1.77-3.24,2.66-4.86Z"/>
    <path class="cls-5" d="m66.49,204.99c.29-1.56.59-3.12.88-4.68-.29,1.56-.59,3.12-.88,4.68Z"/>
    <path class="cls-5" d="m77.48,263.4c-.16-1.56-.31-3.12-.47-4.67.16,1.56.31,3.12.47,4.67Z"/>
    <path class="cls-5" d="m79.55,313.59c.55,1.68,1.09,3.36,1.64,5.04-.55-1.68-1.09-3.36-1.64-5.04Z"/>
    <path class="cls-5" d="m264.21,143.96c1.43-.72,2.86-1.44,4.29-2.15-1.43.72-2.86,1.44-4.29,2.15Z"/>
    <path class="cls-5" d="m214.94,26.69c-1.41.14-2.83.28-4.24.43,1.41-.14,2.83-.28,4.24-.43Z"/>
    <path class="cls-5" d="m70.95,230.58c0,1.92.02,3.84.03,5.76,0-1.92-.02-3.84-.03-5.76Z"/>
    <path class="cls-5" d="m260.09,145.48c1.19-.39,2.38-.78,3.57-1.16-1.19.39-2.38.78-3.57,1.16Z"/>
    <path class="cls-5" d="m289.2,56.5c-1.26-.72-2.52-1.45-3.79-2.17,1.26.72,2.52,1.45,3.79,2.17Z"/>
    <path class="cls-5" d="m272.11,140.12c1.28-.68,2.55-1.37,3.83-2.05-1.28.68-2.55,1.37-3.83,2.05Z"/>
    <path class="cls-5" d="m69.37,169.54c-.55-1.16-1.09-2.32-1.64-3.49.55,1.16,1.09,2.33,1.64,3.49Z"/>
    <path class="cls-5" d="m258.03,143.27c.7.75,1.4,1.51,2.1,2.26-.7-.75-1.4-1.51-2.1-2.26Z"/>
    <path class="cls-5" d="m333.8,107.42c-.43-.89-.87-1.79-1.3-2.68.43.89.87,1.79,1.3,2.68Z"/>
    <path class="cls-5" d="m311.17,126.81c.32.58.65,1.15.97,1.73-.32-.58-.65-1.15-.97-1.73Z"/>
    <path class="cls-5" d="m296.04,128c.73-.37,1.46-.75,2.18-1.12-.73.37-1.46.75-2.18,1.12Z"/>
    <path class="cls-5" d="m276.95,137.59c.72-.37,1.45-.74,2.17-1.1-.72.37-1.45.74-2.17,1.1Z"/>
    <path class="cls-5" d="m290.79,57.51c-.55-.35-1.11-.71-1.67-1.06.55.35,1.11.71,1.67,1.06Z"/>
    <path class="cls-5" d="m283.37,53.28c-.73-.37-1.45-.74-2.18-1.11.73.37,1.45.74,2.18,1.11Z"/>
    <path class="cls-5" d="m268.46,141.84c.72-.36,1.45-.72,2.17-1.08-.72.36-1.45.72-2.17,1.08Z"/>
    <path class="cls-5" d="m99.8,105.26c-.35.57-.7,1.14-1.05,1.71.35-.57.7-1.14,1.05-1.71Z"/>
    <path class="cls-5" d="m67.64,199.16c.23-.79.47-1.58.7-2.38-.23.79-.47,1.58-.7,2.38Z"/>
    <path class="cls-5" d="m293.45,59.16c-.56-.37-1.12-.74-1.68-1.1.56.37,1.12.74,1.68,1.1Z"/>
    <path class="cls-5" d="m302.42,124.83c.51-.24,1.01-.49,1.52-.73-.51.24-1.01.49-1.52.73Z"/>
    <path class="cls-5" d="m310.15,125.72c.35.39.7.78,1.05,1.16-.35-.39-.7-.78-1.05-1.16Z"/>
    <path class="cls-5" d="m253.67,138.14c.25.3.49.61.74.91-.25-.3-.49-.61-.74-.91Z"/>
    <path class="cls-5" d="m270.59,140.78c.52-.24,1.04-.48,1.56-.72-.52.24-1.04.48-1.56.72Z"/>
    <path class="cls-5" d="m68.2,196.77c.08-.59.16-1.18.24-1.77-.08.59-.16,1.18-.24,1.77Z"/>
    <path class="cls-5" d="m350.19,297.49c-.14.52-.27,1.04-.4,1.56.14-.52.27-1.04.4-1.56Z"/>
    <path class="cls-5" d="m280.13,135.99c.37-.19.75-.38,1.12-.57-.37.19-.75.38-1.12.57Z"/>
    <path class="cls-5" d="m281.19,135.46c.37-.19.75-.39,1.12-.58-.37.19-.75.39-1.12.58Z"/>
    <path class="cls-5" d="m282.25,134.93c.37-.2.75-.39,1.12-.59-.37.2-.75.39-1.12.59Z"/>
    <path class="cls-5" d="m201.3,30.96c-.07.33-.15.66-.22.99.07-.33.15-.66.22-.99Z"/>
    <path class="cls-5" d="m216.05,26.17c-.37.19-.74.39-1.11.58.37-.19.74-.39,1.11-.58Z"/>
    <path class="cls-5" d="m283.31,134.39c.38-.19.75-.39,1.13-.58-.38.19-.75.39-1.13.58Z"/>
    <path class="cls-5" d="m217.13,24.55c-.2.36-.4.73-.6,1.09.2-.36.4-.73.6-1.09Z"/>
    <path class="cls-5" d="m361.03,170.04c-.2.36-.4.73-.6,1.09.2-.36.4-.73.6-1.09Z"/>
    <path class="cls-5" d="m284.37,133.86c.38-.2.75-.39,1.13-.59-.38.2-.75.39-1.13.59Z"/>
    <path class="cls-5" d="m285.43,133.33c.38-.2.75-.39,1.13-.59-.38.2-.75.39-1.13.59Z"/>
    <path class="cls-5" d="m286.49,132.79c.38-.19.75-.39,1.13-.58-.38.19-.75.39-1.13.58Z"/>
    <path class="cls-5" d="m287.55,132.27c.38-.2.75-.4,1.13-.6-.37.2-.75.4-1.13.6Z"/>
    <path class="cls-5" d="m288.61,131.73c.38-.2.75-.4,1.13-.59-.38.2-.75.4-1.13.59Z"/>
    <path class="cls-5" d="m289.67,131.19c.38-.2.76-.4,1.13-.6-.38.2-.76.4-1.13.6Z"/>
    <path class="cls-5" d="m290.72,130.66c.38-.2.76-.39,1.14-.59-.38.2-.76.39-1.14.59Z"/>
    <path class="cls-5" d="m291.79,130.13c.38-.2.75-.4,1.13-.59-.38.2-.75.4-1.13.59Z"/>
    <path class="cls-5" d="m69.9,170.6c-.19-.37-.38-.74-.56-1.1.19.37.38.74.56,1.1Z"/>
    <path class="cls-5" d="m292.85,129.6c.38-.19.76-.39,1.14-.58-.38.19-.76.39-1.14.58Z"/>
    <path class="cls-5" d="m293.92,129.08c.38-.2.75-.4,1.13-.6-.38.2-.75.4-1.13.6Z"/>
    <path class="cls-5" d="m71.48,270.9c0,.33,0,.67,0,1,0-.33,0-.67,0-1Z"/>
    <path class="cls-5" d="m257.39,142.33c.24.34.49.68.73,1.02-.24-.34-.49-.68-.73-1.02Z"/>
    <path class="cls-5" d="m294.97,128.54c.38-.2.76-.39,1.14-.59-.38.2-.76.39-1.14.59Z"/>
    <path class="cls-5" d="m298.16,126.94c.38-.2.76-.39,1.14-.59-.38.2-.76.39-1.14.59Z"/>
    <path class="cls-5" d="m299.22,126.41c.38-.2.76-.39,1.14-.59-.38.2-.76.39-1.14.59Z"/>
    <path class="cls-5" d="m300.29,125.89c.38-.2.76-.39,1.13-.59-.38.2-.76.39-1.13.59Z"/>
    <path class="cls-5" d="m301.35,125.36c.38-.19.76-.39,1.13-.58-.38.19-.76.39-1.13.58Z"/>
    <path class="cls-5" d="m95.05,113.76c-.2.38-.4.75-.61,1.13.2-.38.4-.75.61-1.13Z"/>
    <path class="cls-5" d="m109.79,120.01c.39.17.79.34,1.18.51-.39-.17-.79-.34-1.18-.51Z"/>
    <path class="cls-5" d="m93.45,116.94c-.2.38-.4.76-.59,1.13.2-.38.4-.76.59-1.13Z"/>
    <path class="cls-5" d="m275.89,138.12c.37-.19.75-.38,1.12-.57-.37.19-.75.38-1.12.57Z"/>
    <path class="cls-5" d="m93.97,115.88c-.2.38-.39.76-.59,1.14.2-.38.39-.76.59-1.14Z"/>
    <path class="cls-5" d="m279.07,136.53c.37-.19.74-.39,1.12-.58-.37.19-.74.39-1.12.58Z"/>
    <path class="cls-5" d="m94.5,114.81c-.2.38-.4.76-.59,1.13.2-.38.39-.76.59-1.13Z"/>
    <path class="cls-5" d="m291.85,58.12c-.36-.21-.73-.43-1.09-.64.36.21.73.43,1.09.64Z"/>
    <path class="cls-5" d="m334.85,109.57c-.19-.38-.38-.75-.57-1.13.19.38.38.75.57,1.13Z"/>
    <path class="cls-5" d="m98.23,107.92c-.21.37-.42.74-.63,1.1.21-.37.42-.74.63-1.1Z"/>
    <path class="cls-5" d="m334.33,108.49c-.19-.37-.38-.75-.57-1.12.19.37.38.75.57,1.12Z"/>
    <path class="cls-5" d="m98.82,106.88c-.22.37-.43.74-.65,1.11.22-.37.43-.74.65-1.11Z"/>
    <path class="cls-5" d="m360.52,171.12c-.06.33-.13.65-.19.98.06-.33.13-.65.19-.98Z"/>
    <path class="cls-5" d="m285.48,54.39c-.38-.2-.75-.41-1.13-.61.38.2.75.41,1.13.61Z"/>
    <path class="cls-5" d="m284.43,53.84c-.37-.2-.74-.4-1.12-.6.37.2.74.4,1.12.6Z"/>
    <path class="cls-5" d="m281.25,52.22c-.38-.19-.76-.38-1.13-.57.38.19.76.38,1.13.57Z"/>
    <path class="cls-5" d="m350.16,247.92c.23.22.47.44.7.66-.23-.22-.47-.44-.7-.66Z"/>
    <path class="cls-5" d="m350.85,248.5c.19.2.38.39.57.59-.19-.2-.38-.39-.57-.59Z"/>
    <path class="cls-5" d="m351.38,249.05c.19.19.39.38.58.57-.19-.19-.39-.38-.58-.57Z"/>
    <path class="cls-5" d="m351.9,249.59c.2.19.4.38.6.57-.2-.19-.4-.38-.6-.57Z"/>
    <path class="cls-5" d="m88.12,128.63c-.04.16-.05.32-.04.48.01-.16.03-.32.04-.48Z"/>
    <path class="cls-5" d="m309.5,125.25c.21.18.42.36.62.54-.21-.18-.42-.36-.62-.54Z"/>
    <path class="cls-5" d="m110.9,120.48c.2.21.41.42.61.63-.2-.21-.41-.42-.61-.63Z"/>
    <path class="cls-5" d="m109.28,119.66c.19.14.38.28.58.42-.19-.14-.38-.28-.58-.42Z"/>
    <path class="cls-5" d="m255.82,140.69c.21.2.43.41.64.61-.21-.2-.43-.41-.64-.61Z"/>
    <path class="cls-5" d="m216.55,25.61c-.19.2-.38.39-.57.59.19-.2.38-.39.57-.59Z"/>
    <path class="cls-5" d="m254.8,139.58c.2.21.41.42.61.64-.2-.21-.41-.42-.61-.64Z"/>
    <path class="cls-5" d="m254.29,139.03c.2.21.41.42.61.63-.2-.21-.41-.42-.61-.63Z"/>
    <path class="cls-5" d="m255.31,140.13c.2.21.41.42.61.63-.2-.21-.41-.42-.61-.63Z"/>
    <path class="cls-5" d="m263.58,144.41c.23-.16.45-.32.68-.48-.23.16-.45.32-.68.48Z"/>
    <path class="cls-7" d="m236.15,320.26c-.1,27.08-42.18,26.41-41.93-.64.26-27.3,42.04-26.72,41.93.64Z"/>
    <path class="cls-4" d="m239.07,194.4c5.87,3.79,7.5,11.21,3.74,16.85-.32.47-.66,1.39-.44,1.69,6.38,8.7.22,19.9-11.78,20.8-10.18.77-20.72.9-30.7-.88-10.26-1.83-13.23-10.74-8.28-19.68.2-.36.29-.95.14-1.3-5.04-11.87.1-20.18,13.1-21.11,9.91.5,19.82,1,29.73,1.5,0,0-.03-.06-.03-.06.55.2,1.09.4,1.64.6,0,0-.04-.04-.04-.04.37.19.74.38,1.11.57,0,0-.04-.04-.04-.04.36.19.73.38,1.09.58,0,0-.03-.02-.03-.02.27.18.53.36.8.54Zm-5.62,13.72c2.61-3.09,4.29-5.33-.69-8.03-3.74-2.02-10.81-.71-15.09-.67-6.17.06-25.28-1.92-17.6,8.51,10.1,2.86,22.99.76,33.38.19Zm-16.68,8.09c-4.05,0-15.91-2.27-18.52,2.14-2.45,4.15,3.14,6.86,6.32,7.6,5.7,1.34,12.13.35,17.93-.08,2.61-.2,8.35.29,10.58-1.05,1.88-1.12,2.34-3.21,3.51-4.95-6.62-4.4-11.95-3.66-19.83-3.66Z"/>
    <path class="cls-4" d="m150.62,177.91c.11-14.08,17.41-14.96,18.21-.91.81,14.19-18.32,15.54-18.21.91Z"/>
    <path class="cls-4" d="m277.52,177.76c-.27,4.7-1.27,9.61-6.45,10.76-6.24,1.39-10.75-3.78-11.36-9.59-1.56-14.9,18.63-15.41,17.81-1.17Z"/>
    <path class="cls-5" d="m234.59,192.28c-9.91-.5-19.82-1-29.73-1.5,9.91.5,19.82,1,29.73,1.5Z"/>
    <path class="cls-7" d="m234.44,246.87c-1.7,0-3.4.02-5.1.02,1.7,0,3.4-.02,5.1-.02Z"/>
    <path class="cls-7" d="m218.52,246.9c-1.17,0-2.34,0-3.51,0,1.17,0,2.34,0,3.51,0Z"/>
    <path class="cls-5" d="m236.19,192.81c-.54-.2-1.09-.4-1.64-.6.54.2,1.09.4,1.64.6Z"/>
    <path class="cls-5" d="m237.26,193.34c-.37-.19-.74-.38-1.11-.57.37.19.74.38,1.11.57Z"/>
    <path class="cls-7" d="m83.14,246.81c-.29.03-.59.07-.88.1.29-.03.59-.07.88-.1Z"/>
    <path class="cls-7" d="m202.06,246.84c-.29,0-.57,0-.86,0,.29,0,.57,0,.86,0Z"/>
    <path class="cls-5" d="m238.31,193.88c-.36-.19-.73-.38-1.09-.58.36.19.73.38,1.09.58Z"/>
    <path class="cls-5" d="m239.07,194.4c-.27-.18-.53-.36-.8-.54.27.18.53.36.8.54Z"/>
    <polygon class="cls-7" points="236.59 246.86 236.41 246.92 236.23 246.86 236.41 246.71 236.59 246.86"/>
    <path class="cls-4" d="m62.71,239.01c.05.14.11.27.13.41,0,.05-.1.11-.16.17.01-.19.02-.38.03-.58Z"/>
    <path class="cls-8" d="m216.77,216.22c7.88,0,13.21-.73,19.83,3.66-1.17,1.74-1.63,3.83-3.51,4.95-2.23,1.34-7.98.85-10.58,1.05-5.8.43-12.23,1.43-17.93.08-3.19-.75-8.78-3.45-6.32-7.6,2.61-4.41,14.46-2.14,18.52-2.14Z"/>
    <path class="cls-8" d="m200.07,207.94c-7.68-10.43,11.44-8.45,17.6-8.51,4.28-.04,11.36-1.35,15.09.67,4.98,2.69,3.3,4.94.69,8.03-11.13-.06-22.26-.13-33.38-.19Z"/>
    <path class="cls-5" d="m200.07,207.94c11.13.06,22.26.13,33.38.19-10.4.58-23.29,2.67-33.38-.19Z"/>
  </g>
</svg>