<?xml version="1.0" encoding="UTF-8"?>
<svg id="_图层_2" data-name="图层 2" xmlns="http://www.w3.org/2000/svg" viewBox="0 0 275.64 328.09">
  <defs>
    <style>
      .cls-1 {
        fill: #fffdf5;
      }

      .cls-1, .cls-2, .cls-3, .cls-4, .cls-5, .cls-6 {
        stroke-width: 0px;
      }

      .cls-2 {
        fill: #8d756c;
      }

      .cls-3 {
        fill: #fbebbc;
      }

      .cls-4 {
        fill: #d3ad9a;
      }

      .cls-5 {
        fill: #9e8d84;
      }

      .cls-6 {
        fill: #e0c2ad;
      }
    </style>
  </defs>
  <g id="_图层_1-2" data-name="图层 1">
    <path class="cls-3" d="m199.98,296.75c5.56.46,11.13.92,16.69,1.37,1.65.13,3.3.26,4.94.4,5.41.46,10.81.95,16.22,1.39,1,.08,2.02.06,3.03.03,3.6-.13,6.37,1.05,7.89,4.58.31.72,1.19,1.19,1.98,1.93-.5.77-.98,1.67-1.61,2.46-.6.75-1.29,1.48-2.37.55-.15-.13-.59-.06-.82.06-1.31.66-2.57,1.6-4.44-.08.33,1.04.44,1.38.68,2.14h-3.92c-.58.49-1.15.87-1.58,1.36-.42.48-.73,1.05-1.04,1.62-.15.28-.06.79-.27.93-1.53,1.04-3.01,2.3-4.72,2.9-1.15.41-2.64-.15-3.98-.26-.54-.04-1.36-.27-1.59,0-1.73,1.92-4.04,1.08-6.03,1.18-3.25.16-6.51-.21-9.37,1.85-.26.19-.69.22-1.02.19-3.07-.35-5.71.94-8.47,1.96-1.34.5-2.93.33-4.4.46-2.51.21-5.01.54-7.52.58-1.48.02-2.96-.45-4.45-.63-.56-.07-1.31-.18-1.69.1-3.18,2.32-7.06,2.21-10.6,3.25-2.62.77-5.18.82-7.86.45-1.85-.26-3.77-.05-5.38-.05-1.53-.24-2.85-.61-4.18-.62-2.69-.02-5.38.09-8.06.26-1.16.08-2.3.61-3.46.64-2.21.06-4.47-.4-6.62-.08-2.3.35-4.45.34-6.7-.16-.69-.15-1.54.59-2.32.58-1.85-.02-3.69-.25-5.76-.42-.07-.2-.28-.75-.48-1.31-.12,0-.24.02-.36.03-.1.43-.21.86-.28,1.18-1.47-.31-2.9-.91-4.32-.86-3.03.12-6.05.76-9.07.81-1.77.03-3.59-.56-5.33-1.07-1.28-.38-2.43-.96-3.57.28-.23.25-.76.34-1.14.3-2.09-.19-4.17-.47-6.27-.66-.45-.04-1.05-.02-1.35.24-1.61,1.38-3.21.96-4.89.19-1.72-.79-3.42-1.07-5.41-.66-1.61.34-3.4-.22-5.11-.27-1.05-.03-2.12.14-3.17.24-.46.04-.99.3-1.36.16-1.24-.48-2.19-.95-3.42.43-.46.52-2.42-.2-3.65-.51-1.13-.29-2.18-.96-3.31-1.16-.83-.14-1.74.22-2.71.73.6.19,1.2.38,1.88.6-1.17,1.24-2.43.33-3.55.06-1.13-.27-2.15-.96-3.27-1.32-.59-.19-1.57-.36-1.87-.06-1.45,1.5-3.23.9-4.86.89-5.38-.05-10.46-1.56-15.44-3.47-.46-.18-1.07-.5-1.2-.89-.79-2.3-2.75-2.34-4.59-2.33-2.17.01-3.84-.79-5.35-2.24-.51-.49-1.18-.83-1.41-.99,1.66-1.07,3.33-2.16,5.02-3.22.48-.3,1-.6,1.54-.73,2.93-.74,5.88-1.42,8.82-2.12.02-.16.04-.32.06-.49-.44-.17-.87-.34-1.34-.52.05-.38.11-.9.11-.91,2.17-.95,4.15-1.83,6.14-2.68.19-.08.49.02.71.1.66.22.94.31,1.6-.45.68-.79,2.31-.95,3.55-1.03,4.05-.26,8.12-.31,12.17-.56.57-.04,1.09-.77,1.65-1.19.17.21.46.58.75.95.06,4.42.1,8.83.18,13.25.07,4.05.08,4.05,4.24,3.88,2.26,0,4.52.02,6.78.03.35,0,.69,0,1.04.01,2.26,0,4.53-.02,6.79-.03.24,0,.47,0,.71-.01,1.65-.02,3.31-.04,4.96-.06.25.02.5.03.75.05.23,0,.46-.02.69-.03,1.65-.07,3.3-.15,4.95-.22.27,0,.54-.01.81-.02.55.01,1.09.02,1.64.04,7.82.16,15.65.38,23.47.45,6.27.05,12.54-.12,18.81-.12,7.29,0,14.58.08,21.87.16,7.23.09,14.46.1,21.67.43,1.94.09,3.54-.04,5.14-1.1,1.3-.86,2.71-1.55,4.05-2.34,4.02-2.38,8.03-4.78,12.04-7.18.71-.78,2.23-.98,1.81-2.56.16-3.68.32-7.36.48-11.04Z"/>
    <path class="cls-5" d="m61.89,83.3c-.3-.08-.64-.29-.88-.22-3.28,1.01-6.54,2.13-9.84,3.07-.88.25-2.19.4-2.76-.07-.57-.47-.89-1.95-.58-2.67,1.23-2.93,2.5-5.9,4.21-8.57,3.79-5.88,7.6-11.76,11.86-17.29,6.09-7.91,13.92-13.79,22.8-18.38,5.71-2.95,11.54-5.56,17.7-7.33,5.29-1.52,10.64-2.86,16.2-3.07,1.77-.06,3.53-.34,5.44-.53.17-5.54,3.61-8.71,8.18-11.26,0-1.29-.1-2.77.02-4.23.5-5.97,7.13-9.41,12.29-6.37,1.99,1.17,3.9,2.48,5.8,3.8,1.96,1.36,3.31,3.2,4.04,5.49,1.21,3.76,1.83,7.58,1.47,11.72.91,0,1.85.06,2.78,0,4.39-.32,8.31,1.41,12.05,3.23,3.65,1.77,6.95,4.27,10.4,6.46-.49,1.41-.98,2.81-1.47,4.22-3.39-2.05-6.64-4.4-10.21-6.06-3.21-1.5-6.75-3.07-10.19-3.17-9.81-.29-19.63.16-29.45.32,0-1.25,0-2.5,0-3.46.72-.47,1.16-.76,1.61-1.04,2.35-.17,4.71-.44,7.06-.48,4.3-.08,8.6-.02,12.89-.02-.45-2.76-.74-5.29-1.33-7.76-.38-1.57-.84-3.41-1.92-4.45-1.8-1.74-4.04-3.08-6.25-4.31-.73-.41-2.09-.24-2.91.18-1.9.95-2.12,3.87-.63,6.01v-.02c.23.48.48.96.73,1.45.21.42.41.84.64,1.26.73,1.34.63,2.51-.44,3.69-1.09,1.21-2,.34-2.98-.02-.39-.4-.78-.79-1.16-1.19.3-.39.53-.9.93-1.14,2.54-1.57,2.63-2.18.02-3.77-.85-.52-2.13-.33-3.61-.51.82,2.12,1.41,3.63,2,5.14-.96.61-1.93,1.23-2.89,1.84l.02-.02c-.24.25-.49.49-.73.74l.02-.02c-.13.13-.25.25-.38.38v-.03c-1.32.74-.98,1.96-.88,3.12-1.23.04-2.47.16-3.7.1-1.38-.07-1.68.63-1.38,1.74.25.95.68,1.85,1.03,2.77-.29.06-.57.14-.87.18-5.69.77-11.43,1.26-17.05,2.36-7.67,1.51-14.72,4.73-21.61,8.44-5.64,3.04-10.85,6.62-15.43,11.03-7.8,7.52-13.08,16.92-18.75,26.19,4.63-1.44,9.2-2.98,13.64-4.82,3.76-1.56,5.39-.67,5.81,3.38.37,3.57.92,7.13,1.51,10.68.39,2.35,1.32,2.83,3.47,1.74,3.27-1.67,6.44-3.54,9.69-5.24,2.98-1.56,5.93-3.24,9.06-4.42,2.84-1.07,5.34-2.45,7.59-4.47,1.26-1.13,2.74-2.1,4.26-2.83,2.38-1.15,3.63-.55,5,1.69,2.84,4.65,5.7,9.29,8.69,13.85,1.91,2.91,2.58,2.97,5.43,1.01,6.43-4.43,12.84-8.88,19.24-13.36.76-.53,1.47-1.19,2.04-1.92,1.98-2.54,4.5-2.47,6.44.18,1.08,1.47,2.28,2.86,3.45,4.26,1.17,1.4,2.51,2.69,3.5,4.2,1.39,2.13,2.59,4.39,3.74,6.66.75,1.49,1.73,2.01,3.29,1.38,2-.81,4.13-1.38,5.98-2.43,3.96-2.24,7.84-4.64,11.63-7.16,2.01-1.34,3.77-3.07,5.65-4.61,1.9-1.55,3.65-1.51,5.14.32,4,4.92,7.98,9.87,11.83,14.91,2.18,2.87,2.52,2.96,4.57-.06.26-.39.55-.85.56-1.28.02-.51-.1-1.18-.42-1.54-2.12-2.35-1.87-4.06.96-5.42-.22-.47-.42-.96-.65-1.42-1.9-3.76-3.85-7.49-5.7-11.26-2.36-4.8-4.73-9.55-8.67-13.35-1.99-1.92-3.63-4.22-5.43-6.35.56.2,1.28.25,1.66.64,3.55,3.54,7.06,7.13,10.54,10.74.55.58,1.05,1.29,1.34,2.03,1.36,3.5,2.24,7.15,4.66,10.24,1.66,2.12,2.72,4.7,4.06,7.12-.13.11-.4.34-.71.61.53.2.9.34,1.69.64-1.74.56-2.17,1.46-1.81,2.81.13.49.13,1.15-.11,1.56-1.51,2.6.63,4.37,1.19,6.78.65-.75,1.06-1.21,1.73-1.98.41,2.51.81,4.74,1.09,6.98.05.41-.47.88-.72,1.33-.68-1.91-1.36-3.81-2.09-5.87-.86.87-1.53,1.62-2.27,2.29-1.47,1.32-3.33,2.06-5.08,1.17-1.39-.71-2.51-2.11-3.53-3.38-3.84-4.8-7.6-9.67-11.45-14.6-.51.41-.88.68-1.23.99-6.88,6.19-14.74,10.74-23.42,13.88-3.62,1.31-5.89.57-7.56-2.87-2.69-5.56-6.52-10.22-10.86-14.62-.41.34-.92.82-1.49,1.22-6.33,4.4-12.64,8.83-19.01,13.15-1.7,1.16-3.58,2.1-5.46,2.94-1.5.68-3.15.57-4.29-.71-1.8-2.02-3.57-4.1-5.08-6.34-2.37-3.52-4.52-7.19-6.87-10.97-1.1.84-2.2,1.55-3.14,2.43-2.59,2.45-5.54,4.18-9.02,5.08-1.57.4-3.1,1.11-4.53,1.9-4.25,2.34-8.44,4.81-12.67,7.19-.87.49-1.81.92-2.76,1.2-2.73.81-4.64.28-5.77-2.07-1.16-2.43-1.99-5.04-2.71-7.64-.43-1.54-.36-3.21-.55-5.1-1.44,2.11-2.72,3.98-4,5.86-.05-.05-.1-.1-.15-.15-.11-.11-.21-.21-.32-.32h0c1.36-2.24,2.82-4.44,4.01-6.77.4-.79.08-1.95.09-2.93-.79.16-1.8.07-2.34.53-1.18,1.01-2.17,2.26-3.11,3.5-.28.37-.14,1.05-.21,1.7-.14.03-.48.1-.83.17,0,0-.1-.1-.1-.1Z"/>
    <path class="cls-5" d="m241.81,155.64c2.32,4.01,3.54,8.43,4.12,12.95,1.15,8.9,1.55,17.86.15,26.77-1.48,9.38-3.46,18.71-7.15,27.45-4.04,9.57-9.44,18.44-17.89,24.86-6.09,4.63-12.62,8.66-20.18,10.6,0,0-.09-.06-.09-.06.02-1.52.03-3.03.05-4.55,5.63-1.98,10.78-4.87,15.63-8.31,4.49-3.19,8.36-7.03,11.41-11.61,4.85-7.3,8.65-15.07,10.66-23.7,1.68-7.22,3.68-14.38,3.69-21.84,0-6.21-.29-12.43-.75-18.63-.26-3.45-1.19-6.83-3.13-10.2-.84.94-1.51,1.77-2.26,2.52-1.89,1.91-4.11,3.07-6.87,2.49-.8-.17-1.51-.76-2.49-1.28-.39.33-1.33.85-1.88,1.64-2.63,3.76-6.45,6.22-9.83,9.15-1.55,1.35-3.4,2.12-5.47.89-2.29-2.34-4.58-4.68-6.87-7.02-1.47-1.07-2.95-2.13-4.5-3.26-1.43,1.78-3.34,4.33-5.43,6.73-2.5,2.87-4.55,6.31-8.47,7.59-.67.22-1.72.43-2.12.09-1.04-.9-2.2-1.97-2.62-3.21-2.19-6.43-6.72-11.22-11.05-16.15-.34-.39-1.41-.64-1.79-.4-2.92,1.83-5.75,3.8-8.6,5.73-1.29,1.12-2.74,2.1-3.83,3.38-3.92,4.63-8.42,8.53-13.73,11.49-3.79,1.59-6.35-.8-8.16-3.3-2.46-3.39-4.61-6.96-7.77-9.81-.93-.84-1.47-.99-2.32-.16-1.56,1.54-3.1,3.1-4.71,4.58-3,2.75-5.72,5.79-9.37,7.83-3.76,2.11-7.51.37-9.28-3.22,1.09-1.46,2.18-2.91,3.28-4.37.33.41.66.82.99,1.23,1.82,2.23,2.22,2.28,4.49.51.09-.07.19-.15.27-.23,2.58-2.4,5.16-4.8,7.73-7.2.26-.11.5-.28.77-.33,2.13-.39,3.7-2.12,3.87-4.29.12-.12.24-.24.36-.36.11,0,.22-.01.32-.02.47-.11.96-.16,1.41-.33,1.56-.61,3.84-.33,4.8.87,2.74,3.39,6.36,6.05,8.25,10.15.45.98,1.32,1.84,2.17,2.55.4.33,1.4.48,1.78.22,2.56-1.79,5.12-3.59,7.49-5.62,3.24-2.77,6.19-5.87,9.48-8.57,2.5-2.05,5.27-3.8,8.03-5.5.98-.6,2.29-.81,3.48-.92,2.99-.27,4.3,2.15,5.86,4.01,2.23,2.67,4.32,5.46,6.47,8.19.33.51.67,1.02,1,1.53-.05.09-.04.17.03.24.92,2.04,1.84,4.09,2.85,6.33.87-.8,1.59-1.32,2.15-1.99,2.12-2.53,4.2-5.1,6.26-7.68.4-.5.67-1.09,1-1.65,1.37-1.37,2.63-2.87,4.14-4.07,2.24-1.79,4.37-1.09,5.49,1.55.29.68.67,1.36,1.17,1.9,1.07,1.16,2.25,2.23,3.37,3.34,1.17,1.17,2.34,2.34,3.49,3.52.93.95,1.73.93,2.66-.09,1.2-1.3,2.52-2.49,3.79-3.72,2.38,1.11,2.47,1.16,3.97-1.16,1.2-1.85,2.11-3.88,3.21-5.8.27-.48.76-.82,1.16-1.23.28.89.7,1.77.8,2.68.33,3.03,4.19,3.68,6.05,1.81.61-.62,1.01-1.46,1.63-2.05.69-.66,1.61-1.71,2.28-1.61,2.04.29,3.62,0,4.76-1.8.04-.07.22-.06.33-.08Zm-3.3,2.74s-.09,0-.11.03c-.02.03-.02.09-.03.13.06-.01.13-.02.19-.04-.02-.04-.03-.08-.05-.12Z"/>
    <path class="cls-5" d="m61.52,320.29c-4.16.17-4.17.17-4.24-3.88-.07-4.42-.12-8.83-.18-13.25,0-.36,0-.72,0-1.08.01-.57.02-1.14.03-1.71,0-2.16,0-4.33,0-6.49.05-.1.04-.2-.01-.29,0-.38,0-.76,0-1.14,0-.57-.02-1.13-.03-1.7,0-.73,0-1.47.01-2.2.06-.1.06-.2,0-.3,0-.26,0-.52,0-.77.06-.1.07-.2.02-.3,0-1.21.01-2.41.02-3.62,0-.22,0-.44.01-.66,0-1.45,0-2.9,0-4.34,0-.21,0-.42,0-.63-.06-8.58-.13-17.16-.19-25.74,0-1.18.05-2.37.08-3.55.84-.26,2.24-.3,2.44-.81.89-2.25-.22-3.74-2.58-4.57v5.06c-5.08-2.52-9.45-6.09-12.82-10.52-4.29-5.63-8.55-11.35-11.09-18.13-2.9-7.76-5.18-15.65-5.58-23.97-.31-6.39-.67-12.8-.57-19.19.08-5.01.32-10.09,2.39-14.83.84.48,1.64,1.09,2.54,1.41,2.26.81,4.56,1.49,6.65,2.15-.56,1.99-1.11,3.98-1.67,5.97-1.33-1.81-2.65-3.61-4.26-5.8-.44,3.7-1.12,7.03-1.17,10.36-.19,12.4.26,24.71,4.07,36.73,3.08,9.72,8.29,18.04,15.08,25.45,1.71,1.86,3.99,3.2,6.45,5.13-.2-4.29-.44-8-.53-11.7-.15-5.98-.21-11.96-.31-17.94.83.87,1.77,1.67,2.47,2.64.83,1.15,1.46,2.45,2.17,3.68.03.23.09.47.1.7.26,7.77.51,15.54.78,23.31.02.45.19.9.3,1.35-.03,1.04-.06,2.07-.09,3.11-.06,2.52-.12,5.04-.18,7.56,0,1.23,0,2.46-.01,3.69-.03.21-.06.42-.09.63-.11,2.04-.22,4.08-.32,6.12-.03.53.18,1.3-.1,1.55-1.69,1.59-.61,3.74-1.24,5.53-.23.65-.25,1.39-.29,2.09-.16,2.91-.28,5.82-.42,8.74-.04.88-.34,1.85-.07,2.62.73,2.09.87,4.14.32,6.38,1.42-.07,1.55.9,1.43,2.01-.12,1.17-.32,2.33-.36,3.51-.11,2.76-.18,5.53-.2,8.29,0,.53.34,1.05.47,1.59.26,1.02-.21,2.35,1.24,2.84.1,1.42.2,2.85.3,4.27-.63-.09-1.26-.18-2.16-.32.12.78.22,1.4.32,2.07,1.04-.39,1.83-.7,2.94-1.12-.74,1.63-1.29,2.82-1.83,4.02Z"/>
    <path class="cls-5" d="m29.09,161.34c-1.83-1.3-3.7-2.55-5.47-3.93-1.38-1.07-1.99-2.56-2.08-4.35-.03-.57-.59-1.32-1.12-1.63-4.71-2.74-8.18-6.29-8.02-12.18.08-2.84.33-5.67.55-8.51.15-1.93,1-3.55,2.52-4.73,1.24-.97,1.29-1.93.79-3.37-2.11-6.1-1.64-12.37.63-18.13,3.22-8.18,11.44-10,18.68-6.59,3.38,1.59,5.9,4.22,7.32,7.89,1.18,3.04,2.8,5.92,4.21,8.85,1.08-2.9,2.15-5.99,3.38-9.01,1.07-2.63,2.28-5.2,3.52-7.76,2.01-4.15,4.08-8.27,6.18-12.37.42-.82,1.13-1.49,1.71-2.23,0,0,.1.1.1.1-.05.29-.07.59-.16.87q-1.01,3.52,2.55,2.95s0,0,0,0c.11.11.21.21.32.32.05.05.1.1.15.15-1.44,2.65-2.86,5.3-4.31,7.94-4.97,9.01-8.26,18.7-11.45,28.43-.96,2.91-1.81,5.85-2.72,8.78-.49-.15-.99-.27-1.47-.44-.91-.34-1.81-.7-2.71-1.06.55-2.59,1.1-5.18,1.65-7.77h2.27c-.61-2.9,2-5.32.46-7.94-.28.27-.28.57-.37.83-.81,2.26-1.63,4.51-2.46,6.76-.7-2.43-1.39-4.86-2.1-7.28-.38-1.3-.7-2.63-1.24-3.86-.78-1.79-1.79-3.48-2.57-5.27-.9-2.06-2.37-3.51-4.28-4.6-4.02-2.3-9.88-.97-11.7,3.15-2.41,5.43-2.54,11.14-.36,16.77.59,1.52,1.36,3.03.26,4.54-.83,1.14-1.95,2.06-2.85,3.15-.5.61-1.09,1.33-1.18,2.06-.27,2.05-.38,4.13-.41,6.21-.06,4.11,2.93,8.2,6.86,9.55,2.81.96,2.85.96,2.69,4.03-.07,1.42.25,2.58,1.54,3.33-.08,1.01.42.99,1.11.63h.16s.14.08.14.08c.52.63,1.03,1.26,1.57,1.92-2.14.46-2.4,1.98-2.3,3.72Z"/>
    <path class="cls-5" d="m221.58,87.24c.61,1.33,1.23,2.65,1.72,3.71,1.04-1.84,1.93-3.98,3.31-5.73,2.31-2.91,6.75-3.16,9.81-1.13,4.22,2.81,5.83,6.97,6.08,11.68.26,4.89.06,9.79.06,14.68,5.87,1.27,7.76,3.25,8.23,9.36.42,5.43.54,10.89.67,16.34.06,2.55-.84,4.61-3.12,6.19-1.77,1.23-3.36,2.89-4.6,4.66-.73,1.05-.58,2.7-.88,4.06-.26,1.18-.61,2.35-.92,3.53-.37-.53-1.11-1.1-1.06-1.58.22-2.02-1.14-2.29-2.62-2.73-1.68,3.75-4.44,6.42-7.86,8.54-1.13-2.76-1.23-5.88-4.01-7.79.16-.09.32-.17.48-.26.29.24.59.48.95.78.3-1.2.57-2.29.83-3.37,1.18,2.77,2.37,5.55,3.64,8.52.82-1.42,1.75-2.78,2.42-4.26.69-1.51,1.48-2.7,3.15-2.57.43-1.72.42-3.59,1.3-4.81,1.71-2.38,3.81-4.52,5.98-6.5,1.11-1.02,1.78-1.92,1.69-3.44-.27-4.67-.45-9.34-.7-14.02-.05-.94-.14-1.9-.36-2.81-.53-2.14-1.42-2.82-3.64-2.9-.95-.03-1.9.04-2.85.03-2.5-.01-3.2-1.07-2.33-3.37.39-1.05.86-2.15.89-3.24.16-4.96.9-9.95-.29-14.87-.52-2.16-1.44-4.14-3.42-5.43-2.31-1.5-4.3-.83-5.43,1.67-1.95,4.29-2.22,8.93-3.03,13.47-.16-.06-.43-.08-.48-.19-1.27-3-3.01-5.91-1.94-9.4.04-.14-.03-.32-.07-.56-.33.2-.59.36-.68.41-.88-2.67-1.74-5.31-2.61-7.95.14-.03.27-.06.41-.09.42.47.85.93,1.27,1.4Z"/>
    <path class="cls-2" d="m221.58,87.24c-.42-.47-.85-.93-1.27-1.4-.14.03-.27.06-.41.09.87,2.64,1.73,5.28,2.61,7.95.09-.06.35-.22.68-.41.03.25.11.42.07.56-1.07,3.49.67,6.4,1.94,9.4.05.11.31.13.48.19.58,5.41,1.16,10.81,1.74,16.22.41,3.74.82,7.49,1.23,11.23-.57,1.66-1.63,2.05-2.96,1.08-.37-.27-.75-.52-1.12-.79-.41-1.42-.97-2.81-1.2-4.26-1.33-8.17-1.24-16.56-3.69-24.57.26-.44.77-.92.72-1.33-.27-2.25-.68-4.48-1.09-6.98-.67.77-1.08,1.24-1.73,1.98-.56-2.41-2.7-4.18-1.19-6.78.24-.41.23-1.08.11-1.56-.36-1.35.07-2.25,1.81-2.81-.79-.3-1.16-.44-1.69-.64.31-.27.58-.5.71-.61-1.35-2.41-2.4-5-4.06-7.12-2.42-3.08-3.3-6.74-4.66-10.24-.29-.74-.78-1.45-1.34-2.03-3.48-3.61-6.99-7.2-10.54-10.74-.38-.38-1.1-.43-1.66-.64-4.49-3.92-8.98-7.85-13.47-11.77.49-1.41.98-2.81,1.47-4.22.22.04.44.08.66.12,1.21.63,2.42,1.27,3.63,1.9,3.18,2.89,6.38,5.75,9.53,8.68,2.2,2.05,4.33,4.19,6.49,6.28,1.47,2.1,2.94,4.21,4.44,6.29.12.17.55.12.83.17,1.33,2.56,2.7,5.1,3.97,7.69,2.86,5.83,5.67,11.68,8.48,17.53.23.47.32,1.01.48,1.51Z"/>
    <path class="cls-5" d="m199.51,307.8c.42,1.58-1.1,1.78-1.81,2.56-.69-.8-1.61-1.58-.26-2.59.12-.09.18-.32.17-.48-.09-1.52-.1-3.06-.34-4.55-.54-3.38-.8-6.77-.44-10.19.09-.92.14-1.86.07-2.78-.12-1.64-.51-3.27-.48-4.9.07-3.37.38-6.74.51-10.11.04-1.1-.16-2.21-.28-3.68.04-.06.51-.51.52-.97.06-2.38.03-4.76-.01-7.14-.03-1.75-.16-3.5-.17-5.26,0-.72.25-1.45.26-2.17.02-2.12-.11-4.24,0-6.35.08-1.7.63-3.38.62-5.07-.01-3.57-.04-7.07.65-10.65.73-3.78.45-7.75.63-11.63.12-2.51.29-5.01.43-7.37,1.1.5,2.12.97,3.13,1.43-.24,2.59-.56,5.17-.7,7.77-.43,8.21-.79,16.43-1.18,24.64-.22.35-.61.68-.64,1.04-.19,2.27.51,4.65-1.26,6.71-.24.29.79,1.67,1.24,2.55.2-.13.41-.26.61-.4,0,0,.09.06.09.06-.15,7.93-.28,15.86-.46,23.79-.07,3.25-.24,6.5-.37,9.74-.42,2.45-1.04,4.89-1.22,7.36-.18,2.6.04,5.23.14,7.85,0,.27.36.52.55.78Z"/>
    <path class="cls-2" d="m42.18,131.33c.9.35,1.8.72,2.71,1.06.48.18.98.3,1.47.44-.47,2.68-1.15,5.35-1.37,8.05-.45,5.77-.85,11.57-.84,17.35,0,1.58.84,3.21.25,4.89,0,0,.02-.02.02-.02-.12.13-.25.26-.37.38-.91,1.42-2.44,2.78-2.61,4.28-.44,3.99-.59,4.37-4.36,3.87-.12-.14-.24-.29-.36-.43.56-1.99,1.11-3.98,1.67-5.97-2.08-.66-4.39-1.34-6.65-2.15-.9-.32-1.7-.93-2.54-1.41-.06-.1-.1-.21-.12-.33-.1-1.74.16-3.26,2.3-3.72-.54-.66-1.06-1.29-1.57-1.92,2.91,1.45,5.82,2.91,9.16,4.57,0-3.2-.12-5.96.02-8.72.36-6.84.83-13.68,3.18-20.22Z"/>
    <path class="cls-2" d="m38.37,19.48c.36.35.71.71,1.07,1.06,0,.76,0,1.52,0,2.32.38.15.99.22,1.29.55,1.76,1.96,3.29,4.16,5.22,5.92,1.48,1.34.78,2.08-.13,3.06-.21-.06-.42-.11-.62-.17-3.33-2.72-6.66-5.44-10-8.16-3-2.49-5.96-5.03-9.01-7.46-2.96-2.36-6.02-4.6-9.02-6.91-1.69-1.3-3.12-2.77-2.72-5.18,1.26-1.08,2.63-1.69,4.15-.57,2.23,1.65,4.42,3.35,6.6,5.07,4.4,3.47,8.78,6.97,13.17,10.46Z"/>
    <path class="cls-5" d="m257.91,3.22c.93-.73,1.86-1.47,2.78-2.19,2.47,2.46,2.57,4.72.16,6.91-3.36,3.05-6.68,6.09-10.4,8.79-5.24,3.8-9.83,8.51-14.75,12.77-1.19,1.03-2.53,1.92-3.9,2.72-.96.56-2.29,1.06-2.99-.13-.43-.73-.07-1.92-.07-2.9,1.01-.75,2.03-1.5,3.04-2.25.41,0,.95.16,1.21-.04,1.29-.99,2.52-2.06,3.76-3.13,2.86-2.48,5.69-4.99,8.57-7.45.53-.45,1.2-.89,1.86-.98,1.78-.24,2.3-1.91,3.49-2.81.65-.49,1.26-1.04,1.88-1.57,0,0,0,0,0,0,.25.88.48.86,1.12.17,1.12-1.21,1.92-2.72,3.67-3.34,1.38-.5,1.62-1.59.29-2.73.75-.32,1.33-.58,1.9-.83-.61-.38-1.11-.68-1.61-.99Z"/>
    <path class="cls-6" d="m3.96,31c-.92-.95-1.17-2.08-.62-3.26.48-1.05,3.43-2.33,4.69-1.97,3,.87,6.01,1.75,8.93,2.86,3.84,1.46,7.58,3.18,11.38,4.73,2.03.83,2.98,2.07,2.79,4.15-.04.43-.62.82-.96,1.23-1.66-.72-3.32-1.44-4.99-2.17-3.35-1.71-6.67-3.42-10.46-4.05-1.49-.24-2.87-1.04-4.34-1.48-1.23-.37-2.5-.58-3.76-.86-.89.27-1.78.54-2.67.81Z"/>
    <path class="cls-2" d="m7.71,55.14c1.05-.03,2.1-.07,3.15-.1,3.6.1,7.21.2,10.81.3.7.15,1.52.12,2.05.5.68.49,1.28,1.25,1.58,2.03.09.24-.89,1.23-1.46,1.31-2.8.42-5.63.64-8.45.97-1.75.21-3.48.54-5.23.72-1.11.11-2.24.04-3.36.08-1.11.03-2.22.09-3.33.14-.28-.47-.48-1.01-.85-1.4-1.72-1.83-1.72-1.92.44-3.1.36-.14.72-.27,1.07-.41,1.19-.35,2.38-.69,3.57-1.04Z"/>
    <path class="cls-6" d="m275.63,44.82c.21,4.51-1.71,5.07-4.61,5-3.01-.07-6.02.26-9.03.25-3.96-.02-7.93-.1-11.88-.4-1.09-.08-2.63-.81-3.03-1.67-.51-1.12-.45-2.82.04-3.98.56-1.33,3.62-1.5,5.07-.62-.42.78-1.37,1.93-1.14,2.26.53.76,1.6,1.5,2.51,1.59,3.99.37,8,.67,12,.64,2.19-.01,4.41-.61,6.55-1.21.6-.17,1.46-1.49,1.28-1.87-.38-.85-1.25-1.83-2.09-2.03-1.27-.31-2.69.01-4.05.06-1.59.05-3.18.1-4.77.15.65-.46,1.26-1,1.98-1.34.59-.27,1.3-.29,1.95-.42,2.02-.19,4.03-.38,6.05-.57,1.05,1.39,2.11,2.78,3.16,4.16Z"/>
    <path class="cls-2" d="m267.9,25.99c-.95.83-1.9,1.66-2.85,2.49-.28.18-.56.35-.83.53-.09.03-.18.07-.26.13-.28.08-.56.14-.83.24-4.99,1.85-9.97,3.76-14.99,5.52-.66.23-1.57-.26-2.36-.42.33-.87.42-2.07,1.04-2.52.96-.68,2.3-.84,3.56-1.24-.34-.5-.51-.74-.67-.97,1.62-.66,3.28-1.24,4.86-1.99,4.09-1.94,8.14-3.95,12.21-5.93.38,1.39.76,2.78,1.13,4.17Z"/>
    <path class="cls-2" d="m228.66,148.17c-.27,1.08-.54,2.17-.83,3.37-.37-.3-.66-.54-.95-.78-.16.09-.32.17-.48.26,2.78,1.91,2.88,5.03,4.01,7.79,3.43-2.11,6.18-4.79,7.86-8.54,1.48.44,2.84.71,2.62,2.73-.05.48.68,1.05,1.06,1.58-.04.35-.09.7-.13,1.05-.11.03-.29.01-.33.08-1.15,1.8-2.73,2.1-4.76,1.8-.68-.1-1.6.96-2.28,1.61-.63.6-1.02,1.44-1.63,2.05-1.86,1.87-5.72,1.22-6.05-1.81-.1-.91-.52-1.79-.8-2.68-.4-1.89-.8-3.79-1.2-5.68.04-1.78.07-3.55.11-5.33,1.23.36,2.45.71,3.68,1.07l.12,1.42Z"/>
    <path class="cls-2" d="m262.49,42.99c1.59-.05,3.18-.1,4.77-.15,1.36-.05,2.78-.36,4.05-.06.84.2,1.7,1.19,2.09,2.03.17.38-.69,1.7-1.28,1.87-2.14.59-4.36,1.19-6.55,1.21-4,.03-8.01-.28-12-.64-.91-.08-1.98-.83-2.51-1.59-.23-.33.72-1.48,1.14-2.26,1.78-.18,3.55-.36,5.33-.54.23.05.47.1.7.14.61.02,1.21.03,1.82.05.82-.02,1.64-.04,2.45-.05Z"/>
    <path class="cls-6" d="m38.37,19.48c-4.39-3.49-8.77-6.98-13.17-10.46-2.18-1.72-4.37-3.42-6.6-5.07-1.52-1.12-2.89-.51-4.15.57-.44-1-2.13-1.64-.87-3.15,1.25-1.49,2.41-1.72,4.42-.94,4.01,1.55,7.66,3.71,10.61,6.84,1.69,1.79,3,3.94,4.58,5.84,1.32,1.59,2.82,3.02,4.18,4.58.44.5.67,1.18,1,1.78Z"/>
    <path class="cls-5" d="m25.19,36.58c1.66.72,3.32,1.44,4.99,2.17-.16.34-.27.93-.5.99-2.08.53-4.16,1.75-6.34.63-4.75-2.42-9.9-3.56-14.97-5-1.13-.32-2.21-.87-3.25-1.41-1.19-.63-1.72-1.6-1.15-2.96.89-.27,1.78-.54,2.67-.81.79.79,1.44,1.89,2.39,2.3,1.58.69,3.36.91,5.05,1.37,1.04.29,2.09.58,3.08,1.01,2.83,1.25,5.62,2.57,8.97,4.12-.44-1.14-.68-1.77-.92-2.41Z"/>
    <path class="cls-6" d="m231.79,26.92c-1.01.75-2.03,1.5-3.04,2.25.08-.75-.12-1.75.29-2.22,1.57-1.82,3.26-3.57,5.05-5.17,4.4-3.92,8.85-7.8,13.37-11.59,2.68-2.25,5.52-4.33,8.33-6.42.35-.26,1-.13,1.51-.18-1.95,2.1-3.6,4.62-5.89,6.22-7.17,5.01-13.58,10.83-19.61,17.1Z"/>
    <path class="cls-2" d="m231.79,26.92c6.04-6.27,12.45-12.09,19.61-17.1,2.29-1.6,3.94-4.12,5.89-6.22.21-.13.41-.25.62-.38.5.31,1,.61,1.61.99-.57.25-1.16.5-1.9.83,1.33,1.14,1.09,2.24-.29,2.73-1.75.63-2.56,2.14-3.67,3.34-.63.68-.87.71-1.12-.17.03-.05.05-.09.08-.14-.02.05-.05.09-.07.14-.63.52-1.23,1.08-1.88,1.57-1.18.9-1.71,2.56-3.49,2.81-.66.09-1.33.53-1.86.98-2.88,2.46-5.71,4.97-8.57,7.45-1.23,1.07-2.46,2.14-3.76,3.13-.26.2-.8.04-1.21.04Z"/>
    <path class="cls-6" d="m266.77,21.82c-4.07,1.98-8.12,3.99-12.21,5.93-1.58.75-3.24,1.33-4.86,1.99,0-.11,0-.23-.01-.34.64-.66,1.18-1.48,1.94-1.96,4.25-2.65,8.49-5.33,12.87-7.74,1.12-.62,2.78-.54,4.14-.39,1.91.21,2.2.95,1.51,2.79-1.09-.63-2.15-1.59-3.39-.28Z"/>
    <path class="cls-6" d="m245.77,34.48c.79.16,1.71.65,2.36.42,5.03-1.76,10-3.66,14.99-5.52.27-.1.56-.16.83-.24-.11.2-.17.5-.34.59-3.42,1.82-6.83,3.65-10.28,5.4-1.47.75-3.03,1.31-4.52,2.01-2.33,1.08-3.52.55-4.22-1.82-.18-.61-.73-1.11-1.11-1.66.76.27,1.52.54,2.28.81Z"/>
    <path class="cls-6" d="m35.2,24.08c3.33,2.72,6.66,5.44,10,8.16-1.98,1.23-3.14,1.34-4.62-.46-1.99-2.4-3.6-5.12-5.37-7.7Z"/>
    <path class="cls-5" d="m45.82,32.4c.91-.98,1.61-1.72.13-3.06-1.94-1.76-3.46-3.96-5.22-5.92-.3-.34-.91-.4-1.29-.55,0-.8,0-1.56,0-2.32,3.8,2.47,6.88,5.63,8.81,9.76.29.62-.15,1.59-.25,2.4-.73-.1-1.45-.2-2.18-.3Z"/>
    <path class="cls-6" d="m21.68,55.35c-3.6-.1-7.21-.2-10.81-.3,2.63-1.06,4.95-3.06,8.14-2.41,1.61.33,2.6.99,2.68,2.71Z"/>
    <path class="cls-5" d="m245.77,34.48c-.76-.27-1.52-.54-2.28-.81-.47-1.78.8-2.42,2.05-2.93,1.34-.55,2.76-.89,4.15-1.33.02.11.02.23.01.34.16.24.32.47.67.97-1.26.41-2.6.56-3.56,1.24-.63.44-.71,1.65-1.04,2.52Z"/>
    <path class="cls-5" d="m3.07,56.59c-2.16,1.18-2.16,1.28-.44,3.1.37.39.57.93.85,1.4-1.28.64-2.78.77-3.32-.6-.39-.99.04-2.47.52-3.54.18-.4,1.56-.25,2.39-.35Z"/>
    <path class="cls-2" d="m56.88,248.31v-5.06c2.36.82,3.47,2.31,2.58,4.57-.2.51-1.6.55-2.44.81-.07-.1-.11-.2-.14-.31Z"/>
    <path class="cls-5" d="m266.77,21.82c1.25-1.31,2.31-.35,3.39.28.87,2.24-1.06,2.85-2.26,3.89-.38-1.39-.76-2.78-1.13-4.17Z"/>
    <path class="cls-2" d="m199.51,307.8c-.19-.26-.54-.51-.55-.78-.1-2.62-.32-5.25-.14-7.85.17-2.47.79-4.91,1.22-7.36-.02,1.65-.03,3.3-.05,4.95-.16,3.68-.32,7.36-.48,11.04Z"/>
    <path class="cls-3" d="m262.49,42.99c-.82.02-1.64.04-2.45.05-.24-.38-.48-.76-.72-1.14.33-.3.65-.86.98-.86,2.04,0,4.08.11,6.12.19-.66.13-1.36.15-1.95.42-.71.33-1.32.88-1.98,1.34Z"/>
    <path class="cls-5" d="m208.65,60.5c-.28-.05-.71,0-.83-.17-1.51-2.08-2.97-4.19-4.44-6.29,1.76,2.15,3.52,4.3,5.28,6.45Z"/>
    <path class="cls-3" d="m275.63,44.82c-1.05-1.39-2.11-2.78-3.16-4.16,2.02-.05,3.1,1.37,3.16,4.16Z"/>
    <path class="cls-5" d="m187.35,39.08c-1.21-.63-2.42-1.27-3.63-1.9,1.83-.56,2.65.83,3.63,1.9Z"/>
    <path class="cls-6" d="m7.71,55.14c-1.19.35-2.38.69-3.57,1.04.9-1.33,2.08-1.74,3.57-1.04Z"/>
    <path class="cls-6" d="m259.32,41.9c.24.38.48.76.72,1.14-.61-.02-1.21-.03-1.82-.05,0-.33.02-.65.03-.98l1.07-.11Z"/>
    <path class="cls-3" d="m258.25,42.01c0,.33-.02.65-.03.98-.23-.05-.47-.1-.7-.14.24-.28.49-.56.73-.84Z"/>
    <path class="cls-3" d="m57.09,290.74c.01.57.02,1.14.03,1.7-.01-.57-.02-1.14-.03-1.7Z"/>
    <path class="cls-3" d="m57.13,300.37c-.01.57-.02,1.14-.03,1.71.01-.57.02-1.14.03-1.71Z"/>
    <path class="cls-6" d="m264.22,29.01c.28-.18.56-.35.83-.53-.28.18-.56.35-.83.53Z"/>
    <path class="cls-3" d="m57.12,277.92c0,.21,0,.42,0,.63,0-.21,0-.42,0-.63Z"/>
    <path class="cls-3" d="m57.13,282.89c0,.22,0,.44-.01.66,0-.22,0-.44.01-.66Z"/>
    <path class="cls-3" d="m57.11,287.17c.05.1.05.2-.02.3-.02-.07-.05-.14-.06-.21,0-.03.05-.06.08-.09Z"/>
    <path class="cls-3" d="m57.13,293.59c.05.1.06.19.01.29-.03-.07-.07-.13-.09-.2,0-.02.05-.06.08-.09Z"/>
    <path class="cls-3" d="m57.1,288.24c.06.1.07.2,0,.3-.03-.07-.07-.14-.08-.21,0-.02.05-.06.07-.09Z"/>
    <path class="cls-2" d="m202.7,215.9c-1.02-.46-2.03-.93-3.13-1.43-.14,2.36-.31,4.86-.43,7.37-.19,3.88.09,7.85-.63,11.63-.69,3.58-.67,7.08-.65,10.65,0,1.69-.54,3.37-.62,5.07-.11,2.11.03,4.23,0,6.35,0,.72-.27,1.45-.26,2.17.01,1.75.14,3.5.17,5.26.04,2.38.07,4.76.01,7.14-.01.46-.48.91-.52.97.12,1.47.33,2.58.28,3.68-.13,3.37-.44,6.74-.51,10.11-.03,1.63.36,3.26.48,4.9.07.92.02,1.86-.07,2.78-.35,3.42-.1,6.8.44,10.19.24,1.5.25,3.03.34,4.55,0,.16-.05.4-.17.48-1.35,1.02-.43,1.79.26,2.59-4.01,2.39-8.02,4.79-12.04,7.18-1.34.8-2.75,1.49-4.05,2.34-1.6,1.05-3.2,1.19-5.14,1.1-7.22-.34-14.45-.35-21.67-.43-7.29-.09-14.58-.16-21.87-.16-6.27,0-12.54.17-18.81.12-7.83-.07-15.65-.29-23.47-.45.59-1.57.29-1.91-1.41-1.91-1.73,0-3.46-.15-5.19-.27-1.2-.09-2.41-.37-3.6-.33-1.91.06-3.81.3-5.8.47.12-.55.17-.81.25-1.17-2.57.57-5.03,1.12-7.6,1.7.39.7.7,1.24,1.01,1.79-2.26,0-4.52-.02-6.78-.03.55-1.2,1.09-2.39,1.83-4.02-1.11.42-1.91.72-2.94,1.12-.1-.67-.2-1.28-.32-2.07.9.13,1.53.22,2.16.32,3.36,0,6.71.02,10.07-.02,5.86-.06,11.72-.25,17.57-.23,9.73.03,19.45.24,29.18.25,7.81,0,15.63-.23,23.45-.25,5.15,0,10.3.19,15.44.3,3.91.08,7.82.18,11.73.24,2.26.04,4.53,0,7.02,0,.32-36.38.64-72.58.96-109.05-19.45-1.63-39.09-.34-58.71-.6-19.67-.25-39.34-.06-58.82-.06.08,1.47.19,3.09.27,4.72.13,2.71.23,5.41.34,8.12-.02.23-.05.45-.07.68-.71-1.23-1.34-2.53-2.17-3.68-.7-.97-1.64-1.76-2.47-2.64-.13-.48-.25-.96-.38-1.44.41-1.57.48-3.03-1.01-4.16-.53-.41-.93-.99-1.61-1.74.15-.02-.27.15-.38.02-1.24-1.3-2.59-2.54-3.56-4.02-.48-.73-.22-1.94-.3-3.08,1.18.18,1.99.3,2.8.42.39,1.26,1.03,2.22,2.55,2.12,1.74-.11,3.48-.22,5.22-.33,1.79-.01,3.58-.03,5.37-.04,3.76-.09,7.52-.23,11.29-.26,4.32-.03,8.64.01,12.96.07,4.64.06,9.27.21,13.91.25,4.97.05,9.94.03,14.91.02,5.93,0,11.87-.05,17.8-.02,9.04.05,18.09.11,27.13.23,4.84.06,9.68.28,14.51.4,1.68.04,3.36,0,4.79,0-.2-3.7-.39-7.14-.59-10.89h-8.08c.06-1.05,2.41-1.32.75-2.91,1.05-.3,1.84-1.04,2.39.47.14.39,1.1.54,1.71.68.45.1.95.02,1.43.02.01.14.03.27.04.41-.61.17-1.22.34-1.84.51,0,.08.02.16.02.23h3.56c-.08-1.5-.06-2.84,2-2.76.33.01.68-.62,1.02-.95.84.45,1.68.9,2.52,1.35-.1.89-.2,1.77-.31,2.77-.14.19-.76.72-.67.97.16.44.78,1,1.19.99,1.41-.02,2.92-.79,3.95.87.02.03.12.02.17,0,1.31-.34,2.63-.68,3.94-1.03,3.54,1.91,7.08,3.83,10.62,5.74-.18.14-.36.28-.55.41-1.53.99-1.5,1.22-.09,2.27.36.26.41.94.58,1.38.46-.15.97-.31,1.26-.4.24.68.26,1.31.58,1.56,1.33,1.04,1.22,2.49,1.14,3.86-.06,1.16-.49,2.3-.6,3.47-.03.32.52.69.81,1.04-.49.69-.84,1.65-1.51,2.01-1.52.81-3.19,1.32-4.81,1.95Zm-6.83,94.76s.06-.1.08-.14c-.03.05-.05.1-.08.15-.03.05-.05.1-.08.14.03-.05.05-.1.08-.15Zm-13.62-104.07c.17,2.03.41,3.48.4,4.92-.04,3.31-.29,6.62-.31,9.93-.05,7.33.02,14.67-.04,22-.05,6.52-.29,13.03-.3,19.55-.01,8.3.22,16.6.16,24.9-.06,7.79-.37,15.57-.55,23.36-.02.73.07,1.46.11,2.22.41-.04.61-.01.75-.08,3.95-1.98,7.92-3.94,11.83-5.99.43-.23.8-.99.81-1.52.17-6.93.3-13.86.39-20.79.14-10,.14-20,.39-30,.18-7.21.65-14.41,1.04-21.61.37-6.78.81-13.56,1.18-20.35.02-.37-.19-.96-.47-1.1-2.39-1.17-4.76-2.43-7.26-3.31-2.5-.89-5.15-1.37-8.15-2.14Zm4.6-13.1c.18,3.01.3,5.54.52,8.06.03.34.47.8.83.95,3.41,1.46,6.85,2.83,10.25,4.3,2.08.9,4.11,1.94,6.4,3.03.33-1.29.53-2.44.92-3.52.44-1.2.23-1.94-.97-2.58-2.28-1.24-4.46-2.67-6.72-3.96-3.58-2.04-7.19-4.02-11.23-6.27Zm-126.49,10.02c0,.19,0,.38.01.57h13.76c-.56-.67-1.13-.99-1.74-1.1-1.99-.38-3.82-1.77-6.07-.52-1.23.68-2.8.76-4.23,1.03-.56.11-1.15.02-1.73.02Zm6.04,115.95c.03-.24.05-.48.08-.73-.98-.15-1.96-.31-2.95-.42-.14-.01-.45.31-.43.45.04.25.25.65.4.66.96.06,1.93.03,2.89.03Zm38.81-.86c0,.17-.02.34-.03.51.71.09,1.42.18,2.12.26.02-.19.04-.37.06-.56-.72-.07-1.44-.14-2.16-.21Z"/>
    <path class="cls-5" d="m68.3,320.32c-.31-.55-.62-1.09-1.01-1.79,2.57-.57,5.03-1.12,7.6-1.7-.08.35-.13.61-.25,1.17,1.99-.17,3.89-.42,5.8-.47,1.2-.03,2.4.25,3.6.33,1.73.12,3.46.27,5.19.27,1.7,0,2,.34,1.41,1.91-.55-.01-1.1-.02-1.64-.04-.14-.2-.27-.41-.41-.61l-.41.63c-1.65.07-3.3.15-4.95.23-.09-.18-.18-.35-.27-.53-.14.19-.27.37-.41.56-.25-.02-.5-.03-.75-.05-1.02-.98-4.04-.95-4.96.06-.24,0-.47,0-.71.01-.15-.22-.28-.62-.46-.65-1.25-.16-2.52-.38-3.77-.29-.88.07-1.71.62-2.57.96-.35,0-.69,0-1.04-.01Z"/>
    <path class="cls-2" d="m69.34,320.33c.85-.34,1.69-.89,2.57-.96,1.24-.1,2.51.13,3.77.29.18.02.31.42.46.65-2.26,0-4.53.02-6.79.03Z"/>
    <path class="cls-2" d="m76.85,320.29c.91-1.01,3.94-1.04,4.96-.06-1.65.02-3.31.04-4.96.06Z"/>
    <path class="cls-2" d="m88.19,320.02l.41-.63c.14.2.27.41.41.61-.27,0-.54.01-.81.02Z"/>
    <path class="cls-2" d="m82.56,320.28c.14-.19.27-.37.41-.56.09.18.18.35.27.53-.23,0-.46.02-.69.03Z"/>
    <path class="cls-3" d="m224.87,145.69c-.04,1.78-.07,3.55-.11,5.33-1.07-.09-.98.63-1.09,1.37-.27,1.8-.29,3.78-1.11,5.31-1.36,2.55-3.26,4.8-4.94,7.18-1.27,1.23-2.6,2.42-3.79,3.72-.93,1.01-1.74,1.03-2.66.09-1.16-1.18-2.32-2.35-3.49-3.52-1.12-1.12-2.3-2.18-3.37-3.34-.49-.54-.88-1.22-1.17-1.9-1.12-2.64-3.24-3.35-5.49-1.55-1.5,1.2-2.77,2.7-4.14,4.07-1.36,1.42-2.91,2.7-4.03,4.28-1.36,1.93-3.37,2.22-5.34,2.74-1.44.38-1.47-1.06-2.11-1.71-.18-.19-.52-.22-.79-.33-.07-.07-.08-.15-.03-.24-.33-.51-.67-1.02-1-1.53-2.15-2.74-4.23-5.53-6.47-8.19-1.56-1.86-2.87-4.28-5.86-4.01-1.18.11-2.49.31-3.48.92-2.76,1.7-5.53,3.44-8.03,5.5-3.29,2.7-6.24,5.81-9.48,8.57-2.37,2.03-4.93,3.83-7.49,5.62-.38.27-1.38.12-1.78-.22-.85-.71-1.71-1.57-2.17-2.55-1.9-4.1-5.52-6.76-8.25-10.15-.97-1.2-3.25-1.48-4.8-.87-.44.17-.94.22-1.41.33,2-4.34-.24-9.79-4.45-10.93-3.19-.86-6.08-.25-8.76,1.61-.56.49-1.26.89-1.66,1.49-1.49,2.21-1.3,4.66-.79,7.11-.15.2-.3.4-.45.6-2.05,2-4.11,4-6.19,6.03-.97-1.15-1.68-2.11-2.5-2.95-2.39-2.46-4.78-4.93-7.28-7.28-1.63-1.54-3.73-1.83-4.99-.82-3.7,2.95-7.38,5.92-11.03,8.93-2.11,1.75-4.15,3.59-6.36,5.52-.28-.75-.55-1.33-.72-1.95-1.22-4.43-2.42-8.87-3.62-13.31-.8-2.97-2.99-3.9-5.5-2.16-1.89,1.31-3.66,2.81-5.4,4.32-2.34,2.04-4.6,4.19-6.89,6.29.59-1.69-.25-3.32-.25-4.89-.01-5.78.39-11.58.84-17.35.21-2.7.9-5.37,1.37-8.05.9-2.93,1.76-5.87,2.72-8.78,3.19-9.73,6.48-19.42,11.45-28.43,1.45-2.64,2.88-5.3,4.31-7.94,1.28-1.88,2.56-3.75,4-5.86.18,1.89.12,3.57.55,5.1.72,2.6,1.55,5.21,2.71,7.64,1.12,2.35,3.03,2.89,5.77,2.07.96-.29,1.89-.71,2.76-1.2,4.23-2.38,8.42-4.85,12.67-7.19,1.43-.79,2.96-1.5,4.53-1.9,3.49-.9,6.43-2.63,9.02-5.08.93-.88,2.04-1.58,3.14-2.43,2.35,3.78,4.5,7.45,6.87,10.97,1.51,2.24,3.27,4.32,5.08,6.34,1.14,1.28,2.8,1.38,4.29.71,1.88-.85,3.75-1.79,5.46-2.94,6.38-4.33,12.69-8.75,19.01-13.15.57-.4,1.08-.88,1.49-1.22,4.35,4.4,8.17,9.06,10.86,14.62,1.66,3.44,3.94,4.18,7.56,2.87,8.68-3.14,16.54-7.69,23.42-13.88.34-.31.72-.58,1.23-.99,3.85,4.93,7.61,9.8,11.45,14.6,1.02,1.27,2.13,2.67,3.53,3.38,1.75.89,3.6.15,5.08-1.17.74-.67,1.41-1.41,2.27-2.29.73,2.05,1.41,3.96,2.09,5.87,2.45,8.01,2.36,16.39,3.69,24.57.23,1.45.79,2.84,1.2,4.26.07,1.29.19,2.58.21,3.87.05,3.48.06,6.97.08,10.45Zm-120.93-36.75c-.94-1.31-1.7-2.84-2.88-3.89-1.7-1.53-4.63-1.33-6.22.21-2.34,2.26-3.39,5.11-3.34,8.32.03,2.11,1.19,3.4,3.16,3.92,1.75,0,3.54.26,5.23-.04,2.73-.48,4.66-3.29,4.41-6-.08-.85-.24-1.68-.37-2.52Zm40.23,13.57c-.21-1.09-.94-1.58-1.99-1.62-1.89-.06-3.79-.19-5.69-.12-4.49.17-8.76,1.39-12.89,3.03-2.45.97-3.06,2.81-1.95,5.18.69,1.47,1.54,2.87,2.33,4.34-5.55,4.77-2.16,8.75,2.06,10.67,1.23.56,2.59,1.03,3.91,1.12,6.14.43,12.21.32,17.79-2.89,3.59-2.07,4.24-5.94,1.38-8.89-.15-.16-.25-.36-.41-.6.37-.25.65-.46.94-.64,2.11-1.33,3.03-3.36,2.95-5.72-.08-2.27-2-3.2-3.73-4.14-.57-.31-1.2-.51-1.81-.74-1.14-.42-2.05-.29-2.45,1.04-.15-.01-.3-.02-.44-.04Zm26.44-9.01c1.33-.19,3.74-1.06,5.45-3.27,1.68-2.16,1.96-5.7.64-7.31-1.82-2.2-5.24-3.12-7.83-1.8-2.8,1.43-4.65,3.82-4.65,7.03,0,2.93,1.98,5.72,6.39,5.34Z"/>
    <path class="cls-1" d="m181.6,41.28c4.49,3.92,8.98,7.85,13.47,11.77,1.8,2.13,3.43,4.42,5.43,6.35,3.94,3.8,6.31,8.55,8.67,13.35,1.85,3.78,3.8,7.51,5.7,11.26.24.47.44.95.65,1.42-2.82,1.36-3.07,3.06-.96,5.42.32.36.44,1.02.42,1.54-.01.44-.3.9-.56,1.28-2.04,3.03-2.38,2.93-4.57.06-3.84-5.04-7.83-9.99-11.83-14.91-1.49-1.84-3.25-1.87-5.14-.32-1.89,1.54-3.64,3.27-5.65,4.61-3.79,2.52-7.67,4.92-11.63,7.16-1.86,1.05-3.99,1.62-5.98,2.43-1.56.63-2.54.11-3.29-1.38-1.15-2.27-2.35-4.53-3.74-6.66-.99-1.52-2.33-2.8-3.5-4.2-1.17-1.41-2.37-2.79-3.45-4.26-1.94-2.65-4.45-2.72-6.44-.18-.57.73-1.28,1.39-2.04,1.92-6.4,4.48-12.81,8.93-19.24,13.36-2.85,1.97-3.53,1.9-5.43-1.01-2.99-4.56-5.85-9.2-8.69-13.85-1.37-2.24-2.62-2.84-5-1.69-1.53.74-3,1.7-4.26,2.83-2.25,2.01-4.75,3.4-7.59,4.47-3.13,1.18-6.08,2.86-9.06,4.42-3.26,1.7-6.42,3.57-9.69,5.24-2.15,1.09-3.08.61-3.47-1.74-.58-3.55-1.13-7.11-1.51-10.68-.42-4.05-2.05-4.94-5.81-3.38-4.44,1.84-9.01,3.38-13.64,4.82,5.66-9.27,10.94-18.67,18.75-26.19,4.58-4.41,9.79-8,15.43-11.03,6.88-3.71,13.94-6.93,21.61-8.44,5.62-1.1,11.37-1.59,17.05-2.36.29-.04.58-.12.87-.18,1.13-.04,2.26-.08,3.39-.12.21,0,.43,0,.64-.01h.13s.11-.04.11-.04c9.82-.16,19.65-.6,29.45-.32,3.44.1,6.98,1.68,10.19,3.17,3.57,1.66,6.82,4.01,10.21,6.06Z"/>
    <path class="cls-3" d="m138.2,23.39c.99.36,1.9,1.22,2.98.02,1.07-1.19,1.17-2.35.44-3.69-.23-.41-.43-.84-.64-1.26-.25-.48-.49-.96-.74-1.45,0,0,.01.02.01.02,0-1.37,0-2.74,0-4.34,1.09-1.28,2.46-1.73,4.11-.26.52.46,1.21.73,1.82,1.1,2.45,1.48,5.25,2.71,4.47,6.44-.04.2.15.44.18.67.17,1.25.48,2.52.44,3.77-.05,1.44-.74,2.27-2.48,2.27-4.62-.02-9.23.18-13.85.33-.9.03-1.8.21-2.95.36.17-1.07.29-1.81.41-2.54,0,0,0,.03,0,.03.13-.13.25-.25.38-.38,0,0-.02.02-.02.02.24-.25.49-.49.73-.74,0,0-.02.02-.02.02,1.53-.74,3.06-1.39,4.72-.37Z"/>
    <path class="cls-1" d="m132.42,24.81c-.12.74-.24,1.48-.41,2.54,1.15-.14,2.05-.33,2.95-.36,4.62-.15,9.23-.34,13.85-.33,1.75,0,2.43-.82,2.48-2.27.04-1.25-.27-2.51-.44-3.77-.03-.23-.23-.47-.18-.67.78-3.73-2.02-4.96-4.47-6.44-.61-.37-1.3-.63-1.82-1.1-1.65-1.47-3.02-1.02-4.11.26,0,1.6,0,2.97,0,4.34-1.49-2.13-1.27-5.05.63-6.01.82-.41,2.18-.58,2.91-.18,2.21,1.23,4.46,2.56,6.25,4.31,1.08,1.05,1.54,2.88,1.92,4.45.59,2.46.87,5,1.33,7.76-4.29,0-8.59-.06-12.89.02-2.36.04-4.71.31-7.06.48-.61.02-1.21.04-1.82.06-.1-1.15-.45-2.37.88-3.12Z"/>
    <path class="cls-2" d="m64.38,87.21q-3.56.57-2.55-2.95c.08-.28.1-.58.16-.87.34-.07.69-.14.83-.17.07-.65-.07-1.33.21-1.7.94-1.24,1.94-2.49,3.11-3.5.54-.46,1.54-.37,2.34-.53,0,.99.31,2.14-.09,2.93-1.18,2.34-2.65,4.53-4.01,6.78Z"/>
    <path class="cls-2" d="m131.54,27.92c.61-.02,1.21-.04,1.82-.06-.44.29-.89.58-1.61,1.04,0,.95,0,2.2,0,3.46,0,0-.11.06-.11.06,0,0-.13-.01-.13-.01-.21,0-.42,0-.64.01-1.13.04-2.26.08-3.39.12-.35-.92-.78-1.82-1.03-2.77-.3-1.1,0-1.81,1.38-1.74,1.23.06,2.47-.06,3.7-.1Z"/>
    <path class="cls-2" d="m136.37,21.91c-.59-1.51-1.17-3.02-2-5.14,1.48.18,2.76,0,3.61.51,2.61,1.59,2.52,2.2-.02,3.77-.39.24-.62.75-.93,1.14-.22-.1-.44-.19-.67-.29Z"/>
    <path class="cls-1" d="m136.37,21.91c.22.1.44.19.67.29.39.4.78.79,1.16,1.19-1.66-1.02-3.2-.37-4.72.37.96-.61,1.93-1.23,2.89-1.84Z"/>
    <path class="cls-1" d="m140.25,17.01c.25.48.49.96.74,1.45-.25-.48-.49-.96-.74-1.45Z"/>
    <path class="cls-1" d="m133.5,23.74c-.24.25-.49.49-.73.74.24-.25.49-.49.73-.74Z"/>
    <path class="cls-2" d="m64.69,87.53c-.11-.11-.21-.21-.32-.32.11.11.21.21.32.32Z"/>
    <path class="cls-1" d="m132.79,24.46c-.13.13-.25.25-.38.38.13-.13.25-.25.38-.38Z"/>
    <path class="cls-1" d="m202.7,215.9c1.61-.63,3.29-1.14,4.81-1.95.67-.36,1.02-1.32,1.51-2.01.63-2.24,1.34-4.46,1.83-6.73.18-.84.21-2.1-.28-2.64-1.4-1.55-3.1-2.82-4.69-4.21-3.54-1.91-7.08-3.83-10.62-5.74-2.76-1.53-5.51-3.06-8.27-4.58-.84-.45-1.68-.9-2.52-1.35-.53-.19-1.06-.55-1.58-.55-4.91.03-9.82.17-14.72.2-21.21.13-42.43.24-63.64.35-2.88.01-5.76,0-8.93,0,.78-3.91-.07-7.91,2.63-11.14.23.04.47.08.7.12,1.76,3.59,5.52,5.33,9.28,3.22,3.64-2.04,6.37-5.08,9.37-7.83,1.61-1.48,3.15-3.05,4.71-4.58.85-.84,1.39-.68,2.32.16,3.16,2.85,5.31,6.42,7.77,9.81,1.81,2.5,4.37,4.89,8.16,3.3,1.34,1.52,2.57,1.62,4.04.27.86-.79,1.58-1.72,2.47-2.47,1.74-1.46,3.7-2.7,5.31-4.29,2.1-2.07,3.99-4.36,5.87-6.64.27-.33-.07-1.15-.13-1.75,2.86-1.93,5.69-3.9,8.6-5.73.38-.24,1.45.02,1.79.4,4.33,4.93,8.86,9.72,11.05,16.15.42,1.24,1.59,2.31,2.62,3.21.39.34,1.45.13,2.12-.09,3.92-1.28,5.97-4.71,8.47-7.59,2.09-2.4,4-4.95,5.43-6.73,1.55,1.12,3.03,2.19,4.5,3.26-.98,1.37-.87,2.68.28,3.74.38.35.79.73,1.04,1.17,1.21,2.13,3.17,2.9,5.55,2.11,2.07,1.24,3.92.46,5.47-.89,3.38-2.93,7.2-5.39,9.83-9.15.55-.79,1.49-1.31,1.88-1.64.98.52,1.69,1.12,2.49,1.28,2.76.58,4.98-.58,6.87-2.49.74-.75,1.42-1.57,2.26-2.52,1.94,3.37,2.87,6.75,3.13,10.2.46,6.2.76,12.42.75,18.63-.01,7.46-2.01,14.62-3.69,21.84-2.01,8.63-5.8,16.4-10.66,23.7-3.05,4.58-6.92,8.43-11.41,11.61-4.85,3.44-10,6.34-15.63,8.31,0-1.78,0-3.57,0-5.35.39-8.21.75-16.43,1.18-24.64.14-2.59.46-5.18.7-7.77Z"/>
    <path class="cls-2" d="m104.89,160.5c.15-.2.3-.4.45-.6,3.45-.55,5.03.89,4.84,4.69,1.24,0,2.49-.14,3.7.03,2.29.31,4.48-.82,5.67-3.33-2.28.99-3.63,3.92-6.61,2.43.68-.85,1.6-1.67,2.08-2.68.74-1.56,1.51-3.23,1.64-4.9.17-2.09-1.77-2.96-3.73-2.43-2.31.62-3.87,1.83-4.75,4.01-.08.19-.43.27-.91.55-.11-1.08-.58-2.36-.21-2.69,1.48-1.32.3-2.91.74-4.28,2.68-1.86,5.57-2.47,8.76-1.61,4.22,1.13,6.45,6.59,4.45,10.93-.11,0-.22.01-.32.02h0c-.03-.39-.05-.77-.08-1.16-.19.04-.38.07-.57.11.1.47.2.93.3,1.4,0,0,0,0,0,0-.17,2.17-1.75,3.9-3.87,4.29-.27.05-.51.22-.77.33-2.72-.09-5.44-.19-8.16-.28-.88-1.61-1.76-3.21-2.65-4.82Z"/>
    <path class="cls-3" d="m107.53,165.32c2.72.09,5.44.19,8.16.28-2.58,2.4-5.15,4.8-7.73,7.2-.09.08-.18.15-.27.23-2.28,1.77-2.68,1.72-4.49-.51-.33-.41-.66-.82-.99-1.23.03-.23.05-.45.08-.68.21-.23.42-.46.62-.69.11-.13.23-.26.34-.38,0,0-.02.02-.02.02.24-.36.49-.72.73-1.08,0,0-.02,0-.02,0,.12-.12.25-.25.37-.37h0c1.07-.94,2.15-1.89,3.22-2.85v.04Z"/>
    <path class="cls-3" d="m158.08,164.86c.06.6.4,1.42.13,1.75-1.87,2.28-3.77,4.57-5.87,6.64-1.61,1.59-3.57,2.82-5.31,4.29-.89.75-1.61,1.68-2.47,2.47-1.47,1.35-2.71,1.24-4.04-.27,5.3-2.96,9.81-6.86,13.73-11.49,1.09-1.29,2.54-2.26,3.83-3.38Z"/>
    <path class="cls-6" d="m217.62,164.89c1.68-2.38,3.58-4.63,4.94-7.18.82-1.54.84-3.52,1.11-5.31.11-.74.02-1.46,1.09-1.37.4,1.89.8,3.79,1.2,5.68-.39.41-.88.76-1.15,1.23-1.1,1.92-2.01,3.95-3.21,5.8-1.5,2.32-1.59,2.26-3.97,1.16Z"/>
    <path class="cls-2" d="m102.28,170.62c-.03.23-.05.45-.08.68-1.09,1.46-2.18,2.91-3.27,4.37-.23-.04-.47-.08-.7-.12-1.11-1.54-2.21-3.07-3.32-4.61l-.2-.69c.47-.27,1.02-.46,1.41-.83.84-.78,1.6-1.65,2.63-2.74.58.73.95,1.27,1.39,1.74.69.75,1.43,1.47,2.15,2.2Z"/>
    <path class="cls-1" d="m181.25,167.43c.27.11.6.14.79.33.64.66.66,2.09,2.11,1.71,1.97-.52,3.97-.81,5.34-2.74,1.12-1.59,2.67-2.87,4.03-4.28-.33.55-.61,1.15-1,1.65-2.07,2.58-4.14,5.15-6.26,7.68-.56.66-1.28,1.19-2.15,1.99-1.01-2.25-1.93-4.29-2.85-6.33Z"/>
    <path class="cls-3" d="m209.54,174.76c-2.38.79-4.35.02-5.55-2.11-.25-.45-.66-.82-1.04-1.17-1.15-1.06-1.26-2.37-.28-3.74,2.29,2.34,4.58,4.68,6.87,7.02Z"/>
    <path class="cls-2" d="m200.83,248.31c0,1.78,0,3.57,0,5.35-.02,1.52-.03,3.03-.05,4.55-.2.13-.41.26-.61.4-.44-.88-1.48-2.26-1.24-2.55,1.77-2.06,1.07-4.44,1.26-6.71.03-.36.42-.69.64-1.04Z"/>
    <path class="cls-1" d="m180.22,165.66c.33.51.67,1.02,1,1.53-.33-.51-.67-1.02-1-1.53Z"/>
    <path class="cls-2" d="m238.51,158.38s.03.08.05.12c-.06.01-.13.02-.19.04,0-.05,0-.1.03-.13.02-.02.07-.02.11-.03Z"/>
    <path class="cls-2" d="m120.68,160.63c-.12.12-.24.24-.36.36,0,0,0,0,0,0,.12-.12.24-.24.35-.36,0,0,0,0,0,0Z"/>
    <path class="cls-4" d="m60.76,219.07c-.11-2.71-.22-5.41-.34-8.12-.08-1.63-.18-3.25-.27-4.72,19.48,0,39.15-.2,58.82.06,19.62.25,39.26-1.03,58.71.6-.32,36.47-.64,72.67-.96,109.05-2.49,0-4.76.03-7.02,0-3.91-.06-7.82-.16-11.73-.24-5.15-.11-10.3-.31-15.44-.3-7.82.01-15.63.26-23.45.25-9.73,0-19.45-.22-29.18-.25-5.86-.02-11.71.17-17.57.23-3.36.04-6.71.01-10.07.02-.1-1.42-.2-2.85-.3-4.27,0-.59-.03-1.19-.03-1.78.05-6.34.14-12.68.16-19.01,0-3.53-.12-7.05-.15-10.58-.04-4.96-.01-9.93-.08-14.89-.02-1.67-.24-3.34-.37-5.02.03-.21.06-.42.09-.64,0-1.23,0-2.46.01-3.68.06-2.52.12-5.04.18-7.56.03-1.04.06-2.07.09-3.11.13-.61.36-1.22.36-1.83-.01-3.52-.1-7.05-.12-10.57,0-.53.38-1.06.35-1.58-.09-1.85-.55-3.72-.37-5.54.24-2.37.14-4.54-1.33-6.51Z"/>
    <path class="cls-1" d="m94.71,170.24c.07.23.13.46.19.69-.53.71-1.07,1.41-1.59,2.13-.61.85-1.58,1.66-1.72,2.59-.54,3.65-.82,7.33-1.19,11-4.27.09-8.55.18-12.82.27-.14,0-.27-.01-.41-.02-2.24,0-4.48,0-6.72,0-.14,0-.27,0-.41,0-5.92.06-11.83.12-17.75.19-3.12.04-5.18,1.52-5.33,4.01-.2,3.37-.29,6.74-.28,10.12,0,.88.31,1.97.89,2.59,2.62,2.8,5.39,5.46,8.1,8.18.13.48.25.96.38,1.44.1,5.98.16,11.96.31,17.94.1,3.71.33,7.41.53,11.7-2.46-1.93-4.74-3.27-6.45-5.13-6.79-7.41-12-15.73-15.08-25.45-3.81-12.03-4.27-24.33-4.07-36.73.05-3.34.74-6.66,1.17-10.36,1.61,2.19,2.94,3.99,4.26,5.8.12.15.24.29.36.43-.16.69-.37,1.37-.46,2.07-.17,1.28-1.06,2.79.57,3.67,1.61.87,2.6-.54,3.69-1.38.27-.21.49-.51.7-.8,1.46-2.08,2.81-4.25,4.4-6.22,1.49-1.84,3.24-3.47,4.87-5.19.41.44.74,1.04,1.24,1.29.82.4,1.75.53,2.62.83.55.19,1.16.78,1.59.66,2.35-.7,2.23,1.02,2.36,2.35.21,2.09.96,3.93,2.16,5.65.71,1.02,1.47,1.28,2.53.62,3.08,1.33,4.52,1.01,6.78-1.43,1.04-1.13,2.03-2.35,3.22-3.3,3.19-2.55,6.51-4.93,9.72-7.45,3.05-2.39,3.02-2.43,5.85.35.04.04.09.08.12.13,1.89,2.26,3.78,4.51,5.66,6.77Z"/>
    <path class="cls-2" d="m61.48,260.1c.13,1.67.34,3.34.37,5.02.07,4.96.04,9.93.08,14.89.03,3.53.16,7.05.15,10.58-.02,6.34-.1,12.68-.16,19.01,0,.59.02,1.19.03,1.78-1.46-.49-.99-1.82-1.24-2.84-.13-.54-.47-1.06-.47-1.59.02-2.76.09-5.53.2-8.29.05-1.17.25-2.34.36-3.51.11-1.12-.01-2.08-1.43-2.01.55-2.24.41-4.29-.32-6.38-.27-.77.03-1.74.07-2.62.14-2.91.26-5.82.42-8.74.04-.7.06-1.44.29-2.09.63-1.79-.45-3.94,1.24-5.53.28-.26.07-1.02.1-1.55.11-2.04.21-4.08.32-6.12Z"/>
    <path class="cls-6" d="m60.76,219.07c1.47,1.96,1.56,4.13,1.33,6.51-.18,1.81.28,3.69.37,5.54.03.52-.36,1.06-.35,1.58.01,3.52.1,7.05.12,10.57,0,.61-.23,1.22-.36,1.83-.1-.45-.28-.89-.3-1.34-.27-7.77-.52-15.54-.78-23.31,0-.23-.06-.47-.1-.7.02-.23.04-.45.07-.68Z"/>
    <path class="cls-2" d="m61.59,255.78c0,1.23,0,2.46-.01,3.68,0-1.23,0-2.46.01-3.68Z"/>
    <path class="cls-3" d="m42.18,131.33c-2.34,6.54-2.82,13.38-3.18,20.22-.14,2.75-.02,5.52-.02,8.72-3.34-1.67-6.25-3.12-9.16-4.57,0,0-.14-.08-.14-.08,0,0-.16,0-.16,0-.37-.21-.74-.42-1.11-.63-1.29-.75-1.61-1.91-1.54-3.33.16-3.07.13-3.07-2.69-4.03-3.93-1.34-6.92-5.44-6.86-9.55.03-2.07.14-4.15.41-6.21.1-.73.68-1.45,1.18-2.06.9-1.09,2.02-2.01,2.85-3.15,1.1-1.51.33-3.01-.26-4.54-2.19-5.62-2.05-11.33.36-16.77,1.82-4.12,7.68-5.45,11.7-3.15,1.91,1.09,3.38,2.55,4.28,4.6.78,1.79,1.8,3.48,2.57,5.27.53,1.24.86,2.57,1.24,3.86.71,2.42,1.4,4.85,2.1,7.28.03.12.06.23.09.35-.55,2.59-1.1,5.18-1.65,7.77Z"/>
    <path class="cls-2" d="m43.83,123.56c-.03-.12-.06-.23-.09-.35.82-2.25,1.65-4.5,2.46-6.76.09-.26.09-.56.37-.83,1.54,2.62-1.08,5.04-.46,7.94h-2.27Z"/>
    <path class="cls-2" d="m28.4,154.98c.37.21.74.42,1.11.63-.69.36-1.2.38-1.11-.63Z"/>
    <path class="cls-3" d="m228.66,148.17c-.04-.47-.08-.94-.12-1.42.13-3.24.31-6.48.36-9.73.03-1.98-.16-3.97-.25-5.96-.41-3.74-.83-7.49-1.23-11.23-.59-5.41-1.16-10.81-1.74-16.22.81-4.53,1.08-9.18,3.03-13.47,1.13-2.5,3.12-3.17,5.43-1.67,1.99,1.29,2.9,3.27,3.42,5.43,1.19,4.92.44,9.91.29,14.87-.04,1.09-.5,2.19-.89,3.24-.87,2.3-.16,3.36,2.33,3.37.95,0,1.9-.07,2.85-.03,2.22.08,3.12.77,3.64,2.9.23.91.31,1.87.36,2.81.25,4.67.43,9.35.7,14.02.09,1.52-.58,2.43-1.69,3.44-2.17,1.99-4.27,4.13-5.98,6.5-.88,1.22-.87,3.09-1.3,4.81-1.67-.14-2.46,1.06-3.15,2.57-.68,1.48-1.6,2.84-2.42,4.26-1.27-2.97-2.45-5.74-3.64-8.52Z"/>
    <path class="cls-5" d="m228.66,131.07c.09,1.99.27,3.97.25,5.96-.05,3.24-.23,6.48-.36,9.73-1.23-.36-2.45-.71-3.68-1.07-.02-3.48-.03-6.97-.08-10.45-.02-1.29-.14-2.58-.21-3.87.37.26.75.52,1.12.79,1.33.97,2.39.59,2.96-1.08Z"/>
    <path class="cls-5" d="m94.71,170.24c-1.89-2.26-3.77-4.51-5.66-6.77-.04-.05-.08-.09-.12-.13-2.83-2.79-2.8-2.75-5.85-.35-3.21,2.52-6.53,4.91-9.72,7.45-1.19.95-2.18,2.17-3.22,3.3-2.25,2.44-3.7,2.76-6.78,1.43-1.83-2.22-1.81-5.04-2.51-7.63-.89-3.27-1.85-6.52-2.93-10.32-2.61,2.42-4.83,4.49-7.06,6.55-1.63,1.72-3.38,3.35-4.87,5.19-1.59,1.97-2.94,4.14-4.4,6.22-.2.29-.42.59-.7.8-1.09.84-2.08,2.25-3.69,1.38-1.63-.88-.74-2.39-.57-3.67.09-.7.31-1.38.46-2.07,3.77.5,3.92.12,4.36-3.87.17-1.5,1.7-2.86,2.61-4.28.12-.13.25-.26.37-.38,0,0-.02.02-.02.02,2.29-2.1,4.55-4.24,6.89-6.29,1.74-1.52,3.51-3.01,5.4-4.32,2.51-1.74,4.7-.81,5.5,2.16,1.2,4.44,2.4,8.88,3.62,13.31.17.61.44,1.2.72,1.95,2.21-1.93,4.25-3.78,6.36-5.52,3.65-3.01,7.33-5.98,11.03-8.93,1.26-1,3.36-.72,4.99.82,2.49,2.36,4.88,4.83,7.28,7.28.82.84,1.53,1.8,2.5,2.95,2.09-2.03,4.14-4.03,6.19-6.03.88,1.6,1.76,3.21,2.65,4.82,0,0,0-.04,0-.04-1.92,0-2.53,1.47-3.22,2.86,0,0,0-.01,0-.01-.12.12-.25.25-.37.37,0,0,.02,0,.02,0-.24.36-.49.72-.73,1.08,0,0,.02-.02.02-.02-.11.13-.23.26-.34.38-.21.23-.42.46-.62.69-.72-.73-1.45-1.44-2.15-2.2-.44-.48-.81-1.01-1.39-1.74-1.03,1.08-1.79,1.95-2.63,2.74-.39.36-.93.56-1.41.83Z"/>
    <path class="cls-3" d="m44.42,163.11c-.12.13-.25.26-.37.38.12-.13.25-.26.37-.38Z"/>
    <path class="cls-2" d="m25.19,36.58c.24.64.49,1.27.92,2.41-3.35-1.54-6.14-2.87-8.97-4.12-.98-.43-2.04-.72-3.08-1.01-1.68-.46-3.47-.69-5.05-1.37-.95-.41-1.6-1.51-2.39-2.3,1.25.28,2.53.49,3.76.86,1.46.44,2.85,1.24,4.34,1.48,3.79.62,7.11,2.34,10.46,4.05Z"/>
    <path class="cls-5" d="m252.55,10.95s.05-.09.07-.14c-.03.05-.05.09-.08.14,0,0,0,0,0,0Z"/>
    <path class="cls-5" d="m182.26,206.59c3,.77,5.65,1.25,8.15,2.14,2.5.88,4.87,2.14,7.26,3.31.28.13.49.73.47,1.1-.37,6.78-.81,13.56-1.18,20.35-.39,7.2-.86,14.4-1.04,21.61-.25,10-.25,20-.39,30-.09,6.93-.22,13.86-.39,20.79-.01.53-.38,1.29-.81,1.52-3.91,2.05-7.88,4.02-11.83,5.99-.14.07-.34.04-.75.08-.04-.77-.13-1.5-.11-2.22.18-7.79.49-15.57.55-23.36.06-8.3-.17-16.6-.16-24.9.01-6.52.25-13.03.3-19.55.06-7.33-.02-14.67.04-22,.02-3.31.27-6.62.31-9.93.02-1.44-.22-2.89-.4-4.92Z"/>
    <path class="cls-6" d="m59.38,201.23c-1.74.11-3.48.21-5.22.33-1.52.1-2.16-.86-2.55-2.12.09-1.76.25-3.53.25-5.29,0-1.59.66-2.21,2.24-2.22,5.42-.05,10.85-.21,16.27-.27,7.04-.08,14.08-.11,21.13-.16,1.4,0,2.79,0,4.19,0,3.37-.07,6.74-.17,10.11-.2,4.66-.04,9.32-.05,13.98-.05,7.33,0,14.66,0,22,0,5.46,0,10.92,0,16.39,0,1.47,0,2.93-.06,4.4-.08,3.61-.06,7.22-.11,10.82-.16h8.08c.2,3.75.39,7.2.59,10.89-1.43,0-3.11.04-4.79,0-4.84-.12-9.68-.33-14.51-.4-9.04-.12-18.09-.18-27.13-.23-5.93-.03-11.87.02-17.8.02-4.97,0-9.94.02-14.91-.02-4.64-.04-9.27-.19-13.91-.25-4.32-.06-8.64-.1-12.96-.07-3.76.03-7.52.17-11.29.26.35-.41.7-.82,1.22-1.44-.77-.51-1.45-.96-2.03-1.33.74-.95,1.48-1.9,2.23-2.86-.13-.13-.25-.26-.38-.38-.5.24-.98.55-1.51.68-.46.12-1.02.15-1.46,0-.93-.31-1.82-.75-3.08-1.3,1.31,3.07-1.38,3.8-2.16,5.05.7.63,1.25,1.13,1.79,1.62Zm19.61-5.68c-2.85.45-5.68,1.29-8.54-.11-.41-.2-1.17.3-2.19.61,6.43,1.57,12.24,2.99,18.16,4.43.81-.91,1.59-1.48,2.83-.2.45.46,2.17.46,2.62,0,1.29-1.3,2.31-.65,3.51-.11,3.08,1.38,4.71.42,5-2.85.03-.4.13-.79.21-1.27-.94-.31-1.86-.49-2.67-.9-2.34-1.17-4.63.5-7.01,0-1.53-.32-3.31.49-4.82.13-1.94-.47-3.67-.35-5.49.25-.48.16-1.07.01-1.61,0,.21-.24.42-.49.63-.73l-.37-.2c-.08.31-.17.62-.25.93Z"/>
    <path class="cls-5" d="m173.38,191c-3.61.05-7.22.1-10.82.16-1.47.02-2.93.08-4.4.08-5.46.01-10.92.01-16.39,0-7.33,0-14.66-.01-22,0-4.66,0-9.32,0-13.98.05-3.37.03-6.74.13-10.11.2.02-.53.05-1.05.05-1.58,0-3.27,0-3.28-3.14-3.27-.7,0-1.4.07-2.1.1,0,0-.09-.09-.09-.09.37-3.67.65-7.36,1.19-11,.14-.93,1.11-1.74,1.72-2.59.51-.72,1.06-1.42,1.59-2.13,1.11,1.54,2.21,3.07,3.32,4.61-2.7,3.24-1.85,7.23-2.63,11.14,3.16,0,6.05.01,8.93,0,21.21-.11,42.43-.22,63.64-.35,4.91-.03,9.82-.17,14.72-.2.53,0,1.05.36,1.58.55-.34.33-.69.97-1.02.95-2.06-.08-2.08,1.27-2,2.76h-3.56c0-.08-.02-.16-.02-.23.61-.17,1.22-.34,1.84-.51-.01-.14-.03-.27-.04-.41-.48,0-.97.08-1.43-.02-.61-.14-1.57-.29-1.71-.68-.55-1.5-1.35-.77-2.39-.47,1.65,1.6-.69,1.86-.75,2.91Zm7.31-1.3c-.1-.03-.17-.05-.24-.08.01.04.02.09.04.13.05-.01.1-.03.2-.06Z"/>
    <path class="cls-5" d="m91.5,191.49c-7.04.05-14.08.08-21.13.16-5.42.06-10.85.22-16.27.27-1.58.01-2.25.63-2.24,2.22,0,1.76-.16,3.53-.25,5.29-.81-.12-1.61-.24-2.8-.42.08,1.14-.18,2.35.3,3.08.97,1.49,2.32,2.72,3.56,4.02.12.12.53-.04.38-.02.68.75,1.08,1.33,1.61,1.74,1.48,1.14,1.42,2.6,1.01,4.16-2.71-2.71-5.48-5.38-8.1-8.18-.58-.61-.89-1.71-.89-2.59,0-3.37.08-6.75.28-10.12.15-2.49,2.21-3.97,5.33-4.01,5.92-.07,11.83-.13,17.75-.19.14,0,.27,0,.41,0,2.24,0,4.48,0,6.72,0,.14,0,.27.01.41.02,4.27-.09,8.55-.18,12.82-.27,0,0,.09.09.09.09.08.9.09,1.82.27,2.71.14.7.49,1.36.74,2.04Z"/>
    <path class="cls-4" d="m186.85,193.5c4.04,2.25,7.65,4.23,11.23,6.27,2.26,1.29,4.43,2.72,6.72,3.96,1.19.65,1.4,1.38.97,2.58-.39,1.08-.59,2.23-.92,3.52-2.29-1.09-4.31-2.12-6.4-3.03-3.4-1.47-6.85-2.84-10.25-4.3-.36-.15-.8-.6-.83-.95-.22-2.52-.34-5.05-.52-8.06Z"/>
    <path class="cls-4" d="m59.38,201.23c-.55-.5-1.1-.99-1.79-1.62.78-1.25,3.47-1.98,2.16-5.05,1.26.54,2.15.99,3.08,1.3.44.15,1,.12,1.46,0,.53-.13,1.01-.45,1.51-.68.13.13.25.26.38.38-.75.96-1.49,1.91-2.23,2.86.58.38,1.26.83,2.03,1.33-.53.62-.87,1.03-1.22,1.44-1.79.01-3.58.03-5.37.04Z"/>
    <path class="cls-5" d="m205.88,198.36c1.58,1.38,3.28,2.66,4.69,4.21.49.54.47,1.8.28,2.64-.5,2.27-1.21,4.49-1.83,6.73-.29-.35-.84-.72-.81-1.04.1-1.16.53-2.3.6-3.47.07-1.37.19-2.82-1.14-3.86-.32-.25-.34-.88-.58-1.56-.29.09-.8.26-1.26.4-.17-.44-.22-1.12-.58-1.38-1.42-1.04-1.44-1.27.09-2.27.19-.12.37-.27.55-.41Z"/>
    <path class="cls-5" d="m186.99,188.03c2.76,1.53,5.51,3.06,8.27,4.58-1.31.34-2.63.69-3.94,1.03-.05.01-.15.02-.17,0-1.03-1.66-2.54-.9-3.95-.87-.42,0-1.03-.56-1.19-.99-.1-.25.52-.77.67-.97.11-1,.21-1.89.31-2.77Z"/>
    <path class="cls-5" d="m60.37,203.51c.58,0,1.17.09,1.73-.02,1.43-.28,3.01-.35,4.23-1.03,2.25-1.25,4.08.14,6.07.52.61.12,1.17.43,1.74,1.1h-13.76c0-.19,0-.38-.01-.57Z"/>
    <path class="cls-5" d="m66.41,319.46c-.96,0-1.93.03-2.89-.03-.16-.01-.37-.42-.4-.66-.02-.13.29-.46.43-.45.99.1,1.96.27,2.95.42-.03.24-.05.48-.08.73Z"/>
    <path class="cls-5" d="m105.21,318.6c.72.07,1.44.14,2.16.21-.02.19-.04.37-.06.56-.71-.09-1.42-.18-2.12-.26,0-.17.02-.34.03-.51Z"/>
    <path class="cls-5" d="m195.88,310.66s.05-.1.08-.15c-.03.05-.06.1-.08.14h0Z"/>
    <path class="cls-5" d="m195.88,310.66s-.05.1-.08.15c.03-.05.05-.1.08-.14,0,0,0,0,0,0Z"/>
    <path class="cls-5" d="m144.61,122.55c.4-1.33,1.32-1.46,2.45-1.04.61.23,1.24.43,1.81.74,1.73.93,3.65,1.86,3.73,4.14.08,2.36-.84,4.39-2.95,5.72-.29.19-.57.39-.94.64.16.24.26.44.41.6,2.86,2.95,2.21,6.82-1.38,8.89-5.58,3.21-11.65,3.32-17.79,2.89-1.33-.09-2.69-.57-3.91-1.12-4.22-1.92-7.61-5.9-2.06-10.67-.8-1.47-1.64-2.87-2.33-4.34-1.12-2.37-.5-4.21,1.95-5.18,4.13-1.65,8.41-2.86,12.89-3.03,1.89-.07,3.79.05,5.69.12,1.05.04,1.77.53,1.99,1.62-.83.34-1.65.93-2.5.97-2.46.13-4.98-.26-7.38.11-2.95.46-5.81,1.45-8.69,2.29-1.06.31-1.21,1.11-.78,2.13,1.15,2.77,2.51,3.75,5.56,3.78,4.27.04,8.53.05,12.8.07-.36.77-.73,1.55-1.09,2.32-1.2.01-2.4.03-3.6.04-.22,0-.44,0-.67,0-2.14-.04-4.27-.09-6.41-.13-1.9-2.32-5.01-2.68-6.68-.6.95.38,1.84.74,2.73,1.1,0,.11-.02.21-.06.31-.22.1-.45.2-.67.3-.35.27-.71.54-1.06.8,0,0,0,0,0,0-1.4,1.22-1.67,3.08-.32,4.07,1.39,1.02,2.99,2.12,4.61,2.36,2.89.43,5.92.55,8.82.22,2.88-.33,5.83-1.03,7.95-3.4,0,0,0,0,0,0,.21-1.05.41-2.1.62-3.15.16-1.11.32-2.21.5-3.46-.37-.2-.89-.6-1.48-.78-.57-.17-1.22-.12-1.83-.16.93-.47,1.88-.91,2.78-1.42,1.27-.72,1.93-1.79,1.96-3.31.03-1.54-1.1-1.9-2.11-2.51-.9-.54-1.7-1.27-2.54-1.91Z"/>
    <path class="cls-4" d="m144.61,122.55c.84.64,1.64,1.37,2.54,1.91,1.01.61,2.14.97,2.11,2.51-.03,1.52-.69,2.59-1.96,3.31-.91.52-1.86.95-2.78,1.42-.45.05-.9.1-1.36.16-4.27-.02-8.53-.03-12.8-.07-3.04-.03-4.41-1.01-5.56-3.78-.43-1.03-.28-1.82.78-2.13,2.88-.84,5.75-1.83,8.69-2.29,2.41-.37,4.92.02,7.38-.11.85-.04,1.67-.63,2.5-.97.15.01.3.02.44.04Z"/>
    <path class="cls-5" d="m170.61,113.5c-4.41.38-6.39-2.41-6.39-5.34,0-3.21,1.85-5.6,4.65-7.03,2.59-1.32,6.01-.41,7.83,1.8,1.33,1.61,1.04,5.14-.64,7.31-1.71,2.21-4.12,3.09-5.45,3.27Zm-1.8-5.51s-.04,0-.06,0c0-.47.18-1.06-.04-1.38-.33-.5-.93-.81-1.41-1.2-.34.46-.9.89-.96,1.38-.1.85,0,1.76.22,2.6.12.46.63.82.97,1.22.39-.4.88-.75,1.13-1.23.2-.38.11-.92.14-1.38Z"/>
    <path class="cls-5" d="m107.79,151.29c-.44,1.37.74,2.96-.74,4.28-.37.33.1,1.61.21,2.69.48-.28.84-.36.91-.55.88-2.19,2.44-3.39,4.75-4.01,1.96-.52,3.9.34,3.73,2.43-.13,1.67-.91,3.34-1.64,4.9-.48,1.02-1.4,1.83-2.08,2.68,2.99,1.49,4.33-1.44,6.61-2.43-1.19,2.51-3.39,3.64-5.67,3.33-1.21-.16-2.46-.03-3.7-.03.18-3.8-1.39-5.24-4.84-4.69-.5-2.46-.69-4.9.79-7.11.4-.6,1.1-1,1.66-1.49Z"/>
    <path class="cls-2" d="m103.94,108.94c.13.84.29,1.68.37,2.52.24,2.71-1.68,5.52-4.41,6-1.7.3-3.49.04-5.23.04.07-.32.28-.85.19-.92-1.86-1.24-1.78-3.15-1.54-4.95.11-.79.9-1.94,1.58-2.11,1.2-.3,1.91.72,1.89,1.94-.03,1.78,1.17,1.63,2.27,1.51,1.24-.14,1.54-.89,1.09-2.04-.21-.54-.25-1.14-.37-1.76,1.15-.87,2.25-1.66,3.53-.2.09.1.43-.02.65-.04Z"/>
    <path class="cls-5" d="m103.94,108.94c-.22.02-.56.14-.65.04-1.28-1.46-2.38-.67-3.53.2.13.62.16,1.22.37,1.76.45,1.15.15,1.9-1.09,2.04-1.11.13-2.3.27-2.27-1.51.02-1.22-.69-2.24-1.89-1.94-.68.17-1.47,1.32-1.58,2.11-.24,1.79-.32,3.71,1.54,4.95.1.07-.12.6-.19.92-1.97-.52-3.13-1.81-3.16-3.92-.05-3.21,1-6.06,3.34-8.32,1.59-1.54,4.52-1.74,6.22-.21,1.18,1.06,1.93,2.58,2.88,3.89Z"/>
    <path class="cls-5" d="m130.87,32.42c.21,0,.42,0,.64-.01-.21,0-.42,0-.64.01Z"/>
    <path class="cls-5" d="m120.68,160.62c-.12.12-.24.24-.35.36-.1-.47-.2-.93-.3-1.4.19-.04.38-.07.57-.11.03.38.05.77.08,1.15Z"/>
    <path class="cls-2" d="m104.31,168.14c.69-1.39,1.29-2.86,3.22-2.86-1.07.95-2.15,1.91-3.22,2.86Z"/>
    <path class="cls-2" d="m103.23,169.56c.24-.36.49-.72.73-1.08-.24.36-.49.72-.73,1.08Z"/>
    <path class="cls-2" d="m102.91,169.93c.11-.13.23-.26.34-.38-.11.13-.23.26-.34.38Z"/>
    <path class="cls-2" d="m103.94,168.49c.12-.12.25-.25.37-.37-.12.12-.25.25-.37.37Z"/>
    <path class="cls-3" d="m50.85,163.79c2.22-2.07,4.45-4.13,7.06-6.55,1.08,3.8,2.05,7.05,2.93,10.32.7,2.59.68,5.41,2.51,7.63-1.05.65-1.81.4-2.53-.62-1.19-1.72-1.94-3.55-2.16-5.65-.14-1.33-.01-3.05-2.36-2.35-.42.13-1.04-.47-1.59-.66-.87-.3-1.81-.43-2.62-.83-.5-.24-.84-.85-1.24-1.29Z"/>
    <path class="cls-6" d="m70.46,186.91c-.14,0-.27,0-.41,0,.14,0,.27,0,.41,0Z"/>
    <path class="cls-6" d="m77.58,186.92c-.14,0-.27-.01-.41-.02.14,0,.27.01.41.02Z"/>
    <path class="cls-4" d="m78.98,195.55c.54,0,1.13.15,1.61,0,1.82-.61,3.55-.72,5.49-.25,1.51.36,3.29-.45,4.82-.13,2.38.5,4.67-1.17,7.01,0,.81.41,1.73.59,2.67.9-.08.48-.17.87-.21,1.27-.28,3.27-1.92,4.22-5,2.85-1.2-.54-2.22-1.19-3.51.11-.46.46-2.18.46-2.62,0-1.24-1.28-2.02-.71-2.83.2-5.91-1.44-11.73-2.86-18.16-4.43,1.01-.3,1.77-.81,2.19-.61,2.86,1.4,5.69.56,8.54.11h0Z"/>
    <path class="cls-2" d="m91.5,191.49c-.26-.68-.6-1.34-.74-2.04-.18-.88-.19-1.8-.27-2.71.7-.03,1.4-.1,2.1-.1,3.14-.01,3.14,0,3.14,3.27,0,.53-.03,1.05-.05,1.58-1.4,0-2.79,0-4.19,0Z"/>
    <path class="cls-4" d="m78.99,195.55c.08-.31.17-.62.25-.93l.37.2-.63.73s0,0,0,0Z"/>
    <path class="cls-2" d="m180.69,189.7c-.1.03-.15.04-.2.06-.01-.04-.02-.09-.04-.13.07.02.13.04.24.08Z"/>
    <path class="cls-4" d="m126.72,135.21c.22-.1.45-.2.67-.3,1.89.02,3.78.14,5.66.02,1.6-.1,3.17-.46,4.76-.7.22,0,.44,0,.67,0,.54.14,1.1.44,1.61.38,4.55-.52,6.54.85,6.62,4.65,0,0,0,0,0,0-.98.16-2.43-.03-2.85.55-1.12,1.51-2.73,1.24-4.09,1.49-2.41.45-7.61-.95-9.95-2.23-.28-.15-.74-.21-1.02-.09-1.53.67-2.42-.31-3.3-1.05.06-.75.1-1.33.15-1.91,0,0,0,0,0,0,.35-.27.71-.54,1.06-.8Z"/>
    <path class="cls-6" d="m125.65,136.02c-.04.58-.09,1.17-.15,1.91.88.74,1.77,1.72,3.3,1.05.28-.12.74-.06,1.02.09,2.33,1.28,7.54,2.68,9.95,2.23,1.36-.26,2.97.02,4.09-1.49.42-.57,1.87-.39,2.85-.55-2.11,2.37-5.07,3.07-7.95,3.4-2.9.34-5.92.21-8.82-.22-1.63-.24-3.22-1.34-4.61-2.36-1.35-.99-1.08-2.85.32-4.07Z"/>
    <path class="cls-2" d="m143.17,131.86c.45-.05.9-.1,1.36-.16.61.04,1.26-.01,1.83.16.59.18,1.11.58,1.48.78-.18,1.25-.34,2.35-.5,3.46-1.45-1.47-3.21-2.08-5.26-1.93.36-.77.73-1.55,1.09-2.32Z"/>
    <path class="cls-2" d="m127.45,134.6c-.89-.36-1.78-.72-2.73-1.1,1.68-2.08,4.79-1.72,6.68.6-1.32.17-2.63.34-3.95.51Z"/>
    <path class="cls-6" d="m142.08,134.18c2.04-.15,3.81.45,5.26,1.93-.21,1.05-.41,2.1-.62,3.15-.08-3.79-2.08-5.17-6.62-4.65-.52.06-1.07-.25-1.61-.38,1.2-.01,2.4-.03,3.6-.04Z"/>
    <path class="cls-6" d="m127.45,134.6c1.32-.17,2.63-.34,3.95-.51,2.14.05,4.27.09,6.41.14-1.59.24-3.17.61-4.76.7-1.88.11-3.77,0-5.66-.02.04-.1.06-.2.06-.31Z"/>
    <path class="cls-6" d="m126.72,135.21c-.35.27-.71.54-1.06.8.35-.27.71-.54,1.06-.8Z"/>
    <path class="cls-2" d="m168.81,107.99c-.04.47.06,1-.14,1.38-.25.48-.75.82-1.13,1.23-.33-.4-.85-.76-.97-1.22-.21-.84-.32-1.75-.22-2.6.06-.49.62-.92.96-1.38.48.39,1.08.71,1.41,1.2.22.33.04.91.04,1.38.02,0,.04,0,.06,0Z"/>
  </g>
</svg>