<?xml version="1.0" encoding="UTF-8"?>
<svg id="_图层_2" data-name="图层 2" xmlns="http://www.w3.org/2000/svg" viewBox="0 0 298.66 333.88">
  <defs>
    <style>
      .cls-1 {
        fill: #f1c882;
      }

      .cls-1, .cls-2, .cls-3, .cls-4, .cls-5, .cls-6 {
        stroke-width: 0px;
      }

      .cls-2 {
        fill: #9b9fa0;
      }

      .cls-3 {
        fill: #907d7b;
      }

      .cls-4 {
        fill: #fbfbfc;
      }

      .cls-5 {
        fill: #fbebc5;
      }

      .cls-6 {
        fill: #eef6f8;
      }
    </style>
  </defs>
  <g id="_图层_1-2" data-name="图层 1">
    <path class="cls-3" d="m38.36,141.83c2.92-12.79,6.23-24.94,11.71-36.53-3.06.76-5.74,2.39-8.86,2.6-1.4.1-2.39-.53-2.5-1.91-.12-1.55.56-2.86,1.08-4.26,8.17-21.97,22.83-38.13,43.69-48.65,4.75-2.4,9.81-4.15,14.82-5.99,2.87-1.06,5.73-2.15,8.72-2.71,4.57-.86,9.19-1.46,13.79-2.16,3.76-.57,7.53-.86,11.33-.77.91.02,1.5-.48,1.6-1.27.49-3.9,2.77-6.25,6.22-7.83,1.35-.62.43-1.88.3-2.87-.59-4.39.13-9.18,6.1-10.48,3.33-.72,6.2.22,8.75,1.69,6.07,3.52,9.65,8.88,10.57,16,.24,1.82.18,3.61.33,5.41.05.6-.46,1.39.61,1.71.95.28,1.71.47,2.55-.4,2.79-2.9,5.51-5.86,8.87-8.16,3.54-2.42,7.06-4.95,11.03-6.56,5.79-2.34,11.48-5.09,17.73-6.1,2.5-.4,5.06-.43,7.55-.85,3.96-.68,7.96-.11,11.93-.52,1.47-.15,3.09.27,4.55.54,4.28.8,8.66.93,12.87,2.21,22.6,6.9,38.97,20.91,48.55,42.58,1.98,4.49,3.69,9.11,4.54,14.07.46,2.7,1.11,5.42,1.38,8.15.51,5.08.73,10.13.16,15.29-.52,4.68-1.2,9.31-2.43,13.81-1.29,4.72-3.06,9.3-5.23,13.73-5.24,10.69-12.56,19.66-22.09,26.68-5.92,4.36-12.36,8.01-19.39,10.42-2.29.79-4.37,2.12-6.81,2.52-.93.15-.95.51-.65,1.55.71,2.53,1.63,5.1,1.15,7.85-.29,1.62.26,2.91,1.59,3.92,2.78,2.11,4.53,4.96,5.9,8.12,4.47,10.32,5.16,20.94,2.37,31.75-.93,3.62-2.7,6.99-5.18,9.86-2.07,2.4-2.24,5.08-1.82,8.07.47,3.37.52,6.84,0,10.17-.33,2.1.12,4.1-.14,6.15-1.12,8.95-2.14,17.89-5.67,26.33-1.76,4.21-3.71,8.32-6.61,11.84-5.15,6.25-11.14,11.59-18.9,14.23-4.19,1.43-8.15,3.47-12.46,4.55-.41.1-1.15-.13-1.08.7.05.66.29,1.24,1.03,1.41,1.35.32,2.71.58,4.04.95,1.7.47,3.4.95,5.06,1.54,1.77.63,2.5,1.95,2.07,3.44-.39,1.35-2.42,2.7-3.81,2.38-1.88-.43-3.74-.98-5.72-1.51-.06,1.12.53,2.06.71,3.08.15.8.35,1.61.38,2.42.06,2.09-1.01,3.56-2.65,3.8-1.66.24-3.2-.8-3.79-2.71-1.16-3.79-2.27-7.6-3.38-11.41-.63-2.17-1.13-2.69-3.17-2.1-5.14,1.49-10.38,2.33-15.7,2.75-3.94.32-7.89.52-11.83.74-7.43.42-14.85.63-22.27.42-6.37-.18-12.76.18-19.1-.58-4.37-.53-8.77-.72-13.13-.98-8.53-.51-16.95-1.54-25.28-3.31-1.15-.25-1.47-.03-1.71,1.15-.87,4.39-1.85,8.76-2.89,13.11-.46,1.93-2.43,3.07-4.21,2.67-1.29-.29-2.36-2.24-2.09-4.01.25-1.66.6-3.31.94-5.11-1.89.55-3.64.97-5.34,1.56-2.02.7-3.87-.93-4.52-2.72-.57-1.58.27-3.02,2-3.46,2.74-.71,5.51-1.31,8.27-1.95.69-.16,1.2-.36,1.5-1.19.46-1.29.31-1.8-1.14-2.21-7.99-2.28-15.7-5.17-22.53-10.13-7.06-5.12-11.93-11.93-15.76-19.6-3.57-7.15-5.36-14.77-6.66-22.65-2.56-15.5-1.79-31.04-1.24-46.59.13-3.77.24-7.56.56-11.32.07-.79-.22-.87-.77-1.16-1.74-.89-3.39-1.94-5.13-2.83-3.33-1.7-5.63-4.6-8.14-7.19-2.02-2.08-2.83-4.89-2.09-7.9.19-.79.11-1.24-.59-1.89-3.33-3.11-6.53-6.49-6.88-11.3-.39-5.37-.75-10.9,3.96-14.97.53-.45.54-.89.42-1.5-.52-2.51-1.17-5-1.47-7.54-.6-5.19.39-10.08,2.75-14.81,1.93-3.88,5.29-5.45,9.08-5.85,3.39-.36,6.48,1.19,8.98,3.66,3.25,3.2,6.49,6.39,8.74,10.88Zm108.85-33.75c-1.61.94-3.07,1.76-4.51,2.63-5.23,3.16-10.35,6.52-15.78,9.36-4.1,2.15-6.23,1.71-9.24-1.82-3.34-3.91-5.94-8.29-8.36-12.8-1.17-2.19-.72-2.5-3.38-.9-4.38,2.63-8.88,4.96-13.88,6.32-5.34,1.46-10.25,4.13-15.22,6.51-4.45,2.13-8.7.5-10.09-3.78-1.04-3.18-1.68-6.46-2.38-9.72-.69-3.22-.73-3.29-3.81-2.55-1.29.31-2.63.85-3.29,2.18-2.66,5.39-5.23,10.82-7.04,16.58-5.17,16.42-8.63,33.19-11.21,50.19-1.15,7.6-2.06,15.22-2.84,22.85-1.1,10.72-1.53,21.5-1.72,32.28-.21,12.29-.53,24.55,1.57,36.76,1.6,9.32,4.34,18.14,9.58,26.09,1.95,2.96,4.12,5.73,6.76,8.12,6.46,5.84,14.11,9.41,22.39,11.8,3.75,1.08,3.74,1.1,4.93-2.54.12-.36.24-.72.41-1.06.76-1.42,2.43-2.1,3.85-1.59,1.62.59,2.67,2.29,2.31,3.86-.21.92-.49,1.84-.89,2.68-.53,1.11-.1,1.38.93,1.55,6.25,1,12.46,2.29,18.73,3,6.97.78,13.99,1.12,20.99,1.5,6.29.34,12.59,0,18.9.3,3.86.18,7.76.42,11.64-.49,2.52-.59,5.1.47,7.69.23,6.28-.59,12.61-.66,18.82-2.05,3.06-.69,6.2-.99,9.32-1.78-.7-1.52-1.44-2.91-2-4.38-.6-1.56-.07-2.8,1.37-3.68,1.39-.84,2.63-.82,3.83.38,1.21,1.22,1.72,2.82,2.08,4.37.37,1.62,1.05,1.84,2.46,1.43,5.4-1.57,10.6-3.61,15.62-6.16,7.84-3.98,13.51-10.03,17.3-17.88,3.91-8.12,5.52-16.84,6.4-25.73.59-6.02.53-12.05.45-18.28-.98.51-1.72.97-2.51,1.3-2.13.89-4.25,1.85-6.66,1.69-1.91-.13-2.38.38-2.21,2.44.37,4.55-1.22,8.42-4.24,11.7-3.08,3.34-7.08,5.05-11.51,4.98-7.62-.11-13.04-5.21-14.97-10.84-1.43-4.2-.97-8.55-.68-12.77.76-10.8.66-21.64,1.74-32.44.6-6.01.22-12.11.82-18.16.32-3.19.98-4.4,3.89-5.4,1.38-.48,2.7-2.47,2.13-3.75-.91-2.06-.16-3.97,0-5.97.09-1.16.82-2.84-1.21-3.24-2.59-.51-5.02-1.5-7.5-2.36-5.19-1.81-10.23-3.94-14.88-6.91-10.49-6.7-18.95-15.32-25.11-26.19-1.71-3.01-3.22-6.09-4.59-9.25-2.55-5.91-4.29-12.04-5.19-18.63Zm-101.13-7.19c.9-.3,1.41-.47,1.91-.65,4.95-1.78,9.87-3.62,14.85-5.32,3.12-1.07,5.46.32,6.18,3.53.82,3.62,1.58,7.26,2.37,10.89.77,3.51,1.1,3.71,4.42,2.58.53-.18,1.06-.37,1.56-.61,4.93-2.33,9.79-4.9,14.99-6.55,3.99-1.27,7.59-3.05,11.09-5.31,5.86-3.79,7.41-3.26,10.71,2.9,2.24,4.17,4.61,8.25,7.55,11.98.59.75,1.07,1.28,2.18.68,3.24-1.77,6.54-3.44,9.76-5.24,4-2.23,7.68-5.03,11.54-7.5,1.07-.68,1.53-1.41,1.49-2.72-.13-4.43.22-8.84.75-13.23,1.37-11.29,5.9-21.42,11.77-31,1.31-2.14,2.91-4.1,4.38-6.15-1.67-.75-3.41-.74-5.13-.89-3.89-.33-7.76-.96-11.65-1.1-5.41-.19-10.84-.14-16.26.04-2.14.07-4.28-.41-6.38,0-2.64.51-5.31.8-7.94,1.39-5.39,1.19-10.77,2.45-16.01,4.12-5.93,1.88-11.57,4.44-16.96,7.66-7.43,4.44-14.7,9.01-20.72,15.33-.97,1.02-1.62,2.24-2.53,3.27-4.05,4.62-7.39,9.74-10.55,14.98-1.26,2.09-2.36,4.27-3.37,6.91Zm176.41,65.58c38.66.63,68.88-31.01,69.2-67.95.34-39.52-29.74-70.05-68.79-70.29-39.84-.25-69.18,30.82-69.37,69.48-.19,37.71,30.81,69.38,68.96,68.77Zm-192.47,30.26c.49-5.07,1.13-9.93,1.61-14.81,1-10.22,2.96-20.31,4.68-30.43.11-.66.06-1.21-.28-1.8-1.93-3.4-3.81-6.83-6.1-10.01-1.56-2.16-3.27-4.18-5.65-5.5-3.49-1.92-6.59-.94-8.28,2.67-1.11,2.37-1.49,4.91-1.6,7.53-.16,4.12,1.02,7.98,2.11,11.85.5,1.77.17,3.05-1.48,4-1.98,1.14-2.97,3-3.56,5.14-1.53,5.61,1.47,12.27,6.77,14.25,2.4.9,2.72,2.2,1.6,4.5-1.33,2.75-1.14,4.03.93,6.31,2.5,2.75,5.57,4.69,9.23,6.29Zm204.25-9.04c-.76,0-1.47-.08-2.15.01-3.23.45-6.44,1-8.2,4.24-1.86,3.41-1.4,6.27,1.44,9.73,2.66,3.23,2.68,3.54.46,7.11-3.56,5.75-2.39,12.24,2.95,16.3.4.31.81.61,1.2.92,1.83,1.44,2.02,2.82.36,4.4-.76.72-.63,1.18-.25,1.9.83,1.58,1.36,3.32,1.32,5.07-.04,1.87.68,1.76,1.97,1.19,7.42-3.31,11.88-9.12,13.96-16.81,1.28-4.73,1.4-9.59.75-14.44-.72-5.34-1.94-10.53-5.03-15.09-2.12-3.13-4.82-5.16-8.79-4.53ZM139.46,41.03c6.3.22,12.39.63,18.43,1.37,2.08.25,2.35-.53,2.38-2.11.07-4.62-1.31-8.7-4.72-11.92-1.84-1.74-3.85-3.3-6.43-3.77-1.17-.21-2.84-.36-3.03,1.06-.38,2.93-.19,5.97,1.53,8.53.89,1.32,1.37,2.34.18,3.65-1.24,1.37-2.53,1.64-4.09.61-.66-.44-1.15-.34-1.72-.01-.99.57-1.89,1.23-2.52,2.58Zm77.65,143.62c1.29,0,2.18-.01,3.06,0,.68.01,1.12-.25,1.07-.98-.19-3.09.44-6.14.42-9.22,0-.76-.23-1.22-1.07-1.18-2.39.12-4.77-.15-7.14-.4-1.21-.12-1.64.28-1.68,1.55-.1,2.94-.34,5.88-.61,8.81-.08.83.25,1.01.92,1.01,1.82-.01,3.6.64,5.03.4Zm10.65-2.64c3,.09,5.68-.81,8.45-.48,1.02.12.93-.55.95-1.19.07-2.36-.51-4.61-1.13-6.86-.21-.77-.61-.97-1.37-.86-1.68.24-3.37.49-5.06.58-1.05.06-1.44.45-1.47,1.47-.06,2.45.06,4.9-.38,7.34Z"/>
    <path class="cls-3" d="m40.27,39.16c.39,1.86-.99,2.65-2.02,3.32-1.06.69-2.31.15-3.3-.68-3.48-2.91-6.98-5.8-10.45-8.73-3.12-2.64-6.49-4.97-9.26-8.01-1.26-1.38-1.39-2.73-.21-4.03,1.53-1.69,3.06-1.91,4.55-.68,6.36,5.27,12.71,10.55,19.08,15.8,1.01.84,1.86,1.7,1.62,3.01Z"/>
    <path class="cls-3" d="m43.81.15c2.17-.25,3.3,1.09,4.05,2.75,3.36,7.41,6.67,14.84,9.96,22.28.74,1.69.13,3.11-1.5,3.86-1.69.79-3.33.39-4.15-1.23-1.48-2.94-2.83-5.94-4.24-8.92-2.08-4.4-4.12-8.83-6.26-13.2-1.27-2.6-1.21-3.22.6-5.17.54-.59.96-.62,1.54-.37Z"/>
    <path class="cls-3" d="m0,52.52c.27-3.55,2.7-4.26,5.67-3.26,2.08.7,4.23.71,6.29,1.28,2.72.76,5.59.19,8.35,1.33,2.23.92,4.85,1.04,7.31,1.23,1.84.14,2.74,1.22,3.51,2.58.5.88.19,1.7-.48,2.4-1.05,1.1-2.08,1.59-3.85,1.38-3.62-.42-7.2-1.07-10.78-1.69-4.63-.8-9.21-1.81-13.83-2.64-1.67-.3-2.1-1.37-2.19-2.61Z"/>
    <path class="cls-5" d="m147.21,108.09c.89,6.59,2.64,12.73,5.19,18.63,1.36,3.16,2.88,6.25,4.59,9.25,6.16,10.86,14.62,19.49,25.11,26.19,4.66,2.97,9.7,5.1,14.88,6.91,2.47.86,4.91,1.85,7.5,2.36,2.03.4,1.3,2.08,1.21,3.24-.16,1.99-.91,3.9,0,5.97.57,1.28-.75,3.27-2.13,3.75-2.91,1-3.57,2.22-3.89,5.4-.6,6.05-.22,12.15-.82,18.16-1.07,10.8-.98,21.64-1.74,32.44-.3,4.22-.76,8.57.68,12.77,1.92,5.63,7.35,10.72,14.97,10.84,4.43.06,8.43-1.64,11.51-4.98,3.02-3.29,4.61-7.15,4.24-11.7-.17-2.06.3-2.57,2.21-2.44,2.41.16,4.53-.8,6.66-1.69.8-.33,1.54-.79,2.51-1.3.08,6.23.14,12.26-.45,18.28-.88,8.89-2.49,17.61-6.4,25.73-3.78,7.85-9.46,13.9-17.3,17.88-5.02,2.55-10.22,4.59-15.62,6.16-1.41.41-2.09.19-2.46-1.43-.35-1.55-.86-3.15-2.08-4.37-1.2-1.21-2.44-1.23-3.83-.38-1.44.88-1.97,2.12-1.37,3.68.56,1.46,1.3,2.86,2,4.38-3.11.79-6.26,1.09-9.32,1.78-6.21,1.4-12.54,1.46-18.82,2.05-2.59.24-5.17-.81-7.69-.23-3.88.9-7.78.67-11.64.49-6.3-.3-12.61.05-18.9-.3-7-.38-14.03-.72-20.99-1.5-6.28-.71-12.49-2-18.73-3-1.03-.16-1.47-.44-.93-1.55.41-.84.68-1.77.89-2.68.36-1.58-.69-3.27-2.31-3.86-1.42-.52-3.09.16-3.85,1.59-.18.33-.3.7-.41,1.06-1.19,3.65-1.18,3.62-4.93,2.54-8.28-2.39-15.92-5.96-22.39-11.8-2.65-2.39-4.81-5.16-6.76-8.12-5.24-7.95-7.97-16.77-9.58-26.09-2.1-12.21-1.78-24.47-1.57-36.76.18-10.79.62-21.57,1.72-32.28.78-7.63,1.69-15.25,2.84-22.85,2.58-17,6.04-33.78,11.21-50.19,1.81-5.76,4.38-11.19,7.04-16.58.66-1.33,1.99-1.87,3.29-2.18,3.08-.74,3.11-.67,3.81,2.55.7,3.26,1.35,6.54,2.38,9.72,1.39,4.28,5.64,5.91,10.09,3.78,4.97-2.38,9.87-5.05,15.22-6.51,5-1.36,9.5-3.69,13.88-6.32,2.67-1.6,2.21-1.29,3.38.9,2.42,4.51,5.02,8.89,8.36,12.8,3.01,3.53,5.15,3.96,9.24,1.82,5.42-2.84,10.54-6.2,15.78-9.36,1.44-.87,2.91-1.7,4.51-2.63Zm-22.59,52.42c-5.42,3.2-3.9,9.97.02,12.63,2.52,1.71,5.34,2.59,8.33,2.75,2.94.16,5.89-.03,8.84.07,4.19.15,8.08-.65,11.65-2.94,3.87-2.48,4.45-8.93.71-11.75-.92-.69-.66-.83.04-1.28,1.75-1.13,2.47-2.92,2.48-4.85,0-4.59-1.81-7-6.28-8.39-5.25-1.64-10.66-1.77-16.1-1.28-3.35.3-6.63.93-9.56,2.67-5.17,3.08-5.3,8.98-.14,12.37Zm-27.34-29.65c-.63.16-1.47-.09-2.35.35-2.72,1.36-3.57,3.78-3.79,6.49-.29,3.62,2.72,7.31,5.97,7.59,4.25.37,7.2-3.61,6.72-8.25-.39-3.74-3.19-6.3-6.55-6.17Z"/>
    <path class="cls-4" d="m46.08,100.89c1.01-2.63,2.11-4.82,3.37-6.91,3.16-5.24,6.5-10.36,10.55-14.98.91-1.04,1.56-2.26,2.53-3.27,6.02-6.32,13.29-10.89,20.72-15.33,5.39-3.22,11.03-5.78,16.96-7.66,5.25-1.67,10.62-2.92,16.01-4.12,2.64-.58,5.3-.88,7.94-1.39,2.1-.41,4.24.08,6.38,0,5.41-.19,10.84-.23,16.26-.04,3.89.13,7.76.77,11.65,1.1,1.73.15,3.46.14,5.13.89-1.47,2.05-3.07,4.02-4.38,6.15-5.87,9.59-10.41,19.71-11.77,31-.53,4.38-.89,8.8-.75,13.23.04,1.31-.42,2.03-1.49,2.72-3.87,2.47-7.55,5.27-11.54,7.5-3.22,1.79-6.52,3.47-9.76,5.24-1.1.6-1.58.06-2.18-.68-2.94-3.73-5.32-7.81-7.55-11.98-3.3-6.15-4.85-6.68-10.71-2.9-3.5,2.26-7.09,4.04-11.09,5.31-5.19,1.65-10.05,4.22-14.99,6.55-.5.24-1.03.43-1.56.61-3.32,1.12-3.65.93-4.42-2.58-.79-3.63-1.56-7.26-2.37-10.89-.72-3.21-3.06-4.6-6.18-3.53-4.97,1.71-9.9,3.54-14.85,5.32-.5.18-1.02.35-1.91.65Z"/>
    <path class="cls-2" d="m222.49,166.48c-38.16.61-69.15-31.06-68.96-68.77.19-38.65,29.53-69.72,69.37-69.48,39.05.24,69.12,30.78,68.79,70.29-.31,36.94-30.54,68.58-69.2,67.95Zm.66-9.49c32.75-.25,58.86-26.33,58.97-59.12.11-33.32-25.61-60.11-59.57-60.04-34.87.07-59.36,27.19-59.43,59.54-.07,33.39,26.04,59.45,60.03,59.62Z"/>
    <path class="cls-5" d="m30.03,196.74c-3.66-1.59-6.72-3.53-9.23-6.29-2.07-2.28-2.26-3.56-.93-6.31,1.12-2.3.8-3.6-1.6-4.5-5.3-1.98-8.3-8.64-6.77-14.25.58-2.15,1.58-4,3.56-5.14,1.65-.95,1.97-2.24,1.48-4-1.09-3.88-2.28-7.74-2.11-11.85.1-2.61.48-5.15,1.6-7.53,1.69-3.6,4.79-4.59,8.28-2.67,2.38,1.31,4.09,3.34,5.65,5.5,2.3,3.17,4.17,6.61,6.1,10.01.33.59.39,1.14.28,1.8-1.72,10.12-3.68,20.2-4.68,30.43-.48,4.88-1.12,9.74-1.61,14.81Z"/>
    <path class="cls-5" d="m234.27,187.7c3.97-.63,6.67,1.4,8.79,4.53,3.09,4.56,4.31,9.75,5.03,15.09.65,4.85.53,9.71-.75,14.44-2.08,7.69-6.54,13.5-13.96,16.81-1.28.57-2.01.68-1.97-1.19.04-1.75-.49-3.49-1.32-5.07-.38-.72-.51-1.18.25-1.9,1.66-1.58,1.47-2.96-.36-4.4-.4-.31-.8-.61-1.2-.92-5.33-4.06-6.51-10.55-2.95-16.3,2.22-3.58,2.2-3.88-.46-7.11-2.84-3.46-3.3-6.32-1.44-9.73,1.76-3.24,4.97-3.79,8.2-4.24.68-.09,1.38-.01,2.15-.01Z"/>
    <path class="cls-5" d="m139.46,41.03c.63-1.35,1.53-2.01,2.52-2.58.57-.33,1.06-.43,1.72.01,1.57,1.04,2.86.76,4.09-.61,1.18-1.31.7-2.34-.18-3.65-1.72-2.56-1.91-5.6-1.53-8.53.18-1.43,1.86-1.28,3.03-1.06,2.58.47,4.59,2.03,6.43,3.77,3.41,3.22,4.79,7.29,4.72,11.92-.02,1.57-.29,2.36-2.38,2.11-6.04-.74-12.12-1.14-18.43-1.37Z"/>
    <path class="cls-2" d="m217.11,184.65c-1.43.25-3.21-.41-5.03-.4-.67,0-1-.18-.92-1.01.27-2.93.52-5.87.61-8.81.04-1.27.47-1.67,1.68-1.55,2.37.24,4.75.52,7.14.4.84-.04,1.06.42,1.07,1.18.02,3.08-.61,6.13-.42,9.22.05.73-.39.99-1.07.98-.88-.02-1.76,0-3.06,0Z"/>
    <path class="cls-5" d="m227.76,182.01c.44-2.44.32-4.89.38-7.34.03-1.02.42-1.41,1.47-1.47,1.69-.09,3.38-.34,5.06-.58.76-.11,1.16.09,1.37.86.62,2.25,1.2,4.5,1.13,6.86-.02.64.06,1.31-.95,1.19-2.77-.33-5.46.56-8.45.48Z"/>
    <path class="cls-3" d="m124.62,160.51c-5.16-3.39-5.04-9.29.14-12.37,2.93-1.74,6.21-2.37,9.56-2.67,5.44-.49,10.84-.36,16.1,1.28,4.47,1.39,6.29,3.8,6.28,8.39,0,1.93-.72,3.72-2.48,4.85-.7.45-.96.59-.04,1.28,3.75,2.82,3.16,9.27-.71,11.75-3.57,2.29-7.46,3.1-11.65,2.94-2.94-.11-5.9.09-8.84-.07-2.99-.17-5.81-1.05-8.33-2.75-3.93-2.66-5.44-9.42-.02-12.63Zm18.57,10.84c1.85.37,3.29-.76,4.9-1.18,2.24-.59,3.25-1.98,3.1-3.7-.15-1.74-1.35-2.7-3.72-3.05-4.7-.69-9.42-.24-14.13-.25-1.46,0-3.01.12-4.46.65-1.32.48-2.44,1.23-2.55,2.72-.11,1.57.97,2.42,2.25,3.17,2.82,1.65,5.97,1.69,9.06,2.04,1.89.21,3.72-.35,5.54-.39Zm-4.6-13.14c3.09-.05,6.06.03,8.99-.5,2.01-.36,3.54-1.76,3.5-3.4-.04-1.99-1.6-2.56-3.17-2.97-3.88-1-7.84-1.32-11.81-1.08-2.68.17-5.41.36-7.89,1.67-1.23.65-2.01,1.57-1.92,2.98.09,1.37,1.03,2.1,2.29,2.44.54.15,1.1.27,1.65.39,2.8.58,5.65.37,8.36.47Z"/>
    <path class="cls-3" d="m97.28,130.86c3.36-.12,6.16,2.43,6.55,6.17.48,4.64-2.47,8.62-6.72,8.25-3.25-.28-6.26-3.97-5.97-7.59.22-2.71,1.07-5.13,3.79-6.49.88-.44,1.72-.18,2.35-.35Z"/>
    <path class="cls-3" d="m223.15,156.99c-33.99-.17-60.11-26.23-60.03-59.62.07-32.36,24.56-59.47,59.43-59.54,33.96-.07,59.68,26.72,59.57,60.04-.11,32.8-26.22,58.87-58.97,59.12Zm52.29-54.41c-.05-21.03-6.16-34.41-18.14-44.87-12.02-10.49-26.39-14.58-42.09-12.75-21.11,2.46-46.1,21.73-45.42,53.81.3,14.12,5.62,26.43,15.52,36.28,10.1,10.06,23.01,15.14,37.1,15.3,14.16.16,27.02-4.98,37.2-15.01,10.41-10.25,15.67-23.05,15.83-32.77Z"/>
    <path class="cls-1" d="m143.19,171.35c-1.81.04-3.65.6-5.54.39-3.09-.34-6.24-.38-9.06-2.04-1.28-.75-2.36-1.6-2.25-3.17.11-1.49,1.23-2.23,2.55-2.72,1.44-.53,3-.65,4.46-.65,4.71,0,9.43-.44,14.13.25,2.37.35,3.57,1.31,3.72,3.05.14,1.71-.86,3.1-3.1,3.7-1.6.42-3.04,1.55-4.9,1.18Z"/>
    <path class="cls-1" d="m138.6,158.21c-2.7-.1-5.55.11-8.36-.47-.55-.11-1.11-.23-1.65-.39-1.26-.35-2.2-1.07-2.29-2.44-.09-1.41.69-2.33,1.92-2.98,2.48-1.3,5.21-1.5,7.89-1.67,3.97-.25,7.94.08,11.81,1.08,1.57.4,3.12.98,3.17,2.97.04,1.64-1.49,3.04-3.5,3.4-2.94.53-5.9.45-8.99.5Z"/>
    <path class="cls-6" d="m275.45,102.58c-.16,9.72-5.43,22.52-15.83,32.77-10.18,10.03-23.03,15.17-37.2,15.01-14.09-.16-27-5.24-37.1-15.3-9.9-9.85-15.22-22.16-15.52-36.28-.67-32.08,24.31-51.35,45.42-53.81,15.7-1.83,30.07,2.26,42.09,12.75,11.98,10.45,18.09,23.83,18.14,44.87Zm-81.83,19.36c-.11,2.13.63,3.78,2.56,4.68,2.22,1.03,4.42.87,6.34-.73,1.06-.88,2.04-1.89,2.94-2.94,4.76-5.59,9.45-11.23,14.23-16.8,4.29-5,8.72-9.88,12.96-14.93,5.25-6.24,10.56-12.44,15.94-18.57,1.46-1.66,1.98-3.68,1.09-5.78-1.59-3.77-5.83-4.61-8.78-1.58-2.85,2.91-5.4,6.11-8.07,9.2-3.69,4.28-7.34,8.58-11.03,12.85-3.62,4.18-7.37,8.24-10.88,12.5-4.47,5.42-9.27,10.56-13.75,15.98-1.51,1.83-3.77,3.32-3.54,6.13Z"/>
    <path class="cls-4" d="m193.62,121.94c-.23-2.8,2.03-4.3,3.54-6.13,4.47-5.42,9.27-10.56,13.75-15.98,3.51-4.26,7.27-8.32,10.88-12.5,3.7-4.27,7.35-8.57,11.03-12.85,2.66-3.09,5.22-6.28,8.07-9.2,2.96-3.03,7.19-2.19,8.78,1.58.88,2.1.37,4.12-1.09,5.78-5.38,6.13-10.69,12.32-15.94,18.57-4.24,5.04-8.67,9.92-12.96,14.93-4.77,5.57-9.47,11.22-14.23,16.8-.9,1.05-1.87,2.06-2.94,2.94-1.92,1.6-4.11,1.76-6.34.73-1.93-.9-2.66-2.55-2.56-4.68Z"/>
  </g>
</svg>