<?xml version="1.0" encoding="UTF-8"?>
<svg id="_图层_2" data-name="图层 2" xmlns="http://www.w3.org/2000/svg" viewBox="0 0 229.84 273.86">
  <defs>
    <style>
      .cls-1 {
        fill: #fefefe;
      }

      .cls-1, .cls-2, .cls-3, .cls-4, .cls-5, .cls-6 {
        stroke-width: 0px;
      }

      .cls-2 {
        fill: #897771;
      }

      .cls-3 {
        fill: #f8e8b9;
      }

      .cls-4 {
        fill: #f08c5e;
      }

      .cls-5 {
        fill: #f0b569;
      }

      .cls-6 {
        fill: #f7ca5c;
      }
    </style>
  </defs>
  <g id="_图层_1-2" data-name="图层 1">
    <path class="cls-2" d="m61.93,186c-5.59-2.6-11.66-4.29-15.91-9.12-1.64,1.49-2.6,3.42-4.24,4.75-.43.35-.15.87.04,1.37.77,1.98,1.46,4,2.2,6,.22.59.23,1.09-.05,1.7-.32.71-.5,1.25-1.51,1.23-1.04-.02-1.76-.36-2.15-1.24-.49-1.12-.86-2.3-1.32-3.56-1.2,1.07-1.76,2.59-3,3.52-.93.69-1.88,1.38-3.03.53-.88-.64-.9-2.08-.08-3.22.96-1.34,1.97-2.64,3.08-4.11-1.29-.14-2.36-.69-3.61-.68-1.12,0-2.18-.44-2.56-1.61-.26-.79,0-1.62.79-2.07.69-.4,1.46-.46,2.26-.34,1.72.27,3.4.79,5.18.68.65-.04,1.12-.13,1.51-.71.47-.7,1.03-1.35,1.58-2.01.8-.95,2.19-1.84,2.27-2.84.07-.88-1.36-1.85-2.05-2.82-3.01-4.2-5.24-8.78-7.07-13.63-2.21-5.84-2.97-11.9-3.12-18.04-.1-4.25-.16-8.54.72-12.76.44-2.13.14-2.48-1.86-3.45-3.2-1.55-5.9-3.71-7.85-6.71-.66-1.01-.89-2.25-.97-3.4-.07-.98-.49-1.36-1.26-1.74-1.7-.84-3.18-1.87-4.32-3.54-1.51-2.24-1.69-4.58-1.18-7.01.67-3.14,1.8-6.11,4.7-7.96.63-.4.21-.78.04-1.13-.92-1.95-1.72-3.93-1.84-6.13-.19-3.63.41-7.14,1.95-10.41,2.34-4.95,8.39-6.34,12.76-3.47,3.34,2.19,5.21,5.4,6.82,8.88.78,1.69,1.65,3.35,2.56,5.19,1.96-3.93,3.44-7.91,5.4-11.65,1.98-3.76,3.72-7.65,6.35-11.32-1.77.26-3.15.98-4.61,1.4-.96.28-1.9.63-2.85.92-1.01.31-1.88.13-2.55-.73-.65-.83-.58-1.69-.05-2.51.83-1.31,1.68-2.61,2.57-3.87,3.79-5.35,7.33-10.91,11.77-15.75,4.17-4.55,8.43-9.12,13.92-12.19,3.08-1.73,6.04-3.65,9.28-5.15,3.09-1.42,6.37-2.18,9.46-3.48,2.46-1.03,4.98-1.73,7.57-1.96,2.14-.19,4.28-.53,6.44-.57.92-.02,1.43-.29,1.44-1.39.04-4.04,1.95-6.26,5.89-7.03q2.18-.42,1.75-2.65c-.6-3.1.62-6.09,3.21-7.46,1.7-.9,3.59-.98,5.31-.12,2.42,1.22,4.59,2.83,6.33,4.92,1.38,1.66,1.85,3.72,2.17,5.79.28,1.83.47,3.67.6,5.51.05.7.24.94.95.96,2.15.05,4.36.32,6.34.9,3.08.91,6.2,1.97,8.88,3.94.95.7,2.04,1.24,3.12,1.73,4.78,2.14,9.03,5.13,12.95,8.52,7.67,6.63,13.05,14.94,16.95,24.23,1.6,3.81,3.36,7.54,5.32,11.17.59,1.1.73,2.1-.32,2.94-.5.4-.33.79-.17,1.19.43,1.11.9,2.2,1.49,3.62.58-2.08,1.34-3.76,2.2-5.4.86-1.65,1.72-3.32,2.9-4.76,2.52-3.05,7.11-3.46,10.41-.46,2.61,2.38,3.27,5.38,3.26,8.69,0,1.94.1,3.89-.03,5.82-.08,1.07-.07,2.16-.27,3.21-.2.99.26,1.61,1,1.83,3.75,1.14,4.15,4.31,4.37,7.39.26,3.6.46,7.2.95,10.78.65,4.85-1.28,8.45-5.36,10.97-.5.31-.65.57-.65,1.14.05,6.1-2.54,8.1-7.45,9.5-2.12.6-2.23.63-1.95,2.82.34,2.67.3,5.38.27,8.02-.08,6.88-.67,13.67-3.1,20.3-2.5,6.82-5.76,13.03-10.74,18.31-2.65,2.81-5.67,5.11-9.14,6.9-1.6.83-3.14,1.8-4.83,2.48-.87.34-1.1.78-.65,1.71,4.54,9.32,8.94,18.71,13.23,28.14,1.29,2.83,2.67,5.61,3.97,8.43.38.82.89,1.38,1.73,1.74,4.7,1.96,9.15,4.43,13.76,6.58.81.38,1.67.56,2.51.83,4.47,1.45,6.68,5.89,4.15,10.46-1.32,2.39-3.46,3.35-5.7,4.23-1.42.56-2.8,1.08-4.08,1.95-.87.59-2.06.69-3,1.2-8.31,4.54-16.98,8.36-25.55,12.35-2.82,1.31-5.56,2.79-8.4,4-3.65,1.56-7.23,3.28-10.84,4.93-1.19.55-2.28,1.34-3.5,1.89-2.51,1.13-5.12,1.57-7.88,1.73-2.93.17-5.82.24-8.67-.37-4.23-.9-8.41-2.08-12.65-2.89-7.84-1.49-15.58-3.48-23.37-5.19-3.99-.88-7.95-1.89-11.95-2.77-10.85-2.4-21.66-4.98-32.49-7.47-7.92-1.83-15.83-3.67-23.77-5.44-4.2-.94-6.91-4.12-6.75-8.22.12-3.06,1.37-5.63,4.17-7.1,2.86-1.51,5.77-2.93,8.64-4.41,3.13-1.61,6.2-3.39,9.31-5.06.61-.33,1.22-.63,1.91-.82.85-.23,1.53-.79,1.9-1.68,2.6-6.23,6.03-12.06,8.89-18.15,2.86-6.08,5.8-12.13,8.83-18.17Zm84.09-36.59c-.16-.47-.26-.97-.48-1.42-4.83-10.16-9.64-20.33-14.51-30.47-1.11-2.31-2.63-4.36-4.45-6.19-.46-.46-.81-.57-1.42-.25-1.23.67-2.53,1.19-3.93,1.41-3.43.56-6.89.2-10.34.31-1.71.06-3.27-.39-4.68-1.34-.61-.41-.99-.38-1.5.17-1.16,1.26-2.2,2.61-3.02,4.09-3.8,6.87-7.1,14-10.6,21.02-2.14,4.29-4.19,8.63-6.28,12.95-.27.47-.57.93-.82,1.42-4.24,8.56-8.47,17.12-12.69,25.69-2.72,5.51-5.42,11.03-8.13,16.54-2.08,3.59-3.77,7.39-5.62,11.1-4.26,8.55-8.47,17.12-12.73,25.67-.9,1.81-2.95,2-3.9.31-.49-.87-.8-.77-1.5-.4-4.87,2.56-9.76,5.08-14.64,7.63-1.71.89-2.68,2.66-2.49,4.43.17,1.63,1.23,2.73,3.28,3.24,2.61.66,5.24,1.25,7.87,1.86,19.35,4.44,38.7,8.88,58.06,13.32,12.69,2.91,25.37,5.87,38.07,8.75,5.14,1.17,10.21,1,15.08-1.31,7.77-3.69,15.54-7.38,23.32-11.06,7.86-3.73,15.72-7.46,23.59-11.19,3.43-1.63,6.88-3.24,10.3-4.89,1.17-.56,2.09-1.34,2.13-2.82.03-1.2-.47-2.07-1.51-2.54-4.59-2.1-9.2-4.16-13.8-6.24-.34-.15-.59-.27-.71.31-.21,1.01-.93,1.48-1.96,1.5-1.1.03-1.77-.54-2.21-1.48-1.21-2.58-2.42-5.16-3.63-7.74-4.32-9.19-8.65-18.37-12.97-27.55-1.38-3.64-3.22-7.05-4.89-10.55-3.93-8.26-7.74-16.59-11.67-24.86-1.5-3.16-2.79-6.42-4.6-9.42Zm35.28-76.03c-1.23,1.08-2.1,2.34-3.41,3.13-1.98,1.21-3.61,1-5.01-.82-2.6-3.37-5.21-6.74-7.67-10.21-.84-1.18-1.28-1.15-2.33-.28-6.07,5.09-12.86,8.79-20.69,10.44-2.81.59-4.04.37-5.01-1.66-1.98-4.14-4.98-7.48-7.85-10.95-.45-.54-.68-.72-1.39-.26-3.71,2.38-7.44,4.73-11.23,6.96-3.4,2-6.75,4.11-10.71,4.96-1.55.33-2.78-.12-3.83-1.16-.64-.63-1.17-1.37-1.7-2.1-2.01-2.82-3.62-5.88-5.4-8.84-.49-.82-.85-1-1.7-.39-2.03,1.47-4.21,2.72-6.54,3.66-4.55,1.85-8.92,4.07-13.3,6.27-1.52.76-3.05,1.51-4.7,1.97-4.21,1.18-7.47-.78-8.4-5.07-.15-.68-.18-1.39-.32-2.07-.41-2.01-.07-4.12-.74-6.3-.45.63-.77,1.08-1.07,1.53-5.33,7.78-9.41,16.21-13.22,24.83-5.31,12.04-7.55,24.83-9.51,37.68-.44,2.86-.63,5.84-.68,8.79-.13,7.25.1,14.47,2.47,21.37,4.33,12.63,11.55,22.71,24.95,27.06,1.02.33,1.43.22,1.92-.76,2.62-5.26,5.33-10.48,7.79-15.82,3.11-6.77,6.52-13.41,9.83-20.08,4.83-9.73,9.74-19.42,14.52-29.18,1.39-2.83,3.17-5.32,5.44-7.46.94-.89,1.66-1.72,1.64-3.1,0-1,.6-1.83,1.42-2.37.69-.45.6-.73.23-1.38-1.52-2.73-1.34-4.81.32-6.41,1.37-1.32,3.16-1.45,4.84-1.68,2.64-.36,5.32-.4,7.98-.64,3.51-.31,6.84.04,9.45,2.71,2.07,2.11,1.67,4.94-.81,6.5-.31.2-.79.22-.88.76,1.05.8,1.96,1.78,2.09,3.15.08.91.55,1.42,1.17,1.96,2.29,1.99,4.17,4.32,5.48,7.08,5.32,11.26,10.64,22.52,15.94,33.8,4.82,10.26,9.6,20.53,14.41,30.79.23.5.26,1.19,1.2.69,3.99-2.12,8.03-4.18,11.31-7.32,8.55-8.18,12.78-18.48,14.25-30.03.66-5.19.21-10.4.1-15.61-.2-9.23-1.08-18.38-2.48-27.49-1.42-9.24-4.45-17.97-8.19-26.64Zm-132.17-13.17c3.71-.81,6.81-2.29,9.86-3.88,1.35-.7,2.35-.44,3.2.78.88,1.26,1.19,2.64,1.32,4.13.22,2.38.22,4.77.84,7.12.42,1.61,1.34,2.15,2.85,2.31.74.08,1.03-.5,1.56-.71,1.99-.78,4.02-1.46,5.91-2.52,2.1-1.18,4.23-2.5,6.46-3.23,4.25-1.4,7.85-3.78,11.46-6.24,1.48-1.01,3.24-.79,4.39.57.91,1.07,1.64,2.27,2.32,3.49,1.51,2.71,3.15,5.34,4.99,7.84.58.79,1.03,1.4,2.34.86.82-.34,1.51-.83,2.26-1.24,6.49-3.55,12.95-7.15,18.91-11.57,1.06-.79,2.05-.73,2.86.36,3.14,4.19,7.04,7.83,9.3,12.68.33.71.76,1.14,1.63.82,4.15-1.54,8.57-2.27,12.33-4.99,3.07-2.22,6.12-4.48,9.22-6.66,1.75-1.23,1.95-1.33,3.24.37,2.96,3.9,5.95,7.79,8.83,11.75.69.95,1.15.84,1.87.18,1.29-1.18,1.94-2.91,3.46-3.88.46-.29.06-.62-.07-.91-2.58-6.02-5.2-12.03-8.56-17.67-3.29-5.54-6.89-10.83-12.24-14.72-6.01-4.37-12.28-8.28-18.98-11.5-3.1-1.49-6.37-2.1-9.79-2.1-7.26,0-14.5.33-21.75.83-6.23.43-12.39,1.19-18.37,2.88-3.84,1.08-7.57,2.66-11.02,4.78-2.03,1.24-4.12,2.39-6.23,3.49-1.6.84-2.83,2.14-4.2,3.25-2.33,1.87-4.79,3.57-6.88,5.75-.77.8-1.23,1.78-1.94,2.61-4.01,4.67-7.61,9.66-11.38,14.96Zm-16.58,60.33c.63-3.92,1.09-7.71,1.89-11.43,1.13-5.29,2.35-10.57,4.28-15.66.7-1.85,1.18-3.69-.32-5.45-.34-.4-.47-.99-.71-1.48-1.51-3.16-2.77-6.46-5.12-9.13-1.64-1.86-3.46-3.68-6.26-3.1-2.69.55-3.82,2.77-4.58,5.1-1.44,4.4-.71,8.56,1.56,12.55,1.27,2.22,1.06,2.79-1.23,4-2.48,1.31-3.67,3.56-4.14,6.09-.6,3.21,1.07,5.42,4.48,6.61,2.33.81,2.63,1.21,2.57,3.71-.03,1.24.08,2.4.96,3.36,1.8,1.98,3.83,3.66,6.61,4.83Zm169.21-43.55c-.21-2.42-.05-4.91-1.14-7.2-.86-1.8-2.17-2.61-4.04-2.5-1.47.09-2.33,1.06-3.11,2.12-2.72,3.68-3.63,8.07-4.79,12.36-.06.22.02.49.1.72,1.32,3.5,2.21,7.1,3.04,10.75,1.1,4.83,1.82,9.71,2.49,14.6.57,4.16.86,8.35,1.16,12.54.03.48.04.94.74.77,3.02-.73,5.58-1.87,5.22-6.06-.11-1.28.24-2.37,1.18-3.25.73-.68,1.45-1.39,2.24-1.99,1.73-1.3,2.52-2.96,2.49-5.16-.05-3.17-.45-6.3-.85-9.43-.22-1.68.09-3.41-.51-5.06-.41-1.12-1.08-1.68-2.39-1.51-2.33.29-2.97-.45-2.67-2.82.37-2.95,1.08-5.87.84-8.88ZM111.98,18.66s0,.02,0,.04c4.7-.31,9.4-.63,14.11-.9.79-.04.91-.38.85-1.03-.13-1.54-.18-3.09-.37-4.63-.33-2.66-1.25-4.99-3.87-6.28-.71-.35-1.34-.87-1.99-1.33-.72-.5-1.46-.93-2.35-.45-.97.52-1.39,1.38-1.41,2.47-.05,1.91.58,3.64,1.38,5.31.42.88.7,1.66-.05,2.48-.73.79-1.6.96-2.59.63-.38-.13-.75-.29-1.13-.39-1.78-.47-3.75.17-4.68,1.55-.46.68-.74,1.47-.39,2.25.33.74,1.07.14,1.61.28.28.07.6.01.9.01Zm4.37,85.41c-2.12,0-3.67.03-5.22-.01-.96-.02-1.89.09-2.82.31-1.15.26-2.11.85-2.33,2.06-.22,1.2.42,2.13,1.43,2.75.51.31,1.07.52,1.61.79,2.4,1.2,4.97.61,7.47.68,2.68.08,5.18-.79,7.58-1.87,2.09-.95,2.15-2.51.26-3.87-.41-.3-.87-.46-1.37-.58-2.38-.58-4.79-.1-6.61-.26Zm-1.62-2.12s0-.02,0-.03c1.2,0,2.4,0,3.61,0,2.51.02,4.81-.72,7-1.87,1.33-.7,1.44-1.91.27-2.86-.83-.67-1.83-1.06-2.87-1.24-4.55-.78-9.07-.33-13.55.59-1.86.38-2.53,1.17-2.41,2.51.12,1.33,1.76,2.87,3.14,2.89,1.6.03,3.21,0,4.81,0Z"/>
    <path class="cls-2" d="m13.89,4.76c-.22-1.03.37-1.6,1.16-2.02,1.26-.66,2.36-.06,3.28.69,4.83,3.96,9.61,7.99,14.41,11.99,1.92,1.59,3.83,3.17,5.61,4.93,1.09,1.07.71,2.01.19,2.89-.46.77-1.42,1.05-2.37.89-.61-.1-1.1-.47-1.56-.85-6.6-5.43-13.33-10.71-19.74-16.37-.66-.59-1.26-1.17-.99-2.15Z"/>
    <path class="cls-2" d="m195.09,23.2c-1.09-.03-1.99-.25-2.41-1.36-.48-1.31.17-2.22,1.07-3.01,5.25-4.63,10.52-9.25,15.78-13.87,1.01-.89,1.97-1.84,3.27-2.32,1.15-.42,2.21-.42,3.07.66.63.79.68,1.68.05,2.3-.64.63-1.13,1.38-1.81,1.97-5.74,4.99-11.48,9.98-17.22,14.96-.53.46-1.08.92-1.82.66Z"/>
    <path class="cls-2" d="m2.66,20.87c.38.11.77.2,1.14.33,2.89.95,5.87,1.71,8.64,2.92,3.08,1.35,6.3,2.23,9.4,3.48,1.64.66,2.23,1.99,1.43,3.27-.7,1.12-1.95,1.07-2.89.78-6.05-1.93-12.05-4-18.07-6.02-.32-.11-.66-.24-.93-.43-.83-.6-1.67-1.35-1.28-2.45.39-1.08,1.16-1.97,2.56-1.87Z"/>
    <path class="cls-2" d="m223.63,15.9c1.29.15,2.2.65,2.54,1.78.37,1.24-.19,2.36-1.23,2.87-2.09,1.03-4.24,1.92-6.44,2.72-2.03.74-4.2,1.34-5.96,2.72-1.13.89-2.52.91-3.81.85-.91-.04-1.54-.93-1.63-1.87-.09-.92.09-1.8,1-2.41,1.24-.83,2.73-.9,4.05-1.58,3.32-1.72,6.79-3.13,10.21-4.65.45-.2.94-.32,1.27-.43Z"/>
    <path class="cls-2" d="m213.2,37c-1.24,0-2.63-1.22-2.68-2.23-.07-1.25.69-2.02,2.12-2.3,3.22-.63,6.49-.83,9.74-1.2,1.58-.18,3.13-.61,4.74-.59,1.58.02,2.65.81,2.72,1.96.09,1.41-.68,2.41-2.27,2.62-4.34.57-8.68,1.26-13.06,1.47-.52.02-.89.55-1.3.27Z"/>
    <path class="cls-2" d="m12.44,44.81c-2.09.46-4.64.17-7.1.8-.71.18-1.49.11-2.23.1-1.49-.01-2.55-1.05-2.49-2.38.07-1.4,1.51-2.71,2.9-2.36,1.14.29,2.1.19,3.14-.25.42-.18.95-.2,1.46,0,.82.32,1.56.11,2.41-.17,1.62-.53,3.34,0,4.98.19.83.1,1.43,1.24,1.27,2.11-.14.75-.58,1.54-1.69,1.73-.76.13-1.5.22-2.65.22Z"/>
    <path class="cls-3" d="m181.31,73.37c3.74,8.66,6.77,17.39,8.19,26.64,1.4,9.12,2.28,18.26,2.48,27.49.11,5.21.56,10.42-.1,15.61-1.47,11.55-5.7,21.85-14.25,30.03-3.28,3.14-7.32,5.21-11.31,7.32-.94.5-.97-.19-1.2-.69-4.8-10.26-9.59-20.54-14.41-30.79-5.3-11.27-10.62-22.53-15.94-33.8-1.3-2.76-3.19-5.08-5.48-7.08-.62-.54-1.09-1.05-1.17-1.96-.13-1.37-1.04-2.35-2.09-3.15.09-.54.57-.56.88-.76,2.48-1.57,2.89-4.39.81-6.5-2.62-2.66-5.94-3.02-9.45-2.71-2.66.24-5.34.28-7.98.64-1.68.23-3.47.36-4.84,1.68-1.66,1.6-1.84,3.69-.32,6.41.36.65.45.94-.23,1.38-.82.53-1.43,1.37-1.42,2.37.01,1.39-.71,2.22-1.64,3.1-2.26,2.14-4.05,4.63-5.44,7.46-4.78,9.76-9.69,19.45-14.52,29.18-3.32,6.68-6.72,13.31-9.83,20.08-2.46,5.35-5.17,10.56-7.79,15.82-.49.98-.9,1.09-1.92.76-13.4-4.35-20.62-14.43-24.95-27.06-2.37-6.9-2.6-14.12-2.47-21.37.05-2.95.25-5.93.68-8.79,1.95-12.85,4.19-25.64,9.51-37.68,3.8-8.61,7.88-17.04,13.22-24.83.31-.45.63-.9,1.07-1.53.67,2.19.33,4.29.74,6.3.14.68.17,1.39.32,2.07.92,4.29,4.19,6.24,8.4,5.07,1.65-.46,3.18-1.21,4.7-1.97,4.38-2.2,8.75-4.42,13.3-6.27,2.32-.94,4.5-2.19,6.54-3.66.84-.61,1.2-.43,1.7.39,1.78,2.96,3.39,6.02,5.4,8.84.52.73,1.06,1.47,1.7,2.1,1.05,1.04,2.27,1.49,3.83,1.16,3.96-.84,7.31-2.96,10.71-4.96,3.8-2.23,7.53-4.58,11.23-6.96.72-.46.95-.28,1.39.26,2.87,3.47,5.88,6.81,7.85,10.95.97,2.03,2.21,2.25,5.01,1.66,7.82-1.65,14.62-5.35,20.69-10.44,1.04-.88,1.49-.9,2.33.28,2.46,3.47,5.06,6.84,7.67,10.21,1.41,1.82,3.03,2.02,5.01.82,1.31-.79,2.18-2.05,3.41-3.13Zm-91.95,11.21c-.02-.91-.33-2.5-2.01-3.48-1.53-.9-2.93-.42-4.2.48-1.89,1.34-2.8,3.23-2.6,5.57.19,2.36,1.88,3.81,4.23,3.71,2.68-.12,4.45-2.24,4.58-6.27Zm50.45-.14c-.04,2.45,1.44,4.09,3.75,4.16,2.57.07,5.02-2.54,5.03-5.36,0-2.44-1.71-4.46-3.77-4.44-2.56.02-4.96,2.73-5,5.65Z"/>
    <path class="cls-4" d="m167.18,194.23c4.32,9.18,8.65,18.37,12.97,27.55,1.21,2.58,2.43,5.16,3.63,7.74.44.95,1.11,1.51,2.21,1.48,1.03-.03,1.75-.49,1.96-1.5.12-.58.37-.46.71-.31,4.6,2.07,9.21,4.13,13.8,6.24,1.04.48,1.54,1.34,1.51,2.54-.04,1.48-.96,2.26-2.13,2.82-3.42,1.65-6.87,3.26-10.3,4.89-7.86,3.73-15.72,7.46-23.59,11.19-7.77,3.69-15.55,7.37-23.32,11.06-4.87,2.31-9.93,2.48-15.08,1.31-12.7-2.88-25.38-5.83-38.07-8.75-19.35-4.44-38.7-8.88-58.06-13.32-2.63-.6-5.25-1.2-7.87-1.86-2.05-.52-3.11-1.61-3.28-3.24-.19-1.77.78-3.54,2.49-4.43,4.88-2.55,9.77-5.07,14.64-7.63.69-.37,1.01-.46,1.5.4.95,1.69,3,1.5,3.9-.31,4.26-8.55,8.47-17.13,12.73-25.67,1.85-3.71,3.54-7.5,5.62-11.1,7.04,1.91,14.17,3.38,21.37,4.5,4.33.68,8.69,1.22,13.07,1.59,3.19.27,6.38.43,9.57.62,7.91.49,15.81.33,23.7-.16,6.22-.39,12.42-1.02,18.59-2.01,5.96-.96,11.9-2,17.72-3.66Z"/>
    <path class="cls-1" d="m49.13,60.2c3.77-5.3,7.37-10.29,11.38-14.96.71-.83,1.17-1.81,1.94-2.61,2.09-2.18,4.55-3.87,6.88-5.75,1.38-1.11,2.6-2.41,4.2-3.25,2.11-1.11,4.2-2.25,6.23-3.49,3.45-2.12,7.18-3.7,11.02-4.78,5.98-1.68,12.14-2.45,18.37-2.88,7.25-.5,14.49-.83,21.75-.83,3.42,0,6.69.61,9.79,2.1,6.7,3.22,12.97,7.12,18.98,11.5,5.35,3.9,8.95,9.19,12.24,14.72,3.35,5.64,5.97,11.65,8.56,17.67.12.29.52.62.07.91-1.52.97-2.18,2.7-3.46,3.88-.72.66-1.17.77-1.87-.18-2.88-3.96-5.87-7.85-8.83-11.75-1.29-1.7-1.49-1.6-3.24-.37-3.1,2.18-6.15,4.44-9.22,6.66-3.76,2.72-8.17,3.44-12.33,4.99-.87.32-1.3-.11-1.63-.82-2.26-4.84-6.15-8.48-9.3-12.68-.82-1.09-1.8-1.15-2.86-.36-5.96,4.42-12.42,8.02-18.91,11.57-.74.41-1.43.9-2.26,1.24-1.31.54-1.76-.07-2.34-.86-1.84-2.5-3.47-5.14-4.99-7.84-.68-1.22-1.41-2.42-2.32-3.49-1.15-1.36-2.92-1.58-4.39-.57-3.61,2.46-7.21,4.84-11.46,6.24-2.23.73-4.36,2.05-6.46,3.23-1.88,1.06-3.91,1.74-5.91,2.52-.53.21-.82.79-1.56.71-1.5-.16-2.42-.7-2.85-2.31-.62-2.35-.62-4.74-.84-7.12-.14-1.48-.44-2.87-1.32-4.13-.85-1.22-1.85-1.49-3.2-.78-3.05,1.59-6.15,3.07-9.86,3.88Z"/>
    <path class="cls-6" d="m167.18,194.23c-5.82,1.66-11.76,2.71-17.72,3.66-6.16.99-12.37,1.63-18.59,2.01-7.89.49-15.79.65-23.7.16-3.19-.2-6.38-.36-9.57-.62-4.38-.37-8.73-.91-13.07-1.59-7.2-1.12-14.33-2.6-21.37-4.5,2.71-5.51,5.42-11.03,8.13-16.54,4.22-8.56,8.46-17.13,12.69-25.69.24-.49.54-.95.82-1.42,8.95,1.89,18.02,2.76,27.14,3.03,9.35.28,18.65-.33,27.88-1.83,2.08-.34,4.26-.43,6.18-1.5,1.82,3,3.11,6.26,4.6,9.42,3.92,8.27,7.73,16.59,11.67,24.86,1.67,3.5,3.51,6.92,4.89,10.55Z"/>
    <path class="cls-4" d="m146.02,149.4c-1.92,1.08-4.1,1.17-6.18,1.5-9.23,1.5-18.54,2.1-27.88,1.83-9.12-.27-18.19-1.14-27.14-3.03,2.09-4.32,4.14-8.65,6.28-12.95,3.5-7.02,6.81-14.15,10.6-21.02.82-1.49,1.86-2.84,3.02-4.09.51-.55.89-.58,1.5-.17,1.4.94,2.97,1.39,4.68,1.34,3.44-.12,6.9.25,10.34-.31,1.4-.23,2.7-.74,3.93-1.41.6-.33.96-.21,1.42.25,1.82,1.82,3.34,3.88,4.45,6.19,4.87,10.14,9.69,20.31,14.51,30.47.21.45.32.94.48,1.42Z"/>
    <path class="cls-3" d="m32.55,120.53c-2.79-1.17-4.81-2.84-6.61-4.83-.88-.96-.99-2.12-.96-3.36.06-2.5-.24-2.9-2.57-3.71-3.42-1.19-5.08-3.4-4.48-6.61.47-2.53,1.66-4.78,4.14-6.09,2.28-1.21,2.49-1.78,1.23-4-2.27-3.99-3-8.15-1.56-12.55.76-2.33,1.9-4.54,4.58-5.1,2.8-.58,4.62,1.24,6.26,3.1,2.35,2.67,3.61,5.97,5.12,9.13.24.5.36,1.08.71,1.48,1.5,1.76,1.02,3.6.32,5.45-1.93,5.08-3.15,10.36-4.28,15.66-.8,3.72-1.26,7.51-1.89,11.43Z"/>
    <path class="cls-3" d="m201.76,76.98c.23,3.01-.47,5.93-.84,8.88-.3,2.36.34,3.11,2.67,2.82,1.3-.16,1.97.39,2.39,1.51.61,1.64.3,3.37.51,5.06.4,3.13.81,6.26.85,9.43.03,2.2-.76,3.86-2.49,5.16-.8.6-1.52,1.3-2.24,1.99-.94.88-1.29,1.98-1.18,3.25.36,4.19-2.2,5.33-5.22,6.06-.7.17-.7-.29-.74-.77-.3-4.19-.59-8.38-1.16-12.54-.67-4.89-1.39-9.77-2.49-14.6-.83-3.65-1.72-7.25-3.04-10.75-.08-.22-.16-.5-.1-.72,1.16-4.29,2.07-8.68,4.79-12.36.78-1.06,1.64-2.03,3.11-2.12,1.87-.11,3.18.7,4.04,2.5,1.09,2.29.93,4.78,1.14,7.2Z"/>
    <path class="cls-3" d="m111.98,18.66c-.3,0-.62.06-.9-.01-.54-.14-1.28.46-1.61-.28-.35-.78-.07-1.57.39-2.25.94-1.38,2.9-2.03,4.68-1.55.38.1.75.26,1.13.39.99.33,1.87.16,2.59-.63.75-.81.47-1.6.05-2.48-.8-1.67-1.43-3.4-1.38-5.31.03-1.09.44-1.94,1.41-2.47.89-.48,1.63-.05,2.35.45.65.46,1.28.98,1.99,1.33,2.63,1.29,3.54,3.62,3.87,6.28.19,1.53.24,3.08.37,4.63.06.65-.07.98-.85,1.03-4.7.27-9.4.59-14.11.9,0-.01,0-.02,0-.04Z"/>
    <path class="cls-5" d="m116.35,104.07c1.82.16,4.23-.32,6.61.26.5.12.95.29,1.37.58,1.89,1.35,1.83,2.92-.26,3.87-2.39,1.08-4.9,1.95-7.58,1.87-2.5-.07-5.07.52-7.47-.68-.53-.27-1.1-.48-1.61-.79-1.01-.62-1.65-1.55-1.43-2.75.22-1.2,1.19-1.79,2.33-2.06.93-.21,1.86-.33,2.82-.31,1.55.04,3.1.01,5.22.01Z"/>
    <path class="cls-5" d="m114.73,101.95c-1.6,0-3.21.02-4.81,0-1.38-.03-3.02-1.57-3.14-2.89-.12-1.34.55-2.13,2.41-2.51,4.48-.92,8.99-1.38,13.55-.59,1.04.18,2.04.56,2.87,1.24,1.17.95,1.06,2.16-.27,2.86-2.18,1.15-4.49,1.89-7,1.87-1.2,0-2.4,0-3.61,0,0,.01,0,.02,0,.03Z"/>
    <path class="cls-2" d="m89.35,84.58c-.13,4.04-1.9,6.16-4.58,6.27-2.35.1-4.03-1.35-4.23-3.71-.19-2.34.71-4.22,2.6-5.57,1.27-.9,2.67-1.38,4.2-.48,1.68.98,1.98,2.58,2.01,3.48Z"/>
    <path class="cls-2" d="m139.8,84.43c.04-2.92,2.44-5.62,5-5.65,2.06-.02,3.78,2,3.77,4.44-.01,2.83-2.45,5.43-5.03,5.36-2.3-.06-3.78-1.71-3.75-4.16Z"/>
  </g>
</svg>