<?xml version="1.0" encoding="UTF-8"?>
<svg id="_图层_2" data-name="图层 2" xmlns="http://www.w3.org/2000/svg" viewBox="0 0 537.32 70.63">
  <defs>
    <style>
      .cls-1 {
        fill: #eb6100;
        stroke-width: 0px;
      }
    </style>
  </defs>
  <g id="_图层_1-2" data-name="图层 1">
    <g>
      <path class="cls-1" d="m191.43,36.13c.88.41,1.67,1.1,2.34,1.02,1.17-.15,2.3-.74,3.41-1.22.28-.12.56-.51.62-.81.3-1.63.55-3.28.76-4.92.09-.71-.44-.71-.97-.55-.21.07-.42.23-.56.4-.39.45-.39,1.42-1.29,1.19-.5-.13-.86-.73-1.3-1.1-.73-.61-1.5-1.18-2.2-1.82-.37-.34-.95-.93-.84-1.18.41-.96.1-1.61-.51-2.35-.22-.27-.12-.85,0-1.23.04-.11.69-.02,1.05-.07,1.8-.24,3.59-.47,5.38-.78.18-.03.37-.54.38-.84.02-.45-.12-.91-.17-1.36-.16-1.37-.15-1.36-1.54-.89-.17.06-.5.02-.59-.09-.78-.95-1.53-1.91-2.26-2.89-.17-.22-.35-.56-.28-.78.28-.92-.24-1.51-.77-2.17-.65-.81-.4-1.73.37-2.9.57-.86,1.22-.74,2-.46,1.68.59,3.38.3,5.08.11,2.78-.31,5.66-.07,8.27-1.34.7-.34.93.16.98.6.16,1.47.39,2.95.28,4.41-.08,1.07-.42,2.1-1.61,2.88-1.29.84-2.79,1.84-2.4,3.79.15.76.45.87,1.09.51.76-.43,1.27-1.37,2.51-.69.42.23.94-.51.55-1.07-.42-.62-.34-1.12-.05-1.76.52-1.15.99-2.32,1.34-3.53.38-1.33.66-2.69.85-4.05.1-.77.02-1.59-.16-2.34-.26-1.09-.05-1.51,1.11-1.91,1.18-.41,2.31-.28,3.35.25.97.5,1.84.35,2.81.07,1.99-.57,4-1.08,6.01-1.59.41-.1.87-.2,1.26-.12,2.01.42,4,.06,6,0,.55-.01,1.14.23,1.66.46.86.38,1.66.9,2.53,1.26.94.39,1.34,1.08.63,1.7-1.29,1.12-.99,2.38-.66,3.66.43,1.69.81,3.41,1.48,5.03.55,1.35,1.48,2.56,2.23,3.84.62,1.05.68,1.91-.44,2.88-1.49,1.28-2.57,2.91-3.21,4.75-.25.72-.76,1.14-1.55,1.31-1.18.25-2.34.65-3.53.78-.75.08-1.56-.15-2.31-.36-.57-.16-1.04-.42-1.31.33-.3.82-.05,1.44.7,1.64.18.05.37.11.54.08,2.28-.31,4.73.05,6.78-1.1.92-.51,1.31.2,1.97.2,1.25-.01.44.87.48,1.36.07,1.04.06,2.09.12,3.13.06.99-.53,1.31-1.45,1.34-.92.03-1.85,0-2.75.11-.62.08-1.25.16-1.45,1.02-.21.94-1.2.62-1.86.51-.65-.11-1.23-.5-1.87-.69-.21-.06-.5.09-.75.15.06.21.06.56.2.61.83.32,1.73.9,2.52.79,2.65-.37,5.25-.98,7.87-1.52.35-.07.66-.34,1.01-.4.7-.12,1.58-.4,1.34.86-.04.21.27.45.37.7.13.31.4.74.28.95-.89,1.56-.93,3.29-1.29,4.95-.12.55-.25,1.17-.6,1.58-.45.52-1.08.81-1.95.61-1-.22-2.06-.2-3.09-.24-.29-.01-.82.08-.84.19-.34,1.72-1.55.76-2.3.57-.92-.23-1.68-.84-2.71-.15-.32.21-1.05-.07-1.58-.19-2.54-.57-5.12-.75-7.63-.03-1.19.34-2.3.79-3.57.91-1.03.1-1.86-.01-2.47-.74-.83-.98-1.85-1.93-2.28-3.07-.92-2.41-3.09-2.68-5.22-3.09-.32-.06-.99.24-1.05.47-.24.95-1,.99-1.79,1.17-1.37.31-2.64.82-3.67,1.8-1.37,1.31-2.36,1.73-4.27-.23-.3-.31-.69-.6-1.1-.75-1.24-.46-1.81-1.23-1.82-2.42,0-.78-.11-1.55-.21-2.33-.11-.93-.26-1.87-.39-2.82Zm20.19-5.66c.8.19,1.75.69,2.54.53,1.93-.38,3.77.09,5.65.12.39,0,1.07-.06,1.13-.23.15-.46.11-1.01-.04-1.47-.04-.13-.76-.07-1.17-.08-.12,0-.24.06-.35.09-2.62.89-4.83-.1-6.95-1.38-.23-.14-.25-.59-.36-.91-.47-1.42-.9-2.85-1.41-4.25-.1-.27-.48-.62-.73-.62-.26,0-.59.34-.77.61-.68,1.04-.75,2.09-.05,3.19.87,1.38.08,3.39-1.45,3.82q-1.44.41-1.17,2.07c1-.57,1.94-1.1,2.85-1.62,1.02,1.61,1.16,3.14.63,4.77-.19.58-.08,1.25-.04,1.88.15,2.24,1.23,2.98,3.65,2.65,1.93-.27,3.89-.38,5.83-.63.54-.07,1.44-.28,1.49-.54.15-.81.31-2.13-.14-2.42-.81-.52-2.06-.49-3.13-.56-.83-.05-1.01.6-1.22,1.25-.41,1.29-1.18,1.52-2.09.57-1.2-1.25-2.63-2.43-2.69-4.31-.03-.84,0-1.67,0-2.54Zm13.59-16.3c0,2.48.16,2.61,2.31,1.93,2.48-.79,2.51-.85,1.44-3.12-.6-1.26-1.05-1.44-2.4-1-1.18.38-1.64,1.12-1.35,2.19Zm-5.32,1.75c.03-1.86-.39-2.18-2.31-1.8-.18.03-.37.03-.54.08-1.02.31-1.49,1.24-1.18,2.34.29,1.04,1.1.6,1.77.53.42-.04.84-.09,1.27-.09.82,0,1.04-.44.98-1.06Zm.11,5.41c-1.94-.03-2.18.33-1.45,1.71.19.36.35.75.64,1.02.54.53,1.81.56,1.92.04.15-.68.05-1.46-.19-2.13-.13-.35-.76-.55-.92-.65Zm9.47.77c-.91.33-1.5.54-2.1.76.18.31.3.83.54.88.91.18,1.23-.44,1.56-1.64Z"/>
      <path class="cls-1" d="m159.28,4.13c2.2-1.31,3.36-1.25,5.26-.09.85.52,1.85.83,2.77,1.26,1.11.52,1.16.88.48,1.87-.31.45-.65,1-.65,1.51,0,1.26.19,2.51.29,3.77.07.78.52.97,1.26.74.52-.16,1.09-.26,1.56-.5,1.33-.67,2.74-.99,4.24-.88.71.05,1.42.15,2.12.26.67.11,1.5.64,1.55-.6.27.01.71-.07.8.06.61.91,1.18,1.85,1.7,2.8.16.29.29.71.18.99-.83,2.18.13,4.22.67,6.23.69,2.58,1.79,5.06,2.74,7.57.14.37.39.71.63,1.04.86,1.17,1.02,1.9.03,2.91-2.12,2.15-2.52,4.76-2.64,7.48-.04.87-.43,1.4-1.06,2.12-1.43,1.63-3.31,2.8-4.72,4.42-.52.6-1.24,1.1-1.97,1.46-1.94.97-3.43-.12-4.72-1.24-1.24-1.08-2.31-2.36-3.36-3.62-.56-.68-1.02-.71-1.64-.15-1.04.96-2.07,1.92-3.13,2.86-.23.21-.69.48-.87.4-1.14-.51-2.42-.72-3.21-1.93-.81-1.25-1.99-2.29-3.05-3.39-.16-.17-.52-.17-.79-.24-.07.21-.17.43-.19.64-.08,1.11.42,2.23-.29,3.34-.68,1.07-1.28,1.79-2.88,1.75-1.19-.03-2.13.09-2.68-1.06-2.46-.81-1.66-3.15-2.48-4.72-.13-.25.06-.77.28-1.03.81-.97.74-2.16,1.04-3.26.19-.7-.26-1.01-.93-.56-.82.54-2.17.66-1.85,2.17.14.67-1.84,1.47-2.75,1.19-1.37-.41-2.8-1.08-3.48-2.09-.59-.88-1.25-1.25-2.11-1.53-1.09-.37-.71-1.14-.72-1.85-.02-.88.7-.55,1.16-.69.8-.25,1.61-.5,2.38-.83,2.22-.96,4.39-2.04,6.65-2.91.99-.38,1.31-.8,1.22-1.77-.11-1.24-.03-2.49-.03-4-1.35,1.81-2.44,3.57-3.85,5.06-.78.82-1.71,1.9-3.29,1.59-.32-.06-.69.18-1.05.23-1.07.18-2.09-.09-2.47-1.04-.38-.95-1.14-1.28-1.97-1.61-.79-.31-1.58-.63-2.4-.87-.59-.17-.9-.42-.99-1.03-.04-.25-.43-.31.14-.44,3.23-.7,5.4-2.81,7.48-5.03.24-.25.42-.57.54-.89.8-2.2,1.05-4.48.82-6.77-.07-.74-.69-1.41-.94-2.15-.27-.79-.46-1.61-.56-2.44-.03-.23.36-.6.65-.76,1.39-.73,4.96-.21,5.94.93.35.4.42,1.05.54,1.6.36,1.74.66,3.5,1.05,5.23.07.33.43.6.65.91.15-.32.44-.65.41-.96-.16-2.05-.37-4.1-.6-6.14-.04-.32-.16-.68-.37-.94-.29-.36-.94-.41-.48-1.19.5-.84.96-1.73,1.97-1.86.63-.08,1.46-.28,2.14.47.5.56,1.47.76,2.25,1.07,1.93.75,2.17,1.19,1.78,3.12-.24,1.18-.39,2.38-.52,3.58-.02.23.18.51.36.7.05.05.43-.12.61-.25.29-.21.62-.43.78-.72.54-.99.95.55,1.44.03.02.29.1.59.04.86-.28,1.41-.61,2.81-.88,4.22-.04.23.14.49.22.74.27-.09.64-.09.8-.27,2.08-2.36,3.8-4.95,4.82-7.83.37-1.05-.03-2.38-.24-3.55-.23-1.21-.14-2.58-1.63-3.48Zm9.86,16.16c.16.86.6,1.81.33,2.05-1.43,1.25-1.42,2.96-1.96,4.5-.06.18-.2.47-.31.47-1.23.01-1.03.78-.96,1.5.08.85.2,1.71.17,2.55-.01.28-.41.73-.69.78-2.04.35-3.22,1.51-3.85,3.28-.23.63-.55,1.09-1.46.98-.79-.09-1.54.32-2.13-.73-.51-.91-1.58-1.56-2.43-2.3-.11-.1-.35-.15-.5-.12-.68.14-1.56,1.59-1.45,2.24.14.89.17,1.8.32,2.68.06.32.27.78.54.88,1.83.65,3.65.99,5.33-.44,2.2-1.87,4.68-3.4,6.58-5.65,1.58-1.87,2.48-3.9,3.13-6.1.47-1.6.83-3.23,1.21-4.86.16-.69.25-1.4.37-2.1-.77.13-1.53.25-2.24.37Zm5.95,5.95c-.74,3.06-1.42,5.73-1.44,8.5,0,.69-.13,1.11-.87,1.49-1.65.85-2.95,2.1-4.04,3.63,1.5.83,2.48-.05,3.44-.8,1.69-1.34,2.68-3.11,3.18-5.08.61-2.44.92-4.91-.27-7.74Zm-11.53-3.46c-.16-.08-.32-.16-.49-.24-.28.59-.61,1.17-.83,1.77-.61,1.67-1.34,2.08-3.19,1.68-.53-.12-1.03-.41-1.56-.46-.29-.03-.85.24-.9.46-.3,1.22-.51,2.46-.7,3.7-.12.83.2,1.06,1.07.67,3.49-1.56,5.86-3.97,6.6-7.57Zm-11.32,2.83c.09.09.18.19.26.28.54-.49,1.16-.92,1.6-1.48.47-.61-.19-.94-.64-1.15-.15-.07-.7.29-.8.54-.23.57-.29,1.2-.42,1.81Z"/>
      <path class="cls-1" d="m126.77,25.1c-.67.7-1.29,1.33-1.9,1.96-.24.26-.54.5-.68.81-.18.4-.18,1.2-.32,1.21-1.16.09-.21.75-.37,1.09-.37.81-1.05.92-1.81.8-.9-.14-1.78-.45-2.69-.52-1.12-.09-2.26-.02-3.52.15,1.03.75,1.51,1.43.7,2.48-.21.27-.07.9.11,1.28.48.99,1.12,1.91,1.59,2.91.49,1.04.91,2.11,1.24,3.21.11.36-.09.87-.3,1.23-.35.6-.77,1.19-1.26,1.69-1.31,1.32-1.41,3.08-2.06,4.65-.54,1.3-1.31,1.67-2.43.91-1.3-.89-2.66-1-4.13-1.01-1.82-.01-3.65-.11-5.46,0-.92.06-1.91.18-2.53,1.13-.47.72-1.32.82-2.09.25-1.68-1.26-3.18-2.54-3.71-4.72-.48-1.98-1.52-3.85-2.36-5.74-.2-.44-.3-.62.24-.92,1.39-.79,1.94-2.13,2.54-3.68-1.19.45-2,.25-2.73-.6-.39-.45-1.12-.64-1.69-.95-.2.63-.61,1.28-.55,1.89.11,1.13-.47,1.69-1.41,2.16-.75.37-1.45.83-2.19,1.22-.25.13-.61.3-.84.22-1.5-.5-2.77.12-4.04.69-1.09.49-1.97.43-2.74-.52-.29-.35-.75-.59-1.16-.83-1.67-.99-2.83-2.23-3.21-4.18-.35-1.79-1.1-3.52-1.72-5.26-.67-1.88-.33-3.57.37-5.45,1.02-2.74,1.57-5.64,2.12-8.51.34-1.78.24-1.98,2.22-1.92,1.38.04,2.92-.56,4.13.62.07.07.35-.03.53-.06,1.42-.25,2.83-.68,4.25-.71,1.38-.03,2.65.66,3.71,1.47.21.16.04.97-.18,1.37-.39.69-1.16,1.25-.45,2.13.64-.4,1.32-.74,1.9-1.2,2.99-2.32,4.22-5.65,5.46-8.88.42-1.09-.1-2.6-.5-3.83-.32-1.02-.07-1.37.94-1.5,1.14-.15,2.26-.38,3.4-.46.36-.03.77.27,1.11.48.6.36,1.12.84,1.74,1.16,1.2.62,1.33.8.48,1.78-.56.65-.78,1.26-.55,2.05.2.72.52,1.15,1.42.8.62-.24,1.39-.27,1.9-.63,2.63-1.86,5.06-.87,7.5.33.1.05.16.2.26.24.5.19,1.43.33,1.45.54.07.77-.01,1.61-.31,2.33-.99,2.39-.7,4.72.06,7.08.21.64.37,1.29.62,2.19-.65-.3-1.03-.42-1.36-.63-.93-.6-.5.73-1.1.66-.35-.04-1.02-.28-.88.41.05.26.61.53.99.62.58.15,1.21.18,1.81.2,3.19.07,6.37.11,9.56.2.53.01,1.06.2,1.59.31-.62.56.85,1.16-.07,1.79-.49.34-.81.9-1.17,1.39-.13.17-.14.43-.2.64h.75Zm-23.62,17.27c1.28-.32,2.56-.64,3.83-.96.22-.06.47-.15.69-.1,1.09.22,1.85-.27,2.25-1.1.53-1.11-.38-1.96-.93-2.82-.53-.84-1.35-.5-2.14-.29-2.18.57-4.35,1.23-6.57,1.59-.99.16-.98.52-.76,1.1.8,2.12.87,2.4,3.63,2.58Zm-11.85-23.3c-1.18-.02-.91.61-.83.97.38,1.67.8,3.32,1.88,4.78.83,1.13.77,1.24,2.12.65,1.27-.55,2.5-1.2,3.71-1.85,1.21-.64,1.18-.71.02-1.6-.37-.28-.62-.7-.93-1.05-.22-.25-.39-.67-.65-.73-1.86-.45-3.74-.83-5.32-1.17Zm-9.31,1.82c-.11.19-.25.34-.27.49-.12,1.24-1.84,2.3-.5,3.72.1.11.1.34.07.5-.26,1.53.81,2.69,1.3,4.01.08.22.54.49.78.46,1.63-.21,2.61-1.9,1.99-3.32-.65-1.47-1.27-2.95-1.94-4.41-.16-.36-.43-.69-.69-.99-.13-.16-.37-.24-.73-.47Zm19.6,10.48c1.49-.24,2.75-.4,4-.66.85-.18,1.67-.5,2.51-.75-.69-.84-1.23-1.89-2.13-2.45-.57-.36-1.66.01-2.51.06-.15,1.4-1.6,1.79-2.38,2.69-.15.18-.27.59-.16.72.19.23.56.33.67.39Zm-.45-16.85c1.13.59,2.09,1.15,3.11,1.59.28.12.94.04,1.05-.14.55-.95,1-1.95,1.42-2.95.09-.22.04-.62-.12-.77-.14-.13-.58-.09-.81.02-1.5.7-2.98,1.44-4.64,2.25Zm-16.81,5.68c-.12,1.87.41,2.99,1.84,4.07-.68-1.51-1.26-2.79-1.84-4.07Z"/>
      <path class="cls-1" d="m34.52,38.15c1.69-.59,2.23-2.16,3.05-3.91-1.25.44-2.1.32-2.7-.58-.11-.17-.41-.24-.62-.36-1.3-.76-1.96-.53-1.72.85.32,1.8-.76,2.33-2.11,2.9-.49.21-.91.58-1.39.81-.35.17-.82.41-1.14.32-1.38-.41-2.53.1-3.69.66-1.08.51-2.1.69-2.9-.44-.07-.09-.16-.19-.26-.24-2.76-1.3-3.98-3.54-4.62-6.25-.55-2.33-1.81-4.51-1.63-6.99.03-.44.09-.93.31-1.3,1.66-2.9,2.22-6.06,2.55-9.26.19-1.92.34-2.25,2.41-2.15,1.32.06,2.81-.53,3.98.61.1.1.46-.03.69-.07,1-.16,2.08-.17,2.99-.54,1.64-.66,2.8.35,4.1.8,1.11.39,1.2.9.59,1.89-.28.44-.6.86-.78,1.33-.08.21.04.61.23.76.12.1.58-.02.78-.17.52-.4.91-.97,1.48-1.29,1.53-.87,2.02-2.45,2.88-3.73.95-1.42,1.83-2.99,2.19-4.6.3-1.32-.06-2.84-.41-4.2-.21-.83-.19-1.16.73-1.28,1.19-.17,2.38-.39,3.57-.55.22-.03.59,0,.69.14.71.93,1.8,1.31,2.8,1.83.69.36.44.9.02,1.29-.81.75-.85,1.64-.53,2.55.09.25.66.58.9.52.99-.26,2.01-.55,2.9-1.04,1.5-.83,2.94-.8,4.55-.31,1.24.37,2.2,1.39,3.63,1.35.15,0,.44.42.44.64-.02.68,0,1.42-.29,2.02-1.09,2.31-.76,4.6-.09,6.91.22.76.46,1.52.62,2.44-1.15-1.14-2.08,0-3.08.08-.03,0-.1.62-.03.64.68.23,1.37.52,2.08.55,1.9.07,3.81,0,5.71.03,1.59.02,3.19.22,4.77.11,1.25-.09.95,1.23,1.8,1.4-.32.45-.6.93-.95,1.35-1.09,1.3-1.32,3.1-2.79,4.18-.14.11-.22.46-.15.62.24.52.36.89-.5.7-.04,0-.15.13-.19.22-.69,1.76-.67,1.7-2.51,1.4-1.71-.28-3.45-.82-5.42-.04.91.66,1.59,1.27.72,2.28-.22.26-.13.9.04,1.27.46,1,1.1,1.92,1.58,2.92.52,1.08.97,2.2,1.37,3.33.11.31,0,.78-.21,1.06-.7,1.01-1.53,1.94-2.19,2.96-.38.6-.55,1.33-.78,2.01-.28.8-.5,1.61-.8,2.4-.06.15-.38.3-.58.29-.48-.01-1.07.02-1.43-.21-2.23-1.43-4.68-1.25-7.17-1.01-.53.05-1.09-.16-1.63-.13-1.33.06-2.68.04-3.58,1.3-.47.65-1.3.67-1.96.16-1.61-1.23-3.24-2.4-3.65-4.56-.22-1.16-.95-2.23-1.4-3.35-.43-1.05-.8-2.12-1.23-3.29Zm10.47,4.01c.61-.03,1.23-.03,1.83-.09,1.3-.15,2.46-.77,3.81-.85.78-.05,1.41-.72,1.41-1.59,0-1.87-1.61-2.94-3.51-2.48-2.22.55-4.47.97-6.7,1.49-.18.04-.39.4-.39.62-.06,2.01,1.03,2.89,3.54,2.9Zm-11.62-23c-.89-.17-1.29.16-.98,1.03.58,1.6,1.39,3.12,2,4.72.42,1.11,1.11,1.05,1.98.62,1.13-.56,2.26-1.11,3.35-1.73.5-.28.9-.71,1.34-1.07-.37-.26-.75-.51-1.09-.8-.18-.15-.35-.34-.44-.54-.56-1.19-1.74-1.52-2.92-1.77-1.06-.22-2.16-.31-3.24-.46Zm-9.3,1.77c-.22.25-.45.41-.49.59-.24,1.29-1.67,2.49-.37,3.91.14.15.08.44.15.66.38,1.19.74,2.38,1.17,3.56.08.22.38.5.6.52,1.07.09,2.83-1.81,2.44-2.72-.86-2.01-1.85-3.97-2.82-5.93-.11-.22-.41-.35-.68-.58Zm19.51,10.47c1.42-.24,2.63-.4,3.82-.65.92-.19,1.82-.49,2.72-.74-.7-.84-1.39-1.68-2.09-2.52-.04-.04-.1-.1-.15-.09-.75.03-1.83-.63-2.19.03-.63,1.16-1.65,1.87-2.53,2.76-.2.2-.38.64-.28.83.13.23.56.32.69.39Zm-.52-16.87c.87.47,1.59.85,2.31,1.24q1.62.86,2.37-.67c.28-.57.6-1.13.82-1.72.13-.35.07-.75.1-1.13-.39.05-.83.02-1.17.17-1.42.64-2.81,1.34-4.43,2.12Zm-15.46,9.68c.13-.06.26-.12.38-.17-.54-1.23-1.09-2.46-1.63-3.68-.36,1.55.47,2.69,1.25,3.86Z"/>
      <path class="cls-1" d="m280.95,50.6c.49.58.73.87,1.11,1.31-1.23.01-2.29.56-3.22-.37-.08-.08-.5.05-.7.17-2.05,1.24-5.81.82-6.58-1.19-1.2-3.11-4.13-3.93-6.65-5.36-.44-.25-1.04-.3-1.58-.33-1.81-.12-3.09-.81-3.73-2.51-.46-1.23-1.02-2.41-2.29-3.23-.99-.64-.9-2,.21-3.34,1.03-1.25,1.85-2.53,2.25-4.08.28-1.06,1.81-1.83,3.19-1.29,1.71.66,3.25.22,4.86-.02.72-.11,1.44-.27,2.14-.49.35-.11.63-.39.95-.59-.33-.2-.64-.52-1-.58-.46-.09-.98,0-1.46.06-2.66.39-5.32.79-7.98,1.21-1.5.24-2.72-.04-3.75-1.21-1.76-2-3.26-4.12-4.37-6.75,4.22.15,8.32.3,12.42.44-1.54.06-2.53-.96-3.68-1.6-1.55-.86-1.54-.88-2.37-2.64,4.38-.74,6.75-2.12,7.89-4.67-.95.14-1.89.06-2.48.91-.6.86-1.11.47-1.52-.15-.25-.39-.41-.83-.59-1.26-.64-1.51-1.4-2.92-2.74-4.03-.63-.52-.7-1.69-.16-2.3.17-.19.65-.28.93-.21,1.75.42,3.48.55,5.27.22.71-.13,1.51.09,2.26.2,1.13.17,1.61-.15,1.87-1.32.32-1.45.61-2.92,1.01-4.36.1-.35.54-.79.9-.87,1.01-.21,2.05-.29,3.08-.35,1.39-.08,2.52.4,3.29,1.52.2.29.44.55.66.83q1.58,1.98-.09,4.03c.96.4,1.88.31,2.82.15,1.26-.21,2.53-.35,3.77-.6,1.07-.22,2.14-.48,3.16-.84.73-.26.86.32.78.55-.76,2.28-.25,4.68-.77,6.98-.3,1.34-1.64,2.21-2.94,1.59-.76-.36-1.24-.47-1.98,0-.34.22-.97.04-1.69.04,2.45,2.47,4.93.92,7.63.27-.43.49-.72.75-.92,1.05-.09.14-.11.48-.02.53.3.19.95.29.95.42-.02.69-.15,1.39-.32,2.07-.09.38-.38.73-.48,1.11-.09.36-.19,1.01-.05,1.08.38.17.95.24,1.33.09,1-.39,1.96-.9,2.91-1.4.37-.19.69-.47,1.27-.86.34,1.37.76,2.59.93,3.84.17,1.23.1,2.49.11,3.74,0,.8-.87,1.64-1.91,2.05-.58.23-1.24.52-1.59.97-1.52,1.96-1.69,2.04-3.96,1.11-.1-.04-.24-.02-.51-.04.04.39,0,.77.13,1.11.8,2.28,1.24,4.69,2.82,6.69.21.27.44.66.39.94-.23,1.23-.38,2.34.96,3.2.19.12-.01,1.2-.36,1.53-.7.68-1.55,1.44-2.47,1.66-2.04.49-3.2,1.89-4.28,3.3-.75.97-1.36,1.89-3.06,1.88Zm-16.73-6.56c1.7,1.26,3.01.91,4.35.29.31-.15.72-.11,1.08-.17,1.86-.32,3.71-.64,5.2-1.9.24-.21.72-.19,1.1-.24,1.46-.18,2.48-.98,2.39-1.88-.2-1.92-.41-3.84-.62-5.76-.13-1.25-.34-2.43-2.1-2.51-.33-.01-.65-.17-.98-.26.05.37.08.74.16,1.11.04.16.16.31.28.44,1.21,1.38,1.37,2.74.81,4.57-.99,3.23-3.31,4.75-6.46,5.51-1.6.38-3.27.51-5.2.79Zm16.15-21.92c.04-.13.08-.26.12-.39-1.16-.66-2.32-1.35-3.5-1.98-1-.54-2.1-.97-2.2-2.48-1.23,1.46-1.53,2.96-1.89,4.43-.16.64.24.77.84.72,1.63-.12,3.27-.21,4.91-.29.57-.03,1.15,0,1.72,0Zm-15.41,16.38c.67-.26,1.71-.72,2.79-1.07.59-.19,1.39-.2,1.01-1.02-.34-.72-.35-1.94-1.56-1.84-1.2.1-2.45.4-3.51.92-.54.26-.98,1.22-.94,1.83.04.75.81,1.24,2.21,1.18Zm15.88-23.48c.04-.14.07-.28.11-.41-1.05-.4-2.1-.83-3.17-1.18-.19-.06-.65.14-.69.29-.06.2.1.64.28.7,1.12.39,2.23.88,3.47.6Zm-9.12,7.76c-.51-.97-1.26-.82-1.96-.73-.12.02-.29.24-.3.38,0,.11.19.33.31.34.6.03,1.2.02,1.95.02Z"/>
      <path class="cls-1" d="m326.88,45.01c-1.44-.21-2.88-.43-4.4-.66.14-.08.19-.13.24-.14.44-.13,1.15-.15,1.27-.41.36-.78-.55-.7-.96-.96-.2-.13-.36-.3-.54-.46-1.36-1.21-2-1.27-2.57.42-.85,2.52-2.73,3.52-5.13,4.26-1.68.52-1.73.58-3.01-.54-.7-.62-1.49-1.18-2.3-1.68-1-.62-1.71-1.46-2.14-2.47-.4-.95-.06-1.31.98-1.09,1.31.27,2.45.3,2.93-1.18.99.1,1.17-.76,1.65-1.25.24-.25.47-.55.58-.87.58-1.71.21-1.77-1.21-1.83-2.59-.11-3.45-.96-3.85-3.37-.27-1.67-.52-3.29.26-4.88.27-.55.63-1.05.9-1.59.36-.71.68-1.44.97-2.18.01-.03-.54-.4-.68-.33-1.68.82-3.79.13-4.28-1.5-.21-.71-.41-1.51-.27-2.21.2-.99.25-1.95.29-2.94.04-1.06,1.14-1.33,2.11-.61,1.08.79,2.23,1.38,3.64,1.52.88.09,1.36-.09,1.61-.95.57-1.94,1.28-3.83,1.85-5.77.12-.41.02-1.02-.24-1.37-.86-1.17-.58-2.57.78-3.2.44-.2.9-.36,1.37-.51,1.55-.49,2.03-.31,2.86,1,.65,1.03,1.35,2.04,1.97,3.09.15.25.22.81.08.9-1.66,1.07-1.36,2.81-1.97,4.63.85-.34,1.59-.44,1.97-.83,1.07-1.11,2.3-.57,3.43-.37.94.17,1.25,1.02.81,1.88-.41.82-.87,1.61-.41,2.69.72-.47,1.33-.86,1.96-1.27.38,1.29.71,2.4,1.15,3.91.88-1.62,1.31-2.88.76-4.31-.51-1.32-.23-1.69,1.25-1.56,1.76.16,3.03,1.17,4.08,2.4.24.29.13.87.1,1.32-.02.34-.25.67-.24,1,0,.24.26.47.4.7.21-.16.59-.29.62-.48.25-1.63.82-3.25.15-4.92-.32-.8-.34-1.73-.77-2.47-1.15-1.97-.26-4.29-1.37-6.25-.17-.29-.11-.93.12-1.14,1.05-.95,1.78-2.25,3.45-2.55,1.55-.27,2.82.12,4.12.87,1.61.92,2.58,2.17,3.01,3.87.19.74.22,1.41-.54,1.82-.78.42-.84,1.07-.84,1.77.01,2.77.33,5.49,1.51,8.08.61,1.34.48,1.66-1.05,2.35-1.17.53-.83,1.52-1,2.37-.16.79.3,1.14.99,1.42,1.76.72,3.25,1.96,5.22,2.26.25.04.46.45.64.73.53.8.94,1.7,1.58,2.42,1.16,1.32,1.24,1.84.28,3.34-.24.37-.37.84-.41,1.27-.07.68-.02,1.38,0,2.06.03,1.9,0,1.84-1.88,2.42-1.1.34-2.16.82-2.54,2.03-.27.87-.33,1.95-1.93,1.6-.24-.05-.92.95-1.11,1.55-.24.74-.18,1.56-.25,2.37-1.83-.57-3.58-.55-5.21.2-1.3.6-2.47,1.44-3.72,2.14-.28.16-.83.36-.93.25-.27-.27-.27-.9-.55-1.01-.35-.14-.97.26-1.31.11-.81-.36-1.72-.76-2.22-1.4-.74-.97-1.86-1.09-2.83-1.56-.38-.18-.82-.29-1.14-.54-.11-.08.01-.69.14-.73.54-.16,1.13-.19,1.7-.28,0-.14,0-.27.01-.41Zm6.94-19.13c-.73,1.5-1.45,3.01-2.22,4.5-.16.31-.49.56-.79.76-.28.18-.71.44-.94.35-.98-.39-1.91-.9-2.85-1.37-.37-.18-.78-.59-1.08-.53-.37.07-.81.48-.95.84-.29.72-.41,1.51-.6,2.27l.24.08c.29-.55.57-1.1.93-1.78.44.98.68,1.96,1.26,2.72,1,1.33,1.46,2.73,1.44,4.33,0,.51.07,1.03.16,1.53.3,1.61,1.47,2.08,2.98,1.17.67-.4,1.27-.9,1.93-1.32.86-.54,1.75-.98,1.84-2.17.03-.36.7-.93,1.11-.95,1.03-.06,1.42-.81,2.02-1.33.71-.61,1.34-1.3,2.05-1.89,1.02-.85,1.95-1.71,1.72-3.45-.42.53-.82.83-.93,1.21-.27.95-.86,1.24-1.88,1.2-.8-.03-1.56.55-2.4-.16-1.94-1.64-3.6-3.35-3.07-6.06.27.02.75.1.76.05.11-.35.25-.76.15-1.09-.14-.44-.48-.82-.88-1.45v2.53Zm-15.26,1.07c-.08-.19-.14-.46-.31-.65-.06-.06-.5.06-.6.2-.67,1-1.37,2-1.93,3.05-.39.74.37,1.02.91,1.21.22.08.81-.2.89-.43.4-1.08.68-2.19,1.04-3.38Zm1.61-8.41c-.11-.14-.46-.88-.76-.86-.84.06-1.13.72-1.1,1.5.02.56.24.85.87.86.83.01,1.05-.44,1-1.5Z"/>
      <path class="cls-1" d="m369.74,10.09c1.33.91,2.71.93,4.24.66,1.28-.23,2.65-.14,3.97-.06,2.9.18,5.79.48,8.69.64.96.05,1.94-.17,2.91-.25,1.64-.13,3.29-.25,4.93-.36.24-.02.6-.07.71.05,1.05,1.11,2.4.59,3.62.59,1.46,0,2.93-.16,4.39-.25,1.61-.1,1.86-.44,1.31-1.94,1.91.4,3.79.8,5.75.22-.56.58-1.13,1.17-1.76,1.83.48.08,1.24.08,1.27.22.17.76.41,1.65.15,2.32-.5,1.25-.67,2.32.03,3.59.49.89-.17,1.64-1.33,2-.17.05-.31.16-.47.25-1.28.74-2.4.99-3.53-.38-.46-.56-1.44-.82-2.24-1.04-2.64-.7-5.3-.8-7.93.1-.4.14-.71.5-1.05.76.38.33.73.91,1.14.95.89.09,1.81-.05,2.71-.19.41-.06.8-.3,1.16-.51,1.69-1.02,3.23-.7,4.74.39.72.52,1.47,1.1,2.31,1.37,1.13.36,1.16,1.4,1.71,2.07.68.83-.06,1.53-.69,2.34-.73.95-1.07,2.31-1.15,3.51-.09,1.52.15,3.08.44,4.59.21,1.13-.35,1.73-1.22,2.27-.77.48-.51.88.17,1.02,2.08.43,4.18.76,6.27,1.15.8.15,1.46.69,2.37.61.34-.03,1.15.4.32,1,.62,1.68-.83,2.42-1.81,3.29-.94.83-1.38,2.14-2.92,2.45-.38.08-.59,1.05-.82,1.64-.5,1.22-.53,1.31-1.73.8-.8-.34-1.43-.87-1.63.46-.01.08-.7.22-.9.09-.44-.28-.78-.71-1.15-1.09-1.26-1.25-2.5-2.51-3.81-3.71-.23-.21-.88-.32-1.12-.17-.89.56-2.18,1.13-2.38,1.9-.24.92-1.08,1.45-1.22,2.34-.02.11-1.01.29-1.12.14-.59-.74-1.46-.71-2.22-.74-1.56-.08-2.67-1.03-3.97-1.61-.34-.15-1.16-.48-.31-1.07-.14-.16-.24-.41-.42-.48-.69-.27-1.42-.37-1.69-1.24-.1-.32-.78-.35-.86.29-.04.28-.02.57,0,.86.15,1.89.03,1.75-1.79,2.75-1.27.7-2.38,1.29-3.83.78-.4-.14-.8-.38-1.08-.67-.52-.54-1.01-1.13-1.42-1.75-.22-.33-.39-.79-.34-1.16.1-.66.32-1.31.6-1.92.52-1.14.36-2.22-.19-3.59-.82.96-1.56,1.75-2.2,2.6-.85,1.12-2.51,1.03-3.12-.27-.34-.74-.54-1.27-1.66-1.03-.72.16-2.82-2.11-2.66-2.9.24-1.22-.12-2.69,1.39-3.53.36-.2.59-.73.7-1.14.2-.71.21-1.47.38-2.19.16-.66.44-1.3.66-1.94.1.49.18,1,.3,1.5.37,1.5.96,1.77,2.39.96.72-.41,1.37-.96,1.92-1.56,1-1.07,1.86-2.24,2.84-3.32,1.99-2.18,2.52-4.81,2.68-7.53.08-1.35-.55-1.65-1.79-.95-.58.33-1.13.7-1.64,1.11-1.03.84-1.66.8-2.38-.29-.51-.78-.92-1.62-1.42-2.41-.59-.94-1.12-1.94-1.88-2.74-.7-.75-.91-1.44-.34-2.47Zm21.67,25.23c-.21-.08-.42-.2-.64-.24-.23-.04-.49-.03-.72,0-1.63.26-1.7.28-1.93-1.12-.13-.77-.55-.98-1.24-.92-.48.04-.95.18-1.41.32-1.43.43-2,.29-3.41-.77-.23-.17-.68-.09-1.02-.12.08.26.18.51.24.77.1.46.39,1.01.22,1.36-.32.68-.86,1.23.42,1.47.09.02.15.35.14.53-.01.37-.08.73-.17,1.43.65-.52,1.03-.81,1.52-1.2-.16.62-.3,1.11-.42,1.61-.06.26-.08.52-.11.78.35-.01.73.06,1.03-.05,1.77-.63,3.5-1.38,5.29-1.93,1.08-.33,1.85-.81,2.21-1.91Zm-6.48-8.22c1.35-1.19,1.91-2.65,2.24-4.11.33-1.43.34-2.92.37-4.39,0-.32-.48-.65-.74-.98-.35.26-.77.48-1.03.8-.21.25-.23.64-.35.96-.86,2.48-.77,5.01-.49,7.72Zm10.35-1.52c0,.1,0,.21,0,.31.59.37,1.17.77,1.78,1.11.29.16.65.21.98.32.09-.38.28-.77.23-1.13-.04-.23-.43-.55-.69-.58-.75-.08-1.52-.03-2.28-.03Zm-1.43,4.94c.42.29.61.43.8.56.59.4,1.03.13,1.35-.34.15-.21.17-.49.24-.74-.44.07-.88.13-1.31.22-.29.06-.57.16-1.09.3Z"/>
      <path class="cls-1" d="m470.99,41.8c-4-.27-7.99-.55-11.99-.81-1.13-.08-1.91-.61-2.54-1.48-1.31-1.79-2.65-3.49-3.42-5.63-.89-2.48-2.26-4.82-3.53-7.17-.84-1.54-.7-2.99.03-4.45,1.94-3.9,3.96-7.76,5.84-11.68.61-1.28,2.03-2.16,2.03-3.75,0-.18.6-.47.95-.52,1.06-.14,2.14-.21,3.22-.24.19,0,.55.3.55.46-.01,1.11.78,1.17,1.62,1.14.49-.02.97-.1,1.46-.17,1.74-.27,3.47-.57,5.22-.8,1.07-.14,2.89,1.23,3.41,2.54.3.75.47,1.54.7,2.32.51,1.76.9,3.56,1.56,5.26.9,2.3,2.09,4.5,3,6.8.3.75.3,1.72.09,2.5-.91,3.27-1.98,6.49-2.92,9.75-.26.92-.22,1.92-.4,2.86-.12.63-.35,1.26-.62,1.85-.57,1.26-1.69,1.38-2.96,1.18-.42-.07-.85-.07-1.28-.1v.14Zm-7.07-24.93c-.49,0-.99-.05-1.47.01-.96.13-3.64,2.85-3.54,3.75.15,1.35.3,2.76.85,3.99,1.02,2.27,2.25,4.44,2.35,6.99.04,1.08.56,1.4,1.69,1.26,1.57-.2,3.13-.49,4.69-.77.28-.05.7-.21.75-.39.42-1.51,1.52-2.97.93-4.59-1.04-2.87-2.2-5.7-3.38-8.52-.7-1.68-.95-1.78-2.88-1.74Zm3.78,1.8c.46,2.27,1.81,4.18,2.89,6.19.02-2.46-1.27-4.39-2.89-6.19Z"/>
      <path class="cls-1" d="m447.51,28.63c-.31.68-.59,1.28-.86,1.88.09.06.17.12.26.19.43-.24.86-.48,1.35-.75,0,.19.09.38.02.5-1.1,1.79-.51,3.52.37,5.14.5.93.61,1.48-.4,2.15-.53.35-1.18,1.33-1,1.67.66,1.3-.32.88-.89.9-1.04.04-2.09.1-3.12.05-1.07-.05-1.95.08-2.45,1.1-.07.15-.4.34-.54.31-1.09-.3-2.2-.56-3.24-1-1.49-.63-2.89-1.47-4.4-2.07-1.1-.44-2.3-.8-3.48-.87-1.29-.08-2.36.56-2.91,1.75-.27.6-.6.86-1.23.38-2.11-1.6-2.99-3.21-3.01-5.7,0-.44.1-.95.34-1.32.46-.73.23-1.5.38-2.2.11-.49,1.24-.76,1.88-1.17.38-.24.65-.74,1.04-.82,2.25-.47,3.38-2.18,4.68-3.66,1.08-1.24,2.01-2.59,2.96-3.93.91-1.28,1.32-2.72,1.17-4.26-.1-1.03-.56-1.35-1.41-.84-2.4,1.44-5.01,2.68-6.56,5.1-.13.2-.74.36-.97.25-1.19-.58-2.47-1.11-3.45-1.94-.82-.69-1.36-1.73-1.88-2.68-.42-.76-1.02-1.74-.8-2.4.21-.62,1.41-.94,2.16-1.41,1.92-1.22,3.81-2.48,5.76-3.66.58-.35,1.34-.43,1.94-.74.86-.45,1.73-.94,2.47-1.55.63-.52,1.25-.61,2.02-.5.46.06,1.03.07,1.41-.13.51-.26.83-.23,1.32.02.33.17.86.16,1.22.03,1.03-.34,1.72,0,2.45.68.68.64,1.51,1.15,2.32,1.65,1.63,1.01,1.9,1.71.89,3.24-.55.82-.54,1.62-.33,2.47.49,1.95.99,3.9,1.53,5.85.42,1.51.27,1.78-1.24,2.5-1.15.54-2.25,1.18-2.85,2.32-.86,1.65-1.73,3.29-2.53,4.96-.14.3-.1.89.11,1.05.23.18.78.07,1.16,0,.28-.05.52-.38.78-.38,1.82-.04,3.1-.96,4.25-2.13.78-.79,1.53-1.19,2.44-.12.12.14.55.05.86.07Zm-18.07-18.68c-.53.43-1.06.86-1.57,1.3,0,0,.13.24.19.24.84-.07,1.41-.45,1.39-1.54Z"/>
      <path class="cls-1" d="m506.74,30.88c.67-.49,1.12-.81,1.61-1.17-.01.21.04.4-.04.52-1.17,1.76-.72,3.58.21,5.16.71,1.2.52,1.76-.55,2.51-.8.55-1.11,1.42-.31,2.46-1.69,0-3.27-.01-4.86,0-.42,0-.92.01-1.23.22-.51.34-1.03,1.29-1.32,1.21-1.73-.44-3.42-1.03-5.06-1.7-1.56-.64-2.97-1.61-4.57-2.12-2.03-.64-3.36-.08-4.51,1.65-.48.71-.69.61-1.37.18-1.93-1.21-2.61-2.94-2.69-4.96-.03-.67,0-1.39.27-2,.49-1.14,0-2.89,2.07-3.12.3-1.09,1.43-1.08,2.25-1.47.43-.2,1.02-.28,1.27-.59,1.96-2.41,3.99-4.79,5.72-7.35.63-.93.66-2.3.69-3.48.03-.98-.57-1.26-1.46-.73-2.41,1.44-5.03,2.67-6.51,5.14-.31.51-.59.42-1.03.17-1.09-.63-2.39-1.05-3.27-1.87-.92-.85-1.47-2.05-2.14-3.12-.26-.42-.33-.94-.61-1.35-.32-.48-.17-.64.29-.92,2.14-1.3,4.23-2.67,6.36-3.99,1.08-.67,1.92-1.69,3.5-1.65.64.02,1.36-.82,1.96-1.35.75-.66,1.64-.5,2.51-.67,1.41-.27,2.78.2,4.16-.11.48-.11,1.17.19,1.64.48,1.01.63,1.92,1.39,2.91,2.06,1.37.94,1.64,1.58.78,2.86-.7,1.04-.63,2.07-.36,3.14.48,1.89.98,3.78,1.5,5.67.36,1.32.2,1.65-1.18,2.2-1.13.46-2.21,1.03-2.8,2.1-.96,1.73-1.88,3.47-2.75,5.24-.15.3-.11.89.11,1.06.23.18.78.09,1.17,0,.34-.07.64-.41.96-.42,1.67-.07,2.87-.9,3.96-1.96.42-.4.8-.92,1.55-.65.49.18,1.11.25,1.44.57.18.19-.12.79-.2,1.21-.03.2-.03.41-.07.91Zm-18.72-19.18c.57-.42,1.13-.84,1.7-1.26q-1.45.1-1.7,1.26Z"/>
      <path class="cls-1" d="m533.09,24.42c.08.3.2.92.4,1.52.51,1.53.88,3.14,1.63,4.57,1.24,2.35.63,4.7.37,7.07-.04.34-.35.71-.64.97-1.99,1.81-4.24,3.29-6.74,4.39-1.04.46-2.35,1.04-3.2-.47-.09-.16-.39-.29-.6-.31-1.04-.08-2.07-.14-3.11-.17-1.99-.06-3.86-.55-5.54-1.53-.39-.23-.79-.82-.78-1.23.09-2.13-1.23-3.82-1.92-5.69-.19-.52-.48-.96-1.29-1.02-.63-.05-.95-.62-.72-1.32.24-.71.37-1.45.56-2.17.5-1.88,1.03-3.76,1.51-5.65.25-.97.4-1.96.62-2.94.02-.08.26-.21.34-.18.9.34,1.02-.17,1.15-.82.27-1.35,1.27-2.27,2.27-3.18.21-.19.62-.35.64-.55.2-2.22,2.15-3.52,3.15-5.31.84-1.5,2.01-2.85,3.14-4.2,1.1-1.31,2.3-1.67,3.68-.97.42.21.99.16,1.4.38.66.35,1.27.8,1.84,1.27.25.21.26.69.52.88.51.37,1.45.55,1.15,1.32-.36.94-.8,2.11-1.61,2.6-2.74,1.69-4.58,4.12-6.62,6.4-.67.75-1.34,1.49-1.95,2.28-.13.17,0,.51,0,.78.22-.04.52,0,.65-.13,1.53-1.42,3.7-.94,5.48-1.61.2-.08.57.12.82.26.36.2.65.51,1.02.69,1.49.73,2.39,2.12,2.36,4.08Zm-8.58,10.17s0-.02,0-.03c.73,0,1.48.09,2.19-.04.36-.07.85-.49.91-.82.32-1.76.29-3.49-.8-5.1-.75-1.11-1.23-1.4-2.52-.8-.97.45-1.76,1.22-2.72,1.68-.6.29-.69.62-.81,1.16-.3,1.36.24,2.57,1.02,3.51.4.48,1.67.31,2.55.44.06,0,.12,0,.18,0Z"/>
      <path class="cls-1" d="m356.99,20.71c-.79,1.24-.75,1.37.44,1.47.24.02.5-.03.73.01.52.1,1.85-.2.54.89.48,1.82-1.62,2.85-1.56,4.69.04,1.12-1.46,1.82-2.75,2.44-1.99.96-2.73-.26-3.87-1.16-1.01-.79-2.13-1.52-3.32-2.04-.88-.38-1.5-.85-1.59-1.7-.17-1.64-.29-3.3-.27-4.95,0-.81.43-1.55.14-2.48-.15-.47.67-1.56,1.3-1.8.75-.28,1.83-.07,2.21.97.33.93,1.83,1.11,1.71,2.34,0,.04.21.17.3.15,2.18-.41,3.75,1.61,5.99,1.16Z"/>
      <path class="cls-1" d="m381.74,8.06c.66-.4,1.31-.81,1.98-1.19.82-.47,1.23-.94,1.13-2.04-.22-2.6,2.88-4.5,5.47-3.54.61.22,1.26.34,1.88.53.45.13,1.11.18,1.3.47.87,1.35,1.76,2.72,2.32,4.19.31.81-.39,1.66-1.24,2.13-1.61.89-3.16,1.96-5.26,1.38-.66-.19-1.43-.02-2.14-.11-.31-.04-.61-.26-.87-.45-.36-.27-.64-.66-1.03-.86-1.1-.56-2.2-1.26-3.55-.5Z"/>
    </g>
    <g>
      <path class="cls-1" d="m3.19,58.6h3.6c.39-.01.74-.07,1.06-.16.14-.04.26-.05.36-.05.37,0,.73.27,1.08.82s.52,1.11.52,1.69c0,.4-.12.69-.36.87-.18.14-.4.21-.66.21-.24,0-.45-.07-.63-.2s-.35-.36-.53-.67c-.15-.28-.27-.47-.36-.55s-.19-.13-.31-.13c-.17,0-.29.07-.36.21s-.11.37-.11.7v3.83c0,.39.04.68.12.85s.24.31.46.41c.25.1.41.2.5.3s.13.22.13.39c0,.33-.22.57-.67.73s-1.13.24-2.05.24c-1.13,0-1.97-.09-2.52-.28-.46-.15-.69-.41-.69-.75,0-.19.08-.33.25-.44.04-.02.2-.08.49-.16.17-.05.29-.15.36-.29s.12-.41.16-.81c.04-.36.07-.93.1-1.73s.05-1.48.05-2.07c0-.41-.03-.7-.1-.88s-.17-.26-.31-.26c-.18,0-.35.13-.52.38-.31.46-.56.77-.75.92-.23.18-.46.27-.68.27-.25,0-.45-.09-.61-.28s-.24-.42-.24-.71.06-.59.19-.93.3-.65.51-.94c.35-.46.69-.7,1.03-.7.09,0,.2.01.31.04.25.05.45.08.6.1s.34.03.54.03Z"/>
      <path class="cls-1" d="m13.87,58.93l-.09,2.86c0,.34.1.51.31.51.11,0,.22-.08.32-.23.44-.64,1.03-.96,1.77-.96s1.3.22,1.73.66c.19.2.33.43.41.7s.12.65.13,1.16l.06,2.47c0,.21.03.37.09.47s.17.23.37.38c.13.1.2.23.2.38,0,.49-.74.74-2.23.74-1.32,0-1.98-.23-1.98-.69,0-.08.01-.14.03-.18s.1-.15.24-.33c.19-.25.29-.88.29-1.88,0-.61-.06-1.05-.17-1.33-.15-.38-.42-.57-.81-.57-.28,0-.48.1-.62.3-.1.15-.14.42-.14.82v1.32c.03.58.06.91.08.99s.13.22.31.43c.09.1.13.21.13.33,0,.52-.67.77-2.01.77-1.57,0-2.35-.27-2.35-.8,0-.12.02-.22.08-.28s.17-.17.37-.3c.17-.12.29-.45.36-.99s.1-1.43.1-2.68c0-.98-.03-1.66-.08-2.04-.02-.14-.05-.25-.1-.31s-.14-.13-.27-.2c-.28-.15-.42-.31-.42-.51,0-.23.11-.41.32-.55s.62-.29,1.23-.46c.82-.23,1.47-.34,1.96-.34.26,0,.39.11.38.34Z"/>
      <path class="cls-1" d="m25.89,64.86h-3.21c-.14,0-.21.06-.21.18,0,.3.16.58.48.84s.67.39,1.04.39c.22,0,.46-.04.73-.13s.49-.19.66-.31c.15-.11.28-.16.37-.16.12,0,.23.07.35.22s.17.3.17.45c0,.33-.21.65-.62.95-.72.54-1.56.81-2.51.81s-1.76-.28-2.41-.83c-.31-.27-.57-.6-.78-.99-.27-.52-.4-1.06-.4-1.63,0-.77.23-1.45.7-2.06.4-.53.91-.92,1.53-1.18.46-.2.97-.29,1.51-.29.87,0,1.6.25,2.21.74.31.25.55.54.74.88.21.38.32.76.32,1.12,0,.3-.06.54-.18.73s-.28.28-.48.28Zm-3.04-1.28h.69c.29,0,.44-.13.44-.4,0-.25-.07-.45-.21-.6s-.33-.23-.55-.23c-.26,0-.46.1-.6.3-.14.19-.21.38-.21.57,0,.14.03.23.1.29s.18.08.35.08Z"/>
      <path class="cls-1" d="m35.63,67.93h-4.66c-.41,0-.62-.12-.62-.35,0-.12.04-.23.13-.33s.37-.38.84-.82c.88-.83,1.53-1.6,1.96-2.32.22-.36.33-.68.33-.94,0-.23-.07-.41-.2-.54s-.31-.2-.53-.2c-.21,0-.37.03-.48.09s-.35.24-.72.56c-.1.08-.23.12-.4.12-.21,0-.41-.08-.59-.25s-.27-.35-.27-.54c0-.18.08-.38.25-.6s.38-.44.65-.64c.98-.71,2.08-1.06,3.27-1.06.91,0,1.67.18,2.26.53.27.16.49.38.65.67s.25.59.25.9c0,.8-.55,1.66-1.65,2.6-.39.33-.59.57-.59.74,0,.13.06.24.18.32s.26.13.43.13c.4,0,.76-.15,1.07-.46.16-.15.27-.25.32-.28s.12-.05.22-.05c.4,0,.6.34.6,1.03,0,.34-.06.69-.19,1.04s-.31.65-.53.91c-.24.27-.5.41-.78.41-.11,0-.21-.02-.27-.07s-.15-.14-.23-.27c-.08-.13-.16-.21-.24-.25s-.23-.05-.44-.05Z"/>
      <path class="cls-1" d="m47.19,63.64l.1,2.41c0,.18.04.32.09.4s.19.25.42.5c.07.07.1.18.1.31,0,.3-.18.51-.54.63s-1,.18-1.93.18c-.63,0-1.07-.05-1.33-.16-.27-.11-.4-.3-.4-.55,0-.09.01-.16.04-.2s.12-.15.27-.32c.18-.19.27-.83.27-1.91,0-.63-.07-1.09-.22-1.39-.12-.24-.34-.36-.66-.36s-.52.1-.63.29-.17.55-.17,1.07v1.35c0,.27.02.45.05.55s.15.29.34.58c.05.08.08.18.08.28,0,.27-.19.47-.56.59s-.96.19-1.75.19c-1.27,0-1.9-.26-1.9-.79,0-.11.02-.19.06-.25s.13-.14.28-.24c.12-.09.19-.19.23-.3s.06-.39.09-.82c.03-.52.05-1.06.05-1.63,0-.31-.02-.52-.07-.62s-.19-.22-.41-.36c-.2-.12-.29-.27-.29-.45s.08-.33.24-.45.49-.26.98-.44c.44-.15.86-.29,1.26-.39s.68-.16.83-.16c.14,0,.25.05.35.15s.14.22.14.36c0,.01,0,.07,0,.17,0,.04,0,.07,0,.1,0,.22.09.33.27.33.11,0,.23-.09.35-.26.39-.56.96-.85,1.71-.85.57,0,1.07.15,1.48.45.29.21.49.47.6.76s.18.71.21,1.27Z"/>
      <path class="cls-1" d="m56.28,59.14v6.24c0,.36.01.58.04.68s.11.2.25.29c.16.11.27.21.33.3s.09.19.09.31c0,.36-.37.64-1.1.83-.66.17-1.32.25-1.98.25-.15,0-.24-.02-.28-.06s-.07-.15-.09-.31c-.02-.23-.1-.35-.25-.35-.08,0-.2.07-.36.21-.46.38-.98.57-1.55.57-.71,0-1.34-.26-1.91-.79-.33-.31-.6-.68-.81-1.09-.27-.53-.41-1.07-.41-1.62,0-.64.18-1.26.53-1.86.33-.55.77-.98,1.34-1.27.47-.25.94-.37,1.4-.37.53,0,1,.12,1.42.36.07.04.12.05.16.05.15,0,.22-.2.22-.59,0-.17-.04-.3-.12-.39s-.22-.17-.43-.23c-.29-.09-.43-.25-.43-.48,0-.33.33-.59.99-.78,1.17-.32,1.95-.49,2.34-.49s.59.19.59.56Zm-3.71,3.44c-.3,0-.53.16-.7.47-.23.42-.35.97-.35,1.65,0,.62.11,1.09.33,1.4.16.23.38.34.65.34.3,0,.51-.17.65-.52s.2-.9.2-1.66c0-.7-.08-1.17-.24-1.4-.12-.18-.3-.28-.54-.29Z"/>
      <path class="cls-1" d="m63.83,58.45c.52,0,1.01.05,1.47.14.62.12.93.39.93.79,0,.13-.03.23-.09.3s-.22.16-.47.29c-.21.1-.35.33-.41.69s-.1,1.05-.1,2.08c0,1.74.04,2.82.13,3.23.03.13.08.23.15.3s.18.15.35.23c.3.14.45.33.45.59,0,.36-.28.62-.83.75-.6.15-1.34.22-2.21.22-1.49,0-2.23-.28-2.23-.85,0-.21.15-.4.44-.57.22-.14.36-.32.4-.56.09-.52.13-1.62.13-3.31,0-1.17-.06-1.91-.18-2.24-.06-.19-.22-.36-.46-.51-.19-.12-.31-.23-.38-.31s-.1-.19-.1-.31c0-.2.09-.35.28-.47s.52-.22,1-.31c.57-.11,1.15-.17,1.73-.17Z"/>
      <path class="cls-1" d="m74.98,63.64l.1,2.41c0,.18.04.32.09.4s.19.25.42.5c.07.07.1.18.1.31,0,.3-.18.51-.54.63s-1,.18-1.93.18c-.63,0-1.07-.05-1.33-.16-.27-.11-.4-.3-.4-.55,0-.09.01-.16.04-.2s.12-.15.27-.32c.18-.19.27-.83.27-1.91,0-.63-.07-1.09-.22-1.39-.12-.24-.34-.36-.66-.36s-.52.1-.63.29-.17.55-.17,1.07v1.35c0,.27.02.45.05.55s.15.29.34.58c.05.08.08.18.08.28,0,.27-.19.47-.56.59s-.96.19-1.75.19c-1.27,0-1.9-.26-1.9-.79,0-.11.02-.19.06-.25s.13-.14.28-.24c.12-.09.19-.19.23-.3s.06-.39.09-.82c.03-.52.05-1.06.05-1.63,0-.31-.02-.52-.07-.62s-.19-.22-.41-.36c-.2-.12-.29-.27-.29-.45s.08-.33.24-.45.49-.26.98-.44c.44-.15.86-.29,1.26-.39s.68-.16.83-.16c.14,0,.25.05.35.15s.14.22.14.36c0,.01,0,.07,0,.17,0,.04,0,.07,0,.1,0,.22.09.33.27.33.11,0,.23-.09.35-.26.39-.56.96-.85,1.71-.85.57,0,1.07.15,1.48.45.29.21.49.47.6.76s.18.71.21,1.27Z"/>
      <path class="cls-1" d="m80.14,62.91v2.31c0,.27.07.5.2.67s.31.26.52.26c.18,0,.41-.08.7-.25.07-.04.14-.06.21-.06.11,0,.21.07.3.2s.14.28.14.43c0,.28-.15.55-.46.81-.65.55-1.43.83-2.35.83-.73,0-1.31-.21-1.76-.62s-.66-.96-.66-1.63v-3.16c0-.1-.01-.17-.04-.19s-.09-.04-.19-.04h-.7c-.13,0-.22-.02-.25-.06s-.05-.14-.05-.3v-.3c0-.14.06-.24.16-.3l3.13-1.97c.08-.04.17-.06.29-.06h.55c.11,0,.19.03.23.08s.06.16.06.31v.92c0,.14.02.23.06.27s.14.06.28.06h1.26c.17,0,.28.03.33.09s.08.19.08.39v.4c0,.22-.03.37-.1.45s-.18.13-.35.13h-1.24c-.13,0-.21.02-.26.07s-.07.13-.07.26Z"/>
      <path class="cls-1" d="m88.79,64.86h-3.21c-.14,0-.21.06-.21.18,0,.3.16.58.48.84s.67.39,1.04.39c.22,0,.46-.04.73-.13s.49-.19.66-.31c.15-.11.28-.16.37-.16.12,0,.23.07.35.22s.17.3.17.45c0,.33-.21.65-.62.95-.72.54-1.56.81-2.51.81s-1.76-.28-2.41-.83c-.31-.27-.57-.6-.78-.99-.27-.52-.4-1.06-.4-1.63,0-.77.23-1.45.7-2.06.4-.53.91-.92,1.53-1.18.46-.2.97-.29,1.51-.29.87,0,1.6.25,2.21.74.31.25.55.54.74.88.21.38.32.76.32,1.12,0,.3-.06.54-.18.73s-.28.28-.48.28Zm-3.04-1.28h.69c.29,0,.44-.13.44-.4,0-.25-.07-.45-.21-.6s-.33-.23-.55-.23c-.26,0-.46.1-.6.3-.14.19-.21.38-.21.57,0,.14.03.23.1.29s.18.08.35.08Z"/>
      <path class="cls-1" d="m93.08,61.16c.24,0,.39.03.44.1s.1.29.14.66c.02.2.09.3.21.3.09,0,.18-.07.26-.2.36-.57.84-.85,1.43-.85.41,0,.75.13,1.02.4.13.13.23.3.31.51s.12.41.12.6c0,.21-.05.43-.15.66s-.23.41-.39.56c-.29.28-.65.42-1.07.42-.23,0-.43-.04-.58-.12s-.36-.25-.62-.5c-.1-.1-.18-.14-.27-.14-.13,0-.21.07-.25.22s-.06.45-.06.91c0,.69.02,1.16.08,1.41.03.14.08.23.13.28s.18.11.37.16c.41.12.62.34.62.64,0,.19-.07.35-.2.49s-.31.23-.53.28c-.44.09-1.08.14-1.93.14s-1.42-.07-1.84-.21c-.37-.13-.56-.35-.56-.66,0-.24.14-.45.41-.64.13-.09.22-.17.27-.24s.08-.17.1-.29c.07-.41.11-1.18.11-2.3,0-.21-.02-.35-.07-.44s-.14-.16-.27-.22c-.32-.13-.49-.31-.49-.55,0-.22.11-.41.33-.56s.6-.31,1.12-.47c.7-.21,1.3-.32,1.79-.32Z"/>
      <path class="cls-1" d="m105.77,63.64l.1,2.41c0,.18.04.32.09.4s.19.25.42.5c.07.07.1.18.1.31,0,.3-.18.51-.54.63s-1,.18-1.93.18c-.63,0-1.07-.05-1.33-.16-.27-.11-.4-.3-.4-.55,0-.09.01-.16.04-.2s.12-.15.27-.32c.18-.19.27-.83.27-1.91,0-.63-.07-1.09-.22-1.39-.12-.24-.34-.36-.66-.36s-.52.1-.63.29-.17.55-.17,1.07v1.35c0,.27.02.45.05.55s.15.29.34.58c.05.08.08.18.08.28,0,.27-.19.47-.56.59s-.96.19-1.75.19c-1.27,0-1.9-.26-1.9-.79,0-.11.02-.19.06-.25s.13-.14.28-.24c.12-.09.19-.19.23-.3s.06-.39.09-.82c.03-.52.05-1.06.05-1.63,0-.31-.02-.52-.07-.62s-.19-.22-.41-.36c-.2-.12-.29-.27-.29-.45s.08-.33.24-.45.49-.26.98-.44c.44-.15.86-.29,1.26-.39s.68-.16.83-.16c.14,0,.25.05.35.15s.14.22.14.36c0,.01,0,.07,0,.17,0,.04,0,.07,0,.1,0,.22.09.33.27.33.11,0,.23-.09.35-.26.39-.56.96-.85,1.71-.85.57,0,1.07.15,1.48.45.29.21.49.47.6.76s.18.71.21,1.27Z"/>
      <path class="cls-1" d="m110.77,61.11c.79,0,1.47.2,2.02.6.29.21.5.46.61.73s.17.66.17,1.14v1.02c-.01.71.04,1.16.14,1.37.05.1.1.16.14.19s.14.05.29.08.22.12.22.29c0,.22-.09.45-.26.68s-.4.44-.68.59c-.34.2-.7.3-1.07.3-.48,0-.86-.16-1.13-.49-.1-.12-.18-.18-.27-.18-.09,0-.21.06-.36.17-.46.33-.97.5-1.55.5s-1.08-.13-1.45-.38c-.24-.17-.43-.39-.57-.66s-.21-.55-.21-.85c0-.47.19-.89.57-1.26.6-.57,1.49-.86,2.68-.87.26,0,.43-.03.5-.08s.1-.17.1-.37c0-.48-.05-.83-.15-1.05s-.26-.32-.49-.32c-.14,0-.26.04-.37.12s-.24.23-.4.45c-.41.58-.83.87-1.27.87-.22,0-.41-.07-.55-.2s-.21-.31-.21-.52.09-.44.26-.66.41-.41.71-.57c.82-.44,1.69-.66,2.58-.66Zm-.46,3.96c-.2,0-.38.08-.52.25s-.22.36-.22.59.05.4.16.53.24.2.42.2c.36,0,.55-.31.55-.92,0-.25-.03-.42-.08-.51s-.15-.13-.3-.14Z"/>
      <path class="cls-1" d="m118.86,62.91v2.31c0,.27.07.5.2.67s.31.26.52.26c.18,0,.41-.08.7-.25.07-.04.14-.06.21-.06.11,0,.21.07.3.2s.14.28.14.43c0,.28-.15.55-.46.81-.65.55-1.43.83-2.35.83-.73,0-1.31-.21-1.76-.62s-.66-.96-.66-1.63v-3.16c0-.1-.01-.17-.04-.19s-.09-.04-.19-.04h-.7c-.13,0-.22-.02-.25-.06s-.05-.14-.05-.3v-.3c0-.14.06-.24.16-.3l3.13-1.97c.08-.04.17-.06.29-.06h.55c.11,0,.19.03.23.08s.06.16.06.31v.92c0,.14.02.23.06.27s.14.06.28.06h1.26c.17,0,.28.03.33.09s.08.19.08.39v.4c0,.22-.03.37-.1.45s-.18.13-.35.13h-1.24c-.13,0-.21.02-.26.07s-.07.13-.07.26Z"/>
      <path class="cls-1" d="m125.08,61.59v3.97c0,.31.03.54.09.69s.17.28.35.4c.14.1.24.19.28.26s.07.16.07.27c0,.59-.75.88-2.24.88-.8,0-1.44-.06-1.91-.19-.16-.05-.29-.13-.39-.24s-.15-.24-.15-.39c0-.12.02-.22.08-.29s.18-.18.38-.33c.14-.1.24-.28.3-.51s.09-.59.09-1.06c0-.15-.01-.43-.03-.84s-.04-.65-.04-.72c-.03-.19-.15-.33-.38-.43-.28-.12-.42-.31-.42-.55,0-.29.18-.5.55-.64.51-.2,1.06-.36,1.64-.5s1.03-.21,1.35-.21c.25,0,.38.14.38.42Zm-1.35-2.99c.4,0,.71.07.94.22s.35.35.35.6c0,.35-.18.63-.53.83-.56.32-1.23.49-2.02.49-.33,0-.6-.06-.79-.19-.26-.16-.4-.39-.4-.68,0-.39.28-.7.84-.92.57-.23,1.1-.34,1.6-.34Z"/>
      <path class="cls-1" d="m130.5,61.11c.83,0,1.57.22,2.19.65.45.31.81.71,1.09,1.21.28.52.42,1.06.42,1.63,0,.99-.45,1.83-1.36,2.52-.87.66-1.86.99-2.97.99s-1.97-.31-2.65-.93c-.66-.6-.98-1.39-.98-2.35,0-1.08.4-1.96,1.2-2.64.84-.72,1.86-1.08,3.06-1.08Zm-.55,1.58c-.2,0-.36.07-.48.22s-.18.35-.18.59c0,.27.05.65.15,1.12s.22.89.37,1.25c.14.37.37.56.69.56.41,0,.61-.26.61-.77,0-.38-.05-.82-.15-1.31s-.23-.88-.37-1.19c-.15-.31-.36-.47-.63-.48Z"/>
      <path class="cls-1" d="m142.99,63.64l.1,2.41c0,.18.04.32.09.4s.19.25.42.5c.07.07.1.18.1.31,0,.3-.18.51-.54.63s-1,.18-1.93.18c-.63,0-1.07-.05-1.33-.16-.27-.11-.4-.3-.4-.55,0-.09.01-.16.04-.2s.12-.15.27-.32c.18-.19.27-.83.27-1.91,0-.63-.07-1.09-.22-1.39-.12-.24-.34-.36-.66-.36s-.52.1-.63.29-.17.55-.17,1.07v1.35c0,.27.02.45.05.55s.15.29.34.58c.05.08.08.18.08.28,0,.27-.19.47-.56.59s-.96.19-1.75.19c-1.27,0-1.9-.26-1.9-.79,0-.11.02-.19.06-.25s.13-.14.28-.24c.12-.09.19-.19.23-.3s.06-.39.09-.82c.03-.52.05-1.06.05-1.63,0-.31-.02-.52-.07-.62s-.19-.22-.41-.36c-.2-.12-.29-.27-.29-.45s.08-.33.24-.45.49-.26.98-.44c.44-.15.86-.29,1.26-.39s.68-.16.83-.16c.14,0,.25.05.35.15s.14.22.14.36c0,.01,0,.07,0,.17,0,.04,0,.07,0,.1,0,.22.09.33.27.33.11,0,.23-.09.35-.26.39-.56.96-.85,1.71-.85.57,0,1.07.15,1.48.45.29.21.49.47.6.76s.18.71.21,1.27Z"/>
      <path class="cls-1" d="m148,61.11c.79,0,1.47.2,2.02.6.29.21.5.46.61.73s.17.66.17,1.14v1.02c-.01.71.04,1.16.14,1.37.05.1.1.16.14.19s.14.05.29.08.22.12.22.29c0,.22-.09.45-.26.68s-.4.44-.68.59c-.34.2-.7.3-1.07.3-.48,0-.86-.16-1.13-.49-.1-.12-.18-.18-.27-.18-.09,0-.21.06-.36.17-.46.33-.97.5-1.55.5s-1.08-.13-1.45-.38c-.24-.17-.43-.39-.57-.66s-.21-.55-.21-.85c0-.47.19-.89.57-1.26.6-.57,1.49-.86,2.68-.87.26,0,.43-.03.5-.08s.1-.17.1-.37c0-.48-.05-.83-.15-1.05s-.26-.32-.49-.32c-.14,0-.26.04-.37.12s-.24.23-.4.45c-.41.58-.83.87-1.27.87-.22,0-.41-.07-.55-.2s-.21-.31-.21-.52.09-.44.26-.66.41-.41.71-.57c.82-.44,1.69-.66,2.58-.66Zm-.46,3.96c-.2,0-.38.08-.52.25s-.22.36-.22.59.05.4.16.53.24.2.42.2c.36,0,.55-.31.55-.92,0-.25-.03-.42-.08-.51s-.15-.13-.3-.14Z"/>
      <path class="cls-1" d="m155.93,62.51v2.19c0,.97.01,1.54.04,1.7s.14.28.34.37c.17.07.28.14.34.21s.09.15.09.27c0,.15-.05.29-.16.41s-.25.21-.43.26c-.33.1-.88.15-1.66.15-.88,0-1.5-.07-1.85-.2-.16-.06-.3-.15-.4-.28s-.16-.26-.16-.39c0-.11.03-.19.09-.25s.18-.13.37-.21c.18-.08.29-.29.33-.64.07-.59.11-1.44.11-2.53s-.03-1.83-.1-2.15-.22-.56-.48-.71c-.19-.11-.32-.21-.39-.31s-.11-.22-.11-.36c0-.22.11-.42.32-.58s.56-.32,1.03-.46c.31-.1.72-.19,1.22-.27s.87-.13,1.09-.13c.36,0,.54.22.54.67,0,.15-.02.48-.07,1-.06.82-.09,1.56-.1,2.24Z"/>
      <path class="cls-1" d="m165.87,58.4c.67,0,1.31.15,1.93.44.29.14.49.21.61.21.08,0,.21-.02.4-.06.06-.01.13-.02.2-.02.24,0,.44.11.62.33.44.53.66,1.19.66,1.97,0,.55-.19.95-.57,1.21-.21.14-.44.21-.69.21-.23,0-.42-.05-.57-.15s-.29-.28-.42-.53c-.2-.36-.36-.62-.48-.78s-.27-.3-.45-.43c-.44-.31-.9-.46-1.39-.46s-.84.17-1.12.51-.41.79-.41,1.36c0,.78.2,1.5.59,2.15.54.87,1.31,1.31,2.31,1.31.37,0,.73-.06,1.1-.18s.64-.28.84-.48c.17-.16.31-.25.42-.25.16,0,.3.07.41.22s.17.33.17.54c0,.26-.08.56-.24.89s-.35.59-.57.77c-.1.08-.29.15-.59.21-.17.03-.4.12-.69.25-.67.32-1.38.49-2.11.49s-1.52-.17-2.28-.51c-.88-.4-1.57-1-2.08-1.83-.5-.8-.75-1.63-.75-2.5,0-1.01.31-1.93.94-2.77.55-.72,1.26-1.28,2.14-1.66.67-.29,1.36-.44,2.07-.44Z"/>
      <path class="cls-1" d="m174.95,61.11c.83,0,1.57.22,2.19.65.45.31.81.71,1.09,1.21.28.52.42,1.06.42,1.63,0,.99-.45,1.83-1.36,2.52-.87.66-1.86.99-2.97.99s-1.97-.31-2.65-.93c-.66-.6-.98-1.39-.98-2.35,0-1.08.4-1.96,1.2-2.64.84-.72,1.86-1.08,3.06-1.08Zm-.55,1.58c-.2,0-.36.07-.48.22s-.18.35-.18.59c0,.27.05.65.15,1.12s.22.89.37,1.25c.14.37.37.56.69.56.41,0,.61-.26.61-.77,0-.38-.05-.82-.15-1.31s-.23-.88-.37-1.19c-.15-.31-.36-.47-.63-.48Z"/>
      <path class="cls-1" d="m187.44,63.64l.1,2.41c0,.18.04.32.09.4s.19.25.42.5c.07.07.1.18.1.31,0,.3-.18.51-.54.63s-1,.18-1.93.18c-.63,0-1.07-.05-1.33-.16-.27-.11-.4-.3-.4-.55,0-.09.01-.16.04-.2s.12-.15.27-.32c.18-.19.27-.83.27-1.91,0-.63-.07-1.09-.22-1.39-.12-.24-.34-.36-.66-.36s-.52.1-.63.29-.17.55-.17,1.07v1.35c0,.27.02.45.05.55s.15.29.34.58c.05.08.08.18.08.28,0,.27-.19.47-.56.59s-.96.19-1.75.19c-1.27,0-1.9-.26-1.9-.79,0-.11.02-.19.06-.25s.13-.14.28-.24c.12-.09.19-.19.23-.3s.06-.39.09-.82c.03-.52.05-1.06.05-1.63,0-.31-.02-.52-.07-.62s-.19-.22-.41-.36c-.2-.12-.29-.27-.29-.45s.08-.33.24-.45.49-.26.98-.44c.44-.15.86-.29,1.26-.39s.68-.16.83-.16c.14,0,.25.05.35.15s.14.22.14.36c0,.01,0,.07,0,.17,0,.04,0,.07,0,.1,0,.22.09.33.27.33.11,0,.23-.09.35-.26.39-.56.96-.85,1.71-.85.57,0,1.07.15,1.48.45.29.21.49.47.6.76s.18.71.21,1.27Z"/>
      <path class="cls-1" d="m192.57,62.39h.85c.14,0,.24.02.3.06s.09.12.08.22l-.05.81c0,.16-.03.27-.08.31s-.13.06-.27.06c-.03,0-.11,0-.23-.01-.08,0-.15,0-.21,0-.19,0-.32.06-.39.19s-.1.36-.1.71c0,.48.05.88.16,1.21.04.14.1.25.18.31s.21.12.38.17c.4.12.6.34.6.66,0,.34-.23.59-.7.74s-1.23.23-2.3.23c-1.58,0-2.37-.31-2.37-.94,0-.15.03-.27.1-.34s.21-.16.43-.25c.24-.11.39-.31.44-.61.08-.45.12-.93.12-1.44,0-.23-.04-.39-.12-.48s-.22-.13-.43-.13c-.25,0-.4-.01-.47-.04s-.1-.09-.1-.18l.05-.86c0-.14.03-.23.07-.26s.15-.06.32-.06c.17,0,.25-.09.25-.25,0-.06-.06-.21-.18-.44-.21-.38-.31-.76-.31-1.13,0-.56.19-1.01.57-1.36.56-.52,1.36-.77,2.41-.77.86,0,1.55.2,2.06.61.4.31.59.68.59,1.09,0,.3-.1.55-.29.75s-.44.3-.73.3c-.33,0-.64-.11-.94-.34-.07-.06-.25-.24-.52-.54-.2-.21-.39-.31-.59-.31-.13,0-.24.05-.33.14s-.14.2-.14.33c0,.36.34.75,1.03,1.16.21.13.35.23.43.3s.14.18.2.31c.03.05.1.08.22.08Z"/>
      <path class="cls-1" d="m200.59,64.86h-3.21c-.14,0-.21.06-.21.18,0,.3.16.58.48.84s.67.39,1.04.39c.22,0,.46-.04.73-.13s.49-.19.66-.31c.15-.11.28-.16.37-.16.12,0,.23.07.35.22s.17.3.17.45c0,.33-.21.65-.62.95-.72.54-1.56.81-2.51.81s-1.76-.28-2.41-.83c-.31-.27-.57-.6-.78-.99-.27-.52-.4-1.06-.4-1.63,0-.77.23-1.45.7-2.06.4-.53.91-.92,1.53-1.18.46-.2.97-.29,1.51-.29.87,0,1.6.25,2.21.74.31.25.55.54.74.88.21.38.32.76.32,1.12,0,.3-.06.54-.18.73s-.28.28-.48.28Zm-3.04-1.28h.69c.29,0,.44-.13.44-.4,0-.25-.07-.45-.21-.6s-.33-.23-.55-.23c-.26,0-.46.1-.6.3-.14.19-.21.38-.21.57,0,.14.03.23.1.29s.18.08.35.08Z"/>
      <path class="cls-1" d="m204.89,61.16c.24,0,.39.03.44.1s.1.29.14.66c.02.2.09.3.21.3.09,0,.18-.07.26-.2.36-.57.84-.85,1.43-.85.41,0,.75.13,1.02.4.13.13.23.3.31.51s.12.41.12.6c0,.21-.05.43-.15.66s-.23.41-.39.56c-.29.28-.65.42-1.07.42-.23,0-.43-.04-.58-.12s-.36-.25-.62-.5c-.1-.1-.18-.14-.27-.14-.13,0-.21.07-.25.22s-.06.45-.06.91c0,.69.02,1.16.08,1.41.03.14.08.23.13.28s.18.11.37.16c.41.12.62.34.62.64,0,.19-.07.35-.2.49s-.31.23-.53.28c-.44.09-1.08.14-1.93.14s-1.42-.07-1.84-.21c-.37-.13-.56-.35-.56-.66,0-.24.14-.45.41-.64.13-.09.22-.17.27-.24s.08-.17.1-.29c.07-.41.11-1.18.11-2.3,0-.21-.02-.35-.07-.44s-.14-.16-.27-.22c-.32-.13-.49-.31-.49-.55,0-.22.11-.41.33-.56s.6-.31,1.12-.47c.7-.21,1.3-.32,1.79-.32Z"/>
      <path class="cls-1" d="m215.35,64.86h-3.21c-.14,0-.21.06-.21.18,0,.3.16.58.48.84s.67.39,1.04.39c.22,0,.46-.04.73-.13s.49-.19.66-.31c.15-.11.28-.16.37-.16.12,0,.23.07.35.22s.17.3.17.45c0,.33-.21.65-.62.95-.72.54-1.56.81-2.51.81s-1.76-.28-2.41-.83c-.31-.27-.57-.6-.78-.99-.27-.52-.4-1.06-.4-1.63,0-.77.23-1.45.7-2.06.4-.53.91-.92,1.53-1.18.46-.2.97-.29,1.51-.29.87,0,1.6.25,2.21.74.31.25.55.54.74.88.21.38.32.76.32,1.12,0,.3-.06.54-.18.73s-.28.28-.48.28Zm-3.04-1.28h.69c.29,0,.44-.13.44-.4,0-.25-.07-.45-.21-.6s-.33-.23-.55-.23c-.26,0-.46.1-.6.3-.14.19-.21.38-.21.57,0,.14.03.23.1.29s.18.08.35.08Z"/>
      <path class="cls-1" d="m224.75,63.64l.1,2.41c0,.18.04.32.09.4s.19.25.42.5c.07.07.1.18.1.31,0,.3-.18.51-.54.63s-1,.18-1.93.18c-.63,0-1.07-.05-1.33-.16-.27-.11-.4-.3-.4-.55,0-.09.01-.16.04-.2s.12-.15.27-.32c.18-.19.27-.83.27-1.91,0-.63-.07-1.09-.22-1.39-.12-.24-.34-.36-.66-.36s-.52.1-.63.29-.17.55-.17,1.07v1.35c0,.27.02.45.05.55s.15.29.34.58c.05.08.08.18.08.28,0,.27-.19.47-.56.59s-.96.19-1.75.19c-1.27,0-1.9-.26-1.9-.79,0-.11.02-.19.06-.25s.13-.14.28-.24c.12-.09.19-.19.23-.3s.06-.39.09-.82c.03-.52.05-1.06.05-1.63,0-.31-.02-.52-.07-.62s-.19-.22-.41-.36c-.2-.12-.29-.27-.29-.45s.08-.33.24-.45.49-.26.98-.44c.44-.15.86-.29,1.26-.39s.68-.16.83-.16c.14,0,.25.05.35.15s.14.22.14.36c0,.01,0,.07,0,.17,0,.04,0,.07,0,.1,0,.22.09.33.27.33.11,0,.23-.09.35-.26.39-.56.96-.85,1.71-.85.57,0,1.07.15,1.48.45.29.21.49.47.6.76s.18.71.21,1.27Z"/>
      <path class="cls-1" d="m229.74,61.12c.81,0,1.53.2,2.15.61.59.39.88.87.88,1.44,0,.4-.14.72-.41.96-.26.23-.56.35-.92.35-.38,0-.66-.14-.85-.41-.06-.09-.15-.31-.26-.66-.12-.38-.36-.57-.7-.57-.25,0-.46.11-.63.33s-.26.49-.26.81c0,.55.2,1.03.59,1.46.32.34.72.51,1.2.51.23,0,.42-.02.57-.06s.36-.12.61-.24c.06-.03.13-.05.21-.05.15,0,.29.07.41.22s.18.32.18.51-.08.42-.25.65-.39.42-.66.59c-.59.36-1.29.55-2.1.55-.94,0-1.74-.27-2.4-.82-.85-.69-1.27-1.57-1.27-2.65s.39-1.88,1.18-2.56c.75-.65,1.67-.97,2.74-.97Z"/>
      <path class="cls-1" d="m239.53,64.86h-3.21c-.14,0-.21.06-.21.18,0,.3.16.58.48.84s.67.39,1.04.39c.22,0,.46-.04.73-.13s.49-.19.66-.31c.15-.11.28-.16.37-.16.12,0,.23.07.35.22s.17.3.17.45c0,.33-.21.65-.62.95-.72.54-1.56.81-2.51.81s-1.76-.28-2.41-.83c-.31-.27-.57-.6-.78-.99-.27-.52-.4-1.06-.4-1.63,0-.77.23-1.45.7-2.06.4-.53.91-.92,1.53-1.18.46-.2.97-.29,1.51-.29.87,0,1.6.25,2.21.74.31.25.55.54.74.88.21.38.32.76.32,1.12,0,.3-.06.54-.18.73s-.28.28-.48.28Zm-3.04-1.28h.69c.29,0,.44-.13.44-.4,0-.25-.07-.45-.21-.6s-.33-.23-.55-.23c-.26,0-.46.1-.6.3-.14.19-.21.38-.21.57,0,.14.03.23.1.29s.18.08.35.08Z"/>
      <path class="cls-1" d="m248.37,61.11c.83,0,1.57.22,2.19.65.45.31.81.71,1.09,1.21.28.52.42,1.06.42,1.63,0,.99-.45,1.83-1.36,2.52-.87.66-1.86.99-2.97.99s-1.97-.31-2.65-.93c-.66-.6-.98-1.39-.98-2.35,0-1.08.4-1.96,1.2-2.64.84-.72,1.86-1.08,3.06-1.08Zm-.55,1.58c-.2,0-.36.07-.48.22-.12.15-.18.35-.18.59,0,.27.05.65.15,1.12.1.47.22.89.37,1.25.14.37.37.56.69.56.41,0,.61-.26.61-.77,0-.38-.05-.82-.15-1.31-.1-.49-.23-.88-.37-1.19-.15-.31-.36-.47-.63-.48Z"/>
      <path class="cls-1" d="m260.86,63.64l.1,2.41c0,.18.04.32.08.4.05.09.19.25.42.5.07.07.1.18.1.31,0,.3-.18.51-.54.63s-1,.18-1.93.18c-.63,0-1.07-.05-1.33-.16-.27-.11-.4-.3-.4-.55,0-.09.01-.16.04-.2s.12-.15.27-.32c.18-.19.27-.83.27-1.91,0-.63-.07-1.09-.22-1.39-.12-.24-.34-.36-.66-.36s-.51.1-.63.29-.17.55-.17,1.07v1.35c0,.27.02.45.05.55.04.1.15.29.34.58.05.08.08.18.08.28,0,.27-.19.47-.56.59s-.96.19-1.75.19c-1.27,0-1.9-.26-1.9-.79,0-.11.02-.19.06-.25.04-.06.13-.14.28-.24.12-.09.19-.19.23-.3s.06-.39.09-.82c.03-.52.05-1.06.05-1.63,0-.31-.02-.52-.07-.62-.05-.1-.19-.22-.41-.36-.2-.12-.29-.27-.29-.45s.08-.33.24-.45.49-.26.98-.44c.44-.15.86-.29,1.27-.39s.68-.16.83-.16c.14,0,.25.05.35.15.09.1.14.22.14.36,0,.01,0,.07,0,.17,0,.04,0,.07,0,.1,0,.22.09.33.27.33.11,0,.23-.09.35-.26.39-.56.96-.85,1.71-.85.57,0,1.07.15,1.48.45.29.21.49.47.6.76s.18.71.21,1.27Z"/>
      <path class="cls-1" d="m270.68,58.4c.67,0,1.31.15,1.93.44.29.14.49.21.61.21.08,0,.21-.02.4-.06.06-.01.12-.02.2-.02.24,0,.44.11.62.33.44.53.66,1.19.66,1.97,0,.55-.19.95-.57,1.21-.21.14-.44.21-.69.21-.23,0-.42-.05-.57-.15s-.29-.28-.42-.53c-.2-.36-.36-.62-.48-.78s-.27-.3-.45-.43c-.44-.31-.9-.46-1.39-.46s-.84.17-1.12.51c-.28.34-.41.79-.41,1.36,0,.78.2,1.5.59,2.15.54.87,1.31,1.31,2.31,1.31.37,0,.73-.06,1.1-.18.36-.12.64-.28.84-.48.17-.16.31-.25.42-.25.16,0,.3.07.41.22s.17.33.17.54c0,.26-.08.56-.24.89s-.35.59-.57.77c-.1.08-.29.15-.59.21-.17.03-.4.12-.69.25-.67.32-1.38.49-2.11.49s-1.52-.17-2.28-.51c-.88-.4-1.57-1-2.08-1.83-.5-.8-.75-1.63-.75-2.5,0-1.01.31-1.93.94-2.77.55-.72,1.26-1.28,2.14-1.66.67-.29,1.36-.44,2.07-.44Z"/>
      <path class="cls-1" d="m279.44,62.51v2.19c0,.97.01,1.54.04,1.7.03.16.14.28.34.37.17.07.28.14.34.21.06.06.08.15.08.27,0,.15-.05.29-.16.41-.11.12-.25.21-.43.26-.33.1-.88.15-1.66.15-.88,0-1.5-.07-1.85-.2-.16-.06-.3-.15-.4-.28s-.16-.26-.16-.39c0-.11.03-.19.08-.25.06-.06.18-.13.37-.21.18-.08.29-.29.33-.64.07-.59.11-1.44.11-2.53s-.03-1.83-.1-2.15-.22-.56-.48-.71c-.19-.11-.32-.21-.39-.31-.07-.1-.11-.22-.11-.36,0-.22.11-.42.32-.58s.56-.32,1.03-.46c.31-.1.72-.19,1.22-.27s.87-.13,1.09-.13c.36,0,.54.22.54.67,0,.15-.02.48-.07,1-.06.82-.09,1.56-.1,2.24Z"/>
      <path class="cls-1" d="m284.4,61.51v3.71c0,.79.26,1.19.79,1.19.13,0,.26-.04.39-.11s.22-.17.27-.28c.1-.22.15-.71.15-1.46s-.03-1.26-.08-1.53c-.02-.11-.05-.2-.1-.25s-.13-.11-.26-.18c-.26-.14-.39-.31-.39-.52,0-.28.22-.48.67-.59.85-.21,1.68-.31,2.51-.31.46,0,.69.24.69.73,0,.05,0,.15,0,.31,0,.22-.02.49-.02.8v3.01c0,.15.13.3.4.42.22.11.33.27.33.48,0,.41-.49.73-1.46.95-.57.13-1.12.2-1.65.2-.22,0-.37-.02-.45-.08-.08-.05-.13-.15-.14-.29-.02-.28-.11-.42-.26-.42-.05,0-.1.01-.15.04s-.18.12-.42.28c-.46.31-.96.47-1.48.47-.88,0-1.49-.25-1.85-.76-.31-.42-.46-1.14-.46-2.14,0-.37,0-.69,0-.96v-.31c0-.39-.04-.68-.11-.86-.07-.18-.2-.33-.39-.43-.18-.09-.29-.16-.34-.22-.05-.05-.07-.13-.07-.23,0-.35.26-.58.79-.69.89-.2,1.79-.29,2.68-.29.27,0,.4.11.4.34Z"/>
      <path class="cls-1" d="m294.03,61.12c.81,0,1.53.2,2.15.61.59.39.88.87.88,1.44,0,.4-.14.72-.41.96-.25.23-.56.35-.92.35s-.66-.14-.85-.41c-.06-.09-.15-.31-.26-.66-.12-.38-.36-.57-.7-.57-.25,0-.46.11-.63.33-.17.22-.26.49-.26.81,0,.55.2,1.03.59,1.46.32.34.72.51,1.2.51.23,0,.42-.02.57-.06s.36-.12.61-.24c.06-.03.13-.05.21-.05.16,0,.29.07.41.22s.18.32.18.51-.08.42-.25.65-.39.42-.66.59c-.59.36-1.29.55-2.1.55-.94,0-1.74-.27-2.4-.82-.85-.69-1.27-1.57-1.27-2.65s.39-1.88,1.18-2.56c.75-.65,1.67-.97,2.74-.97Z"/>
      <path class="cls-1" d="m301.38,58.93l-.06,2.14c0,.21,0,.53,0,.94,0,.46,0,.73.02.81.03.19.13.28.29.28.14,0,.35-.09.63-.26s.42-.31.42-.39c0-.05-.05-.14-.15-.27-.07-.1-.11-.19-.11-.27,0-.49.61-.74,1.82-.74.63,0,1.13.06,1.49.19.15.05.27.14.36.26s.14.26.14.4c0,.21-.1.35-.29.43-.04.02-.17.05-.4.09-.2.04-.46.16-.78.37s-.48.37-.48.46c0,.06.19.36.58.9.39.54.74,1,1.08,1.4.21.26.38.44.5.55.12.1.29.22.5.33.33.18.49.38.49.61,0,.24-.1.43-.31.57-.21.14-.49.21-.85.21h-2.21c-.28,0-.49-.11-.65-.31l-1.13-1.46c-.3-.38-.48-.61-.55-.68-.07-.07-.12-.11-.17-.11-.05,0-.09.04-.11.12s-.03.24-.03.46c0,.21.02.35.07.45s.15.21.31.34c.12.1.18.24.18.42,0,.32-.17.55-.51.69s-.89.21-1.67.21c-.91,0-1.5-.04-1.78-.12-.16-.05-.29-.14-.4-.28s-.16-.29-.16-.44c0-.17.1-.32.29-.45.16-.1.27-.18.31-.24s.08-.14.11-.26c.1-.64.16-1.62.15-2.95v-1.5c0-.51-.03-.84-.08-.98-.05-.14-.18-.23-.39-.25-.37-.05-.56-.21-.56-.46,0-.17.08-.33.25-.47s.43-.28.81-.41c1.19-.44,2.08-.66,2.65-.66.26,0,.38.11.38.33Z"/>
      <path class="cls-1" d="m308.43,63.05c.11,0,.23,0,.36.02.55.06.97.09,1.26.09s.51-.01.64-.03c.16-.02.26-.03.31-.03.14,0,.21.1.21.31,0,.2-.04.45-.13.75s-.2.6-.33.88c-.11.21-.2.36-.28.44-.07.08-.16.12-.26.12-.09,0-.2-.01-.33-.03-.41-.07-.87-.1-1.4-.1-.22,0-.43,0-.62.03-.15.01-.26.02-.34.02-.19,0-.28-.11-.28-.33,0-.15.05-.39.16-.74.11-.35.21-.61.31-.8.12-.22.23-.37.33-.45.1-.08.23-.13.39-.13Z"/>
      <path class="cls-1" d="m316.7,58.4c.67,0,1.31.15,1.93.44.29.14.49.21.61.21.08,0,.21-.02.4-.06.06-.01.12-.02.2-.02.24,0,.44.11.62.33.44.53.66,1.19.66,1.97,0,.55-.19.95-.57,1.21-.21.14-.44.21-.69.21-.23,0-.42-.05-.57-.15s-.29-.28-.42-.53c-.2-.36-.36-.62-.48-.78s-.27-.3-.45-.43c-.44-.31-.9-.46-1.39-.46s-.84.17-1.12.51c-.28.34-.41.79-.41,1.36,0,.78.2,1.5.59,2.15.54.87,1.31,1.31,2.31,1.31.37,0,.73-.06,1.1-.18.36-.12.64-.28.84-.48.17-.16.31-.25.42-.25.16,0,.3.07.41.22s.17.33.17.54c0,.26-.08.56-.24.89s-.35.59-.57.77c-.1.08-.29.15-.59.21-.17.03-.4.12-.69.25-.67.32-1.38.49-2.11.49s-1.52-.17-2.28-.51c-.88-.4-1.57-1-2.08-1.83-.5-.8-.75-1.63-.75-2.5,0-1.01.31-1.93.94-2.77.55-.72,1.26-1.28,2.14-1.66.67-.29,1.36-.44,2.07-.44Z"/>
      <path class="cls-1" d="m325.46,62.51v2.19c0,.97.01,1.54.04,1.7.03.16.14.28.34.37.17.07.28.14.34.21.06.06.08.15.08.27,0,.15-.05.29-.16.41-.11.12-.25.21-.43.26-.33.1-.88.15-1.66.15-.88,0-1.5-.07-1.85-.2-.16-.06-.3-.15-.4-.28s-.16-.26-.16-.39c0-.11.03-.19.08-.25.06-.06.18-.13.37-.21.18-.08.29-.29.33-.64.07-.59.11-1.44.11-2.53s-.03-1.83-.1-2.15-.22-.56-.48-.71c-.19-.11-.32-.21-.39-.31-.07-.1-.11-.22-.11-.36,0-.22.11-.42.32-.58s.56-.32,1.03-.46c.31-.1.72-.19,1.22-.27s.87-.13,1.09-.13c.36,0,.54.22.54.67,0,.15-.02.48-.07,1-.06.82-.09,1.56-.1,2.24Z"/>
      <path class="cls-1" d="m330.42,61.51v3.71c0,.79.26,1.19.79,1.19.13,0,.26-.04.39-.11s.22-.17.27-.28c.1-.22.15-.71.15-1.46s-.03-1.26-.08-1.53c-.02-.11-.05-.2-.1-.25s-.13-.11-.26-.18c-.26-.14-.39-.31-.39-.52,0-.28.22-.48.67-.59.85-.21,1.68-.31,2.51-.31.46,0,.69.24.69.73,0,.05,0,.15,0,.31,0,.22-.02.49-.02.8v3.01c0,.15.13.3.4.42.22.11.33.27.33.48,0,.41-.49.73-1.46.95-.57.13-1.12.2-1.65.2-.22,0-.37-.02-.45-.08-.08-.05-.13-.15-.14-.29-.02-.28-.11-.42-.26-.42-.05,0-.1.01-.15.04s-.18.12-.42.28c-.46.31-.96.47-1.48.47-.88,0-1.49-.25-1.85-.76-.31-.42-.46-1.14-.46-2.14,0-.37,0-.69,0-.96v-.31c0-.39-.04-.68-.11-.86-.07-.18-.2-.33-.39-.43-.18-.09-.29-.16-.34-.22-.05-.05-.07-.13-.07-.23,0-.35.26-.58.79-.69.89-.2,1.79-.29,2.68-.29.27,0,.4.11.4.34Z"/>
      <path class="cls-1" d="m340.05,61.12c.81,0,1.53.2,2.15.61.59.39.88.87.88,1.44,0,.4-.14.72-.41.96-.25.23-.56.35-.92.35s-.66-.14-.85-.41c-.06-.09-.15-.31-.26-.66-.12-.38-.36-.57-.7-.57-.25,0-.46.11-.63.33-.17.22-.26.49-.26.81,0,.55.2,1.03.59,1.46.32.34.72.51,1.2.51.23,0,.42-.02.57-.06s.36-.12.61-.24c.06-.03.13-.05.21-.05.16,0,.29.07.41.22s.18.32.18.51-.08.42-.25.65-.39.42-.66.59c-.59.36-1.29.55-2.1.55-.94,0-1.74-.27-2.4-.82-.85-.69-1.27-1.57-1.27-2.65s.39-1.88,1.18-2.56c.75-.65,1.67-.97,2.74-.97Z"/>
      <path class="cls-1" d="m347.4,58.93l-.06,2.14c0,.21,0,.53,0,.94,0,.46,0,.73.02.81.03.19.13.28.29.28.14,0,.35-.09.63-.26s.42-.31.42-.39c0-.05-.05-.14-.15-.27-.07-.1-.11-.19-.11-.27,0-.49.61-.74,1.82-.74.63,0,1.13.06,1.49.19.15.05.27.14.36.26s.14.26.14.4c0,.21-.1.35-.29.43-.04.02-.17.05-.4.09-.2.04-.46.16-.78.37s-.48.37-.48.46c0,.06.19.36.58.9.39.54.74,1,1.08,1.4.21.26.38.44.5.55.12.1.29.22.5.33.33.18.49.38.49.61,0,.24-.1.43-.31.57-.21.14-.49.21-.85.21h-2.21c-.28,0-.49-.11-.65-.31l-1.13-1.46c-.3-.38-.48-.61-.55-.68-.07-.07-.12-.11-.17-.11-.05,0-.09.04-.11.12s-.03.24-.03.46c0,.21.02.35.07.45s.15.21.31.34c.12.1.18.24.18.42,0,.32-.17.55-.51.69s-.89.21-1.67.21c-.91,0-1.5-.04-1.78-.12-.16-.05-.29-.14-.4-.28s-.16-.29-.16-.44c0-.17.1-.32.29-.45.16-.1.27-.18.31-.24s.08-.14.11-.26c.1-.64.16-1.62.15-2.95v-1.5c0-.51-.03-.84-.08-.98-.05-.14-.18-.23-.39-.25-.37-.05-.56-.21-.56-.46,0-.17.08-.33.25-.47s.43-.28.81-.41c1.19-.44,2.08-.66,2.65-.66.26,0,.38.11.38.33Z"/>
      <path class="cls-1" d="m358.37,64.71v-3.6c0-.46-.03-.76-.1-.89s-.24-.23-.52-.3c-.41-.12-.62-.32-.62-.62,0-.21.09-.36.26-.47s.42-.16.75-.16c.11,0,.38,0,.81.02h.41c.76,0,1.2-.01,1.33-.02.13,0,.59-.05,1.39-.12.26-.03.51-.04.72-.04.75,0,1.41.15,2,.46,1.02.53,1.52,1.37,1.52,2.52,0,.93-.36,1.67-1.07,2.24-.67.52-1.48.79-2.43.79-.24,0-.54-.02-.89-.05-.19-.01-.3-.02-.35-.02-.13,0-.2.08-.2.23v.04l.05,1.12c0,.22.05.38.12.49.07.11.22.22.43.33.3.16.44.33.44.52,0,.29-.22.51-.66.66s-1.06.23-1.86.23c-1.69,0-2.53-.29-2.53-.87,0-.14.04-.24.11-.31s.24-.18.51-.31c.16-.09.26-.21.29-.36s.05-.65.05-1.5Zm3.08-4.46v2.32c0,.18.04.28.12.32.13.06.3.1.5.1.3,0,.55-.08.76-.25.3-.24.44-.65.44-1.22s-.17-1.02-.52-1.29c-.22-.17-.48-.25-.79-.25-.34,0-.51.09-.51.27Z"/>
      <path class="cls-1" d="m370.59,58.93l-.09,2.86c0,.34.1.51.31.51.11,0,.22-.08.32-.23.44-.64,1.03-.96,1.77-.96s1.3.22,1.73.66c.19.2.33.43.41.7.08.27.12.65.13,1.16l.06,2.47c0,.21.03.37.09.47.05.1.17.23.37.38.13.1.2.23.2.38,0,.49-.74.74-2.23.74-1.32,0-1.98-.23-1.98-.69,0-.08.01-.14.03-.18s.1-.15.24-.33c.19-.25.29-.88.29-1.88,0-.61-.06-1.05-.17-1.33-.15-.38-.42-.57-.81-.57-.28,0-.48.1-.62.3-.1.15-.14.42-.14.82v1.32c.03.58.06.91.08.99s.13.22.31.43c.09.1.13.21.13.33,0,.52-.67.77-2.01.77-1.57,0-2.35-.27-2.35-.8,0-.12.03-.22.08-.28s.17-.17.37-.3c.17-.12.29-.45.36-.99.07-.54.1-1.43.1-2.68,0-.98-.03-1.66-.08-2.04-.02-.14-.05-.25-.1-.31-.05-.07-.14-.13-.27-.2-.28-.15-.42-.31-.42-.51,0-.23.11-.41.32-.55s.62-.29,1.23-.46c.82-.23,1.47-.34,1.96-.34.26,0,.39.11.38.34Z"/>
      <path class="cls-1" d="m382.58,64.48l-.9,2.48c-.22.62-.45,1.12-.67,1.51-.23.39-.48.72-.77.99-.59.56-1.31.85-2.14.85-.67,0-1.22-.18-1.64-.53-.32-.27-.49-.62-.49-1.05,0-.35.11-.65.34-.89.23-.24.5-.36.83-.36s.59.11.79.33c.1.1.16.19.19.27s.08.25.14.51c.05.2.16.3.34.3.14,0,.26-.06.36-.18s.14-.28.14-.46c0-.21-.12-.57-.36-1.07l-1.65-3.51c-.17-.36-.3-.59-.39-.68s-.28-.2-.57-.33c-.09-.04-.17-.11-.24-.22-.07-.11-.1-.21-.1-.31,0-.41.4-.68,1.21-.83.54-.1,1.15-.14,1.84-.14.48,0,.86.05,1.14.15.37.13.56.36.56.68,0,.11-.05.25-.16.4-.1.15-.15.28-.15.39s.02.22.07.34c.05.12.15.32.3.6.17.32.33.48.46.48.14,0,.29-.14.44-.42s.23-.55.23-.81c0-.21-.06-.38-.17-.51-.17-.21-.26-.38-.26-.53,0-.23.16-.42.46-.56s.72-.21,1.24-.21c.97,0,1.45.23,1.45.7,0,.17-.05.3-.15.41-.1.1-.28.2-.54.29-.22.08-.39.22-.52.41-.2.31-.43.81-.69,1.51Z"/>
      <path class="cls-1" d="m387.18,61.12c.23,0,.6.05,1.11.15.1.02.19.03.26.03.08,0,.23-.04.45-.12.1-.04.19-.06.27-.06.21,0,.42.13.64.4.17.21.31.45.42.7s.16.48.16.66-.06.33-.19.45-.29.18-.48.18c-.16,0-.3-.04-.43-.12-.13-.08-.33-.25-.61-.51-.29-.28-.53-.42-.72-.42-.13,0-.24.05-.33.14-.09.09-.14.2-.14.33,0,.22.21.43.64.63.77.35,1.36.72,1.77,1.13.35.35.52.77.52,1.27,0,.63-.28,1.16-.83,1.59-.48.37-1.06.55-1.76.55-.18,0-.5-.03-.97-.09-.44-.05-.69-.08-.75-.08-.06,0-.13,0-.21.02-.13.02-.23.03-.29.03-.21,0-.38-.05-.51-.16-.19-.17-.36-.43-.52-.8s-.24-.67-.24-.93c0-.42.16-.63.49-.63.13,0,.25.04.35.13.11.08.33.31.67.67.19.2.34.34.46.41s.25.11.4.11c.15,0,.27-.04.36-.12s.14-.19.14-.32c0-.21-.18-.39-.53-.56-.73-.36-1.26-.73-1.59-1.11-.33-.38-.49-.82-.49-1.33,0-.54.17-1.01.5-1.4.47-.56,1.12-.84,1.94-.84Z"/>
      <path class="cls-1" d="m394.92,61.59v3.97c0,.31.03.54.09.69.06.15.17.28.34.4.14.1.24.19.28.26.05.07.07.16.07.27,0,.59-.75.88-2.24.88-.8,0-1.44-.06-1.91-.19-.16-.05-.29-.13-.39-.24-.1-.11-.15-.24-.15-.39,0-.12.03-.22.08-.29s.18-.18.38-.33c.14-.1.24-.28.3-.51s.09-.59.09-1.06c0-.15-.01-.43-.03-.84-.02-.41-.04-.65-.04-.72-.03-.19-.16-.33-.38-.43-.28-.12-.42-.31-.42-.55,0-.29.18-.5.55-.64.51-.2,1.06-.36,1.64-.5s1.03-.21,1.35-.21c.25,0,.38.14.38.42Zm-1.35-2.99c.4,0,.71.07.94.22s.35.35.35.6c0,.35-.18.63-.53.83-.56.32-1.23.49-2.02.49-.33,0-.6-.06-.79-.19-.26-.16-.4-.39-.4-.68,0-.39.28-.7.84-.92.57-.23,1.1-.34,1.6-.34Z"/>
      <path class="cls-1" d="m400,61.12c.81,0,1.53.2,2.15.61.59.39.88.87.88,1.44,0,.4-.14.72-.41.96-.25.23-.56.35-.92.35s-.66-.14-.85-.41c-.06-.09-.15-.31-.26-.66-.12-.38-.36-.57-.7-.57-.25,0-.46.11-.63.33-.17.22-.26.49-.26.81,0,.55.2,1.03.59,1.46.32.34.72.51,1.2.51.23,0,.42-.02.57-.06s.36-.12.61-.24c.06-.03.13-.05.21-.05.16,0,.29.07.41.22s.18.32.18.51-.08.42-.25.65-.39.42-.66.59c-.59.36-1.29.55-2.1.55-.94,0-1.74-.27-2.4-.82-.85-.69-1.27-1.57-1.27-2.65s.39-1.88,1.18-2.56c.75-.65,1.67-.97,2.74-.97Z"/>
      <path class="cls-1" d="m406.21,61.12c.23,0,.6.05,1.11.15.1.02.19.03.26.03.08,0,.23-.04.45-.12.1-.04.19-.06.27-.06.21,0,.42.13.64.4.17.21.31.45.42.7s.16.48.16.66-.06.33-.19.45-.29.18-.48.18c-.16,0-.3-.04-.43-.12-.13-.08-.33-.25-.61-.51-.29-.28-.53-.42-.72-.42-.13,0-.24.05-.33.14-.09.09-.14.2-.14.33,0,.22.21.43.64.63.77.35,1.36.72,1.77,1.13.35.35.52.77.52,1.27,0,.63-.28,1.16-.83,1.59-.48.37-1.06.55-1.76.55-.18,0-.5-.03-.97-.09-.44-.05-.69-.08-.75-.08-.06,0-.13,0-.21.02-.13.02-.23.03-.29.03-.21,0-.38-.05-.51-.16-.19-.17-.36-.43-.52-.8s-.24-.67-.24-.93c0-.42.16-.63.49-.63.13,0,.25.04.35.13.11.08.33.31.67.67.19.2.34.34.46.41s.25.11.4.11c.15,0,.27-.04.36-.12s.14-.19.14-.32c0-.21-.18-.39-.53-.56-.73-.36-1.26-.73-1.59-1.11-.33-.38-.49-.82-.49-1.33,0-.54.17-1.01.5-1.4.47-.56,1.12-.84,1.94-.84Z"/>
      <path class="cls-1" d="m417.42,58.92l3.4,2.98c.32.28.55.42.69.42.24,0,.36-.25.36-.76,0-.57-.03-.97-.1-1.18s-.21-.37-.43-.47c-.18-.09-.3-.18-.38-.28s-.11-.22-.11-.38c0-.38.26-.63.79-.74.21-.05.59-.07,1.12-.07.69,0,1.16.04,1.43.12.42.13.63.37.63.72,0,.3-.17.52-.51.67-.14.06-.23.11-.28.16s-.09.11-.13.21c-.12.3-.19.87-.19,1.71v2.23c0,.34,0,.81,0,1.4,0,.8-.04,1.38-.14,1.74-.12.44-.35.66-.67.66-.14,0-.26-.03-.37-.09-.1-.06-.27-.2-.51-.41l-4.05-3.63c-.28-.26-.52-.38-.7-.38-.28,0-.42.39-.42,1.16,0,.63.04,1.07.11,1.3.07.23.22.4.43.51.31.15.46.35.46.59,0,.63-.68.95-2.04.95-.62,0-1.09-.08-1.43-.24-.34-.16-.51-.39-.51-.69,0-.15.03-.27.1-.35s.21-.18.43-.31c.21-.13.34-.35.39-.68.08-.59.12-1.43.12-2.54,0-1.18-.07-2.03-.21-2.57-.05-.2-.11-.34-.19-.44s-.21-.19-.38-.27c-.21-.1-.35-.2-.43-.29-.08-.1-.12-.21-.12-.35,0-.44.38-.71,1.13-.83.25-.04.7-.05,1.34-.05.36,0,.63.03.8.09.17.06.36.19.59.39Z"/>
      <path class="cls-1" d="m429.07,61.59v3.97c0,.31.03.54.09.69.06.15.17.28.34.4.14.1.24.19.28.26.05.07.07.16.07.27,0,.59-.75.88-2.24.88-.8,0-1.44-.06-1.91-.19-.16-.05-.29-.13-.39-.24-.1-.11-.15-.24-.15-.39,0-.12.03-.22.08-.29s.18-.18.38-.33c.14-.1.24-.28.3-.51s.09-.59.09-1.06c0-.15-.01-.43-.03-.84-.02-.41-.04-.65-.04-.72-.03-.19-.16-.33-.38-.43-.28-.12-.42-.31-.42-.55,0-.29.18-.5.55-.64.51-.2,1.06-.36,1.64-.5s1.03-.21,1.35-.21c.25,0,.38.14.38.42Zm-1.35-2.99c.4,0,.71.07.94.22s.35.35.35.6c0,.35-.18.63-.53.83-.56.32-1.23.49-2.02.49-.33,0-.6-.06-.79-.19-.26-.16-.4-.39-.4-.68,0-.39.28-.7.84-.92.57-.23,1.1-.34,1.6-.34Z"/>
      <path class="cls-1" d="m437.53,60.75c.11,0,.21.06.3.19s.13.28.13.45c0,.19-.06.4-.17.64-.12.24-.26.43-.42.57-.1.09-.16.16-.16.22,0,.01,0,.07.01.16.01.1.02.18.02.26,0,.54-.18,1-.55,1.37-.33.33-.75.58-1.27.77-.52.18-1.08.27-1.71.27-.15,0-.3,0-.44-.03-.12-.01-.21-.02-.27-.02-.24,0-.36.12-.36.36,0,.15.08.28.24.37.16.09.37.13.64.13.18,0,.45-.02.81-.08.75-.1,1.3-.16,1.65-.16.54,0,.96.09,1.25.27.24.14.42.33.56.57.14.25.21.51.21.79,0,.46-.17.91-.51,1.34-.4.51-.99.89-1.77,1.13-.61.19-1.32.29-2.12.29-1.01,0-1.83-.15-2.46-.46-.29-.15-.52-.34-.7-.57s-.26-.48-.26-.74c0-.18.05-.34.15-.49.1-.15.22-.26.37-.32.14-.05.21-.11.21-.18,0-.05-.06-.12-.17-.22-.36-.31-.55-.62-.55-.95,0-.22.09-.44.26-.68.17-.23.39-.41.65-.54.11-.05.16-.11.16-.16,0-.06-.07-.16-.21-.29-.47-.43-.7-.94-.7-1.52,0-.31.08-.6.25-.88.17-.28.4-.52.69-.71.73-.48,1.55-.72,2.44-.72.36,0,.75.05,1.19.14.42.08.7.12.85.12.5,0,.99-.2,1.48-.59.11-.08.19-.12.25-.12Zm-5.2,7.64c-.11,0-.17.07-.17.2,0,.27.15.49.44.65s.67.25,1.13.25.8-.06,1.05-.18c.25-.12.38-.28.38-.5,0-.11-.05-.21-.14-.29s-.21-.12-.36-.12c-.07,0-.18,0-.31.03-.25.04-.54.06-.85.06-.23,0-.46-.01-.67-.03-.16-.01-.29-.03-.39-.05-.05,0-.08-.01-.1-.01Zm1.49-6.22c-.23,0-.41.09-.55.26-.14.17-.21.4-.21.69,0,.49.08.89.23,1.18s.35.44.59.44.43-.09.57-.28.21-.43.21-.74c0-.49-.07-.87-.22-1.14-.15-.27-.36-.41-.62-.42Z"/>
      <path class="cls-1" d="m442.16,58.93l-.09,2.86c0,.34.1.51.31.51.11,0,.22-.08.32-.23.44-.64,1.03-.96,1.77-.96s1.3.22,1.73.66c.19.2.33.43.41.7.08.27.12.65.13,1.16l.06,2.47c0,.21.03.37.09.47.05.1.17.23.37.38.13.1.2.23.2.38,0,.49-.74.74-2.23.74-1.32,0-1.98-.23-1.98-.69,0-.08.01-.14.03-.18s.1-.15.24-.33c.19-.25.29-.88.29-1.88,0-.61-.06-1.05-.17-1.33-.15-.38-.42-.57-.81-.57-.28,0-.48.1-.62.3-.1.15-.14.42-.14.82v1.32c.03.58.06.91.08.99s.13.22.31.43c.09.1.13.21.13.33,0,.52-.67.77-2.01.77-1.57,0-2.35-.27-2.35-.8,0-.12.03-.22.08-.28s.17-.17.37-.3c.17-.12.29-.45.36-.99.07-.54.1-1.43.1-2.68,0-.98-.03-1.66-.08-2.04-.02-.14-.05-.25-.1-.31-.05-.07-.14-.13-.27-.2-.28-.15-.42-.31-.42-.51,0-.23.11-.41.32-.55s.62-.29,1.23-.46c.82-.23,1.47-.34,1.96-.34.26,0,.39.11.38.34Z"/>
      <path class="cls-1" d="m451.92,62.91v2.31c0,.27.07.5.2.67.13.17.31.26.52.26.18,0,.41-.08.7-.25.07-.04.14-.06.21-.06.11,0,.21.07.3.2s.14.28.14.43c0,.28-.16.55-.46.81-.65.55-1.43.83-2.35.83-.73,0-1.31-.21-1.76-.62s-.66-.96-.66-1.63v-3.16c0-.1-.01-.17-.04-.19-.03-.02-.09-.04-.2-.04h-.7c-.13,0-.22-.02-.25-.06s-.05-.14-.05-.3v-.3c0-.14.06-.24.16-.3l3.13-1.97c.08-.04.17-.06.29-.06h.55c.11,0,.19.03.23.08.04.05.06.16.06.31v.92c0,.14.02.23.06.27.04.04.14.06.28.06h1.26c.17,0,.28.03.33.09s.08.19.08.39v.4c0,.22-.03.37-.1.45s-.18.13-.35.13h-1.24c-.13,0-.21.02-.26.07s-.07.13-.07.26Z"/>
      <path class="cls-1" d="m462.07,61.11c.83,0,1.57.22,2.19.65.45.31.81.71,1.09,1.21.28.52.42,1.06.42,1.63,0,.99-.45,1.83-1.36,2.52-.87.66-1.86.99-2.97.99s-1.97-.31-2.65-.93c-.66-.6-.98-1.39-.98-2.35,0-1.08.4-1.96,1.2-2.64.84-.72,1.86-1.08,3.06-1.08Zm-.55,1.58c-.2,0-.36.07-.48.22-.12.15-.18.35-.18.59,0,.27.05.65.15,1.12.1.47.22.89.37,1.25.14.37.37.56.69.56.41,0,.61-.26.61-.77,0-.38-.05-.82-.15-1.31-.1-.49-.23-.88-.37-1.19-.15-.31-.36-.47-.63-.48Z"/>
      <path class="cls-1" d="m470.29,62.39h.85c.14,0,.24.02.3.06.06.04.09.12.08.22l-.05.81c0,.16-.03.27-.08.31s-.13.06-.27.06c-.03,0-.11,0-.23-.01-.08,0-.15,0-.21,0-.19,0-.32.06-.39.19s-.1.36-.1.71c0,.48.05.88.16,1.21.04.14.1.25.18.31s.21.12.38.17c.4.12.6.34.6.66,0,.34-.23.59-.7.74-.47.15-1.23.23-2.3.23-1.58,0-2.37-.31-2.37-.94,0-.15.03-.27.1-.34.07-.07.21-.16.43-.25.24-.11.39-.31.44-.61.08-.45.12-.93.12-1.44,0-.23-.04-.39-.12-.48-.08-.09-.22-.13-.43-.13-.25,0-.4-.01-.47-.04s-.1-.09-.1-.18l.05-.86c0-.14.03-.23.07-.26.04-.03.15-.06.33-.06.17,0,.25-.09.25-.25,0-.06-.06-.21-.18-.44-.21-.38-.31-.76-.31-1.13,0-.56.19-1.01.57-1.36.56-.52,1.37-.77,2.41-.77.86,0,1.55.2,2.06.61.4.31.59.68.59,1.09,0,.3-.1.55-.29.75s-.44.3-.73.3c-.33,0-.64-.11-.94-.34-.07-.06-.25-.24-.52-.54-.2-.21-.39-.31-.59-.31-.13,0-.24.05-.33.14s-.14.2-.14.33c0,.36.34.75,1.03,1.16.21.13.35.23.43.3.08.07.14.18.2.31.03.05.1.08.22.08Z"/>
      <path class="cls-1" d="m481.8,61.02l-.2-.48c-.12-.28-.28-.46-.46-.55-.33-.17-.49-.39-.49-.66,0-.58.88-.88,2.62-.88.88,0,1.54.07,2,.21.16.05.28.13.37.24.09.11.14.23.14.36,0,.11-.02.2-.06.26-.04.06-.16.18-.36.35-.11.1-.17.2-.17.3,0,.16.09.42.26.79l.39.83c.18.38.3.62.38.72.08.1.16.15.26.15.1,0,.19-.06.27-.18.07-.12.17-.35.29-.7l.33-.96c.09-.27.14-.48.14-.62,0-.18-.1-.3-.29-.36-.38-.12-.57-.34-.57-.66,0-.27.15-.47.44-.59s.78-.18,1.46-.18c.44,0,.79.05,1.03.15.34.14.51.36.51.66,0,.13-.03.25-.09.34-.06.1-.19.22-.37.38-.12.1-.22.22-.28.33-.07.12-.17.36-.3.73l-1.2,3.18c-.6,1.48-.96,2.36-1.08,2.65s-.25.54-.38.76c-.1.16-.21.28-.33.35s-.29.1-.49.1c-.27,0-.49-.06-.66-.18-.17-.12-.31-.31-.42-.59l-1.35-3.21c-.07-.18-.13-.29-.16-.33s-.09-.07-.15-.07c-.1,0-.18.06-.25.17s-.2.41-.39.88l-.93,2.31c-.17.42-.34.7-.5.83-.16.13-.4.2-.71.2-.29,0-.51-.07-.68-.21-.17-.14-.32-.38-.46-.72l-2.52-6.43c-.1-.26-.18-.42-.21-.47-.04-.05-.16-.13-.37-.24-.23-.12-.35-.32-.35-.6,0-.64.8-.96,2.39-.96.82,0,1.41.06,1.77.17.35.11.53.34.53.68,0,.1,0,.18-.03.23s-.08.15-.2.32c-.05.09-.08.19-.08.32,0,.23.15.7.46,1.42l.28.66c.12.27.2.44.24.5.04.06.09.09.17.09.18,0,.36-.25.55-.76l.28-.78c.02-.05.03-.1.03-.13,0-.04-.01-.08-.03-.14Z"/>
      <path class="cls-1" d="m493.77,61.11c.83,0,1.57.22,2.19.65.45.31.81.71,1.09,1.21.28.52.42,1.06.42,1.63,0,.99-.45,1.83-1.36,2.52-.87.66-1.86.99-2.97.99s-1.97-.31-2.65-.93c-.66-.6-.98-1.39-.98-2.35,0-1.08.4-1.96,1.2-2.64.84-.72,1.86-1.08,3.06-1.08Zm-.55,1.58c-.2,0-.36.07-.48.22-.12.15-.18.35-.18.59,0,.27.05.65.15,1.12.1.47.22.89.37,1.25.14.37.37.56.69.56.41,0,.61-.26.61-.77,0-.38-.05-.82-.15-1.31-.1-.49-.23-.88-.37-1.19-.15-.31-.36-.47-.63-.48Z"/>
      <path class="cls-1" d="m506.26,63.64l.1,2.41c0,.18.04.32.08.4.05.09.19.25.42.5.07.07.1.18.1.31,0,.3-.18.51-.54.63s-1,.18-1.93.18c-.63,0-1.07-.05-1.33-.16-.27-.11-.4-.3-.4-.55,0-.09.01-.16.04-.2s.12-.15.27-.32c.18-.19.27-.83.27-1.91,0-.63-.07-1.09-.22-1.39-.12-.24-.34-.36-.66-.36s-.51.1-.63.29-.17.55-.17,1.07v1.35c0,.27.02.45.05.55.04.1.15.29.34.58.05.08.08.18.08.28,0,.27-.19.47-.56.59s-.96.19-1.75.19c-1.27,0-1.9-.26-1.9-.79,0-.11.02-.19.06-.25.04-.06.13-.14.28-.24.12-.09.19-.19.23-.3s.06-.39.09-.82c.03-.52.05-1.06.05-1.63,0-.31-.02-.52-.07-.62-.05-.1-.19-.22-.41-.36-.2-.12-.29-.27-.29-.45s.08-.33.24-.45.49-.26.98-.44c.44-.15.86-.29,1.26-.39s.68-.16.83-.16c.14,0,.25.05.35.15.09.1.14.22.14.36,0,.01,0,.07,0,.17,0,.04,0,.07,0,.1,0,.22.09.33.27.33.11,0,.23-.09.35-.26.39-.56.96-.85,1.71-.85.57,0,1.07.15,1.48.45.29.21.49.47.6.76s.18.71.21,1.27Z"/>
      <path class="cls-1" d="m515.35,59.14v6.24c0,.36.01.58.04.68.03.1.11.2.25.29.16.11.27.21.33.3.06.09.08.19.08.31,0,.36-.37.64-1.1.83-.66.17-1.32.25-1.98.25-.15,0-.24-.02-.28-.06-.04-.04-.07-.15-.09-.31-.02-.23-.1-.35-.25-.35-.08,0-.2.07-.36.21-.46.38-.98.57-1.55.57-.71,0-1.34-.26-1.91-.79-.33-.31-.6-.68-.81-1.09-.27-.53-.41-1.07-.41-1.62,0-.64.18-1.26.53-1.86.33-.55.77-.98,1.34-1.27.47-.25.94-.37,1.4-.37.53,0,1,.12,1.42.36.07.04.12.05.16.05.15,0,.22-.2.22-.59,0-.17-.04-.3-.12-.39-.08-.09-.22-.17-.43-.23-.29-.09-.43-.25-.43-.48,0-.33.33-.59.99-.78,1.17-.32,1.95-.49,2.34-.49s.59.19.59.56Zm-3.71,3.44c-.3,0-.53.16-.7.47-.23.42-.35.97-.35,1.65,0,.62.11,1.09.33,1.4.16.23.38.34.65.34.3,0,.51-.17.65-.52.13-.34.2-.9.2-1.66,0-.7-.08-1.17-.24-1.4-.12-.18-.3-.28-.54-.29Z"/>
      <path class="cls-1" d="m522.78,64.86h-3.21c-.14,0-.21.06-.21.18,0,.3.16.58.48.84.32.26.67.39,1.04.39.22,0,.46-.04.73-.13.27-.08.49-.19.66-.31.16-.11.28-.16.37-.16.12,0,.23.07.35.22s.17.3.17.45c0,.33-.21.65-.62.95-.72.54-1.56.81-2.51.81s-1.76-.28-2.41-.83c-.31-.27-.57-.6-.78-.99-.27-.52-.4-1.06-.4-1.63,0-.77.23-1.45.7-2.06.4-.53.91-.92,1.53-1.18.46-.2.97-.29,1.51-.29.87,0,1.6.25,2.21.74.31.25.55.54.74.88.21.38.32.76.32,1.12,0,.3-.06.54-.18.73s-.28.28-.48.28Zm-3.04-1.28h.69c.29,0,.44-.13.44-.4,0-.25-.07-.45-.21-.6s-.33-.23-.55-.23c-.25,0-.46.1-.6.3-.14.19-.21.38-.21.57,0,.14.03.23.1.29.07.05.18.08.35.08Z"/>
      <path class="cls-1" d="m527.08,61.16c.24,0,.39.03.44.1.05.07.1.29.14.66.02.2.09.3.21.3.09,0,.18-.07.26-.2.36-.57.84-.85,1.43-.85.42,0,.75.13,1.02.4.13.13.23.3.31.51s.12.41.12.6c0,.21-.05.43-.15.66s-.23.41-.39.56c-.29.28-.65.42-1.07.42-.23,0-.43-.04-.58-.12-.16-.08-.36-.25-.62-.5-.1-.1-.18-.14-.27-.14-.13,0-.21.07-.25.22-.04.14-.06.45-.06.91,0,.69.03,1.16.08,1.41.03.14.08.23.13.28.06.05.18.11.37.16.41.12.62.34.62.64,0,.19-.07.35-.2.49s-.31.23-.53.28c-.44.09-1.08.14-1.93.14s-1.42-.07-1.84-.21c-.37-.13-.56-.35-.56-.66,0-.24.14-.45.41-.64.13-.09.22-.17.27-.24s.08-.17.1-.29c.07-.41.11-1.18.11-2.3,0-.21-.02-.35-.07-.44s-.14-.16-.27-.22c-.32-.13-.49-.31-.49-.55,0-.22.11-.41.33-.56s.6-.31,1.12-.47c.7-.21,1.3-.32,1.79-.32Z"/>
      <path class="cls-1" d="m533.97,61.12c.23,0,.6.05,1.11.15.1.02.19.03.26.03.08,0,.23-.04.45-.12.1-.04.19-.06.27-.06.21,0,.42.13.64.4.17.21.31.45.42.7s.16.48.16.66-.06.33-.19.45-.29.18-.48.18c-.16,0-.3-.04-.43-.12-.13-.08-.33-.25-.61-.51-.29-.28-.53-.42-.72-.42-.13,0-.24.05-.33.14-.09.09-.14.2-.14.33,0,.22.21.43.64.63.77.35,1.36.72,1.77,1.13.35.35.52.77.52,1.27,0,.63-.28,1.16-.83,1.59-.48.37-1.06.55-1.76.55-.18,0-.5-.03-.97-.09-.44-.05-.69-.08-.75-.08-.06,0-.13,0-.21.02-.13.02-.23.03-.29.03-.21,0-.38-.05-.51-.16-.19-.17-.36-.43-.52-.8s-.24-.67-.24-.93c0-.42.16-.63.49-.63.13,0,.25.04.35.13.11.08.33.31.67.67.19.2.34.34.46.41s.25.11.4.11c.15,0,.27-.04.36-.12s.14-.19.14-.32c0-.21-.18-.39-.53-.56-.73-.36-1.26-.73-1.59-1.11-.33-.38-.49-.82-.49-1.33,0-.54.17-1.01.5-1.4.47-.56,1.12-.84,1.94-.84Z"/>
    </g>
  </g>
</svg>