<?xml version="1.0" encoding="UTF-8"?>
<svg id="_图层_2" data-name="图层 2" xmlns="http://www.w3.org/2000/svg" viewBox="0 0 487.82 174.22">
  <defs>
    <style>
      .cls-1 {
        fill: #fefefe;
      }

      .cls-1, .cls-2, .cls-3, .cls-4, .cls-5, .cls-6, .cls-7, .cls-8, .cls-9, .cls-10, .cls-11, .cls-12, .cls-13, .cls-14, .cls-15, .cls-16, .cls-17, .cls-18, .cls-19, .cls-20, .cls-21, .cls-22, .cls-23, .cls-24, .cls-25 {
        stroke-width: 0px;
      }

      .cls-2 {
        fill: #2a2b2b;
      }

      .cls-3 {
        fill: #d2b895;
      }

      .cls-4 {
        fill: #d8d2c7;
      }

      .cls-5 {
        fill: #d2cabe;
      }

      .cls-6 {
        fill: #fefeff;
      }

      .cls-7 {
        fill: #d7cebe;
      }

      .cls-8 {
        fill: #fcfaf0;
      }

      .cls-9 {
        fill: #fbf5e8;
      }

      .cls-10 {
        fill: #040000;
      }

      .cls-11 {
        fill: #f3f3f4;
      }

      .cls-12 {
        fill: #7f8080;
      }

      .cls-13 {
        fill: #fff;
      }

      .cls-26 {
        fill: #191919;
        font-family: MicrosoftYaHei-Bold, 'Microsoft YaHei';
        font-size: 32.75px;
        font-weight: 700;
      }

      .cls-14 {
        fill: #060303;
      }

      .cls-15 {
        fill: #f4e5be;
      }

      .cls-16 {
        fill: #e2e2e2;
      }

      .cls-17 {
        fill: #fefefc;
      }

      .cls-18 {
        fill: #d0d0d1;
      }

      .cls-19 {
        fill: #f8f0e1;
      }

      .cls-20 {
        fill: #d0c3a6;
      }

      .cls-21 {
        fill: #e6e5df;
      }

      .cls-22 {
        fill: #b9a381;
      }

      .cls-23 {
        fill: #35b05f;
      }

      .cls-24 {
        fill: #bfb8a9;
      }

      .cls-25 {
        fill: #050101;
      }
    </style>
  </defs>
  <g id="_图层_1-2" data-name="图层 1">
    <rect class="cls-23" x="0" width="487.82" height="174.22" rx="12" ry="12"/>
    <path class="cls-13" d="m458.76,148.75h-240.68c-2.1,0-3.79-1.72-3.79-3.83v-45.95c0-2.12,1.7-3.83,3.79-3.83h240.68c2.1,0,3.79,1.72,3.79,3.83v45.95c0,2.12-1.7,3.83-3.79,3.83Z"/>
    <path class="cls-12" d="m254.98,134.25l-6.83-6.85c1.73-2.18,2.68-4.89,2.68-7.69,0-6.77-5.45-12.27-12.15-12.27s-12.15,5.51-12.15,12.27,5.45,12.27,12.15,12.27c2.77,0,5.46-.96,7.61-2.71l6.83,6.85.29.29.29-.29,1.28-1.29.29-.29-.29-.29Zm-16.29-4.92c-5.25,0-9.52-4.32-9.52-9.62s4.27-9.62,9.52-9.62,9.52,4.32,9.52,9.62-4.27,9.62-9.52,9.62Z"/>
    <text class="cls-26" transform="translate(260.23 133.26)"><tspan x="0" y="0">致远物理咯咯</tspan></text>
    <g>
      <g>
        <path class="cls-13" d="m238.04,44.35c-1.23,0-2.23-1.01-2.23-2.25s1-2.25,2.23-2.25,2.23,1.01,2.23,2.25-1,2.25-2.23,2.25m-12.57,0c-1.23,0-2.23-1.01-2.23-2.25s1-2.25,2.23-2.25,2.23,1.01,2.23,2.25-1,2.25-2.23,2.25m6.28-13.01c-10.41,0-18.85,7.09-18.85,15.83,0,4.77,2.54,9.07,6.51,11.97.32.23.53.61.53,1.03,0,.14-.03.27-.07.4-.32,1.19-.83,3.1-.85,3.19-.04.15-.1.31-.1.46,0,.35.28.63.63.63.14,0,.25-.05.36-.12l4.13-2.4c.31-.18.64-.29,1-.29.19,0,.38.03.55.08,1.93.56,4,.87,6.15.87.35,0,.69,0,1.04-.02-.41-1.24-.63-2.54-.63-3.88,0-7.97,7.7-14.44,17.19-14.44.34,0,.43.01.77.03-1.42-7.56-8.96-13.35-18.36-13.35"/>
        <path class="cls-13" d="m254.59,56.85c-1.08,0-1.96-.88-1.96-1.98s.88-1.98,1.96-1.98,1.96.89,1.96,1.98-.88,1.98-1.96,1.98m-10.47,0c-1.08,0-1.96-.88-1.96-1.98s.88-1.98,1.96-1.98,1.96.89,1.96,1.98-.88,1.98-1.96,1.98m15.52,12.22c3.31-2.42,5.43-6,5.43-9.97,0-7.29-7.03-13.19-15.71-13.19s-15.71,5.91-15.71,13.19,7.03,13.19,15.71,13.19c1.79,0,3.52-.26,5.13-.72.15-.04.3-.07.46-.07.3,0,.58.09.83.24l3.44,2c.1.06.19.1.3.1.29,0,.52-.24.52-.53,0-.13-.05-.26-.08-.39-.02-.07-.44-1.67-.71-2.66-.03-.11-.06-.22-.06-.34,0-.35.17-.67.44-.86"/>
      </g>
      <g>
        <g>
          <path class="cls-13" d="m323.24,35.5l2.53.99c-.76,2.69-1.54,4.89-2.52,7.26v24.76h-2.66v-19.45c-.95,1.56-1.8,2.85-2.93,4.38l-2.04-1.89c3.34-4.37,6.15-9.96,7.61-16.06Z"/>
          <path class="cls-13" d="m337.42,35.43c.55.98,1.76,3.26,2.49,4.71h9.57v2.55h-23.65v-2.55h10.99c-.69-1.27-1.35-2.52-1.82-3.32l2.43-1.4Z"/>
          <rect class="cls-13" x="328.69" y="45.78" width="18.15" height="2.33"/>
          <rect class="cls-13" x="328.69" y="51.13" width="18.15" height="2.36"/>
          <path class="cls-13" d="m328.69,56.51v11.1h18.15v-11.1h-18.15Zm15.42,8.69h-12.69v-6.25h12.69v6.25Z"/>
        </g>
        <g>
          <path class="cls-13" d="m282.59,43.86l2.16,1.23c-.67,1.45-1.13,2.37-2.06,3.94l.02,19.49h-2.46l-.02-15.77c-1.01,1.38-1.64,2.18-2.64,3.3l-1.94-1.81c2.52-2.62,5.27-6.73,6.94-10.38Z"/>
          <path class="cls-13" d="m282.18,35.54l2.27,1.3c-1.64,2.94-4.47,6.81-6.96,9.6l-1.94-1.79c2.42-2.64,5.14-6.32,6.63-9.11Z"/>
          <rect class="cls-13" x="285.73" y="48.3" width="11.54" height="2.37"/>
          <polygon class="cls-13" points="288.58 38.05 288.58 43.72 290.86 43.72 290.86 35.43 293.25 35.43 293.25 43.72 295.53 43.72 295.53 38.04 297.89 38.05 297.89 45.96 286.33 45.96 286.33 38.05 288.58 38.05"/>
          <path class="cls-13" d="m299.27,57.73s-1.88,1.8-2.42,2.25v-6.75h-10.09v5.22c0,3.76-.84,5.41-2.42,7.11l1.81,1.68c2.46-2.66,2.98-4.78,2.98-8.29v-3.31h5.33s.1,5.8-.08,6.68l1.61,1.51s3.83-3.48,5.01-4.48l-1.75-1.63Z"/>
          <path class="cls-13" d="m306.24,58.15c1.72-3.72,2.7-8.84,2.78-15.51h1.65s0-2.5,0-2.5h-7.15c.09-1.37.06-2.95.06-3.83h-2.3c.03,3.55-.37,6.93-.88,9.31-.58,2.65-1.49,5.23-2.52,6.76l1.79,1.6c.51-.81.95-1.61,1.48-2.77.93,3.37,1.34,4.29,2.48,6.85-1.64,3.38-3.68,6.36-5.56,8.6l1.94,1.72c.95-1.17,3.05-3.98,4.99-7.74.87,1.63,2.7,4.49,4.84,7.69l1.94-1.97c-1.74-2.18-4.15-5.52-5.55-8.21Zm-1.41-2.84c-1.23-2.96-1.77-4.63-2.52-7.82.37-1.24.72-3.21.86-4.85h3.67c-.18,5.41-.87,9.65-2.02,12.67Z"/>
        </g>
        <path class="cls-13" d="m359.22,51.78v-6.62h-4.05v-2.54h4.05v-6.37h2.43v6.37h3.35v2.54h-3.35v5.53l2.85-1.27.32,2.61c-.88.39-2.01.85-3.17,1.37v10.46c0,2.64-.77,3.31-3.8,3.31h-2.25l-.49-2.5h2.04c1.73,0,2.08-.35,2.08-1.76v-8.49l-4.3,1.9-.32-2.64c1.2-.46,2.89-1.16,4.61-1.9Zm13.03-14.01l.92,2.18c-1.69.63-3.45,1.2-4.68,1.48v3.06h4.33v2.08h-4.33v3.24h5.53v-13.63h2.46v13.63h5.7v-3.24h-4.54v-2.08h4.54v-3.24h-4.61v-2.22h7.01v13.03h-8.1v2.99h7.25v2.11c-1.83,2.39-3.66,4.19-5.99,5.67,2.36.99,5.25,1.65,9.05,2.29l-.74,2.57c-4.65-.92-8.1-1.94-10.95-3.45-2.89,1.34-6.48,2.43-11.34,3.52l-.81-2.5c4.12-.78,7.22-1.51,9.68-2.5-1.9-1.34-3.59-2.96-5.28-5l.74-.56h-2.25v-2.15h8.17v-2.99h-7.89v-12.5c1.73-.35,4.01-1.02,6.13-1.8Zm2.92,23.8c2.01-1.13,3.63-2.54,5.32-4.37h-10.39c1.58,1.83,3.17,3.24,5.07,4.37Z"/>
        <path class="cls-13" d="m422.97,49.31v2.99h-29.69v-2.99h29.69Z"/>
        <path class="cls-13" d="m434.79,51.78v-6.62h-4.05v-2.54h4.05v-6.37h2.43v6.37h3.35v2.54h-3.35v5.53l2.85-1.27.32,2.61c-.88.39-2.01.85-3.17,1.37v10.46c0,2.64-.77,3.31-3.8,3.31h-2.25l-.49-2.5h2.04c1.73,0,2.08-.35,2.08-1.76v-8.49l-4.3,1.9-.32-2.64c1.2-.46,2.89-1.16,4.61-1.9Zm13.03-14.01l.92,2.18c-1.69.63-3.45,1.2-4.68,1.48v3.06h4.33v2.08h-4.33v3.24h5.53v-13.63h2.46v13.63h5.7v-3.24h-4.54v-2.08h4.54v-3.24h-4.61v-2.22h7.01v13.03h-8.1v2.99h7.25v2.11c-1.83,2.39-3.66,4.19-5.99,5.67,2.36.99,5.25,1.65,9.05,2.29l-.74,2.57c-4.65-.92-8.1-1.94-10.95-3.45-2.89,1.34-6.48,2.43-11.34,3.52l-.81-2.5c4.12-.78,7.22-1.51,9.68-2.5-1.9-1.34-3.59-2.96-5.28-5l.74-.56h-2.25v-2.15h8.17v-2.99h-7.89v-12.5c1.73-.35,4.01-1.02,6.13-1.8Zm2.92,23.8c2.01-1.13,3.63-2.54,5.32-4.37h-10.39c1.58,1.83,3.17,3.24,5.07,4.37Z"/>
      </g>
    </g>
    <rect class="cls-13" x="18.94" y="18.62" width="136.98" height="136.98" rx="9.13" ry="9.13"/>
    <g>
      <path class="cls-13" d="m87.43,151.6c-20.91,0-41.83-.02-62.74.04-1.49,0-1.79-.3-1.79-1.79.05-41.83.05-83.66,0-125.49,0-1.49.3-1.79,1.79-1.79,41.83.05,83.66.05,125.49,0,1.49,0,1.79.3,1.79,1.79-.05,41.83-.05,83.66,0,125.49,0,1.49-.3,1.8-1.79,1.79-20.91-.06-41.83-.04-62.74-.04Zm7.47-12.04c1.08-.39,3.17,1.29,3.05-1.59-.11-2.73-2.07-.83-3.06-1.34.03-1,.05-1.99.08-2.99,1.44-.16,3.59.64,3.03-2.28-.03-.16.89-.72,1.38-.73,2.47-.08,4.94-.04,7.41-.04q3.1,0,3.17,3.03c-2.57,0-5.14-.08-7.71.02-.46.02-1.24.71-1.27,1.12-.13,2.23-.11,4.48,0,6.71.02.39.65.97,1.08,1.08,2.14.52,1.88-.99,1.87-2.32-.02-3.64,0-3.64,3.07-3.64q2.95,0,2.89-3.04,3.04.08,3.03,3.23c0,.33-.04.67,0,1,.18,1.31-.17,2.08-1.69,1.81-1.46-.26-1.53.77-1.26,1.65.16.54.82,1.15,1.37,1.29.86.22,1.82,0,2.73.07,1.27.11,2.03-.1,1.92-1.67-.03-.41.78-1.13,1.33-1.29.98-.3,1.85-.06,1.59,1.34-.24,1.32.33,1.71,1.63,1.64,1.99-.11,4,.06,5.98-.09.49-.04,1.18-.77,1.34-1.31.37-1.22-.25-1.55-1.54-1.7-1.71-.2-4.9,1.7-4.49-2.52,0-.09-1.04-.16-1.48-.43-.54-.33-1.29-.8-1.37-1.31-.2-1.21-.16-2.5,0-3.72.05-.36.82-.88,1.25-.88.57.01,1.64.55,1.61.73-.43,2.91,1.6,2.16,3.11,2.17.5.99-1.39,2.95,1.34,3.06,2.88.11,1.19-1.98,1.59-3.06,1.02,0,2.04,0,3.07,0,.21,1.28-1.05,3.23,1.9,3.09,3.98-.18,4.08,0,4.02-4.21-.02-1.56.41-2.07,1.93-1.9.34.04,1.02-.5,1.05-.83.07-.67-.13-1.96-.32-1.98-1.72-.16-3.49-.25-5.18.02-.3.05-.55,1.94-.39,2.9.45,2.65-.76,3.33-3.09,2.97.01-2.57-.03-5.14.09-7.7.02-.46.65-1.16,1.11-1.28.89-.23,1.92.28,1.9-1.44-.02-1.59-.69-1.67-1.92-1.69-.39,0-1.04-.8-1.07-1.27-.04-.53.55-1.6.74-1.58,2.92.43,2.14-1.61,2.15-3.11q3.03.06,3.03,3.22c0,.58,0,1.16,0,1.75q0,4.15,4.17,4.07c.96-.02,1.96.29,1.89-1.41-.06-1.35-.45-1.65-1.71-1.66-.46,0-1.14-.78-1.3-1.33-.29-.96-.08-1.85,1.33-1.6,1.3.24,1.65-.31,1.68-1.61.03-1.39-.64-1.54-1.66-1.37-1.38.22-1.64-.61-1.34-1.59.17-.55.83-1.33,1.29-1.34,1.22-.03,1.67-.27,1.72-1.65.06-1.68-.9-1.42-1.88-1.42-1,0-2,.08-2.99-.04-.42-.05-1.17-.56-1.13-.76.45-2.9-1.57-2.16-3.09-2.17.01-.58-.04-1.16.05-1.72.21-1.44-.76-1.52-1.65-1.26-.54.16-1.26.81-1.31,1.31-.34,2.86,1.89,1.22,2.98,1.6-.04,1.63.47,3.69-2.45,3.12-.09-.02-.53,1-.54,1.54-.01.45.44,1.32.55,1.3,2.93-.58,2.4,1.48,2.44,3.11-4.49-.01-8.98.01-13.47-.09-.53-.01-1.48-.73-1.48-1.13-.02-1.29-.23-1.88-1.75-1.88-1.74,0-1.31,1.07-1.32,1.97-.02,2.99.04,5.99-.07,8.98-.01.38-.85,1.01-1.33,1.03-.52.03-1.55-.57-1.53-.8.35-3-1.68-2.07-3.18-2.01.32-1.04.76-3,.95-2.97,2.42.32,2.25-1.17,2.17-2.73-.06-1.33.1-2.67-.04-3.98-.19-1.84.27-2.61,2.35-2.48,3.23.2,6.47.03,9.71.02-.01.57.04,1.16-.05,1.72-.22,1.45.76,1.52,1.64,1.26.54-.16,1.26-.81,1.32-1.31.34-2.85-1.89-1.22-2.98-1.6.03-1.65-.45-3.69,2.46-3.1.12.02.53-.69.55-1.08.07-1.23.07-2.48,0-3.71-.02-.39-.44-1.1-.55-1.08-2.92.59-2.42-1.46-2.45-3.1,1.5-.01,3.53.79,3.09-2.13-.03-.22.69-.76,1.09-.79,1.23-.11,2.48-.11,3.71,0,.4.03,1.12.57,1.09.79-.44,2.92,1.59,2.13,3.09,2.13.03,1.5-.78,3.55,2.15,3.1.21-.03.74.7.78,1.11.11,1.23-.05,2.49.09,3.72.05.41.65.97,1.08,1.08,2.13.52,1.91-.99,1.87-2.32-.07-2.13.56-4.69-.42-6.25-.59-.93-3.66-.3-5.62-.37.59-.96-1.23-3.16,1.47-3,1.39.09,1.58-.46,1.62-1.68.05-1.41-.68-1.4-1.67-1.36-1.07.04-2.15.06-3.22-.02-.39-.03-1.11-.43-1.09-.55.59-2.91-1.45-2.44-3.1-2.46,0,0,.07.07.07.07-.02-1.02-.05-2.04-.07-3.06q3.08.06,3-3,3.07.07,3-3c.98.55,3.16-1.18,2.99,1.48-.09,1.44.54,1.54,1.72,1.6,1.48.07,1.34-.77,1.33-1.72-.02-1.83-.07-3.66.02-5.48.06-1.26-.09-2.05-1.67-1.91-.41.04-1.26-.68-1.29-1.08-.13-2.24-.1-4.48-.02-6.72.01-.39.6-1.11.81-1.07,2.43.44,2.22-1.11,2.16-2.66-.06-1.58-.08-3.16,0-4.73.07-1.23-.2-1.74-1.6-1.72-1.3.02-1.42.54-1.45,1.62-.11,4.45-.15,4.45-4.52,4.43-.5,0-1-.02-1.49-.03l.07.07c-.14-1.44.7-3.57-2.22-3.1-.19.03-.8-.9-.76-1.35.12-1.38-.46-1.72-1.7-1.6-.9.09-1.83.1-2.73,0-1.32-.15-1.7.34-1.69,1.64,0,.46-.86,1.34-1.28,1.31-1.58-.11-1.7.66-1.67,1.91.08,3.4.04,6.8.05,10.2-1.42-.18-3.58.7-3.09-2.22.03-.21-.69-.72-1.11-.78-.93-.14-1.91.28-1.91-1.42,0-1.62.72-1.64,1.93-1.68.39-.01,1.03-.81,1.07-1.28.04-.53-.56-1.6-.74-1.57-2.92.46-2.04-1.69-2.23-3.11,1-.5,3.06,1.38,3.05-1.4-.03-5.06.03-10.13-.07-15.19,0-.47-.83-1.27-1.32-1.31-1.9-.15-3.81-.09-5.72-.06-1.56.02-3.51-.42-4.54.35-.75.56-.2,2.77-.41,4.21-.07.51-.73,1.4-1.01,1.36-2.07-.29-2.05.93-1.96,2.37.08,1.24.04,2.49.05,3.73-1.02,0-2.05,0-3.07,0,.01-1.56.07-3.12,0-4.68-.02-.45-.46-1.31-.58-1.28-2.93.59-2.37-1.5-2.43-3.11,1.49.01,2.99-.03,4.48.05,1.11.06,1.66-.16,1.59-1.46-.07-1.46-.42-3.49.35-4.24.79-.76,2.81-.16,4.26-.39.51-.08,1.14-.8,1.31-1.35.29-.97.06-1.73-1.34-1.62-1.73.13-3.48.08-5.22.01-1.53-.06-2.88-.11-2.46,2.11.04.21-.82.85-1.26.84-.56-.01-1.62-.55-1.59-.74.42-2.91-1.6-2.15-3.11-2.16-.51-.98,1.39-2.95-1.34-3.06-2.88-.11-1.19,1.98-1.59,3.06-1,.49-3.17-1.37-3,1.4.09,1.43-.53,1.55-1.71,1.6-1.48.07-1.35-.77-1.33-1.71.02-.91-.04-1.83.02-2.74.07-1.05-.06-1.65-1.41-1.65-1.33,0-1.77.4-1.62,1.69.09.82-.04,1.66.03,2.49.1,1.22,0,1.96-1.62,1.94-1.65-.01-1.4-.94-1.39-1.91,0-1.08.11-2.18-.06-3.23-.06-.37-.83-.87-1.26-.86-.56.01-1.62.55-1.6.74.43,2.92-1.61,2.14-3.12,2.16l.07.07q-.06-3.04-3.19-3.04c-.41,0-.84.05-1.24,0-1.34-.21-1.67.38-1.63,1.65.09,2.81-.05,5.63.06,8.44.06,1.44-.21,2.14-1.85,1.95-1.39-.15-2.81-.01-4.22,0l.08-2.99c1.41-.18,3.27.68,3.03-2.24-.31-3.79-.06-3.81-3.9-3.8-.74,0-1.47.02-2.21.03.01-.58-.04-1.16.04-1.72.22-1.45-.76-1.52-1.64-1.26-.54.16-1.26.81-1.32,1.31-.32,2.83,1.89,1.23,2.99,1.6.21,1.01.42,2.02.64,3.02,3.1-.75,2.1,1.71,2.44,3.12q-3.15-.22-3.08,2.93-3.04-.07-3.03,2.86c0,1.07.16,2.17-.03,3.21-.49,2.66.75,3.3,3.07,2.86-.01,1.49-.08,2.99-.02,4.48.05,1.1-.15,1.66-1.45,1.6-1.07-.05-1.81-.14-1.57-1.46.32-1.68-.73-1.61-1.9-1.6-5.39.04-10.78.02-16.17.02q-2.96,0-2.89,3.03c-.98.51-2.96-1.39-3.06,1.34-.11,2.88,1.98,1.19,3.06,1.59,0,1.02,0,2.05,0,3.07-2.32-.44-3.58.21-3.06,2.86.14.71-.03,1.49.05,2.22.04.31.43.86.56.83,2.91-.6,2.41,1.45,2.45,3.09q-3.04-.06-3.04,2.88c0,.66-.11,1.35.04,1.98.1.41.53,1.03.86,1.06,1.4.12,2.82.14,4.21-.01.34-.04.85-.84.83-1.28-.02-.56-.57-1.61-.75-1.58-2.92.45-2.06-1.68-2.22-3.11,2.02,0,4.04,0,6.07,0-.39,2.25.13,3.58,2.82,3.07,1.03-.2,2.12-.05,3.19-.06-.01.99-.04,1.97-.04,2.96,0,3.07.02,3.3,3.1,3,2.67-.26,3.26.82,2.94,3.09-.58,0-1.16.05-1.73-.04-1.45-.22-1.52.75-1.26,1.64.16.54.81,1.26,1.31,1.32,2.86.34,1.21-1.9,1.61-2.99.98.02,1.98.17,2.93.02,2.51-.41,3.57.52,3.14,3.05q-3.07-.06-3.01,3.01c-1.65-.01-3.3-.1-4.93.01-.39.03-1,.68-1.03,1.08-.04.6.44,1.79.52,1.77,2.91-.56,2.42,1.48,2.46,3.12-1.96-.09-4.7.55-5.67-.48-1.01-1.07-.32-3.75-.37-5.73,0-.25-.03-.5,0-.75.2-1.47-.13-2.38-1.93-2.14-.3.04-.97-.68-1.03-1.1-.15-1.06-.03-2.15-.06-3.23-.03-1.34-1.72-2.4-2.56-1.51-.49.52-.34,1.67-.42,2.54-.15,1.58.88,3.95-2.38,3.45-.13-.02-.34,1.04-.65,1.51-.36.53-.87,1.33-1.32,1.34-1.23.03-1.79.28-1.73,1.66.02.45-.84,1.36-1.25,1.34-1.53-.09-1.71.59-1.71,1.89,0,4.19-.06,4.19,4.07,4.19.66,0,1.33-.02,1.99-.03-.03,1-.05,2-.08,3-2.44-.45-3.43.56-3,2.99-.9.62-2.91-1.17-2.94,1.3-.05,3.15-.07,6.3.05,9.45.02.45.83,1.08,1.39,1.25,1.06.32,1.62-.07,1.58-1.38-.13-3.56-.11-7.12-.15-10.68,3.56.21,3.23.6,3-2.99q3.15.21,3.08-2.93c1.65.03,3.69-.46,3.12,2.46-.02.09,1.05.31,1.54.6.5.29,1.34.78,1.3,1.08-.23,1.82.7,2.02,2.15,1.92,1.31-.1,2.64-.04,3.96-.05,0,1.02,0,2.05,0,3.07-1.49-.01-2.99.03-4.48-.05-1.11-.06-1.77.17-1.56,1.46.18,1.09-.12,1.66-1.42,1.6-1.07-.05-1.81-.14-1.57-1.46.25-1.37-.42-1.6-1.65-1.62-4.35-.05-4.35-.1-4.35,4.16,0,.42,0,.83,0,1.25,0,3.63,0,3.59,3.61,3.64,1.53.02,2.87.1,2.46-2.12-.04-.21.83-.85,1.26-.83.56.02,1.62.57,1.59.75-.44,2.66,1.4,2.19,2.88,2.19,2.08,0,4.15-.02,6.23-.03-.01,6.04-.02,12.08-.03,18.12q0,2.95,3.03,2.88-.06,3.04,2.88,3.04c1.57,0,3.16.11,4.71-.06.5-.06,1.16-.77,1.32-1.31.28-.93.12-1.72-1.29-1.65-2.56.12-5.13.05-7.69.06.01-.98.03-1.96.04-2.94q0-3.06,3.04-3.12-.07,3.03,2.89,3.03t3.08-3.14c0-.58-.14-1.21.04-1.72.17-.45.65-1,1.09-1.09,2.42-.53,1.84,1.28,1.86,2.56.03,1.99-.76,4.74.24,5.76,1.05,1.07,3.79.48,5.8.61-.44,2.33.22,3.6,2.87,3.05.4-.08.83-.05,1.24,0,1.21.13,1.94,0,1.93-1.61-.01-1.62-.91-1.41-1.89-1.4-1.4.02-2.81.02-4.21.03.01-.98.16-1.98,0-2.94-.41-2.51.52-3.57,3.06-3.13-.01.58.04,1.16-.05,1.72-.22,1.45.76,1.52,1.64,1.26.54-.16,1.26-.81,1.32-1.31.34-2.85-1.89-1.22-2.98-1.6.01-.91.03-1.82.04-2.73,0-3.3.02-3.1,3.17-3.36,2.49-.2,3.25.64,2.85,2.97-.11.64-.19,1.4.04,1.96.19.48.89,1.09,1.32,1.05.57-.05,1.53-.63,1.55-1.04.15-2.23.11-4.47.04-6.71-.01-.4-.57-1.15-.77-1.11-2.91.49-2.05-1.67-2.23-3.09,2.29.42,3.46-.16,3.09-2.85-.28-2.02-.08-4.1-.09-6.16.92.59,2.99-1.03,2.92.98-.08,2.3,1.08,2.1,2.54,2.07,1.66-.04,3.32-.05,4.98,0,1.04.04,1.73-.04,1.63-1.41-.07-1.02-.04-1.85-1.41-1.61-1.29.23-1.72-.3-1.69-1.61,0-.45-.86-1.34-1.27-1.31-1.57.11-1.72-.64-1.72-1.91,0-.39-.79-1.05-1.26-1.09-.53-.05-1.62.55-1.59.73.46,2.91-1.68,2.07-3.11,2.24,0-2.01-.02-4.01-.02-6.02,2.03-.01,4.06-.02,6.09-.03.99,0,1.98,0,2.96-.01.08,1.47-.72,3.55,2.19,3.1.2-.03.55.87.81,1.34.3.53.67,1.55.87,1.52,2.74-.44,2.11,1.48,2.12,2.92.02,3.18,0,3.18,3.04,3.12-.01.97.1,1.97-.06,2.91-.41,2.44.39,3.62,2.98,3.17.01,1.33.08,2.66.02,3.98-.03.85.54,2.03-1.25,2.02-1.41,0-1.85-.4-1.81-1.8.01-.4-.91-1.16-1.41-1.16-.5,0-1.47.77-1.44,1.12.18,1.72-.67,1.85-2.04,1.81-2.9-.09-5.81-.08-8.71.03-.46.02-1.19.67-1.26,1.12-.09.56.47,1.76.56,1.74,3.08-.64,2.2,1.73,2.49,3.2-1.25.18-3.44-1.29-3.11,1.72.26,2.31,2.04.69,3.03,1.14,0,1.02,0,2.04,0,3.06-.58-.01-1.16.04-1.72-.04-1.44-.22-1.52.75-1.26,1.64.16.54.81,1.26,1.31,1.32,2.85.34,1.22-1.89,1.61-2.98Zm-59.93-53.92c-.57-.01-1.16.04-1.72-.05-1.45-.22-1.52.75-1.26,1.64.16.54.81,1.26,1.31,1.32,2.85.34,1.23-1.88,1.6-2.98.58.01,1.16-.04,1.72.04,1.45.22,1.52-.75,1.26-1.64-.16-.54-.81-1.26-1.31-1.32-2.85-.34-1.22,1.89-1.6,2.98Zm7.55-54.03c-2.92,0-5.83.05-8.75-.03-1.29-.04-1.91.13-1.88,1.69.1,5.91.09,11.83,0,17.74-.02,1.38.46,1.63,1.7,1.62,5.91-.06,11.83-.07,17.74,0,1.38.02,1.63-.46,1.62-1.7-.06-5.91-.07-11.83.01-17.74.02-1.38-.46-1.65-1.7-1.62-2.91.08-5.83.03-8.75.03Zm79.41,10.26c0,3.08.06,6.17-.03,9.25-.03,1.22.35,1.53,1.54,1.52,6-.06,11.99-.06,17.99,0,1.22.01,1.53-.35,1.52-1.54-.06-6-.06-11.99,0-17.99.01-1.22-.35-1.53-1.54-1.52-6,.06-11.99.06-17.99,0-1.22-.01-1.55.35-1.52,1.54.08,2.91.03,5.83.03,8.75Zm-68.99,90.41c0-3-.05-6,.02-9,.03-1.21-.18-1.74-1.6-1.72-5.91.09-11.83.06-17.74.01-1.21-.01-1.74.18-1.72,1.6.09,5.91.06,11.83.01,17.74-.01,1.21.18,1.74,1.6,1.72,5.91-.09,11.83-.09,17.74,0,1.53.02,1.75-.55,1.71-1.86-.09-2.83-.03-5.66-.03-8.5Zm83.78,10.32c1.58,0,3.18.11,4.74-.06.53-.06,1.37-.78,1.4-1.24.15-2.16,0-4.33.09-6.49.06-1.32-.74-1.41-1.55-1.16-.56.17-1.32.75-1.41,1.25-.28,1.51.29,3.72-.53,4.44-.91.79-3,.24-4.57.26-.75.01-1.5.05-2.25,0-1.16-.09-1.75.08-1.78,1.55-.03,1.63.84,1.48,1.86,1.46,1.33-.02,2.67,0,4,0Zm-39.07-21.24c.09.03.19.06.28.08,0,.49.01.99,0,1.48-.03.92-.18,1.81,1.3,1.71,1.1-.07,2.01-.06,1.7-1.55-.31-1.52.64-1.51,1.72-1.53.43,0,1.15-.38,1.2-.68.13-.67-.02-2.01-.17-2.03-1.7-.2-3.45-.38-5.11-.12-.44.07-.63,1.7-.93,2.62Zm42.31-35.76c-.33,0-.66-.02-.99,0-.95.07-2.07-.46-2.12,1.4-.05,1.95,1.08,1.59,2.17,1.6.99,0,2.01.15,2.94-.07.41-.1.89-.95.89-1.45,0-.49-.49-1.21-.95-1.41-.55-.25-1.29-.06-1.94-.06Zm-26.22-47.74l1.14.06c.35-.56.87-1.08,1.01-1.69.21-.9.18-1.77-1.26-1.67-1.07.08-2.05.03-1.68,1.51.15.62.52,1.19.79,1.78Zm-24.56,103.95c.03-.38.05-.75.08-1.13-.55-.36-1.07-.9-1.67-1.04-.87-.2-1.8-.23-1.69,1.23.08,1.03-.04,2.08,1.48,1.71.62-.15,1.2-.5,1.8-.77Z"/>
      <path class="cls-25" d="m136.96,97.57c-1.5,0-3.53.78-3.09-2.13.03-.22-.69-.76-1.09-.79-1.23-.11-2.48-.11-3.71,0-.4.03-1.12.57-1.09.79.44,2.92-1.59,2.12-3.09,2.13l.07.07q-.07-3.03-3.21-3.03c-.33,0-.67-.05-.99,0-2.24.44-1.44-1.35-1.97-2.34-.42-.79-1.88-1.03-2.86-1.56-.11-.06-.05-.48-.01-.72.23-1.35-.56-1.36-1.6-1.43-1.34-.08-1.45.55-1.43,1.62.05,2.48,0,4.97-.02,7.46l.07-.07c-1.5-.02-3.54.78-3.09-2.14.03-.21-.69-.75-1.1-.79-1.15-.11-2.31,0-3.47-.06-.45-.02-1.28-.21-1.29-.35-.1-1.73-.22-3.49.06-5.18.05-.32,1.87-.33,2.87-.49,0,.58.04,1.16-.04,1.72-.22,1.45.76,1.52,1.64,1.26.54-.16,1.26-.81,1.32-1.31.34-2.86-1.89-1.21-2.98-1.6,0-1.02,0-2.04,0-3.06,2.56,0,5.13-.06,7.68.06,1.4.07,1.59-.7,1.3-1.64-.16-.55-.83-1.31-1.3-1.33-2.56-.12-5.12-.04-7.68-.03,0-1.02,0-2.05,0-3.07.57.01,1.16-.04,1.72.05,1.45.22,1.51-.76,1.26-1.64-.16-.54-.81-1.26-1.31-1.31-2.85-.34-1.23,1.88-1.6,2.98-1.03,0-2.06,0-3.08,0,0-2.01,0-4.03,0-6.04.58,0,1.16-.05,1.73.03,1.45.22,1.53-.75,1.27-1.64-.16-.54-.81-1.26-1.31-1.32-2.87-.34-1.19,1.91-1.61,2.99-2.72-.41-5.45-.79-8.16-1.26-.33-.06-.57-.59-.85-.9.44-.3.85-.79,1.33-.85,1.52-.21,3.72.31,4.42-.51.79-.91.23-2.99.24-4.56,0-.33-.03-.66-.04-.99,1.45.13,3.57-.72,3.11,2.2-.03.21.7.74,1.1.78,1.15.11,2.34.18,3.47-.02.52-.09,1.15-.79,1.31-1.33.29-.96.08-1.84-1.31-1.61-2.17.36-1.91-1.36-1.5-2.28.24-.53,1.75-.66,2.69-.68,3.2-.08,3.21-.03,3.14-3.06,1.02.02,2.05.05,3.07.07l-.07-.07c.18,1.42-.7,3.57,2.23,3.11.18-.03.78,1.05.74,1.57-.04.47-.67,1.27-1.07,1.28-1.21.04-1.92.06-1.93,1.68,0,1.7.98,1.29,1.91,1.42.42.06,1.14.57,1.11.78-.49,2.92,1.67,2.04,3.09,2.22l-.07-.07c.01,2.05.25,4.14-.02,6.15-.36,2.68.8,3.26,3.09,2.85-.03,1-.05,1.99-.08,2.99-1.57.02-3.14-.02-4.7.08-.43.03-1.14.4-1.19.7-.12.67.04,2.01.19,2.02,1.78.17,3.59.25,5.36.05.19-.02.18-1.9.26-2.92,1.05.03,2.1.05,3.15.08q-.07,3,3,3.07s-.07-.07-.07-.07c.02,1.02.05,2.04.07,3.06-1.65,0-3.3-.07-4.95.01-.37.02-.99.53-1.03.86-.06.67.14,1.95.33,1.96,1.72.16,3.48.24,5.16-.03.28-.04.28-1.88.41-2.88,1.65.02,3.69-.45,3.1,2.46-.02.11.7.52,1.09.55,1.07.08,2.15.06,3.22.02.99-.04,1.72-.05,1.67,1.36-.04,1.22-.24,1.77-1.62,1.68-2.7-.17-.88,2.04-1.47,3l.07-.07Zm-21.06-23.92c.44-2.33-.23-3.6-2.87-3.05-.4.08-.83.05-1.24,0-1.21-.12-1.94,0-1.92,1.61.02,1.63.91,1.41,1.89,1.39,1.4-.02,2.81-.02,4.21-.03-.18,1.42.7,3.57-2.22,3.11-.18-.03-.73,1.02-.75,1.58-.01.44.49,1.24.83,1.28,1.39.15,2.81.08,4.21.05.29,0,.81-.21.82-.34.06-1.73.19-3.49-.08-5.18-.04-.28-1.87-.29-2.88-.42Z"/>
      <path class="cls-14" d="m52.98,97.64c-.04-1.64.45-3.68-2.46-3.12-.08.01-.56-1.17-.52-1.77.03-.4.64-1.06,1.03-1.08,1.64-.11,3.29-.02,4.93-.01l-.06-.07c.16,1.43-.7,3.57,2.22,3.09.21-.03.79.73.77,1.1-.06,1.26.11,1.9,1.68,1.9,1.94,0,1.3-1.26,1.35-2.17.07-1.24.02-2.48.02-3.72q0-3.13-3.03-3.2l.08.06c.43-2.54-.63-3.46-3.14-3.05-.95.16-1.95,0-2.93-.02l.07.07c.32-2.27-.27-3.35-2.94-3.09-3.08.3-3.11.07-3.1-3,0-.99.03-1.97.04-2.96l-.08.06c1.02-.02,2.05-.05,3.07-.07q-.06,3.03,3.06,3.03c.98,0,1.96-.02,2.94-.03-.01.57.04,1.16-.04,1.72-.22,1.45.76,1.52,1.64,1.26.54-.16,1.25-.81,1.31-1.31.34-2.85-1.89-1.22-2.98-1.6,0-2.02,0-4.05,0-6.07,2.05.01,4.14-.19,6.15.09,2.68.37,3.27-.8,2.85-3.09,1.01-.21,2.9-.57,2.9-.61-.49-3.03,1.7-2.53,3.23-2.3,2.66.39,3.3-.76,2.86-3.08,1.03,0,2.05,0,3.08,0-.13,1.72-.51,3.61,2.35,3.07.16-.03.6.42.57.57-.62,2.91,1.45,2.37,3.07,2.43l-.07-.07c-.29.62-.58,1.24-.87,1.86-1.67-.79-4.39,1.8-5.26-1.63-.03-.13-.6-.15-.92-.19q-4.9-.58-4.9,4.32c0,.25-.07.52.01.74.84,2.42-1.91,5.7,1.77,7.47.14.07.05.63.05.96,0,1,.12,2.01-.04,2.98-.09.54-.65,1.01-.99,1.51-.27-.47-.76-.94-.76-1.42,0-1.08-.12-1.63-1.46-1.63-1.37,0-1.64.46-1.67,1.7,0,.46-.81,1.22-1.32,1.29-.99.13-1.69.04-1.66,1.45.03,1.29.36,1.86,1.67,1.62,1.39-.25,1.63.62,1.33,1.59-.17.55-.84,1.33-1.3,1.33-1.24.02-1.66.3-1.71,1.66-.07,1.69.92,1.42,1.89,1.42,1.41,0,2.82,0,4.24-.01l-.06-.06c-.17,1.9-.25,3.52,2.6,3.16,1.03-.13,3.04.68,3.14,1.3.4,2.48,2.08,1.35,3.29,1.56,0,1.03,0,2.06,0,3.08-2.05-.01-4.14.2-6.15-.08-2.69-.37-3.26.8-2.85,3.09-1.42-.18-3.57.69-3.11-2.23.03-.18-1.08-.46-1.57-.83-.51-.38-1.14-.84-1.3-1.39-.29-.97-.07-1.84,1.33-1.59,1.28.23,1.64-.3,1.68-1.6.05-1.65-.92-1.4-1.9-1.39-3.4.02-6.79.02-10.19.03q.06-3-3-3.07l.08.06Zm12.16-12.67c.05-.36.1-.71.15-1.07-.52-.43-.99-1.09-1.58-1.23-.91-.21-2-.32-1.81,1.34.11.95-.02,1.88,1.36,1.59.64-.14,1.25-.42,1.87-.63Z"/>
      <path class="cls-10" d="m61.9,43.65c1.41-.01,2.83-.16,4.22,0,1.64.18,1.91-.51,1.85-1.95-.11-2.81.03-5.63-.06-8.44-.04-1.27.28-1.86,1.63-1.65.4.06.83,0,1.24,0q3.14,0,3.19,3.04c-.57-.01-1.16.04-1.72-.05-1.45-.22-1.51.76-1.25,1.64.16.54.81,1.26,1.31,1.31,2.85.34,1.22-1.88,1.6-2.98,1.51-.02,3.54.76,3.12-2.16-.03-.19,1.03-.73,1.6-.74.43-.01,1.2.49,1.26.86.17,1.05.07,2.15.06,3.23,0,.97-.26,1.9,1.39,1.91,1.63.01,1.72-.73,1.62-1.94-.07-.82.06-1.67-.03-2.49-.15-1.29.29-1.68,1.62-1.69,1.35,0,1.48.6,1.41,1.65-.06.91,0,1.83-.02,2.74-.03.94-.15,1.78,1.33,1.71,1.18-.06,1.8-.17,1.71-1.6-.17-2.77,2-.92,3-1.4l-.07-.07c0,2.02,0,4.05,0,6.07,0,0,.07-.07.07-.07-2.32.01-4.64-.03-6.95.06-.79.03-2.04-.71-2.13,1.12-.08,1.57.41,2.02,1.93,1.94.34-.02.99.97,1.04,1.53.04.43-.56,1.13-1.04,1.33-.57.23-1.3.06-1.96.06q-2.95,0-2.88,3.03-3.07-.07-3,3c-.96-.59-3.16,1.25-3-1.46.08-1.37-.45-1.59-1.68-1.62-1.41-.05-1.4.68-1.36,1.67.04,1.07.08,2.16-.03,3.22-.04.41-.57,1.13-.78,1.1-2.92-.45-2.12,1.59-2.14,3.09-1.02,0-2.05,0-3.07,0,.01-.57-.04-1.16.05-1.72.22-1.45-.76-1.51-1.64-1.26-.54.16-1.25.81-1.31,1.31-.36,2.88,1.88,1.21,2.97,1.6,0,1.02,0,2.05,0,3.07-2.25-.4-3.57.13-3.06,2.82.19,1.03.05,2.12.07,3.18-1.43-.17-3.58.68-3.1-2.23.03-.19-.87-.74-1.36-.76-1.99-.09-3.98-.08-5.97-.02-1.04.03-1.73-.04-1.63-1.41.07-1.01.03-1.85,1.41-1.61,1.29.23,1.64-.3,1.68-1.61.05-1.66-.93-1.39-1.9-1.39-5.39,0-10.79-.02-16.18-.03l.07.07q-.07-3.03,2.89-3.03c5.39,0,10.78.02,16.17-.02,1.17,0,2.22-.08,1.9,1.6-.25,1.31.49,1.4,1.57,1.46,1.3.06,1.5-.5,1.45-1.6-.07-1.49,0-2.98.02-4.48l-.07.07c2.48.43,3.5-.59,3.07-3.07l-.07.07c1.49.02,3.54-.79,3.11,2.14-.03.19,1.04.79,1.56.75.48-.03,1.25-.63,1.31-1.06.64-4.82.57-4.86-4.25-4.87-.58,0-1.16-.02-1.73-.03l.07.07c0-1.02,0-2.05,0-3.07l-.07.07Zm15.21.21q-.17-3.24-3.41-3.24c-.33,0-.66,0-.99,0-1-.02-1.89-.18-1.84,1.44.04,1.37.51,1.59,1.71,1.63.47.02,1.18.78,1.3,1.31.3,1.29,1.75,2.36,2.56,1.52.55-.57.46-1.76.66-2.67Z"/>
      <path class="cls-10" d="m109.82,121.72c1.5-.06,3.53-.99,3.18,2.01-.03.23,1.01.83,1.53.8.48-.03,1.32-.65,1.33-1.03.11-2.99.05-5.99.07-8.98,0-.9-.42-1.98,1.32-1.97,1.53,0,1.73.58,1.75,1.88,0,.4.95,1.12,1.48,1.13,4.49.1,8.98.08,13.47.09l-.07-.07c-.02,1.5.76,3.54-2.15,3.11-.19-.03-.78,1.05-.74,1.58.04.47.68,1.27,1.07,1.27,1.23.02,1.91.1,1.92,1.69.02,1.72-1.01,1.21-1.9,1.44-.47.12-1.09.82-1.11,1.28-.12,2.56-.08,5.13-.09,7.7,0,0,.07-.07.07-.07-1.02,0-2.04,0-3.07,0l.07.07c-.63-.93,1.34-2.97-1.41-3.06-2.83-.09-1.16,2.03-1.66,3.06l.07-.07c-1.52,0-3.54.74-3.11-2.17.03-.18-1.04-.72-1.61-.73-.43,0-1.2.52-1.25.88-.16,1.23-.2,2.51,0,3.72.08.51.83.98,1.37,1.31.44.27,1.49.35,1.48.43-.41,4.21,2.79,2.31,4.49,2.52,1.3.15,1.91.48,1.54,1.7-.16.54-.85,1.28-1.34,1.31-1.98.15-3.99-.02-5.98.09-1.3.07-1.87-.32-1.63-1.64.26-1.39-.61-1.63-1.59-1.34-.55.17-1.36.88-1.33,1.29.11,1.58-.65,1.78-1.92,1.67-.91-.08-1.87.14-2.73-.07-.55-.14-1.21-.75-1.37-1.29-.27-.89-.2-1.91,1.26-1.65,1.52.27,1.86-.51,1.69-1.81-.04-.33,0-.66,0-1q0-3.15-3.03-3.23l.07.07q-.07-3.03-3.17-3.03c-2.47,0-4.94-.04-7.41.04-.49.02-1.41.57-1.38.73.56,2.91-1.58,2.12-3.03,2.28l.07.06c-.29-1.46.59-3.83-2.49-3.2-.09.02-.65-1.18-.56-1.74.08-.45.8-1.1,1.26-1.12,2.9-.1,5.81-.11,8.71-.03,1.37.04,2.22-.09,2.04-1.81-.04-.35.93-1.13,1.44-1.12.5,0,1.42.76,1.41,1.16-.04,1.4.4,1.8,1.81,1.8,1.78,0,1.21-1.17,1.25-2.02.05-1.32-.01-2.65-.02-3.98l-.06.07Zm18.11,1.19q0-4.31-4.19-4.31-4.81,0-4.81,4.69,0,4.31,4.19,4.31,4.81,0,4.81-4.69Z"/>
      <path class="cls-25" d="m133.89,61.58c.5.01,1,.03,1.49.03,4.37.01,4.4.01,4.52-4.43.03-1.08.15-1.6,1.45-1.62,1.4-.02,1.67.5,1.6,1.72-.09,1.57-.07,3.16,0,4.73.06,1.55.27,3.1-2.16,2.66-.21-.04-.8.69-.81,1.07-.08,2.24-.1,4.49.02,6.72.02.4.87,1.12,1.29,1.08,1.58-.14,1.73.65,1.67,1.91-.08,1.82-.04,3.65-.02,5.48.01.94.16,1.79-1.33,1.72-1.18-.06-1.81-.16-1.72-1.6.17-2.66-2.02-.93-2.99-1.48l.07.07c-.01-1.57.09-3.15-.1-4.69-.06-.49-.85-1.22-1.33-1.25-.51-.03-1.56.71-1.52,1.02.21,1.82-.72,2.01-2.16,1.91-1.31-.09-2.64,0-3.96.01,0-1.02,0-2.05,0-3.07,1.49-.03,3.3.81,3.1-2.13-.25-3.85-.06-3.65-3.91-3.91-2.94-.19-2.09,1.62-2.13,3.1-1.02-.02-2.04-.05-3.07-.07l.07.07c-.01-3.4.02-6.8-.05-10.2-.03-1.25.09-2.02,1.67-1.91.42.03,1.28-.85,1.28-1.31-.01-1.3.37-1.79,1.69-1.64.9.1,1.83.09,2.73,0,1.24-.12,1.82.22,1.7,1.6-.04.44.57,1.38.76,1.35,2.92-.47,2.08,1.66,2.22,3.1-1.2.27-3.35-1.11-3.04,1.79.25,2.31,2.05.63,2.96,1.21.02,1.57-.02,3.14.08,4.7.03.43.4,1.14.71,1.19.67.12,2.01-.04,2.02-.19.17-1.78.25-3.59.05-5.37-.02-.19-1.9-.18-2.92-.26.02-1.05.05-2.1.07-3.14Zm-5.68,2.13c0-.38,0-.76.01-1.14-.57-.32-1.11-.78-1.73-.92-.99-.24-1.67-.02-1.62,1.33.04,1.18.23,1.96,1.58,1.61.62-.16,1.17-.58,1.75-.88Z"/>
      <path class="cls-10" d="m42.52,31.61c2.92,0,5.83.05,8.75-.03,1.24-.03,1.72.23,1.7,1.62-.08,5.91-.07,11.83-.01,17.74.01,1.24-.23,1.72-1.62,1.7-5.91-.08-11.83-.07-17.74,0-1.24.01-1.72-.23-1.7-1.62.08-5.91.09-11.83,0-17.74-.03-1.56.6-1.73,1.88-1.69,2.91.08,5.83.03,8.75.03Zm-7.71,10.27c.09,0,.17,0,.26,0v7.45c2.55.09,5.1.23,7.64.26,2.32.02,5.66.82,6.69-.35,1.22-1.39.5-4.53.52-6.91.02-2.48-.07-4.97-.12-7.45-2.55-.09-5.1-.23-7.64-.26-2.32-.02-5.63-.82-6.69.35-1.24,1.38-.52,4.52-.66,6.9Z"/>
      <path class="cls-10" d="m121.93,41.87c0-2.92.05-5.83-.03-8.75-.03-1.19.3-1.55,1.52-1.54,6,.06,11.99.06,17.99,0,1.19-.01,1.55.3,1.54,1.52-.06,6-.06,11.99,0,17.99.01,1.19-.3,1.55-1.52,1.54-6-.06-11.99-.06-17.99,0-1.19.01-1.57-.3-1.54-1.52.08-3.08.03-6.16.03-9.25Zm10.74,7.62c0,.08,0,.17,0,.25,2.38-.14,5.53.57,6.9-.67,1.18-1.07.37-4.38.34-6.7-.03-2.55-.17-5.09-.27-7.64-2.49-.04-4.97-.13-7.46-.11-2.38.03-5.52-.69-6.91.53-1.17,1.04-.37,4.37-.34,6.69.03,2.55.17,5.09.27,7.64h7.46Z"/>
      <path class="cls-10" d="m52.94,132.28c0,2.83-.06,5.67.03,8.5.04,1.31-.18,1.89-1.71,1.86-5.91-.09-11.83-.09-17.74,0-1.42.02-1.61-.51-1.6-1.72.05-5.91.07-11.83-.01-17.74-.02-1.42.51-1.61,1.72-1.6,5.91.05,11.83.07,17.74-.01,1.42-.02,1.63.51,1.6,1.72-.07,3-.02,6-.02,9Zm-10.24-7.81c0,.08,0,.16,0,.25h-7.46c-.1,2.55-.24,5.09-.27,7.64-.03,2.32-.84,5.65.33,6.7,1.38,1.22,4.52.51,6.9.54,2.49.03,4.97-.06,7.46-.1.1-2.55.24-5.09.28-7.64.03-2.32.84-5.62-.34-6.7-1.36-1.25-4.52-.54-6.89-.68Z"/>
      <path class="cls-10" d="m79.97,133.57c-2.54-.44-3.47.62-3.06,3.13.16.95,0,1.96,0,2.94l.07-.07c-2-.13-4.74.46-5.8-.61-1-1.01-.21-3.77-.24-5.76-.02-1.28.55-3.08-1.86-2.56-.43.09-.92.64-1.09,1.09-.19.51-.04,1.14-.04,1.72q0,3.14-3.08,3.14t-2.89-3.03l-.07.07q3.03-.07,3.03-3.2c0-1.49.11-2.99-.06-4.46-.06-.5-.84-1.3-1.3-1.3-1.25-.01-1.64-.32-1.7-1.66-.07-1.68.91-1.41,1.88-1.41,1.41,0,2.81-.02,4.22-.03-.01.33-.05.66-.03.99.07,1.63-.34,3.56.42,4.76.45.7,2.77.12,4.21.35.51.08,1.3.85,1.3,1.31,0,1.27.34,1.63,1.66,1.69,1.68.08,1.41-.91,1.41-1.88,0-1.41-.02-2.81-.04-4.21.98.01,1.96.03,2.95.03q3.12,0,3.06-3.04c1.02.02,2.04.05,3.07.07l-.07-.07c.18,1.42-.68,3.58,2.23,3.09.2-.03.76.72.77,1.11.08,2.24.12,4.48-.04,6.71-.03.41-.99.99-1.55,1.04-.42.04-1.12-.57-1.32-1.05-.23-.57-.15-1.32-.04-1.96.4-2.33-.36-3.17-2.85-2.97-3.15.26-3.17.06-3.17,3.36,0,.91-.02,1.82-.04,2.73l.07-.07Z"/>
      <path class="cls-10" d="m52.97,106.57c-1.32.01-2.65-.04-3.96.05-1.44.11-2.38-.1-2.15-1.92.04-.31-.8-.8-1.3-1.08-.49-.28-1.56-.51-1.54-.6.57-2.91-1.47-2.43-3.12-2.46l.07.07c-.5-1.04,1.18-3.16-1.66-3.06-2.75.09-.77,2.13-1.41,3.06l.07-.07c-.66.01-1.33.03-1.99.03-4.13,0-4.08,0-4.07-4.19,0-1.3.18-1.98,1.71-1.89.41.03,1.27-.89,1.25-1.34-.06-1.38.5-1.63,1.73-1.66.46-.01.97-.81,1.32-1.34.31-.46.52-1.53.65-1.51,3.26.5,2.22-1.87,2.38-3.45.08-.87-.07-2.02.42-2.54.84-.89,2.53.17,2.56,1.51.02,1.08-.1,2.17.06,3.23.06.43.72,1.14,1.03,1.1,1.8-.24,2.12.66,1.93,2.14-.03.24,0,.5,0,.75.05,1.98-.64,4.66.37,5.73.97,1.03,3.71.39,5.67.48,0,0-.08-.06-.08-.06.02,1.02.05,2.04.07,3.07-.99.51-2.95-1.39-3.06,1.34-.11,2.87,1.97,1.2,3.06,1.59-.02,1.02-.05,2.05-.07,3.07,0,0,.07-.07.07-.07Z"/>
      <path class="cls-10" d="m124.96,109.57c-3.24.01-6.49.18-9.71-.02-2.08-.13-2.54.65-2.35,2.48.14,1.31-.02,2.66.04,3.98.07,1.56.25,3.05-2.17,2.73-.18-.02-.62,1.94-.95,2.97l.06-.07c-2.6.45-3.39-.73-2.98-3.17.16-.95.05-1.94.06-2.91l-.07.07q3.03-.06,3.03-3.21c0-1.41.1-2.83-.03-4.23-.12-1.38.44-1.65,1.68-1.62,2.82.08,5.64-.01,8.46.04,1.2.02,1.97.03,1.95-1.62-.02-1.63-.92-1.41-1.9-1.4-1,.01-2,.08-2.98-.04-.42-.05-1.16-.57-1.12-.77.49-2.92-1.66-2.06-3.09-2.23l.07.07c0-1.02,0-2.04,0-3.07l-.07.07c1.16-.01,2.31.02,3.46-.04,1.56-.09,3.05-.22,2.64,2.16-.04.2.85.81,1.3.79.55-.02,1.59-.57,1.56-.77-.42-2.93,1.62-2.11,3.11-2.14l-.07-.07c.03,1.64-.47,3.69,2.45,3.1.12-.02.53.69.55,1.08.07,1.23.07,2.48,0,3.71-.02.39-.44,1.1-.55,1.08-2.91-.59-2.43,1.45-2.46,3.1l.07-.07Z"/>
      <path class="cls-10" d="m103.97,52.65c-.01-1.24.03-2.49-.05-3.73-.09-1.44-.12-2.66,1.96-2.37.28.04.94-.84,1.01-1.36.21-1.45-.35-3.65.41-4.21,1.03-.77,2.98-.32,4.54-.35,1.91-.03,3.83-.1,5.72.06.49.04,1.31.85,1.32,1.31.1,5.06.04,10.13.07,15.19.01,2.79-2.05.9-3.05,1.4l.07.07c-.01-2.64.02-5.28-.09-7.92-.02-.38-.67-1.02-1.07-1.05-.6-.05-1.8.44-1.78.51.56,2.92-1.49,2.42-3.13,2.45-.5-.99,1.38-2.95-1.34-3.06-2.88-.11-1.19,1.97-1.59,3.06-1.02-.02-2.05-.05-3.07-.07,0,0,.07.07.07.07Zm10.97-9.34c-.38.01-.76.02-1.15.03-.29.59-.69,1.14-.84,1.76-.35,1.41.51,1.49,1.64,1.55,1.39.07,1.53-.68,1.3-1.64-.15-.61-.62-1.14-.95-1.71Z"/>
      <path class="cls-25" d="m55.97,118.57c-2.08.01-4.15.03-6.23.03-1.49,0-3.33.48-2.88-2.19.03-.18-1.03-.73-1.59-.75-.43-.01-1.3.62-1.26.83.41,2.22-.93,2.15-2.46,2.12-3.61-.05-3.61-.01-3.61-3.64,0-.42,0-.83,0-1.25,0-4.26,0-4.21,4.35-4.16,1.24.01,1.91.24,1.65,1.62-.24,1.32.5,1.4,1.57,1.46,1.31.06,1.6-.51,1.42-1.6-.21-1.29.44-1.52,1.56-1.46,1.49.09,2.99.04,4.48.05l-.07-.07c-.03,1.49.79,3.55-2.13,3.08-.23-.04-.71.51-.8.86-.56,2.13.75,2.15,2.33,2.12,3.67-.07,3.67-.01,3.61,3.01l.07-.07Z"/>
      <path class="cls-25" d="m133.96,115.65c-.05-1.63.48-3.69-2.44-3.11-.11.02-.56-.85-.55-1.3.02-.54.45-1.56.54-1.54,2.92.57,2.41-1.48,2.45-3.12l-.07.07c1.52,0,3.54-.73,3.09,2.17-.03.2.71.71,1.13.76.98.11,1.99.04,2.99.04.98,0,1.94-.25,1.88,1.42-.05,1.38-.5,1.62-1.72,1.65-.46.01-1.12.79-1.29,1.34-.3.99-.04,1.81,1.34,1.59,1.02-.16,1.68-.02,1.66,1.37-.02,1.31-.38,1.85-1.68,1.61-1.4-.26-1.62.64-1.33,1.6.17.55.85,1.32,1.3,1.33,1.25.02,1.65.32,1.71,1.66.07,1.7-.93,1.39-1.89,1.41q-4.17.08-4.17-4.07c0-.58,0-1.16,0-1.75q0-3.16-3.03-3.22l.07.07Z"/>
      <path class="cls-25" d="m97.9,43.58c.06,1.61-.5,3.69,2.43,3.11.11-.02.56.83.58,1.28.06,1.56,0,3.12,0,4.68l.07-.07c-1,0-2,0-2.99-.01-.44-1.07,1.06-3.16-1.76-3.01-1.46.08-1.33.83-1.27,1.73.16,2.64,2.05.86,3.1,1.21-.05,1.05-.09,2.1-.14,3.15l.07-.07c-2.02.02-4.04.05-6.07.07.01-1.06-.13-2.16.06-3.18.51-2.69-.82-3.21-3.07-2.82.56-.95-1.07-2.99,1.19-2.96,1.86.03,1.94-.78,1.87-2.17-.07-1.31,0-2.63.02-3.94l-.07.07c1.02,0,2.05,0,3.07,0l-.07-.07c-.43,2.48.59,3.5,3.07,3.07l-.07-.07Z"/>
      <path class="cls-25" d="m106.97,115.57c-3.03.06-3.02.06-3.04-3.12,0-1.44.62-3.36-2.12-2.92-.2.03-.57-.99-.87-1.52-.27-.47-.62-1.37-.81-1.34-2.91.45-2.11-1.62-2.19-3.1,0,0-.02.06-.02.06.68-.04,1.36-.07,2.03-.11q3.98.19,3.99-3.62c0-.25.03-.5,0-.74-.14-1.1.15-1.59,1.43-1.61,1.38-.02,1.61.48,1.6,1.71-.07,5.46-.05,10.92-.06,16.38l.07-.07Z"/>
      <path class="cls-25" d="m94.9,34.65c1.51.01,3.54-.75,3.11,2.16-.03.19,1.03.73,1.59.74.43.01,1.3-.62,1.26-.84-.42-2.23.93-2.18,2.46-2.11,1.74.07,3.49.11,5.22-.01,1.39-.1,1.63.65,1.34,1.62-.17.55-.8,1.27-1.31,1.35-1.45.23-3.47-.38-4.26.39-.77.74-.42,2.78-.35,4.24.06,1.3-.48,1.52-1.59,1.46-1.49-.09-2.98-.04-4.48-.05l.07.07c.43-2.48-.59-3.5-3.07-3.07l.07.07c0-2.02,0-4.05,0-6.07l-.07.07Z"/>
      <path class="cls-10" d="m58.97,139.57q-3.03.07-3.03-2.88c0-6.04.02-12.08.03-18.12,0,0-.07.07-.07.07,1.02-.02,2.05-.05,3.07-.07-.01,3.47-.06,6.93,0,10.4,0,.55.59,1.59.79,1.56,2.93-.42,2.11,1.62,2.14,3.11l.07-.07q-3.04.07-3.04,3.12c0,.98-.02,1.96-.04,2.94l.07-.07Z"/>
      <path class="cls-25" d="m88.9,109.64c1.43-.17,3.57.68,3.11-2.24-.03-.18,1.06-.77,1.59-.73.47.04,1.26.7,1.26,1.09,0,1.27.15,2.02,1.72,1.91.42-.03,1.28.86,1.27,1.31-.02,1.32.4,1.84,1.69,1.61,1.38-.24,1.34.59,1.41,1.61.1,1.36-.59,1.45-1.63,1.41-1.66-.06-3.32-.05-4.98,0-1.46.04-2.61.24-2.54-2.07.07-2.01-2-.39-2.92-.98l.07.07c0-1.02,0-2.05,0-3.07l-.07.07Z"/>
      <path class="cls-10" d="m136.72,142.6c-1.33,0-2.67-.01-4,0-1.02.01-1.89.16-1.86-1.46.03-1.47.62-1.64,1.78-1.55.75.06,1.5.02,2.25,0,1.57-.02,3.66.53,4.57-.26.82-.72.25-2.93.53-4.44.09-.5.85-1.08,1.41-1.25.81-.25,1.61-.16,1.55,1.16-.1,2.16.06,4.34-.09,6.49-.03.46-.88,1.18-1.4,1.24-1.57.17-3.16.06-4.74.06Z"/>
      <path class="cls-10" d="m109.9,133.57q.07,3.04-2.89,3.04c-3.07,0-3.09,0-3.07,3.64,0,1.33.26,2.84-1.87,2.32-.44-.11-1.07-.69-1.08-1.08-.1-2.23-.12-4.48,0-6.71.02-.41.81-1.1,1.27-1.12,2.57-.1,5.14-.03,7.71-.02l-.07-.07Z"/>
      <path class="cls-10" d="m130.89,133.64c2.32.36,3.53-.32,3.09-2.97-.16-.97.1-2.86.39-2.9,1.69-.27,3.46-.18,5.18-.02.19.02.39,1.31.32,1.98-.03.33-.72.87-1.05.83-1.52-.17-1.95.34-1.93,1.9.06,4.2-.04,4.03-4.02,4.21-2.95.13-1.69-1.82-1.9-3.09l-.07.07Z"/>
      <path class="cls-10" d="m34.97,73.64c-.04-1.64.46-3.69-2.45-3.09-.13.03-.52-.52-.56-.83-.09-.73.09-1.5-.05-2.22-.53-2.65.74-3.29,3.06-2.86l-.07-.07q.07,3.07,3.07,3-.07,3.07,3,3c-.02,1.02-.05,2.05-.07,3.07l.07-.07c-2.02,0-4.04,0-6.07,0l.07.07Z"/>
      <path class="cls-10" d="m136.89,97.64c1.96.07,5.04-.57,5.62.37.98,1.55.35,4.11.42,6.25.04,1.33.27,2.83-1.87,2.32-.44-.11-1.04-.67-1.08-1.08-.14-1.23.01-2.49-.09-3.72-.03-.41-.57-1.14-.78-1.11-2.93.45-2.12-1.6-2.15-3.1l-.07.07Z"/>
      <path class="cls-10" d="m34.82,106.5c.04,3.56.02,7.12.15,10.68.05,1.31-.52,1.71-1.58,1.38-.56-.17-1.37-.8-1.39-1.25-.12-3.15-.1-6.3-.05-9.45.04-2.47,2.04-.67,2.94-1.3l-.07-.06Z"/>
      <path class="cls-25" d="m58.97,52.58c-2.32.43-3.56-.2-3.07-2.86.19-1.04.03-2.14.03-3.21q0-2.93,3.03-2.86l-.07-.07c-.43,2.48.59,3.5,3.07,3.07l-.07-.07c0,1.02,0,2.05,0,3.07l.07-.07c-2.48-.43-3.5.59-3.07,3.07l.07-.07Z"/>
      <path class="cls-25" d="m100.9,52.65c1.02,0,2.05,0,3.07,0l-.07-.07q.07,3.07,3.07,3-.07,3.03-3.15,3.04c-1.97,0-3.94.02-5.91.03.02-1.02.05-2.05.07-3.07l-.07.07c2.48.43,3.5-.59,3.07-3.07l-.07.07Z"/>
      <path class="cls-25" d="m97.65,121.37c.3-.91.49-2.55.93-2.62,1.66-.27,3.41-.08,5.11.12.15.02.29,1.35.17,2.03-.06.3-.78.67-1.2.68-1.08.02-2.04,0-1.72,1.53.3,1.49-.6,1.47-1.7,1.55-1.48.1-1.33-.79-1.3-1.71.01-.49,0-.99,0-1.48-.09-.03-.19-.06-.28-.08Z"/>
      <path class="cls-25" d="m62.05,40.72c-.34-1.41.66-3.87-2.44-3.12-.21-1.01-.42-2.02-.64-3.02l-.07.07c.74-.01,1.47-.03,2.21-.03,3.84,0,3.59.02,3.9,3.8.24,2.92-1.63,2.05-3.03,2.24l.07.06Z"/>
      <path class="cls-10" d="m58.9,139.64c2.56-.01,5.13.06,7.69-.06,1.41-.07,1.57.73,1.29,1.65-.17.54-.82,1.26-1.32,1.31-1.55.17-3.14.06-4.71.06q-2.94,0-2.88-3.04l-.07.07Z"/>
      <path class="cls-25" d="m34.9,73.57c.16,1.43-.71,3.57,2.22,3.11.19-.03.74,1.02.75,1.58.02.44-.49,1.25-.83,1.28-1.39.15-2.81.13-4.21.01-.33-.03-.76-.64-.86-1.06-.15-.63-.04-1.32-.04-1.98q0-2.94,3.04-2.88l-.07-.07Z"/>
      <path class="cls-10" d="m88.9,112.57c.01,2.05-.19,4.14.09,6.16.37,2.69-.8,3.26-3.09,2.85l.07.07c-.02-3.02-.05-6.05-.07-9.07,1.02.02,2.05.05,3.07.07,0,0-.07-.07-.07-.07Z"/>
      <path class="cls-10" d="m139.96,85.61c.66,0,1.4-.19,1.94.06.46.21.94.92.95,1.41,0,.5-.48,1.36-.89,1.45-.93.22-1.95.08-2.94.07-1.1,0-2.23.35-2.17-1.6.05-1.86,1.17-1.33,2.12-1.4.33-.02.66,0,.99,0Z"/>
      <path class="cls-25" d="m88.87,103.63c0,2.01.02,4.01.02,6.02l.07-.07c-1.02.02-2.05.04-3.07.07.03-2,.07-4.01.1-6.01.96,0,1.92,0,2.88,0Z"/>
      <path class="cls-10" d="m46.98,76.58c-1.06,0-2.16-.14-3.19.06-2.7.51-3.22-.82-2.82-3.07l-.07.07c1.06-.01,2.15.13,3.18-.06,2.69-.51,3.21.82,2.82,3.06l.08-.06Z"/>
      <path class="cls-10" d="m76.9,139.64c1.4-.01,2.81-.01,4.21-.03.98-.01,1.88-.23,1.89,1.4.01,1.61-.72,1.74-1.93,1.61-.41-.04-.84-.08-1.24,0-2.65.55-3.3-.72-2.87-3.05,0,0-.07.07-.07.07Z"/>
      <path class="cls-16" d="m88.87,103.63c-.96,0-1.92,0-2.88,0-1.03-.01-2.06-.02-3.1-.03.05-.32.1-.65.15-.97,3.92,0,7.85,0,11.77,0,.05.32.1.65.15.97-2.03.01-4.06.02-6.09.03Z"/>
      <path class="cls-25" d="m58.97,34.58c-1.1-.38-3.31,1.23-2.99-1.6.06-.5.78-1.15,1.32-1.31.88-.26,1.86-.19,1.64,1.26-.08.56-.03,1.15-.04,1.72l.07-.07Z"/>
      <path class="cls-25" d="m34.97,61.58c-1.08-.39-3.17,1.29-3.06-1.59.11-2.74,2.08-.83,3.06-1.34l-.07-.07c0,1.02,0,2.05,0,3.07l.07-.07Z"/>
      <path class="cls-25" d="m34.97,64.65c0-1.02,0-2.05,0-3.07,0,0-.07.07-.07.07q3.01-.07,3.07,3c-1.02-.02-2.05-.05-3.07-.07,0,0,.07.07.07.07Z"/>
      <path class="cls-25" d="m52.91,85.57c-.4,1.09,1.25,3.33-1.61,2.99-.5-.06-1.15-.78-1.31-1.32-.26-.89-.19-1.86,1.26-1.64.56.08,1.15.03,1.73.04l-.07-.07Z"/>
      <path class="cls-25" d="m34.9,85.58c-.37,1.1,1.24,3.31-1.6,2.98-.5-.06-1.15-.78-1.31-1.32-.26-.89-.19-1.86,1.26-1.64.56.08,1.15.04,1.72.05l-.07-.07Z"/>
      <path class="cls-25" d="m37.82,103.5c.23,3.59.56,3.2-3,2.99l.07.06c-.44-2.44.56-3.44,3-2.99l-.07-.06Z"/>
      <path class="cls-25" d="m133.89,82.58q.08,3.07-3,3l.07.07c-.02-1.02-.05-2.04-.07-3.07,1.02.02,2.05.04,3.07.07l-.07-.07Z"/>
      <path class="cls-25" d="m133.97,106.57c-1.09-.39-3.32,1.26-2.98-1.6.06-.5.78-1.15,1.31-1.31.89-.26,1.86-.19,1.65,1.26-.08.56-.04,1.15-.05,1.72l.07-.07Z"/>
      <path class="cls-25" d="m52.97,109.64c0-1.02,0-2.05,0-3.07l-.07.07q3-.07,3.07,3c-1.02-.02-2.05-.05-3.07-.07l.07.07Z"/>
      <path class="cls-25" d="m34.97,85.65c.39-1.09-1.25-3.32,1.6-2.98.5.06,1.15.78,1.31,1.32.26.89.19,1.86-1.26,1.64-.56-.08-1.15-.03-1.72-.04l.07.07Z"/>
      <path class="cls-25" d="m124.89,109.64c1.09.38,3.32-1.25,2.98,1.6-.06.5-.78,1.15-1.32,1.31-.88.26-1.86.19-1.64-1.26.08-.56.03-1.15.05-1.72l-.07.07Z"/>
      <path class="cls-25" d="m91.97,34.65c.4-1.08-1.29-3.17,1.59-3.06,2.73.11.83,2.07,1.34,3.06l.07-.07c-1.02,0-2.05,0-3.07,0l.07.07Z"/>
      <path class="cls-25" d="m136.9,79.57q.07,3.07-3,3l.07.07q-.07-3.07,3-3l-.07-.07Z"/>
      <path class="cls-10" d="m113.74,37.87c-.27-.59-.64-1.16-.79-1.78-.37-1.48.61-1.43,1.68-1.51,1.44-.1,1.47.77,1.26,1.67-.14.61-.66,1.13-1.01,1.69l-1.14-.06Z"/>
      <path class="cls-25" d="m58.97,43.65q-.07-3.15,3.08-2.93l-.07-.06-.08,2.99.07-.07c-1.02,0-2.05,0-3.07,0l.07.07Z"/>
      <path class="cls-25" d="m79.9,133.64c1.09.38,3.32-1.25,2.98,1.6-.06.5-.78,1.15-1.32,1.31-.88.26-1.86.19-1.64-1.26.08-.56.03-1.15.05-1.72l-.07.07Z"/>
      <path class="cls-25" d="m94.97,136.57c-.98-.45-2.77,1.18-3.03-1.14-.33-3.01,1.86-1.53,3.11-1.72l-.07-.06c-.03,1-.05,1.99-.08,2.99l.07-.07Z"/>
      <path class="cls-25" d="m127.89,133.57c-.4,1.08,1.29,3.17-1.59,3.06-2.73-.11-.84-2.07-1.34-3.06l-.07.07c1.02,0,2.05,0,3.07,0l-.07-.07Z"/>
      <path class="cls-25" d="m55.96,91.65q-.06-3.07,3.01-3.01l-.08-.06q.07,3.07-3,3l.06.07Z"/>
      <path class="cls-25" d="m94.9,136.64c.99.51,2.95-1.39,3.06,1.34.11,2.88-1.97,1.2-3.05,1.59l.07.07c0-1.02,0-2.04,0-3.06l-.07.07Z"/>
      <path class="cls-10" d="m89.18,141.82c-.6.26-1.17.61-1.8.77-1.53.37-1.4-.67-1.48-1.71-.12-1.47.82-1.43,1.69-1.23.61.14,1.12.68,1.67,1.04-.03.38-.05.75-.08,1.13Z"/>
      <path class="cls-25" d="m94.9,139.57c-.39,1.09,1.25,3.32-1.61,2.98-.5-.06-1.15-.78-1.31-1.32-.26-.89-.18-1.86,1.26-1.64.56.08,1.15.03,1.72.04l-.07-.07Z"/>
      <path class="cls-25" d="m40.9,100.57q.07,3.14-3.08,2.93l.07.06c.03-1,.05-2,.08-3l-.07.07c1.02,0,2.05,0,3.07,0l-.07-.07Z"/>
      <path class="cls-2" d="m94.97,103.59c-.05-.32-.1-.65-.15-.97.1-.3.19-.61.29-.91.89,0,1.78-.02,2.68-.03.04.65.08,1.31.13,1.96,0,0,.02-.06.02-.06-.99,0-1.98,0-2.96.01Z"/>
      <path class="cls-17" d="m97.78,101.68c-.89,0-1.78.02-2.68.03-4.11,0-8.22,0-12.33,0-1.19.29-3.38-.89-2.88,1.93l.06-.09c-1.21-.21-2.89.92-3.29-1.56-.1-.62-2.11-1.43-3.14-1.3-2.85.36-2.78-1.26-2.6-3.16.62-.27,1.73-.46,1.78-.81.21-1.38.16-2.83.04-4.23-.03-.33-.73-.6-1.12-.9-.24.34-.67.67-.68,1.02-.05,1.66.02,3.33.05,4.99-1.41,0-2.82.01-4.24.01-.97,0-1.95.27-1.89-1.42.05-1.36.47-1.63,1.71-1.66.46,0,1.13-.78,1.3-1.33.3-.98.06-1.85-1.33-1.59-1.31.24-1.64-.33-1.67-1.62-.03-1.4.66-1.32,1.66-1.45.51-.06,1.31-.82,1.32-1.29.03-1.24.3-1.71,1.67-1.7,1.34,0,1.46.56,1.46,1.63,0,.47.49.94.76,1.42.35-.5.9-.97.99-1.51.16-.97.04-1.99.04-2.98,0-.33.09-.89-.05-.96-3.68-1.77-.93-5.05-1.77-7.47-.08-.22-.01-.49-.01-.74q0-4.9,4.9-4.32c.32.04.88.06.92.19.88,3.43,3.6.85,5.26,1.63.29-.62.58-1.24.87-1.86.58,0,1.16-.05,1.72.04,1.44.22,1.53-.74,1.27-1.63-.16-.54-.81-1.26-1.31-1.32-2.85-.34-1.21,1.9-1.61,2.98-1.61-.06-3.69.48-3.07-2.43.03-.15-.41-.6-.57-.57-2.86.54-2.48-1.35-2.35-3.07l-.08.06c2.48.43,3.5-.59,3.07-3.07l-.07.07c1.51.02,3.55-.75,3.09,2.16-.03.2.71.72,1.12.77,1.07.11,2.16.13,3.23.01,1.39-.16,1.68.44,1.61,1.69-.09,1.57.05,3.16-.05,4.73-.08,1.32.62,1.7,1.63,1.4.55-.17,1.28-.87,1.34-1.39.36-3.38.3-3.39,3.63-3.39.5,0,1.03.1,1.48-.03.36-.11.93-.55.89-.77-.47-2.91,1.57-2.15,3.08-2.16l-.08-.05c.02.33.05.66.04.99-.02,1.57.54,3.64-.24,4.56-.71.82-2.9.31-4.42.51-.47.06-.89.55-1.33.85.28.31.52.85.85.9,2.71.47,5.44.85,8.16,1.26l-.07-.07c0,2.01,0,4.03,0,6.04,0,0,.08-.06.08-.06-2.71-.44-1.7,1.65-1.96,2.88-.02,2.24-.12,4.49-.03,6.73.03.65.62,1.28.95,1.93,0,.33,0,.66,0,.99-.26.39-.69.75-.74,1.16-.3,2.26-.51,4.53-.76,6.8-1.22.54-2.43,1.08-3.65,1.62Zm2.17-26.57c-.17-.17-.35-.35-.52-.52h.02c-.99-.29-1.98-.6-2.97-.91h-1.1c-.97-.01-1.94-.02-2.91-.03-4.65-.01-9.31-.05-13.96-.03-3.29.01-4.54,1.25-4.56,4.51-.03,4.82,0,9.64,0,14.46-.09,2.45-.43,4.95,1.36,7.04.87.32,1.75.92,2.63.93,6.14.08,12.27.06,18.41.02.7,0,1.39-.31,2.08-.48h0c.17-.16.33-.33.5-.5,0,0,0,0,0,0,.33-.17.67-.33,1-.5,0,0,0,0,0,0,.17-.35.34-.71.51-1.06,0-.14,0-.27-.01-.41.15-1.85.31-3.71.46-5.56,0-1.15,0-2.29,0-3.44,0-.69-.01-1.38-.02-2.07-.14-2.84-.28-5.67-.42-8.51,0-.64,0-1.28,0-1.92-.17-.35-.35-.7-.52-1.05v.02Z"/>
      <path class="cls-1" d="m102.93,92.11c0-.33,0-.66,0-.99.01-1.04-.08-2.1.07-3.13.16-1.04.56-2.04.85-3.05,1.04.24,2.07.47,3.11.71l-.07-.06c0,1.02,0,2.04,0,3.06l.07-.07c-1,.16-2.82.17-2.87.49-.28,1.69-.16,3.45-.06,5.18,0,.15.84.33,1.29.35,1.15.05,2.32-.05,3.47.06.4.04,1.13.57,1.1.79-.45,2.92,1.6,2.12,3.09,2.14,0,1.02,0,2.04,0,3.07-.57-.01-1.16.04-1.72-.05-1.45-.22-1.52.76-1.26,1.64.16.54.81,1.26,1.31,1.31,2.85.34,1.22-1.89,1.6-2.98,1.43.17,3.58-.69,3.09,2.23-.03.2.71.72,1.12.77.98.12,1.99.05,2.98.04.99-.01,1.88-.23,1.9,1.4.02,1.65-.75,1.65-1.95,1.62-2.82-.06-5.64.04-8.46-.04-1.25-.04-1.81.24-1.68,1.62.13,1.4.03,2.82.03,4.23q0,3.15-3.03,3.21c.01-5.46,0-10.92.06-16.38.02-1.23-.22-1.73-1.6-1.71-1.28.02-1.57.51-1.43,1.61.03.24,0,.5,0,.74q-.01,3.81-3.99,3.62c.66-.81,1.33-1.61,1.99-2.42,2.04-2.81.61-6.01,1-9Z"/>
      <path class="cls-13" d="m97.9,58.65c1.97-.01,3.94-.03,5.91-.03q3.09,0,3.15-3.04l-.07.07c1.02,0,2.05,0,3.07,0l-.07-.07c-.43,2.48.59,3.5,3.07,3.07l-.07-.07c.07,3.03.07,2.98-3.14,3.06-.94.02-2.45.15-2.69.68-.41.92-.67,2.64,1.5,2.28,1.4-.23,1.61.65,1.31,1.61-.17.55-.8,1.24-1.31,1.33-1.12.2-2.32.13-3.47.02-.41-.04-1.14-.57-1.1-.78.47-2.92-1.66-2.07-3.11-2.2l.08.05c-.22-1.01-.59-2.91-.65-2.9-2.91.45-2.43-1.5-2.35-3.17,0,0-.07.07-.07.07Z"/>
      <path class="cls-13" d="m124.96,97.64c-1.49.02-3.53-.79-3.11,2.14.03.2-1,.74-1.56.77-.44.02-1.33-.59-1.3-.79.41-2.38-1.07-2.25-2.64-2.16-1.15.07-2.31.03-3.46.04.01-2.49.06-4.97.02-7.46-.02-1.06.09-1.7,1.43-1.62,1.03.06,1.83.08,1.6,1.43-.04.24-.1.66.01.72.97.53,2.44.77,2.86,1.56.52.99-.27,2.78,1.97,2.34.32-.06.66,0,.99,0q3.14,0,3.21,3.03Z"/>
      <path class="cls-13" d="m109.9,52.65c1.64-.03,3.69.47,3.13-2.45-.01-.08,1.18-.56,1.78-.51.4.03,1.06.66,1.07,1.05.11,2.64.07,5.28.09,7.92-1.02-.02-2.05-.05-3.07-.07l.07.07c.43-2.48-.59-3.5-3.07-3.07l.07.07c0-1.02,0-2.05,0-3.07l-.07.07Z"/>
      <path class="cls-13" d="m121.9,70.58c1.02.02,2.04.05,3.07.07l-.07-.07c-.43,2.48.59,3.5,3.07,3.07l-.07-.07c0,1.02,0,2.05,0,3.07l.07-.07c-2.48-.43-3.5.59-3.07,3.07l.07-.07c-2.29.42-3.45-.16-3.09-2.85.27-2.02.03-4.1.02-6.15Z"/>
      <path class="cls-13" d="m106.89,82.64c2.56-.01,5.13-.09,7.68.03.47.02,1.13.79,1.3,1.33.28.94.1,1.7-1.3,1.64-2.56-.12-5.12-.05-7.68-.06l.07.06v-3.07s-.07.07-.07.07Z"/>
      <path class="cls-13" d="m115.9,73.65c1,.13,2.83.14,2.88.42.27,1.69.14,3.45.08,5.18,0,.13-.53.34-.82.34-1.41.04-2.82.1-4.21-.05-.34-.04-.85-.84-.83-1.28.02-.56.57-1.61.75-1.58,2.92.46,2.05-1.69,2.22-3.11l-.07.07Z"/>
      <path class="cls-13" d="m130.9,88.57c-.13,1.01-.13,2.84-.41,2.88-1.69.27-3.45.19-5.16.03-.19-.02-.4-1.3-.33-1.96.03-.33.65-.84,1.03-.86,1.65-.09,3.3-.02,4.95-.01l-.07-.07Z"/>
      <path class="cls-13" d="m115.97,73.58c-1.4.01-2.81.02-4.21.03-.98.01-1.87.24-1.89-1.39-.02-1.62.71-1.74,1.92-1.61.41.04.84.08,1.24,0,2.64-.55,3.31.72,2.87,3.05l.07-.07Z"/>
      <path class="cls-13" d="m124.82,82.5c-.08,1.02-.07,2.9-.26,2.92-1.77.2-3.58.12-5.36-.05-.15-.01-.31-1.35-.19-2.02.05-.31.76-.68,1.19-.7,1.56-.1,3.13-.06,4.7-.08l-.07-.06Z"/>
      <path class="cls-6" d="m103.95,73.66c.42-1.08-1.26-3.34,1.61-2.99.5.06,1.15.78,1.31,1.32.26.89.18,1.86-1.27,1.64-.56-.08-1.15-.02-1.73-.03l.07.07Z"/>
      <path class="cls-6" d="m106.97,79.64c.38-1.1-1.25-3.31,1.6-2.98.5.06,1.15.78,1.31,1.31.25.88.2,1.86-1.26,1.64-.56-.09-1.15-.04-1.72-.05l.07.07Z"/>
      <path class="cls-6" d="m106.89,88.64c1.09.39,3.32-1.26,2.98,1.6-.06.5-.78,1.15-1.32,1.31-.88.26-1.86.19-1.64-1.26.08-.56.03-1.15.04-1.72l-.07.07Z"/>
      <path class="cls-6" d="m130.89,82.58c.02,1.02.05,2.04.07,3.07q-3.07-.07-3-3.07l-.07.07c1.02,0,2.05,0,3.07,0l-.07-.07Z"/>
      <path class="cls-6" d="m127.97,82.58c-1.05-.03-2.1-.05-3.15-.08l.07.06c.03-1,.05-1.99.08-2.99l-.07.07c1.02,0,2.05,0,3.07,0l-.07-.07c0,1.02,0,2.05,0,3.07l.07-.07Z"/>
      <path class="cls-6" d="m106.9,79.57c0,1.02,0,2.05,0,3.07,0,0,.07-.07.07-.07-1.02.01-2.04.02-3.07.03.02-1.01.04-2.02.07-3.03,0,0-.08.06-.08.06,1.03,0,2.06,0,3.08,0,0,0-.07-.07-.07-.07Z"/>
      <path class="cls-13" d="m37.97,64.65q-.06-3.06-3.07-3c0-1.02,0-2.05,0-3.07,5.39.01,10.79.02,16.18.03.97,0,1.96-.27,1.9,1.39-.04,1.31-.39,1.84-1.68,1.61-1.38-.24-1.34.59-1.41,1.61-.1,1.37.59,1.44,1.63,1.41,1.99-.05,3.99-.07,5.97.02.49.02,1.39.58,1.36.76-.47,2.92,1.67,2.06,3.1,2.23l-.07-.07c-.43,2.48.59,3.5,3.07,3.07l-.07-.07c.42,2.29-.16,3.46-2.85,3.09-2.02-.28-4.1-.08-6.15-.09l.07.07c-.09-1.96.55-4.68-.47-5.66-1.06-1.01-3.73-.33-5.7-.37-.66-.02-1.39-.17-1.96.06-.41.16-.85.86-.83,1.3.02.56.38,1.38.82,1.57.63.27,1.46.07,2.21.07q2.95,0,2.88,3.03l.07-.07c-2.48-.43-3.5.59-3.07,3.07l.07-.07c-1.02.02-2.05.05-3.07.07.4-2.25-.13-3.57-2.82-3.06-1.03.2-2.12.05-3.18.06.02-1.02.05-2.05.07-3.07l-.07.07c.93-.64,2.97,1.34,3.06-1.41.09-2.83-2.02-1.16-3.06-1.66l.07.07c.43-2.48-.59-3.5-3.07-3.07l.07.07Z"/>
      <path class="cls-13" d="m55.97,109.64q-.07-3.07-3.07-3c.02-1.02.05-2.05.07-3.07,0,0-.07.07-.07.07,2.48.43,3.5-.59,3.07-3.07l-.07.07c3.4-.01,6.79-.02,10.19-.03.97,0,1.95-.26,1.9,1.39-.04,1.31-.39,1.83-1.68,1.6-1.39-.25-1.62.63-1.33,1.59.16.55.79,1.01,1.3,1.39.49.36,1.6.65,1.57.83-.46,2.92,1.69,2.05,3.11,2.23l-.07-.07q.06,3.03-2.89,3.03c-.41,0-.83-.04-1.24,0-1.25.15-2.04-.08-1.9-1.65.04-.42-.72-1.31-1.06-1.28-1.53.13-2.09-.37-1.95-1.93.03-.34-.8-1.03-1.27-1.07-.53-.04-1.61.55-1.58.74.43,2.92-1.61,2.14-3.11,2.16l.07.07Z"/>
      <path class="cls-6" d="m61.97,67.65c-.01-1.06.13-2.15-.07-3.18-.51-2.69.82-3.21,3.06-2.82,0,0-.07-.07-.07-.07q.07,3.03,3.15,3.03c1.97,0,3.94.02,5.91.03l-.07-.07c.44,2.32-.2,3.47-2.86,3.08-1.54-.23-3.72-.73-3.23,2.3,0,.05-1.89.4-2.9.61l.07.07c.43-2.48-.59-3.5-3.07-3.07,0,0,.07.07.07.07Z"/>
      <path class="cls-13" d="m76.98,64.59c-1.03,0-2.05,0-3.08,0,0,0,.07.07.07.07,0-2.02,0-4.04,0-6.07l-.07.07c2.48.43,3.5-.59,3.07-3.07l-.07.07c2.02,0,4.05,0,6.07,0l-.07-.07c-.2,1.01-.41,2.01-.61,3.02-2.95-.67-2.3,1.48-2.39,3.04l.07-.07c-2.48-.43-3.5.59-3.07,3.07,0,0,.08-.06.08-.06Z"/>
      <path class="cls-13" d="m55.9,91.58q3.07.07,3-3,3.03.07,3.03,3.2c0,1.24.05,2.48-.02,3.72-.05.91.59,2.18-1.35,2.17-1.57,0-1.74-.64-1.68-1.9.02-.37-.57-1.13-.77-1.1-2.92.48-2.05-1.66-2.22-3.09Z"/>
      <path class="cls-6" d="m55.9,73.58c0,2.02,0,4.05,0,6.07,0,0,.07-.07.07-.07-.98.01-1.96.03-2.94.03q-3.12,0-3.06-3.03l-.07.07c2.48.43,3.5-.59,3.07-3.07l-.07.07c1.02,0,2.05,0,3.07,0l-.07-.07Z"/>
      <path class="cls-13" d="m70.97,109.65c-.41-2.28.16-3.46,2.85-3.09,2.02.28,4.1.07,6.15.08l-.07-.07c.4,2.27-.15,3.46-2.85,3.09-2.02-.28-4.1-.08-6.15-.09l.07.07Z"/>
      <path class="cls-1" d="m82.9,103.59c1.03.01,2.06.02,3.1.03-.03,2-.07,4.01-.1,6.01l.07-.07c-1.01-.2-2.02-.4-3.02-.61.67-2.95-1.48-2.3-3.04-2.39l.07.07c0-1.03,0-2.06,0-3.08l-.06.09c1-.02,2-.03,3-.05Z"/>
      <path class="cls-1" d="m52.97,100.64c-.02-1.02-.05-2.04-.07-3.07q3.06.07,3,3.07l.07-.07c-1.02,0-2.05,0-3.07,0l.07.07Z"/>
      <path class="cls-6" d="m65.14,84.96c-.62.21-1.23.5-1.87.63-1.38.29-1.25-.63-1.36-1.59-.2-1.66.9-1.55,1.81-1.34.59.14,1.05.8,1.58,1.23-.05.36-.1.71-.15,1.07Z"/>
      <path class="cls-1" d="m55.9,79.64c1.09.39,3.32-1.25,2.98,1.6-.06.5-.78,1.15-1.31,1.31-.88.26-1.86.19-1.64-1.26.08-.56.03-1.15.04-1.72l-.07.07Z"/>
      <path class="cls-13" d="m91.97,40.58c-.01,1.31-.09,2.63-.02,3.94.08,1.38-.01,2.2-1.87,2.17-2.26-.03-.63,2.01-1.19,2.96l.07-.07q-3.03.07-3.03,3.13c0,.98.02,1.96.03,2.94-1.02-.03-2.04-.05-3.06-.08l.07.07c-.01-.98-.03-1.96-.03-2.94q0-3.06-3.03-3.13l.07.07q-.06-3.03,2.88-3.03c.66,0,1.4.18,1.96-.06.48-.2,1.08-.9,1.04-1.33-.05-.56-.7-1.55-1.04-1.53-1.52.09-2.01-.36-1.93-1.94.09-1.83,1.34-1.08,2.13-1.12,2.31-.1,4.64-.05,6.95-.06Z"/>
      <path class="cls-6" d="m67.97,58.65c.02-1.5-.78-3.54,2.14-3.09.21.03.74-.69.78-1.1.11-1.06.07-2.15.03-3.22-.04-.99-.05-1.72,1.36-1.67,1.23.04,1.76.25,1.68,1.62-.16,2.71,2.04.87,3,1.46l-.07-.07c0,1.02,0,2.05,0,3.07l.07-.07c-2.48-.43-3.5.59-3.07,3.07l.07-.07c-2.02,0-4.05,0-6.07,0l.07.07Z"/>
      <path class="cls-13" d="m61.9,49.65c0-1.02,0-2.05,0-3.07.58.01,1.16.03,1.73.03,4.82.01,4.88.05,4.25,4.87-.06.43-.83,1.02-1.31,1.06-.52.04-1.59-.56-1.56-.75.42-2.93-1.62-2.12-3.11-2.14Z"/>
      <path class="cls-13" d="m77.11,43.85c-.2.91-.11,2.1-.66,2.67-.81.84-2.26-.23-2.56-1.52-.12-.53-.83-1.3-1.3-1.31-1.2-.04-1.67-.26-1.71-1.63-.05-1.62.84-1.47,1.84-1.44.33,0,.66,0,.99,0q3.23,0,3.41,3.24Z"/>
      <path class="cls-13" d="m91.9,34.58c1.02,0,2.05,0,3.07,0,0,2.02,0,4.05,0,6.07-1.02,0-2.05,0-3.07,0,0-2.02,0-4.05,0-6.07Z"/>
      <path class="cls-13" d="m58.9,52.65c-.43-2.48.59-3.5,3.07-3.07.43,2.48-.59,3.5-3.07,3.07Z"/>
      <path class="cls-6" d="m76.97,52.65q-.07-3.07,3-3l-.07-.07q.07,3.07-3,3l.07.07Z"/>
      <path class="cls-6" d="m64.97,58.58c-1.09-.39-3.33,1.27-2.97-1.6.06-.5.77-1.15,1.31-1.31.88-.26,1.86-.19,1.64,1.26-.08.56-.04,1.15-.05,1.72l.07-.07Z"/>
      <path class="cls-6" d="m64.9,58.65c1.02,0,2.05,0,3.07,0,0,0-.07-.07-.07-.07q.06,3.07-3,3s.07.07.07.07c0-1.02,0-2.05,0-3.07,0,0-.07.07-.07.07Z"/>
      <path class="cls-6" d="m73.9,34.58c-.38,1.1,1.25,3.32-1.6,2.98-.5-.06-1.15-.78-1.31-1.31-.26-.88-.2-1.86,1.25-1.64.56.08,1.15.04,1.72.05l-.07-.07Z"/>
      <path class="cls-1" d="m58.9,43.58c1.02,0,2.05,0,3.07,0,0,1.02,0,2.05,0,3.07-2.48.43-3.5-.59-3.07-3.07Z"/>
      <path class="cls-13" d="m127.93,122.91q0,4.69-4.81,4.69-4.19,0-4.19-4.31,0-4.69,4.81-4.69,4.19,0,4.19,4.31Zm-5.1,1.98c.39,0,.78-.02,1.17-.02.31-.56.76-1.09.9-1.69.23-.99.02-1.67-1.33-1.62-1.18.04-1.96.23-1.61,1.58.16.62.58,1.17.88,1.75Z"/>
      <path class="cls-6" d="m127.96,133.64c-1.02,0-2.05,0-3.07,0,.5-1.04-1.18-3.16,1.66-3.06,2.75.09.78,2.13,1.41,3.06Z"/>
      <path class="cls-6" d="m136.96,79.64q-3.07-.07-3,3c-1.02-.02-2.05-.05-3.07-.07l.07.07c.43-2.48-.59-3.5-3.07-3.07l.07.07c0-1.02,0-2.05,0-3.07l-.07.07c1.32-.01,2.64-.1,3.96-.01,1.44.09,2.37-.09,2.16-1.91-.04-.31,1.01-1.04,1.52-1.02.49.03,1.27.76,1.33,1.25.18,1.55.09,3.13.1,4.69Z"/>
      <path class="cls-13" d="m124.96,70.65c.03-1.48-.81-3.3,2.13-3.1,3.85.25,3.65.06,3.91,3.91.19,2.93-1.62,2.1-3.1,2.13l.07.07c.43-2.48-.59-3.5-3.07-3.07l.07.07Z"/>
      <path class="cls-13" d="m133.82,64.72c1.02.08,2.9.07,2.92.26.2,1.77.13,3.58-.05,5.37-.01.15-1.35.31-2.02.19-.31-.05-.68-.76-.71-1.19-.1-1.56-.07-3.13-.08-4.7l-.06.07Z"/>
      <path class="cls-1" d="m128.21,63.71c-.58.3-1.13.72-1.75.88-1.36.34-1.54-.43-1.58-1.61-.05-1.35.62-1.57,1.62-1.33.61.15,1.15.6,1.73.92,0,.38,0,.76-.01,1.14Z"/>
      <path class="cls-1" d="m133.89,61.58c-.02,1.05-.05,2.1-.07,3.14l.06-.07c-.91-.59-2.71,1.09-2.96-1.21-.31-2.9,1.84-1.52,3.04-1.79l-.07-.07Z"/>
      <path class="cls-13" d="m34.81,41.88c.13-2.38-.59-5.53.66-6.9,1.06-1.18,4.38-.38,6.69-.35,2.55.03,5.1.17,7.64.26.04,2.48.14,4.97.12,7.45-.02,2.38.7,5.52-.52,6.91-1.03,1.17-4.37.37-6.69.35-2.55-.03-5.1-.17-7.64-.26v-7.45c-.09,0-.17,0-.26,0Zm12.12.07q0-4.34-4.41-4.34-4.59,0-4.59,4.66,0,4.34,4.41,4.34,4.59,0,4.59-4.66Z"/>
      <path class="cls-13" d="m132.67,49.49h-7.46c-.09-2.55-.24-5.09-.27-7.64-.03-2.32-.83-5.66.34-6.69,1.38-1.22,4.53-.51,6.91-.53,2.48-.03,4.97.07,7.46.11.09,2.55.24,5.09.27,7.64.03,2.32.83,5.63-.34,6.7-1.37,1.25-4.52.53-6.9.67,0-.08,0-.17,0-.25Zm-.37-2.88q4.63,0,4.63-4.62,0-4.38-4.37-4.38-4.63,0-4.63,4.62,0,4.38,4.37,4.38Z"/>
      <path class="cls-13" d="m42.69,124.47c2.38.14,5.53-.57,6.89.68,1.18,1.08.37,4.38.34,6.7-.03,2.55-.18,5.09-.28,7.64-2.49.04-4.97.13-7.46.1-2.38-.03-5.52.69-6.9-.54-1.17-1.04-.36-4.38-.33-6.7.03-2.55.18-5.09.27-7.64h7.46c0-.08,0-.16,0-.25Zm-.04,3.13q-4.72,0-4.72,4.78,0,4.22,4.28,4.22,4.72,0,4.72-4.78,0-4.22-4.28-4.22Z"/>
      <path class="cls-13" d="m85.9,112.57c.02,3.02.05,6.05.07,9.07-1.02-.02-2.04-.05-3.07-.07,0,0,.07.07.07.07-.15-1-.16-2.82-.47-2.87-1.68-.29-3.45-.29-5.13,0-.31.05-.32,1.87-.47,2.87l.07-.07c-1.04.5-3.16-1.18-3.06,1.66.09,2.75,2.13.77,3.06,1.41,0,0-.07-.07-.07-.07.01,1.4.03,2.81.04,4.21,0,.96.27,1.95-1.41,1.88-1.32-.06-1.66-.43-1.66-1.69,0-.46-.79-1.23-1.3-1.31-1.44-.23-3.76.36-4.21-.35-.76-1.19-.35-3.13-.42-4.76-.01-.33.02-.66.03-.99l-.07.07c1.04-.5,3.16,1.18,3.06-1.66-.09-2.75-2.13-.78-3.06-1.41l.07.07q-.06-3.03,2.88-3.03c.58,0,1.24.18,1.71-.05.55-.26,1.33-.91,1.3-1.33-.12-1.61.71-1.67,1.93-1.64,3.39.07,6.78.04,10.17.05l-.07-.07Z"/>
      <path class="cls-13" d="m61.9,133.64c-.03-1.49.79-3.53-2.14-3.11-.2.03-.78-1.01-.79-1.56-.06-3.46-.01-6.93,0-10.4l-.07.07c3.02,0,6.04,0,9.07,0l-.07-.07c0,1.02,0,2.05,0,3.07l.07-.07c-1.41.01-2.81.02-4.22.03-.97,0-1.95-.27-1.88,1.41.06,1.34.45,1.65,1.7,1.66.46,0,1.24.8,1.3,1.3.18,1.47.06,2.97.06,4.46q0,3.13-3.03,3.2Z"/>
      <path class="cls-13" d="m82.9,121.57q.06,3.04-3.06,3.04c-.98,0-1.96-.02-2.95-.03l.07.07c0-1.02,0-2.05,0-3.07l-.07.07c2.02,0,4.05,0,6.07,0l-.07-.07Z"/>
      <path class="cls-1" d="m40.97,100.64c-1.02,0-2.05,0-3.07,0,.64-.93-1.34-2.97,1.41-3.06,2.83-.09,1.16,2.03,1.66,3.06Z"/>
      <path class="cls-1" d="m52.97,103.57c-1.08-.39-3.17,1.28-3.06-1.59.11-2.73,2.07-.83,3.06-1.34l-.07-.07c0,1.02,0,2.05,0,3.07l.07-.07Z"/>
      <path class="cls-1" d="m106.97,52.65c.39-1.08-1.29-3.17,1.59-3.06,2.73.11.84,2.07,1.34,3.06l.07-.07c-1.02,0-2.05,0-3.07,0l.07.07Z"/>
      <path class="cls-1" d="m106.97,55.58q-3,.07-3.07-3c1.02.02,2.05.05,3.07.07,0,0-.07-.07-.07-.07,0,1.02,0,2.05,0,3.07l.07-.07Z"/>
      <path class="cls-13" d="m114.94,43.31c.33.57.8,1.1.95,1.71.23.96.1,1.71-1.3,1.64-1.13-.06-1.99-.15-1.64-1.55.16-.62.55-1.18.84-1.76.38-.01.76-.02,1.15-.03Z"/>
      <path class="cls-6" d="m52.9,109.57c1.02.02,2.05.05,3.07.07l-.07-.07q.07,3.03,3.18,3.03c.66,0,1.36-.13,1.97.05.37.11.83.69.83,1.06,0,.63-.45,1.81-.52,1.79-2.91-.56-2.43,1.48-2.46,3.13l.07-.07c-1.02.02-2.05.05-3.07.07.06-3.02.06-3.08-3.61-3.01-1.57.03-2.88,0-2.33-2.12.09-.35.58-.89.8-.86,2.92.46,2.11-1.59,2.13-3.08Z"/>
      <path class="cls-6" d="m97.97,55.58c-.02,1.02-.05,2.05-.07,3.07l.07-.07c-.95.56-2.87-1.1-2.99,1.2-.07,1.23-.09,1.89-1.66,1.9-1.91,0-1.33-1.22-1.36-2.14-.05-1.32,0-2.63.02-3.95l-.07.07c2.02-.02,4.04-.05,6.07-.07Z"/>
      <path class="cls-13" d="m88.9,49.65c2.25-.39,3.58.13,3.07,2.82-.19,1.03-.05,2.12-.06,3.18l.07-.07c-1.02.03-2.04.05-3.06.08.02-2.02.04-4.05.06-6.07,0,0-.07.07-.07.07Z"/>
      <path class="cls-1" d="m98.04,52.5c-1.06-.35-2.94,1.43-3.1-1.21-.05-.91-.18-1.66,1.27-1.73,2.82-.15,1.33,1.94,1.76,3.01l.06-.07Z"/>
      <path class="cls-6" d="m100.97,52.58c.43,2.48-.59,3.5-3.07,3.07.05-1.05.09-2.1.14-3.15l-.06.07c1,0,2,0,2.99.01Z"/>
      <path class="cls-13" d="m94.9,40.58c2.48-.43,3.5.59,3.07,3.07-2.48.43-3.5-.59-3.07-3.07Z"/>
      <path class="cls-16" d="m101.94,101.11c-.66.81-1.33,1.61-1.99,2.42-.68.04-1.36.07-2.03.11-.04-.65-.08-1.31-.13-1.96,1.22-.54,2.43-1.08,3.65-1.62.17.35.34.7.51,1.04Z"/>
      <path class="cls-6" d="m85.9,109.64c1.02-.02,2.05-.04,3.07-.07,0,1.02,0,2.05,0,3.07-1.02-.02-2.05-.05-3.07-.07,0,0,.07.07.07.07,0-1.02,0-2.05,0-3.07l-.07.07Z"/>
      <path class="cls-13" d="m34.9,64.58c1.02.02,2.05.05,3.07.07,0,0-.07-.07-.07-.07,0,1.02,0,2.05,0,3.07l.07-.07q-3,.07-3.07-3Z"/>
      <path class="cls-6" d="m40.97,70.58q-3.07.07-3-3l-.07.07c1.02,0,2.05,0,3.07,0l-.07-.07c0,1.02,0,2.05,0,3.07l.07-.07Z"/>
      <path class="cls-18" d="m82.78,101.71c4.11,0,8.22,0,12.33,0-.1.3-.19.61-.29.91-3.92,0-7.85,0-11.77,0-.09-.3-.18-.6-.27-.91Z"/>
      <path class="cls-2" d="m82.78,101.71c.09.3.18.6.27.91-.05.32-.1.65-.15.97-1,.02-2,.03-3,.05-.5-2.82,1.68-1.64,2.88-1.93Z"/>
      <path class="cls-15" d="m100.87,86.58c0,.69.01,1.38.02,2.07-.48.49-.97.98-1.45,1.48-.67.09-1.38.08-2,.3-.86.3-1.67.78-2.5,1.18-.51-1.8-1.33-2.09-2.52-.51-.33.17-.66.34-.99.51-.17.17-.33.33-.5.5-.33,0-.66,0-.99,0-.17,0-.35,0-.52,0-.17-.01-.33-.01-.5,0h.01c-.17-.16-.34-.33-.51-.5h.01c-.86-.97-1.58-2.79-2.99-.49h0c-.37.33-.74.68-1.11,1.02,0,0-.18-.02-.18-.02-1.08,0-2.16,0-3.24,0,0,0,.01,0,.01,0-.34-.17-.68-.34-1.01-.51h.01c-.17-.16-.34-.33-.51-.5h0c-1.8-2.07-1.99-.14-2.49,1.01h0c-.51.16-1.02.33-1.53.5,0,0,0,0,0,0-.33-.02-.67-.04-1-.06-.16.02-.31.03-.47.02,0-4.82-.03-9.64,0-14.46.02-3.26,1.27-4.5,4.56-4.51,4.65-.02,9.31.02,13.96.03.97,0,1.94.02,2.91.02h1.1c.99.31,1.98.62,2.97.92h-.02c.17.16.35.33.52.51,0,0-.01-.02-.01-.02.17.35.35.7.52,1.05,0,.64,0,1.28,0,1.92.14,2.84.28,5.67.42,8.51Zm-14.34-.09c1.1-.52,1.89-.8,2.55-1.27.22-.16.11-.78.16-1.19-1.29.13-2.93-.16-3.78.53-.72.58-1.08,2.69-.58,3.39.64.91,2.28,1.22,3.55,1.49.31.07.87-1.02,1.31-1.58-.5-.26-.99-.56-1.5-.78-.44-.2-.91-.32-1.7-.59Zm7.16-6.83c-.56.74-1.27,1.35-1.16,1.62.22.54.84,1.12,1.39,1.23.37.08.9-.62,1.35-.98-.44-.52-.88-1.04-1.58-1.87Zm-12.27,1.65c-.74-.58-1.19-1.19-1.5-1.12-.52.11-.96.65-1.43,1,.38.45.71,1.21,1.14,1.28.43.06.96-.58,1.79-1.16Z"/>
      <path class="cls-14" d="m88.9,55.65c1.02-.03,2.04-.05,3.06-.08-.01,1.32-.07,2.64-.02,3.95.03.93-.55,2.15,1.36,2.14,1.57,0,1.6-.67,1.66-1.9.12-2.29,2.04-.64,2.99-1.2-.08,1.67-.56,3.62,2.35,3.17.07-.01.43,1.89.65,2.9-1.51.01-3.55-.75-3.08,2.16.03.21-.54.66-.89.77-.46.14-.99.03-1.48.03-3.33,0-3.27.01-3.63,3.39-.06.52-.78,1.22-1.34,1.39-1.01.31-1.71-.08-1.63-1.4.1-1.57-.04-3.16.05-4.73.07-1.24-.22-1.84-1.61-1.69-1.07.12-2.16.1-3.23-.01-.42-.04-1.15-.56-1.12-.77.45-2.91-1.58-2.15-3.09-2.16.09-1.57-.56-3.72,2.39-3.04.2-1.01.41-2.01.61-3.02,1.02.03,2.04.05,3.06.08,0,0-.06-.08-.06-.08.01,1.4.09,2.8.02,4.2-.06,1.23.06,1.91,1.64,1.9,1.64,0,1.38-.94,1.38-1.9,0-1.4.02-2.8.03-4.2l-.06.08Z"/>
      <path class="cls-8" d="m73.96,92.59c.16,0,.32,0,.47-.02.33.02.67.04,1,.06,0,0,0,0,0,0,.35.17.69.33,1.04.5.82,0,1.64,0,2.46-.01,0,.67-.02,1.33-.02,2,.05.54.09,1.07.14,1.61h.24c.09-.53.18-1.07.27-1.6.29,0,.59,0,.88,0,.33.33.66.67.98,1,.58-.27,1.38-.93,1.72-.74,2.21,1.22.88-.8,1.22-1.25.34,0,.69,0,1.03,0,.18,0,.36,0,.55,0h0c.03.52.06,1.04.11,1.78.57-.91,1-1.6,1.42-2.29.32,0,.63,0,.95,0,.01.5.03,1,.04,1.5.03.47.06.95.09,1.42.46-.46.91-.92,1.37-1.38.37-.18.74-.35,1.11-.53-.38,1.84-.36,1.87.99,1.5.3-.17.6-.34.89-.5,1.33.3,2.66.6,4,.9-.05-.82-.12-1.63-.15-2.45,0-.15.12-.3.19-.45,0-.49,0-.98.01-1.47.14-.05.28-.07.42-.07.86,0,1.73.01,2.59.02.16,0,.31.02.47.02,0,1.84,0,3.68,0,5.52,0,.14.01.27.01.41-.17.35-.34.71-.51,1.06,0,0,0,0,0,0-.33.17-.67.33-1,.5,0,0,0,0,0,0-.17.17-.33.33-.5.5h0c-7.71-.16-15.41-.32-23.12-.48-1.79-2.09-1.45-4.59-1.36-7.04Z"/>
      <path class="cls-21" d="m75.32,99.63c7.71.16,15.41.32,23.12.48-.69.17-1.39.47-2.08.48-6.14.04-12.28.06-18.41-.02-.88-.01-1.75-.6-2.63-.93Z"/>
      <path class="cls-2" d="m70.99,97.6c-.03-1.66-.09-3.33-.05-4.99,0-.34.45-.68.68-1.02.39.3,1.09.57,1.12.9.12,1.4.17,2.85-.04,4.23-.05.35-1.16.55-1.78.81l.06.06Z"/>
      <path class="cls-11" d="m103.86,84.93c-.29,1.02-.69,2.02-.85,3.05-.15,1.02-.06,2.08-.07,3.13-.33-.64-.93-1.27-.95-1.93-.1-2.24,0-4.48.03-6.73.31.08.62.17.93.25.31.32.61.65.92.97,0,.18,0,.35-.01.53-.14.07-.28.14-.42.2.14.01.28.03.42.04.1.15.11.31.01.47Z"/>
      <path class="cls-11" d="m101.94,101.11c-.17-.35-.34-.7-.51-1.04.24-2.27.45-4.54.76-6.8.06-.41.49-.77.74-1.16-.39,2.99,1.04,6.19-1,9Z"/>
      <path class="cls-25" d="m76.9,64.65c-.43-2.48.59-3.5,3.07-3.07.43,2.48-.59,3.5-3.07,3.07Z"/>
      <path class="cls-25" d="m82.96,70.65c.41-1.08-1.23-3.32,1.61-2.98.5.06,1.15.78,1.31,1.32.26.89.17,1.85-1.27,1.63-.56-.09-1.15-.03-1.72-.04l.07.07Z"/>
      <path class="cls-2" d="m102.94,82.71c-.31-.08-.62-.17-.93-.25.26-1.23-.75-3.32,1.96-2.88-.02,1.01-.04,2.02-.07,3.03l.07-.02-1.03.13Z"/>
      <path class="cls-4" d="m100.87,86.58c-.14-2.84-.28-5.67-.42-8.51.14,2.84.28,5.67.42,8.51Z"/>
      <path class="cls-4" d="m100.42,92.12c-.16,0-.31-.02-.47-.02-.18-.32-.36-.64-.54-.96,0-.17,0-.34-.01-.52v.03c.01-.18.02-.35.03-.53.48-.49.97-.98,1.45-1.48,0,1.15,0,2.29,0,3.44-.16.01-.31.03-.47.04Z"/>
      <path class="cls-21" d="m100.42,92.12c.16-.01.31-.02.47-.04-.15,1.85-.31,3.71-.46,5.56,0-1.84,0-3.68,0-5.52Z"/>
      <path class="cls-7" d="m99.45,74.61c-.99-.31-1.98-.61-2.97-.92.99.31,1.98.61,2.97.92Z"/>
      <path class="cls-7" d="m95.38,73.68c-.97,0-1.94-.02-2.91-.02.97,0,1.94.02,2.91.02Z"/>
      <path class="cls-21" d="m98.94,99.61c.33-.17.67-.33,1-.5-.33.17-.67.33-1,.5Z"/>
      <path class="cls-21" d="m99.93,99.11c.17-.35.34-.71.51-1.06-.17.35-.34.71-.51,1.06Z"/>
      <path class="cls-7" d="m100.46,76.15c-.17-.35-.35-.7-.52-1.05.17.35.35.7.52,1.05Z"/>
      <path class="cls-21" d="m98.43,100.11c.17-.17.33-.33.5-.5-.17.17-.33.33-.5.5Z"/>
      <path class="cls-7" d="m99.95,75.11c-.17-.17-.35-.35-.52-.52.17.17.35.35.52.52Z"/>
      <path class="cls-25" d="m103.84,84.21v-.53c.05-.37.09-.73.12-1.1,0,0-.07.02-.07.02,1.02-.01,2.04-.02,3.07-.03v3.07c-1.04-.24-2.07-.47-3.11-.71.1-.16.09-.32-.01-.47v-.25Z"/>
      <path class="cls-25" d="m112.9,100.57c-.38,1.09,1.25,3.32-1.6,2.98-.5-.06-1.15-.78-1.31-1.31-.26-.88-.19-1.86,1.26-1.64.56.08,1.15.03,1.72.05l-.07-.07Z"/>
      <path class="cls-25" d="m106.9,55.65c0-1.02,0-2.05,0-3.07,1.02,0,2.05,0,3.07,0,0,1.02,0,2.05,0,3.07-1.02,0-2.05,0-3.07,0Z"/>
      <path class="cls-25" d="m109.9,55.58c2.48-.43,3.5.59,3.07,3.07-2.48.43-3.5-.59-3.07-3.07Z"/>
      <path class="cls-25" d="m124.9,70.58c2.48-.43,3.5.59,3.07,3.07-2.48.43-3.5-.59-3.07-3.07Z"/>
      <path class="cls-25" d="m127.96,76.58c0,1.02,0,2.05,0,3.07-1.02,0-2.05,0-3.07,0-.43-2.48.59-3.5,3.07-3.07Z"/>
      <path class="cls-25" d="m127.9,79.58c2.48-.43,3.5.59,3.07,3.07-1.02,0-2.05,0-3.07,0,0-1.02,0-2.05,0-3.07Z"/>
      <path class="cls-10" d="m55.97,73.65c-1.02,0-2.05,0-3.07,0q.06-3.03-2.88-3.03c-.74,0-1.58.2-2.21-.07-.44-.19-.79-1.01-.82-1.57-.02-.44.43-1.14.83-1.3.57-.23,1.3-.07,1.96-.06,1.97.05,4.65-.63,5.7.37,1.02.98.38,3.7.47,5.66Z"/>
      <path class="cls-25" d="m40.97,67.65c-1.02,0-2.05,0-3.07,0,0-1.02,0-2.05,0-3.07,2.48-.43,3.5.59,3.07,3.07Z"/>
      <path class="cls-25" d="m40.9,70.65c0-1.02,0-2.05,0-3.07,1.04.5,3.16-1.18,3.06,1.66-.09,2.75-2.13.77-3.06,1.41Z"/>
      <path class="cls-25" d="m61.9,67.58c2.48-.43,3.5.59,3.07,3.07-2.48.43-3.5-.59-3.07-3.07Z"/>
      <path class="cls-25" d="m52.97,73.58c.43,2.48-.59,3.5-3.07,3.07-.43-2.48.59-3.5,3.07-3.07Z"/>
      <path class="cls-25" d="m85.97,109.57c0,1.02,0,2.05,0,3.07-3.39-.01-6.78.02-10.17-.05-1.22-.03-2.05.03-1.93,1.64.03.42-.75,1.07-1.3,1.33-.47.22-1.14.05-1.71.05q-2.94,0-2.88,3.03c-3.02,0-6.04,0-9.07,0,.02-1.65-.46-3.69,2.46-3.13.07.01.52-1.17.52-1.79,0-.37-.46-.95-.83-1.06-.61-.18-1.31-.05-1.97-.05q-3.12,0-3.18-3.03c1.5-.02,3.54.76,3.11-2.16-.03-.19,1.05-.78,1.58-.74.47.04,1.3.73,1.27,1.07-.14,1.56.42,2.06,1.95,1.93.34-.03,1.1.87,1.06,1.28-.14,1.58.65,1.8,1.9,1.65.41-.05.83,0,1.24,0q2.95,0,2.89-3.03c2.05.01,4.14-.19,6.15.09,2.69.38,3.25-.81,2.85-3.09,1.57.1,3.72-.55,3.04,2.39,1.01.2,2.02.4,3.02.61Z"/>
      <path class="cls-25" d="m52.9,103.64c0-1.02,0-2.05,0-3.07,1.02,0,2.05,0,3.07,0,.43,2.48-.59,3.5-3.07,3.07Z"/>
      <path class="cls-10" d="m64.9,61.58q3.06.07,3-3c2.02,0,4.05,0,6.07,0,0,2.02,0,4.04,0,6.07-1.97-.01-3.94-.03-5.91-.03q-3.09,0-3.15-3.03Z"/>
      <path class="cls-25" d="m76.9,52.58q3.07.07,3-3,3.03.07,3.03,3.13c0,.98.02,1.96.03,2.94-2.02,0-4.05,0-6.07,0,0-1.02,0-2.05,0-3.07Z"/>
      <path class="cls-25" d="m73.9,58.65c-.43-2.48.59-3.5,3.07-3.07.43,2.48-.59,3.5-3.07,3.07Z"/>
      <path class="cls-25" d="m88.97,49.58c-.02,2.02-.04,4.05-.06,6.07,0,0,.06-.08.06-.08-1.02,0-2.04,0-3.07,0l.06.08c0-.98-.02-1.96-.03-2.94q0-3.06,3.03-3.13Z"/>
      <path class="cls-25" d="m122.83,124.89c-.3-.58-.72-1.13-.88-1.75-.34-1.36.43-1.54,1.61-1.58,1.35-.05,1.56.62,1.33,1.62-.14.6-.59,1.13-.9,1.69-.39,0-.78.02-1.17.02Z"/>
      <path class="cls-10" d="m46.94,41.95q0,4.66-4.59,4.66-4.41,0-4.41-4.34,0-4.66,4.59-4.66,4.41,0,4.41,4.34Z"/>
      <path class="cls-10" d="m132.3,46.61q-4.37,0-4.37-4.38,0-4.62,4.63-4.62,4.37,0,4.37,4.38,0,4.62-4.63,4.62Z"/>
      <path class="cls-10" d="m42.66,127.61q4.28,0,4.28,4.22,0,4.78-4.72,4.78-4.28,0-4.28-4.22,0-4.78,4.72-4.78Z"/>
      <path class="cls-10" d="m82.97,121.64c-2.02,0-4.05,0-6.07,0,.15-1,.16-2.82.47-2.87,1.68-.29,3.45-.29,5.13,0,.31.05.32,1.87.47,2.87Z"/>
      <path class="cls-25" d="m67.9,121.64c0-1.02,0-2.05,0-3.07.94.63,2.97-1.34,3.06,1.41.09,2.83-2.03,1.16-3.06,1.66Z"/>
      <path class="cls-25" d="m76.97,121.57c0,1.02,0,2.05,0,3.07-.93-.64-2.97,1.34-3.06-1.41-.09-2.83,2.03-1.16,3.06-1.66Z"/>
      <path class="cls-3" d="m86.54,86.49c.79.27,1.26.4,1.7.59.52.23,1,.52,1.5.78-.44.56-1,1.64-1.31,1.58-1.27-.27-2.91-.58-3.55-1.49-.5-.71-.13-2.82.58-3.39.85-.68,2.48-.39,3.78-.53-.04.41.07,1.03-.16,1.19-.66.46-1.44.74-2.55,1.27Z"/>
      <path class="cls-19" d="m85.38,94.13c-.34,0-.69,0-1.03,0-1.58-.22-3.32-.68-2.93,2-.33-.33-.66-.67-.98-1-.5-.67-1-1.34-1.51-2.01-.82,0-1.64,0-2.46.01.16-.34.32-.67.48-1.01h0c.83-.33,1.66-.66,2.49-.99h0c.17.16.34.33.51.5h-.01c.34.16.68.33,1.01.5h-.01c1.08,1.26,2.16,1.67,3.24,0l.18.02c.37-.34.74-.68,1.11-1.03h0c1,.18,1.99.34,2.99.51h-.01c.17.16.34.33.51.5h-.01c0,.17,0,.34,0,.51,0,.33.01.66.02.99,0,0,.01-.01.01-.01-.18,0-.36,0-.54,0-.32,0-.63,0-.95,0-.51.17-1.02.34-1.53.51h0c-.18,0-.36,0-.55,0Z"/>
      <path class="cls-22" d="m93.7,79.65c.71.83,1.14,1.35,1.58,1.87-.46.35-.99,1.05-1.35.98-.55-.11-1.17-.7-1.39-1.23-.11-.27.6-.87,1.16-1.62Z"/>
      <path class="cls-22" d="m81.43,81.3c-.83.57-1.36,1.22-1.79,1.16-.43-.06-.77-.82-1.14-1.28.47-.36.91-.9,1.43-1,.32-.06.77.55,1.5,1.12Z"/>
      <path class="cls-20" d="m99.44,90.12c-.01.18-.02.35-.03.53-.68.48-1.36.95-2.04,1.43-.15,0-.29.02-.42.07-.68-.17-1.36-.33-2.04-.5,0,0,.04-.05.04-.05.83-.4,1.63-.88,2.5-1.18.63-.22,1.33-.21,2-.3Z"/>
      <path class="cls-20" d="m79.43,91.12c-.83.33-1.66.67-2.49,1,.5-1.15.68-3.08,2.49-1Z"/>
      <path class="cls-20" d="m88.43,91.62c-1-.17-1.99-.33-2.99-.5,1.41-2.3,2.13-.48,2.99.5Z"/>
      <path class="cls-20" d="m92.42,91.09c1.19-1.58,2.01-1.29,2.52.51l-.04.05c-.81-.16-1.62-.32-2.43-.48l-.06-.07Z"/>
      <path class="cls-20" d="m84.16,92.12c-1.08,1.68-2.16,1.27-3.24,0,1.08,0,2.16,0,3.24,0Z"/>
      <path class="cls-7" d="m88.93,93.62c0-.33-.01-.66-.02-.99.17-.17.34-.34.5-.51.17,0,.35,0,.52,0,0,.32,0,.64,0,.96-.34.18-.67.37-1.01.55Z"/>
      <path class="cls-20" d="m76.95,92.12c-.16.34-.32.67-.48,1.01-.35-.17-.69-.33-1.04-.5.51-.17,1.02-.34,1.53-.51Z"/>
      <path class="cls-20" d="m89.93,93.07c0-.32,0-.64,0-.96.33,0,.66,0,.99,0,0,0,.03.03.03.03-.01.32-.03.65-.04.97,0,0,.02-.02.02-.02-.33,0-.67-.02-1-.02Z"/>
      <path class="cls-20" d="m85.45,91.12c-.37.34-.74.68-1.11,1.03.37-.34.74-.68,1.11-1.03Z"/>
      <path class="cls-20" d="m80.93,92.13c-.34-.17-.68-.34-1.01-.51.34.17.68.34,1.01.51Z"/>
      <path class="cls-20" d="m91.42,91.6c.33-.17.66-.34.99-.51l.06.07c-.33.17-.67.33-1,.5,0,0-.05-.06-.05-.06Z"/>
      <path class="cls-20" d="m75.43,92.63c-.33-.02-.67-.04-1-.06.33.02.67.04,1,.06Z"/>
      <path class="cls-20" d="m79.93,91.62c-.17-.17-.34-.34-.51-.51.17.17.34.34.51.51Z"/>
      <path class="cls-20" d="m90.93,92.1c.17-.17.33-.33.5-.5l.05.06c-.17.16-.34.31-.51.47l-.03-.03Z"/>
      <path class="cls-20" d="m89.42,92.12c-.17.17-.34.34-.5.51,0-.17,0-.34,0-.51.17-.01.33-.01.5,0Z"/>
      <path class="cls-20" d="m88.93,92.12c-.17-.17-.34-.34-.51-.51.17.17.34.34.51.51Z"/>
      <path class="cls-6" d="m85.9,55.58c1.02,0,2.04,0,3.07,0-.01,1.4-.03,2.8-.03,4.2,0,.96.26,1.89-1.38,1.9-1.58,0-1.7-.68-1.64-1.9.07-1.39,0-2.8-.02-4.2Z"/>
      <path class="cls-9" d="m90.96,92.13c.17-.16.34-.31.51-.47.33-.17.67-.33,1-.5.81.16,1.62.32,2.43.48.68.17,1.36.33,2.04.5,0,.49,0,.98-.01,1.47l-1.08.48h-1.42c-.41-.13-.83-.26-1.24-.4-.1.64-.19,1.27-.29,1.91-.3.17-.6.34-.89.5-.36-1-.72-2.01-1.09-3.01.01-.32.03-.65.04-.97Z"/>
      <path class="cls-4" d="m95.85,94.1c.36-.16.72-.32,1.08-.48-.07.15-.19.3-.19.45.03.82.1,1.63.15,2.45-1.33-.3-2.66-.6-4-.9.1-.64.19-1.27.29-1.91.41.13.83.27,1.24.4-.29.31-.58.62-.87.92.41.19,1.03.66,1.2.53.46-.36.74-.96,1.09-1.46Z"/>
      <path class="cls-5" d="m81.42,96.12c-.39-2.67,1.35-2.21,2.93-2-.34.45.99,2.47-1.22,1.25-.33-.18-1.13.47-1.72.74Z"/>
      <path class="cls-5" d="m90.92,93.11c.36,1,.72,2.01,1.09,3.01-1.35.37-1.37.34-.99-1.5-.03-.51-.05-1.02-.08-1.53l-.02.02Z"/>
      <path class="cls-9" d="m90.93,93.09c.03.51.05,1.02.08,1.53-.37.18-.74.35-1.11.53-.31-.02-.62-.04-.94-.06-.01-.5-.02-.99-.03-1.49h-.01c.34-.17.67-.36,1.01-.54.33,0,.67.02,1,.02Z"/>
      <path class="cls-4" d="m78.93,93.11c.5.67,1,1.34,1.51,2.01-.29,0-.59,0-.88,0-.22,0-.43,0-.65-.01,0-.67.02-1.33.02-2Z"/>
      <path class="cls-4" d="m88.97,95.09c.31.02.62.04.94.06-.46.46-.91.92-1.37,1.38-.03-.47-.06-.95-.09-1.42.18,0,.35,0,.53-.01Z"/>
      <path class="cls-9" d="m97.36,92.07c.68-.48,1.36-.95,2.04-1.43v-.03c0,.17,0,.34.01.52.18.32.36.64.54.96-.86,0-1.73-.01-2.59-.02Z"/>
      <path class="cls-5" d="m85.93,94.12c.51-.17,1.02-.34,1.53-.51-.43.69-.85,1.37-1.42,2.29-.04-.74-.08-1.26-.11-1.78Z"/>
      <path class="cls-24" d="m78.9,95.11c.22,0,.43,0,.65.01-.09.54-.18,1.07-.27,1.61h-.24c-.05-.54-.09-1.08-.14-1.62Z"/>
      <path class="cls-7" d="m88.97,95.09c-.18,0-.35,0-.53.01-.01-.5-.03-1-.04-1.5.18,0,.36,0,.54,0,.01.5.02.99.03,1.49Z"/>
      <path class="cls-5" d="m85.38,94.13c.18,0,.36,0,.55,0-.18,0-.36,0-.55,0Z"/>
      <path class="cls-1" d="m103.97,82.58c-.04.37-.07.73-.11,1.1-.31-.32-.61-.65-.92-.97.34-.04.69-.09,1.03-.13Z"/>
      <path class="cls-1" d="m103.84,84.21v.25c-.14-.01-.28-.03-.42-.04.14-.07.28-.14.42-.2Z"/>
      <path class="cls-20" d="m99.42,91.13c0-.17,0-.34-.01-.52,0,.17,0,.34.01.52Z"/>
      <path class="cls-8" d="m95.85,94.1c-.35.5-.63,1.11-1.09,1.46-.17.13-.79-.34-1.2-.53.29-.31.58-.62.87-.92h1.42Z"/>
    </g>
  </g>
</svg>