<?xml version="1.0" encoding="UTF-8"?>
<svg id="_图层_2" data-name="图层 2" xmlns="http://www.w3.org/2000/svg" viewBox="0 0 315.35 322.21">
  <defs>
    <style>
      .cls-1 {
        fill: #fffcf1;
      }

      .cls-1, .cls-2, .cls-3, .cls-4, .cls-5, .cls-6, .cls-7 {
        stroke-width: 0px;
      }

      .cls-2 {
        fill: #f8e092;
      }

      .cls-3 {
        fill: #efa628;
      }

      .cls-4 {
        fill: #5f3619;
      }

      .cls-5 {
        fill: #57ad33;
      }

      .cls-6 {
        fill: #f4ecac;
      }

      .cls-7 {
        fill: #fcfcfd;
      }
    </style>
  </defs>
  <g id="_图层_1-2" data-name="图层 1">
    <path class="cls-5" d="m200.39,307.87c-12.98-.02-25.96-.04-38.94-.05-12.57-.02-26.22-1.51-38.67.22-2.03-.32-4.07-.64-6.1-.96-2.67-1.2-5.34-2.4-8.01-3.6l-.61-.31h.03c-2.31-2.84-4.62-5.69-6.93-8.53-.65-3.06-1.82-6.12-1.85-9.19-.18-17.66-.09-35.33-.1-53,5.1-3.91,8.91-7.04,9.35-14.01.5-7.91-4.25-12.23-9.38-17.45.84-2.31,1.67-4.63,2.51-6.94l-.04.04c.12-.14.25-.29.37-.43h0c.27-.37.55-.75.82-1.13,1.5-1.5,3.01-3,4.51-4.5.38-.28.76-.56,1.14-.83h-.02c.39-.24.78-.5,1.17-.75,0,0-.03.02-.03.02.26-.14.52-.27.77-.41,0,0-.01,0-.01,0,1.91-.76,3.82-1.52,5.73-2.28,0,0-.02.02-.02.02.52-.13,1.03-.27,1.55-.4l-.03.02c1.03-.07,2.06-.14,3.09-.22,12.22.01,24.43.04,36.65.04,15,0,30-.03,45-.04,1.53.25,3.07.51,4.6.76,1.12.43,2.28.77,3.35,1.3,7,3.49,11.95,8.63,13.17,16.69-.83.86-1.65,1.73-2.49,2.59-8.3,8.45-6.6,21.83,2.17,26.73.64,10.55.13,21.26.14,31.83,0,10.03,2.1,22.66-2.19,32.03-2.31,2.8-4.61,5.6-6.92,8.41-2.59,1.2-5.18,2.4-7.76,3.59-2,.24-4,.48-6.01.73Zm-77.8-39.22c.17.12.35.25.52.37,3.5-2.15,7.14-5.4,11.34-5.59,4.56-.21,9.88,1.14,14.45,1.62-3.98-19.71,13.69-36.73,32.53-35.52-3.51-25.88-39.79-31.03-57.72-17.65-8.51,6.35-13.17,16.75-11.43,27.32.89,5.38,3.2,10.44,6.83,14.52,1.34,1.51,4.43,3.21,5.07,5.11.85,2.54-1.05,7.19-1.58,9.82Zm78.28,18.56c.16-.17.32-.35.48-.52-.43-1.74-.66-3.58-1.35-5.2-.91-2.12-.29-3.3,1.4-4.74,12.78-10.93,11.77-28.83-2.08-38.42-10.52-7.29-25.16-7.48-35.98-.48-15.98,10.35-16.22,30.34-.34,40.9,8.25,5.49,17.44,6.1,26.92,4.12,1.49-.31,2.57-.24,3.96.76,2.11,1.51,4.64,2.42,7,3.59Z"/>
    <path class="cls-4" d="m116.67,307.07c2.03.32,4.07.64,6.1.96,2.14,12.76-20.15,16.1-28.7,13.2-4.23-1.43-7.22-5-7.31-9.58-.11-5.94,4.93-9.2,8.89-12.76-17.56-9.09-31.15-21.45-40.26-39.2-9.89-19.27-13.14-41.16-13.14-62.63-6.19-3.23-12.53-5.86-17.49-10.9-2.69-2.74-2.34-4.58-3.8-7.66-1-2.1-3.3-2.83-4.99-4.43-4.13-3.94-6.86-9.61-6.6-15.35.14-3.04.49-6.51,1.82-9.28,1.42-2.94,3.75-4.45,3.29-7.99-.97-7.43-3.15-13.65.57-20.93,2.2-4.31,6.29-7.36,11.01-8.32,12.69-2.59,19.41,9.54,24.04,19.19,4.49-11.04,9.01-22.16,13.51-33.22-3.48,1.1-12.75,4.9-10.56-2.6,1.47-5.05,5.35-10.37,8.03-14.88,5.89-9.93,12.8-19.3,21.16-27.3,17.38-16.64,38.36-23.49,61.54-27.54.41-6.19,1.83-10.54,8.71-11.7,0-4.23-.99-9.65,2.78-12.68,3.48-2.8,7.94-1.1,11.32.95,8.45,5.12,10.43,13.84,12.17,22.88,22.3,3.07,44.15,12.9,60.31,28.73,15.25,14.94,26.45,35.7,31.71,56.27,1.84-2.98,3.35-5.97,6.79-7.34,3.86-1.54,8.49-.6,11.45,2.28,7,6.78,6.93,21.65,5.54,30.5,4.11,1.43,7.22,2.75,8.47,7.31,1.11,4.07.79,8.81.97,12.97.17,3.96,1.25,8.79-.55,12.51-1.83,3.77-6.28,5.53-7.92,9.32-1.34,3.1-1.02,6.48-2.8,9.52-1.61,2.75-4.06,4.85-6.78,6.46-1.21.71-3.21,1.16-3.93,2.47-.9,1.64-.17,5.43-.23,7.28-.14,4.87-.48,9.73-1.05,14.57-1.98,17.01-6.64,33.84-15.79,48.44-4.62,7.37-10.28,14.16-16.87,19.85-6.47,5.59-13.82,8.4-20.94,12.78,4.34,3.45,10.09,6.82,9.44,13.18-.54,5.3-4.41,8.49-9.39,9.36-8.51,1.48-28.61-1.62-26.8-13.91,2-.24,4-.48,6.01-.73-1.47,8.43,16.64,11.29,22.02,8.12,4.61-2.71.7-7.6-2.32-9.72-4.48-3.14-6.99-2.58-11.94-2,2.31-2.8,4.61-5.6,6.92-8.41.36-.13.73-.26,1.09-.39.12-.01.26,0,.37-.04,21.39-8.34,35.4-23.94,44.06-44.79.05-.24.09-.48.14-.73,0,0-.03.04-.03.04.13-.13.31-.24.37-.4,3.28-8.1,5.54-16.47,6.74-25.13.15-1.64.31-3.29.46-4.93.14-1.15.27-2.31.41-3.46,0,0-.02.03-.02.03,1.22-1.49.71-6.04.82-7.9.16-2.74.32-5.48.23-8.23-.16-5.29-.42-10.58-.55-15.87-.27-11.22-1.37-22.29-2.5-33.45-.01-.12-.02-.25-.03-.37-.63-4.43-1.25-8.87-1.88-13.3-.02-.14-.04-.27-.05-.41-.61-3.16-1.22-6.32-1.84-9.49-.02-.13-.04-.26-.05-.39-1.11-4.54-2.23-9.09-3.4-13.9-.77.71-1.32,1.2-1.86,1.7l.02-.03c-.52.38-1.05.76-1.57,1.13,0,0,.04-.03.04-.03l-3.74,1.7c-4.82.73-7.26-3.55-9.95-6.74-3.2-3.79-6.44-7.56-9.66-11.33-10.42,8.5-22.85,14.45-36.04,17.27-6.45,1.38-7.08-2.73-9.9-7.57-3.36-5.77-8.1-10.54-12.65-15.36-9.51,6.32-18.94,12.93-28.95,18.43-4.64,2.55-8.23,5.15-12.34.64-3.81-4.17-6.65-9.38-9.75-14.07-.18-.29-.37-.59-.55-.88l-.07-.16c-.37-.64-.68-1.33-1.15-1.9-.18-.22-.7-.17-1.07-.24v.02c-.76.54-1.51,1.08-2.27,1.61l.04-.03-1.18.79.03-.03c-.4.26-.8.51-1.19.77l.03-.03c-1.53.85-3.06,1.7-4.59,2.56h-.16c-4.14,1.88-8.29,3.78-12.43,5.67l-.11.05-4.46,2.58-.14.06c-2.56,1.19-5.06,2.54-7.69,3.53-3.05,1.15-5.95.93-8.13-1.94l-.05-.1c-2.94-5.08-3.93-10.78-5.05-16.5-4.72,1.36-6.22,1.21-8.15,5.7l.03-.03c-.15.26-.3.52-.45.77l.04-.04c-1.9,3.82-3.8,7.64-5.7,11.46l.03-.03c-10.27,22.53-15.52,47.7-16.16,72.42-.31,12.08-.63,23.92,1.16,35.91,1.88,12.65,5.89,23.67,10.43,35.56l-.03-.03c.39.77.78,1.54,1.17,2.31l-.03-.03c.64,1.16,1.27,2.31,1.91,3.47l-.03-.03c.1.15.19.3.29.45v.11c.29.46.58.92.88,1.38l-.03-.03,1.98,3.04-.03-.03c.91,1.28,1.82,2.55,2.72,3.83.1.12.19.24.29.36.22.29.43.58.65.88l.02.07c.18.2.36.4.54.61l-.03-.03c.24.29.47.59.71.88l-.04-.03c.3.36.61.72.91,1.08.1.12.19.23.29.35l.44.45s-.07-.05-.07-.05c.25.29.5.57.74.86,0,0-.03-.03-.03-.03.13.14.26.28.39.42l-.02.02c.47.5.95,1.01,1.42,1.51l.11.08c.1.1.2.19.3.29l.06.12,1.04,1.04.13.08c.1.09.2.19.3.28l.08.1c.1.09.2.19.3.28l.07.12,1.12,1.04.02.02c.27.24.54.48.81.72l-.03-.04c.29.25.57.5.86.75l-.05-.05c.15.13.3.27.45.4l-.04-.03c.19.18.38.36.58.53l.08.07c.42.32.84.65,1.26.97l-.04-.02c.14.11.28.22.42.33,5.45,4.58,11.64,7.85,18.23,10.45,2.31,2.85,4.62,5.69,6.93,8.54-3.16-.61-4.41-1.22-7.18.13-1.94.94-4.38,2.35-5.94,3.86-2.91,2.82-2.87,6.91,1.07,8.49,6.15,2.45,21.88.21,20.64-8.58Zm169.26-120.88c.1-.11.2-.21.3-.32l.05-.06c.11-.13.22-.25.33-.38h-.03c1.72-1.61,2.18-3.72,2.55-5.94.36-2.14,1.04-4.22,1.58-6.32l-.03.02c.39-.4.77-.8,1.16-1.2.11-.1.22-.21.33-.31l2.3-1.97s-.03.03-.03.03c.15-.14.29-.27.44-.41l-.04.05c.15-.14.29-.28.44-.42l-.05.05c.14-.14.29-.28.43-.42l-.05.05c.14-.15.28-.29.42-.44l-.05.05.41-.44-.04.04c.14-.14.27-.29.41-.43l-.02.03c2.84-2.35,1.72-6.92,1.52-10.1-.28-4.57-.28-9.18-1.44-13.62h.05c-.16-.24-.32-.49-.48-.74,0,0,.03.05.03.05-.15-.19-.29-.38-.44-.58-1.24-.17-2.5-.29-3.73-.51-1.23-.22-2.44-.55-3.67-.82-.18-.15-.35-.31-.53-.46l.06-.04c-.3-9.09,4.51-22.6-2.74-30.36l.03.04c-.14-.14-.29-.29-.43-.43,0,0,.05.05.05.05-.15-.14-.29-.28-.44-.42l.04.03c-1.78-1.41-3.68-1.54-5.47-.38,0,0,.02-.02.02-.02-.26.26-.52.52-.79.78,0,0,.02-.02.02-.02-2.71,2.94-4.11,9.13-4.06,13.01.78,3.93,1.55,7.87,2.33,11.8,2.34,18.33,4.51,36.47,4.51,54.99,1.14-.72,1.92-1.21,2.69-1.69l-.03.03c.16-.13.31-.25.47-.38l-.04.06c.28-.22.56-.43.83-.65l.08-.09c.1-.1.2-.21.3-.31l.09-.08c.1-.1.19-.2.29-.3l.09-.08ZM18.99,149.1l.04-.04c-.14.14-.28.28-.42.42,0,0,.03-.04.03-.04-.82,1.29-1.63,2.59-2.45,3.88-.68,5.17-1.74,9.72,1.75,14.15,2.31,2.93,7.7,3.5,9.19,6.5.82,1.65-.2,3.64.39,5.38.7,2.1,3,3.99,4.63,5.32,1.26,1.03,10.36,7.35,10.16,3.27,1.75-5,.89-12.26,1.43-17.61.62-6.18,1.28-12.36,1.91-18.54.04-.1.07-.21.07-.33.14-.65.28-1.3.41-1.95,0,0-.02.03-.02.03.13-.64.27-1.29.4-1.93l-.02.03c.92-1.67.76-3.34,0-5.01l.02.03c-.13-.65-.26-1.29-.4-1.94l.03.04c-.29-1.52-.58-3.03-.87-4.55-1.74-5.38-4.21-10.34-8.12-14.51-.29-.27-.58-.54-.87-.82l.03.04c-.15-.13-.3-.27-.45-.4,0,0,.03.02.03.02l-.56-.52-.12-.04c-.13-.1-.26-.2-.39-.31l-.04.12s.02-.12.02-.12c-.21-.14-.42-.28-.64-.43l-.15-.02c-3.75-2.29-8.26-1.84-11.31,1.11l-.09.12c-.09.1-.19.2-.28.29l-.12.07c-5.17,6.77-4.21,13.67-.55,20.81v-.02c1.64,1.09,1.96,2.64,1.5,4.45l.03-.03c-1.27.9-2.53,1.8-3.8,2.7,0,0,.03-.02.03-.02-.14.14-.29.27-.43.41ZM163.68,7.92v.03c-.89-.5-1.74-1.19-2.71-1.44-.73-.19-1.61.19-2.42.31h.02c-.93,3.09-.39,6.09.81,8.97.66,1.59.62,2.91-.51,4.18l-.04.06c-1.2.08-2.4.13-3.6.26-1.43.16-2.84.41-4.26.62l.03-.03c-.16.13-.31.26-.47.38l.02-.04c-.43,1.36-.85,2.71-1.21,3.83h10.28c4.07-.03,8.14-.05,12.21-.08-.11-1.84-.22-3.68-.34-5.52-1.08-4.74-3.12-8.84-7.53-11.38-.07-.1-.17-.15-.29-.16ZM62.23,92.68c4.61-1.43,9.23-2.82,13.83-4.28,2.07-.65,5.34-2.36,7.36-.7,4.26,3.49.67,18.62,7.02,18.53,1.82-.03,5.36-2.68,7.03-3.52,1.7-.85,3.38-1.72,5.06-2.61,3.8-2.02,7.73-3.6,11.6-5.45,3.6-1.72,6.64-4.1,9.96-6.24,3.87-2.49,5.54-1.3,7.97,2.2,2.65,3.81,4.95,7.93,7.45,11.84,1.31,2.04,2.62,5.79,5.4,5.55,2.95-.25,7.05-4.31,9.33-5.8,4.05-2.64,8.1-5.28,12.15-7.93,3.55-2.32,7.79-6.26,11.78-7.59,3.97-1.32,6,1.38,8.57,4.22,2.76,3.05,5.57,6.11,8.03,9.41,2.36,3.17,3.66,6.81,5.78,10.07,11.55-3.26,22.86-7.8,32.58-14.95,1.67-1.23,4.06-3.95,6.37-3.77,2.4.19,4.28,3.29,5.66,4.89,4.02,4.66,7.95,9.39,11.92,14.09,2.36-1.78,4.4-3.32,6.44-4.86-7.61-17.78-15.46-35.01-29.8-48.52-26.1-24.6-62.7-30.27-97.05-24.11-34.5,6.19-59.29,28.39-74.89,59.1-.06.18-.12.36-.17.54.22-.04.43-.08.65-.12Z"/>
    <path class="cls-4" d="m54.51,29.46c-2.73,3.17-4.14,3.57-7.5.9-3.68-2.92-7.06-6.29-10.56-9.41-3.5-3.12-7-6.24-10.51-9.36-1.82-1.63-7.28-5.05-7.28-8.03,0-4.97,5.27-2.49,7.25-.84,3.59,3,7.01,6.23,10.5,9.34,6.08,5.41,13.6,10.58,18.09,17.39Z"/>
    <path class="cls-4" d="m294.61,2.84c-5.18,7.34-12.71,13.23-19.22,19.41-2.85,2.71-5.6,5.59-8.56,8.17-2.06,1.8-7.08,3.51-6.85-1.23.16-3.29,5.59-6.7,7.71-8.75,3.06-2.95,6.13-5.9,9.18-8.86,3.21-3.11,6.37-6.29,9.64-9.34,3.48-3.24,4.87-2.78,8.1.6Z"/>
    <path class="cls-4" d="m4.95,26.91c-.12-7.89,14.84,2.17,17.58,3.55,3.01,1.52,16.09,5.82,15.18,10.2-1.36,6.56-13.61-2.05-16.37-3.45-3.57-1.81-7.15-3.6-10.75-5.37-2.16-1.06-5.71-1.95-5.64-4.94Z"/>
    <path class="cls-4" d="m283.9,41.97c-2.48-.09-4.91-1.88-3.7-4.6.93-2.09,4.91-3.34,6.76-4.35,3.41-1.87,6.82-3.73,10.23-5.59,2.25-1.22,5.86-4.02,8.5-3.96,2.13.04,4.06,1.53,3.56,3.94-.51,2.45-4.61,3.71-6.53,4.68-6.33,3.16-12.34,7.05-18.82,9.87Z"/>
    <path class="cls-4" d="m15.47,59.76c-3.46,0-15.15,2.21-15.46-3.12-.34-5.82,11.24-3.7,14.64-3.71,3.66-.02,14.86-2.18,16.21,2.35,1.97,6.57-12.16,4.24-15.39,4.24,0,.08,0,.16,0,.24Z"/>
    <path class="cls-4" d="m293.75,59.13c-2.6.12-6.93,1.25-8.81-1.07-1.46-1.81-.6-4.17,1.29-5.15,2.04-1.06,5.91-.47,8.16-.54,3.4-.11,6.79-.25,10.18-.37,2.11-.08,15.03-.48,9.34,5.4-1.76,1.82-6,1.11-8.27,1.21-3.96.17-7.93.38-11.89.55,0,0,0-.02,0-.02Z"/>
    <path class="cls-2" d="m129.07,97.76c3.1,4.7,5.94,9.9,9.75,14.07,4.11,4.5,7.69,1.91,12.34-.64,10.02-5.5,19.44-12.11,28.95-18.43,4.55,4.82,9.3,9.58,12.65,15.36,2.82,4.84,3.45,8.95,9.9,7.57,13.19-2.82,25.62-8.77,36.04-17.27,3.22,3.78,6.45,7.54,9.66,11.33,2.69,3.19,5.12,7.47,9.95,6.74,1.78.62,2.87-.3,3.74-1.7,0,0-.04.03-.04.03.52-.38,1.05-.76,1.57-1.13,0,0-.02.03-.02.03.47-.13.93-.27,1.57-.45,1.03,4.18,1.6,8.89,3.7,12.65.02.13.04.26.05.4-.6,1.61.39,8.44,1.84,9.49.02.14.04.27.05.41-.68,4.43.83,9.29,1.6,13.68,1.93,21.9,3.24,43.47,2.3,65.45,0,0,.02-.03.02-.03-.14,1.15-.27,2.31-.41,3.46-.15,1.64-.31,3.29-.46,4.93-3.75,7.62-4.7,17.36-7.11,25.52,0,0,.03-.04.03-.03-.05.24-.09.48-.13.73-8.66,20.86-22.68,36.45-44.06,44.79-.11.04-.25.03-.37.04,1.59-10.26,1.52-20.28,1.52-30.67,0-5.61,0-11.22,0-16.83,0-4.92-.78-10.45.85-15.1l.16.06c.83.44,1.65.87,2.48,1.31l-.03-.04c.5.28,1.01.56,1.51.84l-.03-.02c.39.13.78.27,1.17.4l-.03-.02c2.59,1.43,17.24,4.27,18.02-.51l.03-.05c1.2-.68,1.49-1.47.31-2.45-.84-2.17-1.76-2.7-4.26-2.24-5.2.95-10.12.14-14.85-2.12-1.42-.94-2.84-1.88-4.27-2.82l.04.03c-.15-.14-.29-.28-.44-.42l.05.05c-.14-.14-.28-.28-.43-.43l.05.04c-.14-.15-.27-.29-.41-.44l.03.04c-1.69-4.59-1.86-9.06,1.09-13.27.09-.13.03-.37.03-.56l-.02.02c.36-.41.73-.83,1.09-1.24l-.03.02c.27-.26.55-.51.82-.77l-.03.02c.28-.24.56-.48.84-.72l-.03.04.45-.39s-.03.02-.03.02c.39-.27.77-.54,1.16-.81l-.03.03c2.85-.42,5.86-2.49,8.67-3.39,2.76-.88,5.7-1.13,8.09-2.75.11-.11.21-.22.32-.33.39-.5.9-.95,1.13-1.51.1-.26-.35-.74-.55-1.12-.71-2.33-1.93-3.06-4.44-2.49-6.68,1.51-13.09,3.69-18.71,7.78-1.22-8.06-6.17-13.2-13.17-16.69-1.07-.53-2.23-.87-3.35-1.3-2.03-.45-4.05-1.29-6.08-1.3-26.49-.09-52.99-.07-79.48-.02-1.26,0-2.52.51-3.78.78,0,0,.03-.02.03-.02-.52.13-1.03.27-1.55.4,0,0,.02-.02.02-.02-1.91.76-3.82,1.52-5.73,2.28,0,0,.01,0,.01-.01-.26.14-.52.27-.77.41,0,0,.03-.02.03-.02-.39.25-.78.51-1.17.76,0,0,.02-.01.02-.01-.38.28-.76.56-1.14.83-1.5,1.5-3.01,3-4.51,4.5-.27.38-.55.76-.82,1.14,0,0,0,0,0,0-.12.14-.25.29-.37.43,0,0,.04-.04.04-.04-1.07,1.9-2.14,3.8-3.17,5.64-.68-.19-1.49-.42-2.3-.65l.04.03c-.26-.15-.52-.3-.78-.44l.03.02c-2.06-2.08-5.92-2.58-8.68-3.46-3.58-1.14-5.45-2.09-8.74-.34l.03-.03c-1.7,1.48-1.54,3.4.38,4.49l-.02-.02c4.36,3.39,10.87,4.01,15.99,6.1,0,0-.03-.02-.03-.02.67.47,1.34.95,2.01,1.42l-.04.16.04-.16c.21.18.41.36.62.54,1.31,1.51,2.82,2.89,3.89,4.55,2.35,3.69,1.88,10.87-1.61,12.97-.21.18-.41.36-.62.54v-.05c-.17.11-.34.23-.5.34,0,0,.04-.03.04-.03-.69.44-1.38.88-2.07,1.32,0,0-.16,0-.16,0-.14.09-.29.19-.43.28l.02-.03c-.27.13-.54.27-.81.4l.03-.04c-.72.31-1.45.61-2.17.92h-.1s-.03-.1-.03-.1c-4.32.32-8.39.44-12.63.41-1.78-.01-7.74,2.88-4.04,5.09l-.04-.04c.28.35.56.7.84,1.05v.11s-.02-.11-.02-.11c6.63,3.72,15.14.72,21.89-1.34v53.58c.13,0,.27,0,.4,0v-54.63c.07-.06.16-.08.25-.07,0,17.67-.09,35.33.1,53,.03,3.07,1.21,6.13,1.85,9.19-6.59-2.59-12.79-5.86-18.23-10.44.04-.1.09-.21.13-.31-.18,0-.37-.01-.55-.02,0,0,.04.02.04.02-.42-.32-.84-.65-1.26-.97,0,0-.08-.07-.08-.07-.19-.18-.38-.36-.58-.53,0,0,.04.03.04.03-.15-.13-.3-.27-.45-.4,0,0,.05.05.05.05-.29-.25-.57-.5-.86-.75,0,0,.03.04.03.04-.27-.24-.54-.48-.82-.72,0,0-.02-.02-.02-.02-.37-.35-.75-.69-1.12-1.04,0,0-.07-.12-.07-.12-.1-.09-.2-.19-.3-.28,0,0-.08-.1-.08-.1-.1-.09-.2-.19-.3-.28,0,0-.13-.08-.13-.08-.35-.35-.69-.69-1.04-1.04,0,0-.06-.12-.05-.12-.1-.1-.2-.19-.3-.29,0,0-.11-.08-.11-.08-.47-.51-.95-1.01-1.42-1.51,0,0,.02-.02.02-.02-.13-.14-.26-.28-.39-.42,0,0,.03.03.03.03-.25-.29-.5-.57-.74-.86,0,0,.07.05.06.04-.15-.15-.29-.3-.44-.45-.1-.12-.19-.23-.29-.35-.3-.36-.61-.72-.91-1.08,0,0,.04.03.04.02-.24-.29-.47-.59-.71-.88,0,0,.03.03.03.03-.18-.2-.36-.4-.54-.6,0,0-.02-.07-.01-.07-.22-.29-.43-.58-.65-.88-.1-.12-.19-.24-.29-.36-.91-1.28-1.82-2.55-2.72-3.83,0,0,.03.03.03.03-.66-1.01-1.32-2.03-1.98-3.04,0,0,.03.03.04.03-.29-.46-.59-.92-.88-1.38,0,0,0-.11,0-.11-.1-.15-.19-.3-.29-.45,0,0,.03.03.03.03-.64-1.16-1.27-2.31-1.91-3.47,0,0,.03.03.03.03-.39-.77-.78-1.54-1.17-2.31,0,0,.03.03.03.03-1.04-5.91-4.67-11.74-6.34-17.59-1.69-5.92-2.58-11.95-3.32-18.05-1.46-12.06-1.56-23.63-1.08-35.75.49-12.42,1.72-24.98,4.23-37.17,2.51-12.2,6.94-23.64,11.09-35.34,0,0-.03.03-.03.03,2.44-3.26,4.65-7.52,5.7-11.46,0,0-.04.04-.03.04.15-.26.3-.52.45-.77,0,0-.03.03-.03.03,2.14-1.61,5.4-7.24,8.09-3.31,1.31,1.91,1.57,6.15,2.25,8.45.67,2.29,1.5,3.77,2.87,5.66,0,0,.05.1.05.1,1.32,3.45,4.57,3.48,7.51,2.49,2.21-.75,7.3-2.02,8.32-4.08,0,0,.14-.06.14-.06,1.49-.86,2.97-1.72,4.46-2.59,0,0,.11-.05.11-.05,3.3-.44,10.32-3.1,12.43-5.68,0,0,.16.01.16.01,1.53-.85,3.06-1.7,4.59-2.56,0,0-.03.03-.03.03.4-.26.8-.51,1.19-.77,0,0-.03.03-.03.03.39-.26.78-.53,1.18-.79,0,0-.04.03-.04.03.76-.54,1.51-1.08,2.27-1.61,0,0,0-.02,0-.02.74.71,1.48,1.43,2.22,2.14,0,0,.07.16.07.16.18.29.37.59.55.88Zm19.49,56.88c-.12.12-.24.24-.36.37v.05c-.2.18-.38.36-.57.54-2.82,4.42-2.08,7.94,2.5,10.54,1.94,1.1,4.16,1.68,6.26,2.5,4.22,2.96,14.61,1.57,18.55-1.41l-.03.04c.27-.13.54-.26.81-.4l-.04.04c.26-.15.52-.29.78-.44l-.03.04c.58-.41,1.16-.81,1.74-1.22l.11-.04c.11-.11.23-.22.34-.32l.03-.04c.31-.31.62-.62.93-.93,2.49-4.21,1.85-6.82-2.65-10.53,3.74-3.04,5.76-7.47,1.73-11.28-4.66-4.42-11.82-4.02-17.72-4.49-2.71-1.73-8.25,1.24-10.6,2.82,0,0,.03-.03.03-.03-.39.26-.79.52-1.18.78l.04-.03c-.2.18-.4.35-.6.53l-.06.03c-.54.59-1.08,1.17-1.62,1.76l.03-.04c-2.78,2.22-1.87,7.37,1.58,8.88h.03c.21.19.41.37.62.55,0,0-.02-.02-.02-.02,0,.41,0,.82,0,1.24l.02-.02c-.2.18-.4.37-.6.55h-.03Zm62.21-17.3c.12-.26.24-.52.36-.78,2.26-1.76,2.68-6.97.78-9.87-.51-.63-1.03-1.25-1.54-1.88-.37-.39-.74-.78-1.11-1.17-2.83-2.17-5.17-2.17-8.39,0-.38.38-.76.76-1.13,1.15-.13.25-.26.5-.39.75-.55,1.24-1.35,2.44-1.6,3.74-.59,3.06-.74,6.13,2.01,8.44,1.38,2.34,3.66,2.9,6.05,2.58,1.2-.16,2.29-1.19,3.43-1.83.26-.12.52-.24.78-.35.25-.25.51-.51.76-.76Zm-99.21-13.28c-.26.26-.52.52-.78.78l.03-.02c-1.48.85-2.43,3.01-2.01,4.53,0,4.98,1.06,11.56,7.92,10.36,6.31-1.1,7.3-8.49,5.09-13.4l-.48-.71.02.02c-.18-.18-.35-.36-.53-.54l-.09-.1-.93-.88.03.03c-1.69-2.42-5.7-2.78-7.35-.66l-.07.06-.87.56.02-.02Z"/>
    <path class="cls-7" d="m122.58,268.65c.52-2.63,2.43-7.28,1.58-9.82-.64-1.9-3.73-3.6-5.07-5.11-3.63-4.08-5.94-9.14-6.83-14.52-1.74-10.58,2.92-20.97,11.43-27.32,17.93-13.37,54.21-8.23,57.72,17.65-18.84-1.21-36.51,15.82-32.53,35.52-4.58-.48-9.9-1.83-14.45-1.62-4.2.19-7.84,3.44-11.34,5.59-.17-.12-.35-.25-.52-.37Zm12.46-48.06c-6.11-.06-6.05,9.31,0,9.31,6.02,0,6.1-9.26,0-9.31Zm23.91.37c-6.04-.03-5.79,8.91,0,8.97,5.9.06,6.12-8.94,0-8.97Z"/>
    <path class="cls-7" d="m200.87,287.2c-2.35-1.17-4.89-2.08-7-3.59-1.38-.99-2.47-1.07-3.96-.76-9.48,1.98-18.67,1.37-26.92-4.12-15.88-10.56-15.64-30.55.34-40.9,10.82-7.01,25.46-6.81,35.98.48,13.84,9.59,14.86,27.5,2.08,38.42-1.69,1.44-2.31,2.62-1.4,4.74.7,1.63.92,3.46,1.35,5.2-.16.17-.32.35-.48.52Zm-7.1-36.26c.08-5.35-8.18-4.74-7.5.45.58,4.43,7.43,4.11,7.5-.45Zm-22.53,3.69c4.96-.04,4.76-7.67-.06-7.6-4.85.07-4.85,7.63.06,7.6Z"/>
    <path class="cls-4" d="m99.33,224.83c3.49-2.1,3.96-9.28,1.61-12.97-1.06-1.67-2.58-3.05-3.89-4.55-.21-.18-.41-.36-.62-.54l-.04.16s.04-.16.04-.16c-.67-.47-1.34-.95-2.01-1.42,0,0,.03.02.03.02-3.61-1.5-7.21-3.06-10.85-4.49-1.67-.66-3.42-1.08-5.14-1.61,0,0,.02.02.02.02-.94-1.43-1.13-2.92-.38-4.49,0,0-.03.03-.03.03,1.3-.22,2.73-.92,3.88-.59,4.56,1.29,9.04,2.9,13.55,4.4,0,0-.03-.02-.03-.02.26.15.52.3.78.44,0,0-.04-.03-.04-.03.99.65,1.98,1.3,2.96,1.95,5.13,5.22,9.88,9.54,9.38,17.45-.44,6.98-4.25,10.11-9.35,14.01-.09-.02-.18,0-.25.07-3.51,1.09-6.95,2.74-10.53,3.1-3.86.39-7.83-.42-11.76-.71l.02.11s0-.11,0-.11c-.28-.35-.56-.7-.84-1.05,0,0,.04.04.04.04-.39-3.39.72-4.64,3.99-4.57,4.44.09,8.37.99,12.68-.93l.03.09s.1,0,.1,0c.72-.31,1.45-.61,2.17-.92,0,0-.03.04-.03.04.27-.13.54-.27.81-.4,0,0-.02.03-.02.03.14-.09.29-.19.43-.28,0,0,.16,0,.16,0,.69-.44,1.38-.88,2.07-1.32,0,0-.04.03-.04.03.16-.11.32-.23.49-.34,0,0,.01.05.01.05.21-.18.41-.36.62-.54Z"/>
    <path class="cls-4" d="m229.02,227.31c4.73,2.26,9.65,3.07,14.85,2.12,2.5-.46,3.42.07,4.26,2.24-.1.82-.21,1.63-.31,2.45,0,0-.03.05-.03.05-5.23,3.15-12.26,1.08-18.02.5l.03.02c-.39-.13-.78-.27-1.17-.4,0,0,.03.02.03.02-.5-.28-1.01-.56-1.51-.84,0,0,.03.04.03.04-.83-.43-1.65-.87-2.48-1.31,0,0-.16-.06-.16-.05-.47-.29-.95-.58-1.42-.87-8.76-4.91-10.46-18.28-2.17-26.73.84-.86,1.66-1.73,2.49-2.59,5.62-4.09,12.03-6.26,18.71-7.78,2.51-.57,3.73.17,4.44,2.49-.19.88-.39,1.75-.58,2.63-.11.11-.21.22-.32.33-1.09.29-2.17.6-3.26.87-4.74,1.15-9.44,2.39-13.51,5.27,0,0,.03-.03.03-.03-.39.27-.77.54-1.16.81,0,0,.03-.02.03-.02-.15.13-.3.26-.45.39,0,0,.03-.04.03-.04-.28.24-.56.48-.84.72,0,0,.03-.02.03-.02-.27.26-.55.51-.82.77,0,0,.03-.02.03-.02-.36.41-.73.83-1.09,1.24,0,0,.02-.02.02-.02-.91,1.82-2.18,3.56-2.65,5.49-.71,2.89-.7,5.88,1.53,8.34,0,0-.03-.04-.03-.04.14.15.27.29.41.44,0,0-.05-.04-.04-.04.14.14.28.28.43.43,0,0-.05-.05-.04-.05.15.14.29.28.44.42,0,0-.04-.03-.04-.03,1.42.94,2.84,1.88,4.27,2.82Z"/>
    <path class="cls-3" d="m116.67,307.07c1.24,8.78-14.49,11.03-20.64,8.58-3.95-1.57-3.98-5.66-1.07-8.49,1.55-1.51,4-2.92,5.94-3.86,2.77-1.35,4.02-.74,7.18-.13,0,0-.03,0-.03,0,.2.1.41.21.61.31,2.67,1.2,5.34,2.4,8.01,3.6Z"/>
    <path class="cls-3" d="m214.16,303.55c4.95-.58,7.46-1.14,11.94,2,3.02,2.12,6.93,7,2.32,9.72-5.38,3.17-23.49.31-22.02-8.12,2.59-1.2,5.18-2.4,7.76-3.59Z"/>
    <path class="cls-6" d="m117.58,183.42c1.26-.27,2.52-.78,3.78-.78,26.49-.05,52.99-.06,79.48.02,2.03,0,4.05.84,6.08,1.3-1.53-.25-3.07-.5-4.6-.76-13.31-1.48-27.43-.23-40.82-.23-13.4,0-27.51-1.25-40.83.23-1.03.07-2.06.14-3.09.22Z"/>
    <path class="cls-2" d="m120.68,183.2c13.31-1.47,27.42-.23,40.83-.23,13.4,0,27.52-1.25,40.82.23-15,.01-30,.04-45,.04-12.22,0-24.43-.03-36.65-.04Z"/>
    <path class="cls-6" d="m223.13,231.28c.47.29.95.58,1.42.87-1.63,4.65-.85,10.18-.85,15.1,0,5.61,0,11.22,0,16.83,0,10.39.06,20.41-1.52,30.67-.36.13-.73.26-1.09.39,4.3-9.37,2.2-22.01,2.19-32.03,0-10.57.51-21.28-.14-31.83Z"/>
    <path class="cls-6" d="m99.16,200.98c-.99-.65-1.98-1.3-2.96-1.95.81.23,1.62.46,2.3.65,1.03-1.84,2.1-3.74,3.17-5.64-.84,2.31-1.67,4.63-2.51,6.94Z"/>
    <path class="cls-6" d="m110.36,186.06c1.91-.76,3.82-1.52,5.73-2.28-1.91.76-3.82,1.52-5.73,2.28Z"/>
    <path class="cls-6" d="m108.46,187.2c.39-.25.78-.51,1.17-.76-.39.25-.78.51-1.17.76Z"/>
    <path class="cls-6" d="m107.33,188.02c.38-.28.76-.56,1.14-.83-.38.28-.76.56-1.14.83Z"/>
    <path class="cls-6" d="m116.07,183.8c.52-.13,1.03-.27,1.55-.4-.52.13-1.03.27-1.55.4Z"/>
    <path class="cls-6" d="m102,193.66c.27-.38.55-.76.82-1.14-.27.38-.55.76-.82,1.14Z"/>
    <path class="cls-6" d="m109.6,186.46c.26-.14.52-.27.77-.41-.26.14-.52.27-.77.41Z"/>
    <path class="cls-4" d="m108.66,303.47c-.2-.1-.41-.21-.61-.31.2.1.41.21.61.31Z"/>
    <path class="cls-6" d="m101.63,194.08c.12-.14.25-.29.37-.43-.12.14-.25.29-.37.43Z"/>
    <path class="cls-1" d="m61.76,92.26c15.6-30.72,40.39-52.92,74.89-59.1,34.35-6.16,70.95-.49,97.05,24.11,14.34,13.51,22.19,30.74,29.8,48.52-2.04,1.54-4.08,3.08-6.44,4.86-3.96-4.7-7.9-9.43-11.92-14.09-1.38-1.6-3.26-4.7-5.66-4.89-2.31-.18-4.69,2.53-6.37,3.77-9.72,7.16-21.03,11.7-32.58,14.95-2.12-3.26-3.41-6.89-5.78-10.07-2.46-3.3-5.27-6.36-8.03-9.41-2.56-2.83-4.6-5.54-8.57-4.22-3.99,1.33-8.22,5.27-11.78,7.59-4.05,2.64-8.1,5.28-12.15,7.93-2.28,1.49-6.37,5.55-9.33,5.8-2.78.24-4.09-3.51-5.4-5.55-2.51-3.91-4.8-8.03-7.45-11.84-2.44-3.5-4.1-4.69-7.97-2.2-3.32,2.14-6.37,4.52-9.96,6.24-3.87,1.85-7.8,3.44-11.6,5.45-1.68.89-3.36,1.76-5.06,2.61-1.67.84-5.21,3.49-7.03,3.52-6.35.09-2.76-15.04-7.02-18.53-2.02-1.66-5.29.05-7.36.7-4.6,1.45-9.22,2.85-13.83,4.28l-.47-.42Z"/>
    <path class="cls-2" d="m37.13,121.71c3.9,4.17,6.38,9.13,8.12,14.51.29,1.52.58,3.03.87,4.55,0,0-.03-.04-.03-.03.13.65.26,1.29.4,1.94,0,0-.02-.03-.02-.03,0,1.67,0,3.34,0,5.01,0,0,.02-.03.02-.03-.13.64-.27,1.29-.4,1.93,0,0,.02-.03.02-.03-.14.65-.28,1.3-.41,1.95,0,.11-.02.22-.07.33-2.36,11.68-3.58,24.23-3.33,36.15.2,4.09-8.9-2.23-10.16-3.27-1.63-1.33-3.93-3.22-4.63-5.32-.58-1.74.43-3.73-.39-5.38-1.48-3-6.88-3.57-9.19-6.5-3.49-4.43-2.43-8.98-1.75-14.15.82-1.29,1.63-2.59,2.45-3.88,0,0-.03.04-.03.04.14-.14.28-.28.42-.42,0,0-.04.04-.04.04.14-.14.29-.27.43-.41,0,0-.03.02-.03.02,1.63-.39,3.29-.73,3.8-2.7,0,0-.03.03-.03.03.26-.66.82-1.37.71-1.96-.22-1.17-.61-2.45-2.22-2.49,0,0,.01.02.01.02-1.57-3.3-2.67-6.66-2.65-10.35.03-4.18,2.12-6.72,3.2-10.45,0,0,.12-.07.12-.07.09-.1.19-.2.28-.3,0,0,.09-.12.09-.12,4.45-1.79,6.53-2.21,11.31-1.11,0,0,.15.02.15.02.21.14.42.28.64.42l-.02.12s.04-.12.04-.12c.13.1.26.2.39.3,0,0,.12.04.12.04.19.17.38.35.56.52,0,0-.03-.02-.03-.02.15.14.3.27.45.4,0,0-.03-.04-.03-.04.29.27.58.54.87.82Z"/>
    <path class="cls-2" d="m288.57,141.11c1.22.28,2.43.6,3.67.82,1.23.22,2.49.35,3.73.51.15.19.29.38.44.58,0,0-.03-.05-.03-.05.16.25.32.5.48.75,0,0-.05-.01-.05-.01.19,4.06.32,8.14.61,12.2.28,3.88,1.18,7.86-.69,11.52,0,0,.02-.03.02-.03-.14.14-.27.29-.4.43,0,0,.04-.04.04-.04-.14.15-.27.29-.41.44,0,0,.05-.05.05-.05-.14.15-.28.29-.42.44,0,0,.05-.05.05-.05-.14.14-.29.28-.43.42,0,0,.05-.05.05-.05-.15.14-.29.28-.44.42,0,0,.04-.05.04-.05-.15.14-.29.27-.44.4,0,0,.03-.03.03-.03-.77.66-1.53,1.32-2.3,1.97-.11.1-.22.21-.33.31-.39.4-.77.8-1.16,1.2,0,0,.03-.02.02-.02-.54.74-1.41,1.41-1.57,2.23-.67,3.39-.68,6.94-2.56,10.02,0,0,.03,0,.03,0-.11.13-.22.26-.33.38,0,0-.05.06-.05.06-.1.11-.2.22-.3.32,0,0-.09.08-.09.08-.1.1-.19.2-.29.3,0,0-.09.08-.09.07-.1.1-.2.21-.3.31,0,0-.08.09-.08.09-.28.22-.56.43-.83.65,0,0,.04-.06.04-.06-.16.13-.31.25-.47.38,0,0,.03-.03.03-.03-.59.07-1.18.14-1.74.21-.53-9.16-.82-18.37-1.62-27.52-.71-8.24-.84-18.28-3.84-25.98-.78-3.93-1.55-7.87-2.33-11.8.38-1.66.65-3.36,1.17-4.98.88-2.7,1.92-5.35,2.89-8.03,0,0-.02.02-.02.02.26-.26.52-.52.79-.78,0,0-.02.02-.02.02,1.82.13,3.65.25,5.47.38,0,0-.04-.03-.04-.03.15.14.29.28.44.42,0,0-.05-.05-.05-.05.14.14.29.29.43.43,0,0-.03-.04-.03-.04.05.3.02.66.17.9,2.52,4.07,2.76,8.7,3.13,13.24.36,4.4-.05,8.79-1.28,13.08-.31,1.06-.71,2.38.73,3.14,0,0-.06.04-.06.04.18.15.35.31.53.46Z"/>
    <path class="cls-2" d="m163.97,8.08c4.4,2.54,6.44,6.64,7.53,11.38-.17,1.59-.34,3.18-.54,5.03h-20.69c.09-1.07.19-2.16.28-3.26,0,0-.02.04-.02.04.16-.13.31-.26.47-.38,0,0-.03.03-.03.03,1.66.02,3.33.15,4.97.01.98-.08,1.93-.58,2.89-.89,0,0,.04-.06.04-.06,1.75-.4,1.96-1.96,1.46-3.04-1.52-3.26-1.69-6.66-1.75-10.12,0,0-.02,0-.02,0,1.12.19,2.25.36,3.37.59.6.12,1.18.36,1.77.54,0,0-.01-.03-.01-.03.1.05.2.11.29.16Z"/>
    <path class="cls-6" d="m64.66,111.42c-4.16,11.69-8.58,23.14-11.09,35.34-2.5,12.19-3.74,24.75-4.23,37.17-.47,12.11-.38,23.68,1.08,35.75.74,6.1,1.62,12.13,3.32,18.05,1.67,5.85,5.3,11.69,6.34,17.59-4.53-11.89-8.54-22.91-10.43-35.56-1.79-12-1.47-23.83-1.16-35.91.64-24.72,5.88-49.89,16.16-72.42Z"/>
    <path class="cls-6" d="m276.65,134.69c3,7.71,3.13,17.74,3.84,25.98.79,9.14,1.09,18.36,1.62,27.52.55-.07,1.15-.14,1.74-.21-.77.49-1.55.97-2.69,1.69,0-18.51-2.16-36.65-4.51-54.99Z"/>
    <path class="cls-6" d="m274.66,215.34c.94-21.98-.37-43.55-2.3-65.45h.15s.15,0,.15,0c1.13,11.16,2.23,22.23,2.5,33.45.13,5.29.38,10.58.55,15.87.09,2.75-.07,5.49-.23,8.23-.11,1.86.4,6.42-.82,7.9Z"/>
    <path class="cls-6" d="m42.3,187.95c-.25-11.92.97-24.47,3.33-36.15-.63,6.18-1.28,12.36-1.91,18.54-.54,5.35.32,12.61-1.43,17.61Z"/>
    <path class="cls-6" d="m288.11,140.62c-1.43-.76-1.03-2.08-.73-3.14,1.24-4.29,1.64-8.68,1.28-13.08-.37-4.54-.61-9.17-3.13-13.24-.15-.24-.12-.6-.17-.9,7.25,7.77,2.44,21.27,2.74,30.36Z"/>
    <path class="cls-6" d="m83.93,110.08c-1.38-1.89-2.2-3.37-2.87-5.66-.67-2.3-.93-6.53-2.25-8.45-2.69-3.93-5.94,1.7-8.09,3.31,1.93-4.49,3.44-4.34,8.15-5.7,1.12,5.72,2.11,11.42,5.05,16.5Z"/>
    <path class="cls-6" d="m150.56,21.23c-.1,1.09-.19,2.19-.28,3.26h20.69c.2-1.85.37-3.44.54-5.03.11,1.84.22,3.68.34,5.52-4.07.02-8.14.05-12.21.08h-10.28c.35-1.12.78-2.47,1.21-3.83Z"/>
    <path class="cls-6" d="m266.7,249.22c2.41-8.16,3.36-17.9,7.11-25.52-1.19,8.66-3.46,17.03-6.74,25.13-.06.16-.25.27-.37.4Z"/>
    <path class="cls-6" d="m296.73,167.44c1.87-3.66.97-7.64.69-11.52-.3-4.06-.42-8.14-.61-12.2,1.17,4.44,1.16,9.05,1.44,13.62.2,3.18,1.32,7.75-1.52,10.1Z"/>
    <path class="cls-6" d="m22.21,120.82c-1.08,3.73-3.17,6.28-3.2,10.45-.02,3.7,1.08,7.06,2.65,10.35-3.66-7.14-4.62-14.04.55-20.81Z"/>
    <path class="cls-6" d="m99.81,108.59c-1.02,2.05-6.11,3.33-8.32,4.08-2.94.99-6.19.96-7.51-2.49,2.18,2.87,5.09,3.09,8.13,1.94,2.63-.99,5.13-2.34,7.69-3.53Z"/>
    <path class="cls-6" d="m268.82,125.93c-2.1-3.77-2.67-8.48-3.7-12.65-.63.18-1.1.32-1.57.45.54-.5,1.09-.99,1.86-1.7,1.18,4.81,2.29,9.36,3.4,13.9Z"/>
    <path class="cls-6" d="m116.95,100.22c-2.11,2.59-9.14,5.25-12.43,5.68,4.14-1.9,8.29-3.79,12.43-5.68Z"/>
    <path class="cls-6" d="m278.39,109.88c-.97,2.67-2.01,5.32-2.89,8.03-.52,1.62-.79,3.32-1.17,4.98-.04-3.88,1.36-10.07,4.06-13.01Z"/>
    <path class="cls-6" d="m272.37,149.9c-.77-4.38-2.28-9.24-1.6-13.68.63,4.43,1.25,8.87,1.88,13.3-.09.12-.19.25-.28.37Z"/>
    <path class="cls-6" d="m286.58,185.41c1.88-3.08,1.9-6.63,2.56-10.02.16-.81,1.03-1.49,1.57-2.23-.54,2.11-1.21,4.19-1.58,6.32-.38,2.22-.83,4.32-2.55,5.93Z"/>
    <path class="cls-6" d="m70.34,99.99c-1.05,3.95-3.26,8.2-5.7,11.46,1.9-3.82,3.8-7.64,5.7-11.46Z"/>
    <path class="cls-6" d="m158.58,6.81c.06,3.46.23,6.87,1.75,10.12.5,1.08.3,2.63-1.46,3.04,1.14-1.28,1.18-2.59.51-4.18-1.19-2.87-1.73-5.88-.81-8.98Z"/>
    <path class="cls-6" d="m34,119.22c-4.77-1.1-6.86-.68-11.31,1.11,3.05-2.95,7.56-3.4,11.31-1.11Z"/>
    <path class="cls-6" d="m270.71,135.81c-1.44-1.05-2.44-7.88-1.84-9.49.61,3.16,1.22,6.32,1.84,9.49Z"/>
    <path class="cls-3" d="m159.63,25.06c4.07-.03,8.14-.05,12.21-.08-4.07.03-8.14.05-12.21.08Z"/>
    <path class="cls-6" d="m158.83,20.03c-.96.31-1.91.81-2.89.89-1.64.14-3.31,0-4.97-.01,1.42-.21,2.84-.45,4.26-.62,1.19-.14,2.4-.18,3.6-.26Z"/>
    <path class="cls-6" d="m104.41,105.95c-1.49.86-2.97,1.72-4.46,2.59,1.48-.86,2.97-1.72,4.46-2.59Z"/>
    <path class="cls-6" d="m21.65,141.6c1.61.04,2,1.32,2.22,2.49.11.59-.45,1.3-.71,1.96.46-1.81.14-3.36-1.51-4.45Z"/>
    <path class="cls-6" d="m284.61,109.53c-1.82-.13-3.65-.25-5.47-.38,1.79-1.16,3.69-1.03,5.47.38Z"/>
    <path class="cls-6" d="m121.7,97.68c-1.53.85-3.06,1.71-4.59,2.56,1.53-.85,3.06-1.71,4.59-2.56Z"/>
    <path class="cls-6" d="m18.64,149.45c-.82,1.29-1.63,2.59-2.45,3.88.82-1.29,1.63-2.59,2.45-3.88Z"/>
    <path class="cls-6" d="m163.69,7.95c-.59-.19-1.17-.42-1.77-.54-1.12-.23-2.24-.39-3.37-.59.81-.12,1.69-.5,2.42-.31.97.25,1.82.94,2.72,1.44Z"/>
    <path class="cls-6" d="m23.19,146.02c-.51,1.97-2.17,2.31-3.8,2.7,1.27-.9,2.53-1.8,3.8-2.7Z"/>
    <path class="cls-6" d="m262.04,114.8c-.87,1.39-1.96,2.31-3.74,1.7,1.25-.57,2.49-1.13,3.74-1.7Z"/>
    <path class="cls-6" d="m66.16,265.93c.91,1.28,1.82,2.55,2.72,3.83-.91-1.28-1.82-2.55-2.72-3.83Z"/>
    <path class="cls-6" d="m46.12,140.77c-.29-1.52-.58-3.03-.87-4.55.29,1.52.58,3.03.87,4.55Z"/>
    <path class="cls-6" d="m46.47,147.65c0-1.67,0-3.34,0-5.01.76,1.67.92,3.34,0,5.01Z"/>
    <path class="cls-6" d="m64.21,262.92c.66,1.01,1.32,2.03,1.98,3.04-.66-1.01-1.32-2.03-1.98-3.04Z"/>
    <path class="cls-6" d="m61.2,257.57c.64,1.16,1.27,2.31,1.91,3.47-.64-1.16-1.27-2.31-1.91-3.47Z"/>
    <path class="cls-6" d="m128.45,96.73c-.74-.71-1.48-1.43-2.22-2.14.37.07.89.02,1.07.24.46.57.77,1.26,1.15,1.9Z"/>
    <path class="cls-6" d="m292.18,171.67c.77-.66,1.53-1.32,2.3-1.97-.77.66-1.53,1.32-2.3,1.97Z"/>
    <path class="cls-6" d="m126.23,94.6c-.76.54-1.51,1.08-2.27,1.61.76-.54,1.51-1.08,2.27-1.61Z"/>
    <path class="cls-6" d="m274.27,218.77c.14-1.15.27-2.31.41-3.46-.14,1.15-.27,2.31-.41,3.46Z"/>
    <path class="cls-6" d="m60.05,255.29c.39.77.78,1.54,1.17,2.31-.39-.77-.78-1.54-1.17-2.31Z"/>
    <path class="cls-6" d="m73.66,275.59c.48.5.95,1.01,1.42,1.51-.48-.5-.95-1.01-1.42-1.51Z"/>
    <path class="cls-6" d="m263.58,113.7c-.52.38-1.05.76-1.57,1.13.52-.38,1.05-.76,1.57-1.13Z"/>
    <path class="cls-6" d="m63.36,261.58c.29.46.59.92.88,1.38-.29-.46-.59-.92-.88-1.38Z"/>
    <path class="cls-6" d="m290.69,173.18c.39-.4.77-.8,1.16-1.2-.39.4-.77.8-1.16,1.2Z"/>
    <path class="cls-6" d="m77.47,279.49c.37.35.75.69,1.12,1.04-.37-.35-.75-.69-1.12-1.04Z"/>
    <path class="cls-6" d="m46.09,149.55c.13-.64.27-1.29.4-1.93-.13.64-.27,1.29-.4,1.93Z"/>
    <path class="cls-6" d="m75.55,277.59c.35.35.69.69,1.04,1.04-.35-.34-.69-.69-1.04-1.04Z"/>
    <path class="cls-6" d="m45.7,151.47c.14-.65.28-1.3.41-1.95-.14.65-.28,1.3-.41,1.95Z"/>
    <path class="cls-6" d="m46.49,142.67c-.13-.65-.26-1.29-.4-1.94.13.65.26,1.29.4,1.94Z"/>
    <path class="cls-6" d="m81.27,282.9c.42.32.84.65,1.26.97-.42-.32-.84-.65-1.26-.97Z"/>
    <path class="cls-6" d="m124,96.18c-.39.26-.78.53-1.18.79.39-.26.78-.53,1.18-.79Z"/>
    <path class="cls-6" d="m122.86,96.94c-.4.26-.8.51-1.19.77.4-.26.8-.51,1.19-.77Z"/>
    <path class="cls-6" d="m279.15,109.12c-.26.26-.52.52-.79.78.26-.26.52-.52.79-.78Z"/>
    <path class="cls-6" d="m71.01,272.49c.3.36.61.72.91,1.08-.3-.36-.61-.72-.91-1.08Z"/>
    <path class="cls-6" d="m37.13,121.71c-.29-.27-.58-.54-.87-.82.29.27.58.54.87.82Z"/>
    <path class="cls-6" d="m78.61,280.55c.27.24.54.48.82.72-.27-.24-.54-.48-.82-.72Z"/>
    <path class="cls-6" d="m284.25,187.69c.28-.22.56-.43.83-.65-.28.22-.56.43-.83.65Z"/>
    <path class="cls-6" d="m129.07,97.76c-.18-.29-.37-.59-.55-.88.18.29.37.59.55.88Z"/>
    <path class="cls-6" d="m79.39,281.23c.29.25.57.5.86.75-.29-.25-.57-.5-.86-.75Z"/>
    <path class="cls-6" d="m69.17,270.12c.22.29.43.58.65.88-.22-.29-.43-.58-.65-.88Z"/>
    <path class="cls-6" d="m70.34,271.63c.24.29.47.59.71.88-.24-.29-.47-.59-.71-.88Z"/>
    <path class="cls-6" d="m72.59,274.32c.25.29.5.57.74.86-.25-.28-.5-.57-.74-.86Z"/>
    <path class="cls-6" d="m35.88,120.55c-.19-.17-.38-.35-.56-.52.19.17.38.35.56.52Z"/>
    <path class="cls-6" d="m296.86,143.73c-.16-.25-.32-.5-.48-.75.16.25.32.5.48.75Z"/>
    <path class="cls-6" d="m266.6,249.91c.04-.24.09-.48.13-.73-.04.24-.09.48-.13.73Z"/>
    <path class="cls-6" d="m69.84,271.06c.18.2.36.4.54.6-.18-.2-.36-.4-.54-.6Z"/>
    <path class="cls-1" d="m62.23,92.68c-.22.04-.43.08-.65.12.06-.18.12-.36.17-.54.16.14.32.28.47.42Z"/>
    <path class="cls-6" d="m80.62,282.3c.19.18.39.35.58.53-.19-.18-.39-.36-.58-.53Z"/>
    <path class="cls-6" d="m70.76,99.26c-.15.26-.3.52-.45.77.15-.26.3-.52.45-.77Z"/>
    <path class="cls-6" d="m34.79,119.67c-.21-.14-.42-.28-.64-.42.21.14.42.28.64.42Z"/>
    <path class="cls-6" d="m82.5,283.85c.18,0,.37.01.55.02-.04.1-.09.21-.13.31-.14-.11-.28-.22-.42-.33Z"/>
    <path class="cls-6" d="m286.28,185.81c.11-.13.22-.26.33-.38-.11.13-.22.26-.33.38Z"/>
    <path class="cls-6" d="m163.97,8.08c-.1-.05-.2-.11-.29-.16.12,0,.22.06.29.16Z"/>
    <path class="cls-6" d="m294.44,169.73c.15-.13.29-.27.44-.4-.15.13-.29.27-.44.4Z"/>
    <path class="cls-6" d="m288.57,141.11c-.17-.15-.35-.31-.53-.46.17.15.35.31.53.46Z"/>
    <path class="cls-6" d="m294.83,169.37c.15-.14.29-.28.44-.42-.14.14-.29.28-.44.42Z"/>
    <path class="cls-6" d="m19.04,149.06c-.14.14-.28.28-.42.42.14-.14.28-.28.42-.42Z"/>
    <path class="cls-6" d="m63.07,261.02c.1.15.2.3.29.45-.1-.15-.2-.3-.29-.45Z"/>
    <path class="cls-6" d="m295.22,169c.14-.14.29-.28.43-.42-.14.14-.29.28-.43.42Z"/>
    <path class="cls-6" d="m295.61,168.62c.14-.15.28-.29.42-.44-.14.15-.28.29-.42.44Z"/>
    <path class="cls-6" d="m295.98,168.23c.14-.15.27-.29.41-.44-.14.15-.27.29-.41.44Z"/>
    <path class="cls-6" d="m296.35,167.84c.13-.14.27-.29.4-.43-.13.14-.27.29-.4.43Z"/>
    <path class="cls-6" d="m36.29,120.93c-.15-.13-.3-.27-.45-.4.15.13.3.27.45.4Z"/>
    <path class="cls-6" d="m22.61,120.45c-.09.1-.18.2-.28.3.09-.1.18-.2.28-.3Z"/>
    <path class="cls-6" d="m72.21,273.92c.15.15.29.3.44.45-.15-.15-.29-.3-.44-.45Z"/>
    <path class="cls-6" d="m35.19,119.98c-.13-.1-.26-.2-.39-.3.13.1.26.2.39.3Z"/>
    <path class="cls-6" d="m73.3,275.15c.13.14.26.28.39.42-.13-.14-.26-.28-.39-.42Z"/>
    <path class="cls-6" d="m285.4,110.29c-.14-.14-.29-.28-.43-.43.14.14.29.28.43.43Z"/>
    <path class="cls-6" d="m75.2,277.18c.1.09.2.19.3.29-.1-.09-.2-.19-.3-.29Z"/>
    <path class="cls-2" d="m272.37,149.9c.09-.12.19-.25.28-.37.01.12.02.25.03.37,0,0-.15,0-.15,0h-.15Z"/>
    <path class="cls-6" d="m76.72,278.71c.1.09.2.19.3.28-.1-.09-.2-.19-.3-.28Z"/>
    <path class="cls-6" d="m77.1,279.09c.1.09.2.19.3.28-.1-.09-.2-.19-.3-.28Z"/>
    <path class="cls-6" d="m285.01,109.91c-.15-.14-.29-.28-.44-.42.15.14.29.28.44.42Z"/>
    <path class="cls-6" d="m151.01,20.88c-.16.13-.31.26-.47.38.16-.13.31-.26.47-.38Z"/>
    <path class="cls-6" d="m80.2,281.92c.15.13.3.27.45.4-.15-.13-.3-.27-.45-.4Z"/>
    <path class="cls-6" d="m296.41,143.03c-.15-.19-.29-.38-.44-.58.15.19.29.38.44.58Z"/>
    <path class="cls-6" d="m19.43,148.69c-.14.14-.29.27-.43.41.14-.14.29-.27.43-.41Z"/>
    <path class="cls-6" d="m283.82,188.02c.16-.13.31-.26.47-.38-.16.13-.31.25-.47.38Z"/>
    <path class="cls-6" d="m285.16,186.95c.1-.1.2-.21.3-.31-.1.11-.2.21-.3.31Z"/>
    <path class="cls-6" d="m285.55,186.57c.1-.1.19-.21.29-.3-.09.1-.19.2-.29.3Z"/>
    <path class="cls-6" d="m285.93,186.19c.1-.11.2-.22.3-.32-.1.11-.2.22-.3.32Z"/>
    <path class="cls-4" d="m156.38,168.65c-2.09-.82-4.32-1.4-6.26-2.5-4.57-2.6-5.32-6.12-2.5-10.54.19-.18.37-.36.56-.54,0,0,.01-.05.01-.06.12-.12.24-.24.36-.37,0,0,.03,0,.03,0,.2-.18.4-.37.6-.55,0,0-.02.02-.02.02.32-.2.65-.4,1.09-.67-.46-.24-.77-.4-1.08-.57,0,0,.02.02.02.02-.21-.18-.41-.36-.62-.54,0,0-.03,0-.03,0-2.67-2.58-3.4-5.5-1.57-8.88,0,0-.03.04-.03.04.54-.59,1.08-1.17,1.62-1.76,0,0,.06-.03.06-.03.2-.18.4-.35.6-.53,0,0-.04.03-.04.03.39-.26.79-.52,1.18-.78,0,0-.03.03-.03.03,3.34-1.67,6.89-2.56,10.6-2.82,5.91.48,13.06.07,17.72,4.49,4.03,3.81,2.01,8.25-1.73,11.28,4.49,3.72,5.14,6.32,2.65,10.53-.31.31-.62.62-.93.93,0,0-.03.04-.03.04-.11.11-.23.22-.34.32,0,0-.11.04-.11.04-.58.41-1.16.81-1.74,1.22,0,0,.03-.04.03-.04-.26.15-.52.29-.78.44,0,0,.04-.04.04-.04-.27.13-.54.26-.81.39,0,0,.03-.04.03-.04-6.04,2.29-12.24,2.61-18.55,1.41Zm6.89-16.89c2.65,0,12.36-.95,12.56-4.55.23-4-8.97-4.8-11.65-4.91-2.8-.11-12.98.41-13.03,4.67-.05,4.31,9.53,4.82,12.11,4.79Zm-12.82,8.72c4.52,3.02,9.35,4.52,14.87,4.09,2.56-.2,11.54-1.18,10.28-5.48-1.27-4.38-10.68-2.7-13.76-2.7-4.57,0-8.93-.56-11.4,4.09Z"/>
    <path class="cls-4" d="m121.78,126.32c2.21,4.91,1.22,12.3-5.09,13.4-6.86,1.2-7.93-5.38-7.92-10.36.67-1.51,1.34-3.02,2.01-4.53,0,0-.03.02-.03.02.26-.26.52-.52.78-.78,0,0-.02.02-.02.02.29-.19.58-.37.87-.56,0,0,.07-.06.07-.07,2.59-1.34,5-.68,7.35.66,0,0-.03-.03-.03-.03.31.29.62.59.93.88,0,0,.09.1.09.1.18.18.35.36.53.54,0,0-.02-.02-.02-.02.16.24.32.48.48.71Z"/>
    <path class="cls-6" d="m76.65,234.9c3.93.29,7.9,1.1,11.76.71,3.58-.36,7.03-2.02,10.53-3.1,0,18.21,0,36.42,0,54.63-.13,0-.27,0-.4,0v-53.58c-6.75,2.06-15.26,5.06-21.89,1.34Z"/>
    <path class="cls-6" d="m92.54,228.39c-4.3,1.92-8.23,1.01-12.68.93-3.27-.06-4.38,1.19-3.99,4.57-3.71-2.21,2.25-5.11,4.04-5.09,4.24.03,8.31-.09,12.63-.41Z"/>
    <path class="cls-6" d="m229.77,234.67c5.76.57,12.79,2.65,18.02-.5-.78,4.78-15.43,1.93-18.02.5Z"/>
    <path class="cls-6" d="m95.49,198.64c-4.51-1.49-8.98-3.1-13.55-4.4-1.14-.32-2.58.37-3.88.59,3.29-1.75,5.16-.8,8.74.34,2.76.88,6.62,1.39,8.68,3.46Z"/>
    <path class="cls-6" d="m156.38,168.65c6.31,1.2,12.5.89,18.55-1.41-3.93,2.97-14.33,4.37-18.55,1.41Z"/>
    <path class="cls-6" d="m78.45,199.27c1.72.53,3.47.95,5.14,1.61,3.64,1.43,7.24,2.99,10.85,4.49-5.12-2.1-11.63-2.71-15.99-6.1Z"/>
    <path class="cls-6" d="m228.95,205.76c4.06-2.88,8.77-4.12,13.51-5.27,1.09-.27,2.17-.58,3.26-.87-2.4,1.62-5.34,1.87-8.09,2.75-2.81.9-5.83,2.96-8.67,3.39Z"/>
    <path class="cls-6" d="m223.64,223.36c-2.23-2.46-2.24-5.45-1.53-8.34.48-1.93,1.74-3.67,2.65-5.49,0,.19.06.43-.03.56-2.95,4.21-2.78,8.68-1.09,13.27Z"/>
    <path class="cls-6" d="m199.74,137.72c-2.75-2.31-2.6-5.38-2.01-8.44.25-1.3,1.05-2.5,1.6-3.74l.04.04c.03.33.19.74.06.99-1.98,3.76-1.98,7.43.45,11.01-.05.05-.1.1-.14.15Z"/>
    <path class="cls-6" d="m209.22,138.47c-1.14.64-2.23,1.67-3.43,1.83-2.39.32-4.66-.24-6.05-2.58.05-.05.1-.1.14-.15,3.1,2.72,5.39,2.93,9.29.85l.05.05Z"/>
    <path class="cls-6" d="m211.9,126.7c1.89,2.91,1.48,8.12-.78,9.87l-.06-.05c1.67-3.1,1.95-6.27.58-9.55.09-.09.18-.18.27-.27Z"/>
    <path class="cls-6" d="m160.92,137.65c-3.71.26-7.26,1.15-10.6,2.82,2.35-1.58,7.89-4.54,10.6-2.82Z"/>
    <path class="cls-6" d="m146.97,143.48c-1.83,3.38-1.1,6.3,1.57,8.88-3.44-1.51-4.36-6.66-1.57-8.88Z"/>
    <path class="cls-6" d="m200.85,123.64c3.22-2.17,5.56-2.17,8.39,0-.08.09-.17.18-.25.27-2.62-1.59-5.23-1.53-7.84.02-.1-.1-.2-.2-.3-.29Z"/>
    <path class="cls-6" d="m119.81,124.13c-2.35-1.34-4.76-1.99-7.35-.66,1.65-2.12,5.65-1.77,7.35.66Z"/>
    <path class="cls-6" d="m110.79,124.83c-.67,1.51-1.34,3.02-2.01,4.53-.42-1.52.53-3.67,2.01-4.53Z"/>
    <path class="cls-6" d="m78.09,194.81c-.75,1.57-.57,3.06.38,4.49-1.92-1.09-2.08-3.01-.38-4.49Z"/>
    <path class="cls-6" d="m229.02,227.31c-1.42-.94-2.84-1.88-4.27-2.82,1.42.94,2.84,1.88,4.27,2.82Z"/>
    <path class="cls-6" d="m246.03,199.3c.19-.88.39-1.75.58-2.63.2.38.65.86.55,1.12-.23.56-.73,1.01-1.13,1.51Z"/>
    <path class="cls-6" d="m247.82,234.12c.1-.82.21-1.63.31-2.45,1.18.98.89,1.77-.31,2.45Z"/>
    <path class="cls-6" d="m210.35,124.82c.51.63,1.03,1.25,1.54,1.88-.09.09-.18.18-.27.27-.45-.7-.89-1.39-1.34-2.09l.06-.06Z"/>
    <path class="cls-6" d="m94.41,205.35c.67.47,1.34.95,2.01,1.42-.67-.48-1.34-.95-2.01-1.42Z"/>
    <path class="cls-6" d="m224.71,232.2c.83.44,1.65.87,2.48,1.31-.83-.44-1.65-.87-2.48-1.31Z"/>
    <path class="cls-6" d="m98.25,225.63c-.69.44-1.38.88-2.07,1.32.69-.44,1.38-.88,2.07-1.32Z"/>
    <path class="cls-6" d="m148.55,141.76c-.54.59-1.08,1.17-1.62,1.76.54-.59,1.08-1.17,1.62-1.76Z"/>
    <path class="cls-6" d="m94.84,227.57c-.73.31-1.45.61-2.17.92.73-.31,1.45-.61,2.17-.92Z"/>
    <path class="cls-6" d="m176.42,166.52c.58-.41,1.16-.81,1.74-1.22-.58.41-1.16.81-1.74,1.22Z"/>
    <path class="cls-6" d="m149.17,152.89c.31.16.62.33,1.08.57-.44.27-.77.47-1.09.67,0-.41,0-.82,0-1.24Z"/>
    <path class="cls-6" d="m224.75,209.55c.36-.41.73-.83,1.09-1.24-.36.41-.73.83-1.09,1.24Z"/>
    <path class="cls-6" d="m209.24,123.65c.37.39.74.78,1.11,1.17,0,0-.06.06-.06.06-.44-.32-.87-.64-1.31-.96.08-.09.17-.18.25-.27Z"/>
    <path class="cls-6" d="m227.15,233.47c.5.28,1.01.56,1.51.84-.5-.28-1.01-.56-1.51-.84Z"/>
    <path class="cls-6" d="m178.63,164.89c.31-.31.62-.62.93-.93-.31.31-.62.62-.93.93Z"/>
    <path class="cls-6" d="m199.72,124.79c.38-.38.76-.76,1.13-1.15.1.1.2.2.3.29-.39.37-.78.74-1.17,1.11-.09-.09-.18-.17-.27-.26Z"/>
    <path class="cls-6" d="m150.35,140.44c-.39.26-.79.52-1.18.78.39-.26.79-.52,1.18-.78Z"/>
    <path class="cls-6" d="m121.78,126.32c-.16-.24-.32-.48-.48-.71.16.24.32.48.48.71Z"/>
    <path class="cls-6" d="m75.83,233.85c.28.35.56.7.84,1.05-.28-.35-.56-.7-.84-1.05Z"/>
    <path class="cls-6" d="m226.59,207.58c.28-.24.56-.48.84-.72-.28.24-.56.48-.84.72Z"/>
    <path class="cls-6" d="m227.82,206.54c.39-.27.77-.54,1.16-.81-.39.27-.77.54-1.16.81Z"/>
    <path class="cls-6" d="m120.71,124.98c-.31-.29-.62-.59-.93-.88.31.3.62.59.93.88Z"/>
    <path class="cls-6" d="m112.4,123.54c-.29.19-.58.37-.87.56.29-.19.58-.37.87-.56Z"/>
    <path class="cls-6" d="m228.63,234.29c.39.13.78.27,1.17.4-.39-.13-.78-.27-1.17-.4Z"/>
    <path class="cls-6" d="m111.55,124.07c-.26.26-.52.52-.78.78.26-.26.52-.52.78-.78Z"/>
    <path class="cls-6" d="m96.43,206.77c.21.18.41.36.62.54-.21-.18-.41-.36-.62-.54Z"/>
    <path class="cls-6" d="m210.76,137.35c-.25.25-.51.51-.76.76-.09-.08-.17-.17-.26-.25.26-.25.51-.5.77-.75.08.08.16.16.25.24Z"/>
    <path class="cls-6" d="m148.18,155.07c-.19.18-.37.36-.56.54.19-.18.37-.36.56-.54Z"/>
    <path class="cls-6" d="m225.8,208.33c.27-.26.55-.51.82-.77-.27.26-.55.51-.82.77Z"/>
    <path class="cls-6" d="m99.33,224.83c-.21.18-.41.36-.62.54.21-.18.41-.36.62-.54Z"/>
    <path class="cls-6" d="m149.21,141.2c-.2.18-.4.35-.6.53.2-.18.4-.35.6-.53Z"/>
    <path class="cls-6" d="m95.62,227.2c-.27.13-.54.27-.81.4.27-.13.54-.27.81-.4Z"/>
    <path class="cls-6" d="m210,138.11c-.26.12-.52.24-.78.35,0,0-.05-.05-.05-.05.19-.18.38-.37.57-.55.09.08.17.17.26.25Z"/>
    <path class="cls-6" d="m211.11,136.57c-.12.26-.24.52-.36.78-.08-.08-.16-.16-.25-.24.18-.2.36-.4.54-.6l.06.05Z"/>
    <path class="cls-6" d="m199.33,125.54c.13-.25.26-.5.39-.75.09.09.18.17.27.26-.21.18-.41.35-.62.53,0,0-.04-.04-.04-.04Z"/>
    <path class="cls-6" d="m121.33,125.62c-.18-.18-.35-.36-.53-.54.18.18.35.36.53.54Z"/>
    <path class="cls-6" d="m174.9,167.28c.27-.13.54-.26.81-.39-.27.13-.54.26-.81.39Z"/>
    <path class="cls-6" d="m148.58,152.37c.21.18.41.36.62.54-.21-.18-.41-.36-.62-.54Z"/>
    <path class="cls-6" d="m149.18,154.1c-.2.18-.4.37-.6.55.2-.18.4-.37.6-.55Z"/>
    <path class="cls-6" d="m175.67,166.92c.26-.15.52-.29.78-.44-.26.15-.52.29-.78.44Z"/>
    <path class="cls-6" d="m96.23,199.06c-.26-.15-.52-.3-.78-.44.26.15.52.3.78.44Z"/>
    <path class="cls-6" d="m148.55,154.65c-.12.12-.24.24-.36.37.12-.12.24-.24.36-.37Z"/>
    <path class="cls-6" d="m178.27,165.26c.11-.11.23-.21.34-.32-.11.11-.23.21-.34.32Z"/>
    <path class="cls-6" d="m227.4,206.9c.15-.13.3-.26.45-.39-.15.13-.3.26-.45.39Z"/>
    <path class="cls-6" d="m224.79,224.52c-.15-.14-.29-.28-.44-.42.14.14.29.28.44.42Z"/>
    <path class="cls-6" d="m98.7,225.33c-.16.11-.32.23-.49.34.16-.11.32-.23.49-.34Z"/>
    <path class="cls-6" d="m96.03,226.96c-.14.09-.29.18-.43.28.14-.09.29-.18.43-.28Z"/>
    <path class="cls-6" d="m224.02,223.77c-.14-.15-.27-.29-.41-.44.14.15.27.29.41.44Z"/>
    <path class="cls-6" d="m224.4,224.15c-.14-.14-.28-.28-.43-.43.14.14.28.28.43.43Z"/>
    <path class="cls-5" d="m135.04,220.59c6.09.05,6.02,9.32,0,9.31-6.04,0-6.1-9.37,0-9.31Z"/>
    <path class="cls-5" d="m158.95,220.97c6.12.03,5.9,9.02,0,8.97-5.79-.06-6.04-8.99,0-8.97Z"/>
    <path class="cls-5" d="m193.77,250.94c-.07,4.56-6.91,4.88-7.5.45-.69-5.19,7.58-5.8,7.5-.45Z"/>
    <path class="cls-5" d="m171.24,254.63c-4.91.04-4.91-7.52-.06-7.6,4.82-.07,5.02,7.56.06,7.6Z"/>
    <path class="cls-3" d="m163.27,151.76c-2.59.04-12.16-.48-12.11-4.79.05-4.26,10.23-4.79,13.03-4.67,2.68.11,11.88.9,11.65,4.91-.2,3.6-9.92,4.55-12.56,4.55Z"/>
    <path class="cls-3" d="m150.45,160.49c2.46-4.65,6.83-4.09,11.4-4.09,3.08,0,12.48-1.68,13.76,2.7,1.25,4.3-7.72,5.28-10.28,5.48-5.52.43-10.35-1.07-14.87-4.09Z"/>
    <path class="cls-4" d="m199.37,125.58c.21-.18.41-.35.62-.53.39-.37.78-.74,1.17-1.11,2.61-1.55,5.22-1.61,7.84-.02.44.32.87.64,1.31.96.45.7.89,1.39,1.34,2.09,1.37,3.28,1.09,6.46-.58,9.55-.18.2-.36.4-.54.6-.26.25-.51.5-.77.75-.19.18-.38.37-.57.55-3.9,2.08-6.19,1.87-9.29-.85-2.43-3.58-2.43-7.24-.45-11.01.13-.25-.03-.65-.06-.99Z"/>
  </g>
</svg>